<svg width="42" height="101" viewBox="0 0 42 101" fill="none" xmlns="http://www.w3.org/2000/svg">
<path d="M39.1811 25.849C37.5528 34.249 33.4142 41.6823 31.5484 44.349L19.3362 42.849C18.1489 42.349 15.3672 40.049 13.7389 34.849C12.1106 29.649 12.3819 21.0157 12.7212 17.349C12.8908 17.0157 13.23 16.149 13.23 15.349C13.23 14.349 15.7742 14.849 16.7919 14.849C17.6061 14.849 17.1312 17.849 16.7919 19.349C17.3008 19.6823 18.522 20.249 19.3362 19.849C20.3539 19.349 20.3539 14.849 20.3539 11.849C20.3539 9.449 21.7108 4.18233 22.3892 1.849C23.4069 1.51567 25.7476 1.049 26.9689 1.849C28.1901 2.649 27.1385 9.849 26.46 13.349C26.46 14.5157 26.7653 16.249 27.9865 13.849C29.2078 11.449 30.1915 4.849 30.5308 1.849C32.2269 0.348999 35.6192 -1.651 35.6192 2.349C35.6192 6.349 34.2623 12.349 33.5838 14.849H36.6369C36.4673 12.1823 36.5352 6.449 38.1635 4.849C39.7918 3.249 40.8773 4.18233 41.2165 4.849C41.7253 14.349 41.2165 15.349 39.1811 25.849Z" fill="#9ECBE8"/>
<path d="M31.0396 44.349C32.6679 71.149 16.2831 92.849 8.1416 100.349L7.24792e-05 98.349L0.508896 90.349C16.3849 79.549 19.6754 54.0157 18.8273 42.849L31.0396 44.349Z" fill="#13A0CE"/>
</svg>
