<svg width="399" height="417" viewBox="0 0 399 417" fill="none" xmlns="http://www.w3.org/2000/svg">
<circle cx="210.5" cy="171.5" r="171.5" fill="#13A0CE"/>
<path d="M162 134C164.5 129.333 172.4 121.8 184 129" stroke="black" stroke-width="3"/>
<path d="M257 134C254.5 129.32 246.6 121.766 235 128.986" stroke="black" stroke-width="3"/>
<path fill-rule="evenodd" clip-rule="evenodd" d="M205 166C205 152.193 193.807 141 180 141C166.193 141 155 152.193 155 166H205Z" fill="#FFFCFE"/>
<path fill-rule="evenodd" clip-rule="evenodd" d="M170 166H191C191 159.925 186.299 155 180.5 155C174.701 155 170 159.925 170 166Z" fill="#0D4465"/>
<path fill-rule="evenodd" clip-rule="evenodd" d="M241 187C241 195.837 227.569 203 211 203C194.432 203 181 195.837 181 187H241Z" fill="#0A3F61"/>
<path fill-rule="evenodd" clip-rule="evenodd" d="M266 166C266 152.193 254.807 141 241 141C227.193 141 216 152.193 216 166H266Z" fill="#FFFCFE"/>
<path fill-rule="evenodd" clip-rule="evenodd" d="M231 166H252C252 159.925 247.299 155 241.5 155C235.701 155 231 159.925 231 166Z" fill="#043C5D"/>
<ellipse cx="141" cy="185.5" rx="16" ry="5.5" fill="#72BFE3"/>
<ellipse cx="277" cy="185.5" rx="16" ry="5.5" fill="#77BDDE"/>
<path d="M186.5 416L195 341.128L166 336L176 416H186.5Z" fill="#13A0CE" stroke="#13A0CE"/>
<path d="M169 363H193L187 416.5H174.5L169 363Z" fill="#ED1651"/>
<path fill-rule="evenodd" clip-rule="evenodd" d="M145 417H186C186 405.402 176.822 396 165.5 396C154.178 396 145 405.402 145 417Z" fill="#504947"/>
<path d="M235.5 415L227 340.128L256 335L246 415H235.5Z" fill="#13A0CE" stroke="#13A0CE"/>
<path d="M253 362H229L235 415.5H247.5L253 362Z" fill="#ED1651"/>
<path fill-rule="evenodd" clip-rule="evenodd" d="M277 416H236C236 404.402 245.178 395 256.5 395C267.822 395 277 404.402 277 416Z" fill="#504947"/>
<path d="M25.9421 324.701C34.4745 323.969 42.3289 320.578 45.1896 318.974L45.0748 306.386C44.7116 305.124 42.739 302.041 37.7541 299.812C32.7692 297.583 24.1577 296.909 20.4751 296.85C20.1247 296.986 19.2251 297.236 18.43 297.147C17.436 297.037 17.6463 299.68 17.5317 300.716C17.4399 301.544 20.4752 301.391 22.0043 301.211C22.2783 301.765 22.7039 303.07 22.2146 303.854C21.603 304.834 17.1303 304.339 14.1486 304.008C11.7631 303.744 6.37561 304.545 3.98001 304.978C3.53404 305.976 2.80647 308.306 3.464 309.636C4.12153 310.967 11.3963 310.69 14.9514 310.385C16.111 310.513 17.7994 311.015 15.2764 311.993C12.7534 312.971 6.08264 313.245 3.06266 313.259C1.38066 314.82 -0.989411 318.05 2.98627 318.49C6.96196 318.931 13.0784 318.211 15.6396 317.796L15.2956 320.902C12.6643 320.436 6.95814 319.874 5.1844 321.354C3.41066 322.834 4.216 324.041 4.8404 324.459C14.2253 326.023 15.2766 325.615 25.9421 324.701Z" fill="#9ECBE8"/>
<path d="M45.2468 318.456C71.7004 323.063 95.1147 308.786 103.486 301.33L102.416 292.828L94.4073 292.465C81.8841 307.425 56.1352 307.961 45.132 305.869L45.2468 318.456Z" fill="#13A0CE"/>
<path d="M373.97 320.273C365.626 322.164 357.155 321.369 353.963 320.735L350.419 308.953C350.398 307.664 351.383 304.192 355.488 300.608C359.592 297.024 367.604 293.796 371.097 292.63C371.47 292.651 372.4 292.613 373.132 292.29C374.048 291.888 374.614 294.418 375.024 295.35C375.352 296.095 372.415 296.868 370.905 297.161C370.805 297.761 370.778 299.107 371.472 299.692C372.339 300.422 376.458 298.61 379.204 297.402C381.401 296.436 386.768 295.557 389.177 295.239C389.892 296.036 391.262 297.991 391.021 299.431C390.781 300.871 383.767 302.807 380.29 303.595C379.222 304.065 377.758 305.042 380.447 305.194C383.136 305.345 389.573 303.588 392.456 302.691C394.512 303.64 397.708 305.939 394.047 307.55C390.385 309.161 384.347 310.334 381.785 310.72L383.015 313.515C385.387 312.286 390.663 310.039 392.783 310.886C394.903 311.732 394.486 313.101 394.012 313.68C385.521 317.971 384.401 317.908 373.97 320.273Z" fill="#9ECBE8"/>
<path d="M353.758 320.269C329.882 332.551 303.422 326.29 293.278 321.858L291.831 313.6L299.358 310.845C315.637 321.028 340.334 313.759 350.214 308.487L353.758 320.269Z" fill="#13A0CE"/>
</svg>
