<svg width="284" height="292" viewBox="0 0 284 292" fill="none" xmlns="http://www.w3.org/2000/svg">
<g id="Elder_Large">
<g id="Group 8">
<path id="Body" d="M59.703 126.651C60.4063 108.258 64.574 89.3422 66.5536 71.6943C70.044 40.4128 98.254 17.8682 129.59 21.3481C129.59 21.3481 181.529 27.1271 181.542 27.1271C204.412 29.6749 223.232 45.993 229.731 66.8349C233.742 79.6856 231.633 92.7226 230.174 105.809C228.22 123.258 225.655 140.695 222.099 157.908C217.866 178.315 208.437 196.124 187.546 204.364C169.456 211.498 150.936 212.107 131.726 210.864C132.064 210.951 132.39 211.026 132.728 211.113C116.11 207.919 99.895 204.165 85.6337 195.006C67.8299 183.56 64.4307 168.397 61.0054 149.134C59.703 141.814 59.4034 134.27 59.703 126.651Z" fill="#00A1CD"/>
<path id="Mouth" d="M136.375 105.412C136.375 105.412 138.003 113.465 150.545 114.559C163.087 115.652 164.924 108.444 164.924 108.444L136.375 105.412Z" fill="#0D4060"/>
<g id="right-eye">
<path id="Vector" d="M187.07 92.652C187.659 87.1651 183.809 82.2161 178.479 81.6109C173.136 81.0058 168.316 84.9596 167.727 90.433" fill="white"/>
<path id="Vector_2" d="M167.491 90.2582C165.317 97.2513 170.752 103.639 176.082 104.244" stroke="#2585AA" stroke-width="2" stroke-miterlimit="10"/>
<path id="Vector_3" d="M188.943 77.4285C188.943 77.4285 186.088 69.3192 177.484 72.9234" stroke="#0D4060" stroke-width="3" stroke-miterlimit="10"/>
<path id="Vector_4" d="M181.858 92.0468C182.12 89.6799 180.457 87.5416 178.138 87.2727C175.82 87.0037 173.751 88.7116 173.489 91.092" fill="#0D4060"/>
</g>
<g id="glasses">
<path id="Vector_5" d="M187.286 114.323C173.368 114.323 162.085 103.556 162.085 90.2743C162.085 76.9927 173.368 66.2259 187.286 66.2259C201.204 66.2259 212.487 76.9927 212.487 90.2743C212.487 103.556 201.204 114.323 187.286 114.323Z" stroke="black" stroke-width="2" stroke-miterlimit="10"/>
<path id="Vector_6" d="M118.741 107.189C104.822 107.189 93.5393 96.4221 93.5393 83.1405C93.5393 69.859 104.822 59.0921 118.741 59.0921C132.659 59.0921 143.942 69.859 143.942 83.1405C143.942 96.4221 132.659 107.189 118.741 107.189Z" stroke="black" stroke-width="2" stroke-miterlimit="10"/>
<path id="Vector_7" d="M162.592 85.0047C162.592 85.0047 153.736 72.7506 143.669 83.1405" stroke="black" stroke-width="2" stroke-miterlimit="10"/>
</g>
<g id="right-arm-holding-a-stick">
<path id="Vector_8" d="M219.585 157.597C219.585 157.597 238.613 149.755 248.85 179.259" stroke="#2489B7" stroke-width="3" stroke-miterlimit="10" stroke-linejoin="round"/>
<g id="Left arm with a stick">
<path id="Vector_9" d="M244.943 260.614L246.115 205.358C246.115 205.358 246.285 195.901 254.555 195.615L262.135 194.807" stroke="#633413" stroke-width="5" stroke-miterlimit="10"/>
<path id="Vector_10" d="M242.156 183.1C241.687 180.738 242.885 178.104 245.334 176.625C248.46 174.736 252.471 175.382 254.255 178.066L258.67 184.691C258.696 184.74 258.722 184.79 258.762 184.84C258.775 184.865 258.801 184.877 258.814 184.902L264.766 193.85C265.234 194.546 264.948 195.528 264.127 196.025C263.307 196.522 262.265 196.348 261.796 195.652L258.553 190.78C258.293 191.19 257.967 191.576 257.602 191.936L261.484 197.777C261.952 198.473 261.666 199.455 260.845 199.952C260.025 200.449 258.983 200.275 258.514 199.579L254.633 193.738C254.19 193.887 253.734 193.987 253.278 194.036L256.613 199.057C257.081 199.753 256.795 200.735 255.974 201.232C255.154 201.729 254.112 201.555 253.643 200.859L248.082 192.495C247.847 192.272 247.626 192.011 247.431 191.75L247.926 193.688C248.134 194.509 247.561 195.391 246.636 195.665C245.725 195.938 244.8 195.491 244.591 194.67" fill="#A2CCED"/>
</g>
</g>
<g id="left-leg">
<g id="Right leg">
<path id="Vector_11" d="M133.119 195.59L121.801 262.055H115.237L103.919 195.801" fill="#00A1CD"/>
<path id="Vector_12" d="M115.107 261.036L108.491 223.28H128.248L122.817 262.055L115.107 261.036Z" fill="#5652A3"/>
</g>
<path id="Vector_13" d="M122.961 262.677C122.961 254.425 115.954 247.738 107.306 247.738C98.6577 247.738 91.6508 254.425 91.6508 262.677" fill="#504B48"/>
</g>
<g id="right-leg">
<g id="Left leg">
<path id="Vector_14" d="M176.2 196L164.882 262.453H158.318L147 196.199" fill="#00A1CD"/>
<path id="Vector_15" d="M158.214 265.366L151.663 223.367H171.029L167.096 264.884L158.214 265.366Z" fill="#5652A3"/>
</g>
<path id="Vector_16" d="M189.172 263.087C189.172 254.835 182.165 248.148 173.517 248.148C164.869 248.148 157.862 254.835 157.862 263.087" fill="#504B48"/>
</g>
<g id="left-eye">
<g id="Right eye">
<path id="Vector_17" d="M118.975 73.9934C118.975 73.9934 122.505 67.0461 130.085 72.0795" stroke="#0D4060" stroke-width="3" stroke-miterlimit="10"/>
<path id="Vector_18" d="M134.93 88.7331C135.516 83.6625 131.687 79.0889 126.386 78.5297C121.085 77.9704 116.279 81.6243 115.693 86.6825" fill="white"/>
<path id="Vector_19" d="M129.733 88.1863C129.993 85.999 128.339 84.0229 126.034 83.7743C123.742 83.5258 121.671 85.1041 121.411 87.3039" fill="#0D4060"/>
</g>
<path id="Vector_20" d="M134.552 89.3918C135.138 94.4625 128.756 101.41 121.411 99.4462" stroke="#2585AA" stroke-width="2" stroke-miterlimit="10"/>
</g>
<path id="forehead" d="M183.678 55.8857C183.678 55.8857 160.144 60.074 134.917 49.6095" stroke="#2585AA" stroke-width="2" stroke-miterlimit="10"/>
<g id="left-arm">
<path id="Vector_21" d="M62.1778 137.86C62.1778 137.86 35.9371 142.661 35.8369 103.791" stroke="#2489B7" stroke-width="3" stroke-miterlimit="10"/>
<path id="Vector_22" d="M42.9639 103.626C42.4484 105.971 40.2876 107.979 37.4275 108.454C33.7831 109.065 30.3326 107.002 29.7635 103.867L28.3505 96.1354C28.337 96.0873 28.3328 96.0241 28.3319 95.9728C28.3252 95.9488 28.3184 95.9248 28.3083 95.8888L26.3937 85.4553C26.2436 84.6317 26.8964 83.8341 27.8509 83.6798C28.8054 83.5255 29.7085 84.0534 29.8585 84.877L30.8981 90.5552C31.3038 90.2712 31.7608 90.0256 32.2312 89.8279L30.9826 83.0195C30.8325 82.1959 31.4853 81.3983 32.4398 81.244C33.3943 81.0897 34.2974 81.6176 34.4475 82.4413L35.6961 89.2496C36.1642 89.2842 36.6265 89.346 37.0645 89.4654L35.9904 83.616C35.8404 82.7923 36.4931 81.9947 37.4476 81.8404C38.4021 81.6861 39.3052 82.214 39.4553 83.0377L41.2477 92.7948C41.3855 93.094 41.4731 93.4062 41.548 93.7215L41.8709 91.7475C42.0018 90.9162 42.898 90.3136 43.8502 90.3915C44.8058 90.4814 45.4725 91.2242 45.3416 92.0555" fill="#A2CCED"/>
</g>
</g>
</g>
</svg>
