<svg width="360" height="561" viewBox="0 0 360 561" fill="none" xmlns="http://www.w3.org/2000/svg">
    <g id="Home_Screen_Labels1" clip-path="url(#clip0)">
        <g id="bg">
            <path id="Vector" d="M366.419 0H-4.57629V352.256H366.419V0Z" fill="#F3D668" />
        </g>
        <g id="chat_button">
            <g id="Group 31">
                <g id="Intersect" filter="url(#filter0_i)">
                    <path fill-rule="evenodd" clip-rule="evenodd"
                        d="M335.487 154.15C339.098 144.625 341.076 134.286 341.076 123.48C341.076 76.0524 302.969 37.6045 255.962 37.6045C208.954 37.6045 170.847 76.0524 170.847 123.48C170.847 130.418 171.663 137.164 173.202 143.625C176.579 149.892 183.202 154.15 190.82 154.15H335.487Z"
                        fill="#A5DBDF" />
                </g>
                <path id="Vector_2" d="M340.932 132.767H170.847V175.744H340.932V132.767Z" fill="#2E9E48" />
                <path id="Vector_3"
                    d="M311.427 116.432C311.204 117.612 311.418 118.857 312.134 120.007C314.074 123.134 318.955 124.458 323.044 122.968C324.724 122.358 325.986 121.366 326.788 120.2C328.283 121.807 330.725 122.849 333.501 122.836C337.118 122.82 340.178 121.008 341.247 118.512C341.367 118.52 341.487 118.519 341.607 118.527L341.54 106.002C341.453 106.003 341.365 106.011 341.289 106.012C341.167 105.686 341.023 105.369 340.825 105.052C338.885 101.926 334.004 100.602 329.915 102.092C329.151 102.371 328.465 102.734 327.866 103.155C325.818 100.238 321.113 99.0303 317.154 100.47C314.864 101.308 313.31 102.845 312.729 104.587C310.649 103.911 308.212 103.888 306.009 104.693C301.92 106.183 300.181 109.92 302.121 113.046C303.796 115.764 307.737 117.118 311.427 116.432Z"
                    fill="white" />
                <path id="Intersect_2" fill-rule="evenodd" clip-rule="evenodd"
                    d="M180.445 89.9554C182.643 90.5116 185.092 90.4222 187.34 89.5542C188.236 89.2069 189.043 88.7542 189.746 88.2279C192.127 91.9122 197.631 93.4596 202.277 91.6701C204.965 90.628 206.795 88.7016 207.486 86.512C209.918 87.3752 212.773 87.4173 215.358 86.4173C220.158 84.5646 222.219 79.8697 219.966 75.9222C218.02 72.4905 213.413 70.7641 209.086 71.6062C209.355 70.122 209.112 68.5535 208.28 67.1008C206.828 64.5565 203.941 62.9481 200.786 62.6221C191.885 69.7796 184.827 79.1711 180.445 89.9554Z"
                    fill="white" />
                <rect id="Rectangle 103" x="166.271" y="173.442" width="179.237" height="21.4884" fill="#F8C911" />
                <path id="Vector_4"
                    d="M312.964 90.0143C312.808 90.9 312.959 91.8345 313.461 92.6984C314.82 95.0459 318.239 96.0409 321.102 94.9232C322.278 94.4659 323.162 93.7213 323.723 92.8463C324.771 94.0529 326.481 94.836 328.425 94.8271C330.958 94.8156 333.101 93.4564 333.848 91.5826C333.933 91.5885 334.017 91.5882 334.101 91.594L330.636 82.5C330.629 82.4826 330.642 82.5173 330.636 82.5C330.636 82.5 330.012 81.203 329.873 80.9651C328.513 78.6176 328.771 78.1364 325.908 79.2541C325.373 79.4636 324.893 79.7357 324.473 80.0514C323.038 77.8612 319.743 76.9535 316.971 78.0332C315.367 78.6618 314.279 79.8154 313.873 81.1227C312.416 80.6147 310.71 80.5973 309.167 81.2006C306.303 82.3183 305.087 85.1231 306.446 87.4706C307.62 89.5114 310.381 90.5282 312.964 90.0143Z"
                    fill="white" />
            </g>
            <g id="Group 30">
                <rect id="Rectangle 109" x="211.271" y="161.93" width="82.3358" height="22.2558" rx="11.1279"
                    fill="black" fill-opacity="0.5" />
                <path id="Chat"
                    d="M246.189 177.737C246.09 179.114 245.58 180.198 244.66 180.989C243.746 181.78 242.539 182.176 241.039 182.176C239.398 182.176 238.106 181.625 237.163 180.523C236.225 179.416 235.757 177.898 235.757 175.971V175.188C235.757 173.958 235.974 172.874 236.407 171.937C236.841 170.999 237.459 170.281 238.262 169.783C239.07 169.279 240.008 169.027 241.074 169.027C242.551 169.027 243.74 169.423 244.642 170.214C245.545 171.005 246.066 172.115 246.207 173.545H243.57C243.506 172.719 243.274 172.121 242.876 171.752C242.483 171.377 241.883 171.189 241.074 171.189C240.195 171.189 239.536 171.506 239.097 172.139C238.663 172.766 238.44 173.741 238.429 175.065V176.032C238.429 177.415 238.637 178.426 239.053 179.064C239.475 179.703 240.137 180.022 241.039 180.022C241.853 180.022 242.46 179.838 242.858 179.469C243.263 179.094 243.494 178.517 243.553 177.737H246.189ZM250.232 173.527C250.906 172.719 251.753 172.314 252.772 172.314C254.835 172.314 255.881 173.513 255.91 175.909V182H253.37V175.979C253.37 175.435 253.253 175.033 253.018 174.775C252.784 174.512 252.394 174.38 251.85 174.38C251.105 174.38 250.566 174.667 250.232 175.241V182H247.692V168.5H250.232V173.527ZM263.337 182C263.22 181.771 263.135 181.487 263.082 181.147C262.467 181.833 261.667 182.176 260.683 182.176C259.751 182.176 258.977 181.906 258.362 181.367C257.753 180.828 257.448 180.148 257.448 179.328C257.448 178.32 257.82 177.547 258.564 177.008C259.314 176.469 260.395 176.196 261.808 176.19H262.976V175.646C262.976 175.206 262.862 174.854 262.634 174.591C262.411 174.327 262.057 174.195 261.57 174.195C261.142 174.195 260.806 174.298 260.559 174.503C260.319 174.708 260.199 174.989 260.199 175.347H257.659C257.659 174.796 257.829 174.286 258.169 173.817C258.509 173.349 258.989 172.982 259.61 172.719C260.231 172.449 260.929 172.314 261.702 172.314C262.874 172.314 263.803 172.61 264.488 173.202C265.18 173.788 265.525 174.614 265.525 175.681V179.803C265.531 180.705 265.657 181.388 265.903 181.851V182H263.337ZM261.236 180.233C261.611 180.233 261.957 180.151 262.273 179.987C262.59 179.817 262.824 179.592 262.976 179.311V177.676H262.027C260.756 177.676 260.079 178.115 259.997 178.994L259.988 179.144C259.988 179.46 260.1 179.721 260.322 179.926C260.545 180.131 260.85 180.233 261.236 180.233ZM270.517 170.152V172.49H272.143V174.354H270.517V179.1C270.517 179.451 270.585 179.703 270.72 179.855C270.854 180.008 271.112 180.084 271.493 180.084C271.774 180.084 272.023 180.063 272.24 180.022V181.947C271.742 182.1 271.229 182.176 270.702 182.176C268.921 182.176 268.013 181.276 267.977 179.478V174.354H266.589V172.49H267.977V170.152H270.517Z"
                    fill="white" />
            </g>
            <g id="Group 32">
                <path id="Vector_5" d="M232.207 107.938C232.207 107.938 225.11 108.764 224.447 120.079" stroke="#2489B7"
                    stroke-width="3" stroke-miterlimit="10" stroke-linecap="round" />
                <path id="Vector_6"
                    d="M227.554 124.539C227.623 124.838 227.409 125.129 227.083 125.183C226.757 125.238 226.432 125.041 226.363 124.743L226.2 124.033C226.182 124.153 226.156 124.27 226.12 124.379L225.762 127.972C225.733 128.274 225.436 128.493 225.103 128.46C224.77 128.427 224.523 128.15 224.552 127.852L224.766 125.697C224.618 125.748 224.462 125.788 224.299 125.81L224.049 128.318C224.02 128.62 223.723 128.839 223.39 128.806C223.057 128.773 222.811 128.496 222.84 128.198L223.09 125.689C222.919 125.628 222.756 125.551 222.608 125.46L222.398 127.553C222.369 127.856 222.072 128.074 221.739 128.041C221.406 128.009 221.16 127.732 221.189 127.433L221.573 123.589C221.573 123.578 221.576 123.571 221.58 123.56C221.58 123.538 221.58 123.52 221.583 123.498L221.866 120.651C221.982 119.497 223.119 118.659 224.393 118.787C225.392 118.889 226.193 119.559 226.432 120.4L227.554 124.539Z"
                    fill="#A2CCED" />
                <path id="Vector_7" d="M276.854 107.257C276.854 107.257 283.957 108.018 287.075 97.1284"
                    stroke="#2489B7" stroke-width="3" stroke-miterlimit="10" stroke-linecap="round" />
                <path id="Vector_8"
                    d="M284.584 91.9588C284.566 91.653 284.823 91.4018 285.156 91.4018C285.489 91.4018 285.775 91.653 285.793 91.9588L285.837 92.6869C285.873 92.5741 285.916 92.4612 285.974 92.3593L286.923 88.8752C287.002 88.5839 287.332 88.4165 287.654 88.5038C287.976 88.5912 288.176 88.9043 288.096 89.1992L287.527 91.2889C287.683 91.2634 287.842 91.2525 288.005 91.2562L288.668 88.8242C288.748 88.533 289.077 88.3655 289.399 88.4529C289.722 88.5402 289.921 88.8533 289.841 89.1482L289.179 91.5802C289.338 91.6676 289.483 91.7731 289.613 91.8896L290.167 89.8618C290.247 89.5705 290.576 89.4031 290.898 89.4904C291.221 89.5778 291.42 89.8909 291.34 90.1858L290.323 93.9138C290.319 93.9248 290.315 93.932 290.312 93.943C290.308 93.9612 290.305 93.983 290.301 94.0012L289.548 96.7608C289.244 97.8785 287.984 98.5156 286.749 98.177C285.779 97.9113 285.105 97.114 285.007 96.2439L284.584 91.9588Z"
                    fill="#A2CCED" />
                <path id="Vector_9"
                    d="M230.595 110.29C230.595 94.4418 242.066 72.1392 255.538 72.1392C269.728 72.1392 280.482 94.1214 280.482 109.969C280.482 125.817 269.315 129.527 255.538 129.527C241.762 129.527 230.595 126.137 230.595 110.29Z"
                    fill="#00A1CD" />
                <path id="Vector_10"
                    d="M248.007 92.742C248.007 91.0564 249.369 89.6875 251.045 89.6875C252.722 89.6875 254.083 91.0564 254.083 92.742"
                    fill="white" />
                <path id="Vector_11"
                    d="M257.052 92.742C257.052 91.0564 258.413 89.6875 260.09 89.6875C261.766 89.6875 263.127 91.0564 263.127 92.742"
                    fill="white" />
                <path id="Vector_12" d="M248.663 88.4238C248.663 88.4238 249.553 86.6108 251.509 87.6775"
                    stroke="#0D4060" stroke-width="2" stroke-miterlimit="10" stroke-linecap="round" />
                <path id="Vector_13" d="M262.03 88.424C262.03 88.424 261.379 86.5745 259.423 87.6449" stroke="#0D4060"
                    stroke-width="2" stroke-miterlimit="10" stroke-linecap="round" />
                <path id="Vector_14"
                    d="M249.734 92.7415C249.734 92.0133 250.325 91.4199 251.049 91.4199C251.773 91.4199 252.363 92.0133 252.363 92.7415"
                    fill="#0D4060" />
                <path id="Vector_15"
                    d="M258.779 92.7415C258.779 92.0133 259.369 91.4199 260.093 91.4199C260.817 91.4199 261.408 92.0133 261.408 92.7415"
                    fill="#0D4060" />
                <path id="Vector_16"
                    d="M259.597 95.5269C259.597 95.5269 258.898 97.7841 255.459 97.7149C252.019 97.6457 251.748 95.5269 251.748 95.5269H259.597Z"
                    fill="#0D4060" />
                <path id="Vector_17" d="M261.636 140.642L263.131 127.142H256.809L259.242 144.213L261.049 143.328"
                    fill="#00A1CD" />
                <path id="Vector_18" d="M248.786 143.19L246.429 127.63H252.845L250.191 144.089L248.174 143.19"
                    fill="#00A1CD" />
                <path id="Vector_19" d="M247.587 137.11H251.509L250.546 144.173H248.551L247.587 137.11Z"
                    fill="#FFCB05" />
                <path id="Vector_20" d="M258.192 136.746H262.114L261.147 144.093H259.152L258.192 136.746Z"
                    fill="#FFCB05" />
                <path id="Vector_21"
                    d="M259.141 144.279C259.141 142.426 260.636 140.926 262.476 140.926C264.319 140.926 265.81 142.429 265.81 144.279"
                    fill="#504B48" />
                <path id="Vector_22"
                    d="M243.927 144.279C243.927 142.426 245.422 140.926 247.261 140.926C249.101 140.926 250.596 142.429 250.596 144.279"
                    fill="#504B48" />
            </g>
        </g>
        <g id="guide_button">
            <g id="Group 36">
                <path id="Vector_23"
                    d="M256.276 387.442C256.276 387.442 252.563 368.191 248.827 359.516C245.092 350.842 230.837 342.679 230.837 342.679C230.837 342.679 228.931 341.033 230.837 342.679"
                    stroke="#0F8AB2" stroke-width="7" stroke-miterlimit="10" />
                <path id="Vector_24"
                    d="M246.932 390C246.843 390.734 247.541 391.356 248.484 391.401C249.426 391.434 250.268 390.867 250.357 390.133L250.568 388.387C250.656 388.665 250.767 388.932 250.911 389.188L253.15 397.662C253.339 398.374 254.248 398.808 255.179 398.63C256.11 398.452 256.708 397.729 256.52 397.017L255.168 391.935C255.6 392.013 256.054 392.057 256.52 392.068L258.083 397.985C258.271 398.696 259.18 399.13 260.111 398.952C261.042 398.774 261.641 398.051 261.452 397.34L259.89 391.423C260.344 391.223 260.776 391.001 261.164 390.734L262.472 395.671C262.661 396.383 263.57 396.817 264.501 396.639C265.432 396.461 266.03 395.738 265.842 395.026L263.437 385.963C263.425 385.94 263.414 385.918 263.403 385.896C263.392 385.851 263.392 385.796 263.37 385.751L261.597 379.034C260.876 376.309 257.384 374.641 253.849 375.32C251.066 375.854 249.049 377.689 248.661 379.768L246.932 390Z"
                    fill="#A2CCED" />
                <path id="Vector_25"
                    d="M100.944 300.343C100.944 300.343 105.019 320.151 109.119 329.077C113.219 338.003 128.864 346.402 128.864 346.402C128.864 346.402 130.032 347.283 128.183 346.025"
                    stroke="#0F8AB2" stroke-width="7" stroke-miterlimit="10" />
                <path id="Vector_26"
                    d="M110.47 297.593C110.559 296.859 109.86 296.236 108.918 296.192C107.976 296.158 107.134 296.726 107.045 297.46L106.834 299.206C106.746 298.928 106.635 298.661 106.491 298.405L104.252 289.931C104.063 289.219 103.154 288.785 102.223 288.963C101.292 289.141 100.694 289.864 100.882 290.576L102.234 295.658C101.802 295.58 101.348 295.536 100.882 295.525L99.3191 289.608C99.1307 288.896 98.2218 288.463 97.2907 288.641C96.3596 288.818 95.761 289.541 95.9495 290.253L97.5124 296.17C97.0579 296.37 96.6256 296.592 96.2377 296.859L94.9297 291.921C94.7413 291.21 93.8324 290.776 92.9013 290.954C91.9702 291.132 91.3716 291.855 91.5601 292.566L93.9654 301.63C93.9765 301.652 93.9875 301.675 93.9986 301.697C94.0097 301.741 94.0097 301.797 94.0319 301.841L95.8054 308.559C96.5259 311.283 100.017 312.951 103.553 312.273C106.336 311.739 108.353 309.904 108.741 307.825L110.47 297.593Z"
                    fill="#A2CCED" />
                <path id="Vector_27"
                    d="M177.952 224.86C143.213 224.86 115.059 233.468 115.059 270.257C115.059 279.588 116.289 288.996 117.597 298.216C119.038 308.447 120.834 318.657 123.516 328.644C124.691 333.036 126.088 336.884 125.633 341.5C125.234 345.537 124.115 349.652 122.319 353.299C116.422 365.255 115.791 377.644 122.807 390.622C137.76 407.237 159.142 406.603 178.462 406.603C194.656 406.603 213.444 405.358 226.723 394.926C232.199 390.622 236.178 384.795 238.373 378.189C239.681 374.285 240.102 370.381 240.612 366.333C241.31 360.739 239.769 355.902 237.663 350.819C234.504 343.19 230.902 332.903 232.986 324.551C237.819 305.067 240.856 279.399 240.856 269.523C240.845 232.723 212.69 224.86 177.952 224.86Z"
                    fill="#00A1CD" />
                <path id="Vector_28"
                    d="M175.325 283.158C175.325 278.264 171.379 274.305 166.502 274.305C161.624 274.305 157.678 278.264 157.678 283.158H175.325Z"
                    fill="white" />
                <path id="Vector_29"
                    d="M198.159 283.158C198.159 278.264 194.213 274.305 189.335 274.305C184.458 274.305 180.512 278.264 180.512 283.158H198.159Z"
                    fill="white" />
                <g id="Group">
                    <path id="Vector_30" d="M183.849 405.158L188.515 435.83H194.102L198.68 403.957L183.849 405.158Z"
                        fill="#00A1CD" />
                    <path id="Vector_31" d="M194.046 443.459H188.56L185.678 418.625H196.574L194.046 443.459Z"
                        fill="#ED1651" />
                </g>
                <g id="Group_2">
                    <path id="Vector_32" d="M170.88 405.158L166.213 435.83H160.616L155.306 403.957L170.88 405.158Z"
                        fill="#00A1CD" />
                    <path id="Vector_33" d="M166.091 443.292H160.616L157.701 418.458H168.984L166.091 443.292Z"
                        fill="#ED1651" />
                </g>
                <path id="Vector_34"
                    d="M188.615 443.581C188.615 438.376 192.827 434.15 198.015 434.15C203.202 434.15 207.414 438.376 207.414 443.581"
                    fill="#504B48" />
                <path id="Vector_35"
                    d="M148.079 443.581C148.079 438.376 152.291 434.15 157.479 434.15C162.666 434.15 166.878 438.376 166.878 443.581"
                    fill="#504B48" />
                <path id="Vector_36"
                    d="M188.005 292.377C188.005 292.377 188.548 300.485 177.952 300.485C167.61 300.485 167.898 292.377 167.898 292.377H188.005Z"
                    fill="#0D4060" />
                <path id="Vector_37"
                    d="M162.378 283.158C162.378 281.045 164.085 279.332 166.191 279.332C168.297 279.332 170.004 281.045 170.004 283.158"
                    fill="#0D4060" />
                <path id="Vector_38"
                    d="M185.212 283.158C185.212 281.045 186.919 279.332 189.025 279.332C191.131 279.332 192.838 281.045 192.838 283.158"
                    fill="#0D4060" />
                <path id="Vector_39" d="M196.54 270.479C196.54 270.479 194.213 265.208 187.207 268.255" stroke="#0D4060"
                    stroke-width="3" stroke-miterlimit="10" stroke-linejoin="round" />
                <path id="Vector_40" d="M158.166 270.479C158.166 270.479 160.494 265.208 167.499 268.255"
                    stroke="#0D4060" stroke-width="3" stroke-miterlimit="10" stroke-linejoin="round" />
            </g>
            <g id="Group 22">
                <rect id="Rectangle 109_2" x="142.134" y="365.302" width="71.6949" height="22.2558" rx="11.1279"
                    fill="black" fill-opacity="0.5" />
                <path id="guide"
                    d="M166.51 383.755C166.035 384.323 165.364 384.766 164.497 385.082C163.63 385.393 162.669 385.548 161.614 385.548C160.507 385.548 159.534 385.308 158.696 384.827C157.864 384.341 157.22 383.638 156.763 382.718C156.311 381.798 156.08 380.717 156.068 379.475V378.604C156.068 377.327 156.282 376.223 156.71 375.291C157.143 374.354 157.765 373.639 158.573 373.146C159.388 372.648 160.34 372.399 161.43 372.399C162.947 372.399 164.134 372.763 164.989 373.489C165.845 374.21 166.351 375.262 166.51 376.645H163.943C163.826 375.912 163.565 375.376 163.161 375.036C162.763 374.696 162.212 374.526 161.509 374.526C160.612 374.526 159.93 374.863 159.461 375.537C158.992 376.211 158.755 377.213 158.749 378.543V379.36C158.749 380.702 159.004 381.716 159.514 382.401C160.023 383.087 160.77 383.43 161.755 383.43C162.745 383.43 163.451 383.219 163.873 382.797V380.591H161.473V378.648H166.51V383.755ZM174.182 384.405C173.556 385.167 172.688 385.548 171.581 385.548C170.561 385.548 169.782 385.255 169.243 384.669C168.71 384.083 168.437 383.225 168.426 382.094V375.862H170.966V382.006C170.966 382.996 171.417 383.491 172.319 383.491C173.181 383.491 173.772 383.192 174.095 382.595V375.862H176.643V385.372H174.253L174.182 384.405ZM181.24 385.372H178.691V375.862H181.24V385.372ZM178.542 373.401C178.542 373.021 178.668 372.707 178.92 372.461C179.178 372.215 179.526 372.092 179.966 372.092C180.399 372.092 180.745 372.215 181.003 372.461C181.261 372.707 181.39 373.021 181.39 373.401C181.39 373.788 181.258 374.104 180.994 374.351C180.736 374.597 180.393 374.72 179.966 374.72C179.538 374.72 179.192 374.597 178.929 374.351C178.671 374.104 178.542 373.788 178.542 373.401ZM182.945 380.547C182.945 379.064 183.276 377.884 183.938 377.005C184.606 376.126 185.517 375.687 186.672 375.687C187.598 375.687 188.362 376.032 188.966 376.724V371.872H191.515V385.372H189.221L189.098 384.361C188.465 385.152 187.65 385.548 186.654 385.548C185.535 385.548 184.636 385.108 183.956 384.229C183.282 383.345 182.945 382.117 182.945 380.547ZM185.485 380.731C185.485 381.622 185.64 382.305 185.951 382.779C186.262 383.254 186.713 383.491 187.305 383.491C188.09 383.491 188.643 383.16 188.966 382.498V378.745C188.649 378.083 188.101 377.752 187.322 377.752C186.098 377.752 185.485 378.745 185.485 380.731ZM197.86 385.548C196.466 385.548 195.329 385.12 194.45 384.265C193.577 383.409 193.14 382.27 193.14 380.846V380.6C193.14 379.645 193.325 378.792 193.694 378.042C194.063 377.286 194.585 376.706 195.259 376.302C195.938 375.892 196.712 375.687 197.579 375.687C198.88 375.687 199.902 376.097 200.646 376.917C201.396 377.737 201.771 378.9 201.771 380.406V381.443H195.716C195.798 382.064 196.044 382.562 196.454 382.938C196.87 383.312 197.394 383.5 198.027 383.5C199.006 383.5 199.77 383.146 200.321 382.437L201.569 383.834C201.188 384.373 200.673 384.795 200.022 385.1C199.372 385.398 198.651 385.548 197.86 385.548ZM197.57 377.743C197.066 377.743 196.656 377.913 196.34 378.253C196.029 378.593 195.83 379.079 195.742 379.712H199.275V379.51C199.264 378.947 199.111 378.514 198.818 378.209C198.525 377.898 198.109 377.743 197.57 377.743Z"
                    fill="white" />
            </g>
        </g>
        <g id="gallery_button">
            <g id="Group 33">
                <g id="Group_3">
                    <path id="Vector_41"
                        d="M116.878 36.8374H39.2507C33.7278 36.8374 29.2507 41.3146 29.2507 46.8374V92.07C29.2507 97.5928 33.7278 102.07 39.2507 102.07H116.878C122.401 102.07 126.878 97.5928 126.878 92.07V46.8374C126.878 41.3146 122.401 36.8374 116.878 36.8374Z"
                        fill="#E5E5E5" />
                    <path id="Vector_42"
                        d="M107.892 45.563H48.257C42.7342 45.563 38.257 50.0402 38.257 55.563V83.3654C38.257 88.8883 42.7342 93.3654 48.257 93.3654H107.892C113.415 93.3654 117.892 88.8882 117.892 83.3654V55.563C117.892 50.0401 113.415 45.563 107.892 45.563Z"
                        fill="#A5DBDF" />
                </g>
                <path id="Vector_43" d="M93.2432 69.9651C90.8112 67.8568 86.7718 74.5366 86.0917 75.5386"
                    stroke="#2489B7" stroke-width="0.371" stroke-miterlimit="10" stroke-linecap="round" />
                <path id="Vector_44"
                    d="M87.4932 75.3713C87.5344 75.0373 87.3283 74.6407 86.9367 74.4111C86.4215 74.1188 85.8032 74.1814 85.5559 74.5572L84.917 75.4965C84.917 75.4965 84.917 75.5174 84.8964 75.5174L84.0514 76.7907C83.9896 76.8951 84.0308 77.0412 84.175 77.1039C84.3193 77.1665 84.4636 77.1665 84.546 77.0621L84.9994 76.3733C85.0406 76.4359 85.1025 76.4985 85.1643 76.5403L84.6078 77.3752C84.546 77.4796 84.5872 77.6257 84.7315 77.6883C84.8552 77.7718 85.02 77.751 85.1025 77.6466L85.6589 76.8116C85.7208 76.8325 85.8032 76.8534 85.865 76.8742L85.391 77.584C85.3292 77.6884 85.3704 77.8345 85.5147 77.8971C85.6383 77.9806 85.8032 77.9597 85.8856 77.8553L86.6894 76.6655C86.7306 76.6238 86.7512 76.6029 86.7924 76.5611L86.7306 76.8534C86.71 76.9786 86.8131 77.1039 86.9573 77.1456C87.1016 77.1874 87.2459 77.1247 87.2665 77.0204"
                    fill="#A2CCED" />
                <path id="Vector_45"
                    d="M68.7591 76.6236C68.7591 76.6236 69.8102 75.6008 70.717 75.4755C71.6238 75.3294 73.5405 75.4129 73.5405 75.4129"
                    stroke="#0F8AB2" stroke-width="0.2529" stroke-miterlimit="10" stroke-linecap="round" />
                <path id="Vector_46" d="M69.6247 74.4532C69.6247 74.4532 72.6337 72.2614 76.7968 76.3945"
                    stroke="#2489B7" stroke-width="0.3918" stroke-miterlimit="10" stroke-linecap="round" />
                <path id="Vector_47"
                    d="M77.5798 79.2541C77.6828 79.3793 77.8683 79.3793 77.992 79.2541C78.1156 79.1288 78.1363 78.941 78.0332 78.8157L77.7859 78.5235C77.8477 78.5443 77.8889 78.5861 77.9508 78.5861L79.5583 79.5254C79.7026 79.6089 79.8674 79.5463 79.9705 79.4002C80.0529 79.2541 80.0117 79.0662 79.888 78.9827L78.9194 78.4191C78.9812 78.3774 79.0431 78.3147 79.1049 78.2521L80.2178 78.9201C80.3621 79.0036 80.5269 78.941 80.63 78.7948C80.7124 78.6487 80.6712 78.4608 80.5475 78.3774L79.4346 77.7094C79.4553 77.6259 79.4759 77.5215 79.4759 77.438L80.4033 77.9807C80.5475 78.0642 80.7124 78.0016 80.8155 77.8555C80.8979 77.7094 80.8567 77.5215 80.733 77.438L79.0225 76.4152C79.0225 76.4152 79.0225 76.4152 79.0018 76.4152L78.9812 76.3943L77.7035 75.6428C77.1882 75.3297 76.4875 75.5593 76.1577 76.1438C75.8898 76.603 75.931 77.1458 76.2196 77.5006L77.5798 79.2541Z"
                    fill="#A2CCED" />
                <path id="Vector_48"
                    d="M87.4932 77.5005C87.4932 77.5005 88.4618 78.6068 88.5649 79.5253C88.6679 80.4438 88.5443 82.3851 88.5443 82.3851"
                    stroke="#0F8AB2" stroke-width="0.2529" stroke-miterlimit="10" stroke-linecap="round" />
                <path id="Vector_49"
                    d="M89.3891 84.5567C89.3891 84.6402 89.3273 84.7237 89.2243 84.7237C89.1418 84.7237 89.0594 84.661 89.0388 84.5775L88.9975 83.9931C88.9563 84.0139 88.9151 84.0348 88.8533 84.0557L88.9151 84.7654C88.9151 84.8489 88.8533 84.9324 88.7502 84.9324C88.6678 84.9324 88.5854 84.8698 88.5647 84.7863L88.5029 84.0766C88.4617 84.0766 88.4205 84.0557 88.3793 84.0348L88.4205 84.6402C88.4205 84.7237 88.3586 84.8072 88.2556 84.8072C88.1732 84.8072 88.0907 84.7445 88.0701 84.661L87.9877 83.6591C87.9877 83.6382 87.9671 83.5964 87.9671 83.5547L87.9258 83.7426C87.9052 83.8261 87.8228 83.8887 87.7198 83.8678C87.6373 83.8469 87.5755 83.7634 87.5961 83.6799L87.8434 82.6153C87.8434 82.5736 87.8846 82.5318 87.9052 82.511C87.9671 82.2813 88.1938 82.0935 88.4823 82.0726C88.8327 82.0517 89.1418 82.2814 89.183 82.5945L89.2449 83.3877V83.4086L89.3891 84.5567Z"
                    fill="#A2CCED" />
                <path id="Vector_50"
                    d="M90.0897 71.092C90.0897 76.7073 83.7214 84.6187 80.5681 84.6187C77.0233 84.6187 71.0466 76.8325 71.0466 71.1964C71.0466 65.5603 75.3127 64.2661 80.5681 64.2661C85.8236 64.2661 90.0897 65.456 90.0897 71.092Z"
                    fill="#00A1CD" />
                <path id="Vector_51"
                    d="M77.1058 72.261C77.1058 71.3634 77.8272 70.6328 78.7134 70.6328C79.5996 70.6328 80.3209 71.3634 80.3209 72.261"
                    fill="white" />
                <path id="Vector_52"
                    d="M81.2895 72.261C81.2895 71.3634 82.0108 70.6328 82.897 70.6328C83.7832 70.6328 84.5046 71.3634 84.5046 72.261"
                    fill="white" />
                <path id="Vector_53" d="M77.4564 70.1532C77.4564 70.1532 77.9304 69.1721 78.9608 69.7566"
                    stroke="#0D4060" stroke-width="0.1618" stroke-miterlimit="10" stroke-linecap="round" />
                <path id="Vector_54" d="M83.9277 70.1531C83.9277 70.1531 83.5774 69.172 82.5469 69.7356"
                    stroke="#0D4060" stroke-width="0.1618" stroke-miterlimit="10" stroke-linecap="round" />
                <path id="Vector_55"
                    d="M78.0539 72.261C78.0539 71.8644 78.363 71.5513 78.7546 71.5513C79.1462 71.5513 79.4553 71.8644 79.4553 72.261"
                    fill="#0D4060" />
                <path id="Vector_56"
                    d="M82.2377 72.261C82.2377 71.8644 82.5468 71.5513 82.9384 71.5513C83.33 71.5513 83.6391 71.8644 83.6391 72.261"
                    fill="#0D4060" />
                <path id="Vector_57"
                    d="M82.8765 73.7432C82.8765 73.7432 82.5055 74.9539 80.6713 74.9121C78.8576 74.8913 78.7134 73.7432 78.7134 73.7432H82.8765Z"
                    fill="#0D4060" />
                <path id="Vector_58" d="M80.795 83.6382L81.4957 88.3141H82.3407L83.2269 83.3042" fill="#00A1CD" />
                <path id="Vector_59" d="M77.9097 83.4502L78.7753 88.3139H79.6203L80.321 83.6381" fill="#00A1CD" />
                <path id="Vector_60" d="M82.1759 89.4826H81.5164L81.166 86.1636H82.7323L82.1759 89.4826Z"
                    fill="#56C5D0" />
                <path id="Vector_61" d="M79.5996 89.4415H78.9401L78.3425 86.1016H79.9294L79.5996 89.4415Z"
                    fill="#56C5D0" />
                <path id="Vector_62"
                    d="M76.7969 89.5038C76.7969 88.7106 77.4358 88.0635 78.2189 88.0635C79.0021 88.0635 79.641 88.7106 79.641 89.5038"
                    fill="#504B48" />
                <path id="Vector_63"
                    d="M81.5163 89.5038C81.5163 88.7106 82.1552 88.0635 82.9383 88.0635C83.7215 88.0635 84.3604 88.7106 84.3604 89.5038"
                    fill="#504B48" />
                <path id="Vector_64" d="M103.239 69.0464C107.567 70.6746 108.288 62.9093 108.68 61.7612"
                    stroke="#2489B7" stroke-width="0.371" stroke-miterlimit="10" stroke-linecap="round" />
                <path id="Vector_65"
                    d="M107.443 61.845C107.484 62.1998 107.793 62.5129 108.226 62.6382C108.783 62.7843 109.38 62.5547 109.525 62.1163L109.875 61.0309V61.01C109.875 61.01 109.875 61.01 109.875 60.9891L110.37 59.5279C110.411 59.4235 110.308 59.2983 110.163 59.2565C110.019 59.2148 109.854 59.2774 109.834 59.4027L109.566 60.1959C109.504 60.1541 109.442 60.1124 109.36 60.0706L109.669 59.1104C109.71 59.006 109.607 58.8808 109.463 58.8391C109.318 58.7973 109.154 58.8599 109.133 58.9852L108.824 59.9454C108.741 59.9454 108.68 59.9454 108.597 59.9454L108.865 59.1313C108.906 59.0269 108.803 58.9017 108.659 58.8599C108.515 58.8182 108.35 58.8808 108.329 59.006L107.876 60.3629C107.855 60.4046 107.835 60.4464 107.814 60.4881L107.793 60.1959C107.793 60.0706 107.649 59.9663 107.505 59.9663C107.361 59.9663 107.237 60.0498 107.237 60.175"
                    fill="#A2CCED" />
                <path id="Vector_66"
                    d="M97.7773 79.3793H98.3543C102.188 79.3793 105.3 76.2273 105.3 72.3446V58.4214C105.3 54.5388 102.188 51.3867 98.3543 51.3867H97.7773C93.9439 51.3867 90.8318 54.5388 90.8318 58.4214V72.3446C90.8525 76.2273 93.9439 79.3793 97.7773 79.3793Z"
                    fill="#00A1CD" />
                <path id="Vector_67" d="M102.229 77.7935L100.869 89.3161H99.9618L99.1993 77.8143" fill="#00A1CD" />
                <path id="Vector_68" d="M97.0971 78.0436L96.3346 89.3158H95.4277L94.0675 77.814" fill="#00A1CD" />
                <path id="Vector_69"
                    d="M96.2521 61.1768C96.2521 61.1768 96.5407 62.1161 97.9627 62.0952C99.3848 62.0744 99.5084 61.1768 99.5084 61.1768H96.2521Z"
                    fill="#0D4060" />
                <path id="Vector_70"
                    d="M101.301 59.8202C101.301 59.027 100.662 58.3799 99.8793 58.3799C99.0962 58.3799 98.4573 59.027 98.4573 59.8202"
                    fill="white" />
                <path id="Vector_71"
                    d="M97.3031 59.8202C97.3031 59.027 96.6642 58.3799 95.881 58.3799C95.0979 58.3799 94.459 59.027 94.459 59.8202"
                    fill="white" />
                <path id="Vector_72" d="M100.992 57.9414C100.992 57.9414 100.58 57.0855 99.6526 57.5865"
                    stroke="#0D4060" stroke-width="0.1484" stroke-miterlimit="10" stroke-linecap="round" />
                <path id="Vector_73" d="M94.9537 57.9415C94.9537 57.9415 95.2629 57.0648 96.1903 57.5658"
                    stroke="#0D4060" stroke-width="0.1484" stroke-miterlimit="10" stroke-linecap="round" />
                <path id="Vector_74"
                    d="M100.539 59.8201C100.539 59.4652 100.271 59.1938 99.9206 59.1938C99.5702 59.1938 99.3023 59.4652 99.3023 59.8201"
                    fill="#0D4060" />
                <path id="Vector_75"
                    d="M96.52 59.8201C96.52 59.4652 96.2521 59.1938 95.9017 59.1938C95.5514 59.1938 95.2834 59.4652 95.2834 59.8201"
                    fill="#0D4060" />
                <path id="Vector_76" d="M99.9824 89.3158L99.5496 84.5981H101.528L101.013 89.107L99.9824 89.3158Z"
                    fill="#ED1651" />
                <path id="Vector_77" d="M95.4276 89.3158L94.8093 84.5981H96.6436L96.4581 89.0653L95.4276 89.3158Z"
                    fill="#ED1651" />
                <path id="Vector_78"
                    d="M103.198 89.4826C103.198 88.5223 102.435 87.75 101.487 87.75C100.539 87.75 99.7764 88.5223 99.7764 89.4826"
                    fill="#504B48" />
                <path id="Vector_79"
                    d="M96.6643 89.4826C96.6643 88.5223 95.9017 87.75 94.9537 87.75C94.0057 87.75 93.2431 88.5223 93.2431 89.4826"
                    fill="#504B48" />
                <path id="Vector_80"
                    d="M101.949 59.8526C101.952 59.3454 101.188 58.93 100.244 58.9248C99.2989 58.9197 98.5309 59.3267 98.5282 59.834C98.5255 60.3412 99.2892 60.7566 100.234 60.7618C101.179 60.7669 101.947 60.3599 101.949 59.8526Z"
                    stroke="black" stroke-width="0.0742" stroke-miterlimit="10" stroke-linecap="round" />
                <path id="Vector_81"
                    d="M97.2401 59.8233C97.2428 59.3161 96.4792 58.9007 95.5344 58.8955C94.5897 58.8904 93.8217 59.2974 93.819 59.8047C93.8163 60.3119 94.5799 60.7273 95.5247 60.7325C96.4694 60.7376 97.2374 60.3306 97.2401 59.8233Z"
                    stroke="black" stroke-width="0.0742" stroke-miterlimit="10" stroke-linecap="round" />
                <path id="Vector_82" d="M98.5191 59.7368C98.5191 59.7368 97.8184 59.2985 97.2207 59.7368" stroke="black"
                    stroke-width="0.0742" stroke-miterlimit="10" stroke-linecap="round" />
                <path id="Vector_83" d="M51.9622 75.4758C51.9622 75.4758 48.2937 75.0375 47.9434 69.1509"
                    stroke="#2489B7" stroke-width="0.3918" stroke-miterlimit="10" stroke-linecap="round" />
                <path id="Vector_84"
                    d="M49.2831 66.5205C49.2831 66.3536 49.1389 66.2283 48.974 66.2492C48.8091 66.2492 48.6648 66.3953 48.6648 66.5414V66.9172C48.6442 66.8545 48.6236 66.7919 48.5824 66.7502L48.0053 64.955C47.9641 64.8088 47.7786 64.7253 47.6138 64.7671C47.4489 64.8297 47.3458 64.9758 47.4077 65.1428L47.7374 66.2283C47.655 66.2074 47.5725 66.2074 47.4901 66.2283L47.0985 64.9758C47.0573 64.8297 46.8718 64.7462 46.7069 64.788C46.5421 64.8506 46.439 64.9967 46.5008 65.1637L46.8924 66.4162C46.81 66.4579 46.7482 66.5205 46.6657 66.5832L46.336 65.5394C46.2947 65.3933 46.1093 65.3098 45.9444 65.3516C45.7795 65.3933 45.6765 65.5603 45.7383 65.7273L46.336 67.6478C46.336 67.6478 46.336 67.6478 46.336 67.6686V67.6895L46.7688 69.109C46.9542 69.6935 47.6138 69.9857 48.2526 69.7978C48.7473 69.6308 49.077 69.2133 49.1182 68.7541L49.2831 66.5205Z"
                    fill="#A2CCED" />
                <path id="Vector_85"
                    d="M60.3297 51.5122C54.3736 51.5122 49.551 52.9943 49.551 59.361C49.551 60.9683 49.7571 62.5965 49.9838 64.2039C50.2311 65.9782 50.5402 67.7316 50.9936 69.4642C51.1997 70.2157 51.5913 70.8837 51.5089 71.6978C51.447 72.4075 51.0967 73.1172 50.7875 73.7435C49.9632 75.4343 49.7364 77.1877 50.3547 79.0038C50.7669 80.2145 51.7562 81.1748 52.8485 81.7801C55.1361 83.0326 56.043 82.97 60.7213 82.97C63.5036 82.97 66.3889 82.7612 68.6766 80.9451C69.6246 80.1937 70.3047 79.1917 70.6757 78.0436C70.9024 77.3756 70.923 77.0834 71.0054 76.3736C71.1291 75.4134 70.82 74.161 70.449 73.2842C69.9131 71.9691 69.3773 70.1948 69.7483 68.7545C70.5726 65.3937 71.0879 60.9474 71.0879 59.2357C71.1085 52.869 66.2859 51.5122 60.3297 51.5122Z"
                    fill="#00A1CD" />
                <path id="Vector_86" d="M56.146 82.8237L56.9292 89.1904H57.8978L58.7016 82.8446" fill="#00A1CD" />
                <path id="Vector_87" d="M62.061 82.8234L62.8441 89.19H63.8128L64.6166 82.6772" fill="#00A1CD" />
                <path id="Vector_88"
                    d="M61.8755 63.2227C61.8755 63.2227 61.5664 64.2246 60.0619 64.1829C58.5574 64.162 58.4337 63.2227 58.4337 63.2227H61.8755Z"
                    fill="#0D4060" />
                <path id="Vector_89"
                    d="M56.5376 61.7826C56.5376 60.9268 57.2177 60.2588 58.0421 60.2588C58.8871 60.2588 59.5466 60.9476 59.5466 61.7826"
                    fill="white" />
                <path id="Vector_90"
                    d="M60.7833 61.7826C60.7833 60.9268 61.4634 60.2588 62.2878 60.2588C63.1121 60.2588 63.7922 60.9476 63.7922 61.7826"
                    fill="white" />
                <path id="Vector_91" d="M56.8675 59.8202C56.8675 59.8202 57.3209 58.9018 58.2895 59.4445"
                    stroke="#0D4060" stroke-width="0.1567" stroke-miterlimit="10" stroke-linecap="round" />
                <path id="Vector_92" d="M63.2563 59.8202C63.2563 59.8202 62.9266 58.9017 61.9579 59.4236"
                    stroke="#0D4060" stroke-width="0.1567" stroke-miterlimit="10" stroke-linecap="round" />
                <path id="Vector_93"
                    d="M57.362 61.7822C57.362 61.4065 57.6505 61.1143 58.0215 61.1143C58.3925 61.1143 58.681 61.4065 58.681 61.7822"
                    fill="#0D4060" />
                <path id="Vector_94"
                    d="M61.587 61.7822C61.587 61.4065 61.8755 61.1143 62.2465 61.1143C62.6174 61.1143 62.906 61.4065 62.906 61.7822"
                    fill="#0D4060" />
                <path id="Vector_95" d="M57.8978 89.1903L58.413 85.0571H56.4139L56.8055 88.9815L57.8978 89.1903Z"
                    fill="#FFCB05" />
                <path id="Vector_96" d="M63.8128 89.1903L64.3281 85.0571H62.3289L62.7205 88.9815L63.8128 89.1903Z"
                    fill="#FFCB05" />
                <path id="Vector_97"
                    d="M58.104 89.3572C58.104 88.4596 57.3827 87.729 56.4965 87.729C55.6103 87.729 54.8889 88.4596 54.8889 89.3572"
                    fill="#504B48" />
                <path id="Vector_98"
                    d="M62.4731 89.3572C62.4731 88.4596 63.1945 87.729 64.0807 87.729C64.9669 87.729 65.6882 88.4596 65.6882 89.3572"
                    fill="#504B48" />
            </g>
            <g id="Group 34">
                <rect id="Rectangle 110" x="26.6949" y="95.9307" width="102.482" height="22.2558" rx="11.1279"
                    fill="black" fill-opacity="0.5" />
                <path id="Gallery"
                    d="M59.3953 114.383C58.9207 114.952 58.2498 115.394 57.3826 115.71C56.5154 116.021 55.5545 116.176 54.4998 116.176C53.3924 116.176 52.4197 115.936 51.5818 115.456C50.7498 114.969 50.1052 114.266 49.6482 113.346C49.197 112.426 48.9656 111.345 48.9539 110.103V109.233C48.9539 107.956 49.1677 106.851 49.5955 105.919C50.0291 104.982 50.6502 104.267 51.4588 103.775C52.2732 103.277 53.2254 103.028 54.3152 103.028C55.8328 103.028 57.0193 103.391 57.8748 104.118C58.7302 104.838 59.2371 105.89 59.3953 107.273H56.8289C56.7117 106.541 56.451 106.004 56.0467 105.665C55.6482 105.325 55.0974 105.155 54.3943 105.155C53.4978 105.155 52.8152 105.492 52.3465 106.166C51.8777 106.839 51.6404 107.841 51.6345 109.171V109.989C51.6345 111.331 51.8894 112.344 52.3992 113.03C52.909 113.715 53.656 114.058 54.6404 114.058C55.6306 114.058 56.3367 113.847 56.7586 113.425V111.219H54.3592V109.277H59.3953V114.383ZM66.8836 116C66.7664 115.772 66.6814 115.488 66.6287 115.148C66.0135 115.833 65.2136 116.176 64.2293 116.176C63.2976 116.176 62.5242 115.907 61.909 115.368C61.2996 114.829 60.9949 114.149 60.9949 113.329C60.9949 112.321 61.367 111.547 62.1111 111.008C62.8611 110.469 63.9422 110.197 65.3543 110.191H66.5232V109.646C66.5232 109.207 66.409 108.855 66.1804 108.591C65.9578 108.328 65.6033 108.196 65.117 108.196C64.6892 108.196 64.3523 108.298 64.1062 108.503C63.866 108.708 63.7459 108.99 63.7459 109.347H61.2058C61.2058 108.796 61.3758 108.287 61.7156 107.818C62.0554 107.349 62.5359 106.983 63.157 106.719C63.7781 106.45 64.4754 106.315 65.2488 106.315C66.4207 106.315 67.3494 106.611 68.0349 107.203C68.7263 107.789 69.072 108.615 69.072 109.681V113.803C69.0779 114.706 69.2039 115.388 69.45 115.851V116H66.8836ZM64.783 114.234C65.158 114.234 65.5037 114.152 65.8201 113.988C66.1365 113.818 66.3709 113.592 66.5232 113.311V111.676H65.574C64.3025 111.676 63.6258 112.116 63.5437 112.995L63.5349 113.144C63.5349 113.46 63.6463 113.721 63.8689 113.926C64.0916 114.131 64.3963 114.234 64.783 114.234ZM73.7039 116H71.1551V102.5H73.7039V116ZM78.4851 116H75.9363V102.5H78.4851V116ZM84.9627 116.176C83.5681 116.176 82.4314 115.749 81.5525 114.893C80.6795 114.038 80.2429 112.898 80.2429 111.474V111.228C80.2429 110.273 80.4275 109.42 80.7967 108.67C81.1658 107.915 81.6873 107.334 82.3611 106.93C83.0408 106.52 83.8142 106.315 84.6814 106.315C85.9822 106.315 87.0047 106.725 87.7488 107.545C88.4988 108.366 88.8738 109.529 88.8738 111.035V112.072H82.8181C82.9002 112.693 83.1463 113.191 83.5564 113.566C83.9724 113.941 84.4968 114.128 85.1297 114.128C86.1082 114.128 86.8728 113.774 87.4236 113.065L88.6717 114.462C88.2908 115.001 87.7752 115.423 87.1248 115.728C86.4744 116.027 85.7537 116.176 84.9627 116.176ZM84.6726 108.372C84.1687 108.372 83.7586 108.542 83.4422 108.881C83.1316 109.221 82.9324 109.708 82.8445 110.34H86.3777V110.138C86.366 109.576 86.2136 109.142 85.9207 108.837C85.6277 108.527 85.2117 108.372 84.6726 108.372ZM95.6677 108.873C95.322 108.826 95.0174 108.802 94.7537 108.802C93.7927 108.802 93.1629 109.127 92.864 109.778V116H90.324V106.491H92.7234L92.7937 107.625C93.3035 106.751 94.0095 106.315 94.9119 106.315C95.1931 106.315 95.4568 106.353 95.7029 106.429L95.6677 108.873ZM100.607 112.406L102.365 106.491H105.09L101.266 117.477L101.055 117.978C100.487 119.22 99.5496 119.841 98.2429 119.841C97.8738 119.841 97.4988 119.786 97.1179 119.674V117.75L97.5047 117.758C97.9851 117.758 98.3426 117.685 98.5769 117.539C98.8172 117.392 99.0047 117.149 99.1394 116.809L99.4383 116.027L96.1072 106.491H98.8406L100.607 112.406Z"
                    fill="white" />
            </g>
        </g>
        <g id="calendar_button">
            <g id="Frame" clip-path="url(#clip1)" filter="url(#filter1_d)">
                <path id="Vector_99"
                    d="M121.437 217.186H42.4222C36.4169 217.186 31.5042 212.478 31.5042 206.727V154.742C31.5042 148.987 36.4169 144.279 42.4222 144.279H121.437C127.443 144.279 132.355 148.987 132.355 154.742V206.727C132.352 212.478 127.439 217.186 121.437 217.186Z"
                    fill="white" />
                <path id="Vector_100" d="M70.8242 167.92H57.4845V177.688H70.8242V167.92Z" fill="#D3D2D1" />
                <path id="Vector_101" d="M87.4124 167.92H74.0727V177.688H87.4124V167.92Z" fill="#D3D2D1" />
                <path id="Vector_102" d="M104.82 167.92H91.4803V177.688H104.82V167.92Z" fill="#D3D2D1" />
                <path id="Vector_103" d="M122.3 167.92H108.961V177.688H122.3V167.92Z" fill="#D3D2D1" />
                <path id="Vector_104" d="M70.8242 182.078H57.4845V191.846H70.8242V182.078Z" fill="#D3D2D1" />
                <path id="Vector_105" d="M87.4124 182.078H74.0727V191.846H87.4124V182.078Z" fill="#D3D2D1" />
                <path id="Vector_106" d="M104.82 182.078H91.4803V191.846H104.82V182.078Z" fill="#D3D2D1" />
                <path id="Vector_107" d="M122.3 182.078H108.961V191.846H122.3V182.078Z" fill="#D3D2D1" />
                <path id="Vector_108" d="M53.4895 182.326H40.1497V192.094H53.4895V182.326Z" fill="#D3D2D1" />
                <path id="Vector_109" d="M53.4895 196.484H40.1497V206.253H53.4895V196.484Z" fill="#D3D2D1" />
                <path id="Vector_110" d="M70.9189 196.582H57.5792V206.35H70.9189V196.582Z" fill="#D3D2D1" />
                <path id="Vector_111" d="M87.5071 196.582H74.1674V206.35H87.5071V196.582Z" fill="#D3D2D1" />
                <path id="Vector_112" d="M104.915 196.582H91.575V206.35H104.915V196.582Z" fill="#D3D2D1" />
                <g id="Group_4">
                    <path id="Vector_113"
                        d="M132.352 155.126C132.352 149.158 127.257 144.279 121.033 144.279H42.8228C36.599 144.279 31.5042 149.162 31.5042 155.126V159.893H132.352V155.126Z"
                        fill="#ED1651" />
                </g>
            </g>
            <rect id="Rectangle 109_3" x="31.2712" y="212.582" width="102.482" height="22.2558" rx="11.1279"
                fill="black" fill-opacity="0.5" />
            <path id="Calendar"
                d="M61.1057 228.389C61.0061 229.766 60.4964 230.85 59.5764 231.641C58.6624 232.432 57.4553 232.827 55.9553 232.827C54.3147 232.827 53.0227 232.276 52.0794 231.175C51.1419 230.067 50.6731 228.55 50.6731 226.622V225.84C50.6731 224.609 50.8899 223.525 51.3235 222.588C51.7571 221.65 52.3753 220.933 53.178 220.435C53.9866 219.931 54.9241 219.679 55.9905 219.679C57.4671 219.679 58.6565 220.074 59.5589 220.865C60.4612 221.656 60.9827 222.767 61.1233 224.196H58.4866C58.4221 223.37 58.1907 222.772 57.7923 222.403C57.3997 222.028 56.7991 221.841 55.9905 221.841C55.1116 221.841 54.4524 222.157 54.013 222.79C53.5794 223.417 53.3567 224.393 53.345 225.717V226.684C53.345 228.066 53.553 229.077 53.969 229.716C54.3909 230.354 55.053 230.674 55.9553 230.674C56.7698 230.674 57.3762 230.489 57.7747 230.12C58.179 229.745 58.4104 229.168 58.469 228.389H61.1057ZM68.1809 232.651C68.0637 232.423 67.9788 232.139 67.926 231.799C67.3108 232.484 66.511 232.827 65.5266 232.827C64.595 232.827 63.8215 232.558 63.2063 232.019C62.5969 231.479 62.2923 230.8 62.2923 229.979C62.2923 228.972 62.6643 228.198 63.4085 227.659C64.1585 227.12 65.2395 226.848 66.6516 226.842H67.8206V226.297C67.8206 225.857 67.7063 225.506 67.4778 225.242C67.2551 224.979 66.9007 224.847 66.4143 224.847C65.9866 224.847 65.6497 224.949 65.4036 225.154C65.1633 225.359 65.0432 225.641 65.0432 225.998H62.5032C62.5032 225.447 62.6731 224.938 63.013 224.469C63.3528 224 63.8333 223.634 64.4544 223.37C65.0755 223.101 65.7727 222.966 66.5462 222.966C67.718 222.966 68.6467 223.262 69.3323 223.854C70.0237 224.439 70.3694 225.266 70.3694 226.332V230.454C70.3753 231.356 70.5012 232.039 70.7473 232.502V232.651H68.1809ZM66.0803 230.885C66.4553 230.885 66.801 230.803 67.1174 230.639C67.4339 230.469 67.6682 230.243 67.8206 229.962V228.327H66.8714C65.5999 228.327 64.9231 228.767 64.8411 229.646L64.8323 229.795C64.8323 230.111 64.9436 230.372 65.1663 230.577C65.3889 230.782 65.6936 230.885 66.0803 230.885ZM75.0012 232.651H72.4524V219.151H75.0012V232.651ZM81.4788 232.827C80.0842 232.827 78.9475 232.399 78.0686 231.544C77.1956 230.688 76.759 229.549 76.759 228.125V227.879C76.759 226.924 76.9436 226.071 77.3128 225.321C77.6819 224.565 78.2034 223.985 78.8772 223.581C79.5569 223.171 80.3303 222.966 81.1975 222.966C82.4983 222.966 83.5208 223.376 84.2649 224.196C85.0149 225.017 85.3899 226.18 85.3899 227.686V228.723H79.3342C79.4163 229.344 79.6624 229.842 80.0725 230.217C80.4885 230.592 81.013 230.779 81.6458 230.779C82.6243 230.779 83.3889 230.425 83.9397 229.716L85.1878 231.113C84.8069 231.652 84.2913 232.074 83.6409 232.379C82.9905 232.678 82.2698 232.827 81.4788 232.827ZM81.1887 225.022C80.6848 225.022 80.2747 225.192 79.9583 225.532C79.6477 225.872 79.4485 226.358 79.3606 226.991H82.8938V226.789C82.8821 226.227 82.7298 225.793 82.4368 225.488C82.1438 225.178 81.7278 225.022 81.1887 225.022ZM89.178 223.142L89.2571 224.24C89.9368 223.391 90.8479 222.966 91.9905 222.966C92.9983 222.966 93.7483 223.262 94.2405 223.854C94.7327 224.445 94.9846 225.33 94.9964 226.508V232.651H92.4563V226.569C92.4563 226.03 92.3391 225.641 92.1048 225.4C91.8704 225.154 91.4807 225.031 90.9358 225.031C90.221 225.031 89.6848 225.336 89.3274 225.945V232.651H86.7874V223.142H89.178ZM96.5344 227.826C96.5344 226.344 96.8655 225.163 97.5276 224.284C98.1956 223.405 99.1067 222.966 100.261 222.966C101.187 222.966 101.951 223.312 102.555 224.003V219.151H105.104V232.651H102.81L102.687 231.641C102.054 232.432 101.24 232.827 100.243 232.827C99.1243 232.827 98.2249 232.388 97.5452 231.509C96.8714 230.624 96.5344 229.396 96.5344 227.826ZM99.0745 228.011C99.0745 228.901 99.2298 229.584 99.5403 230.059C99.8508 230.533 100.302 230.771 100.894 230.771C101.679 230.771 102.233 230.439 102.555 229.777V226.024C102.239 225.362 101.691 225.031 100.911 225.031C99.6868 225.031 99.0745 226.024 99.0745 228.011ZM112.583 232.651C112.466 232.423 112.381 232.139 112.328 231.799C111.713 232.484 110.913 232.827 109.929 232.827C108.997 232.827 108.224 232.558 107.609 232.019C106.999 231.479 106.695 230.8 106.695 229.979C106.695 228.972 107.067 228.198 107.811 227.659C108.561 227.12 109.642 226.848 111.054 226.842H112.223V226.297C112.223 225.857 112.109 225.506 111.88 225.242C111.657 224.979 111.303 224.847 110.817 224.847C110.389 224.847 110.052 224.949 109.806 225.154C109.566 225.359 109.446 225.641 109.446 225.998H106.906C106.906 225.447 107.075 224.938 107.415 224.469C107.755 224 108.236 223.634 108.857 223.37C109.478 223.101 110.175 222.966 110.949 222.966C112.12 222.966 113.049 223.262 113.735 223.854C114.426 224.439 114.772 225.266 114.772 226.332V230.454C114.778 231.356 114.904 232.039 115.15 232.502V232.651H112.583ZM110.483 230.885C110.858 230.885 111.203 230.803 111.52 230.639C111.836 230.469 112.071 230.243 112.223 229.962V228.327H111.274C110.002 228.327 109.325 228.767 109.243 229.646L109.235 229.795C109.235 230.111 109.346 230.372 109.569 230.577C109.791 230.782 110.096 230.885 110.483 230.885ZM122.067 225.523C121.721 225.477 121.416 225.453 121.153 225.453C120.192 225.453 119.562 225.778 119.263 226.429V232.651H116.723V223.142H119.122L119.193 224.275C119.702 223.402 120.408 222.966 121.311 222.966C121.592 222.966 121.856 223.004 122.102 223.08L122.067 225.523Z"
                fill="white" />
        </g>
        <g id="toolbox_button">
            <g id="Group 21">
                <g id="Ellipse 12" filter="url(#filter2_d)">
                    <path
                        d="M135.362 473.895C135.362 483.856 126.146 491.93 114.778 491.93C103.41 491.93 94.194 483.856 94.194 473.895C94.194 463.935 103.41 455.86 114.778 455.86C126.146 455.86 135.362 463.935 135.362 473.895Z"
                        fill="#ED1651" />
                </g>
                <g id="Exclude" filter="url(#filter3_d)">
                    <path fill-rule="evenodd" clip-rule="evenodd"
                        d="M46.1356 474.231C41.7173 474.231 38.1356 477.813 38.1356 482.231V523.239C38.1356 527.657 41.7173 531.239 46.1356 531.239H147.508C151.926 531.239 155.508 527.657 155.508 523.239V482.231C155.508 477.813 151.926 474.231 147.508 474.231H46.1356ZM87.4175 482.056C85.5655 482.056 84.0642 483.558 84.0642 485.41C84.0642 487.262 85.5655 488.763 87.4175 488.763H108.778C110.63 488.763 112.131 487.262 112.131 485.41C112.131 483.558 110.63 482.056 108.778 482.056H87.4175Z"
                        fill="#633413" />
                </g>
            </g>
            <g id="Group 23">
                <g id="Group 24">
                    <rect id="Rectangle 109_4" x="46.7404" y="523" width="98.453" height="22.2557" rx="11.1279"
                        fill="black" fill-opacity="0.5" />
                    <path id="Toolbox"
                        d="M75.9205 532.409H72.0005V543.07H69.3638V532.409H65.4966V530.273H75.9205V532.409ZM75.0416 538.227C75.0416 537.284 75.2232 536.443 75.5865 535.705C75.9498 534.966 76.4712 534.395 77.1509 533.991C77.8365 533.586 78.6304 533.384 79.5328 533.384C80.816 533.384 81.8619 533.777 82.6705 534.562C83.4849 535.347 83.939 536.414 84.0328 537.761L84.0504 538.412C84.0504 539.871 83.6431 541.042 82.8287 541.927C82.0142 542.806 80.9214 543.246 79.5504 543.246C78.1793 543.246 77.0836 542.806 76.2632 541.927C75.4488 541.048 75.0416 539.853 75.0416 538.341V538.227ZM77.5816 538.412C77.5816 539.314 77.7515 540.005 78.0914 540.486C78.4312 540.96 78.9175 541.198 79.5504 541.198C80.1656 541.198 80.6461 540.963 80.9918 540.495C81.3375 540.02 81.5103 539.264 81.5103 538.227C81.5103 537.342 81.3375 536.657 80.9918 536.17C80.6461 535.684 80.1597 535.441 79.5328 535.441C78.9117 535.441 78.4312 535.684 78.0914 536.17C77.7515 536.651 77.5816 537.398 77.5816 538.412ZM85.2193 538.227C85.2193 537.284 85.4009 536.443 85.7642 535.705C86.1275 534.966 86.649 534.395 87.3287 533.991C88.0142 533.586 88.8082 533.384 89.7105 533.384C90.9937 533.384 92.0396 533.777 92.8482 534.562C93.6627 535.347 94.1168 536.414 94.2105 537.761L94.2281 538.412C94.2281 539.871 93.8209 541.042 93.0064 541.927C92.192 542.806 91.0992 543.246 89.7281 543.246C88.357 543.246 87.2613 542.806 86.441 541.927C85.6265 541.048 85.2193 539.853 85.2193 538.341V538.227ZM87.7593 538.412C87.7593 539.314 87.9293 540.005 88.2691 540.486C88.6089 540.96 89.0953 541.198 89.7281 541.198C90.3433 541.198 90.8238 540.963 91.1695 540.495C91.5152 540.02 91.688 539.264 91.688 538.227C91.688 537.342 91.5152 536.657 91.1695 536.17C90.8238 535.684 90.3375 535.441 89.7105 535.441C89.0894 535.441 88.6089 535.684 88.2691 536.17C87.9293 536.651 87.7593 537.398 87.7593 538.412ZM98.4732 543.07H95.9244V529.57H98.4732V543.07ZM109.143 538.403C109.143 539.926 108.818 541.116 108.168 541.971C107.517 542.821 106.609 543.246 105.443 543.246C104.412 543.246 103.588 542.85 102.973 542.059L102.859 543.07H100.574V529.57H103.114V534.413C103.7 533.727 104.47 533.384 105.425 533.384C106.586 533.384 107.494 533.812 108.15 534.667C108.812 535.517 109.143 536.715 109.143 538.262V538.403ZM106.603 538.218C106.603 537.257 106.451 536.557 106.146 536.118C105.841 535.672 105.387 535.45 104.784 535.45C103.975 535.45 103.419 535.781 103.114 536.443V540.196C103.424 540.864 103.987 541.198 104.801 541.198C105.622 541.198 106.161 540.793 106.419 539.985C106.542 539.598 106.603 539.009 106.603 538.218ZM110.321 538.227C110.321 537.284 110.502 536.443 110.866 535.705C111.229 534.966 111.751 534.395 112.43 533.991C113.116 533.586 113.91 533.384 114.812 533.384C116.095 533.384 117.141 533.777 117.95 534.562C118.764 535.347 119.218 536.414 119.312 537.761L119.33 538.412C119.33 539.871 118.922 541.042 118.108 541.927C117.294 542.806 116.201 543.246 114.83 543.246C113.459 543.246 112.363 542.806 111.543 541.927C110.728 541.048 110.321 539.853 110.321 538.341V538.227ZM112.861 538.412C112.861 539.314 113.031 540.005 113.371 540.486C113.711 540.96 114.197 541.198 114.83 541.198C115.445 541.198 115.925 540.963 116.271 540.495C116.617 540.02 116.79 539.264 116.79 538.227C116.79 537.342 116.617 536.657 116.271 536.17C115.925 535.684 115.439 535.441 114.812 535.441C114.191 535.441 113.711 535.684 113.371 536.17C113.031 536.651 112.861 537.398 112.861 538.412ZM124.322 536.399L125.921 533.56H128.637L125.93 538.218L128.752 543.07H126.027L124.331 540.082L122.643 543.07H119.91L122.731 538.218L120.033 533.56H122.757L124.322 536.399Z"
                        fill="white" />
                </g>
            </g>
        </g>
        <g id="activities_button">
            <g id="Group 37" filter="url(#filter4_d)">
                <g id="Group_5">
                    <path id="Vector_114"
                        d="M277.27 526.465C298.69 526.465 316.055 508.942 316.055 487.326C316.055 465.709 298.69 448.186 277.27 448.186C255.849 448.186 238.485 465.709 238.485 487.326C238.485 508.942 255.849 526.465 277.27 526.465Z"
                        fill="#54C5D0" />
                </g>
                <path id="Vector_115"
                    d="M262.452 488.916C262.452 488.916 265.436 471.63 267.447 467.739C267.447 467.739 257.055 472.374 253.435 475.317C250.552 476.771 242.742 481.474 238.518 488.645C238.518 488.645 239.222 506.101 248.876 514.456C258.296 522.609 262.184 523.556 262.184 523.556C262.184 523.556 258.564 514.998 260.843 499.64C261.514 494.937 262.05 491.487 262.452 488.916Z"
                    fill="#1FA4B1" />
                <path id="Vector_116"
                    d="M316.255 484.62C316.255 484.62 316.624 478.159 312.065 469.566C312.065 469.566 303.785 464.695 290.142 465.608L285.315 465.777C279.381 465.642 267.414 467.739 267.414 467.739L277.303 477.719C277.303 477.719 302.679 504.477 305.663 514.085C305.663 514.051 316.892 504.443 316.255 484.62Z"
                    fill="#1FA4B1" />
                <path id="Vector_117"
                    d="M278.677 448.254C272.643 447.916 266.911 449.032 261.413 451.535C258.128 453.024 255.212 454.918 252.497 457.252C253.2 456.643 257.726 459.62 258.43 460.195L267.414 467.739C267.112 467.469 271.671 458.91 272.14 457.997C273.749 454.918 275.56 451.231 278.241 448.931C278.443 448.761 278.811 448.66 278.677 448.254Z"
                    fill="#1FA4B1" />
            </g>
            <g id="Group 24_2">
                <rect id="Rectangle 109_5" x="232.609" y="519.558" width="90.2189" height="22.2559" rx="11.1279"
                    fill="black" fill-opacity="0.5" />
                <path id="Activities"
                    d="M248.509 536.991H243.885L243.007 539.628H240.203L244.967 526.831H247.41L252.2 539.628H249.396L248.509 536.991ZM244.597 534.855H247.797L246.188 530.065L244.597 534.855ZM257.183 537.756C257.652 537.756 258.033 537.627 258.326 537.369C258.619 537.111 258.771 536.769 258.783 536.341H261.165C261.159 536.985 260.983 537.577 260.637 538.116C260.292 538.649 259.817 539.065 259.214 539.364C258.616 539.657 257.954 539.804 257.227 539.804C255.868 539.804 254.796 539.373 254.01 538.512C253.225 537.645 252.833 536.449 252.833 534.926V534.759C252.833 533.294 253.222 532.125 254.002 531.252C254.781 530.379 255.85 529.942 257.21 529.942C258.399 529.942 259.351 530.282 260.066 530.962C260.787 531.636 261.153 532.535 261.165 533.66H258.783C258.771 533.168 258.619 532.77 258.326 532.465C258.033 532.154 257.646 531.999 257.166 531.999C256.574 531.999 256.126 532.216 255.821 532.649C255.522 533.077 255.373 533.774 255.373 534.741V535.005C255.373 535.983 255.522 536.687 255.821 537.114C256.12 537.542 256.574 537.756 257.183 537.756ZM265.656 527.78V530.118H267.282V531.981H265.656V536.728C265.656 537.079 265.723 537.331 265.858 537.483C265.993 537.636 266.251 537.712 266.632 537.712C266.913 537.712 267.162 537.691 267.379 537.65V539.575C266.881 539.728 266.368 539.804 265.841 539.804C264.059 539.804 263.151 538.904 263.116 537.105V531.981H261.727V530.118H263.116V527.78H265.656ZM271.378 539.628H268.829V530.118H271.378V539.628ZM268.679 527.657C268.679 527.276 268.805 526.963 269.057 526.717C269.315 526.471 269.664 526.348 270.103 526.348C270.537 526.348 270.883 526.471 271.14 526.717C271.398 526.963 271.527 527.276 271.527 527.657C271.527 528.044 271.395 528.36 271.132 528.606C270.874 528.853 270.531 528.976 270.103 528.976C269.676 528.976 269.33 528.853 269.066 528.606C268.808 528.36 268.679 528.044 268.679 527.657ZM277.038 536.525L278.804 530.118H281.459L278.251 539.628H275.825L272.617 530.118H275.271L277.038 536.525ZM285.264 539.628H282.716V530.118H285.264V539.628ZM282.566 527.657C282.566 527.276 282.692 526.963 282.944 526.717C283.202 526.471 283.551 526.348 283.99 526.348C284.424 526.348 284.769 526.471 285.027 526.717C285.285 526.963 285.414 527.276 285.414 527.657C285.414 528.044 285.282 528.36 285.018 528.606C284.76 528.853 284.418 528.976 283.99 528.976C283.562 528.976 283.217 528.853 282.953 528.606C282.695 528.36 282.566 528.044 282.566 527.657ZM290.406 527.78V530.118H292.032V531.981H290.406V536.728C290.406 537.079 290.473 537.331 290.608 537.483C290.743 537.636 291.001 537.712 291.382 537.712C291.663 537.712 291.912 537.691 292.129 537.65V539.575C291.631 539.728 291.118 539.804 290.591 539.804C288.809 539.804 287.901 538.904 287.866 537.105V531.981H286.477V530.118H287.866V527.78H290.406ZM296.128 539.628H293.579V530.118H296.128V539.628ZM293.429 527.657C293.429 527.276 293.555 526.963 293.807 526.717C294.065 526.471 294.414 526.348 294.853 526.348C295.287 526.348 295.633 526.471 295.89 526.717C296.148 526.963 296.277 527.276 296.277 527.657C296.277 528.044 296.145 528.36 295.882 528.606C295.624 528.853 295.281 528.976 294.853 528.976C294.426 528.976 294.08 528.853 293.816 528.606C293.558 528.36 293.429 528.044 293.429 527.657ZM302.605 539.804C301.211 539.804 300.074 539.376 299.195 538.521C298.322 537.665 297.885 536.525 297.885 535.102V534.855C297.885 533.9 298.07 533.048 298.439 532.298C298.808 531.542 299.33 530.962 300.004 530.558C300.683 530.147 301.457 529.942 302.324 529.942C303.625 529.942 304.647 530.353 305.391 531.173C306.141 531.993 306.516 533.156 306.516 534.662V535.699H300.461C300.543 536.32 300.789 536.818 301.199 537.193C301.615 537.568 302.139 537.756 302.772 537.756C303.751 537.756 304.515 537.401 305.066 536.692L306.314 538.09C305.933 538.629 305.418 539.051 304.767 539.355C304.117 539.654 303.396 539.804 302.605 539.804ZM302.315 531.999C301.811 531.999 301.401 532.169 301.085 532.509C300.774 532.849 300.575 533.335 300.487 533.968H304.02V533.766C304.009 533.203 303.856 532.77 303.563 532.465C303.27 532.154 302.854 531.999 302.315 531.999ZM313.117 537C313.117 536.689 312.962 536.446 312.651 536.271C312.346 536.089 311.854 535.928 311.175 535.787C308.913 535.312 307.782 534.352 307.782 532.904C307.782 532.061 308.131 531.357 308.828 530.795C309.531 530.227 310.448 529.942 311.579 529.942C312.786 529.942 313.75 530.227 314.47 530.795C315.197 531.363 315.56 532.102 315.56 533.01H313.02C313.02 532.646 312.903 532.348 312.669 532.113C312.434 531.873 312.068 531.753 311.57 531.753C311.142 531.753 310.811 531.85 310.577 532.043C310.343 532.236 310.225 532.482 310.225 532.781C310.225 533.062 310.357 533.291 310.621 533.467C310.89 533.637 311.342 533.786 311.974 533.915C312.607 534.038 313.14 534.179 313.574 534.337C314.916 534.829 315.587 535.682 315.587 536.895C315.587 537.762 315.215 538.465 314.47 539.004C313.726 539.537 312.765 539.804 311.588 539.804C310.791 539.804 310.082 539.663 309.461 539.382C308.845 539.095 308.362 538.705 308.01 538.213C307.659 537.715 307.483 537.179 307.483 536.604H309.891C309.915 537.056 310.082 537.401 310.392 537.642C310.703 537.882 311.119 538.002 311.64 538.002C312.127 538.002 312.493 537.911 312.739 537.729C312.991 537.542 313.117 537.299 313.117 537Z"
                    fill="white" />
            </g>
        </g>
    </g>
    <defs>
        <filter id="filter0_i" x="170.847" y="37.6045" width="170.229" height="120.546" filterUnits="userSpaceOnUse"
            color-interpolation-filters="sRGB">
            <feFlood flood-opacity="0" result="BackgroundImageFix" />
            <feBlend mode="normal" in="SourceGraphic" in2="BackgroundImageFix" result="shape" />
            <feColorMatrix in="SourceAlpha" type="matrix" values="0 0 0 0 0 0 0 0 0 0 0 0 0 0 0 0 0 0 127 0"
                result="hardAlpha" />
            <feOffset dy="4" />
            <feGaussianBlur stdDeviation="2" />
            <feComposite in2="hardAlpha" operator="arithmetic" k2="-1" k3="1" />
            <feColorMatrix type="matrix" values="0 0 0 0 0 0 0 0 0 0 0 0 0 0 0 0 0 0 0.25 0" />
            <feBlend mode="normal" in2="shape" result="effect1_innerShadow" />
        </filter>
        <filter id="filter1_d" x="27.5042" y="144.279" width="108.847" height="80.907" filterUnits="userSpaceOnUse"
            color-interpolation-filters="sRGB">
            <feFlood flood-opacity="0" result="BackgroundImageFix" />
            <feColorMatrix in="SourceAlpha" type="matrix" values="0 0 0 0 0 0 0 0 0 0 0 0 0 0 0 0 0 0 127 0" />
            <feOffset dy="4" />
            <feGaussianBlur stdDeviation="2" />
            <feColorMatrix type="matrix" values="0 0 0 0 0 0 0 0 0 0 0 0 0 0 0 0 0 0 0.25 0" />
            <feBlend mode="normal" in2="BackgroundImageFix" result="effect1_dropShadow" />
            <feBlend mode="normal" in="SourceGraphic" in2="effect1_dropShadow" result="shape" />
        </filter>
        <filter id="filter2_d" x="90.194" y="455.86" width="49.1679" height="44.0698" filterUnits="userSpaceOnUse"
            color-interpolation-filters="sRGB">
            <feFlood flood-opacity="0" result="BackgroundImageFix" />
            <feColorMatrix in="SourceAlpha" type="matrix" values="0 0 0 0 0 0 0 0 0 0 0 0 0 0 0 0 0 0 127 0" />
            <feOffset dy="4" />
            <feGaussianBlur stdDeviation="2" />
            <feColorMatrix type="matrix" values="0 0 0 0 0 0 0 0 0 0 0 0 0 0 0 0 0 0 0.25 0" />
            <feBlend mode="normal" in2="BackgroundImageFix" result="effect1_dropShadow" />
            <feBlend mode="normal" in="SourceGraphic" in2="effect1_dropShadow" result="shape" />
        </filter>
        <filter id="filter3_d" x="34.1356" y="474.231" width="125.372" height="65.0076" filterUnits="userSpaceOnUse"
            color-interpolation-filters="sRGB">
            <feFlood flood-opacity="0" result="BackgroundImageFix" />
            <feColorMatrix in="SourceAlpha" type="matrix" values="0 0 0 0 0 0 0 0 0 0 0 0 0 0 0 0 0 0 127 0" />
            <feOffset dy="4" />
            <feGaussianBlur stdDeviation="2" />
            <feColorMatrix type="matrix" values="0 0 0 0 0 0 0 0 0 0 0 0 0 0 0 0 0 0 0.25 0" />
            <feBlend mode="normal" in2="BackgroundImageFix" result="effect1_dropShadow" />
            <feBlend mode="normal" in="SourceGraphic" in2="effect1_dropShadow" result="shape" />
        </filter>
        <filter id="filter4_d" x="234.485" y="448.186" width="85.7966" height="86.2793" filterUnits="userSpaceOnUse"
            color-interpolation-filters="sRGB">
            <feFlood flood-opacity="0" result="BackgroundImageFix" />
            <feColorMatrix in="SourceAlpha" type="matrix" values="0 0 0 0 0 0 0 0 0 0 0 0 0 0 0 0 0 0 127 0" />
            <feOffset dy="4" />
            <feGaussianBlur stdDeviation="2" />
            <feColorMatrix type="matrix" values="0 0 0 0 0 0 0 0 0 0 0 0 0 0 0 0 0 0 0.25 0" />
            <feBlend mode="normal" in2="BackgroundImageFix" result="effect1_dropShadow" />
            <feBlend mode="normal" in="SourceGraphic" in2="effect1_dropShadow" result="shape" />
        </filter>
        <clipPath id="clip0">
            <rect width="360" height="561" fill="white" />
        </clipPath>
        <clipPath id="clip1">
            <rect width="100.847" height="72.907" fill="white" transform="translate(31.5042 144.279)" />
        </clipPath>
    </defs>
</svg>