<svg width="293" height="224" viewBox="0 0 293 224" fill="none" xmlns="http://www.w3.org/2000/svg">
<path d="M293 208.5C293 217.06 227.41 224 146.5 224C65.5903 224 0 217.06 0 208.5C0 199.94 65.5903 193 146.5 193C227.41 193 293 199.94 293 208.5Z" fill="black" fill-opacity="0.1"/>
<g clip-path="url(#clip0)">
<path d="M173.177 93.8769C173.177 93.8769 162.236 104.992 134.073 86.7554" stroke="#0F8AB2" stroke-width="5.3605" stroke-miterlimit="10" stroke-linecap="round"/>
<path d="M139.901 86.2889C140.404 84.3051 138.23 82.0245 137.239 80.6257C135.224 77.794 133.863 74.9709 134.3 71.4864C134.392 70.7573 134.527 69.9773 134.199 69.3245C133.654 68.2393 132.033 68.1376 131.042 68.8413C129.816 69.7145 129.195 71.5118 128.977 72.9531C128.884 73.5466 128.699 76.8699 129.447 77.2006C128.473 76.7767 126.995 76.1917 125.139 75.683C122.31 74.9115 120.849 74.53 119.959 75.3184C119.211 75.9882 119.01 77.3532 119.497 78.4383C119.841 79.2183 120.446 79.6846 120.748 79.8881C120.454 80.0831 119.883 80.5324 119.597 81.3293C119.53 81.5243 119.102 82.7791 119.9 83.966C120.194 84.4068 120.563 84.6866 120.807 84.8477C120.655 84.9325 119.9 85.3733 119.707 86.3059C119.514 87.2215 120.068 88.0354 120.32 88.3915C122.259 91.2316 128.867 92.1133 131.025 92.3422C132.486 92.5033 134.485 92.639 136.878 92.5796C137.726 92.5542 138.465 91.9692 138.675 91.1384C139.078 89.5191 139.489 87.8998 139.901 86.2889Z" fill="#A2CCED"/>
<path d="M128.758 78.0566C128.758 78.0566 130.32 80.2185 129.338 81.0748C128.355 81.9311 120.74 79.8879 120.74 79.8879" stroke="#88B4D3" stroke-width="1.1467" stroke-miterlimit="10"/>
<path d="M128.49 81.5156C128.49 81.5156 132.025 84.5931 129.329 85.9242C128.162 86.5007 120.731 84.7373 120.731 84.7373" stroke="#88B4D3" stroke-width="1.1467" stroke-miterlimit="10"/>
<path d="M128.154 86.1704C128.154 86.1704 129.715 88.3323 128.733 89.1886C127.751 90.0448 122.049 88.5442 122.049 88.5442" stroke="#88B4D3" stroke-width="1.1467" stroke-miterlimit="10"/>
<path d="M149.582 105.229C148.717 73.5974 162.882 42.4662 181.708 20.0165C230.249 -37.8796 288.27 42.1186 289.966 103.923C291.217 149.535 257.026 161.556 222.516 162.523C187.997 163.481 150.833 150.84 149.582 105.229Z" fill="#00A1CD"/>
<path d="M48.9143 158.861L53.6836 197.995H58.4614L63.4742 153.969" fill="#00A1CD"/>
<path d="M58.1253 202.946H53.6247L51.811 181.429H60.5184L58.1253 202.946Z" fill="#ED1651"/>
<path d="M53.6836 203.548C53.6836 199.631 56.824 196.46 60.7032 196.46C64.5825 196.46 67.7229 199.631 67.7229 203.548" fill="#504B48"/>
<path d="M70.4014 46.8322L61.6437 45.1875C45.6312 42.1778 30.2317 52.8431 27.2508 69.0106L26.873 71.0623C26.3356 73.0885 25.8906 75.1232 25.5211 77.124L15.5039 131.434C12.523 147.601 23.0861 163.15 39.0986 166.16L47.8563 167.805C63.8688 170.814 79.2683 160.149 82.2492 143.981L82.627 141.93C83.1644 139.903 83.6094 137.869 83.9789 135.868L93.9961 81.558C96.977 65.3905 86.4139 49.8419 70.4014 46.8322Z" fill="#00A1CD"/>
<path d="M73.2058 94.2072C73.2058 94.2072 71.1906 97.7594 64.7252 96.4284C58.2513 95.1058 58.3941 91.4434 58.3941 91.4434L73.2058 94.2072Z" fill="#0D4060"/>
<path d="M46.9158 70.6979C46.9158 70.6979 49.9806 66.5437 54.3972 70.1553" stroke="#0D4060" stroke-width="1.5621" stroke-miterlimit="10" stroke-linecap="round"/>
<path d="M89.6717 78.65C89.6717 78.65 88.8908 73.6904 83.4917 75.4707" stroke="#0D4060" stroke-width="1.5621" stroke-miterlimit="10" stroke-linecap="round"/>
<path d="M63.1802 79.7522C61.8367 87.1365 54.8087 92.0198 47.4952 90.6549C40.1817 89.2984 35.3452 82.2023 36.697 74.818C38.0405 67.4337 45.0685 62.5503 52.3821 63.9153C59.6956 65.2803 64.5321 72.3678 63.1802 79.7522Z" stroke="black" stroke-width="1.1326" stroke-miterlimit="10" stroke-linecap="round"/>
<path d="M98.6814 86.3567C97.338 93.741 90.3099 98.6243 82.9964 97.2594C75.6829 95.9029 70.8464 88.8068 72.1983 81.4225C73.5417 74.0382 80.5698 69.1548 87.8833 70.5198C95.1968 71.8847 100.033 78.9723 98.6814 86.3567Z" stroke="black" stroke-width="1.1326" stroke-miterlimit="10" stroke-linecap="round"/>
<path d="M63.449 78.1499C63.449 78.1499 68.8732 72.9189 72.0724 79.7522" stroke="black" stroke-width="1.1326" stroke-miterlimit="10" stroke-linecap="round"/>
<path d="M73.886 85.3989C74.5577 81.3464 78.5713 78.6589 82.8537 79.3795C87.1276 80.1086 90.0496 83.9746 89.3779 88.0271" fill="white"/>
<path d="M43.9351 80.2015C44.6068 76.149 48.6456 73.4615 52.9447 74.1906C57.2438 74.9197 60.1827 78.7941 59.5109 82.8466" fill="white"/>
<path d="M45.3456 76.6153L41.4579 74.233L44.6571 77.7937C44.5815 77.9548 44.5227 78.1074 44.464 78.26L40.929 77.1918L44.1365 79.2435C44.0105 79.7013 43.9686 79.998 43.9686 79.998C46.9326 74.1397 50.9378 73.9701 52.063 74.0549C48.5028 73.5632 46.4708 75.0129 45.3456 76.6153Z" fill="#0D4060"/>
<path d="M93.1899 86.1788L89.5037 86.0177C89.4953 85.8566 89.4869 85.6871 89.4701 85.5175L93.6517 83.203L89.2098 84.1695C88.664 82.2789 87.2198 80.2357 83.6848 79.5405C84.7764 79.8373 88.5045 81.3124 89.403 87.832C89.403 87.832 89.4617 87.5353 89.4953 87.0605L93.1899 86.1788Z" fill="#0D4060"/>
<path d="M73.6509 135.665C73.6509 135.665 84.3902 138.556 87.5306 134.376C90.6626 130.197 85.8009 121.286 85.8009 121.286" stroke="#0F8AB2" stroke-width="3.8391" stroke-miterlimit="10" stroke-linecap="round"/>
<path d="M30.6345 158.733L35.4038 197.995H40.1732L44.1532 158.861" fill="#00A1CD"/>
<path d="M40.1649 202.946H35.6642L33.2544 181.429H41.9618L40.1649 202.946Z" fill="#ED1651"/>
<path d="M35.3284 203.548C35.3284 199.631 38.4687 196.46 42.348 196.46C46.2273 196.46 49.3676 199.631 49.3676 203.548" fill="#504B48"/>
<path d="M75.5569 211C75.0615 208.372 74.5661 205.744 74.0791 203.116C73.6256 200.665 73.1806 198.224 72.7188 195.774C72.6768 195.553 72.6684 195.282 72.4165 195.146C72.6432 194.985 72.9287 195.189 73.1722 195.002C74.3226 194.154 75.7752 194.027 77.0347 193.417C78.8652 192.535 80.8468 192.035 82.7192 191.221C83.3154 190.958 83.92 190.67 84.5581 190.509C85.5993 190.238 86.6489 189.89 87.5977 189.466C89.0755 188.805 90.6373 188.398 92.0899 187.703C93.064 187.236 94.1639 187.118 95.1044 186.617C96.3555 185.956 97.7157 185.643 99.0088 185.108C99.6722 186.634 100.68 187.965 101.536 189.381C103.451 192.569 105.39 195.731 107.338 198.902C107.632 199.377 107.708 199.648 107.036 199.886C104.912 200.623 102.821 201.437 100.713 202.217L75.5569 211Z" fill="#FFCC04"/>
<path d="M54.5231 102.711C55.2872 102.66 56.0009 103.151 56.2864 103.931C57.5627 107.39 61.9878 120.404 63.2725 123.863C65.1197 128.823 74.8767 155.571 76.724 160.53C78.6804 165.795 80.6032 171.069 82.5513 176.333C83.3573 178.512 84.197 180.683 84.9863 182.87C85.2046 183.463 85.4145 183.633 86.0779 183.37C88.9579 182.217 91.88 181.149 94.7685 180.021C97.2875 179.038 98.8073 179.725 99.6385 182.302C99.7141 182.548 99.9156 182.777 99.8233 183.065C100.067 184.142 99.9324 184.481 99.0004 185.117C98.3454 185.566 97.3127 185.719 96.5737 186.015C95.6081 186.397 94.6425 186.77 93.6685 187.134C91.5945 187.914 89.5289 188.694 87.4549 189.474C84.9275 190.424 82.4085 191.373 79.8811 192.323C77.656 193.162 75.498 193.832 73.3485 194.858C72.2653 195.375 71.1486 195.358 70.5272 194.247C70.3089 193.705 70.057 193.171 69.8723 192.62C69.3349 190.992 70.1074 189.389 71.7111 188.779C74.8599 187.584 78.0087 186.371 81.1658 185.201C81.7704 184.981 81.7872 184.718 81.5857 184.184C79.2682 177.97 76.9759 171.747 74.6668 165.532C72.1646 158.792 61.7527 130.264 59.242 123.524C58.1673 120.642 53.9437 108.213 52.8942 105.322C52.4323 103.982 53.188 102.795 54.5231 102.711Z" fill="#979E9B"/>
<path d="M60.8207 139.548C60.3085 139.548 59.8887 139.073 59.8887 138.488C59.8887 137.911 60.3169 137.445 60.8291 137.445L64.3977 137.47C64.2634 137.199 64.171 136.911 64.0955 136.606L59.8131 136.572C59.3009 136.572 58.8811 136.097 58.8811 135.512C58.8811 134.935 59.3093 134.469 59.8215 134.469L64.1038 134.503C64.171 134.232 64.2634 133.969 64.3809 133.723L60.7032 133.698C60.191 133.698 59.7712 133.223 59.7712 132.638C59.7712 132.061 60.1994 131.595 60.7116 131.595L66.8412 131.638C67.0343 131.595 67.2358 131.57 67.4373 131.561L66.2618 131.154C65.7664 130.985 65.4977 130.391 65.6488 129.84C65.8 129.289 66.329 128.975 66.8244 129.153L73.0883 131.341C73.3318 131.426 73.5165 131.612 73.6257 131.841C75.0028 132.409 75.9936 133.901 75.9768 135.631C75.96 137.835 74.3394 139.632 72.3662 139.615L67.5045 139.581C67.4709 139.581 67.4373 139.573 67.4037 139.573C67.387 139.573 67.3702 139.581 67.3534 139.581L60.8207 139.548Z" fill="#A2CCED"/>
<path d="M51.534 122.753C29.9964 142.396 25.563 113.037 25.563 113.037" stroke="#0F8AB2" stroke-width="3.8391" stroke-miterlimit="10" stroke-linecap="round"/>
<path d="M63.8603 118.191C64.2717 117.878 64.3221 117.242 63.9779 116.784C63.6336 116.326 63.0122 116.199 62.6008 116.513L59.7543 118.692C59.6955 118.395 59.6032 118.098 59.4856 117.818L62.9031 115.216C63.3145 114.902 63.3649 114.266 63.0206 113.808C62.6764 113.35 62.055 113.223 61.6436 113.537L58.2261 116.14C58.0078 115.962 57.7811 115.809 57.546 115.682L60.4848 113.444C60.8963 113.13 60.9467 112.494 60.6024 112.036C60.2581 111.578 59.6368 111.451 59.2253 111.765L54.3301 115.495C54.1453 115.58 53.9774 115.682 53.8095 115.801L54.5064 114.766C54.8003 114.334 54.6743 113.69 54.2209 113.342C53.7675 112.994 53.1629 113.062 52.869 113.495L49.1409 119.022C48.9982 119.234 48.9562 119.497 49.0066 119.751C48.2341 121.04 48.3264 122.829 49.3592 124.211C50.6775 125.974 53.037 126.432 54.6156 125.237L58.4948 122.278C58.52 122.261 58.5452 122.235 58.5704 122.21C58.5872 122.201 58.604 122.193 58.6124 122.184L63.8603 118.191Z" fill="#A2CCED"/>
<path d="M103.358 201.233L98.1272 192.493L101.788 201.818L103.358 201.233Z" fill="#CBA563"/>
<path d="M96.0196 203.861L92.8037 198.41L94.2815 204.472L96.0196 203.861Z" fill="#CBA563"/>
<path d="M82.9124 208.44L79.1003 199.834L80.956 209.118L82.9124 208.44Z" fill="#CBA563"/>
<path d="M86.8084 207.041L85.8008 202.174L87.9755 206.634L86.8084 207.041Z" fill="#CBA563"/>
<path d="M117.381 194.247C116.818 194.247 116.281 194.366 115.794 194.57C115.265 193.493 114.173 192.738 112.897 192.738C111.108 192.738 109.656 194.205 109.656 196.011C109.656 197.282 110.378 198.368 111.427 198.91C110.563 199.419 109.983 200.36 109.983 201.445C109.983 203.073 111.293 204.387 112.897 204.387C114.24 204.387 115.366 203.463 115.701 202.217C116.214 202.446 116.776 202.581 117.381 202.581C119.656 202.581 121.503 200.716 121.503 198.419C121.503 196.113 119.656 194.247 117.381 194.247Z" fill="#686C6D"/>
<path d="M124.048 189.28C125.189 189.28 126.113 188.346 126.113 187.194C126.113 186.042 125.189 185.108 124.048 185.108C122.907 185.108 121.982 186.042 121.982 187.194C121.982 188.346 122.907 189.28 124.048 189.28Z" fill="#686C6D"/>
<path d="M99.941 205.023C101.077 205.023 101.998 204.093 101.998 202.946C101.998 201.799 101.077 200.869 99.941 200.869C98.8048 200.869 97.8838 201.799 97.8838 202.946C97.8838 204.093 98.8048 205.023 99.941 205.023Z" fill="#686C6D"/>
<path d="M240.846 157.911L235.564 202.997H229.241L221.911 160.115" fill="#00A1CD"/>
<path d="M207.939 156.876L202.658 201.962H196.326L190.021 159.038" fill="#00A1CD"/>
<path d="M229.393 202.997L226.076 185.354H238.78L236.379 201.53L229.393 202.997Z" fill="#5652A3"/>
<path d="M196.352 202.997L193.22 185.354H205.235L202.968 201.53L196.352 202.997Z" fill="#5652A3"/>
<path d="M215.438 204.039C215.438 198.105 220.198 193.298 226.076 193.298C231.954 193.298 236.715 198.105 236.715 204.039" fill="#504B48"/>
<path d="M203.858 204.039C203.858 198.105 199.097 193.298 193.22 193.298C187.342 193.298 182.581 198.105 182.581 204.039" fill="#504B48"/>
<path d="M216.915 33.0134C216.915 33.0134 213.556 26.1378 206.176 30.1903" stroke="#0D4060" stroke-width="1.5621" stroke-miterlimit="10" stroke-linecap="round"/>
<path d="M187.796 29.6814C187.796 29.6814 181.238 25.8155 177.291 33.31" stroke="#0D4060" stroke-width="1.5621" stroke-miterlimit="10" stroke-linecap="round"/>
<path d="M192.288 47.2309C192.288 42.5341 188.266 38.7275 183.303 38.7275C178.341 38.7275 174.319 42.5341 174.319 47.2309" fill="white"/>
<path d="M185.47 47.2308C185.47 45.052 183.723 43.2886 181.557 43.2886C179.399 43.2886 177.644 45.052 177.644 47.2308" fill="#0D4060"/>
<path d="M200.936 47.2309C200.936 42.5341 204.983 38.7275 209.971 38.7275C214.959 38.7275 219.006 42.5341 219.006 47.2309" fill="white"/>
<path d="M210.509 47.2308C210.509 45.052 208.762 43.2886 206.596 43.2886C204.438 43.2886 202.683 45.052 202.683 47.2308" fill="#0D4060"/>
<path d="M183.177 53.2671C183.177 53.2671 183.177 64.1867 195.487 64.1782C205.722 64.1698 206.52 53.2671 206.52 53.2671H183.177Z" fill="#0D4060"/>
<path d="M54.8758 74.4111C53.7927 75.8354 53.6163 77.8362 54.6071 79.464C55.6735 81.219 57.7391 81.9565 59.6032 81.4139C59.6368 78.4043 57.7475 75.6489 54.8758 74.4111Z" fill="#0D4060"/>
<path d="M84.6756 80.0576C83.5925 81.4819 83.4161 83.4827 84.4069 85.1105C85.4733 86.8654 87.5389 87.603 89.403 87.0604C89.4366 84.0507 87.5473 81.3039 84.6756 80.0576Z" fill="#0D4060"/>
<path d="M249.142 88.0605C249.142 88.0605 242.517 116.012 202.036 96.6996" stroke="#0F8AB2" stroke-width="5.3605" stroke-miterlimit="10" stroke-linecap="round"/>
<path d="M204.547 94.9279C204.455 92.8847 201.7 91.3502 200.34 90.3159C197.586 88.2049 195.462 85.9158 194.857 82.4653C194.731 81.7447 194.639 80.9562 194.127 80.4221C193.287 79.5489 191.708 79.9388 190.969 80.9053C190.054 82.1092 189.979 84.0083 190.197 85.4495C190.289 86.043 191.079 89.2731 191.893 89.3664C190.835 89.2562 189.256 89.1375 187.334 89.2053C184.403 89.307 182.892 89.3833 182.279 90.4007C181.767 91.257 181.968 92.6304 182.749 93.5206C183.312 94.1564 184.017 94.4277 184.361 94.5295C184.143 94.8008 183.723 95.4027 183.681 96.2505C183.673 96.4624 183.631 97.785 184.739 98.6752C185.15 99.0058 185.579 99.1669 185.864 99.2517C185.747 99.3789 185.15 100.023 185.234 100.973C185.318 101.905 186.091 102.516 186.427 102.787C189.114 104.923 195.68 103.787 197.813 103.364C199.249 103.075 201.205 102.617 203.472 101.837C204.278 101.566 204.807 100.778 204.765 99.9299C204.698 98.2513 204.622 96.5896 204.547 94.9279Z" fill="#A2CCED"/>
<path d="M218.208 43.1019L223.104 41.135L218.763 44.5856C218.821 44.7806 218.855 44.9671 218.897 45.1536L223.146 44.6195L219.09 46.349C219.14 46.8916 219.132 47.2476 219.132 47.2476C216.857 39.9735 212.314 39.0071 211.012 38.8799C215.177 38.9986 217.226 41.0502 218.208 43.1019Z" fill="#0D4060"/>
<path d="M170.062 44.6195L174.31 45.1536C174.352 44.9671 174.394 44.7806 174.445 44.5856L170.104 41.135L174.999 43.1019C175.981 41.0502 178.022 38.9986 182.195 38.8799C180.893 39.0071 176.342 39.9735 174.075 47.2476C174.075 47.2476 174.067 46.8916 174.117 46.349L170.062 44.6195Z" fill="#0D4060"/>
</g>
<defs>
<clipPath id="clip0">
<rect width="275" height="211" fill="white" transform="translate(15)"/>
</clipPath>
</defs>
</svg>
