<svg width="52" height="45" viewBox="0 0 52 45" fill="none" xmlns="http://www.w3.org/2000/svg">
<g clip-path="url(#clip0)">
<path d="M31.973 9.64431H27.8003M8.61822 19.6502C12.5552 17.9447 14.5726 15.0751 15.1559 10.915C15.3169 9.76212 16.406 9.92202 16.406 9.92202C19.5384 9.93885 22.6707 9.93324 25.8031 9.93324C26.1393 9.93324 27.0531 9.93604 27.2198 9.56577C29.0648 8.79996 28.7486 6.3623 26.6566 6.04532C23.2943 5.00461 11.4431 6.02568 11.4431 6.02568C10.5264 6.26692 9.58379 6.43804 8.69581 6.75782C4.01452 8.46054 1.09769 11.7229 0.321782 16.5309C-0.48286 21.5185 1.47989 25.5803 5.41689 28.7361C5.41689 28.7361 7.33941 29.9872 8.15268 30.1499M44.9478 27.1035C45.7726 26.2984 45.968 25.4148 45.1892 24.5031C44.4851 23.6812 43.3816 23.7401 42.4362 24.6293C41.3011 25.6981 40.2004 26.8033 39.0825 27.8917C37.6945 29.2438 39.186 27.7963 37.7951 29.1456C37.2865 29.6393 36.7089 30.3041 36.0019 29.572C35.3093 28.8539 36.0105 28.3125 36.5134 27.8132C36.7146 27.614 36.9186 27.4148 37.1198 27.2185C40.8068 23.6195 41.6258 22.8341 45.307 19.2295C46.3473 18.2112 46.4766 17.1985 45.7237 16.4187C44.8932 15.5547 43.9018 15.6613 42.7609 16.7722C39.7809 19.6727 39.6832 19.7765 36.706 22.6798C35.6571 23.7037 34.3294 25.0137 33.2604 26.0151C32.8408 26.4078 32.3293 26.52 31.858 26.0824C31.3666 25.6224 31.5275 25.1567 31.9385 24.7388C32.404 24.2675 32.5994 24.0964 33.0736 23.6335C37.2347 19.5745 39.1027 17.7652 43.2523 13.6949C44.4133 12.5588 44.3932 11.2797 43.2121 10.6514C42.2092 10.1184 41.4246 10.5251 40.6746 11.2629C36.2922 15.5688 34.1857 17.6053 29.7889 21.8943C29.5533 22.1244 29.605 22.0767 29.3579 22.2955C28.901 22.6994 28.3923 22.7527 27.967 22.3067C27.5992 21.9196 27.6336 21.4511 28.013 21.05C28.3061 20.7414 28.6107 20.4469 28.9153 20.1524C32.5678 16.587 33.634 15.5491 37.2865 11.9838C37.5221 11.7538 37.7807 11.5378 37.9877 11.2853C38.6486 10.4887 38.7061 9.63028 37.9733 8.88692C37.1859 8.09307 36.2778 8.12112 35.43 8.86168C35.0392 9.2039 34.68 9.5826 34.3093 9.94446C29.0303 15.0891 23.7484 20.2309 18.4808 25.3867C17.9549 25.9029 17.3888 26.3124 16.7853 25.7009C16.2709 25.1792 16.4606 24.5817 17.1302 24.2002C17.2394 24.0908 17.3486 23.9814 17.4578 23.8748C17.636 23.7037 17.8141 23.5325 17.9894 23.3614C18.0986 23.252 18.2078 23.1426 18.317 23.036C18.4952 22.8649 18.6734 22.6938 18.8487 22.5199C18.9579 22.4161 19.0642 22.3095 19.1734 22.2057L19.1447 22.2338C19.2539 22.13 19.3602 22.0234 19.4694 21.9196C21.004 20.388 22.5385 18.8592 24.0702 17.3276C25.1048 16.2925 25.2197 15.3219 24.4151 14.5365C23.6018 13.7426 22.596 13.8408 21.5385 14.8675C18.5239 17.7988 15.5037 20.7246 12.5236 23.6868C9.83093 26.3629 8.54638 29.5776 8.84524 33.3533C9.29642 39.0337 13.4087 43.6257 19.1447 44.6328C23.2426 45.3509 26.9008 44.3495 29.9958 41.6201C31.4614 40.3269 32.815 38.9131 34.2173 37.5498L44.9478 27.1035Z" stroke="white" stroke-width="1.5" stroke-miterlimit="10"/>
<path d="M19.1475 22.2365C19.2567 22.1327 19.363 22.0262 19.4722 21.9224C19.363 22.029 19.2538 22.1327 19.1475 22.2365Z" fill="white"/>
<path d="M18.8545 22.5251C18.9608 22.4213 19.07 22.3147 19.1792 22.2109C19.07 22.3147 18.9608 22.4185 18.8545 22.5251Z" fill="white"/>
<path d="M17.9924 23.364C18.1016 23.2546 18.2108 23.1452 18.32 23.0386C18.2108 23.148 18.1016 23.2574 17.9924 23.364Z" fill="white"/>
<path d="M17.1304 24.2058C17.2396 24.0964 17.3488 23.987 17.458 23.8804C17.3516 23.9898 17.2396 24.0964 17.1304 24.2058Z" fill="white"/>
<path d="M41.9707 6.31988L43.4535 0.0307617" stroke="white" stroke-width="1.5" stroke-miterlimit="10"/>
<path d="M44.603 8.12061L50.0775 2.6001" stroke="white" stroke-width="1.5" stroke-miterlimit="10"/>
<path d="M46.675 10.2051L52.8353 9.64404" stroke="white" stroke-width="1.5" stroke-miterlimit="10"/>
</g>
<defs>
<clipPath id="clip0">
<rect width="52" height="45" fill="white"/>
</clipPath>
</defs>
</svg>
