<?xml version="1.0" encoding="utf-8"?>
<!-- Generator: Adobe Illustrator 24.1.0, SVG Export Plug-In . SVG Version: 6.00 Build 0)  -->
<svg version="1.1" id="Layer_1" xmlns="http://www.w3.org/2000/svg" xmlns:xlink="http://www.w3.org/1999/xlink" x="0px" y="0px"
	 viewBox="0 0 49.89 57.47" style="enable-background:new 0 0 49.89 57.47;" xml:space="preserve">
<style type="text/css">
	.st0{filter:url(#Adobe_OpacityMaskFilter);}
	.st1{mask:url(#SVGID_1_);}
	.st2{clip-path:url(#SVGID_3_);fill:#FFFFFF;}
	.st3{clip-path:url(#SVGID_3_);}
	.st4{clip-path:url(#SVGID_5_);}
	.st5{clip-path:url(#SVGID_3_);fill:#0D4060;}
	.st6{filter:url(#Adobe_OpacityMaskFilter_1_);}
	.st7{clip-path:url(#SVGID_7_);fill:#FFFFFF;}
	.st8{filter:url(#Adobe_OpacityMaskFilter_2_);}
	.st9{clip-path:url(#SVGID_3_);mask:url(#SVGID_8_);}
	.st10{clip-path:url(#SVGID_3_);fill:#FFD943;}
	.st11{clip-path:url(#SVGID_3_);fill:#FFAC10;}
	.st12{clip-path:url(#SVGID_3_);fill:#0D4161;}
	.st13{clip-path:url(#SVGID_3_);fill:#F5F5F5;}
	.st14{clip-path:url(#SVGID_28_);fill:#0D4161;}
	.st15{clip-path:url(#SVGID_3_);fill:#0D3F60;}
	.st16{clip-path:url(#SVGID_30_);fill:#0D3F60;}
	.st17{clip-path:url(#SVGID_36_);fill:#0D4161;}
	.st18{clip-path:url(#SVGID_38_);fill:#0D4161;}
	.st19{clip-path:url(#SVGID_40_);fill:#FFFFFF;}
	.st20{fill:#0D4161;}
	.st21{fill:#FFFFFF;}
	.st22{clip-path:url(#SVGID_42_);fill:#FFFFFF;}
	.st23{fill:none;stroke:#0D4161;stroke-width:2.7409;stroke-miterlimit:10;}
	.st24{fill:none;stroke:#0D4161;stroke-width:2.2449;stroke-miterlimit:10;}
	.st25{fill:none;stroke:#0D4161;stroke-width:2.5;stroke-linecap:round;stroke-miterlimit:10;}
	.st26{fill:#0D3F60;}
	.st27{fill:none;stroke:#0D3F60;stroke-width:1.9083;stroke-miterlimit:10;}
</style>
<defs>
	<filter id="Adobe_OpacityMaskFilter" filterUnits="userSpaceOnUse" x="-33450.67" y="-32106.72" width="65536" height="65536">
		<feColorMatrix  type="matrix" values="1 0 0 0 0  0 1 0 0 0  0 0 1 0 0  0 0 0 1 0"/>
	</filter>
</defs>
<mask maskUnits="userSpaceOnUse" x="-33450.67" y="-32106.72" width="65536" height="65536" id="SVGID_1_">
</mask>
<g class="st1">
	<g>
		<defs>
			<rect id="SVGID_2_" x="-33450.67" y="-32106.72" width="65536" height="65536"/>
		</defs>
		<clipPath id="SVGID_3_">
			<use xlink:href="#SVGID_2_"  style="overflow:visible;"/>
		</clipPath>
		<defs>
			
				<filter id="Adobe_OpacityMaskFilter_1_" filterUnits="userSpaceOnUse" x="-33450.67" y="-32106.72" width="65536" height="65536">
				<feColorMatrix  type="matrix" values="1 0 0 0 0  0 1 0 0 0  0 0 1 0 0  0 0 0 1 0"/>
			</filter>
		</defs>
		<mask maskUnits="userSpaceOnUse" x="-33450.67" y="-32106.72" width="65536" height="65536" id="SVGID_1_">
		</mask>
		<g class="st3">
			<g>
				<defs>
					<rect id="SVGID_9_" x="-33450.67" y="-32106.72" width="65536" height="65536"/>
				</defs>
				<clipPath id="SVGID_5_">
					<use xlink:href="#SVGID_9_"  style="overflow:visible;"/>
				</clipPath>
			</g>
		</g>
	</g>
</g>
<path class="st20" d="M21.51,40.88c0-0.86,0.29-1.56,0.86-2.11c0.59-0.56,1.34-0.84,2.24-0.84c0.91,0,1.65,0.28,2.23,0.84
	c0.59,0.55,0.88,1.25,0.88,2.11c0,0.84-0.29,1.54-0.86,2.09c-0.56,0.55-1.31,0.83-2.24,0.83c-0.93,0-1.69-0.27-2.26-0.83
	C21.79,42.43,21.51,41.73,21.51,40.88z M22.06,35c0-1.79,0.22-3.22,0.65-4.28c0.44-1.06,1.23-2.1,2.38-3.13
	c1.16-1.04,1.94-1.87,2.32-2.51c0.38-0.65,0.58-1.34,0.58-2.05c0-2.16-1-3.24-2.99-3.24c-0.95,0-1.71,0.29-2.28,0.88
	c-0.56,0.57-0.86,1.37-0.88,2.4h-5.56c0.03-2.44,0.81-4.35,2.36-5.74c1.56-1.38,3.68-2.07,6.37-2.07c2.71,0,4.81,0.66,6.31,1.98
	c1.5,1.3,2.24,3.15,2.24,5.54c0,1.09-0.24,2.12-0.73,3.09c-0.49,0.96-1.34,2.03-2.55,3.2l-1.55,1.48c-0.97,0.93-1.53,2.03-1.67,3.28
	L26.97,35H22.06z"/>
<circle class="st24" cx="24.95" cy="29" r="21.11"/>
</svg>
