<svg id="Layer_1" data-name="Layer 1" xmlns="http://www.w3.org/2000/svg" xmlns:xlink="http://www.w3.org/1999/xlink" viewBox="0 0 58.54 57.47"><defs><style>.cls-1,.cls-4{fill:none;}.cls-2{mask:url(#mask);}.cls-3{clip-path:url(#clip-path);}.cls-4{stroke:#0d4161;stroke-miterlimit:10;stroke-width:2px;}</style><mask id="mask" x="-34329" y="-32106.72" width="65536" height="65536" maskUnits="userSpaceOnUse"/><clipPath id="clip-path"><rect class="cls-1" x="-34329" y="-32106.72" width="65536" height="65536"/></clipPath></defs><path class="cls-4" d="M32.11,9.55l3,9.15a3,3,0,0,0,2.84,2.06h9.62a3,3,0,0,1,1.76,5.39l-7.79,5.66a3,3,0,0,0-1.08,3.34l3,9.15a3,3,0,0,1-4.59,3.33L31,42a3,3,0,0,0-3.51,0l-7.79,5.65a3,3,0,0,1-4.59-3.33l3-9.15A3,3,0,0,0,17,31.81L9.25,26.15A3,3,0,0,1,11,20.76h9.62a3,3,0,0,0,2.84-2.06l3-9.15A3,3,0,0,1,32.11,9.55Z"/></svg>