<svg id="Layer_1" data-name="Layer 1" xmlns="http://www.w3.org/2000/svg" xmlns:xlink="http://www.w3.org/1999/xlink" viewBox="0 0 58.54 57.47"><defs><style>.cls-1{fill:none;}.cls-2{mask:url(#mask);}.cls-3{clip-path:url(#clip-path);}.cls-4{fill:#0d4161;}</style><mask id="mask" x="-34093.37" y="-32106.72" width="65536" height="65536" maskUnits="userSpaceOnUse"/><clipPath id="clip-path"><rect class="cls-1" x="-34093.37" y="-32106.72" width="65536" height="65536"/></clipPath></defs><path class="cls-4" d="M39.06,32.55c0,.83,0,1.62,0,2.41-.07,2.25-1,3.18-3.25,3.29-1.68.08-1.68.08-1.69,1.7,0,3-.49,3.38-3.51,3.18-1.1-.07-2.21,0-3.32,0a26.15,26.15,0,0,1-2.8,0c-1.66-.16-2.28-.92-2.28-2.61,0-.79,0-1.59,0-2.39a7.17,7.17,0,0,0-1.76-5C17.58,29.75,17,25.91,19,21.9A10.18,10.18,0,0,1,29.05,16c4.39.14,8.79,3.54,9.5,7.62a12.77,12.77,0,0,0,1.22,3.07A17.88,17.88,0,0,0,41,28.65C42.48,30.94,41.93,32.18,39.06,32.55Zm.67-2.09c-.18-.33-.29-.58-.44-.8a17.65,17.65,0,0,1-2.86-6.28,5.18,5.18,0,0,0-1-2A8.72,8.72,0,0,0,23.2,19.76a8.25,8.25,0,0,0-1.3,12.11,9.64,9.64,0,0,1,2.28,6.81c0,.78,0,1.57,0,2.46h8c0-.85,0-1.63,0-2.42a2.15,2.15,0,0,1,2.3-2.37c2.73-.21,2.73-.21,2.62-3C37,31.08,37.32,30.72,39.73,30.46Z"/><path class="cls-4" d="M9.52,22,7.85,21.4c2.27-7.21,10-14.72,20.92-14.93A22.82,22.82,0,0,1,51.9,26.31h2.41L51,32.26,47.08,26.6l2.69-.24c-.64-8.26-7.62-15.71-16.43-17.5A21,21,0,0,0,9.52,22Z"/><path class="cls-4" d="M6.7,31.23H4.24l3.3-5.9L11.43,31l-2.56.24c.21,6.33,5,14.27,14.29,17a21.09,21.09,0,0,0,25.66-12.5l1.67.63C48.16,43.61,39.9,51.17,28.9,51,18.86,50.84,8.25,44.16,6.7,31.23Z"/></svg>