<svg width="63" height="64" viewBox="0 0 63 64" fill="none" xmlns="http://www.w3.org/2000/svg">
    <path d="M31.083 28.0308H33.7271V29.9424H31.083V32.9307H29.0688V29.9424H26.4175V28.0308H29.0688V25.167H31.083V28.0308ZM40.0552 34H37.9385V25.8408L35.4116 26.6245V24.9033L39.8281 23.3213H40.0552V34Z" fill="white"/>
    <path d="M34.4836 9.87132C34.0232 9.3346 33.623 9.03185 33.4635 8.63332C33.3231 8.28 33.0438 7.85094 33.5053 7.45001C34.1159 6.91968 34.4679 7.2162 34.6878 7.42319C35.863 8.53145 36.9752 9.71048 38.0487 10.9171C38.5254 11.4514 38.4501 12.0693 37.7544 12.3999C36.3299 13.0794 34.8975 13.752 33.4255 14.3103C33.3364 14.3437 33.2329 14.3362 33.1191 14.3053C32.5453 14.1468 32.2676 13.4683 32.5546 12.9459C32.6071 12.8488 32.6708 12.7646 32.7489 12.696C33.1449 12.3495 33.7218 12.2063 34.4513 11.8693C33.9824 11.7675 33.7688 11.69 33.5485 11.6772C26.382 11.2389 20.8885 14.0575 17.3216 20.2797C14.0498 25.9894 14.6463 33.3757 18.7236 38.4234C23.3005 44.0907 29.2224 46.0254 36.3075 44.4377C37.0133 44.2797 37.9403 43.6956 38.2427 44.8415C38.5297 45.9285 37.4924 46.0113 36.7797 46.2055C29.3651 48.2299 21.3946 45.3395 16.8519 38.9895C12.397 32.7628 12.2153 24.3139 16.5464 18.0111C20.5395 12.2021 26.1518 9.49777 33.2086 9.79888C33.55 9.81533 33.8934 9.83913 34.4836 9.87132Z" fill="white"/>
    <path d="M40.2623 12.8192C44.2859 15.0205 51.9198 22.3691 50.0973 31.2406C48.2987 39.9953 42.7511 43.1111 40.2383 43.8657" stroke="white" stroke-width="1.5" stroke-dasharray="2 2"/>
    <defs>
        <filter id="filter0_d" x="0" y="0" width="63" height="64" filterUnits="userSpaceOnUse" color-interpolation-filters="sRGB">
            <feFlood flood-opacity="0" result="BackgroundImageFix"/>
            <feColorMatrix in="SourceAlpha" type="matrix" values="0 0 0 0 0 0 0 0 0 0 0 0 0 0 0 0 0 0 127 0"/>
            <feOffset dy="4"/>
            <feGaussianBlur stdDeviation="2"/>
            <feColorMatrix type="matrix" values="0 0 0 0 0 0 0 0 0 0 0 0 0 0 0 0 0 0 0.25 0"/>
            <feBlend mode="normal" in2="BackgroundImageFix" result="effect1_dropShadow"/>
            <feBlend mode="normal" in="SourceGraphic" in2="effect1_dropShadow" result="shape"/>
        </filter>
    </defs>
</svg>
