<svg width="63" height="62" viewBox="0 0 63 62" fill="none" xmlns="http://www.w3.org/2000/svg">
    <g filter="url(#filter0_d)">
        <ellipse cx="31.5" cy="27" rx="27.5" ry="27" fill="#00A0CC"/>
    </g>
    <path d="M47.79 21.8351C48.1325 21.3685 48.4291 20.958 48.7312 20.552C49.1884 19.9374 49.89 19.7833 50.4777 20.1654C51.0677 20.5498 51.1705 21.2257 50.7213 21.8411C49.7705 23.1422 48.8143 24.4395 47.8596 25.7375C47.8003 25.8183 47.7338 25.8938 47.6484 26C47.2703 25.8116 46.9017 25.6276 46.5324 25.4437C45.2281 24.7924 43.9214 24.1456 42.6219 23.4869C42.1188 23.2319 41.8918 22.7683 41.9859 22.2681C42.0722 21.8119 42.4977 21.3977 43.0071 21.3581C43.2546 21.3386 43.5331 21.3992 43.7616 21.4972C44.2884 21.7237 44.793 21.9951 45.3064 22.2479C45.3159 22.2524 45.3301 22.2509 45.4662 22.2658C45.0114 21.4044 44.6546 20.5602 44.15 19.8028C41.6941 16.115 38.1822 13.9211 33.5907 13.391C27.3342 12.6687 21.2415 16.0746 18.822 21.5876C18.6559 21.9667 18.5135 22.3555 18.3711 22.7429C18.1212 23.4233 17.4939 23.7643 16.8382 23.5661C16.1596 23.3612 15.8377 22.7294 16.0805 22.031C17.4939 17.9649 20.1658 14.8677 24.1633 12.8526C31.6133 9.09824 40.7892 11.2083 45.6212 17.7503C46.5379 18.9922 47.2506 20.3337 47.79 21.8351Z" fill="white"/>
    <path d="M17.1161 32.1715C16.7935 32.6231 16.5046 33.0312 16.2111 33.4364C15.754 34.0674 15.0596 34.2221 14.488 33.8237C13.9233 33.4297 13.8396 32.7681 14.2844 32.1431C15.2009 30.8535 16.1213 29.5654 17.0408 28.2774C17.1054 28.1869 17.1776 28.1024 17.2575 28C18.9207 28.8575 20.5755 29.6948 22.2141 30.5627C22.7734 30.8588 22.9286 31.5278 22.6336 32.0601C22.3309 32.6051 21.6687 32.8234 21.0825 32.5438C20.5547 32.2926 20.0423 32.0123 19.4631 31.714C19.5076 31.8635 19.5299 31.9637 19.5668 32.0579C21.6541 37.3889 27.0118 40.854 32.9333 40.7029C38.6728 40.5564 43.8984 36.7385 45.6384 31.3664C45.9434 30.4252 46.9452 30.0977 47.6043 30.6726C48.0261 31.0404 48.0822 31.495 47.9062 32.0033C46.3045 36.6346 43.22 39.9673 38.5753 41.8221C30.0087 45.2415 20.2859 40.9444 17.2206 32.4474C17.1953 32.3771 17.1676 32.3076 17.1161 32.1715Z" fill="white"/>
    <defs>
        <filter id="filter0_d" x="0" y="0" width="63" height="62" filterUnits="userSpaceOnUse" color-interpolation-filters="sRGB">
            <feFlood flood-opacity="0" result="BackgroundImageFix"/>
            <feColorMatrix in="SourceAlpha" type="matrix" values="0 0 0 0 0 0 0 0 0 0 0 0 0 0 0 0 0 0 127 0"/>
            <feOffset dy="4"/>
            <feGaussianBlur stdDeviation="2"/>
            <feColorMatrix type="matrix" values="0 0 0 0 0 0 0 0 0 0 0 0 0 0 0 0 0 0 0.25 0"/>
            <feBlend mode="normal" in2="BackgroundImageFix" result="effect1_dropShadow"/>
            <feBlend mode="normal" in="SourceGraphic" in2="effect1_dropShadow" result="shape"/>
        </filter>
    </defs>
</svg>
