<svg id="Layer_1" data-name="Layer 1" xmlns="http://www.w3.org/2000/svg" xmlns:xlink="http://www.w3.org/1999/xlink" viewBox="0 0 58.54 57.47"><defs><style>.cls-1{fill:none;}.cls-2{mask:url(#mask);}.cls-3{clip-path:url(#clip-path);}.cls-4{fill:#0d4161;}</style><mask id="mask" x="-34407.54" y="-32106.72" width="65536" height="65536" maskUnits="userSpaceOnUse"/><clipPath id="clip-path"><rect class="cls-1" x="-34407.54" y="-32106.72" width="65536" height="65536"/></clipPath></defs><path class="cls-4" d="M30.79,43.62H21.3c-1.36,0-2.06-.59-2.06-1.77q0-7.47,0-14.93c0-1.08.74-1.7,2-1.71H40.36c1.25,0,2,.63,2,1.71V42c0,1.06-.72,1.67-1.94,1.67C37.19,43.63,34,43.62,30.79,43.62Zm1.87-5.16c-.31-1.21-.59-2.38-.92-3.54-.1-.37,0-.57.37-.78a1.88,1.88,0,0,0,1-2.32,2.37,2.37,0,0,0-2.19-1.46,2.43,2.43,0,0,0-2.3,1.33A1.75,1.75,0,0,0,29.31,34c.59.33.66.66.46,1.15,0,.08-.05.16-.07.23-.26,1-.51,2-.78,3.07Z"/><path class="cls-4" d="M25.86,24.19H22.27v-.92c0-1.47,0-2.94,0-4.41,0-3.29,2.37-6.11,5.9-7.11a9.26,9.26,0,0,1,9.57,2.78,6.3,6.3,0,0,1,1.55,3.94c0,1.83,0,3.66,0,5.49a2.1,2.1,0,0,1,0,.26c-1.1,0-2.2,0-3.3,0-.09,0-.25-.27-.25-.41,0-1.71,0-3.42,0-5.12a4.42,4.42,0,0,0-3.68-4c-3.07-.69-6.1,1.32-6.14,4.08,0,1.62,0,3.25,0,4.88Z"/></svg>