<svg width="37" height="32" viewBox="0 0 37 32" fill="none" xmlns="http://www.w3.org/2000/svg">
    <path d="M33.79 10.8351C34.1325 10.3685 34.4291 9.95804 34.7312 9.55202C35.1884 8.93738 35.89 8.78335 36.4777 9.16544C37.0677 9.54977 37.1705 10.2257 36.7213 10.8411C35.7705 12.1422 34.8143 13.4395 33.8596 14.7375C33.8003 14.8183 33.7338 14.8938 33.6484 15C33.2703 14.8116 32.9017 14.6276 32.5324 14.4437C31.2281 13.7924 29.9214 13.1456 28.6219 12.4869C28.1188 12.2319 27.8918 11.7683 27.9859 11.2681C28.0722 10.8119 28.4977 10.3977 29.0071 10.3581C29.2546 10.3386 29.5331 10.3992 29.7616 10.4972C30.2884 10.7237 30.793 10.9951 31.3064 11.2479C31.3159 11.2524 31.3301 11.2509 31.4662 11.2658C31.0114 10.4044 30.6546 9.56024 30.15 8.80279C27.6941 5.11497 24.1822 2.92112 19.5907 2.39098C13.3342 1.66867 7.2415 5.07459 4.82196 10.5876C4.65586 10.9667 4.51349 11.3555 4.37112 11.7429C4.12118 12.4233 3.49395 12.7643 2.83824 12.5661C2.1596 12.3612 1.83768 11.7294 2.08051 11.031C3.49395 6.96486 6.1658 3.86775 10.1633 1.85261C17.6133 -1.90176 26.7892 0.208343 31.6212 6.75026C32.5379 7.99225 33.2506 9.33368 33.79 10.8351Z" fill="white"/>
    <path d="M3.11612 21.1715C2.79347 21.6231 2.50461 22.0312 2.21114 22.4364C1.75404 23.0674 1.05956 23.2221 0.487989 22.8237C-0.0766642 22.4297 -0.160402 21.7681 0.284407 21.1431C1.20091 19.8535 2.12126 18.5654 3.04084 17.2774C3.10537 17.1869 3.17758 17.1024 3.25748 17C4.92071 17.8575 6.57549 18.6948 8.21414 19.5627C8.77341 19.8588 8.9286 20.5278 8.63359 21.0601C8.33091 21.6051 7.66869 21.8234 7.08253 21.5438C6.55475 21.2926 6.04233 21.0123 5.46308 20.714C5.50764 20.8635 5.52992 20.9637 5.5668 21.0579C7.65409 26.3889 13.0118 29.854 18.9333 29.7029C24.6728 29.5564 29.8984 25.7385 31.6384 20.3664C31.9434 19.4252 32.9452 19.0977 33.6043 19.6726C34.0261 20.0404 34.0822 20.495 33.9062 21.0033C32.3045 25.6346 29.22 28.9673 24.5753 30.8221C16.0087 34.2415 6.28587 29.9444 3.2206 21.4474C3.19525 21.3771 3.1676 21.3076 3.11612 21.1715Z" fill="white"/>
</svg>
