<?xml version="1.0" encoding="utf-8"?>
<!-- Generator: Adobe Illustrator 24.1.0, SVG Export Plug-In . SVG Version: 6.00 Build 0)  -->
<svg version="1.1" id="Layer_1" xmlns="http://www.w3.org/2000/svg" xmlns:xlink="http://www.w3.org/1999/xlink" x="0px" y="0px"
	 viewBox="0 0 563.7 468.8" style="enable-background:new 0 0 563.7 468.8;" xml:space="preserve">
<style type="text/css">
	.st0{fill:none;stroke:#108AB2;stroke-width:5;stroke-linecap:round;stroke-miterlimit:10;}
	.st1{fill:#A1CBEC;}
	.st2{fill:#00A0CC;}
	.st3{fill:none;stroke:#108AB2;stroke-width:6.61;stroke-linecap:round;stroke-miterlimit:10;}
	.st4{fill:#5652A2;}
	.st5{fill:#4F4A47;}
	.st6{fill:none;stroke:#0D3F60;stroke-width:1.57;stroke-linecap:round;stroke-miterlimit:10;}
	.st7{fill:#EC1651;}
	.st8{fill:none;stroke:#0D3F60;stroke-width:3.26;stroke-linecap:round;stroke-miterlimit:10;}
	.st9{fill:#0D3F60;}
	.st10{fill:#FFFFFF;}
	.st11{fill:none;stroke:#0D4060;stroke-width:3.74;stroke-linecap:round;stroke-miterlimit:10;}
	.st12{fill:#0D4060;}
</style>
<path class="st0" d="M221,215c0,0-2.2,47.8-51.5,47.8"/>
<path class="st1" d="M230.7,215.1c-1.1,3.6-5.9,5.7-10.6,4.6c-3.7-0.9-6.3-3.4-6.8-6.2l-1.8-13.8c-0.1-1,0.9-1.8,2.1-1.8
	s1.9,0.6,2,1.5l0.7,3.8c0.1-0.8,0.3-1.5,0.5-2.3l2.6-11.4c0.5-1,1.7-1.6,2.8-1.2c1.2,0.3,2,1.3,1.7,2.2l-1.2,6.9
	c0.6-0.1,0.7-0.4,1.3-0.4l1.7-8.2c0.5-1,1.7-1.6,2.8-1.2c1.2,0.3,2,1.3,1.7,2.2l-1.7,8.2c0.5,0.2,1,0.5,1.4,0.9l1.2-5.7
	c0.3-1.1,1.5-1.6,2.5-1.3c1.2,0.3,2,1.3,1.7,2.2l-2.5,11.4"/>
<path class="st2" d="M42.8,297.1c-1.1-35.7,15.5-71,37.7-96.5c57.2-65.7,126.1,24.3,128.3,94.1c1.6,51.5-38.7,65.3-79.6,66.6
	S44.4,348.6,42.8,297.1z"/>
<path class="st3" d="M303.6,244.4c0,0-25.6,5.2-48.1-46.4"/>
<path class="st1" d="M246.6,205.3c2.8,3.9,9.4,4.5,14.7,1.2c4.1-2.5,6.3-6.7,5.6-10.2l-3.4-17.4c-0.3-1.2-1.8-1.8-3.3-1.3
	c-1.5,0.5-2.1,1.4-1.8,2.7l0.7,4.9c-0.3-0.4-1.2-2.2-1.6-2.5l-7.7-12.7c-0.7-1-2.5-1.2-3.8-0.3c-1.4,0.8-1.9,2.4-1.2,3.4l4.3,7.8
	c-0.7,0.1-0.9-0.1-1.7,0.2l-5.4-9.3c-0.7-1-2.5-1.2-3.8-0.3c-1.4,0.9-1.9,2.4-1.2,3.4l5.3,9.3c-0.6,0.6-0.4,0.5-0.9,1.2l-4.1-6.2
	c-0.7-1-2.5-1.2-3.8-0.3c-1.4,0.9-1.5,2.4-0.4,4.3l6.8,11.8"/>
<polyline class="st2" points="129.2,343.4 137.8,412.9 146.3,412.9 155.3,334.7 "/>
<polygon class="st4" points="145.7,421.7 137.6,421.7 134.4,383.5 150,383.5 "/>
<path class="st5" d="M137.8,422.8c0-7,5.6-12.6,12.6-12.6c7,0,12.6,5.6,12.6,12.6c0,0,0,0,0,0"/>
<polyline class="st2" points="96.4,343.2 104.9,412.9 113.5,412.9 120.7,343.4 "/>
<polygon class="st4" points="113.5,421.7 105.4,421.7 101.1,383.5 116.7,383.5 "/>
<path class="st5" d="M104.8,422.8c0-7,5.6-12.6,12.6-12.6c7,0,12.6,5.6,12.6,12.6"/>
<path class="st6" d="M209.6,155.9l11.9,9.6"/>
<path class="st6" d="M206.3,170.4l12.5,1.6"/>
<path class="st6" d="M222.7,149.5c1.8,4.8,2.7,7.1,4.5,11.8"/>
<path class="st0" d="M96.3,342.4c0,0-41.7-31.4-18.2-62.4"/>
<path class="st1" d="M90.1,348.1c-1.7-3.2,0.2-7.8,4.2-10.3c3.1-1.9,6.6-1.9,8.8-0.3l10.6,8.2c0.7,0.8,0.6,1.9-0.2,2.6
	c0,0-0.1,0.1-0.1,0.1c-0.9,0.9-1.7,0.9-2.4,0.3l-3-2.2c0.4,0.6,0.8,1.3,1.2,1.9l5.9,9.5c0.4,1-0.1,2.2-1.1,2.7
	c-0.8,0.6-2,0.5-2.6-0.3c0,0,0-0.1-0.1-0.1l-3.8-5.5c-0.3,0.5-0.2,0.7-0.7,1.1l4.4,6.8c0.4,1-0.1,2.2-1.1,2.7
	c-0.8,0.6-2,0.5-2.6-0.3c0,0-0.1-0.1-0.1-0.1l-4.4-6.8c-0.5,0.2-1,0.3-1.6,0.4l3,4.7c0.5,1,0.1,2.1-0.8,2.6c-0.8,0.6-2,0.5-2.6-0.3
	c0,0-0.1-0.1-0.1-0.1l-6-9.5"/>
<path class="st2" d="M365.9,45.1c-57.1,4.2-102.3,22.4-97.6,85.6c1.2,16,4.4,32.1,7.7,47.7c3.7,17.4,9.7,34.6,15.3,51.5
	c2.5,7.4,5,13.9,4.9,21.9c-0.1,7.1-1.4,14.1-3.9,20.8c-6.7,17.5-7.6,35-0.3,52.6c4.6,11.4,13.3,20.6,24.5,25.7
	c22.9,10.8,31.5,9.5,76.4,6.2c26.6-2,54.2-6.1,74.8-25.7c8.5-8.2,14.4-18.7,17-30.2c1.6-6.9,1.7-9.8,2-16.8
	c0.4-9.7-3.5-21.8-7.6-30.3c-6.1-12.7-12.5-29.8-10.1-44.5c5.5-34.1,7.2-78.6,6-95.5C470.3,51,423,40.9,365.9,45.1"/>
<polyline class="st2" points="346.7,356.1 354.8,419.6 364.5,419.6 372.5,356.3 "/>
<polygon class="st7" points="364.2,419.6 367.9,392.9 351.2,392.9 354.5,417.4 "/>
<path class="st5" d="M364.9,421.2c-0.2-9-7.7-16.1-16.7-15.9c-8.7,0.2-15.6,7.2-15.9,15.9"/>
<polyline class="st2" points="393.5,355.8 401.5,419.3 411.2,419.3 419.3,349.7 "/>
<polygon class="st7" points="410.9,419.3 414.6,392.6 397.9,392.6 401.2,417.1 "/>
<path class="st5" d="M411.6,420.9c-0.2-9-7.7-16.1-16.7-15.9c-8.7,0.2-15.6,7.2-15.9,15.9"/>
<path class="st8" d="M295.9,131.3c0,0,5.3-13.1,19.5-6.7"/>
<path class="st8" d="M371.8,125.4c0,0-5.5-12.5-18.6-4.1"/>
<path class="st9" d="M362.3,161.4c0,0-2.9,12.7-21.9,13.7S319,164.6,319,164.6L362.3,161.4z"/>
<path class="st10" d="M343.7,147.1c-0.6-8.6,6.3-16.2,15.5-16.9s17.2,5.8,17.8,14.4"/>
<path class="st9" d="M347.3,146.9c-0.2-4,2.8-7.5,6.8-7.7c3.9-0.2,7.3,2.7,7.7,6.6"/>
<path class="st10" d="M298.1,150.8c-0.6-8.6,6.4-16.2,15.6-16.9s17.3,5.8,17.9,14.4"/>
<path class="st9" d="M304.7,150.3c-0.2-4,2.8-7.5,6.8-7.7c3.9-0.2,7.3,2.7,7.7,6.6"/>
<path class="st9" d="M299,143.3l-9-3.2l8.2,6.1c-0.1,0.4-0.1,0.8-0.2,1.1l-7.6-0.5l7.4,2.8c0,1.1,0,1.8,0,1.8
	c3-14.4,10.9-16.9,13.2-17.3C303.8,135,300.5,139.2,299,143.3z"/>
<path class="st9" d="M311.2,134.2c0.2,0,0.4-0.1,0.6-0.1C311.8,134.1,311.6,134.1,311.2,134.2z"/>
<path class="st9" d="M385.2,139.7l-7.4,1.6c-0.1-0.4-0.2-0.7-0.3-1.1l7.2-7.3l-8.4,4.4c-2-3.9-5.9-7.6-13.3-7.3
	c2.3,0.1,10.5,1.4,15.6,15.2c0,0,0-0.7-0.2-1.7L385.2,139.7z"/>
<path class="st9" d="M362.5,130.4c-0.2,0-0.4,0-0.6,0C362.1,130.4,362.3,130.4,362.5,130.4z"/>
<path class="st3" d="M444.5,230.4c0,0,12.2,23-30.8,59.2"/>
<path class="st1" d="M419.8,299.2c3.7-3.1,3.7-9.7,0.1-14.7c-2.9-3.9-7.2-5.7-10.7-4.8l-17.1,4.7c-1.2,0.4-1.7,1.9-1,3.4
	c0.6,1.5,1.6,1.9,2.8,1.5l4.8-1.1c-0.4,0.3-2.1,1.3-2.4,1.8l-12.1,8.7c-0.9,0.8-0.9,2.5,0,3.8s2.5,1.7,3.5,0.9l7.5-4.9
	c0.2,0.7,0,0.9,0.3,1.7l-8.8,6.1c-0.9,0.8-0.9,2.5,0,3.8s2.5,1.7,3.5,0.9l8.8-6.1c0.6,0.6,0.5,0.4,1.2,0.8l-5.9,4.5
	c-0.9,0.8-0.9,2.5,0,3.8c0.9,1.3,2.5,1.3,4.3,0.1l11.2-7.7"/>
<path class="st10" d="M123.2,238c-0.8-7.2,4.4-13.7,11.6-14.5c7.2-0.8,13.7,4.4,14.5,11.6c0,0,0,0.1,0,0.1"/>
<path class="st10" d="M156.8,234.4c-0.8-7.2,4.4-13.7,11.6-14.5c7.2-0.8,13.7,4.4,14.5,11.6c0,0,0,0.1,0,0.1l0,0"/>
<path class="st11" d="M124.2,220.9c0,0,3-8.1,11.9-4.5"/>
<path class="st11" d="M176.4,215.3c0,0-3.6-7.6-11.5-2.1"/>
<path class="st12" d="M171,244.9c0,0-2,9.9-16.7,11.2s-16.9-7.6-16.9-7.6L171,244.9z"/>
<path class="st9" d="M137.1,223.6c-1.4,3.9,0.7,8.3,4.6,9.6c2.3,0.8,4.8,0.5,6.8-0.9C146.8,227.4,142.3,224,137.1,223.6z"/>
<path class="st9" d="M171.1,219.4c-1.4,3.9,0.7,8.3,4.6,9.6c2.3,0.8,4.8,0.5,6.8-0.9C180.9,223.2,176.4,219.7,171.1,219.4z"/>
</svg>
