<?xml version="1.0" encoding="utf-8"?>
<!-- Generator: Adobe Illustrator 24.1.0, SVG Export Plug-In . SVG Version: 6.00 Build 0)  -->
<svg version="1.1" id="Layer_1" xmlns="http://www.w3.org/2000/svg" xmlns:xlink="http://www.w3.org/1999/xlink" x="0px" y="0px"
	 viewBox="0 0 56.77 57.47" style="enable-background:new 0 0 56.77 57.47;" xml:space="preserve">
<style type="text/css">
	.st0{filter:url(#Adobe_OpacityMaskFilter);}
	.st1{mask:url(#SVGID_1_);}
	.st2{clip-path:url(#SVGID_3_);fill:#FFFFFF;}
	.st3{clip-path:url(#SVGID_3_);}
	.st4{clip-path:url(#SVGID_5_);}
	.st5{clip-path:url(#SVGID_3_);fill:#0D4060;}
	.st6{filter:url(#Adobe_OpacityMaskFilter_1_);}
	.st7{clip-path:url(#SVGID_7_);fill:#FFFFFF;}
	.st8{filter:url(#Adobe_OpacityMaskFilter_2_);}
	.st9{clip-path:url(#SVGID_3_);mask:url(#SVGID_8_);}
	.st10{clip-path:url(#SVGID_3_);fill:#FFD943;}
	.st11{clip-path:url(#SVGID_3_);fill:#FFAC10;}
	.st12{clip-path:url(#SVGID_3_);fill:#0D4161;}
	.st13{clip-path:url(#SVGID_3_);fill:#F5F5F5;}
	.st14{clip-path:url(#SVGID_28_);fill:#0D4161;}
	.st15{clip-path:url(#SVGID_3_);fill:#0D3F60;}
	.st16{clip-path:url(#SVGID_30_);fill:#0D3F60;}
	.st17{clip-path:url(#SVGID_36_);fill:#0D4161;}
	.st18{clip-path:url(#SVGID_38_);fill:#0D4161;}
	.st19{clip-path:url(#SVGID_40_);fill:#FFFFFF;}
	.st20{fill:#0D4161;}
	.st21{fill:#FFFFFF;}
	.st22{clip-path:url(#SVGID_42_);fill:#FFFFFF;}
	.st23{fill:none;stroke:#0D4161;stroke-width:2.7409;stroke-miterlimit:10;}
	.st24{fill:none;stroke:#0D4161;stroke-width:2.2449;stroke-miterlimit:10;}
	.st25{fill:none;stroke:#0D4161;stroke-width:2.5;stroke-linecap:round;stroke-miterlimit:10;}
	.st26{fill:#0D3F60;}
	.st27{fill:none;stroke:#0D3F60;stroke-width:1.9083;stroke-miterlimit:10;}
</style>
<defs>
	<filter id="Adobe_OpacityMaskFilter" filterUnits="userSpaceOnUse" x="-33590.46" y="-32106.72" width="65536" height="65536">
		<feColorMatrix  type="matrix" values="1 0 0 0 0  0 1 0 0 0  0 0 1 0 0  0 0 0 1 0"/>
	</filter>
</defs>
<mask maskUnits="userSpaceOnUse" x="-33590.46" y="-32106.72" width="65536" height="65536" id="SVGID_1_">
</mask>
<g class="st1">
	<g>
		<defs>
			<rect id="SVGID_2_" x="-33590.46" y="-32106.72" width="65536" height="65536"/>
		</defs>
		<clipPath id="SVGID_3_">
			<use xlink:href="#SVGID_2_"  style="overflow:visible;"/>
		</clipPath>
		<defs>
			
				<filter id="Adobe_OpacityMaskFilter_1_" filterUnits="userSpaceOnUse" x="-33590.46" y="-32106.72" width="65536" height="65536">
				<feColorMatrix  type="matrix" values="1 0 0 0 0  0 1 0 0 0  0 0 1 0 0  0 0 0 1 0"/>
			</filter>
		</defs>
		<mask maskUnits="userSpaceOnUse" x="-33590.46" y="-32106.72" width="65536" height="65536" id="SVGID_1_">
		</mask>
		<g class="st3">
			<g>
				<defs>
					<rect id="SVGID_9_" x="-33590.46" y="-32106.72" width="65536" height="65536"/>
				</defs>
				<clipPath id="SVGID_5_">
					<use xlink:href="#SVGID_9_"  style="overflow:visible;"/>
				</clipPath>
			</g>
		</g>
	</g>
</g>
<g>
	<polygon class="st20" points="22.08,38.48 22.08,38.47 21.9,38.64 	"/>
	<polygon class="st20" points="37.84,20.9 37.7,20.69 37.69,20.7 	"/>
	<polygon class="st20" points="5.43,14.66 5.43,14.66 5.66,14.77 	"/>
	<polygon class="st20" points="24.38,25.93 24.56,26.11 24.56,26.11 	"/>
	<polygon class="st20" points="27.69,10.99 27.88,10.79 27.67,10.62 27.51,10.81 	"/>
	<polygon class="st20" points="31.16,46.09 31.34,45.92 31.34,45.91 	"/>
	<path class="st20" d="M50.91,13.36C46.3,5.52,36.67,3.27,29.44,8.47l0,0c-0.41,0.29-0.7,0.41-0.96,0.41
		c-0.26,0-0.55-0.12-0.94-0.42l0,0c-2.05-1.59-4.38-2.4-6.9-2.67h0l-0.02,0.17l-0.01,0.08l0.03-0.25C14.24,5.11,8.26,8.6,5.43,14.66
		l0.23,0.11c0,0,0,0,0,0c0,0,0,0,0,0l-0.23-0.11C2.59,20.78,3.58,28.1,8.01,33.03l0,0c2.57,2.89,5.21,5.71,7.86,8.53l0,0
		c3.34,3.58,6.75,7.1,10.09,10.65l0,0c0,0,0,0,0,0c0,0,0,0,0,0c0.61,0.65,1.29,0.98,1.99,1.07c0.7,0.09,1.41-0.06,2.09-0.33l0,0
		c1.38-0.54,2.17-1.76,2.41-3.31l0,0c0.04-0.24,0.08-0.5,0.12-0.77c1.3-0.1,2.3-0.55,3-1.34c0.69-0.78,1.06-1.87,1.2-3.15
		c1.3-0.19,2.27-0.57,2.94-1.31c0.67-0.73,1.02-1.78,1.19-3.19c1.54,0.06,2.6-0.86,3.55-1.89l0,0l-0.18-0.17l0,0l0.18,0.17
		c1.56-1.72,3.2-3.41,4.74-5.16C53.81,27.56,54.51,19.5,50.91,13.36z M29.74,10.73L29.74,10.73L29.74,10.73L29.74,10.73z
		 M29.59,8.67L29.59,8.67C29.59,8.67,29.59,8.67,29.59,8.67l-0.04-0.05L29.59,8.67z M30.27,20.51l0.03-0.04L30.27,20.51
		C30.27,20.51,30.27,20.51,30.27,20.51z M17.04,21.75l-0.03-0.03L17.04,21.75C17.04,21.75,17.04,21.75,17.04,21.75z M32.2,49.6
		L32.2,49.6L32.2,49.6L32.2,49.6z M32.35,48.64L32.35,48.64C32.35,48.64,32.35,48.64,32.35,48.64
		C32.35,48.64,32.35,48.64,32.35,48.64L32.35,48.64z M27.06,32.66c-0.62-0.45-1.01-0.32-1.48,0.18s0.16,1.2,0.16,1.2
		c2.65,3.12,5.5,6.07,8.24,9.12c0,0,0.19-0.17,0.19-0.17c0,0-0.19,0.17-0.19,0.17c0,0,0.19-0.17,0.19-0.17l-0.19,0.17
		c0.56,0.62,0.73,1.32,0.59,1.93c-0.13,0.61-0.58,1.16-1.32,1.47l0.07,0.17l0.02,0.04l-0.09-0.21c-0.39,0.17-0.72,0.15-1.02,0.03
		c-0.31-0.12-0.6-0.36-0.89-0.66c0,0-0.18,0.17-0.18,0.17l0.18-0.17c-1.67-1.74-3.33-3.49-4.99-5.23l-0.14,0.14
		c0,0-0.04,0.03-0.04,0.03l0.18-0.17c-1.08-1.12-2.14-2.31-3.29-3.38c-0.2-0.19-0.53-0.36-0.82-0.45c-0.15-0.05-0.3-0.08-0.45-0.09
		c-0.12,0-0.3,0.01-0.43,0.14c-0.18,0.17-0.29,0.35-0.33,0.55c-0.04,0.2,0,0.39,0.07,0.55c0.14,0.31,0.42,0.6,0.61,0.8
		c2.68,2.94,5.37,5.86,8.03,8.82c0.3,0.34,0.56,0.77,0.62,1.16c0.06,0.47,0,0.89-0.17,1.24c-0.17,0.35-0.45,0.63-0.86,0.84
		c-0.41,0.21-0.79,0.28-1.13,0.22c-0.34-0.05-0.68-0.24-1.01-0.6l-0.15,0.14l-0.04,0.03l0.18-0.17c-3.2-3.39-6.41-6.77-9.59-10.17
		c0,0-0.18,0.17-0.18,0.17l0.04-0.04c0,0,0.14-0.13,0.14-0.13c-2.67-2.84-5.32-5.71-7.93-8.59c0,0-0.19,0.17-0.19,0.17l0.04-0.03
		c0,0,0.15-0.13,0.15-0.13C5.67,27.33,4.8,21.03,7.39,15.49c2.44-5.22,7.84-8.24,13.33-7.5c0,0,0.03-0.25,0.03-0.22
		c0,0-0.03,0.22-0.03,0.22c2.26,0.3,4.29,1.18,6.42,2.85c-3.54,3.68-6.96,7.22-10.28,10.74c-0.74,0.77-1.1,1.6-1.05,2.44
		c0.05,0.84,0.52,1.63,1.33,2.33c2.2,1.91,5.35,1.88,7.42-0.24c0,0-0.18-0.17-0.18-0.18l0.18,0.17c1.41-1.46,2.66-3.11,3.7-4.37
		c3.08,1.3,5.51,3.24,7.69,5.41c1.11,1.11,2.16,2.28,3.2,3.45c1.04,1.17,2.07,2.36,3.13,3.49c0.52,0.55,0.75,1.08,0.76,1.57
		c0.01,0.48-0.19,0.96-0.62,1.42c-0.36,0.39-0.8,0.56-1.26,0.54c-0.46-0.02-0.96-0.25-1.43-0.73c0,0-0.18,0.18-0.18,0.18l0.18-0.18
		c-2.43-2.48-4.8-5.01-7.21-7.53l-0.18,0.17l0.03-0.03c0,0,0.14-0.14,0.14-0.14c-0.43-0.44-0.89-0.87-1.31-1.28l-0.18,0.18
		l0.03-0.04c0,0,0.14-0.14,0.14-0.14c-0.29-0.28-0.63-0.51-1-0.44c-0.37,0.06-0.65,0.39-0.89,0.86l-0.07,0.14l0.1,0.12
		c0.61,0.76,1.26,1.56,1.95,2.33c0,0,0.18-0.16,0.18-0.16l-0.18,0.16c2.21,2.44,4.47,4.8,6.64,7.28c0.22,0.25,0.43,0.6,0.58,0.96
		c0.15,0.37,0.22,0.73,0.19,1c-0.03,0.27-0.19,0.58-0.43,0.88c-0.24,0.3-0.53,0.56-0.81,0.76c-0.3,0.21-0.59,0.23-0.89,0.14
		c-0.3-0.09-0.61-0.31-0.9-0.61l-0.15,0.14c0,0-0.03,0.03-0.03,0.03l0.18-0.17c-1.71-1.75-3.39-3.52-5.09-5.28
		c-1.16-1.2-3.55-3.6-3.53-3.63 M21.9,38.64l-0.02,0.02L21.9,38.64L21.9,38.64C21.9,38.64,21.9,38.64,21.9,38.64z M38.39,20.55
		c-0.21-0.04-0.48,0-0.7,0.15l0.14,0.21c0,0,0,0,0,0l-0.14-0.2c-1.44,1.02-2.6,1.47-3.71,1.42c-1.11-0.05-2.22-0.62-3.55-1.8l0,0
		c-0.21-0.19-0.4-0.35-0.55-0.52l-0.19,0.16l0.01-0.01l0.18-0.16l0,0c-0.32-0.38-0.68-0.59-1.08-0.59
		c-0.39,0.01-0.75,0.24-1.08,0.58v0l0.12,0.11l0,0l-0.12-0.12c-1.45,1.52-2.94,3.02-4.38,4.54c-0.62,0.65-1.27,1.04-1.95,1.19
		c-0.68,0.14-1.42,0.04-2.21-0.32c-0.34-0.16-0.66-0.4-0.94-0.66l0,0l-0.17,0.18l0,0c0,0,0,0,0,0l0.17-0.18
		c-0.23-0.22-0.34-0.41-0.35-0.59c-0.01-0.17,0.06-0.38,0.31-0.66l0,0c3.91-4.14,7.6-8.5,11.72-12.38l0,0
		c4.78-4.47,12.34-4.17,17.24,1l0,0c4.95,5.24,5.31,13.35,0.81,19.07v0l0.1,0.08l0.04,0.03l-0.15-0.11
		c-0.94,1.2-1.97,2.31-2.96,3.42c-1.31-1.93-2.8-3.62-4.33-5.24c-1.53-1.63-3.08-3.19-4.48-4.87c0.95-0.63,1.92-1.22,2.77-1.95l0,0
		c0.12-0.1,0.18-0.23,0.21-0.35C39.17,21.98,39.64,20.77,38.39,20.55z"/>
</g>
</svg>
