<svg id="Layer_1" data-name="Layer 1" xmlns="http://www.w3.org/2000/svg" viewBox="0 0 563.69 468.78"><defs><style>.cls-1{fill:#cf2153;}.cls-2{fill:#00a1cd;}.cls-11,.cls-12,.cls-3,.cls-6{fill:none;stroke-miterlimit:10;}.cls-3{stroke:#188ab2;stroke-width:7.02px;}.cls-12,.cls-3,.cls-6{stroke-linecap:round;}.cls-4{fill:#a2cced;}.cls-5{fill:#fff;}.cls-6{stroke:#0d4060;stroke-width:3px;}.cls-7{fill:#0d4060;}.cls-8{fill:#56c5d0;}.cls-9{fill:#504b48;}.cls-10{fill:#ffcb05;}.cls-11,.cls-12{stroke:#0f8ab2;stroke-width:8.14px;}</style></defs><g id="Layer_1-2" data-name="Layer 1"><circle class="cls-1" cx="236.62" cy="392.48" r="33.21"/><path class="cls-2" d="M486.86,317l1.71-1.73a1.46,1.46,0,0,1,2.39,1.57l-14.57,36.31a1.34,1.34,0,0,0-.11.65c.25,2.3-1.93,10.12,6,10.71l.24,0,24.28,6.51a1,1,0,0,1-.24,2c-5.51.19-8.4,1.65,5.78,6.76h0a1.45,1.45,0,0,0-1,2.57c1.28,1,2.69,1.71,1.31,1.62l-47.41-.5c-9.34.28-13.16-7.21-14.13-8.87l-14.89-28.3a.24.24,0,0,0-.06-.11c-1-1.63-2.86-3.69-2.17-5.38"/><path class="cls-2" d="M428.39,335.82l-7.66,5.62-31.38,22.81c-1.36,1.32-9.3,5.87-6.76,11.3l9.8,41.89c.47,3.23-1.17.14-4.22.56h0c-2.34.34-7.9-.51-8.92-2.79L356.9,370.47c-4.66-8.54-.09-15.41.88-17.07l8.38-22.2c.93-1.64,9-5.26,10.81-5.37"/><path class="cls-2" d="M129.7,357.5l-.13-1.05,20.73,11.41c1.11,1.08,7.64,4.8,5.55,9.26l-8,34.36a4.75,4.75,0,0,0,3.86,5.47h0a4.39,4.39,0,0,0,4.62-2.63L176.91,373a12.7,12.7,0,0,0,1.39-9.12,13.82,13.82,0,0,0-3.77-6.62l-14.61-14.7c-.77-1.35,2.07-6.18.59-6.29"/><path class="cls-3" d="M180.68,270.83s1,21.47,9,28.72S219.41,314,219.41,314"/><path class="cls-4" d="M234.4,328.44a2,2,0,0,0,1.42-3.78l-6.5-2.43a8.21,8.21,0,0,0,1.15-1.35l7.79,2.92a2,2,0,0,0,1.41-3.78l-7.79-2.92a8.46,8.46,0,0,0,.05-1.59l6.69,2.51a2,2,0,0,0,1.41-3.78l-11.14-4.16a7.93,7.93,0,0,0-1-.55l2.41.09a2.07,2.07,0,0,0,2-1.94h0a1.75,1.75,0,0,0-1.42-2l-.23,0-12.86-.42a1.85,1.85,0,0,0-1.32.52,7.77,7.77,0,0,0-6.88,5.17c-1.49,4,.22,8.33,3.79,9.65l8.84,3.31a.7.7,0,0,0,.19.06l.1,0Z"/><path class="cls-2" d="M87.16,343.36h0a1.6,1.6,0,0,0-2,2.37l18.4,23.71a1.47,1.47,0,0,1,.29.62c.35,1.91,3.71,7.5-2.34,9.73a1.34,1.34,0,0,0-.24.12l-16.68,10a1,1,0,0,0,.74,1.88c3.66-.71,5,.27-4.13,6.87l1.94-.66c1.14,1.66-3.1,4.7-1.25,4l37.3-11c7.18-1.81,8.67-8.18,9.12-10a1.5,1.5,0,0,0,0-.37l.07-23.14a1.5,1.5,0,0,1,.51-1.17c1.4-1.18,5-2.14,4.22-3.18"/><path class="cls-2" d="M27.6,218.8C25.14,276.73,56,354.12,121.16,359.9c51.2,4.57,102.69-73.54,105.16-131.47S184.87,155,130,152.7,30.07,160.86,27.6,218.8Z"/><path class="cls-5" d="M211.62,227.66a16.3,16.3,0,0,0-32.57-1.39h0"/><path class="cls-5" d="M169.46,225.83a16.3,16.3,0,1,0-32.57-1.39"/><path class="cls-6" d="M209,206.42s-4.36-9.87-15.09-4.63"/><path class="cls-6" d="M141.68,203.64s5.91-9.71,16.15-3.54"/><path class="cls-7" d="M152.68,240s3.24,12.19,21.69,12.6,20.39-10.81,20.39-10.81Z"/><path class="cls-3" d="M75.08,270.83s4.6,30.8,12.78,37.71c9.53,8,44.23,8.31,44.23,8.31"/><path class="cls-4" d="M149.82,327.65a2,2,0,0,0,.64-4l-6.84-1.1a8.15,8.15,0,0,0,.86-1.56l8.21,1.33a2,2,0,0,0,.64-4L145.12,317a7.51,7.51,0,0,0-.28-1.56l7,1.16a2,2,0,0,0,.64-4l-11.76-1.9a5.53,5.53,0,0,0-1.12-.33l2.35-.36a2.08,2.08,0,0,0,1.59-2.3h0a1.8,1.8,0,0,0-1.89-1.7h-.13l-12.71,2.16a1.81,1.81,0,0,0-1.19.77,7.74,7.74,0,0,0-5.72,6.43c-.68,4.19,1.86,8.11,5.63,8.72l9.32,1.51.3-.06a.19.19,0,0,0,.07.06Z"/><path class="cls-2" d="M104.73,349.73c-18.29-4.58,8.86,2.86,9,2.93"/><polygon class="cls-8" points="146.84 416.09 157.65 418 171.21 385.24 154.94 380.95 146.84 416.09"/><path class="cls-9" d="M175.09,420.9c0-8.56-6.5-15.48-14.54-15.46S146,412.4,146,421"/><polygon class="cls-8" points="75.08 394.45 81.33 402.05 112.61 393.36 101.9 379.16 75.08 394.45"/><path class="cls-9" d="M92,419.43a16.21,16.21,0,0,0,3.35-21.68,13.94,13.94,0,0,0-19.28-4.07c-.35.23-.69.47-1,.73"/><polygon class="cls-10" points="393.28 418.02 380.41 418.02 362.74 382.24 383.67 380.63 393.28 418.02"/><path class="cls-9" d="M350.64,421.54c0-10.42,9.8-18.86,21.93-18.84s21.93,8.5,21.93,18.93"/><polygon class="cls-10" points="518.08 372.9 513.29 383.91 475.01 383.52 480.85 364.05 518.08 372.9"/><path class="cls-9" d="M500.1,412.85c-9.51-4.29-13.16-16.67-8.15-27.72s16.77-16.48,26.32-12.19"/></g><path class="cls-11" d="M364.21,218.83s-9.53,26.93-23.22,36S295.6,276.1,295.6,276.1"/><path class="cls-2" d="M452.09,340.31c-20.71,5.05-20.44,2-39.69,3.93-30.86,3.16-61.92-18.17-74-46.19-16.2-37.46-26.85-78.36-39.64-117.19-6.07-18.44-13.69-35.29-12.83-55.35a87.42,87.42,0,0,1,1.9-14.77c4.12-19,19.34-39.63,34.95-49.92,6.62-4.38,23.2-8.15,31.47-9,34.77-3.56,64.19-6.48,99-9.93,12.75-1.27,27.27-2.45,39,4.56C505,54.17,518,65.69,525.06,79.61c16.43,32.11,6.12,70.17,2.21,104.22q-4.07,35.4-8.14,70.78c-2.34,20.61-7.1,40.9-18.28,58.5C491.36,328,468.28,336.36,452.09,340.31Z"/><path class="cls-12" d="M383.09,296.42s25.75-13.2,43.85-23.94a44.38,44.38,0,0,0,19.06-23c4.67-12.85,10.87-30.89,11.64-37.87"/><path class="cls-4" d="M295.13,263.35c3.64-.35,7.52,2,9.55,6.22,2.57,5.35,1.19,11.71-3.07,14.14l-10.52,6-.22.11-.09.1-14.2,8a2.43,2.43,0,0,1-3.25-1.39,2.84,2.84,0,0,1,.79-3.69l7.74-4.39a11.39,11.39,0,0,1-1.68-1.72L270.91,292a2.39,2.39,0,0,1-3.24-1.39,2.83,2.83,0,0,1,.79-3.68l9.27-5.26a13,13,0,0,1-.33-2.23l-8,4.52a2.41,2.41,0,0,1-3.25-1.39,2.85,2.85,0,0,1,.79-3.69l13.27-7.54a7.15,7.15,0,0,1,1.21-.92l-3,.47a2.78,2.78,0,0,1-2.87-2.41h0a2.47,2.47,0,0,1,1.71-3.13Z"/><path class="cls-5" d="M311.19,149.87a16.41,16.41,0,0,1,32.65-3.34"/><path class="cls-5" d="M356.07,145.28a16.41,16.41,0,0,1,32.65-3.34"/><path class="cls-7" d="M314.2,149.56a7.1,7.1,0,1,1,14.07-1.87c0,.14,0,.29.05.43"/><path class="cls-7" d="M359.05,145a7.1,7.1,0,1,1,14.07-1.88c0,.15,0,.29.05.43"/><path class="cls-7" d="M371.4,154.8s-2.52,12.44-21,14-21.13-9.67-21.13-9.67Z"/><path class="cls-6" d="M306.05,126.87s15.35-4.46,25-7.5"/><path class="cls-6" d="M362.08,116.55s16,.31,26.13.3"/><path class="cls-7" d="M193.41,227.24a7.1,7.1,0,0,1,14.2.1c0,.14,0,.28,0,.43"/><path class="cls-7" d="M150.57,225.26a7.1,7.1,0,1,1,14.2.11c0,.14,0,.28,0,.43"/><path class="cls-4" d="M382.17,284.43c3.64-.35,7.52,2,9.55,6.22,2.57,5.35,1.19,11.71-3.07,14.13l-10.52,6-.22.11-.09.1-14.2,8a2.43,2.43,0,0,1-3.25-1.39,2.84,2.84,0,0,1,.79-3.69l7.73-4.39a11.82,11.82,0,0,1-1.67-1.72L358,313.06a2.4,2.4,0,0,1-3.24-1.39,2.84,2.84,0,0,1,.79-3.69l9.26-5.26a12.77,12.77,0,0,1-.32-2.22l-8,4.52a2.41,2.41,0,0,1-3.25-1.39,2.85,2.85,0,0,1,.79-3.69l13.27-7.54a7.15,7.15,0,0,1,1.21-.92l-3,.47a2.78,2.78,0,0,1-2.87-2.41h0a2.47,2.47,0,0,1,1.71-3.13Z"/></svg>