<?xml version="1.0" encoding="utf-8"?>
<!-- Generator: Adobe Illustrator 24.1.0, SVG Export Plug-In . SVG Version: 6.00 Build 0)  -->
<svg version="1.1" id="Layer_1" xmlns="http://www.w3.org/2000/svg" xmlns:xlink="http://www.w3.org/1999/xlink" x="0px" y="0px"
	 viewBox="0 0 55.54 57.47" style="enable-background:new 0 0 55.54 57.47;" xml:space="preserve">
<style type="text/css">
	.st0{filter:url(#Adobe_OpacityMaskFilter);}
	.st1{mask:url(#SVGID_1_);}
	.st2{clip-path:url(#SVGID_3_);fill:#FFFFFF;}
	.st3{clip-path:url(#SVGID_3_);}
	.st4{clip-path:url(#SVGID_5_);}
	.st5{clip-path:url(#SVGID_3_);fill:#0D4060;}
	.st6{filter:url(#Adobe_OpacityMaskFilter_1_);}
	.st7{clip-path:url(#SVGID_7_);fill:#FFFFFF;}
	.st8{filter:url(#Adobe_OpacityMaskFilter_2_);}
	.st9{clip-path:url(#SVGID_3_);mask:url(#SVGID_8_);}
	.st10{clip-path:url(#SVGID_3_);fill:#FFD943;}
	.st11{clip-path:url(#SVGID_3_);fill:#FFAC10;}
	.st12{clip-path:url(#SVGID_3_);fill:#0D4161;}
	.st13{clip-path:url(#SVGID_3_);fill:#F5F5F5;}
	.st14{clip-path:url(#SVGID_28_);fill:#0D4161;}
	.st15{clip-path:url(#SVGID_3_);fill:#0D3F60;}
	.st16{clip-path:url(#SVGID_30_);fill:#0D3F60;}
	.st17{clip-path:url(#SVGID_36_);fill:#0D4161;}
	.st18{clip-path:url(#SVGID_38_);fill:#0D4161;}
	.st19{clip-path:url(#SVGID_40_);fill:#FFFFFF;}
	.st20{fill:#0D4161;}
	.st21{fill:#FFFFFF;}
	.st22{clip-path:url(#SVGID_42_);fill:#FFFFFF;}
	.st23{fill:none;stroke:#0D4161;stroke-width:2.7409;stroke-miterlimit:10;}
	.st24{fill:none;stroke:#0D4161;stroke-width:2.2449;stroke-miterlimit:10;}
	.st25{fill:none;stroke:#0D4161;stroke-width:2.5;stroke-linecap:round;stroke-miterlimit:10;}
	.st26{fill:#0D3F60;}
	.st27{fill:none;stroke:#0D3F60;stroke-width:1.9083;stroke-miterlimit:10;}
</style>
<defs>
	<filter id="Adobe_OpacityMaskFilter" filterUnits="userSpaceOnUse" x="-33942.29" y="-32106.72" width="65536" height="65536">
		<feColorMatrix  type="matrix" values="1 0 0 0 0  0 1 0 0 0  0 0 1 0 0  0 0 0 1 0"/>
	</filter>
</defs>
<mask maskUnits="userSpaceOnUse" x="-33942.29" y="-32106.72" width="65536" height="65536" id="SVGID_1_">
</mask>
<g class="st1">
	<g>
		<defs>
			<rect id="SVGID_2_" x="-33942.29" y="-32106.72" width="65536" height="65536"/>
		</defs>
		<clipPath id="SVGID_3_">
			<use xlink:href="#SVGID_2_"  style="overflow:visible;"/>
		</clipPath>
		<defs>
			
				<filter id="Adobe_OpacityMaskFilter_1_" filterUnits="userSpaceOnUse" x="-33942.29" y="-32106.72" width="65536" height="65536">
				<feColorMatrix  type="matrix" values="1 0 0 0 0  0 1 0 0 0  0 0 1 0 0  0 0 0 1 0"/>
			</filter>
		</defs>
		<mask maskUnits="userSpaceOnUse" x="-33942.29" y="-32106.72" width="65536" height="65536" id="SVGID_1_">
		</mask>
		<g class="st3">
			<g>
				<defs>
					<rect id="SVGID_9_" x="-33942.29" y="-32106.72" width="65536" height="65536"/>
				</defs>
				<clipPath id="SVGID_5_">
					<use xlink:href="#SVGID_9_"  style="overflow:visible;"/>
				</clipPath>
			</g>
		</g>
	</g>
</g>
<path class="st26" d="M28.55,21.56c0,2.1,0,4.21,0,6.31c0,0.13,0.03,0.21,0.15,0.28c0.46,0.31,0.69,0.76,0.7,1.31
	c0,0.1,0.04,0.16,0.12,0.21c2.24,1.42,4.49,2.83,6.73,4.25c0.09,0.06,0.18,0.12,0.27,0.18c0.39,0.25,0.51,0.7,0.27,1.08
	c-0.24,0.37-0.69,0.46-1.09,0.21c-1.01-0.64-2.03-1.28-3.06-1.94c-1.31-0.84-2.64-1.67-3.95-2.51c-0.1-0.06-0.18-0.03-0.27,0
	c-0.96,0.42-2.01-0.13-2.24-1.15c-0.13-0.64,0.13-1.3,0.7-1.67C26.97,28.06,27,28,27,27.91c0-3.03,0-6.04,0-9.07
	c0-0.55,0.01-1.1,0.01-1.66c0-0.67-0.01-1.34-0.01-2.02c0-0.49,0.36-0.83,0.84-0.79c0.33,0.03,0.61,0.27,0.67,0.6
	c0.01,0.09,0.01,0.19,0.01,0.28C28.55,17.36,28.55,19.47,28.55,21.56z"/>
<g>
	<defs>
		<path id="SVGID_43_" d="M28.55,21.56c0,2.1,0,4.21,0,6.31c0,0.13,0.03,0.21,0.15,0.28c0.46,0.31,0.69,0.76,0.7,1.31
			c0,0.1,0.04,0.16,0.12,0.21c2.24,1.42,4.49,2.84,6.73,4.25c0.09,0.06,0.18,0.12,0.27,0.18c0.39,0.25,0.51,0.7,0.27,1.07
			c-0.24,0.37-0.69,0.46-1.09,0.21c-1.01-0.64-2.03-1.28-3.06-1.94c-1.31-0.84-2.64-1.67-3.95-2.51c-0.1-0.06-0.18-0.03-0.27,0
			c-0.96,0.42-2.01-0.13-2.24-1.15c-0.13-0.64,0.13-1.3,0.7-1.67C26.97,28.06,27,28,27,27.91c0-3.03,0-6.04,0-9.07
			c0-0.55,0.01-1.1,0.01-1.66c0-0.67-0.01-1.34-0.01-2.01c0-0.49,0.36-0.84,0.84-0.79c0.33,0.03,0.61,0.27,0.67,0.6
			c0.01,0.09,0.01,0.19,0.01,0.28C28.55,17.36,28.55,19.47,28.55,21.56z"/>
	</defs>
	<clipPath id="SVGID_7_">
		<use xlink:href="#SVGID_43_"  style="overflow:visible;"/>
	</clipPath>
</g>
<path class="st20" d="M8.37,30.27c-0.27,0-0.55,0-0.82,0c-0.46,0-0.79-0.33-0.79-0.78c0-0.42,0.33-0.75,0.78-0.75
	c0.57-0.02,1.12-0.02,1.69,0c0.45,0,0.78,0.34,0.78,0.78c0,0.43-0.34,0.75-0.79,0.76C8.93,30.29,8.64,30.27,8.37,30.27z"/>
<path class="st26" d="M47.16,30.23c-0.28,0-0.57,0-0.85,0c-0.4-0.01-0.7-0.33-0.72-0.72c-0.01-0.4,0.28-0.76,0.69-0.78
	c0.55-0.02,1.1,0,1.64,0c0.08,0,0.15,0,0.22,0c0.37,0.03,0.67,0.37,0.67,0.76c0,0.4-0.31,0.73-0.72,0.75
	C47.78,30.26,47.47,30.24,47.16,30.23C47.16,30.24,47.16,30.24,47.16,30.23z"/>
<path class="st26" d="M12.33,19.65c0,0.66-0.6,1.03-1.12,0.75c-0.51-0.27-1.01-0.57-1.52-0.86c-0.37-0.22-0.48-0.67-0.25-1.04
	c0.21-0.34,0.67-0.46,1.03-0.25c0.49,0.28,0.97,0.57,1.46,0.84C12.18,19.21,12.31,19.44,12.33,19.65z"/>
<path class="st26" d="M43.01,37.48c0.12,0.05,0.25,0.06,0.37,0.12c0.49,0.28,0.99,0.57,1.48,0.85c0.28,0.16,0.43,0.49,0.37,0.79
	c-0.06,0.33-0.3,0.58-0.63,0.61c-0.16,0.01-0.36-0.02-0.49-0.09c-0.51-0.27-1-0.57-1.49-0.85c-0.3-0.18-0.43-0.54-0.34-0.87
	C42.37,37.72,42.65,37.51,43.01,37.48z"/>
<path class="st20" d="M38.2,46.16c-0.02,0.36-0.24,0.64-0.57,0.75c-0.33,0.09-0.67-0.03-0.85-0.33c-0.3-0.49-0.58-1-0.86-1.51
	c-0.21-0.39-0.09-0.84,0.28-1.04c0.37-0.21,0.82-0.09,1.04,0.28c0.3,0.49,0.58,1,0.86,1.51C38.16,45.92,38.17,46.04,38.2,46.16z"/>
<path class="st26" d="M38.4,11.05c0.57,0,0.94,0.6,0.67,1.09c-0.28,0.52-0.58,1.04-0.9,1.55c-0.21,0.36-0.67,0.46-1.01,0.25
	c-0.36-0.21-0.49-0.66-0.28-1.03c0.28-0.51,0.57-1,0.86-1.51C37.89,11.17,38.11,11.05,38.4,11.05z"/>
<path class="st26" d="M19.19,43.93c0.57,0,0.94,0.6,0.67,1.09c-0.28,0.52-0.58,1.04-0.9,1.55c-0.21,0.36-0.67,0.46-1.01,0.25
	c-0.36-0.21-0.49-0.66-0.28-1.03c0.28-0.51,0.57-1,0.86-1.51C18.68,44.05,18.91,43.93,19.19,43.93z"/>
<path class="st26" d="M11.48,39.81c-0.37,0.21-0.84,0.08-1.03-0.28c-0.21-0.36-0.09-0.8,0.28-1.03c0.49-0.3,1-0.58,1.51-0.87
	c0.51-0.28,1.1,0.09,1.12,0.66"/>
<path class="st26" d="M43.22,20.71c0-0.28,0.12-0.51,0.37-0.66c0.49-0.3,1-0.58,1.51-0.86c0.36-0.19,0.81-0.08,1.01,0.27
	c0.21,0.36,0.12,0.8-0.25,1.03c-0.51,0.31-1.03,0.61-1.55,0.9C43.81,21.65,43.22,21.27,43.22,20.71z"/>
<path class="st20" d="M18.76,13.29c-0.02,0.34-0.22,0.64-0.55,0.73c-0.33,0.11-0.67,0-0.85-0.3c-0.31-0.52-0.63-1.05-0.91-1.58
	c-0.19-0.36-0.04-0.79,0.3-0.98c0.34-0.19,0.8-0.1,1.01,0.25c0.31,0.52,0.61,1.04,0.9,1.57C18.71,13.06,18.73,13.18,18.76,13.29z"/>
<path class="st20" d="M28.52,9.08c0,0.3,0.01,0.6,0,0.9c-0.02,0.39-0.31,0.69-0.67,0.72c-0.4,0.03-0.73-0.21-0.82-0.58
	c-0.01-0.08-0.01-0.14-0.01-0.21c0-0.54,0-1.09,0-1.63c0-0.46,0.31-0.79,0.75-0.79s0.76,0.31,0.76,0.78
	C28.53,8.53,28.52,8.8,28.52,9.08z"/>
<path class="st26" d="M28.55,47.92c0,0.28,0,0.57,0,0.84c0,0.43-0.31,0.75-0.73,0.76c-0.43,0-0.76-0.3-0.78-0.75
	c-0.01-0.6-0.01-1.18,0-1.78c0-0.39,0.36-0.72,0.73-0.72c0.4,0,0.75,0.3,0.76,0.7c0.02,0.15,0,0.31,0.02,0.46
	C28.55,47.61,28.55,47.76,28.55,47.92z"/>
<circle class="st27" cx="27.77" cy="28.74" r="22.93"/>
</svg>
