<svg id="Layer_1" data-name="Layer 1" xmlns="http://www.w3.org/2000/svg" viewBox="0 0 563.69 468.78"><defs><style>.cls-1{fill:#fbad18;}.cls-2{fill:#ffcb05;}.cls-10,.cls-14,.cls-15,.cls-3,.cls-5,.cls-8{fill:none;stroke-linecap:round;stroke-miterlimit:10;}.cls-3{stroke:#108ab2;stroke-width:6.16px;}.cls-4{fill:#a1cbec;}.cls-14,.cls-5{stroke:#0a8ab2;}.cls-5{stroke-width:6.8px;}.cls-6{fill:#00a0cc;}.cls-7{fill:#fff;}.cls-15,.cls-8{stroke:#0d3f60;}.cls-8{stroke-width:3.45px;}.cls-9{fill:#0d3f60;}.cls-10{stroke:#231f20;stroke-width:1.5px;}.cls-11{fill:#5652a2;}.cls-12{fill:#4f4a47;}.cls-13{fill:#56c4cf;}.cls-14{stroke-width:7.73px;}.cls-15{stroke-width:3.66px;}</style></defs><polyline class="cls-1" points="227.42 430.99 214.63 430.99 214.63 375.92 111.69 375.92 111.69 430.99 98.63 430.99 98.63 370.78 98.85 370.78 98.85 359.04 227.42 359.04 227.42 370.94"/><rect class="cls-2" x="88.73" y="332.85" width="149.64" height="29.92" rx="9.04"/><polyline class="cls-1" points="465.5 431.83 452.72 431.83 452.72 376.76 349.78 376.76 349.78 431.83 336.72 431.83 336.72 371.62 336.93 371.62 336.93 359.88 465.5 359.88 465.5 371.79"/><rect class="cls-2" x="326.82" y="333.69" width="149.64" height="29.92" rx="9.04"/><path class="cls-3" d="M329.78,268.61S317.71,287.39,284,281.68"/><path class="cls-4" d="M283.59,273.32c2.1,1.17,3.35,4,2.92,7.24-.56,4.09-3.63,7.26-6.84,7.06l-7.9-.51-.17,0s-.06,0-.08,0l-10.68-.68c-.84-.05-1.4-1-1.26-2a2,2,0,0,1,1.79-1.85l5.81.37a7.71,7.71,0,0,1-.28-1.63l-7-.45a1.64,1.64,0,0,1-1.26-2,2,2,0,0,1,1.78-1.85l7,.45a9.6,9.6,0,0,1,.64-1.42l-6-.38c-.84-.06-1.4-1-1.26-2a2,2,0,0,1,1.79-1.85l10,.64a4.62,4.62,0,0,1,1-.08l-1.81-.87a2,2,0,0,1-.69-2.49h0a1.63,1.63,0,0,1,2.08-1.17"/><path class="cls-5" d="M280.14,172.6s-5.11,28.29-13,36.49-30.29,8.28-30.29,8.28"/><path class="cls-4" d="M310.24,222.84a10.21,10.21,0,0,0-2.4,11.11c2,5.27,7.42,8.14,12.16,6.39L331.71,236l.24-.1.13,0,15.8-5.84a2.68,2.68,0,0,0-1.85-5l-8.6,3.18a10.79,10.79,0,0,0,0-2.34l10.32-3.81a2.69,2.69,0,0,0-1.85-5l-10.32,3.81a11.09,11.09,0,0,0-1.34-1.62l8.87-3.27a2.69,2.69,0,0,0-1.85-5l-14.77,5.46a8.05,8.05,0,0,0-1.51.35l2.47-2a2.74,2.74,0,0,0,.35-3.68h0a2.38,2.38,0,0,0-3.43-.63"/><rect class="cls-6" x="92.11" y="20.39" width="163.24" height="328.47" rx="59.41" transform="translate(29.63 -23.95) rotate(8.62)"/><path class="cls-7" d="M154.33,98.59a16.17,16.17,0,0,1,32,4.85"/><path class="cls-7" d="M211.08,107.19a16.17,16.17,0,0,1,32,4.85"/><line class="cls-8" x1="157.18" y1="72.88" x2="184.58" y2="73.36"/><line class="cls-8" x1="250.62" y1="87.07" x2="222.31" y2="78.35"/><path class="cls-9" d="M168.45,100.73a7,7,0,0,1,13.84,2.1"/><path class="cls-9" d="M225.2,109.33a7,7,0,0,1,13.84,2.1"/><ellipse class="cls-10" cx="167.5" cy="95.27" rx="15.79" ry="23.21" transform="translate(49.82 247.85) rotate(-81.99)"/><ellipse class="cls-10" cx="230.38" cy="104.22" rx="15.79" ry="23.21" transform="translate(95.08 317.83) rotate(-81.99)"/><path class="cls-10" d="M190.27,100.06s11-10.56,17.33,2.59"/><polyline class="cls-6" points="142.55 337.9 166.97 424.67 179.08 422.71 174.9 332.94"/><polygon class="cls-11" points="180.35 433.96 169.94 435.65 159.11 397.86 179.58 394.55 180.35 433.96"/><path class="cls-12" d="M203.94,430.64a18.21,18.21,0,1,0-36,5.83"/><polyline class="cls-6" points="188.94 330.84 213.35 417.62 225.46 415.65 221.28 325.88"/><polygon class="cls-11" points="225.69 427.46 215.28 429.14 204.45 391.36 224.93 388.04 225.69 427.46"/><path class="cls-12" d="M250.81,424.38a18.22,18.22,0,0,0-36,5.83"/><polyline class="cls-6" points="351.81 400.82 360.84 325.95 383.82 331.06 357.7 404.35 353.33 397.7"/><polygon class="cls-13" points="372.13 361.92 357 358.56 351.2 402.27 358.9 403.98 372.13 361.92"/><path class="cls-12" d="M334.11,399.11c1.26-5.68,7.71-9.08,14.4-7.59s11.1,7.29,9.84,13"/><polyline class="cls-6" points="381.31 407.37 390.35 332.5 413.33 337.61 387.2 410.9 382.84 404.26"/><polygon class="cls-13" points="401.63 368.47 386.5 365.11 380.7 408.82 388.4 410.53 401.63 368.47"/><path class="cls-12" d="M363.62,405.66c1.26-5.68,7.7-9.08,14.4-7.59s11.09,7.29,9.83,13"/><path class="cls-14" d="M114.83,205.72s-1.69,44.41,15.36,57.4S177,280.65,177,280.65"/><path class="cls-4" d="M204.75,295a2.68,2.68,0,0,0,1-5.24l-9-1.69a10.72,10.72,0,0,0,1.19-2l10.8,2a2.69,2.69,0,0,0,1-5.25l-10.81-2a10.88,10.88,0,0,0-.31-2.07l9.28,1.74a2.68,2.68,0,0,0,1-5.24l-15.48-2.91a8.15,8.15,0,0,0-1.47-.48l3.15-.44a2.75,2.75,0,0,0,2.19-3h0a2.38,2.38,0,0,0-2.63-2.3l-16.84,2.38a2.49,2.49,0,0,0-1.61,1,10.22,10.22,0,0,0-7.77,8.3c-1,5.52,2.18,10.8,7.15,11.73l12.27,2.3.26,0,.13,0Z"/><path class="cls-4" d="M301.73,147.19a2.68,2.68,0,0,0-5-1.84L293.56,154a11.46,11.46,0,0,0-1.8-1.5l3.79-10.32a2.68,2.68,0,0,0-5-1.84l-3.79,10.32a10.55,10.55,0,0,0-2.1,0l3.26-8.87a2.68,2.68,0,0,0-5-1.84l-5.43,14.78a8.16,8.16,0,0,0-.71,1.38l.08-3.19a2.75,2.75,0,0,0-2.57-2.65h0a2.39,2.39,0,0,0-2.71,2.21l-.44,17a2.52,2.52,0,0,0,.71,1.75,10.24,10.24,0,0,0,6.9,9c5.27,1.94,11-.36,12.75-5.11l4.3-11.71c0-.09.05-.17.08-.25a1.33,1.33,0,0,0,.06-.12Z"/><path class="cls-9" d="M215.26,122.92s-5.65,15.88-22.56,12.9-16.17-18.73-16.17-18.73Z"/><ellipse class="cls-6" cx="404.31" cy="238.62" rx="103.48" ry="102.69"/><path class="cls-7" d="M324.43,204a16.92,16.92,0,0,1,33.74,2.71"/><path class="cls-7" d="M374.65,208a16.92,16.92,0,1,1,33.74,2.71"/><path class="cls-15" d="M329.69,181s5.32-9.86,16-3.55"/><path class="cls-15" d="M408.4,186.34S403.11,176,392,181.56"/><path class="cls-9" d="M386.6,220.39s-4.73,13.94-23.82,12.26S343,217.42,343,217.42Z"/><path class="cls-9" d="M336.5,197.36a10,10,0,0,0,7.27-9.83c-.39-.06-.78-.12-1.18-.15A16.89,16.89,0,0,0,327,195.13,10,10,0,0,0,336.5,197.36Z"/><path class="cls-9" d="M386,202.41a10,10,0,0,0,7.27-9.84c-.4,0-.79-.12-1.19-.15a16.93,16.93,0,0,0-15.61,7.75A10.06,10.06,0,0,0,386,202.41Z"/><path class="cls-3" d="M468.21,272.35s22.15,10.85,12.24,54.26"/><path class="cls-4" d="M471.93,324.06c1.26-2.06,4.15-3.2,7.35-2.65,4.07.71,7.12,3.9,6.8,7.1l-.81,7.88a1,1,0,0,1,0,.17s0,.05,0,.08l-1.09,10.64a1.66,1.66,0,0,1-2.09,1.19,2,2,0,0,1-1.78-1.86l.6-5.79a8.86,8.86,0,0,1-1.65.22l-.71,6.94c-.08.84-1,1.37-2.09,1.19a1.94,1.94,0,0,1-1.77-1.86l.71-6.94a10.12,10.12,0,0,1-1.4-.69l-.61,6c-.08.83-1,1.36-2.09,1.18a1.94,1.94,0,0,1-1.77-1.86l1-9.94a4.79,4.79,0,0,1,0-1l-.93,1.78a2,2,0,0,1-2.52.59h0a1.63,1.63,0,0,1-1.09-2.12"/></svg>