<?xml version="1.0" encoding="utf-8"?>
<!-- Generator: Adobe Illustrator 24.1.0, SVG Export Plug-In . SVG Version: 6.00 Build 0)  -->
<svg version="1.1" id="Layer_1" xmlns="http://www.w3.org/2000/svg" xmlns:xlink="http://www.w3.org/1999/xlink" x="0px" y="0px"
	 viewBox="0 0 58.54 57.47" style="enable-background:new 0 0 58.54 57.47;" xml:space="preserve">
<style type="text/css">
	.st0{filter:url(#Adobe_OpacityMaskFilter);}
	.st1{mask:url(#SVGID_1_);}
	.st2{clip-path:url(#SVGID_3_);fill:#FFFFFF;}
	.st3{clip-path:url(#SVGID_3_);}
	.st4{clip-path:url(#SVGID_5_);}
	.st5{clip-path:url(#SVGID_3_);fill:#0D4060;}
	.st6{filter:url(#Adobe_OpacityMaskFilter_1_);}
	.st7{clip-path:url(#SVGID_7_);fill:#FFFFFF;}
	.st8{filter:url(#Adobe_OpacityMaskFilter_2_);}
	.st9{clip-path:url(#SVGID_3_);mask:url(#SVGID_8_);}
	.st10{clip-path:url(#SVGID_3_);fill:#FFD943;}
	.st11{clip-path:url(#SVGID_3_);fill:#FFAC10;}
	.st12{clip-path:url(#SVGID_3_);fill:#0D4161;}
	.st13{clip-path:url(#SVGID_3_);fill:#F5F5F5;}
	.st14{clip-path:url(#SVGID_28_);fill:#0D4161;}
	.st15{clip-path:url(#SVGID_3_);fill:#0D3F60;}
	.st16{clip-path:url(#SVGID_30_);fill:#0D3F60;}
	.st17{clip-path:url(#SVGID_36_);fill:#0D4161;}
	.st18{clip-path:url(#SVGID_38_);fill:#0D4161;}
	.st19{clip-path:url(#SVGID_40_);fill:#FFFFFF;}
	.st20{fill:#0D4161;}
	.st21{fill:#FFFFFF;}
	.st22{clip-path:url(#SVGID_42_);fill:#FFFFFF;}
	.st23{fill:none;stroke:#0D4161;stroke-width:2.7409;stroke-miterlimit:10;}
	.st24{fill:none;stroke:#0D4161;stroke-width:2.2449;stroke-miterlimit:10;}
	.st25{fill:none;stroke:#0D4161;stroke-width:2.5;stroke-linecap:round;stroke-miterlimit:10;}
	.st26{fill:#0D3F60;}
	.st27{fill:none;stroke:#0D3F60;stroke-width:1.9083;stroke-miterlimit:10;}
</style>
<defs>
	<filter id="Adobe_OpacityMaskFilter" filterUnits="userSpaceOnUse" x="-33730.25" y="-32106.72" width="65536" height="65536">
		<feColorMatrix  type="matrix" values="1 0 0 0 0  0 1 0 0 0  0 0 1 0 0  0 0 0 1 0"/>
	</filter>
</defs>
<mask maskUnits="userSpaceOnUse" x="-33730.25" y="-32106.72" width="65536" height="65536" id="SVGID_1_">
</mask>
<g class="st1">
	<g>
		<defs>
			<rect id="SVGID_2_" x="-33730.25" y="-32106.72" width="65536" height="65536"/>
		</defs>
		<clipPath id="SVGID_3_">
			<use xlink:href="#SVGID_2_"  style="overflow:visible;"/>
		</clipPath>
		<defs>
			
				<filter id="Adobe_OpacityMaskFilter_1_" filterUnits="userSpaceOnUse" x="-33730.25" y="-32106.72" width="65536" height="65536">
				<feColorMatrix  type="matrix" values="1 0 0 0 0  0 1 0 0 0  0 0 1 0 0  0 0 0 1 0"/>
			</filter>
		</defs>
		<mask maskUnits="userSpaceOnUse" x="-33730.25" y="-32106.72" width="65536" height="65536" id="SVGID_1_">
		</mask>
		<g class="st3">
			<g>
				<defs>
					<rect id="SVGID_9_" x="-33730.25" y="-32106.72" width="65536" height="65536"/>
				</defs>
				<clipPath id="SVGID_5_">
					<use xlink:href="#SVGID_9_"  style="overflow:visible;"/>
				</clipPath>
			</g>
		</g>
	</g>
</g>
<path class="st20" d="M33.55,23.38c0,0.01,0,0.01,0,0.02"/>
<polygon class="st20" points="35.74,20.76 36.52,21.37 35.74,20.75 "/>
<path class="st20" d="M30.51,13.16L30.51,13.16c-1.59,0.81-3,1.97-4.28,2.89c-3.04,2.19-5.93,4.41-8.99,6.49l0,0 M17.24,22.54
	c-0.59,0.4-1.56,0.67-2.48,0.72v0c-2.24,0.13-4.46,0.04-6.83,0.04h-1v1c0,2.67-0.1,5.62-0.19,8.58c-0.1,2.95-0.2,5.9-0.2,8.57v1h1
	c2.05,0,5.26,0.07,7.27-0.02c0.68-0.03,1.14,0.05,1.52,0.22c0.38,0.17,0.74,0.46,1.17,0.97c2.3,2.8,4.47,4.41,7.38,5.21
	c2.69,0.74,5.96,0.75,10.38,0.56c0.26,0.07,0.53,0.11,0.81,0.11h6.98c2.09,0,3.5-1.97,3.51-4v0c0-0.7-0.18-1.39-0.49-2h0.51
	c2.2,0,3.98-1.8,3.98-4c0-1.32-0.65-2.49-1.64-3.22c1.53-0.52,2.64-1.96,2.64-3.66v-0.23c0-1.68-1.08-3.11-2.58-3.65
	c0.97-0.74,1.58-1.94,1.58-3.24c0-2.13-1.64-4-3.79-4h-9.42c-0.28,0-0.56,0.04-0.82,0.1c0.03-0.09,0.05-0.17,0.07-0.24
	c0.01-0.04,0.02-0.05,0.02-0.07c1.54-2.01,3.29-4.09,4.72-6.32c0,0,1.67-1.89,1.51-5.15C42.68,6.53,40,5.16,39.05,5.53
	c-0.95,0.37-1.86,0.9-2.25,1.55c0,0,0,0,0,0c-1.46,2.59-3.45,4.64-6.29,6.08 M37.33,23.48h9.42c0.92,0,1.79,0.83,1.79,2
	c0,1.17-0.88,2-1.79,2h-9.42c-0.92,0-1.79-0.83-1.79-2S36.42,23.48,37.33,23.48z M33.01,47.45c-3.28,0.09-5.67-0.03-7.62-0.56
	c-2.39-0.66-4.23-1.96-6.36-4.55c-0.55-0.67-1.15-1.19-1.9-1.53c-0.74-0.33-1.54-0.43-2.42-0.39v0c-1.66,0.08-4.14,0.04-6.16,0.03
	c0.02-2.36,0.1-4.91,0.19-7.51c0.08-2.59,0.17-5.2,0.19-7.64c1.96,0.02,3.97,0.06,5.95-0.05h0c1.13-0.07,2.49-0.38,3.49-1.06l0,0
	c3.08-2.1,6.06-4.38,9.04-6.52c1.42-1.02,2.61-2.01,4.02-2.73l0,0c2.83-1.44,4.91-3.42,6.48-5.84c0,0,1.13-1.93,1.55-1.57
	c0.42,0.37,1.66,1.34,1.34,3.08c-0.27,1.49-0.31,1.88-0.63,2.46c-1.44,2.44-3.35,4.62-5.21,7.06h0c0,0,0,0,0,0c0,0,0,0.01-0.01,0.01
	l0,0c-0.08,0.1-0.12,0.2-0.13,0.22c-0.02,0.05-0.04,0.09-0.05,0.13c-0.03,0.07-0.05,0.16-0.08,0.24c-0.05,0.17-0.12,0.39-0.18,0.64
	c-0.14,0.49-0.31,1.15-0.47,1.77c-0.02,0.09-0.05,0.17-0.07,0.26c-0.28,1.3-1.53,5.09-2.28,6.83c-1.52,3.54-4.05,6.84-8.22,7.24
	l0.19,1.99c4.41-0.42,7.2-3.4,8.94-6.54c0.12,1.33,0.9,2.46,2.02,3.07c-1.22,0.69-2.06,1.98-2.06,3.48c0,1.15,0.5,2.19,1.29,2.92
	c-0.8,0.77-1.29,1.91-1.29,3.08C32.54,46.17,32.72,46.85,33.01,47.45z M35.12,28.72c-0.32,0.12-0.63,0.26-0.91,0.46
	c0.12-0.34,0.23-0.68,0.33-1.01C34.72,28.37,34.91,28.56,35.12,28.72z M43.03,47.48h-6.98c-0.08,0-0.15-0.01-0.23-0.03l-0.01-0.11
	c-0.09,0-0.17,0.01-0.26,0.01c-0.53-0.26-1.01-0.91-1.01-1.87c0-1.27,0.84-2,1.51-2h6.98c0.67,0,1.51,0.72,1.51,2
	C44.54,46.76,43.7,47.48,43.03,47.48z M46.56,41.48H36.52c-1.08,0-1.98-0.9-1.98-2s0.9-2,1.98-2h10.04c1.08,0,1.98,0.9,1.98,2
	C48.54,40.58,47.64,41.48,46.56,41.48z M49.54,32.59c0,1.04-0.85,1.89-1.88,1.89H36.42c-1.03,0-1.88-0.85-1.88-1.89v-0.23
	c0-1.04,0.85-1.89,1.88-1.89h11.24c1.03,0,1.88,0.85,1.88,1.89V32.59z"/>
</svg>
