<svg id="Layer_1" data-name="Layer 1" xmlns="http://www.w3.org/2000/svg" viewBox="0 0 563.69 468.78"><defs><style>.cls-1{fill:#fbad18;}.cls-2{fill:#ffcb05;}.cls-3{fill:#00a0cc;}.cls-4{fill:#00a1cd;}.cls-5{fill:#5652a3;}.cls-6{fill:#504b48;}.cls-10,.cls-7,.cls-8{fill:none;stroke-linecap:round;stroke-miterlimit:10;}.cls-7,.cls-8{stroke:#0d4060;}.cls-7{stroke-width:1.39px;}.cls-8{stroke-width:3px;}.cls-9{fill:#0d4060;}.cls-10{stroke:#0f8ab2;stroke-width:7.88px;}.cls-11{fill:#a2cced;}</style></defs><polygon class="cls-1" points="211.71 417.33 225.65 417.33 225.65 357.3 337.85 357.3 337.85 417.33 352.09 417.33 352.09 351.7 351.86 351.7 351.86 338.9 211.71 338.9 211.71 351.87 211.71 417.33"/><path class="cls-2" d="M216.09,310.34H346.57a16.32,16.32,0,0,1,16.32,16.31h0A16.32,16.32,0,0,1,346.57,343H216.09a16.31,16.31,0,0,1-16.32-16.31h0A16.31,16.31,0,0,1,216.09,310.34Z"/><path class="cls-3" d="M282.15,44.24c-53.77-.33-97.45,12.83-97.8,70.21-.09,14.55,1.74,29.23,3.66,43.63,2.14,16,6.49,31.92,10.54,47.53,1.78,6.86,3.69,12.88,2.95,20.07a54.73,54.73,0,0,1-5.24,18.47c-7.6,15.29-9.69,31.06-4.23,47.47a44.16,44.16,0,0,0,21,25c20.64,11.4,28.81,10.87,71.09,11.13,25.08.15,51.24-1.63,71.91-17.78a55.22,55.22,0,0,0,18.2-26c2.05-6.08,2.31-8.72,3.13-15,1.14-8.73-1.61-19.9-4.82-27.85-4.81-11.92-9.44-27.82-6.14-40.83,7.67-30.35,12.61-70.36,12.7-85.76.35-57.38-43.16-69.92-96.93-70.24"/><polyline class="cls-4" points="239.32 316.83 253.49 395.47 268.63 395.75 279.75 317.82"/><polygon class="cls-5" points="267.13 414.71 256.98 414.53 248.14 365.04 273.99 365.51 267.13 414.71"/><polyline class="cls-4" points="281.39 316.1 295.56 394.74 310.7 395.01 321.82 317.09"/><polygon class="cls-5" points="309.19 413.98 299.05 413.8 290.21 364.31 316.05 364.78 309.19 413.98"/><path class="cls-6" d="M242.2,417.21c0-10.74,8.23-19.45,18.33-19.45s18.39,8.73,18.36,19.48"/><path class="cls-6" d="M286,417.21c0-10.74,8.23-19.45,18.34-19.45s18.38,8.73,18.35,19.48"/><path class="cls-7" d="M275.49,120.63c0,6.29-6.7,11.4-14.95,11.4s-15-5.1-15-11.4"/><path class="cls-7" d="M318.38,120.63c0,6.29-6.69,11.4-14.94,11.4s-15-5.1-15-11.4"/><path class="cls-8" d="M296.39,105c15-6.16,21.89,4.28,21.89,4.28"/><path class="cls-8" d="M267.59,104.79c-15.87-6.14-21.2,4.49-21.2,4.49"/><path class="cls-9" d="M305.93,148.05s-1.56,6.1-21.46,6.3-24-6.3-24-6.3Z"/><path class="cls-10" d="M356.46,240.44s27.78,58.18-26.78,67.27"/><path class="cls-11" d="M303.69,330.61a2.39,2.39,0,0,1-2.91-1.73,1.16,1.16,0,0,1,0-.18,2.83,2.83,0,0,1,1.39-3.53l8.34-3a10.7,10.7,0,0,1-1.36-2l-10,3.67a2.4,2.4,0,0,1-2.93-1.71c0-.07,0-.14,0-.2a2.84,2.84,0,0,1,1.41-3.53l10-3.67a12.88,12.88,0,0,1,0-2.24l-8.58,3.14a2.42,2.42,0,0,1-2.93-1.77l0-.14a2.87,2.87,0,0,1,1.41-3.53l14.3-5.19a7.73,7.73,0,0,1,1.33-.71l-3,0a2.78,2.78,0,0,1-2.42-2.85h0a2.48,2.48,0,0,1,2.12-2.78h.08l16.22.21a2.21,2.21,0,0,1,1.64.81,10,10,0,0,1,8.34,7.71c1.64,5.68-.77,11.69-5.36,13.36l-11.34,4.13h-.35Z"/><path class="cls-10" d="M209.9,242.56s-27.78,59.57,26.78,68.65"/><path class="cls-11" d="M262.67,334.12a2.41,2.41,0,0,0,2.92-1.74c0-.06,0-.12,0-.18a2.83,2.83,0,0,0-1.4-3.52l-8.34-3a10.68,10.68,0,0,0,1.37-2l10,3.66a2.4,2.4,0,0,0,2.93-1.71,1.18,1.18,0,0,0,0-.2,2.82,2.82,0,0,0-1.41-3.52l-10-3.67a14,14,0,0,0,0-2.24l8.59,3.13a2.41,2.41,0,0,0,2.92-1.76l0-.15a2.86,2.86,0,0,0-1.41-3.53l-14.29-5.19a7.42,7.42,0,0,0-1.34-.7l3,0a2.77,2.77,0,0,0,2.41-2.85h0a2.47,2.47,0,0,0-2.12-2.77h-.08l-16.22.2a2.24,2.24,0,0,0-1.64.82,10,10,0,0,0-8.34,7.7c-1.63,5.69.77,11.7,5.37,13.37l11.33,4.12h.35Z"/></svg>