<?xml version="1.0" encoding="utf-8"?>
<!-- Generator: Adobe Illustrator 24.1.0, SVG Export Plug-In . SVG Version: 6.00 Build 0)  -->
<svg version="1.1" id="Layer_1" xmlns="http://www.w3.org/2000/svg" xmlns:xlink="http://www.w3.org/1999/xlink" x="0px" y="0px"
	 viewBox="0 0 563.7 468.8" style="enable-background:new 0 0 563.7 468.8;" xml:space="preserve">
<style type="text/css">
	.st0{fill:none;stroke:#108AB2;stroke-width:7.71;stroke-linecap:round;stroke-miterlimit:10;}
	.st1{fill:#A1CBEC;}
	.st2{fill:none;stroke:#87B4D3;stroke-width:1.65;stroke-miterlimit:10;}
	.st3{fill:#00A0CC;}
	.st4{fill:#56C4CF;}
	.st5{fill:#4F4A47;}
	.st6{fill:#0D3F60;}
	.st7{fill:none;stroke:#0D3F60;stroke-width:2.25;stroke-linecap:round;stroke-miterlimit:10;}
	.st8{fill:none;stroke:#231F20;stroke-width:1.63;stroke-linecap:round;stroke-miterlimit:10;}
	.st9{fill:#FFFFFF;}
	.st10{fill:none;stroke:#0A8AB2;stroke-width:5.53;stroke-linecap:round;stroke-miterlimit:10;}
	.st11{fill:#FFCB05;}
	.st12{fill:#969E9B;}
	.st13{fill:#FBAD18;}
	.st14{fill:#696D6E;}
	.st15{fill:#5652A2;}
	.st16{fill:none;stroke:#0D3F60;stroke-width:3;stroke-linecap:round;stroke-miterlimit:10;}
</style>
<path class="st0" d="M313.3,231.1c0,0-18.8,18.9-67-12.1"/>
<path class="st1" d="M256.3,218.2c0.9-3.4-2.9-7.2-4.6-9.6c-3.5-4.8-5.8-9.6-5-15.5c0.3-1.2,0.2-2.5-0.2-3.7c-0.9-1.9-3.7-2-5.4-0.8
	c-2.1,1.5-3.2,4.5-3.6,7c-0.1,1-0.5,6.6,0.8,7.2c-2.4-1-4.9-1.9-7.4-2.6c-4.8-1.3-7.4-2-8.9-0.6c-1.3,1.4-1.6,3.5-0.8,5.3
	c0.5,1,1.2,1.8,2.1,2.5c-2.3,1.5-3,4.5-1.5,6.8c0,0,0,0,0,0.1c0.4,0.6,0.9,1.1,1.6,1.5c-1,0.5-1.6,1.4-1.9,2.5
	c-0.2,1.3,0.2,2.5,1,3.5c3.3,4.8,14.6,6.3,18.4,6.7c3.3,0.4,6.7,0.5,10,0.4c1.5,0,2.7-1,3.1-2.4
	C254.9,223.7,255.6,220.9,256.3,218.2z"/>
<path class="st2" d="M237.2,204.2c0,0,2.7,3.7,1,5.1s-14.7-2-14.7-2"/>
<path class="st2" d="M236.7,210.1c0,0,6.1,5.2,1.4,7.5c-2,1-14.7-2-14.7-2"/>
<path class="st2" d="M236.1,218c0,0,2.7,3.7,1,5.1s-11.5-1.1-11.5-1.1"/>
<path class="st3" d="M272.9,250.3c-1.5-53.7,22.8-106.5,55.1-144.6c83.2-98.3,182.6,37.5,185.5,142.4c2.2,77.4-56.5,97.9-115.6,99.5
	S275,327.8,272.9,250.3z"/>
<polyline class="st3" points="118.4,343.2 126.6,409.6 134.8,409.6 143.4,334.9 "/>
<polygon class="st4" points="134.2,418.1 126.5,418.1 123.4,381.5 138.3,381.5 "/>
<path class="st5" d="M126.6,419.1c0-6.6,5.4-12,12-12c6.6,0,12,5.4,12,12"/>
<path class="st3" d="M155.2,153l-15-2.8c-27.4-5.1-53.8,13-58.9,40.4l-0.7,3.5c-0.9,3.4-1.7,6.9-2.3,10.3l-17.2,92.2
	c-5.1,27.4,13,53.8,40.4,58.9c0,0,0,0,0,0l15,2.8c27.4,5.1,53.8-13,58.9-40.4l0.6-3.5c0.9-3.4,1.7-6.9,2.3-10.3l17.2-92.2
	C200.8,184.6,182.7,158.1,155.2,153C155.3,153,155.3,153,155.2,153z"/>
<path class="st6" d="M160,233.5c0,0-3.4,6-14.5,3.8s-10.9-8.4-10.9-8.4L160,233.5z"/>
<path class="st7" d="M115,193.6c0,0,5.2-7.1,12.8-0.9"/>
<path class="st7" d="M188.3,207.1c0,0-1.3-8.4-10.6-5.4"/>
<path class="st8" d="M142.9,208.9c-2.3,12.5-14.4,20.8-26.9,18.5S95.1,213,97.5,200.5c2.3-12.5,14.3-20.8,26.9-18.5
	C136.9,184.3,145.2,196.3,142.9,208.9C142.9,208.9,142.9,208.9,142.9,208.9z"/>
<path class="st8" d="M203.7,220.1c-2.3,12.5-14.3,20.8-26.9,18.5c-12.5-2.3-20.8-14.3-18.5-26.9c2.3-12.5,14.3-20.8,26.9-18.5
	c0,0,0,0,0,0C197.7,195.6,206,207.6,203.7,220.1z"/>
<path class="st8" d="M143.3,206.2c0,0,9.3-8.9,14.8,2.7"/>
<path class="st9" d="M161.2,218.5c1.2-6.9,8-11.4,15.4-10.2s12.3,7.8,11.2,14.7"/>
<path class="st9" d="M109.9,209.7c1.2-6.9,8.1-11.4,15.4-10.2c7.4,1.2,12.4,7.8,11.3,14.7"/>
<path class="st6" d="M112.3,203.6l-6.7-4l5.5,6.1c-0.1,0.3-0.2,0.5-0.3,0.8l-6.1-1.8l5.5,3.5c-0.1,0.4-0.2,0.9-0.3,1.3
	c5.1-10,11.9-10.2,13.9-10.1C117.7,198.5,114.2,200.9,112.3,203.6"/>
<path class="st6" d="M194.3,219.8l-6.3-0.3c0-0.3,0-0.6-0.1-0.9l7.2-3.9l-7.6,1.6c-0.9-3.2-3.4-6.7-9.5-7.9c1.9,0.5,8.3,3,9.8,14.1
	c0.1-0.4,0.1-0.9,0.1-1.3L194.3,219.8z"/>
<path class="st10" d="M160.8,303.9c0,0,18.4,4.9,23.8-2.2s-3-22.2-3-22.2"/>
<polyline class="st3" points="87.1,343 95.2,409.6 103.4,409.6 110.2,343.2 "/>
<polygon class="st4" points="103.4,418.1 95.7,418.1 91.6,381.5 106.5,381.5 "/>
<path class="st5" d="M95.1,419.1c0-6.6,5.4-12,12-12c6.6,0,12,5.4,12,12"/>
<path class="st11" d="M164.1,431.7c-0.8-4.5-1.7-8.9-2.5-13.4c-0.8-4.1-1.5-8.3-2.3-12.5c-0.1-0.4-0.1-0.8-0.5-1.1
	c0.4-0.3,0.9,0.1,1.3-0.2c2-1.4,4.5-1.6,6.6-2.7c3.1-1.5,6.5-2.3,9.7-3.7c1-0.5,2.1-0.9,3.1-1.2c1.8-0.4,3.5-1,5.2-1.8
	c2.5-1.1,5.2-1.8,7.7-3c1.7-0.8,3.6-1,5.2-1.8c2.1-1.1,4.5-1.6,6.7-2.6c1.3,2.5,2.7,4.9,4.3,7.3c3.3,5.4,6.6,10.8,9.9,16.1
	c0.5,0.8,0.6,1.3-0.5,1.7c-3.6,1.2-7.2,2.6-10.8,4L164.1,431.7z"/>
<path class="st12" d="M128,247.9c1.3,0,2.6,0.8,3,2.1c2.2,5.9,9.8,28,12,33.8c3.2,8.4,19.9,53.8,23,62.2c3.4,8.9,6.6,17.9,10,26.8
	c1.4,3.7,2.8,7.4,4.2,11.1c0.4,1,0.7,1.3,1.9,0.9c4.9-2,9.9-3.8,14.9-5.7c4.3-1.7,6.9-0.5,8.3,3.9c0.1,0.4,0.5,0.8,0.3,1.3
	c0.4,1.8,0.2,2.4-1.4,3.5c-1.1,0.8-2.9,1-4.2,1.5c-1.6,0.6-3.3,1.3-5,1.9l-10.6,4l-13,4.8c-3.8,1.4-7.5,2.6-11.2,4.3
	c-1.9,0.9-3.8,0.9-4.8-1c-0.4-0.9-0.8-1.8-1.1-2.8c-1-2.6,0.4-5.5,3-6.5c0.1,0,0.2-0.1,0.3-0.1c5.4-2,10.8-4.1,16.2-6.1
	c1-0.4,1.1-0.8,0.7-1.7c-4-10.6-8-21.1-11.9-31.7c-4.3-11.5-22.1-59.9-26.4-71.3c-1.8-4.9-9.1-26-10.9-30.9c-0.7-1.6,0-3.4,1.5-4.1
	C127.2,248,127.6,247.9,128,247.9z"/>
<path class="st1" d="M138.8,310.4c-1-0.1-1.7-1-1.6-2c0.1-0.8,0.8-1.5,1.6-1.6h6.1c-0.2-0.5-0.4-1-0.5-1.5l-7.3,0
	c-1-0.1-1.7-1-1.6-2c0.1-0.8,0.8-1.5,1.6-1.6l7.3,0c0.1-0.5,0.3-0.9,0.5-1.3l-6.3,0c-1-0.1-1.7-1-1.6-2c0.1-0.8,0.8-1.5,1.6-1.6
	l10.5,0.1c0.3-0.1,0.7-0.1,1-0.1l-2-0.7c-0.9-0.4-1.3-1.3-1.1-2.2l0,0c0.2-0.9,1-1.4,1.9-1.2c0,0,0.1,0,0.1,0l10.7,3.7
	c0.4,0.1,0.8,0.5,0.9,0.9c2.5,1.1,4.1,3.7,4,6.4c0,3.8-2.8,6.8-6.2,6.8l-8.3-0.1h-0.3L138.8,310.4z"/>
<path class="st10" d="M122.9,281.9c-36.9,33.3-44.5-16.5-44.5-16.5"/>
<path class="st1" d="M144,274.2c0.7-0.7,0.8-1.8,0.1-2.5c-0.6-0.6-1.5-0.8-2.2-0.3L137,275c-0.1-0.5-0.3-1-0.5-1.5l5.9-4.4
	c0.7-0.7,0.8-1.8,0.1-2.5c-0.6-0.6-1.5-0.8-2.2-0.3l-5.9,4.4c-0.4-0.3-0.8-0.6-1.2-0.8l5-3.8c0.7-0.7,0.8-1.8,0.1-2.5
	c-0.6-0.6-1.5-0.8-2.2-0.3l-8.4,6.3c-0.3,0.1-0.6,0.3-0.9,0.5l1.2-1.8c0.5-0.8,0.3-1.9-0.5-2.4l0,0c-0.7-0.6-1.7-0.5-2.2,0.2
	c0,0-0.1,0.1-0.1,0.1l-6.4,9.4c-0.2,0.4-0.3,0.8-0.2,1.2c-1.3,2.4-1.1,5.4,0.6,7.6c2.3,3,6.3,3.8,9,1.7l6.6-5l0.2-0.1l0.1,0
	L144,274.2z"/>
<polygon class="st13" points="211.7,415.1 202.8,400.3 209,416.1 "/>
<polygon class="st13" points="199.1,419.6 193.6,410.4 196.2,420.6 "/>
<polygon class="st13" points="176.7,427.4 170.1,412.8 173.3,428.5 "/>
<polygon class="st13" points="183.4,425 181.6,416.8 185.4,424.3 "/>
<path class="st14" d="M235.8,403.3c-0.9,0-1.9,0.2-2.7,0.5c-1.3-2.7-4.7-3.9-7.4-2.5c-2.7,1.3-3.9,4.7-2.5,7.4
	c0.5,1.1,1.4,2,2.5,2.5c-2.4,1.4-3.2,4.4-1.8,6.8c1.4,2.4,4.4,3.2,6.8,1.8c1.2-0.7,2-1.8,2.3-3.1c3.6,1.6,7.7,0,9.3-3.6
	c1.6-3.6,0-7.7-3.6-9.3C237.7,403.5,236.7,403.3,235.8,403.3L235.8,403.3z"/>
<circle class="st14" cx="247.2" cy="391.3" r="3.5"/>
<circle class="st14" cx="205.9" cy="418.1" r="3.5"/>
<polyline class="st3" points="430.7,339.8 421.7,416.3 410.8,416.3 398.3,343.5 "/>
<polyline class="st3" points="374.3,338 365.3,414.6 354.4,414.6 343.6,341.7 "/>
<polygon class="st15" points="411.2,416.3 406.1,386.4 425.8,386.4 422,413.8 "/>
<polygon class="st15" points="355.1,416.3 350,386.4 369.7,386.4 366,413.8 "/>
<path class="st5" d="M385.7,418.1c0-10.1,8.2-18.2,18.2-18.2c10.1,0,18.2,8.2,18.2,18.2"/>
<path class="st5" d="M365.9,418.1c0-10.1-8.2-18.2-18.2-18.2c-10.1,0-18.2,8.2-18.2,18.2"/>
<path class="st16" d="M388.3,127.7c0,0-5.8-11.7-18.4-4.8"/>
<path class="st16" d="M338.4,122.1c0,0-11.2-6.6-18,6.2"/>
<path class="st9" d="M346.1,151.9c0-8-6.9-14.4-15.4-14.4s-15.4,6.5-15.4,14.4"/>
<path class="st6" d="M334.4,151.9c0-3.7-3-6.7-6.7-6.7c-3.7,0-6.7,3-6.7,6.7"/>
<path class="st9" d="M360.9,151.9c0-8,6.9-14.4,15.5-14.4s15.5,6.5,15.5,14.4"/>
<path class="st6" d="M377.3,151.9c-0.1-3.7-3.3-6.6-7-6.4c-3.5,0.1-6.3,2.9-6.4,6.4"/>
<path class="st6" d="M330.4,162.1c0,0,0,18.5,21.1,18.5c17.5,0,18.9-18.5,18.9-18.5H330.4z"/>
<path class="st6" d="M128.6,199.9c-2.6,3.3-2,8,1.3,10.6c1.9,1.5,4.4,2,6.8,1.3C136.7,206.5,133.5,201.8,128.6,199.9z"/>
<path class="st6" d="M179.7,209.4c-2.6,3.3-1.9,8.1,1.4,10.6c1.9,1.5,4.4,1.9,6.7,1.3C187.7,216.1,184.5,211.4,179.7,209.4z"/>
<path class="st0" d="M443.5,221.2c0,0-11.4,47.4-80.7,14.7"/>
<path class="st1" d="M367.1,232.9c-0.2-3.5-4.9-6.1-7.2-7.8c-4.7-3.6-8.4-7.5-9.4-13.3c-0.1-1.3-0.5-2.5-1.2-3.5
	c-1.4-1.5-4.1-0.8-5.4,0.8c-1.6,2-1.7,5.3-1.3,7.7c0.1,1,1.5,6.5,2.9,6.6c-2.6-0.3-5.2-0.4-7.8-0.3c-5,0.2-7.6,0.3-8.7,2
	c-0.8,1.8-0.5,3.9,0.8,5.3c0.7,0.8,1.7,1.4,2.8,1.7c-1.7,2.1-1.4,5.2,0.6,7c0.6,0.5,1.2,0.8,1.9,1c-0.8,0.8-1.2,1.9-1.1,3
	c0.2,1.3,0.9,2.4,2,3.1c4.6,3.6,15.9,1.7,19.5,1c3.3-0.7,6.5-1.5,9.7-2.6c1.4-0.5,2.3-1.8,2.2-3.2
	C367.3,238.5,367.2,235.7,367.1,232.9z"/>
<path class="st6" d="M390.5,144.9l8.4-3.3l-7.4,5.9c0.1,0.3,0.2,0.6,0.2,1l7.3-0.9l-7,2.9c0.1,0.5,0.1,1,0.1,1.5
	c-3.9-12.4-11.7-14-13.9-14.2C385.3,137.9,388.8,141.4,390.5,144.9"/>
<path class="st6" d="M308,147.5l7.3,0.9c0.1-0.3,0.1-0.6,0.2-1l-7.5-5.8l8.4,3.3c1.7-3.5,5.2-7,12.3-7.2c-2.2,0.2-10,1.9-13.9,14.2
	c0-0.5,0-1,0.1-1.5L308,147.5z"/>
</svg>
