<?xml version="1.0" encoding="utf-8"?>
<!-- Generator: Adobe Illustrator 24.1.0, SVG Export Plug-In . SVG Version: 6.00 Build 0)  -->
<svg version="1.1" id="Layer_1" xmlns="http://www.w3.org/2000/svg" xmlns:xlink="http://www.w3.org/1999/xlink" x="0px" y="0px"
	 viewBox="0 0 63.51 57.47" style="enable-background:new 0 0 63.51 57.47;" xml:space="preserve">
<style type="text/css">
	.st0{filter:url(#Adobe_OpacityMaskFilter);}
	.st1{mask:url(#SVGID_1_);}
	.st2{clip-path:url(#SVGID_3_);fill:#FFFFFF;}
	.st3{clip-path:url(#SVGID_3_);}
	.st4{clip-path:url(#SVGID_5_);}
	.st5{clip-path:url(#SVGID_3_);fill:#0D4060;}
	.st6{filter:url(#Adobe_OpacityMaskFilter_1_);}
	.st7{clip-path:url(#SVGID_7_);fill:#FFFFFF;}
	.st8{filter:url(#Adobe_OpacityMaskFilter_2_);}
	.st9{clip-path:url(#SVGID_3_);mask:url(#SVGID_8_);}
	.st10{clip-path:url(#SVGID_3_);fill:#FFD943;}
	.st11{clip-path:url(#SVGID_3_);fill:#FFAC10;}
	.st12{clip-path:url(#SVGID_3_);fill:#0D4161;}
	.st13{clip-path:url(#SVGID_3_);fill:#F5F5F5;}
	.st14{clip-path:url(#SVGID_28_);fill:#0D4161;}
	.st15{clip-path:url(#SVGID_3_);fill:#0D3F60;}
	.st16{clip-path:url(#SVGID_30_);fill:#0D3F60;}
	.st17{clip-path:url(#SVGID_36_);fill:#0D4161;}
	.st18{clip-path:url(#SVGID_38_);fill:#0D4161;}
	.st19{clip-path:url(#SVGID_40_);fill:#FFFFFF;}
	.st20{fill:#0D4161;}
	.st21{fill:#FFFFFF;}
	.st22{clip-path:url(#SVGID_42_);fill:#FFFFFF;}
	.st23{fill:none;stroke:#0D4161;stroke-width:2.7409;stroke-miterlimit:10;}
	.st24{fill:none;stroke:#0D4161;stroke-width:2.2449;stroke-miterlimit:10;}
	.st25{fill:none;stroke:#0D4161;stroke-width:2.5;stroke-linecap:round;stroke-miterlimit:10;}
	.st26{fill:#0D3F60;}
	.st27{fill:none;stroke:#0D3F60;stroke-width:1.9083;stroke-miterlimit:10;}
</style>
<defs>
	<filter id="Adobe_OpacityMaskFilter" filterUnits="userSpaceOnUse" x="-33660.35" y="-32106.72" width="65536" height="65536">
		<feColorMatrix  type="matrix" values="1 0 0 0 0  0 1 0 0 0  0 0 1 0 0  0 0 0 1 0"/>
	</filter>
</defs>
<mask maskUnits="userSpaceOnUse" x="-33660.35" y="-32106.72" width="65536" height="65536" id="SVGID_1_">
</mask>
<g class="st1">
	<g>
		<defs>
			<rect id="SVGID_2_" x="-33660.35" y="-32106.72" width="65536" height="65536"/>
		</defs>
		<clipPath id="SVGID_3_">
			<use xlink:href="#SVGID_2_"  style="overflow:visible;"/>
		</clipPath>
		<defs>
			
				<filter id="Adobe_OpacityMaskFilter_1_" filterUnits="userSpaceOnUse" x="-33660.35" y="-32106.72" width="65536" height="65536">
				<feColorMatrix  type="matrix" values="1 0 0 0 0  0 1 0 0 0  0 0 1 0 0  0 0 0 1 0"/>
			</filter>
		</defs>
		<mask maskUnits="userSpaceOnUse" x="-33660.35" y="-32106.72" width="65536" height="65536" id="SVGID_1_">
		</mask>
		<g class="st3">
			<g>
				<defs>
					<rect id="SVGID_9_" x="-33660.35" y="-32106.72" width="65536" height="65536"/>
				</defs>
				<clipPath id="SVGID_5_">
					<use xlink:href="#SVGID_9_"  style="overflow:visible;"/>
				</clipPath>
			</g>
		</g>
	</g>
</g>
<g>
	<path class="st20" d="M32.69,29.1l0.07,0.06c0.73,0.65,1.48,0.48,1.73,0.42c0.26-0.06,0.66-0.38,0.66-0.38
		c0.11-0.11,0.17-0.16,0.22-0.21c0.05-0.05,0.11-0.11,0.21-0.22c4.2-4.37,6.21-6.44,10.4-10.83l-1.08-1.04
		c-4.19,4.38-6.2,6.45-10.4,10.83c-0.12,0.12-0.15,0.16-0.19,0.2c-0.04,0.04-0.07,0.07-0.2,0.19l0,0c-0.12,0.11-0.17,0.12-0.18,0.12
		c-0.01,0-0.03-0.02-0.08-0.07c-0.03-0.04-0.05-0.06-0.05-0.08c-0.01-0.01-0.01-0.02-0.01-0.03c0-0.01,0.02-0.05,0.05-0.1l0.89-0.97
		c1.74-1.82,2.87-2.99,4-4.16c1.13-1.17,2.25-2.34,4-4.16c0.17-0.18,0.49-0.47,0.72-0.77l0,0c0,0,0,0,0,0c0,0,0,0,0,0l0,0
		c0.39-0.5,0.64-1.07,0.65-1.69c0.01-0.63-0.24-1.22-0.71-1.72l0,0L42.88,15l-0.11,0.1l0.65-0.6c-0.48-0.51-1.07-0.84-1.74-0.84
		c-0.66,0-1.25,0.31-1.75,0.77l0,0c-0.39,0.37-0.77,0.79-1.1,1.13C33.78,20.81,28.74,26.05,23.7,31.3l0,0l0.45,0.43l0.11,0.11
		L23.7,31.3c-0.12,0.12-0.22,0.22-0.31,0.29c-0.08,0.06-0.12,0.09-0.15,0.1c-0.02-0.01-0.03-0.03-0.07-0.06
		c-0.06-0.06-0.08-0.11-0.08-0.12c0-0.01,0-0.01,0-0.02c0-0.01,0.04-0.12,0.25-0.24l0.09-0.05l0.07-0.07
		c0.1-0.11,0.21-0.22,0.31-0.32l0,0c0.17-0.17,0.34-0.35,0.51-0.52l-0.56-0.54l0.02,0.02l0.54,0.52l0.01-0.01
		c0.1-0.11,0.21-0.22,0.31-0.32l0,0c0.17-0.17,0.34-0.35,0.51-0.53l0,0c0.05-0.05,0.1-0.11,0.15-0.16c0.04-0.04,0.08-0.08,0.12-0.12
		c0,0,0,0,0.01-0.01l0,0l0.01-0.01c0.05-0.05,0.1-0.1,0.14-0.15c0.05-0.05,0.1-0.1,0.15-0.15l0.01-0.01l0.01-0.01
		c1.47-1.56,2.93-3.12,4.4-4.68c0.55-0.59,0.94-1.25,1.02-1.94c0.08-0.73-0.18-1.4-0.7-1.93c-0.52-0.54-1.17-0.84-1.91-0.75
		c-0.7,0.08-1.35,0.5-1.91,1.09c-2.83,2.94-5.67,5.87-8.48,8.84l0,0c-0.01,0.01-0.01,0.02-0.02,0.02c-0.04,0.04-0.08,0.08-0.12,0.12
		l0.01,0.01c-1.71,1.85-2.98,3.97-3.52,6.34c-0.1-0.03-0.27-0.09-0.51-0.22c-0.26-0.13-0.54-0.29-0.81-0.46
		c-0.27-0.16-0.51-0.32-0.69-0.44c-0.09-0.06-0.16-0.11-0.21-0.14c-0.02-0.01-0.03-0.02-0.04-0.02c-3.58-3.07-5.32-6.95-4.59-11.73
		c0.7-4.62,3.3-7.72,7.53-9.36v0c0.79-0.3,1.56-0.45,2.48-0.7c0.02,0,0.04,0,0.06-0.01c0.08-0.01,0.21-0.02,0.36-0.03
		c0.31-0.03,0.77-0.06,1.32-0.1c1.11-0.08,2.61-0.18,4.22-0.24c1.61-0.06,3.3-0.09,4.79-0.04c1.51,0.05,2.73,0.18,3.42,0.41
		l0.06,0.02l0.06,0.01c1.29,0.21,1.4,1.69,0.35,2.16l-0.27,0.12l-0.05,0.13c-0.03,0.01-0.06,0.02-0.11,0.02
		c-0.21,0.03-0.45,0.04-0.61,0.04c-2.98,0-5.96,0.01-8.93-0.01c-0.01,0-0.02,0-0.03,0c-0.05,0-0.12-0.01-0.2,0
		c-0.16,0.01-0.38,0.03-0.62,0.12c-0.24,0.09-0.51,0.26-0.72,0.53c-0.17,0.21-0.27,0.47-0.34,0.75l-0.07-0.01
		c-0.27,2.03-0.86,3.7-1.8,5.06c-0.94,1.35-2.25,2.44-4.02,3.26l0.63,1.36c1.99-0.92,3.52-2.16,4.63-3.77
		c1.06-1.53,1.69-3.35,2-5.44l0.05,0.01c0.02-0.18,0.07-0.26,0.09-0.28s0.05-0.04,0.08-0.06c0.04-0.02,0.09-0.02,0.13-0.02
		c0.02,0,0.03,0,0.04,0l0.04,0.01l0.06,0l0-0.75c0,0,0,0,0,0l0,0.75c2.99,0.02,5.99,0.01,8.98,0.01c0.15,0,0.51,0,0.86-0.06
		c0.17-0.03,0.39-0.08,0.59-0.17l0.46-0.06h3.99v-1.5h-2.85c0.63-1.43-0.15-3.31-2.07-3.65c-0.92-0.29-2.28-0.42-3.76-0.47
		c-1.54-0.05-3.28-0.02-4.9,0.04c-1.63,0.06-3.15,0.16-4.27,0.24c-0.56,0.04-1.02,0.08-1.33,0.1c-0.16,0.01-0.28,0.02-0.37,0.03
		c-0.04,0-0.08,0.01-0.1,0.01c-0.01,0-0.02,0-0.03,0c0,0-0.01,0-0.01,0h0c0,0,0,0,0,0l-0.07,0.01l-0.07,0.02
		c-0.79,0.22-1.8,0.43-2.69,0.77l0,0l0.25,0.66l0.02,0.05l-0.27-0.71c-4.71,1.83-7.69,5.37-8.47,10.54
		c-0.81,5.37,1.19,9.75,5.12,13.11l0.49-0.57c0,0,0,0,0,0l-0.49,0.57l0.03,0.02l0.03,0.02l0.06-0.08c-0.06,0.08-0.06,0.08-0.06,0.08
		s0,0,0,0l0,0c0,0,0,0,0.01,0c0,0,0.01,0.01,0.02,0.01c0.02,0.01,0.04,0.03,0.06,0.04c0.05,0.04,0.13,0.09,0.23,0.15
		c0.19,0.12,0.45,0.29,0.74,0.47c0.29,0.17,0.61,0.36,0.91,0.52c0.29,0.15,0.62,0.3,0.92,0.36l0.05-0.24
		c-0.1,0.91-0.11,1.85,0.02,2.83c0.78,6.06,4.6,11.07,10.45,12.17c4.15,0.77,7.89-0.32,11.02-3.26c1.42-1.33,2.74-2.81,4.06-4.17v0
		l-0.36-0.35l-0.19-0.18l0.55,0.53l10.25-10.64l-0.54-0.52l0.02,0.02l0.52,0.5h0c0.46-0.48,0.82-1.05,0.89-1.72
		c0.08-0.68-0.15-1.33-0.62-1.92l0,0l-0.48,0.39l-0.09,0.08l0.57-0.46c-0.47-0.59-1.13-0.91-1.85-0.87c-0.62,0.03-1.2,0.33-1.7,0.77
		l-0.01-0.01c-0.03,0.03-0.05,0.06-0.08,0.08c-0.03,0.03-0.07,0.06-0.1,0.09l0.01,0.01c-1.05,1.06-2.22,2.28-3.22,3.32
		c-0.33,0.35-0.49,0.51-0.57,0.59c-0.03,0.03-0.04,0.04-0.05,0.06c0,0,0,0,0,0c-0.01,0.01-0.02,0.02-0.04,0.04
		c-0.07,0.08-0.23,0.24-0.57,0.58c-0.14,0.15-0.24,0.25-0.35,0.36c-0.09,0.09-0.15,0.13-0.2,0.16c-0.02-0.01-0.03-0.02-0.07-0.06
		l0,0c-0.07-0.08-0.08-0.11-0.08-0.11c0-0.01,0-0.01,0.01-0.03c0.03-0.06,0.09-0.14,0.19-0.25c0.11-0.13,0.21-0.22,0.36-0.37
		c0.19-0.2,0.38-0.4,0.58-0.6c3.52-3.66,4.3-4.47,7.82-8.14l0,0c0.56-0.59,0.95-1.25,1.04-1.94c0.1-0.72-0.14-1.4-0.63-1.94l0,0
		c0,0,0,0,0,0c0,0,0,0,0,0l0,0c-0.51-0.57-1.18-0.91-1.95-0.82c-0.72,0.09-1.38,0.54-1.97,1.16c-2.85,2.95-2.94,3.06-5.78,6.02v0
		l0,0c-1.04,1.07-2.57,2.62-3.47,3.52c-0.01,0-0.04-0.02-0.09-0.07c-0.05-0.05-0.06-0.07-0.07-0.08c0,0,0,0,0-0.01
		c0-0.01,0.01-0.03,0.02-0.05c0.03-0.05,0.07-0.11,0.14-0.18l0,0c0.44-0.48,0.6-0.62,1.07-1.11l0,0c3.97-4.13,5.76-5.98,9.72-10.12
		l0,0c0.64-0.67,1.04-1.47,1.03-2.27c-0.01-0.84-0.46-1.56-1.24-2c-0.65-0.36-1.29-0.44-1.91-0.23c-0.57,0.19-1.04,0.59-1.43,0.99
		l1.09,1.04c0.33-0.35,0.59-0.53,0.81-0.6c0.18-0.06,0.39-0.06,0.7,0.11c0.35,0.2,0.47,0.45,0.48,0.71c0,0.29-0.15,0.73-0.61,1.22
		l0.55,0.52l-0.19-0.18l-0.36-0.34h0c-3.96,4.14-5.75,5.98-9.72,10.12c-0.43,0.45-0.65,0.65-1.09,1.13l0,0
		c-0.24,0.26-0.5,0.63-0.55,1.08c-0.06,0.5,0.13,0.96,0.5,1.32l0,0c0.35,0.35,0.8,0.55,1.29,0.5c0.34-0.03,0.63-0.18,0.87-0.36
		l0.02,0.02c1.03-1.03,3.06-3.14,4.05-4.18l0,0c2.34-2.43,2.59-2.7,5.25-5.46c0.5-0.52,0.85-0.68,1.08-0.71
		c0.17-0.02,0.38,0.02,0.65,0.33l0,0l0.44-0.4l0.12-0.11l-0.56,0.51c0.22,0.25,0.29,0.49,0.26,0.74c-0.04,0.28-0.21,0.66-0.64,1.1
		c-3.52,3.67-4.3,4.47-7.82,8.13c-0.19,0.2-0.39,0.41-0.58,0.61v0c-0.09,0.1-0.26,0.27-0.39,0.41c-0.14,0.15-0.3,0.35-0.41,0.59
		c-0.12,0.24-0.21,0.55-0.16,0.9c0.05,0.35,0.22,0.65,0.46,0.92c0.24,0.26,0.53,0.47,0.88,0.55c0.36,0.08,0.68,0,0.93-0.13
		c0.24-0.12,0.44-0.28,0.59-0.43c0.15-0.14,0.3-0.3,0.4-0.41c0.33-0.34,0.49-0.51,0.57-0.59c0.04-0.04,0.05-0.05,0.06-0.06
		c0,0,0,0,0.01-0.01c0,0,0.01-0.01,0.01-0.01c0,0,0.01-0.01,0.01-0.01c0.01-0.01,0,0,0.02-0.02c0.07-0.08,0.23-0.24,0.56-0.59
		c1.07-1.11,2.24-2.34,3.31-3.41c0.31-0.28,0.59-0.39,0.79-0.4c0.2-0.01,0.41,0.06,0.6,0.31c0.27,0.34,0.32,0.6,0.3,0.81
		c-0.03,0.23-0.16,0.51-0.49,0.85l0,0L38.74,43.68l0,0c-1.37,1.41-2.62,2.82-4.01,4.12c-2.78,2.62-6.04,3.56-9.71,2.88v0
		c-5.12-0.96-8.82-5.33-9.23-10.8c-0.27-3.62,0.98-6.8,3.41-9.38c2.81-2.98,5.66-5.92,8.51-8.87l0,0c0.44-0.46,0.79-0.61,1.01-0.64
		c0.18-0.02,0.4,0.03,0.66,0.3c0.25,0.26,0.32,0.5,0.29,0.72c-0.03,0.26-0.19,0.63-0.62,1.09c-1.46,1.56-2.93,3.11-4.4,4.67l0,0
		c-0.05,0.05-0.1,0.11-0.15,0.15c-0.04,0.04-0.08,0.08-0.12,0.12c0,0,0,0-0.01,0.01l0,0l-0.03,0.03c-0.04,0.04-0.09,0.09-0.13,0.13
		c-0.05,0.05-0.1,0.1-0.15,0.15l-0.01,0l-0.01,0.01l0.53,0.5l0.01,0.01l-0.55-0.52c-0.16,0.17-0.33,0.34-0.5,0.52l-0.01,0
		c-0.11,0.11-0.21,0.22-0.31,0.33l0,0c-0.17,0.17-0.33,0.34-0.5,0.52l0.56,0.55l-0.57-0.55c-0.09,0.1-0.18,0.19-0.27,0.29
		c-0.38,0.26-0.7,0.62-0.82,1.1c-0.13,0.55,0.05,1.09,0.44,1.5c0.21,0.23,0.47,0.41,0.77,0.5c0.31,0.09,0.61,0.06,0.86-0.03
		c0.46-0.16,0.84-0.52,1.08-0.78c5.03-5.25,10.08-10.48,15.12-15.72v0c0.38-0.4,0.69-0.74,1.04-1.07c0.32-0.3,0.56-0.37,0.73-0.37
		c0.15,0,0.37,0.07,0.64,0.36c0.24,0.26,0.31,0.49,0.31,0.68c0,0.21-0.09,0.48-0.34,0.79l0.59,0.46l-0.01,0L42.29,17l0,0
		c-0.16,0.21-0.34,0.36-0.62,0.65c-1.74,1.82-2.87,2.99-4,4.16c-1.13,1.17-2.25,2.34-4,4.16l0,0c-0.29,0.3-0.59,0.61-0.88,0.94l0,0
		c-0.27,0.3-0.46,0.68-0.48,1.11c-0.02,0.4,0.12,0.77,0.37,1.08l0,0C32.68,29.1,32.69,29.1,32.69,29.1 M44.01,35.21
		C44,35.26,44,35.3,43.99,35.32c-0.01,0.03-0.03,0.06-0.04,0.08C43.96,35.36,43.98,35.3,44.01,35.21z M43.87,35.51
		C43.87,35.51,43.87,35.51,43.87,35.51c-0.01,0.01-0.01,0.01-0.01,0.01C43.86,35.52,43.87,35.51,43.87,35.51z M42.78,34.48
		C42.78,34.48,42.78,34.48,42.78,34.48C42.78,34.48,42.78,34.48,42.78,34.48C42.77,34.48,42.78,34.48,42.78,34.48z M42.59,35.02
		c0,0.04,0,0.08,0.01,0.13c-0.01-0.01-0.01-0.01-0.02-0.02C42.58,35.09,42.59,35.05,42.59,35.02z"/>
	<polygon class="st20" points="45.45,17.43 45.99,17.95 45.99,17.95 	"/>
	<polygon class="st20" points="24.09,29.42 23.55,28.9 23.55,28.9 	"/>
</g>
<path class="st20" d="M48.2,11.13l0.54-4.79c0.05-0.41-0.25-0.78-0.66-0.83h0c-0.41-0.05-0.78,0.25-0.83,0.66l-0.54,4.79
	c-0.05,0.41,0.25,0.78,0.66,0.83v0C47.79,11.83,48.16,11.54,48.2,11.13z"/>
<path class="st20" d="M51.57,13.8l4.04-4.85c0.27-0.32,0.22-0.79-0.1-1.06v0c-0.32-0.27-0.79-0.22-1.06,0.1l-4.04,4.85
	c-0.27,0.32-0.22,0.79,0.1,1.06l0,0C50.83,14.16,51.3,14.12,51.57,13.8z"/>
<path class="st20" d="M53.03,17.56h5.5c0.41,0,0.75-0.34,0.75-0.75v0c0-0.41-0.34-0.75-0.75-0.75h-5.5c-0.41,0-0.75,0.34-0.75,0.75
	v0C52.28,17.23,52.62,17.56,53.03,17.56z"/>
</svg>
