<?xml version="1.0" encoding="utf-8"?>
<!-- Generator: Adobe Illustrator 24.1.0, SVG Export Plug-In . SVG Version: 6.00 Build 0)  -->
<svg version="1.1" id="Layer_1" xmlns="http://www.w3.org/2000/svg" xmlns:xlink="http://www.w3.org/1999/xlink" x="0px" y="0px"
	 viewBox="0 0 61.67 57.47" style="enable-background:new 0 0 61.67 57.47;" xml:space="preserve">
<style type="text/css">
	.st0{filter:url(#Adobe_OpacityMaskFilter);}
	.st1{mask:url(#SVGID_1_);}
	.st2{clip-path:url(#SVGID_3_);fill:#FFFFFF;}
	.st3{clip-path:url(#SVGID_3_);}
	.st4{clip-path:url(#SVGID_5_);}
	.st5{clip-path:url(#SVGID_3_);fill:#0D4060;}
	.st6{filter:url(#Adobe_OpacityMaskFilter_1_);}
	.st7{clip-path:url(#SVGID_7_);fill:#FFFFFF;}
	.st8{filter:url(#Adobe_OpacityMaskFilter_2_);}
	.st9{clip-path:url(#SVGID_3_);mask:url(#SVGID_8_);}
	.st10{clip-path:url(#SVGID_3_);fill:#FFD943;}
	.st11{clip-path:url(#SVGID_3_);fill:#FFAC10;}
	.st12{clip-path:url(#SVGID_3_);fill:#0D4161;}
	.st13{clip-path:url(#SVGID_3_);fill:#F5F5F5;}
	.st14{clip-path:url(#SVGID_28_);fill:#0D4161;}
	.st15{clip-path:url(#SVGID_3_);fill:#0D3F60;}
	.st16{clip-path:url(#SVGID_30_);fill:#0D3F60;}
	.st17{clip-path:url(#SVGID_36_);fill:#0D4161;}
	.st18{clip-path:url(#SVGID_38_);fill:#0D4161;}
	.st19{clip-path:url(#SVGID_40_);fill:#FFFFFF;}
	.st20{fill:#0D4161;}
	.st21{fill:#FFFFFF;}
	.st22{clip-path:url(#SVGID_42_);fill:#FFFFFF;}
	.st23{fill:none;stroke:#0D4161;stroke-width:2.7409;stroke-miterlimit:10;}
	.st24{fill:none;stroke:#0D4161;stroke-width:2.2449;stroke-miterlimit:10;}
	.st25{fill:none;stroke:#0D4161;stroke-width:2.5;stroke-linecap:round;stroke-miterlimit:10;}
	.st26{fill:#0D3F60;}
	.st27{fill:none;stroke:#0D3F60;stroke-width:1.9083;stroke-miterlimit:10;}
</style>
<defs>
	<filter id="Adobe_OpacityMaskFilter" filterUnits="userSpaceOnUse" x="-33512.56" y="-32106.72" width="65536" height="65536">
		<feColorMatrix  type="matrix" values="1 0 0 0 0  0 1 0 0 0  0 0 1 0 0  0 0 0 1 0"/>
	</filter>
</defs>
<mask maskUnits="userSpaceOnUse" x="-33512.56" y="-32106.72" width="65536" height="65536" id="SVGID_1_">
</mask>
<g class="st1">
	<g>
		<defs>
			<rect id="SVGID_2_" x="-33512.56" y="-32106.72" width="65536" height="65536"/>
		</defs>
		<clipPath id="SVGID_3_">
			<use xlink:href="#SVGID_2_"  style="overflow:visible;"/>
		</clipPath>
		<defs>
			
				<filter id="Adobe_OpacityMaskFilter_1_" filterUnits="userSpaceOnUse" x="-33512.56" y="-32106.72" width="65536" height="65536">
				<feColorMatrix  type="matrix" values="1 0 0 0 0  0 1 0 0 0  0 0 1 0 0  0 0 0 1 0"/>
			</filter>
		</defs>
		<mask maskUnits="userSpaceOnUse" x="-33512.56" y="-32106.72" width="65536" height="65536" id="SVGID_1_">
		</mask>
		<g class="st3">
			<g>
				<defs>
					<rect id="SVGID_9_" x="-33512.56" y="-32106.72" width="65536" height="65536"/>
				</defs>
				<clipPath id="SVGID_5_">
					<use xlink:href="#SVGID_9_"  style="overflow:visible;"/>
				</clipPath>
			</g>
		</g>
	</g>
</g>
<path class="st20" d="M36.89,36.51c-3.38,0.89-6.66,1.85-10,2.53c-0.89,0.18-2.1,0-2.81-0.41l0,0l0,0l0,0l0,0
	c-3.67-2.15-7.21-4.48-10.81-6.82l0,0c-1.05-0.68-2.2-1.03-3.3-0.94c-1.12,0.1-2.13,0.65-2.82,1.64c-0.64,0.91-0.79,1.98-0.49,3
	c0.3,1,1,1.88,1.98,2.57h0h0l0,0h0c5.34,3.75,10.71,7.44,16,11.24l0,0c1.72,1.23,3.43,1.43,5.35,0.94l0,0
	c8.73-2.16,17.47-4.28,26.4-6.45l0.76-0.19v-0.79c0-0.01,0-0.01,0-0.02s0-0.01,0-0.02s0-0.01,0-0.01s0-0.01,0-0.02
	c0-0.01,0-0.01,0-0.02s0-0.01,0-0.02s0-0.01,0-0.02s0-0.01,0-0.02c0,0,0-0.01,0-0.01s0-0.01,0-0.02s0-0.01,0-0.02s0-0.01,0-0.02
	s0-0.01,0-0.02s0-0.01,0-0.01c0-0.01,0-0.01,0-0.02s0-0.01,0-0.02s0-0.01,0-0.02s0-0.01,0-0.02s0-0.01,0-0.02s0-0.01,0-0.01
	s0-0.01,0-0.02s0-0.01,0-0.02c0-0.01,0-0.01,0-0.02s0-0.01,0-0.02s0-0.01,0-0.02s0-0.01,0-0.01s0-0.01,0-0.02c0,0,0-0.01,0-0.01
	s0-0.01,0-0.02s0-0.01,0-0.02s0-0.01,0-0.02c0,0,0-0.01,0-0.02c0-0.01,0-0.01,0-0.01c0-0.01,0-0.01,0-0.02s0-0.01,0-0.02
	s0-0.01,0-0.02s0-0.01,0-0.02s0-0.01,0-0.02s0-0.01,0-0.01s0-0.01,0-0.02s0-0.01,0-0.02c0-0.01,0-0.01,0-0.02s0-0.01,0-0.02
	s0-0.01,0-0.02c0,0,0-0.01,0-0.01c0-0.01,0-0.01,0-0.02c0-0.01,0-0.01,0-0.02s0-0.01,0-0.02s0-0.01,0-0.02c0-0.01,0-0.01,0-0.02
	s0-0.01,0-0.02s0-0.01,0-0.01c0-0.01,0-0.01,0-0.02s0-0.01,0-0.02s0-0.01,0-0.02s0-0.01,0-0.02s0-0.01,0-0.02s0-0.01,0-0.02
	s0-0.01,0-0.02c0,0,0-0.01,0-0.01s0-0.01,0-0.02c0-0.01,0-0.01,0-0.02s0-0.01,0-0.02s0-0.01,0-0.02s0-0.01,0-0.01
	c0-0.01,0-0.01,0-0.02s0-0.01,0-0.01s0-0.01,0-0.02s0-0.01,0-0.02c0-0.01,0-0.01,0-0.02s0-0.01,0-0.02s0-0.01,0-0.02
	c0,0,0-0.01,0-0.02c0-0.01,0-0.01,0-0.01c0-0.01,0-0.01,0-0.02s0-0.01,0-0.02s0-0.01,0-0.02s0-0.01,0-0.02s0-0.01,0-0.02
	s0-0.01,0-0.01c0-0.01,0-0.01,0-0.02c0,0,0-0.01,0-0.01s0-0.01,0-0.02s0-0.01,0-0.02c0-0.01,0-0.01,0-0.02s0-0.01,0-0.02
	s0-0.01,0-0.01c0-0.01,0-0.01,0-0.02s0-0.01,0-0.01s0-0.01,0-0.02s0-0.01,0-0.02c0-0.01,0-0.01,0-0.02s0-0.01,0-0.02s0-0.01,0-0.02
	c0,0,0-0.01,0-0.02c0-0.01,0-0.01,0-0.01c0-0.01,0-0.01,0-0.02s0-0.01,0-0.02s0-0.01,0-0.02s0-0.01,0-0.02s0-0.01,0-0.02
	s0-0.01,0-0.01c0-0.01,0-0.01,0-0.02c0,0,0-0.01,0-0.01s0-0.01,0-0.02s0-0.01,0-0.02c0-0.01,0-0.01,0-0.02s0-0.01,0-0.02
	s0-0.01,0-0.02c0,0,0-0.01,0-0.02s0-0.01,0-0.01s0-0.01,0-0.02s0-0.01,0-0.02c0-0.01,0-0.01,0-0.02s0-0.01,0-0.02s0-0.01,0-0.02
	s0-0.01,0-0.01c0-0.01,0-0.01,0-0.02c0-0.01,0-0.01,0-0.02s0-0.01,0-0.02s0-0.01,0-0.02c0-0.01,0-0.01,0-0.02s0-0.01,0-0.02
	s0-0.01,0-0.01c0-0.01,0-0.01,0-0.02c0-0.01,0-0.01,0-0.01s0-0.01,0-0.02s0-0.01,0-0.02s0-0.01,0-0.02c0-0.01,0-0.01,0-0.02
	s0-0.01,0-0.02c0,0,0-0.01,0-0.01s0-0.01,0-0.02c0-0.01,0-0.01,0-0.02s0-0.01,0-0.02s0-0.01,0-0.02s0-0.01,0-0.02
	c0-0.01,0-0.01,0-0.02s0-0.01,0-0.01s0-0.01,0-0.02s0-0.01,0-0.02c0-0.01,0-0.01,0-0.02s0-0.01,0-0.02s0-0.01,0-0.02
	c0,0,0-0.01,0-0.01s0-0.01,0-0.02c0-0.01,0-0.01,0-0.02s0-0.01,0-0.02s0-0.01,0-0.02s0-0.01,0-0.02c0-0.01,0-0.01,0-0.02
	s0-0.01,0-0.01s0-0.01,0-0.02s0-0.01,0-0.02s0-0.01,0-0.02s0-0.01,0-0.02s0-0.01,0-0.02s0-0.01,0-0.01s0-0.01,0-0.02s0-0.01,0-0.02
	s0-0.01,0-0.02s0-0.01,0-0.02s0-0.01,0-0.02c0,0,0-0.01,0-0.01s0-0.01,0-0.02c0-0.01,0-0.01,0-0.02s0-0.01,0-0.02s0-0.01,0-0.02
	s0-0.01,0-0.01c0-0.01,0-0.01,0-0.02c0-0.01,0-0.01,0-0.02s0-0.01,0-0.02s0-0.01,0-0.02s0-0.01,0-0.02s0-0.01,0-0.01
	c0-0.01,0-0.01,0-0.02c0-0.01,0-0.01,0-0.02s0-0.01,0-0.02s0-0.01,0-0.02s0-0.01,0-0.02s0-0.01,0-0.01s0-0.01,0-0.02s0-0.01,0-0.02
	c0-0.01,0-0.01,0-0.02s0-0.01,0-0.02s0-0.01,0-0.02c0,0,0-0.01,0-0.01s0-0.01,0-0.02s0-0.01,0-0.02s0-0.01,0-0.02s0-0.01,0-0.01
	c0-0.01,0-0.01,0-0.02c0-0.01,0-0.01,0-0.02s0-0.01,0-0.02s0-0.01,0-0.02s0-0.01,0-0.02c0,0,0-0.01,0-0.01s0-0.01,0-0.02
	s0-0.01,0-0.02s0-0.01,0-0.02c0,0,0-0.01,0-0.01s0-0.01,0-0.02c0-0.01,0-0.01,0-0.02s0-0.01,0-0.02s0-0.01,0-0.02s0-0.01,0-0.02
	c0,0,0-0.01,0-0.01s0-0.01,0-0.02s0-0.01,0-0.02s0-0.01,0-0.02c0,0,0-0.01,0-0.01s0-0.01,0-0.02s0-0.01,0-0.02s0-0.01,0-0.02
	s0-0.01,0-0.01s0-0.01,0-0.02s0-0.01,0-0.02s0-0.01,0-0.02s0-0.01,0-0.01s0-0.01,0-0.02s0-0.01,0-0.02s0-0.01,0-0.02s0-0.01,0-0.01
	c0-0.01,0-0.01,0-0.02s0-0.01,0-0.02s0-0.01,0-0.02s0-0.01,0-0.01c0-0.01,0-0.01,0-0.02s0-0.01,0-0.02s0-0.01,0-0.02s0-0.01,0-0.02
	c0,0,0-0.01,0-0.01s0-0.01,0-0.02s0-0.01,0-0.02s0-0.01,0-0.02c0,0,0-0.01,0-0.01s0-0.01,0-0.02s0-0.01,0-0.02s0-0.01,0-0.02
	s0-0.01,0-0.01c0-0.01,0-0.01,0-0.02s0-0.01,0-0.01c0-0.01,0-0.01,0-0.02s0-0.01,0-0.02s0-0.01,0-0.02s0-0.01,0-0.02
	c0,0,0-0.01,0-0.01s0-0.01,0-0.02s0-0.01,0-0.02c0,0,0-0.01,0-0.01s0-0.01,0-0.02s0-0.01,0-0.02s0-0.01,0-0.01c0-0.01,0-0.01,0-0.02
	s0-0.01,0-0.02s0-0.01,0-0.01c0-0.01,0-0.01,0-0.02s0-0.01,0-0.02s0-0.01,0-0.02s0-0.01,0-0.01s0-0.01,0-0.02c0,0,0-0.01,0-0.01
	c0,0,0-0.01,0-0.01s0-0.01,0-0.02s0-0.01,0-0.02s0-0.01,0-0.02c0,0,0-0.01,0-0.01s0-0.01,0-0.02s0-0.01,0-0.01c0-0.01,0-0.01,0-0.02
	c0,0,0-0.01,0-0.01s0-0.01,0-0.01s0-0.01,0-0.02s0-0.01,0-0.02c0,0,0-0.01,0-0.01s0-0.01,0-0.02s0-0.01,0-0.02s0-0.01,0-0.01
	c0-0.01,0-0.01,0-0.02s0-0.01,0-0.02s0-0.01,0-0.01c0,0,0-0.01,0-0.01s0-0.01,0-0.02s0-0.01,0-0.01c0,0,0-0.01,0-0.01s0-0.01,0-0.01
	c0-0.01,0-0.01,0-0.02c0,0,0-0.01,0-0.01s0-0.01,0-0.01s0-0.01,0-0.01c0-0.01,0-0.01,0-0.02c0,0,0-0.01,0-0.01s0-0.01,0-0.01
	s0-0.01,0-0.01s0-0.01,0-0.01c0-0.01,0-0.01,0-0.02c0,0,0-0.01,0-0.01s0-0.01,0-0.01s0-0.01,0-0.01c0-0.01,0-0.01,0-0.01
	c0-0.01,0-0.01,0-0.02c0,0,0-0.01,0-0.01c0,0,0-0.01,0-0.01s0-0.01,0-0.01c0,0,0-0.01,0-0.01s0-0.01,0-0.02c0,0,0-0.01,0-0.01
	s0-0.01,0-0.02s0-0.01,0-0.01s0-0.01,0-0.02s0-0.01,0-0.01s0-0.01,0-0.02c0,0,0-0.01,0-0.01s0-0.01,0-0.02c0,0,0-0.01,0-0.01
	c0,0,0-0.01,0-0.01c0,0,0-0.01,0-0.01s0-0.01,0-0.01c0-0.01,0-0.01,0-0.02s0-0.01,0-0.01s0-0.01,0-0.02c0,0,0-0.01,0-0.01
	s0-0.01,0-0.01c0-0.01,0-0.01,0-0.01c0-0.01,0-0.01,0-0.01s0-0.01,0-0.02c0,0,0-0.01,0-0.01s0-0.01,0-0.01c0-0.01,0-0.01,0-0.02
	s0-0.01,0-0.01c0-0.01,0-0.01,0-0.01c0-0.01,0-0.01,0-0.02s0-0.01,0-0.01s0-0.01,0-0.01c0-0.01,0-0.01,0-0.02c0,0,0-0.01,0-0.01
	c0-0.01,0-0.01,0-0.01c0-0.01,0-0.01,0-0.02c0,0,0-0.01,0-0.01s0-0.01,0-0.01s0-0.01,0-0.01c0-0.01,0-0.01,0-0.02c0,0,0-0.01,0-0.01
	s0-0.01,0-0.01s0-0.01,0-0.01c0-0.01,0-0.01,0-0.01c0,0,0-0.01,0-0.01c0,0,0-0.01,0-0.01s0-0.01,0-0.01c0,0,0-0.01,0-0.01
	c0-0.01,0-0.01,0-0.02c0,0,0-0.01,0-0.01c0,0,0-0.01,0-0.01c0-0.01,0-0.01,0-0.01s0-0.01,0-0.01s0-0.01,0-0.01c0,0,0-0.01,0-0.01
	c0-0.01,0-0.01,0-0.02c0,0,0-0.01,0-0.01c0,0,0-0.01,0-0.01c0,0,0-0.01,0-0.01s0-0.01,0-0.01s0-0.01,0-0.01c0,0,0-0.01,0-0.01
	s0-0.01,0-0.01s0-0.01,0-0.01s0-0.01,0-0.01s0-0.01,0-0.01c0-0.01,0-0.01,0-0.01c0-0.01,0-0.01,0-0.01c0-0.01,0-0.01,0-0.01
	c0,0,0-0.01,0-0.01c0-0.01,0-0.01,0-0.01c0-0.01,0-0.01,0-0.01c0-0.01,0-0.01,0-0.01s0-0.01,0-0.01c0-0.01,0-0.01,0-0.01
	s0-0.01,0-0.01s0-0.01,0-0.01s0-0.01,0-0.01c0,0,0-0.01,0-0.01c0,0,0-0.01,0-0.01c0,0,0-0.01,0-0.01c0-0.01,0-0.01,0-0.01
	c0-0.01,0-0.01,0-0.01c0-0.01,0-0.01,0-0.01s0-0.01,0-0.01s0-0.01,0-0.01c0,0,0-0.01,0-0.01c0,0,0-0.01,0-0.01c0-0.01,0-0.01,0-0.01
	c0-0.01,0-0.01,0-0.01s0-0.01,0-0.01c0,0,0-0.01,0-0.01c0,0,0-0.01,0-0.01c0-0.01,0-0.01,0-0.01c0-0.01,0-0.01,0-0.01
	c0,0,0-0.01,0-0.01c0,0,0-0.01,0-0.01c0,0,0-0.01,0-0.01c0-0.01,0-0.01,0-0.01c0,0,0-0.01,0-0.01c0-0.01,0-0.01,0-0.01
	c0-0.01,0-0.01,0-0.01c0,0,0-0.01,0-0.01c0,0,0-0.01,0-0.01c0-0.01,0-0.01,0-0.01c0,0,0-0.01,0-0.01c0-0.01,0-0.01,0-0.01
	c0-0.01,0-0.01,0-0.01c0,0,0-0.01,0-0.01c0,0,0-0.01,0-0.01c0,0,0-0.01,0-0.01c0,0,0-0.01,0-0.01c0-0.01,0-0.01,0-0.01
	c0,0,0-0.01,0-0.01c0-0.01,0-0.01,0-0.01c0,0,0-0.01,0-0.01c0-0.01,0-0.01,0-0.01c0,0,0-0.01,0-0.01c0-0.01,0-0.01,0-0.01
	c0,0,0-0.01,0-0.01c0-0.01,0-0.01,0-0.01c0,0,0-0.01,0-0.01c0-0.01,0-0.01,0-0.01c0,0,0-0.01,0-0.01c0-0.01,0-0.01,0-0.01
	c0,0,0-0.01,0-0.01c0-0.01,0-0.01,0-0.01c0-0.01,0-0.01,0-0.01c0,0,0-0.01,0-0.01c0-0.01,0-0.01,0-0.01c0,0,0-0.01,0-0.01
	c0,0,0-0.01,0-0.01c0-0.01,0-0.01,0-0.01c0,0,0-0.01,0-0.01c0,0,0-0.01,0-0.01c0-0.01,0-0.01,0-0.01c0,0,0-0.01,0-0.01
	c0,0,0-0.01,0-0.01c0-0.01,0-0.01,0-0.01c0,0,0-0.01,0-0.01c0,0,0-0.01,0-0.01c0,0,0-0.01,0-0.01c0-0.01,0-0.01,0-0.01
	c0,0,0-0.01,0-0.01c0,0,0-0.01,0-0.01s0-0.01,0-0.01c0-0.01,0-0.01,0-0.01c0-0.01,0-0.01,0-0.01c0,0,0-0.01,0-0.01
	c0,0,0-0.01,0-0.01c0,0,0-0.01,0-0.01c0,0,0-0.01,0-0.01c0,0,0-0.01,0-0.01c0-0.01,0-0.01,0-0.01c0-0.01,0-0.01,0-0.01
	c0-0.01,0-0.01,0-0.01c0-0.01,0-0.01,0-0.01c0,0,0-0.01,0-0.01c0,0,0-0.01,0-0.01c0,0,0-0.01,0-0.01c0,0,0-0.01,0-0.01
	c0,0,0-0.01,0-0.01c0,0,0-0.01,0-0.01c0,0,0-0.01,0-0.01c0,0,0-0.01,0-0.01c0,0,0-0.01,0-0.01c0,0,0-0.01,0-0.01c0,0,0-0.01,0-0.01
	c0-0.01,0-0.01,0-0.01c0-0.01,0-0.01,0-0.01c0-0.01,0-0.01,0-0.01c0,0,0-0.01,0-0.01c0,0,0-0.01,0-0.01c0,0,0-0.01,0-0.01
	c0,0,0-0.01,0-0.01c0,0,0-0.01,0-0.01c0-0.01,0-0.01,0-0.01c0-0.01,0-0.01,0-0.01c0,0,0-0.01,0-0.01c0,0,0-0.01,0-0.01
	c0,0,0-0.01,0-0.01c0-0.01,0-0.01,0-0.01c0,0,0-0.01,0-0.01c0,0,0-0.01,0-0.01c0,0,0-0.01,0-0.01c0-0.01,0-0.01,0-0.01
	c0,0,0-0.01,0-0.01c0,0,0-0.01,0-0.01c0,0,0-0.01,0-0.01c0,0,0-0.01,0-0.01c0,0,0-0.01,0-0.01c0-0.01,0-0.01,0-0.01
	c0,0,0-0.01,0-0.01c0,0,0-0.01,0-0.01c0,0,0-0.01,0-0.01c0,0,0-0.01,0-0.01c0-0.01,0-0.01,0-0.01c0,0,0-0.01,0-0.01
	c0,0,0-0.01,0-0.01c0,0,0-0.01,0-0.01c0,0,0-0.01,0-0.01c0,0,0-0.01,0-0.01c0,0,0-0.01,0-0.01c0,0,0-0.01,0-0.01c0,0,0-0.01,0-0.01
	c0,0,0-0.01,0-0.01c0-0.01,0-0.01,0-0.01c0,0,0-0.01,0-0.01c0,0,0-0.01,0-0.01c0,0,0-0.01,0-0.01v-0.59l-0.52-0.28
	c-2.23-1.24-4.24-2.42-6.25-3.49l0-0.01c-0.5-0.26-1.86-0.99-2.39-1.28c-0.52-0.29-1.07-0.6-1.62-0.88c-1.1-0.56-2.3-1.06-3.59-1.22
	v0c-3.97-0.52-8.12-0.24-11.95-0.3c0,0,0,0,0,0c0,0,0,0,0,0v0c-0.74-0.01-1.52,0.12-2.16,0.56c-0.69,0.48-1.07,1.22-1.1,2.13v0l0,0
	c-0.01,0.48,0.07,0.94,0.29,1.34c0.22,0.41,0.55,0.7,0.9,0.89c0.66,0.36,1.46,0.4,2.08,0.39h0c1.78-0.02,3.56-0.03,5.33,0.02
	l0.68,0.05c0.49,0.08,0.86,0.26,1.13,0.49c0.35,0.29,0.58,0.72,0.65,1.27h0c0.06,0.5-0.06,0.87-0.3,1.16
	C38.11,36,37.65,36.31,36.89,36.51 M40.65,34.29c-0.12-1.02-0.58-1.91-1.34-2.56c-0.53-0.45-1.19-0.75-1.92-0.9l0-0.01
	c0,0-0.87-0.2-1.61-0.13c0,0,0,0,0,0c-1.65-0.04-3.3-0.03-4.93-0.01c-0.58,0.01-0.93-0.06-1.11-0.15c-0.06-0.03-0.08-0.06-0.09-0.08
	c-0.01-0.03-0.05-0.12-0.05-0.33c0.01-0.34,0.12-0.47,0.24-0.55c0.16-0.11,0.47-0.21,0.98-0.2h0c4.07,0.06,7.91-0.22,11.73,0.28l0,0
	l0,0l0,0h0c0.95,0.12,1.92,0.51,2.94,1.03c0.51,0.26,1.02,0.54,1.55,0.84c0.34,0.19,1.02,0.56,1.6,0.87l0,0
	c2.11,1.08,4.13,2.28,6.52,3.62c0,0,0,0.01,0,0.01c0,0.01,0,0.01,0,0.01c0,0.01,0,0.01,0,0.01c0,0.01,0,0.01,0,0.01
	c0,0.01,0,0.01,0,0.01c0,0.01,0,0.01,0,0.01c0,0.01,0,0.01,0,0.01c0,0.01,0,0.01,0,0.01c0,0,0,0.01,0,0.01c0,0,0,0.01,0,0.01
	c0,0,0,0.01,0,0.01c0,0,0,0.01,0,0.01c0,0,0,0.01,0,0.01c0,0,0,0.01,0,0.01c0,0.01,0,0.01,0,0.01c0,0.01,0,0.01,0,0.01
	c0,0.01,0,0.01,0,0.01c0,0,0,0.01,0,0.01c0,0,0,0.01,0,0.01s0,0.01,0,0.01c0,0.01,0,0.01,0,0.01c0,0.01,0,0.01,0,0.01
	c0,0,0,0.01,0,0.01c0,0,0,0.01,0,0.01c0,0.01,0,0.01,0,0.01c0,0.01,0,0.01,0,0.01c0,0,0,0.01,0,0.01c0,0,0,0.01,0,0.01
	c0,0.01,0,0.01,0,0.01c0,0,0,0.01,0,0.01c0,0,0,0.01,0,0.01c0,0.01,0,0.01,0,0.01c0,0,0,0.01,0,0.01c0,0,0,0.01,0,0.01
	c0,0.01,0,0.01,0,0.01c0,0,0,0.01,0,0.01c0,0.01,0,0.01,0,0.01c0,0,0,0.01,0,0.01c0,0,0,0.01,0,0.01c0,0.01,0,0.01,0,0.01
	c0,0,0,0.01,0,0.01c0,0.01,0,0.01,0,0.01c0,0,0,0.01,0,0.01c0,0.01,0,0.01,0,0.01c0,0,0,0.01,0,0.01c0,0.01,0,0.01,0,0.01
	c0,0,0,0.01,0,0.01c0,0.01,0,0.01,0,0.01c0,0,0,0.01,0,0.01c0,0.01,0,0.01,0,0.01c0,0,0,0.01,0,0.01c0,0.01,0,0.01,0,0.01
	c0,0,0,0.01,0,0.01c0,0.01,0,0.01,0,0.01c0,0.01,0,0.01,0,0.01c0,0,0,0.01,0,0.01c0,0.01,0,0.01,0,0.01c0,0,0,0.01,0,0.01
	c0,0,0,0.01,0,0.01c0,0.01,0,0.01,0,0.01c0,0,0,0.01,0,0.01c0,0,0,0.01,0,0.01c0,0.01,0,0.01,0,0.01c0,0,0,0.01,0,0.01
	c0,0,0,0.01,0,0.01c0,0.01,0,0.01,0,0.01c0,0,0,0.01,0,0.01c0,0,0,0.01,0,0.01c0,0.01,0,0.01,0,0.01c0,0.01,0,0.01,0,0.01
	c0,0,0,0.01,0,0.01c0,0,0,0.01,0,0.01c0,0,0,0.01,0,0.01c0,0.01,0,0.01,0,0.01s0,0.01,0,0.01c0,0,0,0.01,0,0.01c0,0,0,0.01,0,0.01
	c0,0.01,0,0.01,0,0.01c0,0.01,0,0.01,0,0.01s0,0.01,0,0.01s0,0.01,0,0.01c0,0,0,0.01,0,0.01c0,0,0,0.01,0,0.01c0,0,0,0.01,0,0.01
	c0,0.01,0,0.01,0,0.01c0,0.01,0,0.01,0,0.01c0,0.01,0,0.01,0,0.01s0,0.01,0,0.01s0,0.01,0,0.01s0,0.01,0,0.01c0,0,0,0.01,0,0.01
	s0,0.01,0,0.01c0,0,0,0.01,0,0.01c0,0,0,0.01,0,0.01c0,0,0,0.01,0,0.01c0,0,0,0.01,0,0.01c0,0,0,0.01,0,0.01c0,0,0,0.01,0,0.01
	c0,0,0,0.01,0,0.01s0,0.01,0,0.01s0,0.01,0,0.01s0,0.01,0,0.01s0,0.01,0,0.01c0,0.01,0,0.01,0,0.01s0,0.01,0,0.01s0,0.01,0,0.01
	c0,0,0,0.01,0,0.01c0,0.01,0,0.01,0,0.01c0,0.01,0,0.01,0,0.02c0,0,0,0.01,0,0.01c0,0,0,0.01,0,0.01s0,0.01,0,0.01s0,0.01,0,0.01
	c0,0,0,0.01,0,0.01c0,0.01,0,0.01,0,0.01c0,0.01,0,0.01,0,0.02c0,0,0,0.01,0,0.01c0,0.01,0,0.01,0,0.01s0,0.01,0,0.01
	c0,0.01,0,0.01,0,0.01c0,0.01,0,0.01,0,0.01c0,0,0,0.01,0,0.01s0,0.01,0,0.01s0,0.01,0,0.01c0,0.01,0,0.01,0,0.02c0,0,0,0.01,0,0.01
	s0,0.01,0,0.01s0,0.01,0,0.01c0,0.01,0,0.01,0,0.02c0,0,0,0.01,0,0.01c0,0,0,0.01,0,0.01c0,0.01,0,0.01,0,0.02c0,0,0,0.01,0,0.01
	s0,0.01,0,0.01s0,0.01,0,0.02c0,0,0,0.01,0,0.01c0,0,0,0.01,0,0.01s0,0.01,0,0.02c0,0,0,0.01,0,0.01s0,0.01,0,0.01
	c0,0.01,0,0.01,0,0.02s0,0.01,0,0.01c0,0,0,0.01,0,0.01c0,0,0,0.01,0,0.01s0,0.01,0,0.01c0,0.01,0,0.01,0,0.02s0,0.01,0,0.01
	s0,0.01,0,0.02c0,0,0,0.01,0,0.01s0,0.01,0,0.01c0,0.01,0,0.01,0,0.01c0,0.01,0,0.01,0,0.01c0,0.01,0,0.01,0,0.02s0,0.01,0,0.01
	c0,0.01,0,0.01,0,0.02s0,0.01,0,0.01s0,0.01,0,0.02s0,0.01,0,0.01s0,0.01,0,0.02s0,0.01,0,0.01c0,0.01,0,0.01,0,0.02s0,0.01,0,0.01
	c0,0,0,0.01,0,0.01s0,0.01,0,0.01c0,0.01,0,0.01,0,0.01c0,0.01,0,0.01,0,0.02c0,0,0,0.01,0,0.01c0,0,0,0.01,0,0.01s0,0.01,0,0.01
	s0,0.01,0,0.01c0,0.01,0,0.01,0,0.02c0,0,0,0.01,0,0.01s0,0.01,0,0.01s0,0.01,0,0.01s0,0.01,0,0.01c0,0.01,0,0.01,0,0.02
	c0,0,0,0.01,0,0.01s0,0.01,0,0.01s0,0.01,0,0.01c0,0.01,0,0.01,0,0.02c0,0,0,0.01,0,0.01s0,0.01,0,0.01c0,0.01,0,0.01,0,0.01
	s0,0.01,0,0.02s0,0.01,0,0.01c0,0,0,0.01,0,0.01s0,0.01,0,0.02s0,0.01,0,0.02c0,0,0,0.01,0,0.01s0,0.01,0,0.02s0,0.01,0,0.02
	s0,0.01,0,0.01c0,0.01,0,0.01,0,0.02s0,0.01,0,0.02s0,0.01,0,0.01s0,0.01,0,0.01c0,0.01,0,0.01,0,0.02c0,0,0,0.01,0,0.01
	s0,0.01,0,0.02s0,0.01,0,0.01c0,0.01,0,0.01,0,0.02s0,0.01,0,0.02s0,0.01,0,0.02s0,0.01,0,0.01c0,0.01,0,0.01,0,0.01
	c0,0.01,0,0.01,0,0.02s0,0.01,0,0.01s0,0.01,0,0.02s0,0.01,0,0.02s0,0.01,0,0.02c0,0,0,0.01,0,0.01s0,0.01,0,0.02s0,0.01,0,0.02
	c0,0,0,0.01,0,0.01s0,0.01,0,0.02s0,0.01,0,0.02s0,0.01,0,0.01c0,0.01,0,0.01,0,0.02s0,0.01,0,0.02s0,0.01,0,0.01
	c0,0.01,0,0.01,0,0.02s0,0.01,0,0.02s0,0.01,0,0.02s0,0.01,0,0.02c0,0,0,0.01,0,0.01s0,0.01,0,0.02c0,0,0,0.01,0,0.01s0,0.01,0,0.02
	s0,0.01,0,0.02s0,0.01,0,0.02s0,0.01,0,0.01c0,0.01,0,0.01,0,0.02s0,0.01,0,0.02s0,0.01,0,0.02s0,0.01,0,0.01c0,0.01,0,0.01,0,0.02
	s0,0.01,0,0.02s0,0.01,0,0.02s0,0.01,0,0.02c0,0,0,0.01,0,0.01s0,0.01,0,0.02s0,0.01,0,0.02s0,0.01,0,0.02c0,0,0,0.01,0,0.01
	s0,0.01,0,0.02s0,0.01,0,0.02s0,0.01,0,0.02s0,0.01,0,0.01s0,0.01,0,0.02s0,0.01,0,0.02s0,0.01,0,0.02s0,0.01,0,0.01s0,0.01,0,0.02
	s0,0.01,0,0.02s0,0.01,0,0.02s0,0.01,0,0.01c0,0.01,0,0.01,0,0.02s0,0.01,0,0.02s0,0.01,0,0.02s0,0.01,0,0.01c0,0.01,0,0.01,0,0.02
	s0,0.01,0,0.02s0,0.01,0,0.02s0,0.01,0,0.02c0,0,0,0.01,0,0.02s0,0.01,0,0.01c0,0.01,0,0.01,0,0.02s0,0.01,0,0.02s0,0.01,0,0.02
	s0,0.01,0,0.01c0,0.01,0,0.01,0,0.02s0,0.01,0,0.02s0,0.01,0,0.02s0,0.01,0,0.02c0,0,0,0.01,0,0.02c0,0.01,0,0.01,0,0.01
	s0,0.01,0,0.02s0,0.01,0,0.02s0,0.01,0,0.02s0,0.01,0,0.01c0,0.01,0,0.01,0,0.02s0,0.01,0,0.02s0,0.01,0,0.02c0,0.01,0,0.01,0,0.02
	s0,0.01,0,0.02s0,0.01,0,0.01s0,0.01,0,0.02s0,0.01,0,0.02s0,0.01,0,0.02s0,0.01,0,0.02c0,0.01,0,0.01,0,0.02c0,0,0,0.01,0,0.01
	s0,0.01,0,0.02s0,0.01,0,0.02s0,0.01,0,0.02s0,0.01,0,0.02c0,0.01,0,0.01,0,0.02c0,0,0,0.01,0,0.01s0,0.01,0,0.02s0,0.01,0,0.02
	s0,0.01,0,0.02c0,0.01,0,0.01,0,0.02s0,0.01,0,0.01c0,0.01,0,0.01,0,0.02s0,0.01,0,0.02s0,0.01,0,0.02s0,0.01,0,0.02s0,0.01,0,0.02
	s0,0.01,0,0.01s0,0.01,0,0.02s0,0.01,0,0.02s0,0.01,0,0.02s0,0.01,0,0.02s0,0.01,0,0.02s0,0.01,0,0.01s0,0.01,0,0.02
	c0,0.01,0,0.01,0,0.02s0,0.01,0,0.02s0,0.01,0,0.02s0,0.01,0,0.02c0,0,0,0.01,0,0.02s0,0.01,0,0.01c0,0.01,0,0.01,0,0.02
	s0,0.01,0,0.02s0,0.01,0,0.02c0,0.01,0,0.01,0,0.02s0,0.01,0,0.02s0,0.01,0,0.01s0,0.01,0,0.02c0,0.01,0,0.01,0,0.02s0,0.01,0,0.02
	s0,0.01,0,0.02s0,0.01,0,0.02c0,0.01,0,0.01,0,0.02s0,0.01,0,0.01c0,0.01,0,0.01,0,0.02s0,0.01,0,0.02c0,0.01,0,0.01,0,0.02
	s0,0.01,0,0.02s0,0.01,0,0.02s0,0.01,0,0.01c0,0.01,0,0.01,0,0.02c0,0,0,0.01,0,0.01s0,0.01,0,0.02s0,0.01,0,0.02
	c0,0.01,0,0.01,0,0.02s0,0.01,0,0.02s0,0.01,0,0.02c0,0,0,0.01,0,0.02c0,0.01,0,0.01,0,0.01s0,0.01,0,0.02s0,0.01,0,0.02
	s0,0.01,0,0.02c0,0.01,0,0.01,0,0.02s0,0.01,0,0.02s0,0.01,0,0.01s0,0.01,0,0.02c0,0.01,0,0.01,0,0.02s0,0.01,0,0.02s0,0.01,0,0.02
	c0,0.01,0,0.01,0,0.02s0,0.01,0,0.02s0,0.01,0,0.01c0,0.01,0,0.01,0,0.02c0,0.01,0,0.01,0,0.01s0,0.01,0,0.02s0,0.01,0,0.02
	s0,0.01,0,0.02s0,0.01,0,0.02s0,0.01,0,0.02c0,0,0,0.01,0,0.01c0,0.01,0,0.01,0,0.02c0,0.01,0,0.01,0,0.02s0,0.01,0,0.02
	s0,0.01,0,0.02c0,0.01,0,0.01,0,0.02s0,0.01,0,0.02s0,0.01,0,0.01s0,0.01,0,0.02c0,0,0,0.01,0,0.01s0,0.01,0,0.02s0,0.01,0,0.02
	c0,0.01,0,0.01,0,0.02s0,0.01,0,0.02s0,0.01,0,0.01c0,0.01,0,0.01,0,0.02c0,0.01,0,0.01,0,0.01s0,0.01,0,0.02s0,0.01,0,0.02
	s0,0.01,0,0.02s0,0.01,0,0.02s0,0.01,0,0.02c0,0,0,0.01,0,0.01c0,0.01,0,0.01,0,0.02c0,0.01,0,0.01,0,0.02s0,0.01,0,0.02
	s0,0.01,0,0.02c0,0.01,0,0.01,0,0.02s0,0.01,0,0.02s0,0.01,0,0.01s0,0.01,0,0.02c0,0,0,0.01,0,0.01s0,0.01,0,0.02s0,0.01,0,0.02
	s0,0.01,0,0.02c0,0.01,0,0.01,0,0.02s0,0.01,0,0.01c0,0.01,0,0.01,0,0.02s0,0.01,0,0.02s0,0.01,0,0.02s0,0.01,0,0.02s0,0.01,0,0.02
	s0,0.01,0,0.02s0,0.01,0,0.02c0,0,0,0,0,0C46.5,44.16,38,46.22,29.51,48.32l0,0l0,0c-1.44,0.36-2.53,0.22-3.7-0.63h0
	c-5.3-3.81-10.69-7.52-16.02-11.25l0,0c-0.69-0.49-1.07-1.03-1.21-1.5c-0.13-0.45-0.07-0.88,0.21-1.28l0,0
	c0.34-0.49,0.81-0.74,1.35-0.79c0.56-0.05,1.27,0.12,2.04,0.62l0,0l0,0l0,0l0,0c3.57,2.32,7.17,4.69,10.89,6.87l0,0c0,0,0,0,0,0
	s0,0,0,0l0,0c1.18,0.7,2.91,0.91,4.21,0.65l0.01,0l0,0l0,0l0,0c3.42-0.69,6.81-1.69,10.12-2.56l0,0c1.03-0.27,1.92-0.76,2.51-1.49
	C40.52,36.2,40.76,35.28,40.65,34.29"/>
<g>
	<path class="st20" d="M19.61,29.48c-3.73-3.16-7.65-6.02-10.71-9.8c-1.8-2.22-2.68-4.75-1.96-7.61c1.25-4.93,7.22-6.75,11.17-3.44
		c0.51,0.43,0.99,0.91,1.47,1.36c0.64-0.57,1.24-1.17,1.91-1.67c2.33-1.71,5.43-1.81,7.84-0.31c2.33,1.46,3.49,4.21,3.07,7.06
		c-0.26,1.72-0.97,3.22-2.04,4.55C27.28,23.43,23.34,26.3,19.61,29.48z M19.59,12.32c-0.72-0.66-1.53-1.51-2.45-2.22
		c-3.15-2.43-7.64-0.72-8.24,3.14c-0.33,2.13,0.45,3.97,1.78,5.59c2.57,3.15,5.82,5.56,8.97,8.23c2.18-1.9,4.38-3.74,6.48-5.69
		c1.06-0.98,2.03-2.1,2.9-3.26c1.12-1.47,1.59-3.19,1.24-5.03C29.55,9.27,25.12,7.7,22,10.14C21.11,10.84,20.31,11.66,19.59,12.32z"
		/>
</g>
</svg>
