<?xml version="1.0" encoding="utf-8"?>
<!-- Generator: Adobe Illustrator 24.1.0, SVG Export Plug-In . SVG Version: 6.00 Build 0)  -->
<svg version="1.1" id="Layer_1" xmlns="http://www.w3.org/2000/svg" xmlns:xlink="http://www.w3.org/1999/xlink" x="0px" y="0px"
	 viewBox="0 0 55.54 57.47" style="enable-background:new 0 0 55.54 57.47;" xml:space="preserve">
<style type="text/css">
	.st0{filter:url(#Adobe_OpacityMaskFilter);}
	.st1{mask:url(#SVGID_1_);}
	.st2{clip-path:url(#SVGID_3_);fill:#FFFFFF;}
	.st3{clip-path:url(#SVGID_3_);}
	.st4{clip-path:url(#SVGID_5_);}
	.st5{clip-path:url(#SVGID_3_);fill:#0D4060;}
	.st6{filter:url(#Adobe_OpacityMaskFilter_1_);}
	.st7{clip-path:url(#SVGID_7_);fill:#FFFFFF;}
	.st8{filter:url(#Adobe_OpacityMaskFilter_2_);}
	.st9{clip-path:url(#SVGID_3_);mask:url(#SVGID_8_);}
	.st10{clip-path:url(#SVGID_3_);fill:#FFD943;}
	.st11{clip-path:url(#SVGID_3_);fill:#FFAC10;}
	.st12{clip-path:url(#SVGID_3_);fill:#0D4161;}
	.st13{clip-path:url(#SVGID_3_);fill:#F5F5F5;}
	.st14{clip-path:url(#SVGID_28_);fill:#0D4161;}
	.st15{clip-path:url(#SVGID_3_);fill:#0D3F60;}
	.st16{clip-path:url(#SVGID_30_);fill:#0D3F60;}
	.st17{clip-path:url(#SVGID_36_);fill:#0D4161;}
	.st18{clip-path:url(#SVGID_38_);fill:#0D4161;}
	.st19{clip-path:url(#SVGID_40_);fill:#FFFFFF;}
	.st20{fill:#0D4161;}
	.st21{fill:#FFFFFF;}
	.st22{clip-path:url(#SVGID_42_);fill:#FFFFFF;}
	.st23{fill:none;stroke:#0D4161;stroke-width:2.7409;stroke-miterlimit:10;}
	.st24{fill:none;stroke:#0D4161;stroke-width:2.2449;stroke-miterlimit:10;}
	.st25{fill:none;stroke:#0D4161;stroke-width:2.5;stroke-linecap:round;stroke-miterlimit:10;}
	.st26{fill:#0D3F60;}
	.st27{fill:none;stroke:#0D3F60;stroke-width:1.9083;stroke-miterlimit:10;}
</style>
<defs>
	<filter id="Adobe_OpacityMaskFilter" filterUnits="userSpaceOnUse" x="-34017.83" y="-32106.72" width="65536" height="65536">
		<feColorMatrix  type="matrix" values="1 0 0 0 0  0 1 0 0 0  0 0 1 0 0  0 0 0 1 0"/>
	</filter>
</defs>
<mask maskUnits="userSpaceOnUse" x="-34017.83" y="-32106.72" width="65536" height="65536" id="SVGID_1_">
</mask>
<g class="st1">
	<g>
		<defs>
			<rect id="SVGID_2_" x="-34017.83" y="-32106.72" width="65536" height="65536"/>
		</defs>
		<clipPath id="SVGID_3_">
			<use xlink:href="#SVGID_2_"  style="overflow:visible;"/>
		</clipPath>
		<defs>
			
				<filter id="Adobe_OpacityMaskFilter_1_" filterUnits="userSpaceOnUse" x="-34017.83" y="-32106.72" width="65536" height="65536">
				<feColorMatrix  type="matrix" values="1 0 0 0 0  0 1 0 0 0  0 0 1 0 0  0 0 0 1 0"/>
			</filter>
		</defs>
		<mask maskUnits="userSpaceOnUse" x="-34017.83" y="-32106.72" width="65536" height="65536" id="SVGID_1_">
		</mask>
		<g class="st3">
			<g>
				<defs>
					<rect id="SVGID_9_" x="-34017.83" y="-32106.72" width="65536" height="65536"/>
				</defs>
				<clipPath id="SVGID_5_">
					<use xlink:href="#SVGID_9_"  style="overflow:visible;"/>
				</clipPath>
			</g>
		</g>
	</g>
</g>
<path class="st20" d="M12.55,37.63c0.24-0.03,0.5-0.01,0.69-0.25c0.71-0.86,1.42-1.71,2.12-2.57c0.07-0.08,0.11-0.19,0.13-0.3
	c0.1-0.58-0.2-1.18-0.69-1.44c-0.55-0.29-1.17-0.22-1.57,0.24c-0.61,0.69-1.19,1.4-1.76,2.13c-0.33,0.43-0.34,0.93-0.12,1.42
	C11.58,37.36,11.99,37.61,12.55,37.63z M24.84,42.63c-0.57,0-0.92,0.13-1.18,0.43c-0.66,0.77-1.32,1.55-1.95,2.35
	c-0.45,0.57-0.41,1.4,0.06,1.91c0.67,0.73,1.65,0.67,2.3-0.14c0.54-0.67,1.1-1.34,1.66-2c0.42-0.51,0.53-1.08,0.27-1.69
	C25.74,42.92,25.28,42.64,24.84,42.63z M17.13,43.85c-0.01,0.67,0.37,1.09,0.85,1.44c0.6,0.43,1.43,0.32,1.91-0.25
	c0.42-0.49,0.83-0.99,1.24-1.48c0.68-0.83,1.37-1.65,2.05-2.48c0.15-0.18,0.3-0.38,0.39-0.59c0.29-0.71,0.06-1.37-0.61-1.92
	c-0.65-0.54-1.52-0.47-2.06,0.18c-1.14,1.36-2.27,2.73-3.4,4.1C17.26,43.12,17.12,43.46,17.13,43.85z M20.44,36.19
	c-0.01-0.12-0.02-0.24-0.04-0.36c-0.08-0.49-0.41-0.79-0.76-1.1c-0.73-0.64-1.66-0.57-2.27,0.19c-0.36,0.44-0.72,0.87-1.08,1.3
	c-0.87,1.05-1.74,2.09-2.6,3.15c-0.28,0.34-0.37,0.75-0.31,1.2c0.07,0.54,0.41,0.88,0.79,1.21c0.71,0.63,1.65,0.55,2.26-0.18
	c1.12-1.36,2.25-2.72,3.38-4.08C20.13,37.14,20.46,36.76,20.44,36.19z M45.8,34.52c0.6-0.71,3.34-3.42,3.93-4.12
	c0.41-0.49,0.81-0.98,1.2-1.49c0.05-0.06,0.07-0.2,0.04-0.27c-0.41-1.12-1.02-2.23-1.43-3.34c-1.04-2.79-2.09-5.58-3.12-8.38
	c-0.07-0.2-0.15-0.28-0.36-0.24c-1.16,0.18-4.28,2.37-5.45,2.53c-0.48,0.06-0.96,0.16-1.44,0.12c-1.24-0.1-2.48-0.27-3.72-0.38
	c-1.51-0.14-3.03-0.25-4.55-0.37c-1.63-0.13-3.26-0.1-4.87,0.23c-0.85,0.17-1.68,0.4-2.46,0.83c-0.44,0.24-0.75,0.55-0.9,1.07
	c-0.4,1.38-0.99,2.69-1.58,4c-0.27,0.6-0.53,1.2-0.78,1.81c-0.12,0.29-0.07,0.59,0.07,0.87c0.14,0.29,0.33,0.38,0.63,0.29
	c0.76-0.22,1.46-0.57,2.09-1.05c0.89-0.68,1.62-1.51,2.3-2.4c0.15-0.21,0.34-0.35,0.59-0.4c0.99-0.2,1.99-0.4,2.98-0.61
	c0.29-0.06,0.53-0.01,0.77,0.16c2.1,1.47,4.21,2.93,6.31,4.39c2.01,1.4,4.03,2.79,6.04,4.19C43.32,32.79,44.55,33.65,45.8,34.52z
	 M27.15,46.02c0.97,0.43,1.94,0.78,2.96,1c0.63,0.14,1.21,0.07,1.75-0.28c0.22-0.15,0.42-0.35,0.6-0.55
	c0.1-0.12,0.13-0.28-0.05-0.42c-0.57-0.44-1.13-0.89-1.69-1.34c-0.92-0.74-1.83-1.48-2.74-2.23c-0.32-0.26-0.37-0.73-0.16-1.07
	c0.21-0.34,0.63-0.47,0.99-0.3c0.15,0.07,0.28,0.18,0.41,0.28c1.51,1.19,3.01,2.38,4.53,3.56c0.09,0.08,0.22,0.13,0.34,0.14
	c0.48,0.05,0.95,0.04,1.41-0.12c0.57-0.2,1.02-0.54,1.2-1.17c0.06-0.21,0.05-0.36-0.15-0.51c-0.49-0.34-0.98-0.69-1.44-1.08
	c-1.52-1.25-3.03-2.51-4.53-3.78c-0.13-0.11-0.23-0.31-0.26-0.49c-0.08-0.37,0.08-0.67,0.39-0.85c0.31-0.18,0.62-0.14,0.95,0.13
	c0.8,0.65,1.6,1.29,2.39,1.94c1.23,1,2.46,2.01,3.69,3.01c0.14,0.12,0.31,0.24,0.48,0.26c0.59,0.08,1.16-0.01,1.73-0.22
	c0.26-0.1,0.47-0.25,0.57-0.5c0.14-0.35,0.23-0.72,0.31-1.08c0.02-0.07-0.04-0.2-0.11-0.26c-0.31-0.27-0.63-0.52-0.95-0.78
	c-1.32-1.08-2.64-2.17-3.95-3.26c-0.71-0.59-1.42-1.19-2.13-1.77c-0.26-0.22-0.43-0.48-0.38-0.83c0.11-0.68,0.81-0.92,1.35-0.48
	c2.49,2.03,4.97,4.06,7.46,6.09c0.05,0.04,0.1,0.09,0.16,0.1c0.78,0.12,1.5,0.01,2.04-0.65c0.53-0.65,0.7-1.45,0.77-2.27
	c0.01-0.07-0.07-0.18-0.13-0.23c-0.43-0.34-0.86-0.68-1.3-0.99c-2.19-1.53-4.39-3.05-6.58-4.58c-2.61-1.81-5.21-3.63-7.83-5.44
	c-0.11-0.07-0.28-0.11-0.41-0.09c-0.69,0.13-1.38,0.27-2.06,0.43c-0.14,0.03-0.29,0.12-0.39,0.22c-0.46,0.5-0.89,1.04-1.37,1.52
	c-0.93,0.94-2,1.65-3.24,2.06c-0.4,0.13-0.81,0.26-1.24,0.18c-0.95-0.16-1.7-1.01-1.85-2.02c-0.11-0.72,0.07-1.38,0.35-2.01
	c0.49-1.12,1.02-2.23,1.49-3.36c0.31-0.75,0.55-1.52,0.83-2.31c-0.1,0-0.15,0-0.2,0c-0.71,0.07-1.42,0.1-2.12,0.23
	c-1.05,0.2-3.95-2.01-4.81-2.65c-0.4-0.29-0.79-0.6-1.15-0.87c-2.78,2.87-5.54,5.73-8.31,8.59c0.57,0.54,1.16,1.08,1.74,1.63
	c0.22,0.21,0.46,0.43,0.6,0.69c0.45,0.87,2.79,3.8,3.23,4.68c0.23,0.46,0.53,0.88,0.81,1.34c0.24-0.29,0.47-0.55,0.68-0.82
	c1.1-1.47,3.2-1.6,4.44-0.25c0.25,0.27,0.44,0.62,0.66,0.93c1.17-0.65,2.35-0.66,3.48,0.16c1.08,0.79,1.72,1.83,1.6,3.27
	c1.12,0.02,1.97,0.56,2.62,1.42c0.68,0.9,0.8,1.92,0.48,3C27.37,41.35,28.48,44.02,27.15,46.02z M42.41,40.85
	c-0.11,0.34-0.19,0.67-0.3,0.98c-0.38,1.03-1.12,1.61-2.14,1.81c-0.49,0.1-0.99,0.13-1.48,0.17c-0.15,0.01-0.22,0.04-0.26,0.19
	c-0.46,1.44-1.49,2.15-2.87,2.41c-0.35,0.07-0.71,0.06-1.07,0.05c-0.17,0-0.25,0.06-0.29,0.2c-0.22,0.74-0.78,1.17-1.38,1.54
	c-0.93,0.56-1.91,0.66-2.95,0.4c-1.11-0.27-2.18-0.64-3.23-1.12c-0.12-0.05-0.24-0.1-0.39-0.15c-0.28,0.34-0.55,0.67-0.83,1.01
	c-0.79,0.93-1.79,1.32-2.96,1.07c-1.2-0.26-1.97-1.05-2.33-2.27c-0.01-0.03-0.02-0.06-0.03-0.09c0-0.01-0.01-0.01-0.03-0.03
	c-1.03,0.35-2,0.22-2.89-0.45c-0.87-0.66-1.4-1.52-1.43-2.72c-1.24,0.14-2.18-0.45-2.96-1.35c-0.83-0.95-0.98-2.05-0.63-3.26
	c-0.21-0.08-0.44-0.15-0.64-0.26c-1.57-0.78-2.14-2.67-1.29-4.25c0.08-0.14,0.06-0.24-0.03-0.37c-0.89-1.31-3.61-4.71-4.22-6.19
	c-0.05-0.13-0.15-0.26-0.26-0.36c-0.81-0.75-1.62-1.5-2.42-2.26c-0.41-0.39-0.42-0.88-0.02-1.29c1.87-1.93,3.74-3.87,5.6-5.81
	c1.21-1.25,2.43-2.51,3.64-3.77c0.31-0.32,0.65-0.4,1.01-0.16c0.56,0.37,3.06,2.81,3.6,3.21c0.52,0.39,1.05,0.59,1.72,0.48
	c1.5-0.23,3.01-0.33,4.52-0.33c0.14,0,0.28-0.05,0.4-0.1c1.15-0.48,2.35-0.71,3.56-0.85c1.97-0.22,3.94-0.05,5.91,0.13
	c1.47,0.13,2.94,0.27,4.4,0.41c0.57,0.05,1.13,0.17,1.7,0.18c0.52,0.01,1.04-0.07,1.55-0.14c1.1-0.15,4.16-2.34,5.26-2.5
	c0.25-0.04,0.49-0.08,0.74-0.1c0.42-0.04,0.72,0.17,0.87,0.57c0.68,1.83,1.36,3.66,2.04,5.49c0.81,2.18,1.82,4.37,2.64,6.55
	c0.12,0.32,0.24,0.65,0.36,0.97c0.11,0.27,0.12,0.55-0.05,0.79c-0.44,0.62-0.88,1.23-1.35,1.82c-0.73,0.9-3.64,3.8-4.37,4.7
	c-0.1,0.13-0.16,0.33-0.18,0.5c-0.08,0.85-0.26,1.67-0.64,2.44c-0.71,1.43-1.85,2.11-3.39,2.1C42.59,40.85,42.5,40.85,42.41,40.85z"
	/>
</svg>
