<?xml version="1.0" encoding="utf-8"?>
<!-- Generator: Adobe Illustrator 24.1.0, SVG Export Plug-In . SVG Version: 6.00 Build 0)  -->
<svg version="1.1" id="Layer_1" xmlns="http://www.w3.org/2000/svg" xmlns:xlink="http://www.w3.org/1999/xlink" x="0px" y="0px"
	 viewBox="0 0 55.54 57.47" style="enable-background:new 0 0 55.54 57.47;" xml:space="preserve">
<style type="text/css">
	.st0{filter:url(#Adobe_OpacityMaskFilter);}
	.st1{mask:url(#SVGID_1_);}
	.st2{clip-path:url(#SVGID_3_);fill:#FFFFFF;}
	.st3{clip-path:url(#SVGID_3_);}
	.st4{clip-path:url(#SVGID_5_);}
	.st5{clip-path:url(#SVGID_3_);fill:#0D4060;}
	.st6{filter:url(#Adobe_OpacityMaskFilter_1_);}
	.st7{clip-path:url(#SVGID_7_);fill:#FFFFFF;}
	.st8{filter:url(#Adobe_OpacityMaskFilter_2_);}
	.st9{clip-path:url(#SVGID_3_);mask:url(#SVGID_8_);}
	.st10{clip-path:url(#SVGID_3_);fill:#FFD943;}
	.st11{clip-path:url(#SVGID_3_);fill:#FFAC10;}
	.st12{clip-path:url(#SVGID_3_);fill:#0D4161;}
	.st13{clip-path:url(#SVGID_3_);fill:#F5F5F5;}
	.st14{clip-path:url(#SVGID_28_);fill:#0D4161;}
	.st15{clip-path:url(#SVGID_3_);fill:#0D3F60;}
	.st16{clip-path:url(#SVGID_30_);fill:#0D3F60;}
	.st17{clip-path:url(#SVGID_36_);fill:#0D4161;}
	.st18{clip-path:url(#SVGID_38_);fill:#0D4161;}
	.st19{clip-path:url(#SVGID_40_);fill:#FFFFFF;}
	.st20{fill:#0D4161;}
	.st21{fill:#FFFFFF;}
	.st22{clip-path:url(#SVGID_42_);fill:#FFFFFF;}
	.st23{fill:none;stroke:#0D4161;stroke-width:2.7409;stroke-miterlimit:10;}
	.st24{fill:none;stroke:#0D4161;stroke-width:2.2449;stroke-miterlimit:10;}
	.st25{fill:none;stroke:#0D4161;stroke-width:2.5;stroke-linecap:round;stroke-miterlimit:10;}
	.st26{fill:#0D3F60;}
	.st27{fill:none;stroke:#0D3F60;stroke-width:1.9083;stroke-miterlimit:10;}
</style>
<defs>
	<filter id="Adobe_OpacityMaskFilter" filterUnits="userSpaceOnUse" x="-33866.75" y="-32106.72" width="65536" height="65536">
		<feColorMatrix  type="matrix" values="1 0 0 0 0  0 1 0 0 0  0 0 1 0 0  0 0 0 1 0"/>
	</filter>
</defs>
<mask maskUnits="userSpaceOnUse" x="-33866.75" y="-32106.72" width="65536" height="65536" id="SVGID_1_">
</mask>
<g class="st1">
	<g>
		<defs>
			<rect id="SVGID_2_" x="-33866.75" y="-32106.72" width="65536" height="65536"/>
		</defs>
		<clipPath id="SVGID_3_">
			<use xlink:href="#SVGID_2_"  style="overflow:visible;"/>
		</clipPath>
		<defs>
			
				<filter id="Adobe_OpacityMaskFilter_1_" filterUnits="userSpaceOnUse" x="-33866.75" y="-32106.72" width="65536" height="65536">
				<feColorMatrix  type="matrix" values="1 0 0 0 0  0 1 0 0 0  0 0 1 0 0  0 0 0 1 0"/>
			</filter>
		</defs>
		<mask maskUnits="userSpaceOnUse" x="-33866.75" y="-32106.72" width="65536" height="65536" id="SVGID_1_">
		</mask>
		<g class="st3">
			<g>
				<defs>
					<rect id="SVGID_9_" x="-33866.75" y="-32106.72" width="65536" height="65536"/>
				</defs>
				<clipPath id="SVGID_5_">
					<use xlink:href="#SVGID_9_"  style="overflow:visible;"/>
				</clipPath>
			</g>
		</g>
	</g>
</g>
<g>
	<path class="st20" d="M51.29,27.17h-0.82v-7.06c0-2.74-2.33-4.94-5.11-4.94H39.3l0.13-0.05l-1.81-4.64
		c-0.71-1.82-2.97-2.67-4.93-2.16L7.43,15.17l-0.84,0.24c-2.07,0.62-3.62,2.46-3.62,4.7v24.62c0,2.75,2.33,4.94,5.11,4.94h37.28
		c2.78,0,5.11-2.19,5.11-4.94v-6.06h0.82c1.16,0,2.18-0.91,2.18-2.11v-7.28C53.48,28.08,52.46,27.17,51.29,27.17z M33.07,9.77
		c1.41-0.37,2.78,0.31,3.15,1.25l1.62,4.15H12.53L33.07,9.77z M48.98,44.73c0,1.86-1.6,3.44-3.61,3.44H8.09
		c-2.01,0-3.61-1.58-3.61-3.44V20.11c0-1.86,1.6-3.44,3.61-3.44h37.28c2.01,0,3.61,1.58,3.61,3.44v7.06h-8.65h-0.03l-0.03,0
		l-1.43,0.12c-3.2,0.03-5.85,2.5-5.85,5.63c0,3.13,2.65,5.6,5.85,5.63l1.43,0.12l0.03,0h0.03h8.65V44.73z M51.29,37.17H40.36
		l-1.41-0.12l-0.06,0.75l0,0l0.06-0.75l-0.03,0h-0.03c-2.48,0-4.41-1.89-4.41-4.13c0-2.24,1.93-4.13,4.41-4.13h0.03l0.03,0l1.4-0.12
		h10.94c0.41,0,0.68,0.31,0.68,0.61v7.28C51.98,36.85,51.71,37.17,51.29,37.17z"/>
</g>
<circle class="st20" cx="39.94" cy="33.23" r="2.08"/>
</svg>
