<svg id="Layer_1" data-name="Layer 1" xmlns="http://www.w3.org/2000/svg" viewBox="0 0 205.71 260.53"><defs><style>.cls-1{fill:#00a1cd;}.cls-2{fill:#56c5d0;}.cls-3{fill:#504b48;}.cls-10,.cls-11,.cls-4,.cls-9{fill:none;stroke-miterlimit:10;}.cls-4{stroke:#0d4060;stroke-width:2.03px;}.cls-11,.cls-4{stroke-linecap:round;}.cls-5{fill:#0d4060;}.cls-6{fill:#fff;}.cls-7{fill:#ed1651;}.cls-8{fill:#f1eec8;}.cls-10,.cls-9{stroke:#e5dfa0;}.cls-10{stroke-width:0.89px;}.cls-11{stroke:#0f8ab2;stroke-width:4.81px;}.cls-12{fill:#a2cced;}</style></defs><polyline class="cls-1" points="75.92 188.87 84.73 251.48 89.84 251.48 98.65 189.06"/><polyline class="cls-1" points="105.57 188.57 114.37 251.18 119.49 251.18 128.29 188.77"/><polygon class="cls-2" points="89.93 249.83 92.6 231.9 81.34 231.9 84.42 249.56 89.93 249.83"/><polygon class="cls-2" points="119.39 249.83 122.06 231.9 111.8 231.9 113.88 249.56 119.39 249.83"/><path class="cls-3" d="M95.78,251.77a12.09,12.09,0,0,0-24.17,0"/><path class="cls-3" d="M134.89,251.77a12.09,12.09,0,0,0-24.17,0"/><path class="cls-1" d="M138.27,185.23c10-11.26,14.39-26.31,18.83-40.4,5.68-18.05,11.36-36.33,15.86-54.71,4.15-16.91,9.15-35.61,3.24-52.72-6-17.55-21.09-25.89-38.69-26.25-15.64-.31-31.29-.63-46.94-.47-12,.11-30-2.5-40.73,3.78-12,7-21.51,17-24.37,31-2.26,11-.77,22.41,1.71,33.35C33.9,108.32,45,137.05,56,165.19c8.87,22.65,25.38,33.93,42.86,33.93,10,0,20.69-.51,29.73-5.3C132.64,191.68,135.17,188.7,138.27,185.23Z"/><line class="cls-4" x1="76.89" y1="55.19" x2="91.53" y2="52.91"/><line class="cls-4" x1="128.47" y1="55.19" x2="113.84" y2="52.91"/><path class="cls-5" d="M116.12,79.23s-2.4,7.73-14.24,7.49-12.77-7.49-12.77-7.49Z"/><path class="cls-6" d="M108.7,69.71c0-5.39,4.66-9.75,10.4-9.75s10.4,4.36,10.4,9.75"/><path class="cls-5" d="M114.63,69.71a4.53,4.53,0,1,1,9.05,0"/><path class="cls-6" d="M77.78,69.71c0-5.39,4.68-9.75,10.45-9.75s10.46,4.36,10.46,9.75"/><path class="cls-5" d="M83.71,69.71a4.53,4.53,0,1,1,9.05,0"/><path class="cls-5" d="M87.28,60h0Z"/><path class="cls-5" d="M120,60h0Z"/><rect class="cls-7" x="61.76" y="124.93" width="80.08" height="45.91"/><path class="cls-8" d="M65.41,121.85v47.46s22.13-9,36.35,0V121.85S81.22,113.87,65.41,121.85Z"/><path class="cls-8" d="M101.76,121.85v47.46s22.13-9,36.35,0V121.85S117.56,113.87,101.76,121.85Z"/><line class="cls-9" x1="101.76" y1="121.85" x2="101.76" y2="168.22"/><path class="cls-10" d="M106.74,129.28s14-7.06,26.39,0"/><path class="cls-10" d="M106.74,136.48s14-7.06,26.39,0"/><path class="cls-10" d="M106.74,143.29s14-7.06,26.39,0"/><path class="cls-10" d="M106.74,151.3s14-7.06,26.39,0"/><path class="cls-10" d="M106.74,158.64s14-7,26.39,0"/><path class="cls-10" d="M70.4,129s14-7,26.38,0"/><path class="cls-10" d="M70.4,136.24s14-7.06,26.38,0"/><path class="cls-10" d="M70.4,143.05s14-7.06,26.38,0"/><path class="cls-10" d="M70.4,151.06s14-7.06,26.38,0"/><path class="cls-10" d="M70.4,158.4s14-7.05,26.38,0"/><path class="cls-11" d="M160.81,123.71s25.92,34.92-18.21,40.83"/><path class="cls-12" d="M149,154.37c2.59.35,5,2.73,5.8,6.14,1.06,4.33-.79,8.75-4.09,9.8l-8.17,2.61-.17.05-.09,0-11,3.53c-.86.27-1.8-.43-2.07-1.56a2.1,2.1,0,0,1,1.07-2.57l6-1.91a9.4,9.4,0,0,1-.93-1.54l-7.2,2.3c-.86.28-1.79-.43-2.07-1.56a2.1,2.1,0,0,1,1.07-2.56l7.19-2.3a11.61,11.61,0,0,1,.08-1.68l-6.18,2c-.86.28-1.8-.42-2.07-1.56a2.1,2.1,0,0,1,1.07-2.56l10.3-3.29a4.35,4.35,0,0,1,1-.47l-2.17-.16a2.15,2.15,0,0,1-1.67-2.24h0c0-1.17.72-2.07,1.63-2"/><path class="cls-11" d="M44.25,125.83s-25.92,34.92,18.21,40.83"/><path class="cls-12" d="M56.09,156.49c-2.59.35-5,2.73-5.8,6.14-1.06,4.33.79,8.75,4.09,9.8L62.55,175l.17,0,.09,0,11,3.53c.86.27,1.8-.43,2.07-1.56a2.1,2.1,0,0,0-1.07-2.57l-6-1.92a8.9,8.9,0,0,0,.93-1.53l7.19,2.3c.87.27,1.8-.43,2.08-1.56A2.12,2.12,0,0,0,78,169.24L70.76,167a9.28,9.28,0,0,0-.08-1.68l6.19,2c.86.28,1.79-.42,2.07-1.56a2.11,2.11,0,0,0-1.07-2.56l-10.3-3.29a5.15,5.15,0,0,0-1-.48l2.16-.15A2.15,2.15,0,0,0,70.44,157h0c0-1.17-.72-2.07-1.63-2"/><polygon class="cls-1" points="165.54 117.36 157.98 142.03 147.84 111.26 165.54 117.36"/><polygon class="cls-1" points="38.76 119.12 47.33 142.79 56.46 113.02 38.76 119.12"/></svg>