<svg xmlns="http://www.w3.org/2000/svg" viewBox="0 0 607.71 797.02"><defs><style>.cls-1,.cls-15,.cls-24,.cls-25,.cls-26,.cls-28,.cls-29,.cls-30{fill:none;stroke-linecap:round;stroke-miterlimit:10;}.cls-1{stroke:#188ab2;stroke-width:12.99px;}.cls-2{fill:#a2cced;}.cls-3{fill:#888884;}.cls-4{fill:#636363;}.cls-5{fill:#323333;}.cls-6{fill:#454546;}.cls-7{fill:#cceaed;}.cls-8{fill:#c6cacb;}.cls-9{fill:#9c9e9f;}.cls-10{fill:#249045;}.cls-11{fill:#e69227;}.cls-12{fill:#761415;}.cls-13{fill:#a51e23;}.cls-14{fill:#00a1cd;}.cls-15{stroke:#0d4161;stroke-width:4.94px;}.cls-16{fill:#0d4161;}.cls-17{fill:#fff;}.cls-18{fill:#ed1651;}.cls-19{fill:#ffcd05;}.cls-20{fill:#02a1cd;}.cls-21{fill:#5e63ad;}.cls-22{fill:#514c49;}.cls-23{fill:#f8e5b9;}.cls-24{stroke:#939393;stroke-width:2.47px;}.cls-25,.cls-26,.cls-30{stroke:#0f8ab2;}.cls-25{stroke-width:5.91px;}.cls-26{stroke-width:3.9px;}.cls-27{fill:#0d4060;}.cls-28{stroke:#0d4060;stroke-width:2.17px;}.cls-29{stroke:#231f20;stroke-width:1.15px;}.cls-30{stroke-width:6.49px;}</style></defs><g id="Layer_1" data-name="Layer 1"><path class="cls-1" d="M196.05,546.74s-49.43-.46-68.33-15.72-37.57-42.68-37.57-42.68"/><path class="cls-2" d="M59.68,473.84l1.5,1.26c.47-1.3,1,1.54,1.76.35l2.15-4.18a1.07,1.07,0,0,0,.84-.86c.23-1-3.21-3.22-3-4.21.35.19.6.24.63-.14l6.19-1.92a24.32,24.32,0,0,1,3.38-1.89l-3.49-2.88a.42.42,0,0,0,0-.15c.24-3.42,1.12-5.54,4-7.21l14.43,10.21a14.45,14.45,0,0,1,2.22,1.38l-2.56-4.73a4.83,4.83,0,0,1,2.2-6.13l.2-.14a4.21,4.21,0,0,1,5.88,1l13.88,27.72a17.45,17.45,0,0,1-4.51,19.31c-7.15,7.36-18.29,9-24.76,3.51L66.12,488.48l-1.71,1.94h-.22l1.37-2.27a.9.9,0,0,0-.37-.9,49.25,49.25,0,0,1-6-6.74,1,1,0,0,0-.2-.64c-.37-.46-.71-.94-1-1.44a25.57,25.57,0,0,1-1.71-4.6c.52-1.27,2.25,2.94,2.79,1.68A5.86,5.86,0,0,0,59.68,473.84Z"/><path class="cls-3" d="M60.25,496.42a.39.39,0,0,1-.16.07.39.39,0,0,0,.14-.12.16.16,0,0,0,.08-.1l-.08.1Zm-1.86,1.45a.38.38,0,0,1,.3.15.41.41,0,0,0-.31-.19ZM58,499.21l0-.06Zm-3,2,0-.19Zm.62-.88,0,.09Zm2.65,1a1.85,1.85,0,0,1-.49.43,1.44,1.44,0,0,0,.5-.45,1.21,1.21,0,0,0,.22-.57,1.21,1.21,0,0,1-.22.57Zm-5,13.08a.2.2,0,0,0,.24,0,.2.2,0,0,1-.23,0,.39.39,0,0,1-.13-.28.39.39,0,0,0,.13.28Zm.46-.13L54,514a3.89,3.89,0,0,0-.36.26l-.14.14A.46.46,0,0,1,53.68,514.24Zm.38-.32c.39-.31.73-.57,1.12-.86.13-.11.26-.28.39-.41a5,5,0,0,1-.39.41c-.35.3-.72.58-1.08.87Zm1.62-1.4a.5.5,0,0,1,.4-.08.47.47,0,0,0-.4.09Zm.57,0a1.23,1.23,0,0,1,.46.91,1.25,1.25,0,0,0-.47-.88Zm-.16,3.32-.33.27.32-.23Zm-.56.43-.08,0a.31.31,0,0,0-.09.11l.09-.11Zm.88,2.09a.8.8,0,0,0-.07.2.85.85,0,0,1,.06-.17Zm-.1.7v0Zm0,.66a3.41,3.41,0,0,1-.23.68,3.94,3.94,0,0,0,.22-.63l0-.11,0,.11Zm-.58,1.15a1.81,1.81,0,0,1-.46.41,1.65,1.65,0,0,0,.45-.38Zm-3-3.88c.4-.23.55-.45.37-.69.18.27,0,.49-.37.73a2.25,2.25,0,0,0-1.25,1.7,2.56,2.56,0,0,0,0,.78l.07.3-.07-.3a2.54,2.54,0,0,1,0-.78,2.25,2.25,0,0,1,1.25-1.7Zm-.48-3.88-.08.25a4,4,0,0,0-.14,1.14,4,4,0,0,1,.14-1.14Zm.21-.4-.09.15Zm.09-.08.14-.12a1,1,0,0,0-.16.12Zm.17-.14a1,1,0,0,1,.57-.08,1.49,1.49,0,0,1,.3.09l-.39,1,.39-1-.3-.09a.86.86,0,0,0-.59.09Zm2-12a.51.51,0,0,1,0-.1l-.07.11Zm3.32-2.68.23.05Zm.54-4.3a5.19,5.19,0,0,0,.49-.43,4.06,4.06,0,0,1-.5.43Zm-.79.47-.09.09Zm1.88-1.91a3.36,3.36,0,0,0,.11-.94,3.24,3.24,0,0,1-.13.94Zm2.73-3.88a.75.75,0,0,0-.62-.26c.24,0,.51.07.57.28Z"/><path class="cls-1" d="M133.67,645.78s3.82-33,13.46-55.34,46.49-34.38,46.49-34.38"/><path class="cls-4" d="M122.8,408c-2.71,2-5.34,4.17-8.15,6-1.86,1.24-2.26,2.59-2.18,4.82.13,3.65,1.55,5.6,5,6.74,2.09.68,3.55.77,5.24-.72,1.94-1.69,4.1-3.12,6.19-4.63a5.15,5.15,0,0,1,2.1-.9c-1.38,5.3-2.76,10.53-7.2,14.17a5.13,5.13,0,0,1-2.63,1.13c-6.73.59-11.81,4.17-15.92,9.09q-23.84,28.56-47.41,57.34a3.7,3.7,0,0,0-.68,2.6c1.16,7.26-3.46,13.58-10.6,14.31a11.93,11.93,0,1,1-.56-23.8,3.22,3.22,0,0,0,3-1.39Q60.36,479,71.76,465.25c7.84-9.42,15.66-18.87,23.63-28.19a26.35,26.35,0,0,0,6.35-14.49c.25-2.22.58-4.43.9-6.63a8.2,8.2,0,0,1,4.88-6.59c4.82-2.29,9.92-2.31,15-2ZM46.59,499c-1.42,0-3.35-.62-4.17.08-1.86,1.58-4.12,3.65-4.46,5.8s1,5,2.45,6.9c.83,1.1,3.28,1,5,1.36,1,.18,2.46.53,3,0,1.78-1.74,4.16-3.65,4.54-5.8s-1.11-4.84-2.37-6.94C50,499.53,48,499.49,46.59,499Z"/><path class="cls-2" d="M68.29,452.19a5.15,5.15,0,0,1,2-.76c5-.68,9.55,6,12.09,9.65l.18.28a4.24,4.24,0,0,1-1.49,5.79A4.9,4.9,0,0,1,74.6,467c-1.25-1.52-2.51-3-3.75-4.55-1.39-1.68-4.93-4.64-4.69-7A4.39,4.39,0,0,1,68.29,452.19Z"/><path class="cls-2" d="M61.86,461.17a5.15,5.15,0,0,1,2-.76c5-.68,9.55,6,12.08,9.65.07.09.13.19.19.28a4.23,4.23,0,0,1-1.5,5.78,4.89,4.89,0,0,1-6.5-.18c-1.25-1.52-2.51-3-3.75-4.55-1.4-1.69-4.94-4.64-4.7-7A4.47,4.47,0,0,1,61.86,461.17Z"/><path class="cls-2" d="M56.23,471.26a5.25,5.25,0,0,1,2.05-.76c5-.68,9.54,6,12.08,9.65.07.09.12.19.18.28a4.22,4.22,0,0,1-1.49,5.78,4.9,4.9,0,0,1-6.51-.18c-1.24-1.52-2.5-3-3.74-4.55-1.4-1.69-4.94-4.64-4.7-7A4.42,4.42,0,0,1,56.23,471.26Z"/><path class="cls-5" d="M121.67,690.12l-2.61-26.54a4.8,4.8,0,0,1,4.31-5.25l52.82-5.15a4.82,4.82,0,0,1,5.27,4.31L184.07,684a4.8,4.8,0,0,1-4.31,5.25l-52.82,5.15A4.82,4.82,0,0,1,121.67,690.12Z"/><path class="cls-6" d="M133.67,688.47l-2.53-25.57a1.09,1.09,0,0,1,1-1.2l43.73-4.26a1.09,1.09,0,0,1,1.2,1L179.59,684a1.09,1.09,0,0,1-1,1.2l-43.72,4.26A1.1,1.1,0,0,1,133.67,688.47Z"/><path class="cls-2" d="M119.36,643.58q-1.12,10.88-2.46,21.71-.7,5.69-1.43,11.36c-.4,3.09-1.51,6.73-.36,9.76,1.34,3.57,8.27,4.25,8.73-.21l1.35-13.07a19.33,19.33,0,0,0,3.53,1.23L127.1,690c-.2,1.88,1.63,3.48,4.06,3.55s4.59-1.4,4.78-3.28l1.62-15.67a23.1,23.1,0,0,0,3.39-.9l-1.39,13.46c-.2,1.88,1.64,3.48,4.07,3.56s4.58-1.4,4.78-3.29l2.19-21.3a.92.92,0,0,1-.17-.94,20.49,20.49,0,0,1,.77-2c0-.12.05-.24.07-.35l0,.12c1.55-3.53,5.65-6.73,7.48-10.12l-6.16-12.7c-1.83-5.11-7.71-8.95-15-9.17C128.33,630.71,120.11,636.37,119.36,643.58Z"/><path class="cls-7" d="M155.44,267.49c8.8,0,16.11,5.91,17.29,14.29a14.07,14.07,0,0,1-4,11.93,18.14,18.14,0,0,1-23.62,2.17c-4.87-3.64-7.4-8.5-6.42-14.62,1-6.51,5.17-10.61,11.31-12.68A40.77,40.77,0,0,1,155.44,267.49Z"/><path class="cls-7" d="M184.22,300.39a7.87,7.87,0,0,1,8.2,7.68c0,4.14-3.65,7.64-8.12,7.7a8,8,0,0,1-8.2-7.62A7.9,7.9,0,0,1,184.22,300.39Z"/><path class="cls-8" d="M549,526.54s-15-30.75-18.56-31.84-9.8-.1-9.8-.1l18.81,38.32Z"/><path class="cls-1" d="M408,545.23s38.36,9.51,60.31-.89,46.53-32.68,46.53-32.68"/><path class="cls-2" d="M494,507.28c-4,3.74-5.12,10.67-2.39,17.47,3.46,8.65,11.93,13.92,18.82,11.71s13.87-4.38,20.84-6.47c3.65-1.1,7.31-2.17,11-3.25,3-.88,6.75-1.31,9.08-3.59,2.72-2.66.58-9.29-3.69-7.93l-12.49,4a18.5,18.5,0,0,0-.28-3.74l15-4.81c1.8-.58,2.53-2.9,1.63-5.16s-3.12-3.64-4.93-3.07l-15,4.82a21.89,21.89,0,0,0-2.17-2.75l12.87-4.13c1.8-.58,2.54-2.9,1.63-5.17s-3.12-3.63-4.92-3.06l-21.45,6.89a11.22,11.22,0,0,0-2.21.37l5.28-4.82c1.45-1.22,1.52-3.84.12-5.84s-5.53-.7-7,.51Z"/><path class="cls-1" d="M412.91,553.66s33.67,19.23,38.6,43.05,2,56.92,2,56.92"/><path class="cls-8" d="M585.66,606.61s-25.22-52.1-37.56-81.51a68.85,68.85,0,0,1-10.68,3.07c3.47,11.82,10.64,27.17,10.78,27.93,1.39,7.67-20.26,20.42-37,9.59-13.18-8.56,5.36-60.83,5.36-60.83s3.54-9.52,9.54-8.58c1.39-1.79,4.11-.1,5.62-1.81-8.62-2.1-14-.47-14-.47-18.32,13.41-28.7,76.13-33.66,94.36s-1.89,63.72,18.39,76.4c5.76,3.6-.3.53,53.8-6.72C599.35,652.29,585.66,606.61,585.66,606.61Z"/><path class="cls-9" d="M513.27,515.24s-14.12,47.2-9.79,62.86,46.82,4.24,49-2.64-15.1-47.3-15.1-47.3,6.55,30.1,3.54,34-4.76,8.28-19.49,6.24-12.4-6.38-11.41-17.21S513.27,515.24,513.27,515.24Z"/><path class="cls-10" d="M523.31,553.08c1.52-.22,4.16,2.82,5.64,4.71.06-.15.11-.31.17-.46-1.58-3.29-4.43-9.64-2.81-9.07,1.44.5,3.08,3.56,4,5.62.14-.33.26-.66.39-1-1.64-4.94.13-11.91.13-11.91l.93,2.22a18.59,18.59,0,0,1,.8,5.25c1.23-2.67,2.48-4.66,3.59-5.43,5.15-3.49,7.53-1.46,7.53-1.46s-7.17,5-8.11,7.52l-.94,2.58s9.25-3.67,9.53-1.91-10.15,6-10.15,6,8.76-1.21,9.65,1.74-11.43.76-11.43.76l-.26,1.62a7.86,7.86,0,0,1,3.46-.11c4.37.73-1.45,3.89-4.33,5.3l-3,18.46-6.69,0,2.21-7.7s1.75-6.93,4.13-14.46C525.69,558.76,521.65,553.31,523.31,553.08Z"/><path class="cls-11" d="M526.74,585.6s-1.24-24,24.22-21.45c0,0,4.14,8.78,1.57,11.31S542.35,584.49,526.74,585.6Z"/><path class="cls-12" d="M513.26,584.48a8.69,8.69,0,1,0-10-7.12A8.68,8.68,0,0,0,513.26,584.48Z"/><path class="cls-13" d="M527.18,580.26a8.66,8.66,0,1,0-17.08,2.89l.25,1.47c4.6,1.64,9.72,1.66,15.61,1.39C526.64,584.5,527.48,582,527.18,580.26Z"/><path class="cls-14" d="M329.59,680.38c-25.74,3.62-25-.15-48.66-.15-37.81,0-72.84-30.17-84.07-66.21-15-48.17-22.84-99.89-33.54-149.32-5.07-23.46-12.22-45.18-8.68-69.76a109.33,109.33,0,0,1,4.13-18c7.34-22.83,28.37-46.37,48.58-57.09,8.58-4.54,29.14-7.1,39.28-7.1,42.62,0,78.66.11,121.29.24,15.62.05,33.37.42,46.72,10.57,14.62,11.11,28.85,26.93,35.76,45,15.91,41.61-1.29,87.18-10.25,128.63q-9.33,43.07-18.65,86.14c-5.4,25.07-13.68,49.48-29.43,69.74C378.74,670.23,349.69,677.56,329.59,680.38Z"/><path class="cls-15" d="M254.23,396.15s10.22-8.6,20.43-15.78"/><path class="cls-15" d="M359.92,395.08s-5.42-4-18.92-15.07"/><path class="cls-16" d="M309.1,455.79c14.87,0,26.93-3.91,26.93-8.73s-12.06-8.73-26.93-8.73-26.93,3.91-26.93,8.73S294.23,455.79,309.1,455.79Z"/><path class="cls-17" d="M281.35,426.16a15.89,15.89,0,1,0-15.85-15.88A15.87,15.87,0,0,0,281.35,426.16Z"/><path class="cls-16" d="M277.21,414.43c6.06,4.62,12.89-2.24,8.28-8.3C279.45,401.51,272.6,408.36,277.21,414.43Z"/><path class="cls-17" d="M334.71,426.16a15.89,15.89,0,1,0-15.85-15.88A15.86,15.86,0,0,0,334.71,426.16Z"/><path class="cls-16" d="M330.57,414.43c6.05,4.61,12.88-2.24,8.28-8.3C332.79,401.51,326,408.37,330.57,414.43Z"/><path class="cls-18" d="M337.74,545.57H278.05a9.48,9.48,0,0,0-6.71,2.78L259,560.73a9.49,9.49,0,0,0-.61,12.75l42.23,51.18a9.49,9.49,0,0,0,14.64,0l42.23-51.18a9.48,9.48,0,0,0-.61-12.75l-12.38-12.38A9.48,9.48,0,0,0,337.74,545.57Z"/><path class="cls-19" d="M329.08,553.66H287a11.69,11.69,0,0,0-8.07,3.21l-5.55,5.34c-4.16,4-4.48,9.06-.73,13.41l30.5,35.49a6.48,6.48,0,0,0,9.82,0l30.51-35.49c3.74-4.35,3.42-9.42-.73-13.41l-5.56-5.34A11.67,11.67,0,0,0,329.08,553.66Z"/><path class="cls-18" d="M311.66,559.15l2.46,7.51a3.42,3.42,0,0,0,3.26,2.36l7.9,0a3.44,3.44,0,0,1,2,6.21l-6.38,4.65a3.42,3.42,0,0,0-1.24,3.83l2.42,7.52a3.43,3.43,0,0,1-5.28,3.83l-6.4-4.63a3.42,3.42,0,0,0-4,0l-6.4,4.63a3.43,3.43,0,0,1-5.28-3.83l2.42-7.52a3.42,3.42,0,0,0-1.24-3.83l-6.38-4.65a3.44,3.44,0,0,1,2-6.21l7.91,0a3.42,3.42,0,0,0,3.25-2.36l2.46-7.51A3.43,3.43,0,0,1,311.66,559.15Z"/><path class="cls-20" d="M318.24,673.37l12,79h14.41l12.78-88.86"/><path class="cls-20" d="M255.45,673.12l12,79.23h14.41l12-79"/><path class="cls-21" d="M344.54,772l-12.83,7.79L326.88,734h22.56Z"/><path class="cls-21" d="M281.6,780.63l-14.13-9.09-3.61-38h21.27Z"/><path class="cls-22" d="M330.46,785.53a24.24,24.24,0,1,1,48.47,0"/><path class="cls-22" d="M235.35,786.34a24.24,24.24,0,1,1,48.47,0"/><path class="cls-23" d="M529.34,653.59l-6,59.65s-13.26-7.69-27.75-4.89c-11.14,2.16-19.23,11.5-45.1,11.72-24.5.19-47.35-9.46-47.35-9.46l9-60.43,21.08,8.93s15.5,4.69,26.93-.59S495.27,634.11,529.34,653.59Z"/><path class="cls-24" d="M420.62,705.57l3-24.12"/><path class="cls-24" d="M431.93,708.54l5.41-42.23"/><path class="cls-24" d="M442.38,709.08l6.87-40"/><path class="cls-24" d="M453.79,709.07l4.67-38.56"/><path class="cls-24" d="M463.35,707l5.26-43.21"/><path class="cls-24" d="M471.52,704.78l4.89-46.14"/><path class="cls-24" d="M481.49,701.23,486,656.91"/><path class="cls-24" d="M491.75,698.81l4.5-44.32"/><path class="cls-24" d="M502.66,698.36l4.52-44.31"/><path class="cls-2" d="M452.63,638.34c-7.19-1.26-13.72,1.31-16.54,5.95l-8.6,11.19c1.11,3.69,4.47,7.66,5.29,11.42l.06-.11c0,.11,0,.24,0,.36.14.7.26,1.41.35,2.14a1,1,0,0,1-.36.89l-2.15,21.3c-.2,1.89,1.62,3.77,4,4.18s4.52-.78,4.7-2.66l1.36-13.46a23,23,0,0,0,3.14,1.56l-1.58,15.67c-.19,1.89,1.62,3.77,4,4.19s4.51-.79,4.7-2.67l1.58-15.67a18.54,18.54,0,0,0,3.7-.5L455,695.2c-.44,4.47,6.48,5.19,8.51,2,1.74-2.74,1.39-6.53,1.62-9.63.28-3.81.59-7.61.89-11.42.6-7.26,1.24-14.51,2-21.76S461.8,639.94,452.63,638.34Z"/><path class="cls-7" d="M270.37,24c32.69.73,58.25,10.31,78.24,30.83,2.42,2.48,4.38,2.61,7.09.37,31.32-25.93,81-17.57,99.77,19.28,1.46,2.86,3.25,4.07,6.83,4.34,33.24,2.57,54.64,23.11,60.41,49.43,5.54,25.28.73,45.37-21.85,60.75a89.86,89.86,0,0,1-11.44,6.11c-2.26,1.1-3.21,2.49-2.95,4.8,3.77,33.24-23.42,64.07-60.37,68.57a78.35,78.35,0,0,1-44.43-7.17c-3.53-1.7-4.83-1.39-7.31,1.43-16.36,18.59-37.22,31.54-61.89,36.05-30.41,5.57-72.44-1.76-91.21-28.83-4.73-6.82-4.88-12.52-13.73-11.07-6.91,1.13-13.52,2.1-20.56,1.65-13.7-.88-26.89-5.72-38.43-13.06-22-14-39.34-37.34-45-63-9.89-44.82,23.66-85.83,70.53-92.35,2.48-.35,3.88-1.37,4.53-3.67,9.81-34.77,35.69-54.52,73.88-62.44C259.12,24.61,266.07,24.42,270.37,24Z"/><path class="cls-25" d="M314.17,172.22s-10.26-7.29-19.63-13.64a30.89,30.89,0,0,1-12.19-18.33c-2-8-3.66-17.44-1.89-20.87"/><path class="cls-2" d="M270.19,97.17a2.08,2.08,0,0,1,4.14-.23l.38,7.11a8,8,0,0,1,1.67-.7l-.46-8.52a2.08,2.08,0,0,1,4.14-.23l.46,8.52a8.79,8.79,0,0,1,1.56.46l-.39-7.32a2.08,2.08,0,0,1,4.13-.23l.66,12.2a6.58,6.58,0,0,1,.22,1.19l.66-2.38a2.12,2.12,0,0,1,2.51-1.38h0a1.84,1.84,0,0,1,1.5,2.25l-3.54,12.71a1.91,1.91,0,0,1-.93,1.14,7.93,7.93,0,0,1-7.18,5.13c-4.34.23-8.07-2.78-8.29-6.7l-.52-9.67a1.33,1.33,0,0,0,0-.2s0-.07,0-.1Z"/><path class="cls-14" d="M390.13,247c-13.2,1.81-12.84-.07-25-.07-19.39,0-37.36-15-43.12-33-7.7-24-11.72-49.82-17.2-74.48-2.61-11.7-6.27-22.54-4.46-34.8a53.57,53.57,0,0,1,2.12-9c3.77-11.38,14.55-23.13,24.92-28.47,4.4-2.27,14.95-3.54,20.15-3.54,21.86,0,40.35,0,62.21.12,8,0,17.12.21,24,5.27,7.5,5.54,14.8,13.43,18.34,22.43,8.17,20.75-.66,43.49-5.26,64.16q-4.79,21.48-9.56,43c-2.77,12.51-7,24.68-15.1,34.79C415.34,241.93,400.44,245.58,390.13,247Z"/><path class="cls-26" d="M267.4,174.45c-9,30.38-34.33,17-34.33,17"/><path class="cls-14" d="M216.61,102.69l-10.76-.3A35.62,35.62,0,0,0,169.22,137l-.08,2.5c-.26,2.49-.42,5-.49,7.41L166.78,213a35.63,35.63,0,0,0,34.62,36.63l10.75.31a35.64,35.64,0,0,0,36.64-34.62l.07-2.49c.27-2.49.42-5,.49-7.42l1.87-66.09A35.64,35.64,0,0,0,216.61,102.69Z"/><path class="cls-27" d="M213.59,163.5a2.85,2.85,0,0,1-1.51-5.28c1.8-1.11,2.81-2.36,6.26-2.19A18.71,18.71,0,0,1,227,158.7a2.85,2.85,0,0,1-1.9,5.11l-2.34-.84a10.81,10.81,0,0,0-6.7-.19Z"/><path class="cls-28" d="M197.9,131.62s5.16,2.85,11.1,6.28"/><path class="cls-28" d="M243,132.3l-11,5.6"/><path class="cls-29" d="M214.1,143a16.27,16.27,0,1,1-15.83-16.69A16.28,16.28,0,0,1,214.1,143Z"/><path class="cls-29" d="M257.71,144.12a16.27,16.27,0,1,1-15.84-16.7A16.27,16.27,0,0,1,257.71,144.12Z"/><path class="cls-29" d="M214.12,141s5.5-7.2,10.59.28"/><path class="cls-17" d="M227.92,147.63c.06-4.91,4.35-8.85,9.59-8.79s9.45,4.09,9.39,9"/><path class="cls-17" d="M191.2,147.1c.06-4.91,4.37-8.85,9.64-8.79s9.5,4.09,9.45,9"/><path class="cls-17" d="M341.43,117.66c0-5.62-4.86-10.18-10.86-10.18s-10.86,4.56-10.86,10.18"/><path class="cls-27" d="M333.2,117.66a4.73,4.73,0,0,0-9.45,0"/><path class="cls-17" d="M355.24,117.66c0-5.62,4.89-10.18,10.92-10.18s10.92,4.56,10.92,10.18"/><path class="cls-27" d="M366.81,117.66a4.73,4.73,0,0,0-9.45,0"/><path class="cls-27" d="M356.81,136.86a3.49,3.49,0,0,0,3.2-5.37,15.88,15.88,0,0,0-12.6-7.74c-6.07-.44-9.61,1.8-11.64,4.22a3.49,3.49,0,0,0,2.44,5.72l4.3-.63a15.8,15.8,0,0,1,9,1.32Z"/><path class="cls-27" d="M203.2,138.2a5.33,5.33,0,0,0,6.94,7.39A9.16,9.16,0,0,0,203.2,138.2Z"/><path class="cls-27" d="M239.82,139.3a5.33,5.33,0,0,0,6.94,7.39A9.14,9.14,0,0,0,239.82,139.3Z"/><path class="cls-30" d="M433.08,124.21s3.91,40.46-33.37,53.73"/><path class="cls-26" d="M149.47,170.33c4.47,25.65,29,25.09,29,25.09"/><path class="cls-2" d="M141.69,157.26a1.26,1.26,0,0,1,2.46-.48L145,161a4.9,4.9,0,0,1,.94-.57l-1-5.08a1.26,1.26,0,0,1,2.46-.47l1,5.08a4.63,4.63,0,0,1,1,.14l-.85-4.37a1.27,1.27,0,0,1,2.47-.48l1.41,7.28a4,4,0,0,1,.22.69l.21-1.48a1.29,1.29,0,0,1,1.39-1h0a1.12,1.12,0,0,1,1.09,1.23l-1.07,7.93a1.17,1.17,0,0,1-.46.76,4.8,4.8,0,0,1-3.89,3.68,4.6,4.6,0,0,1-5.54-3.33l-1.12-5.77s0-.08,0-.12a.14.14,0,0,1,0-.06Z"/><path class="cls-2" d="M277.29,163.17a1.26,1.26,0,0,0-2.32-1l-1.65,4a5.2,5.2,0,0,0-.81-.74l2-4.78a1.27,1.27,0,0,0-2.33-1l-2,4.79a5.43,5.43,0,0,0-1-.06l1.69-4.11a1.26,1.26,0,0,0-2.32-1l-2.82,6.85a3.55,3.55,0,0,0-.36.63l.09-1.49a1.3,1.3,0,0,0-1.16-1.3h0a1.12,1.12,0,0,0-1.31,1l-.52,8a1.19,1.19,0,0,0,.3.84,4.82,4.82,0,0,0,3.08,4.37A4.59,4.59,0,0,0,272,176.1l2.24-5.43a.56.56,0,0,1,0-.12l0-.05Z"/><path class="cls-2" d="M444.19,106a2.08,2.08,0,0,0-4.12-.42l-.72,7.08a8,8,0,0,0-1.64-.78l.86-8.49a2.08,2.08,0,0,0-4.12-.42l-.86,8.49a9.11,9.11,0,0,0-1.58.38l.74-7.29a2.08,2.08,0,0,0-4.12-.42l-1.23,12.16a6.25,6.25,0,0,0-.28,1.17l-.55-2.41a2.13,2.13,0,0,0-2.44-1.5h0a1.85,1.85,0,0,0-1.61,2.18l3,12.87a2,2,0,0,0,.87,1.18,7.94,7.94,0,0,0,6.93,5.46c4.33.44,8.2-2.4,8.59-6.3l1-9.63c0-.07,0-.14,0-.21s0-.06,0-.1Z"/><path class="cls-28" d="M342.61,109.94a85.06,85.06,0,0,0-11.1-11.87"/><path class="cls-28" d="M366.86,98.31s-4.05,3.48-13.64,12.71"/><path class="cls-14" d="M358.59,278A120.59,120.59,0,0,0,373,264.08a13.14,13.14,0,0,1,1.4-1.4l1.77-18.8-21.65-2.61Z"/><path class="cls-14" d="M386.06,262.87a78,78,0,0,0,18.46,5.58l2.37-27.89L384,241.89Z"/><path class="cls-14" d="M209.23,258.82c6.48-.05,7.05,5.16,11.3,11.29l.44.6L224.86,237l-17.6,5.85Z"/><path class="cls-14" d="M190.08,260.78a88.11,88.11,0,0,0,12.56-1.09l1.65-16.09L188,243.45Z"/></g></svg>