<svg xmlns="http://www.w3.org/2000/svg" viewBox="0 0 928.53 839.55"><defs><style>.cls-1{fill:#00a1cd;}.cls-2{fill:#02a1cd;}.cls-3{fill:#5e63ad;}.cls-4{fill:#514c49;}.cls-5{fill:#c9e1ef;}.cls-6{fill:#cae1f0;}.cls-7{fill:#27a6d1;}.cls-13,.cls-8{fill:none;stroke-linecap:round;stroke-miterlimit:10;}.cls-8{stroke:#0f8ab2;stroke-width:18.27px;}.cls-9{fill:#a2cced;}.cls-10{fill:#fff;}.cls-11{fill:#0d4061;}.cls-12{fill:#0a4467;}.cls-13{stroke:#0d4060;stroke-width:7.31px;}</style></defs><g id="Layer_1" data-name="Layer 1"><path class="cls-1" d="M504.43,647.45c-42.88,6-41.72-.25-81.07-.25-63,0-121.39-50.28-140.08-110.32-25-80.27-38.06-166.45-55.89-248.81C218.93,249,207,212.78,212.91,171.81a182.92,182.92,0,0,1,6.89-29.92c12.24-38,47.27-77.27,80.94-95.12,14.3-7.58,48.57-11.83,65.46-11.84,71,0,131.08.19,202.1.41,26,.08,55.62.69,77.85,17.6,24.37,18.53,48.08,44.88,59.58,74.94,26.53,69.33-2.13,145.27-17.08,214.33Q673.13,414,657.59,485.74c-9,41.78-22.81,82.45-49.05,116.21C586.33,630.53,537.93,642.75,504.43,647.45Z"/><path class="cls-2" d="M485.53,625.76l20.05,131.6h24l21.3-148.06"/><path class="cls-2" d="M380.9,625.34l20.05,132h24L445,625.76"/><path class="cls-3" d="M529.35,790.07l-21.39,13-8-76.25h37.59Z"/><path class="cls-3" d="M424.47,804.49l-23.54-15.14-6-63.27h35.43Z"/><path class="cls-4" d="M505.89,812.66a40.39,40.39,0,1,1,80.77,0"/><path class="cls-4" d="M347.41,814a40.38,40.38,0,1,1,80.76,0"/><path class="cls-5" d="M35,179a28.49,28.49,0,0,1-2.59-15c.41-3.75.41-7.58,2-11.12C40.13,140.05,50,132.62,64,131c7.63-.9,14.48,1.28,20.79,5.45,1.53,1,3.07,2,4.61,3,2.14,3.08,4.58,5.95,6.32,9.31,0,.1.1.2.16.3a1.27,1.27,0,0,0,1.79.41c.92-.4.64-1.08.3-1.69a27.1,27.1,0,0,0-2.45-4.1c-1.23-1.5-1-2.83-.14-4.28,1.78-.09,3.18-1.19,4.76-1.81,8.16-3.21,15.37-1.6,22,3.94A27.28,27.28,0,0,1,131.7,158c.53,2.9-.09,5.66-.54,8.47-2.78-1.35-5-3.51-7.64-5.12a18.19,18.19,0,0,0-2.06-1.17.92.92,0,0,0-1.17.43,1,1,0,0,0,0,1.26,6.87,6.87,0,0,0,1.29,1.11c3.23,2.32,6.48,4.62,9.71,6.94.42.3.78.35,1.12,0a0,0,0,0,1,.06,0c.83,2,2.59,3,4.45,3.93a80.69,80.69,0,0,0,16.17,5.42,178.77,178.77,0,0,0,28.42,4.37c4.45.31,8.92.37,13.36.91a3.1,3.1,0,0,1,2.68,3.38c-.09.91-.2,1.82-.31,2.73-.37,3-.87,3.48-3.92,3.39-16.72-.51-33.17,2.05-49.63,4.5-3.67.54-7.34,1.14-11,1.72-.67.11-1.39.1-1.85.74a7.22,7.22,0,0,0-3.72.06c-3.72.6-7.44,1.14-11.17,1.71-.79.13-1.57.3-2.35.45a1,1,0,0,0-.88.9,1,1,0,0,0,1,1.15,7.82,7.82,0,0,0,2,0c4.17-.63,8.35-1.28,12.51-2a3.53,3.53,0,0,0,2.47-1c3.93,2.47,5.78,6.33,7.17,10.55C142.25,226,133.4,239.07,121,241.6a22.15,22.15,0,0,1-17.3-3.55c-1.7-1.14-2.62-.74-3.79.47-8.61,8.94-19.15,12.19-31.25,10C59.44,247,53.43,241.24,50,232.66c-1.74-4.32-2.11-8.85-2.27-13.43,2.49.32,5,.66,7.47.94a7.21,7.21,0,0,0,2-.07,1,1,0,0,0,.6-.71,1.22,1.22,0,0,0-.4-.89c-.53-.52-1.26-.4-1.94-.43a34.09,34.09,0,0,1-8.71-1.68c-7.17-.48-13.77-7.81-15.21-13.9-1.3-5.43-.84-10.58,2.4-15.31A17.58,17.58,0,0,0,35,185.06c1.28,0,2,1,2.85,1.72,1.36,1.17,2.5,2.67,4.38,3.14.54-2,.59-2.11-.68-3.16C38.92,184.57,36.42,182.26,35,179ZM90.8,194.51a37.53,37.53,0,0,1,8.55,3.22c6.31,3.69,8.72,8.74,7.35,15.88-.24,1.23-.74,2.41-1.09,3.61-.23.76-.6,1.66.41,2.09s1.29-.54,1.6-1.25c4.07-9.24,1.29-17.11-6.64-22-.9-.56-2.12-.78-2.56-2a10.76,10.76,0,0,1,.85-.79c7.26-5.38,10.36-13,11.17-21.62a13.16,13.16,0,0,0-8.51-13.92c-.77-.27-1.62-.66-2,.44-.28.77.23,1.3.9,1.63s1.07.44,1.57.71a10.91,10.91,0,0,1,5.83,9.13,19.86,19.86,0,0,1-1.16,8.1c-2.52,7.91-6.63,14.41-15.63,16.1C91.34,193.85,91.28,194,90.8,194.51Zm84-8.61c-4.49.25-8.83-.31-13.18-.47-13-.48-26.1-.85-39.16-.68a63,63,0,0,0-11.64.81c-.71.14-1.36.46-1.21,1.35s.83.9,1.57.8a122.31,122.31,0,0,1,15.43-.79c11.35-.16,22.68.26,34,.64,4.58.15,9.16.43,13.74.64.84,0,1.7,0,1.7-1.14C176,186.19,175.37,185.94,174.75,185.9Z"/><path class="cls-6" d="M893.8,182.91a2.54,2.54,0,0,1,1.3,1.05c4.58,6.57,4.19,19.29-3.3,24.85-3.09,2.29-6,4.47-10,4.6a37.53,37.53,0,0,1-7.73,1.31c-1.23.15-3.62-1-3.46,1.29.11,1.58,2.36,1.11,3.77,1.17,2,.09,3.74-1.09,5.73-.71-.07,9.7-3.46,17.83-11.2,24a20.56,20.56,0,0,1-9.75,4c-9.67,1.53-18.64-.21-26.51-6.47a38.61,38.61,0,0,1-5.51-5.08c-1.18-1.4-2.08-1.39-3.48-.51a21.72,21.72,0,0,1-11,3.46c-6.77.19-12.21-2.43-17.19-7-6.77-6.25-8-18.87-3.24-27a17.61,17.61,0,0,1,5.28-5.79c.79.13,1.58.23,2.37.39,4.83,1,9.65,1.92,14.48,2.88.67.13,1.42.37,1.65-.6s-.27-1.49-1.22-1.67c-.56-.1-1.11-.29-1.67-.41l-15.82-3.21c-9.75-1.93-19.49-3.92-29.25-5.77s-19.83-3.08-29.81-4.15a9,9,0,0,0-1.72,0c-3.83.29-3.65.15-3.87-3.69-.32-5.55-1-5.28,4.56-5.26A238.76,238.76,0,0,0,764,173.3c9.28-1,18.57-2.36,27.4-5.74a21.67,21.67,0,0,0,7.86-4.75c2.25-1.35,4.52-2.68,6.76-4.07,1.36-.84,2.69-1.74,4-2.63.57-.39,1.22-.81.78-1.64s-1.28-.79-2.06-.36c-.6.32-1.19.69-1.76,1.06-2.61,1.66-5.2,3.34-7.8,5-1.47-9.39,2-17,8.59-23.4a2,2,0,0,1,.56-.39c1.21-.54.21-2.57,1.53-2.7,4.66-.46,8.42-4.21,13.38-3.5,3.84.55,7.67,1.07,11,3.21,1.15.72,2.44,1.24,3.66,1.85a10.85,10.85,0,0,1-1.8,3.26c-.93,1.3-1.83,2.63-2.66,4-.36.6-.54,1.38.22,1.82a1.41,1.41,0,0,0,1.82-.49c.36-.44.66-.93,1-1.4,1.79-2.51,3.27-5.25,5.78-7.18.33-.25.26-.59,0-.86,3.12-1.36,5.86-3.38,9-4.7,11.31-4.71,21.92-3.17,31.92,3.42,10.36,6.83,15.2,16.84,15.34,29,.07,5.71-1.12,11.34-4.67,16.14a5.61,5.61,0,0,1-2.24,2.9c-1.33,1.07-2.6,2.21-4,3.21-.95.69-1.62,1.52-.79,2.5s1.67-.09,2.36-.5C890.86,185.39,892.06,183.78,893.8,182.91Zm-63,5.79a6,6,0,0,1-2.55,1.83c-8.73,4.72-10.72,12.32-7.92,21.38a5.93,5.93,0,0,0,.48,1.28,1.12,1.12,0,0,0,1.46.54,1,1,0,0,0,.75-1.33c-.26-1-.6-2-.9-3a13.36,13.36,0,0,1,5.06-15.21,25.68,25.68,0,0,1,9.37-4.13c.7-.17,1.67.15,2-.85-.23-.55-.7-.57-1.13-.66-4.52-1-7.81-3.73-10.34-7.46a28.42,28.42,0,0,1-4.72-13.5c-.53-5.78,1.31-10.66,7.31-13l.65-.22a1.22,1.22,0,0,0,.75-1.66c-.24-.91-.9-.86-1.63-.64a12.53,12.53,0,0,0-8.18,6.84c-2.15,4.7-1.32,9.5-.3,14.19A25.81,25.81,0,0,0,830.76,188.7ZM755.7,176.9V177l-.69,0a1.32,1.32,0,0,0-1.43,1.54c0,1,.84.93,1.53.92,2.07-.05,4.13-.21,6.2-.17,9.72.19,19.44.37,29.16.66,9.26.28,18.54.33,27.7,2.06.94.18,2,.4,2.18-.87s-1-1.42-1.84-1.56c-2.26-.35-4.53-.7-6.8-.9-8.68-.79-17.38-1.14-26.09-1.25C775.64,177.24,765.67,177.06,755.7,176.9Z"/><path class="cls-7" d="M205.24,110.21a5.29,5.29,0,0,1-.48.8,1,1,0,0,1-1.51.19c-1.46-1.12-2.88-2.27-4.32-3.41L179.28,92.18c-.54-.43-1.09-.84-1.59-1.31a1.18,1.18,0,0,1-.17-1.81c.47-.54,1-.38,1.54,0s.93.68,1.38,1q11.58,9.19,23.15,18.39C204.19,108.91,205,109.26,205.24,110.21Z"/><path class="cls-7" d="M705.73,68.45c-1-.06-1.33-1.09-.63-2.31,2.41-4.14,4.85-8.28,7.28-12.42,1.39-2.36,2.75-4.74,4.17-7.09.43-.71.74-1.85,2-1,1,.69.39,1.45,0,2.08-1.62,2.89-3.31,5.74-5,8.6-2.08,3.55-4.14,7.11-6.26,10.64C707,67.58,706.78,68.52,705.73,68.45Z"/><path class="cls-7" d="M759.2,115.89l-9.23.49c-.34,0-.69,0-1,0-1,.08-1.55-.35-1.54-1.35s.82-.9,1.49-1c3.52-.21,7.05-.44,10.58-.63s7.06-.38,10.59-.54c.77,0,1.78-.22,1.87.9s-.75,1.48-1.81,1.51c-3.64.13-7.28.3-10.93.46Z"/><path class="cls-7" d="M199.75,126.09,186.47,123c-2.56-.6-5.11-1.23-7.67-1.83-.84-.19-1.64-.46-1.4-1.52s1.08-.9,1.92-.7q10.17,2.43,20.35,4.81c.11,0,.22.07.33.09.69.16,1.45.32,1.33,1.23C201.19,126.18,200.32,126.14,199.75,126.09Z"/><path class="cls-7" d="M761.66,92.22c0,.6-.54.94-.94,1.32q-6.78,6.3-13.59,12.58c-.6.56-1.17,1.19-2,.29s-.18-1.46.42-2q7-6.53,14.1-13c.36-.33.71-.54,1.2-.24A1.54,1.54,0,0,1,761.66,92.22Z"/><path class="cls-7" d="M797.3,193.38l15.82,3.21c.56.12,1.11.31,1.67.41,1,.18,1.46.68,1.22,1.67s-1,.73-1.65.6c-4.83-1-9.65-1.93-14.48-2.88-.79-.16-1.58-.26-2.37-.39A5.54,5.54,0,0,1,797.3,193.38Z"/><path class="cls-7" d="M130.91,202c-.63,1-1.67,1.07-2.63,1.22-4.16.69-8.34,1.34-12.51,2a7.82,7.82,0,0,1-2,0,1,1,0,0,1-1-1.15,1,1,0,0,1,.88-.9c.78-.15,1.56-.32,2.35-.45,3.73-.57,7.45-1.11,11.17-1.71a8.38,8.38,0,0,1,3.3-.18Z"/><path class="cls-7" d="M730.24,65.65a2.06,2.06,0,0,1-.94,1.49c-3.07,2.53-6.18,5-9.24,7.57a1.27,1.27,0,0,1-2-.15c-.64-.74-.15-1.18.43-1.64q4.92-4,9.81-8c.51-.41,1-.55,1.5-.06A3.19,3.19,0,0,1,730.24,65.65Z"/><path class="cls-7" d="M95.41,139.38c-.82,1.45-1.09,2.78.14,4.28a27.1,27.1,0,0,1,2.45,4.1c.34.61.62,1.29-.3,1.69a1.27,1.27,0,0,1-1.79-.41c-.06-.1-.11-.2-.16-.3-1.74-3.36-4.18-6.23-6.32-9.31A17.66,17.66,0,0,1,95.41,139.38Z"/><path class="cls-7" d="M132.46,169.79c-.36.44-.73.4-1.16.09-3.23-2.32-6.48-4.62-9.71-6.94a6.87,6.87,0,0,1-1.29-1.11,1,1,0,0,1,0-1.26.92.92,0,0,1,1.17-.43,18.19,18.19,0,0,1,2.06,1.17c2.61,1.61,4.86,3.77,7.64,5.12A8.14,8.14,0,0,1,132.46,169.79Z"/><path class="cls-7" d="M799.17,160.18c2.6-1.67,5.19-3.35,7.8-5,.57-.37,1.16-.74,1.76-1.06.78-.43,1.57-.57,2.06.36s-.21,1.25-.78,1.64c-1.33.89-2.66,1.79-4,2.63-2.24,1.39-4.51,2.72-6.76,4.07Z"/><path class="cls-7" d="M842.24,134.39c.31.27.38.61,0,.86-2.51,1.93-4,4.67-5.78,7.18-.33.47-.63,1-1,1.4a1.41,1.41,0,0,1-1.82.49c-.76-.44-.58-1.22-.22-1.82.83-1.36,1.73-2.69,2.66-4a10.85,10.85,0,0,0,1.8-3.26Z"/><path class="cls-7" d="M35,179c1.43,3.23,3.93,5.54,6.58,7.73,1.27,1.05,1.22,1.11.68,3.16-1.88-.47-3-2-4.38-3.14C37,186,36.3,185.1,35,185.06,35.05,183.05,34.28,181,35,179Z"/><path class="cls-7" d="M880.11,216.47c-2-.38-3.78.8-5.73.71-1.41-.06-3.66.41-3.77-1.17-.16-2.29,2.23-1.14,3.46-1.29a37.53,37.53,0,0,0,7.73-1.31C881.35,214.5,881.2,215.75,880.11,216.47Z"/><path class="cls-7" d="M893.8,182.91c-1.74.87-2.94,2.48-4.59,3.47-.69.41-1.54,1.47-2.36.5s-.16-1.81.79-2.5c1.37-1,2.64-2.14,4-3.21a5.61,5.61,0,0,0,2.24-2.9c.13.81.25,1.62.38,2.43a.62.62,0,0,0-.3.84C893.89,182,893.85,182.45,893.8,182.91Z"/><path class="cls-7" d="M46.75,216.39a34.09,34.09,0,0,0,8.71,1.68c.68,0,1.41-.09,1.94.43a1.22,1.22,0,0,1,.4.89,1,1,0,0,1-.6.71,7.21,7.21,0,0,1-2,.07c-2.5-.28-5-.62-7.47-.94C47.17,218.36,46.51,217.53,46.75,216.39Z"/><path class="cls-6" d="M893.93,181.54a.62.62,0,0,1,.3-.84A.77.77,0,0,1,893.93,181.54Z"/><path class="cls-7" d="M90.8,194.51c.48-.51.54-.66.63-.67,9-1.69,13.11-8.19,15.63-16.1a19.86,19.86,0,0,0,1.16-8.1,10.91,10.91,0,0,0-5.83-9.13c-.5-.27-1-.46-1.57-.71s-1.18-.86-.9-1.63c.39-1.1,1.24-.71,2-.44a13.16,13.16,0,0,1,8.51,13.92c-.81,8.64-3.91,16.24-11.17,21.62a10.76,10.76,0,0,0-.85.79c.44,1.22,1.66,1.44,2.56,2,7.93,4.89,10.71,12.76,6.64,22-.31.71-.49,1.72-1.6,1.25s-.64-1.33-.41-2.09c.35-1.2.85-2.38,1.09-3.61,1.37-7.14-1-12.19-7.35-15.88A37.53,37.53,0,0,0,90.8,194.51Z"/><path class="cls-7" d="M174.75,185.9c.62,0,1.27.29,1.26,1.16,0,1.14-.86,1.18-1.7,1.14-4.58-.21-9.16-.49-13.74-.64-11.33-.38-22.66-.8-34-.64a122.31,122.31,0,0,0-15.43.79c-.74.1-1.42.11-1.57-.8s.5-1.21,1.21-1.35a63,63,0,0,1,11.64-.81c13.06-.17,26.11.2,39.16.68C165.92,185.59,170.26,186.15,174.75,185.9Z"/><path class="cls-7" d="M830.76,188.7a25.81,25.81,0,0,1-9.83-15.53c-1-4.69-1.85-9.49.3-14.19a12.53,12.53,0,0,1,8.18-6.84c.73-.22,1.39-.27,1.63.64a1.22,1.22,0,0,1-.75,1.66l-.65.22c-6,2.31-7.84,7.19-7.31,13a28.42,28.42,0,0,0,4.72,13.5c2.53,3.73,5.82,6.46,10.34,7.46.43.09.9.11,1.13.66-.34,1-1.31.68-2,.85a25.68,25.68,0,0,0-9.37,4.13,13.36,13.36,0,0,0-5.06,15.21c.3,1,.64,2,.9,3a1,1,0,0,1-.75,1.33,1.12,1.12,0,0,1-1.46-.54,5.93,5.93,0,0,1-.48-1.28c-2.8-9.06-.81-16.66,7.92-21.38A6,6,0,0,0,830.76,188.7Z"/><path class="cls-7" d="M755.7,176.9c10,.16,19.94.34,29.92.47,8.71.11,17.41.46,26.09,1.25,2.27.2,4.54.55,6.8.9.89.14,2,.33,1.84,1.56s-1.24,1-2.18.87c-9.16-1.73-18.44-1.78-27.7-2.06-9.72-.29-19.44-.47-29.16-.66-2.07,0-4.13.12-6.2.17-.69,0-1.48,0-1.53-.92a1.32,1.32,0,0,1,1.43-1.54l.69,0Z"/><path class="cls-8" d="M311.3,211.85s-93.36,49.06-102.91,102.56c-5.16,28.93,31,56.7,38.14,69.08"/><path class="cls-9" d="M275.67,210.85c-4.23,6.17-3.85,15.47,1.66,23.25,7,9.92,19.76,13.76,28.32,8.54l21.12-12.89c.15-.09.29-.2.43-.3a1.75,1.75,0,0,0,.24-.11L356,212c2.23-1.36,2.56-4.6.73-7.19s-5.17-3.6-7.41-2.23L333.77,212a23.71,23.71,0,0,0-1.41-4.69L351,196c2.24-1.37,2.57-4.61.73-7.2s-5.16-3.6-7.4-2.23l-18.62,11.35a26.14,26.14,0,0,0-3.65-2.79l16-9.75c2.23-1.37,2.56-4.6.73-7.2s-5.17-3.59-7.41-2.23L304.7,192.16a15,15,0,0,0-2.85,1.24l3.83-4.92c1.61-2.06.95-5.45-1.46-7.53h0c-2.4-2.08-5.69-2.1-7.29,0"/><path class="cls-8" d="M624.86,206.13s82.19,53.93,87.82,108c3.05,29.22-28.69,56-36.71,67.85"/><path class="cls-9" d="M660.47,207.74c3.77,6.45,2.72,15.7-3.35,23.07-7.72,9.37-20.71,12.27-28.86,6.44l-20.14-14.38c-.14-.1-.26-.22-.4-.33s-.16-.07-.24-.13L580.3,203c-2.13-1.52-2.22-4.78-.2-7.23s5.41-3.21,7.54-1.68l14.8,10.57a23.54,23.54,0,0,1,1.75-4.58l-17.74-12.68c-2.13-1.52-2.23-4.78-.21-7.23s5.42-3.21,7.55-1.69l17.74,12.68a26.71,26.71,0,0,1,3.85-2.51l-15.25-10.9c-2.13-1.52-2.22-4.77-.2-7.23s5.41-3.21,7.54-1.68L632.88,187a16.38,16.38,0,0,1,2.75,1.44l-3.47-5.18c-1.45-2.17-.55-5.5,2-7.4h0c2.56-1.9,5.83-1.68,7.29.49"/><path class="cls-10" d="M451.05,201.45a30.22,30.22,0,0,1-60.43-.25"/><path class="cls-11" d="M433.91,201.38a13.07,13.07,0,1,1-26.14-.11"/><path class="cls-10" d="M541.28,201.45a30.22,30.22,0,1,1-60.43-.25"/><path class="cls-11" d="M524.14,201.38a13.07,13.07,0,1,1-26.14-.11"/><path class="cls-12" d="M432.22,261.54a61.72,61.72,0,0,1,12.3,2.49c4.21,1.15,8.41,2.33,12.71,3.2a48.58,48.58,0,0,0,23.35-1.11A116.32,116.32,0,0,1,500,261.87a28.89,28.89,0,0,1,21.42,5.76,58.63,58.63,0,0,1,4.86,4.46c.73.7,1.47,1.53.23,2.34-1.06.69-2.07,2-3.6.82-.86-.69-1.63-1.48-2.42-2.24-6.14-5.94-13.7-7.6-22.11-6.34a99.42,99.42,0,0,0-15.67,3.69,53.09,53.09,0,0,1-29.64.72c-5-1.24-9.88-2.65-14.85-3.91-9.06-2.31-16.63-.15-22.36,7-1.14,1.42-2,1.79-3.68.69-1.47-1-1.75-1.76-.63-3.11C416.65,265.54,423.1,261.68,432.22,261.54Z"/><path class="cls-13" d="M396.81,167.35s25.52,19.27,44.45-1.69"/><path class="cls-13" d="M492.4,164s19.84,21.72,42.2,4.48"/></g></svg>