<svg id="Layer_1" data-name="Layer 1" xmlns="http://www.w3.org/2000/svg" viewBox="0 0 282.56 259.51"><defs><style>.cls-1{fill:#00a1cd;}.cls-10,.cls-11,.cls-12,.cls-13,.cls-2,.cls-5,.cls-9{fill:none;stroke-linecap:round;stroke-miterlimit:10;}.cls-10,.cls-11,.cls-2{stroke:#0d4060;}.cls-2{stroke-width:2.11px;}.cls-3{fill:#fff;}.cls-4{fill:#0d4060;}.cls-13,.cls-5,.cls-9{stroke:#0f8ab2;}.cls-5{stroke-width:7px;}.cls-6{fill:#a2cced;}.cls-7{fill:#56c5d0;}.cls-8{fill:#504b48;}.cls-9{stroke-width:3.5px;}.cls-11{stroke-width:1.31px;}.cls-12{stroke:#231f20;stroke-width:0.95px;}.cls-13{stroke-width:3px;}</style></defs><path class="cls-1" d="M228.79,11.09c16.71-1.23,31.69,5.34,39,21.43,7.11,15.69,4,33.86,1.6,50.24C266.74,100.57,263,118.4,259.2,136c-2.95,13.74-5.76,28.4-14.26,39.95-2.62,3.56-4.76,6.61-8.4,9-8.14,5.35-18.25,6.78-27.7,7.66-16.56,1.55-33.2-7.67-43.61-28.35-12.94-25.68-26-51.91-35-79.31-3.33-10.14-5.75-20.84-4.59-31.45,1.29-11.79,7.68-21.12,16.41-28.44a16.29,16.29,0,0,1,8.3-3.64Z"/><path class="cls-2" d="M209.26,50s-7-1.19-13.21-2"/><path class="cls-2" d="M155.72,56.16s11.4-4.61,14.4-5.4"/><path class="cls-3" d="M179.91,66.53c-.54-5.18-5.46-8.9-11-8.32s-9.55,5.24-9,10.41"/><path class="cls-4" d="M172.59,67.29a4.37,4.37,0,0,0-8.69.91"/><path class="cls-3" d="M189.53,65.52c-.55-5.17,3.51-9.84,9.06-10.42s10.49,3.14,11,8.31"/><path class="cls-4" d="M200.7,64.35a4.37,4.37,0,0,0-8.69.91"/><path class="cls-4" d="M172.65,74.24s3.48,10.89,14.81,9.35A12.16,12.16,0,0,0,198.6,71.52Z"/><path class="cls-5" d="M144.8,123.79s-16.81,5.7-36.45-27.13"/><path class="cls-6" d="M119.29,99.48c.86,3.39-1.93,7.32-6.19,8.73-3.35,1.1-6.65.34-8.33-1.69l-8.09-10A1.77,1.77,0,0,1,97.52,94c1-.61,1.76-.47,2.3.27L102.18,97a21.58,21.58,0,0,1-.68-2.06L98.08,84.69a2.12,2.12,0,0,1,1.62-2.28,1.81,1.81,0,0,1,2.44.94l2.35,6c.42-.35.39-.55.89-.84l-2.63-7.32a2.13,2.13,0,0,1,1.62-2.28,1.79,1.79,0,0,1,2.44.94l2.63,7.32a3,3,0,0,1,1,.06L109,82.09a2.1,2.1,0,0,1,1.62-2.28c1.11-.37,2,.31,2.58,1.77l3.4,9.31"/><polyline class="cls-1" points="45.7 199.6 51.16 243.93 56.61 243.93 62.35 194.06"/><polygon class="cls-7" points="56.23 249.53 51.08 249.53 49.01 225.16 58.97 225.16 56.23 249.53"/><path class="cls-8" d="M51.16,250.22a8,8,0,1,1,16,0"/><polyline class="cls-1" points="24.79 199.46 30.25 243.93 35.7 243.93 40.26 199.6"/><polygon class="cls-7" points="35.7 249.53 30.55 249.53 27.79 225.16 37.75 225.16 35.7 249.53"/><path class="cls-8" d="M30.16,250.22a8,8,0,1,1,16.06,0"/><path class="cls-9" d="M102.31,111.88S100.52,132.4,75.82,148"/><path class="cls-6" d="M96.85,111.54c0,2.41,2.54,4.55,5.62,4.76a5.28,5.28,0,0,0,5.27-2.54l3.67-8.08c.24-.59-.2-1.26-1-1.5s-1.25,0-1.48.57L107.84,107a14.71,14.71,0,0,0,.1-1.48l.53-7.42A1.47,1.47,0,0,0,107,96.81c-.81,0-1.47.42-1.46,1l-.54,4.42c-.35-.16-.37-.36-.75-.47l.5-5.33a1.47,1.47,0,0,0-1.47-1.25c-.8,0-1.46.42-1.46,1l-.5,5.33a4.28,4.28,0,0,0-1,.26l.29-3.71a1.31,1.31,0,0,0-1.3-1.28,1.23,1.23,0,0,0-1.46,1l-.63,7.43"/><path class="cls-10" d="M84,74.14l7.57,6.11"/><path class="cls-10" d="M81.81,83.36l8,1"/><path class="cls-10" d="M92.27,70.05l2.86,7.53"/><path class="cls-1" d="M55.21,86.75l-8.9-.7A29.56,29.56,0,0,0,14.53,113.2l-.16,2.06c-.33,2.06-.56,4.11-.72,6.13L9.36,176.05a29.56,29.56,0,0,0,27.15,31.79l8.9.7a29.56,29.56,0,0,0,31.78-27.16l.16-2.06c.33-2,.56-4.11.72-6.12l4.3-54.67A29.56,29.56,0,0,0,55.21,86.75Z"/><path class="cls-4" d="M64.75,133.86s-1.63,3.72-8.22,3.09-6.83-4.25-6.83-4.25Z"/><path class="cls-11" d="M36.09,113.43s2.62-4.42,7.4-1.33"/><path class="cls-11" d="M79.54,116.77s-1.3-4.82-6.49-2.49"/><path class="cls-12" d="M53.25,120.65a13.49,13.49,0,1,1-12.42-14.49A13.5,13.5,0,0,1,53.25,120.65Z"/><path class="cls-12" d="M89.33,123.42A13.49,13.49,0,1,1,76.9,108.93,13.5,13.5,0,0,1,89.33,123.42Z"/><path class="cls-12" d="M53.35,119s4.85-5.74,8.76.67"/><path class="cls-3" d="M64.51,125.09a7.89,7.89,0,0,1,15.71,1"/><path class="cls-3" d="M34.11,123.13a7.67,7.67,0,0,1,8.35-6.89,7.66,7.66,0,0,1,7.45,7.85"/><path class="cls-4" d="M35.15,119.44,31,117.5l3.56,3.18c-.06.17-.1.32-.15.48l-3.63-.68,3.41,1.69a6.1,6.1,0,0,0-.09.76c2.34-6.09,6.32-6.68,7.45-6.72-3.61-.12-5.48,1.53-6.43,3.23"/><path class="cls-4" d="M83.83,123.82l-3.69.24a4.63,4.63,0,0,0-.09-.49L84,120.84l-4.33,1.43c-.74-1.81-2.4-3.67-6-4,1.12.17,5,1.24,6.57,7.58a6,6,0,0,0,0-.77Z"/><path class="cls-4" d="M44.42,116.25a4.42,4.42,0,0,0,5.44,6.41A7.59,7.59,0,0,0,44.42,116.25Z"/><path class="cls-4" d="M74.71,118.68a4.42,4.42,0,0,0,5.44,6.41A7.59,7.59,0,0,0,74.71,118.68Z"/><path class="cls-13" d="M23,190.33s-6.62-13.74-1.46-35.67"/><path class="cls-6" d="M18.15,192.69c0-2.3,2.32-4.42,5.28-4.7a5.08,5.08,0,0,1,5.11,2.32L32.26,198c.24.56-.17,1.21-.9,1.46s-1.2,0-1.44-.51l-1.12-2.1a14.07,14.07,0,0,1,.13,1.43l.69,7.1a1.4,1.4,0,0,1-1.38,1.23c-.77.07-1.42-.36-1.43-1l-.62-4.23c-.33.16-.34.35-.71.47l.61,5.1a1.4,1.4,0,0,1-1.38,1.23,1.2,1.2,0,0,1-1.43-1l-.61-5.1a4.16,4.16,0,0,1-1-.23l.37,3.56a1.25,1.25,0,0,1-1.21,1.25c-.77.08-1.42-.36-1.43-1l-.78-7.11"/><polyline class="cls-1" points="239.33 176.5 229.03 248.83 222.86 248.83 212.71 188.64"/><polyline class="cls-1" points="209.1 191.59 199.94 248.83 193.76 248.83 184.73 184.01"/><polygon class="cls-7" points="222.06 248.83 219.72 231.79 231.34 231.79 229.32 249.59 222.06 248.83"/><polygon class="cls-7" points="193.17 249.06 191.25 231.79 202.61 231.79 200.14 249.53 193.17 249.06"/><path class="cls-8" d="M208.58,249.84a10.38,10.38,0,0,1,20.75,0"/><path class="cls-8" d="M200.29,249.84a10.38,10.38,0,0,0-20.75,0"/><path class="cls-5" d="M246.26,122.65s5.05,29.84-44.42,38.43"/><path class="cls-6" d="M205.83,167.42c3.09-1.63,4.15-6.32,2.34-10.44-1.42-3.23-4.19-5.17-6.82-5.07l-12.87.71c-.91.09-1.48,1.11-1.27,2.27s.82,1.62,1.74,1.53l3.59-.06a18.53,18.53,0,0,0-2,.87l-9.91,4.31a2.11,2.11,0,0,0-.61,2.73,1.78,1.78,0,0,0,2.32,1.18l6.06-2.28c0,.55-.15.67,0,1.23l-7.2,2.94a2.11,2.11,0,0,0-.61,2.73,1.78,1.78,0,0,0,2.32,1.18l7.2-2.94c.37.5.33.34.76.74L186,171.39a2.12,2.12,0,0,0-.61,2.73c.47,1.08,1.57,1.28,3.05.74l9.19-3.7"/></svg>