<svg id="Layer_1" data-name="Layer 1" xmlns="http://www.w3.org/2000/svg" viewBox="0 0 283.61 306.25"><defs><style>.cls-1,.cls-6,.cls-9{fill:none;stroke-miterlimit:10;}.cls-1{stroke:#0f8ab2;stroke-width:4.81px;}.cls-1,.cls-6{stroke-linecap:round;}.cls-2{fill:#a2cced;}.cls-3{fill:#00a1cd;}.cls-4{fill:#56c5d0;}.cls-5{fill:#504b48;}.cls-6{stroke:#0d4060;stroke-width:2.03px;}.cls-7{fill:#0d4060;}.cls-8{fill:#fff;}.cls-9{stroke:#ffcb05;stroke-width:5.75px;}</style></defs><path class="cls-1" d="M101.59,161.84s-29.36,13.65-49.33-26.15"/><path class="cls-2" d="M60.83,138.29,55.9,126.47a1.75,1.75,0,0,0-2.54-.44,2.13,2.13,0,0,0-1.12,2.56l.92,2a5.31,5.31,0,0,0-.88-.61L44.83,123a14.19,14.19,0,0,1-1.29,3.33v1.24L46,129.9a10.06,10.06,0,0,0-1.5.76l-1-.9v2.6c0,3.22,0,4.37-1.73,6.94l-.51,2.31.07,0c.05,0,.08.09.13.13l6.28,5.83c2.55,2.36,7.3,1.79,10.55-1.26C60.89,144,61.79,140.72,60.83,138.29Z"/><path class="cls-1" d="M199.31,168.19s31.54,7.31,42.9-35.74"/><path class="cls-2" d="M231.32,137.51c0,2.61,2.09,5.27,5.37,6.52,4.17,1.58,8.78.31,10.24-2.85l3.61-7.77.06-.17a.35.35,0,0,0,.05-.08l4.87-10.49a1.79,1.79,0,0,0-1.29-2.26,2.11,2.11,0,0,0-2.68.75l-2.65,5.71a9.12,9.12,0,0,0-1.4-1.11l3.17-6.85a1.79,1.79,0,0,0-1.29-2.26,2.1,2.1,0,0,0-2.67.75l-3.18,6.85a9.66,9.66,0,0,0-1.68-.13l2.73-5.89a1.77,1.77,0,0,0-1.29-2.25,2.1,2.1,0,0,0-2.67.74l-4.55,9.81a4.81,4.81,0,0,0-.59.9l.11-2.16a2.13,2.13,0,0,0-2-1.94h0c-1.16-.16-2.14.46-2.19,1.36"/><polyline class="cls-3" points="121.78 224.27 130.58 286.88 135.7 286.88 144.51 224.46"/><polyline class="cls-3" points="151.42 223.97 160.23 286.58 165.35 286.58 174.15 224.16"/><polygon class="cls-4" points="135.79 285.22 138.46 267.3 127.2 267.3 130.28 284.96 135.79 285.22"/><polygon class="cls-4" points="165.25 285.22 167.92 267.3 157.66 267.3 159.74 284.96 165.25 285.22"/><path class="cls-5" d="M138.64,287.17a12.09,12.09,0,0,0-24.17,0"/><path class="cls-5" d="M181.75,287.17a12.09,12.09,0,0,0-24.17,0"/><path class="cls-3" d="M184.13,220.63c10-11.26,14.39-26.31,18.82-40.4,5.68-18,11.37-36.33,15.87-54.71C223,108.61,228,89.91,222.06,72.8,216,55.25,201,46.91,183.37,46.55c-15.64-.31-31.29-.63-46.94-.48-12,.12-30.05-2.5-40.73,3.78-12,7-21.51,17-24.38,31-2.25,11-.77,22.42,1.72,33.36,6.72,29.54,17.8,58.27,28.82,86.41,8.88,22.65,25.39,33.93,42.87,33.93,10,0,20.69-.51,29.73-5.3C178.49,227.08,181,224.1,184.13,220.63Z"/><line class="cls-6" x1="122.75" y1="90.59" x2="135.39" y2="88.31"/><path class="cls-6" d="M174.81,90.67s-9.3-2.89-11.58-2.6"/><path class="cls-7" d="M162,114.63s-2.41,7.72-14.24,7.49S135,114.63,135,114.63Z"/><path class="cls-8" d="M154.56,105.11c0-5.39,4.65-9.75,10.39-9.75s10.4,4.36,10.4,9.75"/><path class="cls-7" d="M160.49,105.11a4.52,4.52,0,1,1,9,0"/><path class="cls-8" d="M123.64,105.11c0-5.39,4.68-9.75,10.45-9.75s10.46,4.36,10.46,9.75"/><path class="cls-7" d="M129.57,105.11a4.52,4.52,0,1,1,9,0"/><path class="cls-7" d="M133.14,95.37h0Z"/><path class="cls-7" d="M165.86,95.36h0Z"/><line class="cls-9" x1="52.11" y1="97.43" x2="63.66" y2="98.85"/><polyline class="cls-9" points="64.76 89.92 58.08 89.09 56.98 98.02"/><ellipse class="cls-9" cx="42.16" cy="155.88" rx="8.06" ry="11.91" transform="translate(-117.69 178.72) rotate(-82.99)"/><line class="cls-9" x1="43.2" y1="147.47" x2="51.11" y2="83.06"/><line class="cls-9" x1="42.12" y1="165.18" x2="41.81" y2="171.18"/><path class="cls-2" d="M45.45,127.7v0a2.1,2.1,0,0,0-1.25-2.46l-1-.42a2.13,2.13,0,0,0-2.73.74,2.55,2.55,0,0,0,.86,3.07l1.32.53A2.09,2.09,0,0,0,45.45,127.7Z"/><path class="cls-2" d="M45,133.38v0a2.1,2.1,0,0,0-1.24-2.47l-3.56-1.44a2.1,2.1,0,0,0-2.46,1.29,1.77,1.77,0,0,0,.59,2.52l3.85,1.56A2.09,2.09,0,0,0,45,133.38Z"/><path class="cls-2" d="M43.6,138.15a2.1,2.1,0,0,0-1.26-2.4l-3.12-1.26a2.11,2.11,0,0,0-2.46,1.28,1.78,1.78,0,0,0,.59,2.53l3.41,1.38a2.1,2.1,0,0,0,2.83-1.49Z"/></svg>