<svg id="Layer_1" data-name="Layer 1" xmlns="http://www.w3.org/2000/svg" viewBox="0 0 213.85 256.92"><defs><style>.cls-1,.cls-6{fill:none;stroke-linecap:round;stroke-miterlimit:10;}.cls-1{stroke:#0f8ab2;stroke-width:6.42px;}.cls-2{fill:#a2cced;}.cls-3{fill:#00a1cd;}.cls-4{fill:#56c5d0;}.cls-5{fill:#504b48;}.cls-6{stroke:#0d4060;stroke-width:1.86px;}.cls-7{fill:#0d4060;}.cls-8{fill:#fff;}</style></defs><path class="cls-1" d="M57.16,131.88s-21.83,20.05-15.9,48.7"/><path class="cls-1" d="M153.58,133.17s19.95,19.94,15.35,48.84"/><path class="cls-2" d="M47.06,172.94c-1.2-2.08-4-3.28-7.22-2.81-4.05.61-7.16,3.7-6.92,6.87l.61,7.83a1,1,0,0,0,0,.17s0,.06,0,.08l.81,10.58a1.64,1.64,0,0,0,2,1.22,1.92,1.92,0,0,0,1.81-1.79l-.44-5.76a8.43,8.43,0,0,0,1.62.26l.54,6.9a1.63,1.63,0,0,0,2,1.23,1.94,1.94,0,0,0,1.81-1.8l-.54-6.9a9.41,9.41,0,0,0,1.4-.65l.46,5.93c.06.83,1,1.38,2,1.23a1.94,1.94,0,0,0,1.81-1.8l-.77-9.89a4.57,4.57,0,0,0,.07-1l.88,1.78a2,2,0,0,0,2.48.65h0a1.6,1.6,0,0,0,1.14-2.07"/><path class="cls-2" d="M162.39,172.94c1.19-2.08,4-3.28,7.22-2.81,4,.61,7.16,3.7,6.91,6.87l-.6,7.83,0,.17s0,.06,0,.08l-.82,10.58c-.06.83-1,1.38-2,1.22a1.93,1.93,0,0,1-1.81-1.79l.45-5.76a8.54,8.54,0,0,1-1.63.26l-.53,6.9a1.63,1.63,0,0,1-2,1.23,1.94,1.94,0,0,1-1.81-1.8l.53-6.9a8.85,8.85,0,0,1-1.39-.65l-.46,5.93a1.65,1.65,0,0,1-2,1.23c-1.06-.16-1.88-1-1.81-1.8l.76-9.89a4.57,4.57,0,0,1-.07-1l-.88,1.78a2,2,0,0,1-2.48.65h0a1.61,1.61,0,0,1-1.13-2.07"/><polyline class="cls-3" points="79.69 181.52 87.76 238.93 92.46 238.93 100.53 181.7"/><polyline class="cls-3" points="106.87 181.25 114.95 238.66 119.64 238.66 127.72 181.43"/><polygon class="cls-4" points="92.54 237.42 94.98 220.98 84.66 220.98 87.48 237.18 92.54 237.42"/><polygon class="cls-4" points="119.55 237.42 122 220.98 112.59 220.98 114.5 237.18 119.55 237.42"/><path class="cls-5" d="M95.32,239.2a11.09,11.09,0,0,0-22.17,0"/><path class="cls-5" d="M134.51,239.2a11.08,11.08,0,1,0-22.16,0"/><path class="cls-3" d="M136.86,178.19c9.2-10.33,13.2-24.13,17.26-37.05,5.21-16.55,10.42-33.32,14.55-50.16,3.8-15.51,8.39-32.66,3-48.35-5.56-16.09-19.35-23.74-35.48-24.06-14.35-.29-28.7-.58-43-.44-11,.11-27.56-2.3-37.35,3.46C44.81,28,36.05,37.16,33.43,50,31.36,60.07,32.72,70.55,35,80.58c6.16,27.09,16.32,53.42,26.43,79.23,8.14,20.77,23.27,31.11,39.3,31.11,9.15,0,19-.46,27.26-4.86C131.7,184.1,134,181.37,136.86,178.19Z"/><line class="cls-6" x1="80.58" y1="58.95" x2="92.17" y2="56.85"/><line class="cls-6" x1="126.31" y1="58.95" x2="114.72" y2="56.85"/><path class="cls-7" d="M116.55,81s-2.2,7.08-13.06,6.87S91.79,81,91.79,81Z"/><path class="cls-8" d="M108.75,72.26c0-4.94,4.27-8.94,9.53-8.94s9.54,4,9.54,8.94"/><path class="cls-7" d="M114.19,72.26a4.15,4.15,0,1,1,8.29,0"/><path class="cls-8" d="M81.39,72.26c0-4.94,4.3-8.94,9.59-8.94s9.59,4,9.59,8.94"/><path class="cls-7" d="M86.83,72.26a4.15,4.15,0,1,1,8.3,0"/><path class="cls-7" d="M90.11,63.32h0Z"/><path class="cls-7" d="M120.11,63.32h0Z"/></svg>