<svg xmlns="http://www.w3.org/2000/svg" viewBox="0 0 889.8 612.97"><defs><style>.cls-1,.cls-11,.cls-12,.cls-13,.cls-14,.cls-6{fill:none;stroke-miterlimit:10;}.cls-1,.cls-12,.cls-6{stroke:#0f8ab2;}.cls-1,.cls-6{stroke-width:12.45px;}.cls-2{fill:#a2cced;}.cls-3{fill:#00a1cd;}.cls-4{fill:#5e62ac;}.cls-5{fill:#5652a3;}.cls-11,.cls-13,.cls-14,.cls-6{stroke-linecap:round;}.cls-7{fill:#fff;}.cls-8{fill:#0d4060;}.cls-9{fill:#504b48;}.cls-10{fill:#56c5d0;}.cls-11,.cls-13{stroke:#0d4060;}.cls-11{stroke-width:4px;}.cls-12{stroke-width:10.12px;}.cls-13{stroke-width:3.75px;}.cls-14{stroke:#231f20;stroke-width:2.72px;}</style></defs><g id="Layer_1" data-name="Layer 1"><path class="cls-1" d="M554.45,262.51s-43,7.72-65.36-3.62-62.67-44.2-62.67-44.2"/><path class="cls-2" d="M383.48,213.18c-1.73-.91-2.13-3.31-.88-5.33s3.69-2.92,5.42-2l12,6.34a17.89,17.89,0,0,1,.83-3.57L386.47,201c-1.74-.92-2.13-3.32-.89-5.34s3.69-2.92,5.43-2l14.41,7.61A20.24,20.24,0,0,1,408,199l-12.39-6.54c-1.73-.91-2.13-3.31-.88-5.33s3.69-2.93,5.42-2L420.82,196a12.08,12.08,0,0,1,2.18.79l-3.09-3.49c-1.29-1.46-1-4,.74-5.68h0c1.7-1.67,4.15-1.83,5.44-.37l16.5,18.64a3.45,3.45,0,0,1,.76,2.71c3.44,4.41,3.59,11.36-.16,17.43-4.77,7.72-14.11,11.18-20.74,7.68l-16.36-8.63c-.12-.06-.22-.14-.33-.2l-.19-.07Z"/><path class="cls-3" d="M702.14,465.06c-32.29,4.47-31.41-.19-61-.19-47.44,0-91.39-37.28-105.47-81.8C516.8,323.55,507,259.65,493.54,198.58c-6.37-29-15.33-55.83-10.89-86.2a132.71,132.71,0,0,1,5.18-22.19c9.22-28.2,35.59-57.3,60.94-70.53,10.77-5.62,36.57-8.78,49.29-8.78,53.47,0,98.69.14,152.16.3,19.61.06,41.88.52,58.62,13.05C827.19,38,845,57.51,853.7,79.8c20,51.41-1.61,107.72-12.86,158.92q-11.7,53.22-23.39,106.43c-6.78,31-17.17,61.14-36.93,86.17C763.8,452.51,727.36,461.57,702.14,465.06Z"/><circle class="cls-4" cx="338.75" cy="139.67" r="58.89"/><path class="cls-3" d="M791,518.82l3.72.25c-33.77-16.57-2.49-14.16,5.71-12.65l-58.27-12.36c-12.59-1.09-10.49-35.45-11.25-39.25L746.72,446l1.46-.33c-1.58.12-3.16.26-4.74.41-10.82,1-21.6,2.57-32.4,3.87a291.19,291.19,0,0,1-29.31,2.3l21.8,56.42c1.48,3.36,7.12,18.54,21,18l70.57,1C798.69,527.88,789.8,523.55,791,518.82Z"/><path class="cls-3" d="M592.85,431.11l-14.54,34.48c-1.4,3.37-8.2,17.3-1.25,34.6l38.25,90.61c1.5,4.61,9.79,6.32,13.29,5.65,4.53-.86,7,5.41,6.27-1.13l-11-51.82c-.1-.6,2.77-1.19,2.58-1.78-3-9.21-8.91-35.16-10.76-48.38A11.65,11.65,0,0,1,620.81,482l32-20.9a11.63,11.63,0,0,0,1.31-18.52,3.39,3.39,0,0,0-.32-.25c-2.35-1.06,5.41,7.56,3.23,6-12.6-3.1-24.84-8.54-37.14-13.29"/><polygon class="cls-5" points="803.46 503.82 796.18 526.68 744.1 527.83 747.97 494.63 803.46 503.82"/><path class="cls-6" d="M549.5,237.87s39.7,19.54,69.4,31.94a67.88,67.88,0,0,0,45.66,2.38c20-6,47.84-14.87,57.1-20.3"/><path class="cls-2" d="M512.07,243.58c-1.87-.6-2.67-2.9-1.79-5.1s3.13-3.51,5-2.91l12.94,4.18a16.88,16.88,0,0,1,.21-3.66l-15.51-5c-1.87-.6-2.67-2.9-1.79-5.1s3.13-3.51,5-2.91l15.51,5a18.87,18.87,0,0,1,2.17-2.67l-13.33-4.31c-1.86-.6-2.67-2.9-1.78-5.1s3.13-3.51,5-2.91l22.21,7.18a11.82,11.82,0,0,1,2.29.41l-3.64-2.91c-1.53-1.22-1.64-3.8-.25-5.73h0c1.39-1.93,3.77-2.51,5.3-1.29l19.45,15.53a3.43,3.43,0,0,1,1.21,2.54c4.15,3.75,5.49,10.57,2.84,17.19-3.38,8.43-12,13.44-19.11,11.13l-17.6-5.69c-.13,0-.24-.1-.36-.14l-.2,0Z"/><path class="cls-7" d="M517.39,153.37a25.1,25.1,0,1,1,50.2,0"/><path class="cls-7" d="M586.36,153.37a25.1,25.1,0,1,1,50.19,0"/><path class="cls-8" d="M522,153.37a10.86,10.86,0,0,1,21.72,0"/><path class="cls-8" d="M591,153.37a10.86,10.86,0,0,1,21.71,0"/><path class="cls-8" d="M608.24,170.25s-5.78,18.53-34.19,18-30.65-18-30.65-18Z"/><polygon class="cls-5" points="635.83 594.98 616.8 596.76 590.26 536.01 625.04 534.01 635.83 594.98"/><path class="cls-9" d="M797,570.83c-19.8-3.79-33-21.55-29.57-39.68s22.32-29.77,42.11-26"/><path class="cls-9" d="M636.77,603c0-20.16-15-36.5-33.43-36.5s-33.42,16.34-33.42,36.5"/><path class="cls-3" d="M136.51,501.88,122.1,539.19c-1,2.23-4.72,12.26-13.92,11.89l-46.67.65c-2.34.2,3.53-2.67,2.77-5.79l-2.45.16c22.33-11,1.65-9.36-3.78-8.36l38.53-8.17c12,.37-1.82-32.76-1.31-35.27"/><path class="cls-3" d="M195.29,487.94l9.61,22.8a28.57,28.57,0,0,1,.83,22.88l-25.3,59.91c-1,3.05-6.47,4.19-8.78,3.75-3-.58-4.62,3.57-4.16-.76l7.32-34.26c.06-.4-1.83-.79-1.71-1.18a273.16,273.16,0,0,0,7.12-32,7.73,7.73,0,0,0-3.42-7.53l-21.16-13.82"/><polygon class="cls-10" points="56.01 536.02 60.83 551.13 95.27 551.89 92.7 529.94 56.01 536.02"/><polygon class="cls-10" points="166.87 596.3 179.45 597.48 197 557.3 174 555.98 166.87 596.3"/><path class="cls-9" d="M60.31,580.33c13.09-2.5,21.85-14.25,19.56-26.24S65.11,534.4,52,536.9"/><path class="cls-9" d="M166.24,601.58c0-13.33,9.9-24.13,22.11-24.13s22.1,10.8,22.1,24.13"/><path class="cls-11" d="M514.32,114.42s24.34-2.38,39.74-4.23"/><path class="cls-11" d="M602.06,111.64s24.41,1.53,39.9,2.15"/><path class="cls-12" d="M310.68,304.82s-20.45,27.38-32.44,38.42-66.77,7-66.77,7h0"/><path class="cls-2" d="M347.91,285.25a3.28,3.28,0,0,0-4.65-4.58l-7.87,8a12.93,12.93,0,0,0-1.24-2.57l9.43-9.58a3.28,3.28,0,0,0-4.65-4.58l-9.43,9.58a12.9,12.9,0,0,0-2.32-1.1l9.12-11.36c1.14-1.15,0,0-1.28-1.25a3.12,3.12,0,0,0-4.38-.2l-13.51,13.72a9.7,9.7,0,0,0-1.49,1.17l1.7-3.51a3.36,3.36,0,0,0-1.53-4.25h0a2.92,2.92,0,0,0-4.12,1.09l-9.08,18.72a3,3,0,0,0-.1,2.3,12.5,12.5,0,0,0,3.12,13.55c4.89,4.82,12.44,5.15,16.78.75l10.7-10.87.22-.24.12-.11Z"/><path class="cls-3" d="M169.55,157.42l-25.44-.72a84.28,84.28,0,0,0-86.64,81.86l-.16,5.9c-.64,5.9-1,11.79-1.17,17.55L51.71,418.3a84.29,84.29,0,0,0,81.87,86.63l25.44.72a84.28,84.28,0,0,0,86.64-81.86l.16-5.9c.64-5.9,1-11.79,1.17-17.55l4.42-156.29A84.28,84.28,0,0,0,169.55,157.42Z"/><path class="cls-8" d="M254.92,303.32c-.33-.08-.61-.2-.95-.28,0,0,.37.09.95.28"/><path class="cls-12" d="M228.47,327.87S208,355.25,196,366.3s-66.77,7-66.77,7h0"/><path class="cls-2" d="M265.69,308.3a3.28,3.28,0,0,0-4.64-4.58l-7.87,8a13.48,13.48,0,0,0-1.24-2.57l9.43-9.58a3.28,3.28,0,0,0-4.65-4.58l-9.43,9.58a13.62,13.62,0,0,0-2.32-1.1l9.12-11.35c1.13-1.15,0,0-1.28-1.26a3.13,3.13,0,0,0-4.39-.2l-13.5,13.72a9.24,9.24,0,0,0-1.49,1.17l1.7-3.5a3.35,3.35,0,0,0-1.53-4.25h0a2.9,2.9,0,0,0-4.12,1.09l-9.08,18.71a3,3,0,0,0-.1,2.3,12.5,12.5,0,0,0,3.12,13.55c4.89,4.82,12.44,5.16,16.78.75l10.7-10.87a2.41,2.41,0,0,0,.21-.24l.13-.1Z"/><path class="cls-8" d="M205,284.69s-4.12,10.81-23,10S162,283.55,162,283.55Z"/><path class="cls-13" d="M120.49,230.63s6.83-13,20.87-4.84"/><path class="cls-13" d="M244.64,233.92s-4.38-13.51-18.83-6.15"/><path class="cls-14" d="M170.36,248.73a38.46,38.46,0,1,1-37.43-39.47A38.46,38.46,0,0,1,170.36,248.73Z"/><path class="cls-14" d="M273.46,251.46A38.46,38.46,0,1,1,236,212,38.46,38.46,0,0,1,273.46,251.46Z"/><path class="cls-14" d="M170.41,244.14s13-17,25,.66"/><path class="cls-7" d="M203.05,259.77c.12-11.62,10.27-20.93,22.66-20.79s22.34,9.66,22.21,21.28"/><path class="cls-7" d="M116.24,258.51c.12-11.62,10.33-20.92,22.78-20.78s22.46,9.66,22.34,21.27"/><path class="cls-8" d="M144.59,237.47A12.6,12.6,0,0,0,161,254.94C159.78,246.53,153.23,239.68,144.59,237.47Z"/><path class="cls-8" d="M231.17,240.06a12.6,12.6,0,0,0,16.41,17.47C246.36,249.11,239.82,242.27,231.17,240.06Z"/></g></svg>