<svg xmlns="http://www.w3.org/2000/svg" viewBox="0 0 1020.63 989.05"><defs><style>.cls-1,.cls-12,.cls-13,.cls-16,.cls-17,.cls-19,.cls-2,.cls-20,.cls-21{fill:none;}.cls-1,.cls-16,.cls-2{stroke:#0f8ab2;}.cls-1,.cls-12,.cls-13,.cls-16,.cls-2,.cls-21,.cls-3,.cls-6{stroke-linecap:round;}.cls-1,.cls-12,.cls-13,.cls-16,.cls-17,.cls-19,.cls-2,.cls-20,.cls-21,.cls-3,.cls-6{stroke-miterlimit:10;}.cls-1{stroke-width:14.51px;}.cls-2{stroke-width:10.39px;}.cls-3,.cls-6{fill:#f9f2d8;stroke:#1d3c6f;}.cls-3{stroke-width:7.26px;}.cls-4{fill:#a2cced;}.cls-5{fill:#98c4e1;}.cls-6{stroke-width:6.27px;}.cls-7{fill:#00a1cd;}.cls-8{fill:#45478d;}.cls-9{fill:#56c5d0;}.cls-10{fill:#504b48;}.cls-11{fill:#0d4060;}.cls-12,.cls-21{stroke:#0d4060;}.cls-12{stroke-width:4.23px;}.cls-13{stroke:#231f20;stroke-width:3.07px;}.cls-14{fill:#fff;}.cls-15{fill:#5e62ac;}.cls-16{stroke-width:15.44px;}.cls-17{stroke:#45478d;stroke-width:10px;}.cls-18{fill:#e7efb9;}.cls-19,.cls-20{stroke:#777769;}.cls-19{stroke-width:2px;}.cls-20{stroke-width:1.78px;}.cls-21{stroke-width:5px;}.cls-22{fill:#0f8ab2;}</style></defs><g id="Layer_1" data-name="Layer 1"><path class="cls-1" d="M600.72,433.55s-26-9.58-53.24-18.12c-17.23-5.41-38.56-37.92-47-53.9-8.69-16.54-17.43-36.48-14.37-45.11"/><path class="cls-2" d="M394.42,469.48C375.9,550.72,314.73,535,314.73,535"/><circle class="cls-3" cx="370.68" cy="150.73" r="101.15"/><path class="cls-4" d="M456.27,303a1.12,1.12,0,0,0,0-1.21c-1.12-1.82-3.34-8.69-3.77-10.61a1.13,1.13,0,0,0,.07-.84c-.19-.66-.35-1.33-.49-2,0-.1,0-.19,0-.28a31.57,31.57,0,0,1,.2-6c1.19-1.24,1.22,4.44,2.43,3.24l0,0a1.66,1.66,0,0,1,2.59.45l.06.12c1.16-1.29.48,2.28,1.87,1.24l4-3.43a1.38,1.38,0,0,1,.79-.37,1.41,1.41,0,0,0,1.06-.63c.73-1-2.2-5.24-1.46-6.27.32.39.59.56.8.13l7.84.68a1.6,1.6,0,0,0,.44,0c.71-.14,1.42-.26,2.13-.35a1.64,1.64,0,0,0,1.25-2.42l-1.48-2.75c0-.06.08-.09.12-.16,1.69-3.45,3.49-5.45,6.79-6.24a1.66,1.66,0,0,1,1.8.72l11.24,17.56.12.16a18,18,0,0,1,1.85,2.57l-.73-6.68a6,6,0,0,1,5.42-6.05l.3-.08a5.26,5.26,0,0,1,6.3,4l3,38.49v.2a21.77,21.77,0,0,1-14.29,20.12c-11.69,5.13-25.26,1.79-30.23-7.47a1.75,1.75,0,0,1-.11-.24l-8.75-23.16"/><path class="cls-4" d="M473.15,250.64a6.61,6.61,0,0,1,2.73.07c6.08,1.57,9.31,18.27,17.47,31,0,.13-.47,3.58-.45,3.72.42,2.88-9.07-11.92-11.95-11.5-3,1-2,10.67-3.31,7.85-.73-2.34-5.6-15.81-6.33-18.15-.82-2.6-3.52-7.69-2.15-10.27A5.5,5.5,0,0,1,473.15,250.64Z"/><path class="cls-5" d="M464.67,270.07a6.62,6.62,0,0,1,2.73.08c6.08,1.56,8.2,11.48,9.43,16.85a2.7,2.7,0,0,1,.08.41,5.29,5.29,0,0,1-4.44,6,6.13,6.13,0,0,1-7.45-3.28c-.72-2.34-1.47-4.68-2.19-7-.82-2.61-3.53-7.69-2.15-10.28A5.59,5.59,0,0,1,464.67,270.07Z"/><path class="cls-5" d="M454.58,279.57a6.4,6.4,0,0,1,2.72.08c6.09,1.56,8.2,11.48,9.44,16.85,0,.13.06.27.08.41a5.29,5.29,0,0,1-4.45,6,6.11,6.11,0,0,1-7.44-3.28c-.72-2.34-1.47-4.68-2.19-7-.83-2.61-3.53-7.69-2.15-10.28A5.52,5.52,0,0,1,454.58,279.57Z"/><path class="cls-4" d="M413.61,452.46a.72.72,0,0,1-.09-.78,40.84,40.84,0,0,0,1.66-7.17.73.73,0,0,1-.11-.54c.07-.44.13-.89.17-1.34v-.19a20.45,20.45,0,0,0-.57-3.86c-.87-.72-.46,3-1.34,2.28h0a1.08,1.08,0,0,0-1.65.48l0,.09c-.85-.75-.14,1.51-1.12.94l-2.84-1.93a.84.84,0,0,0-.54-.18.91.91,0,0,1-.73-.33c-.56-.62,1-3.57.48-4.18-.18.28-.34.41-.51.15l-5,1a1.42,1.42,0,0,1-.29,0c-.47,0-.94-.07-1.41-.07a1.09,1.09,0,0,1-1-1.49l.76-1.89s-.06-.05-.09-.1c-1.35-2.11-2.67-3.27-4.87-3.54a1.09,1.09,0,0,0-1.12.6l-6,12.24-.06.11a11.45,11.45,0,0,0-1,1.81l0-4.4a3.92,3.92,0,0,0-4-3.52l-.2,0a3.44,3.44,0,0,0-3.8,3.06l.91,25.21a.62.62,0,0,0,0,.13A14.22,14.22,0,0,0,390,477c8,2.46,16.53-.71,19.07-7.09a1,1,0,0,0,0-.16l4-15.69"/><path class="cls-4" d="M398.76,419.72A4.26,4.26,0,0,0,397,420c-3.83,1.46-4.68,12.55-9,21.43,0,.09.57,2.29.57,2.39-.06,1.89,5-8.42,6.9-8.36,2,.4,2.11,6.78,2.73,4.85.3-1.57,2.46-10.68,2.76-12.25.34-1.75,1.72-5.25.63-6.83A3.64,3.64,0,0,0,398.76,419.72Z"/><path class="cls-5" d="M405.71,431.71a4.45,4.45,0,0,0-1.77.25c-3.83,1.47-4.46,8.06-4.87,11.64,0,.09,0,.18,0,.27a3.45,3.45,0,0,0,3.33,3.56,4,4,0,0,0,4.59-2.68c.29-1.57.61-3.15.9-4.72.34-1.76,1.72-5.26.63-6.83A3.6,3.6,0,0,0,405.71,431.71Z"/><path class="cls-5" d="M413,437.12a4.26,4.26,0,0,0-1.77.26c-3.83,1.46-4.47,8.06-4.87,11.64a2.45,2.45,0,0,0,0,.27,3.46,3.46,0,0,0,3.33,3.56,4,4,0,0,0,4.59-2.68c.29-1.58.6-3.15.9-4.73.34-1.75,1.72-5.25.63-6.83A3.63,3.63,0,0,0,413,437.12Z"/><path class="cls-6" d="M370.68,102.25l.84,42.26a5.08,5.08,0,0,0,7.44,4.4l24-12.62"/><line class="cls-6" x1="370.68" y1="63.39" x2="370.68" y2="77.9"/><line class="cls-6" x1="370.68" y1="224.62" x2="370.68" y2="237.33"/><line class="cls-6" x1="283.42" y1="150.73" x2="297.94" y2="150.73"/><line class="cls-6" x1="442.66" y1="150.73" x2="455.37" y2="150.73"/><line class="cls-6" x1="415.05" y1="220.24" x2="416.85" y2="221.98"/><line class="cls-6" x1="442.18" y1="112.24" x2="444.62" y2="110.68"/><line class="cls-6" x1="443.01" y1="189.78" x2="445.11" y2="190.99"/><line class="cls-6" x1="416.18" y1="81.37" x2="417.59" y2="79.04"/><line class="cls-6" x1="331.41" y1="220.78" x2="329.6" y2="222.52"/><line class="cls-6" x1="304.27" y1="112.78" x2="301.84" y2="111.22"/><line class="cls-6" x1="303.45" y1="190.32" x2="301.35" y2="191.53"/><line class="cls-6" x1="330.27" y1="81.91" x2="328.86" y2="79.58"/><path class="cls-7" d="M781.93,664.66c-36,5.2-35-.22-68-.22-52.82,0-101.76-43.36-117.44-95.15-21-69.22-31.91-143.55-46.85-214.58-7.1-33.71-17.07-64.93-12.14-100.26a162,162,0,0,1,5.77-25.81c10.27-32.79,39.64-66.63,67.87-82,12-6.53,40.71-10.2,54.87-10.21,59.54,0,109.9.16,169.44.35,21.83.07,46.63.6,65.27,15.18,20.43,16,40.31,38.71,50,64.64,22.24,59.79-1.79,125.28-14.32,184.84q-13,61.89-26,123.78c-7.55,36-19.12,71.11-41.12,100.23C850.59,650.06,810,660.6,781.93,664.66Z"/><path class="cls-8" d="M167.51,636.87l-30.75,2.91A59.29,59.29,0,0,1,103,632.57c-19.7-10.76-30.28-33-27-55.19l7.82-53c.85-5.73,4.9-18.81,9.7-28.43,18.28-36.58,31.76-37,59-39.6l-2.11.2a54.08,54.08,0,0,1,58.76,48.59l6.9,72.93A54.06,54.06,0,0,1,167.51,636.87Z"/><polyline class="cls-7" points="235.37 659.93 250.74 784.86 266.12 784.86 282.3 644.32"/><polygon class="cls-9" points="265.04 800.66 250.54 800.66 244.69 731.97 272.77 731.97 265.04 800.66"/><path class="cls-10" d="M250.74,802.59a22.63,22.63,0,0,1,45.26,0"/><path class="cls-7" d="M248.54,297.91l-28.68-.82a95.07,95.07,0,0,0-97.72,92.34l-.19,6.65c-.72,6.65-1.13,13.29-1.31,19.79l-5,176.27A95.08,95.08,0,0,0,208,689.86l28.68.81a95.05,95.05,0,0,0,97.72-92.33l.19-6.66c.72-6.65,1.13-13.29,1.31-19.78l5-176.28A95.06,95.06,0,0,0,248.54,297.91Z"/><path class="cls-11" d="M280.93,445.91S276.28,458.1,255,457.16s-22.64-12.54-22.64-12.54Z"/><path class="cls-12" d="M185.59,384.91s7.71-14.62,23.54-5.46"/><path class="cls-12" d="M325.66,388.62s-4.94-15.24-21.24-6.93"/><path class="cls-13" d="M241.86,405.33a43.4,43.4,0,1,1-42.23-44.54A43.4,43.4,0,0,1,241.86,405.33Z"/><path class="cls-13" d="M358.18,408.41A43.4,43.4,0,1,1,316,363.88,43.41,43.41,0,0,1,358.18,408.41Z"/><path class="cls-13" d="M241.91,400.15s14.67-19.21,28.25.74"/><path class="cls-14" d="M278.73,417.78c.15-13.1,11.59-23.6,25.57-23.45s25.2,10.9,25.06,24"/><path class="cls-14" d="M180.79,416.36c.14-13.1,11.65-23.6,25.71-23.45s25.34,10.9,25.2,24"/><polyline class="cls-7" points="176.44 659.54 191.81 784.85 207.19 784.85 220.03 659.93"/><polygon class="cls-9" points="207.17 800.66 192.66 800.66 184.88 731.97 212.96 731.97 207.17 800.66"/><path class="cls-10" d="M191.57,802.59a22.63,22.63,0,0,1,45.25,0"/><polyline class="cls-7" points="809.08 616 792.49 801.1 772.61 801.1 749.57 623.48"/><polyline class="cls-7" points="726.97 623.13 710.38 797.58 690.5 797.58 670.68 630.47"/><polygon class="cls-15" points="773.26 801.1 763.84 741.15 799.94 741.15 793.12 796.13 773.26 801.1"/><polygon class="cls-15" points="691.81 801.1 682.38 741.15 718.49 741.15 711.67 796.13 691.81 801.1"/><path class="cls-10" d="M727.61,804.66c0-20.16,15-36.49,33.42-36.49s33.43,16.33,33.43,36.49"/><path class="cls-10" d="M713.51,804.66c0-20.16-15-36.49-33.42-36.49s-33.43,16.33-33.43,36.49"/><path class="cls-14" d="M666.24,290.41c0-16-13.8-28.9-30.83-28.9s-30.83,12.94-30.83,28.9"/><path class="cls-11" d="M641.87,290.41a13.41,13.41,0,1,0-26.82,0"/><path class="cls-14" d="M695.92,290.41c0-16,13.88-28.9,31-28.9s31,12.94,31,28.9"/><path class="cls-11" d="M727.76,290.41a13.41,13.41,0,0,0-26.82,0"/><path class="cls-11" d="M638.18,313s0,22.37,38.05,22.36c31.65,0,34.13-22.36,34.13-22.36Z"/><path class="cls-11" d="M212.78,392.63a14.21,14.21,0,0,0,18.51,19.71C229.92,402.84,222.53,395.12,212.78,392.63Z"/><path class="cls-11" d="M310.47,395.55A14.21,14.21,0,0,0,329,415.26C327.6,405.76,320.22,398,310.47,395.55Z"/><path class="cls-16" d="M871.93,420.61s-22.73,95-161.57,29.34"/><path class="cls-4" d="M718.94,443.94c-.33-7-9.76-12.15-14.42-15.69-9.45-7.16-16.73-14.93-18.81-26.67-.44-2.46-.77-5.14-2.5-6.93-2.89-3-8.3-1.65-10.83,1.64-3.13,4.07-3.38,10.53-2.65,15.44.31,2,3,13,5.81,13.3a110.37,110.37,0,0,0-15.64-.56c-10,.35-15.23.6-17.33,4.08-1.77,2.92-1.07,7.57,1.6,10.59a12.13,12.13,0,0,0,5.54,3.43A9.9,9.9,0,0,0,651,456.65a11.17,11.17,0,0,0,3.85,2,7.62,7.62,0,0,0-2.15,5.85c.3,3.17,2.93,5.24,4.1,6.16,9.21,7.25,31.74,3.4,39.06,2a150.39,150.39,0,0,0,19.42-5.18,6.54,6.54,0,0,0,4.44-6.49Q719.34,452.42,718.94,443.94Z"/><path class="cls-17" d="M97.35,515.22s57.1-12.32,56.16,14.21-28.42,51.05-51.16,50.1"/><path class="cls-2" d="M229.38,569.69c-77.3,34.1-93.79-40.58-93.79-40.58"/><path class="cls-18" d="M95.45,523s12.51-40.92,23.94-46.91V445.44L84.61,464.39Z"/><path class="cls-19" d="M119.39,476.07S105.56,487,95.45,524.53,87.24,588,87.24,588"/><rect class="cls-20" x="146.9" y="522.98" width="12.84" height="11.34" rx="2.49"/><path class="cls-21" d="M609.2,243s24.37-2,39.8-3.62"/><path class="cls-21" d="M711.16,237.55s24.15,3.88,39.51,6"/><path class="cls-4" d="M212.11,568.78c.2-4.22,5.93-7.38,8.76-9.53,5.75-4.36,10.18-9.09,11.44-16.23.27-1.49.47-3.12,1.53-4.21,1.75-1.81,5-1,6.58,1,1.9,2.48,2.06,6.4,1.61,9.39-.19,1.23-1.84,7.9-3.54,8.09A66.87,66.87,0,0,1,248,557c6.11.21,9.26.36,10.54,2.47,1.08,1.78.65,4.61-1,6.45A7.32,7.32,0,0,1,254.2,568a6,6,0,0,1-.79,8.57,6.89,6.89,0,0,1-2.34,1.18,4.61,4.61,0,0,1,1.3,3.56,5.7,5.7,0,0,1-2.49,3.74c-5.6,4.41-19.3,2.07-23.75,1.2a89.88,89.88,0,0,1-11.81-3.15,4,4,0,0,1-2.7-3.95Q211.86,573.94,212.11,568.78Z"/><path class="cls-22" d="M165.28,937.09h-.11a23.42,23.42,0,0,1-5.3,6.88q-4.86,4.39-9.81,5-9.59,1-19.62-19.51a43.32,43.32,0,0,1,.34,5q0,6.91-3.38,10.92A18.22,18.22,0,0,1,117,948.93a16.87,16.87,0,0,1-4.06-.45q-6.64-1.68-8.68-4.28-2.7-3.36-2.7-12.14v-4.5q-.35-.33.22-20.13.67-22.38,2.6-34.08,1.45-8.43,11.95-11.58,5-1.47,19.5-2.93,17.25.57,23.68,11.5,4.84,10.95,4.73,20.07-.1,9.36-5.07,15.67a82.1,82.1,0,0,1-6.43,6q12.75,13.76,12.74,23A13.43,13.43,0,0,1,165.28,937.09ZM133,884.55h-.11a3.7,3.7,0,0,0-1.13-.22,16.71,16.71,0,0,0-3.49,1.57c-.3.31-.42,2.22-.34,5.75q.11,6.21.11,11.73a20.18,20.18,0,0,0,7.27-4.23c2-1.84,3-3.78,3-5.81Q138.33,889.17,133,884.55Z"/><path class="cls-22" d="M205.3,874.74q0,4.62.23,11.28t.22,8.57a221.08,221.08,0,0,1-3,39.91q-2,11.38-10.37,13.64c-1.66.15-2.78.22-3.39.22q-11.38,0-12.85-10.48a219.65,219.65,0,0,1-2.48-32.58A152.26,152.26,0,0,1,176,878.12l3-7.55q5.86-8.46,16.69-8.46a19.37,19.37,0,0,1,4.4.46,7.61,7.61,0,0,1,4.17,5.29Z"/><path class="cls-22" d="M271.37,880.27a22.44,22.44,0,0,1,.34,3.83q0,6.09-2.48,9.47-3.84,5.29-11.5,5-7-.33-9.36-6.54v-3.16a2.89,2.89,0,0,0-1.13-2.36l-.67.11q-7.23,18.27-7.22,30.67c0,2.78,0,3.76-.11,2.93a5.6,5.6,0,0,0,1.91,3.38q5-.45,6.2-3c.38-1.06,0-2-1.24-2.94a4.36,4.36,0,0,1-2.25-.67,2.1,2.1,0,0,1-1.35-1.81A10.43,10.43,0,0,1,244.2,909l2.82-2.26q1.13,0,5.92-.39t6.37-.4q6.53,0,9.8,3.27a14.85,14.85,0,0,1,2.15,8.46,35.9,35.9,0,0,1-2.48,12.74,33.63,33.63,0,0,1-7.67,12.17,21.45,21.45,0,0,1-12.51,6.54,48.65,48.65,0,0,1-6.09.45,27,27,0,0,1-17.7-6.42q-5.42-4.51-8.46-13.53a63.64,63.64,0,0,1-3-20.41,77.33,77.33,0,0,1,5.07-28.41q5.07-13,13.64-18.6a28.21,28.21,0,0,1,13.19-3.05,27,27,0,0,1,11.84,2.6q13.2,9,14.09,18.49Z"/><path class="cls-22" d="M282.19,866.74h-.11a17,17,0,0,1,12.51-5q6.32,0,9.25,1.69,3.27,3.27,3.49,10.26-.68,5.52-1,14.77c.9,3.3,2.25,5,4.06,5a8.49,8.49,0,0,0,3.15-1q1.25-.56,1.92-4.62-.68-5.87-.9-16.12.45-5.87,7.44-10.15,1.35-.78,6.65-1a23.84,23.84,0,0,1,5.3.22q5.07,1.35,6.77,7.67c.37,1.28.79,2.55,1.24,3.83a32.28,32.28,0,0,1,1.12,7.56q.69,15.78.68,23.67,0,16.69-5.75,36.76-1.8,6.19-9.92,7.89-5.19,1.13-8.34-1-4.29-2.8-5-9.35a31.52,31.52,0,0,1,.28-6.43,43.07,43.07,0,0,0,.39-6.43,3.41,3.41,0,0,0-3.68-2.81,7.19,7.19,0,0,0-5.12,2.14,6.92,6.92,0,0,0-2.13,5.52c.37,1.51.9,4.17,1.57,8a11,11,0,0,1-.33,5.86,8.45,8.45,0,0,1-4.4,4.4q-2,.9-7.44.9a11.22,11.22,0,0,1-8.57-3.61q-2.82-3-4.74-10A67.86,67.86,0,0,1,278.13,918q-.33-13.65-.33-23.34Q277.8,873.16,282.19,866.74Z"/><path class="cls-22" d="M412.3,874.18h.11a22.77,22.77,0,0,1,.34,4.39q-.12,5.64-2.71,8.57c-.67.76-3.7,1.64-9.07,2.65s-8.14,1.68-8.29,2q-.23,1.23,2.59,23.56a71.87,71.87,0,0,1,.57,9q0,10.26-2.71,16.91-3.37,8.34-9.92,8.12-10.6-.35-14.77-6.65-3.15-4.74-3.27-15,0,.9.45-11.84l.57-14.43a89.82,89.82,0,0,1,1.46-11.72,6.9,6.9,0,0,1-2,.22,24.65,24.65,0,0,1-7.66-1.24q-5.19-1.69-7.11-5a17.33,17.33,0,0,1-2.7-8.68q0-6.76,7.44-10.49,9.59-4.85,23.11-4.84a87,87,0,0,1,14.88,1.35q3.72,1.35,11.28,4.17Q411.17,868.54,412.3,874.18Z"/><path class="cls-22" d="M512.64,929.2l.11.11a27.58,27.58,0,0,1-10.31,14.43,28.51,28.51,0,0,1-17.08,5.3q-17.92,0-27.85-13.53-8.46-11.5-8.46-28a67.32,67.32,0,0,1,1.36-14q6.19-29.43,26.27-33.15a21.24,21.24,0,0,1,3.83-.34q9,0,17.53,6t11.44,14.54q6.32,18.61,6.32,29a68.53,68.53,0,0,1-3.27,19.62Zm-28-8.12V921q3.27-.57,3.27-12.52a60.53,60.53,0,0,0-1.24-12.68q-1.24-5.81-2.71-6-2.47-.68-4.51,5.41a42.31,42.31,0,0,0-2,13.42Q477.46,922.21,484.68,921.08Z"/><path class="cls-22" d="M589,882.52v-.11q1.13,13.08,1.13,24.69,0,35.74-11.84,40.14a11.92,11.92,0,0,1-4.17.67,31.65,31.65,0,0,1-7.33-1.12q-5.64-3.16-17.25-36.2a75.78,75.78,0,0,1,2,17.19q0,9.39-2.71,14.93a10.58,10.58,0,0,1-4.45,4.46,9.84,9.84,0,0,1-6.15,1.53q-9.36-.9-12.74-11.4-2.25-7-2.25-21.68,0-28.56,2.37-38.38a20.85,20.85,0,0,1,8.23-12.08,13.87,13.87,0,0,1,8.34-2.71,16.47,16.47,0,0,1,5,.79q6.54,3.5,12.85,20.86a140.62,140.62,0,0,1,4.85,16.57q-1.12-7.44-1.92-13.08a120.6,120.6,0,0,1-1.35-14.54,14,14,0,0,1,2.93-9.13q3.39-4.17,9.59-4.17,10.93,0,13.64,12.17A105,105,0,0,1,589,882.52Z"/><path class="cls-22" d="M691.45,874.18h.12a23.72,23.72,0,0,1,.33,4.39q-.1,5.64-2.7,8.57-1,1.14-9.08,2.65c-5.37,1-8.14,1.68-8.29,2q-.23,1.23,2.6,23.56a73.79,73.79,0,0,1,.56,9q0,10.26-2.7,16.91-3.39,8.34-9.93,8.12-10.59-.35-14.77-6.65-3.15-4.74-3.26-15,0,.9.45-11.84l.56-14.43a88,88,0,0,1,1.47-11.72,6.94,6.94,0,0,1-2,.22,24.66,24.66,0,0,1-7.67-1.24q-5.19-1.69-7.1-5a17.25,17.25,0,0,1-2.71-8.68q0-6.76,7.44-10.49,9.59-4.85,23.11-4.84a87.18,87.18,0,0,1,14.89,1.35q3.72,1.35,11.27,4.17Q690.33,868.54,691.45,874.18Z"/><path class="cls-22" d="M729.45,874.74q0,4.62.22,11.28t.23,8.57a221,221,0,0,1-3,39.91q-2,11.38-10.37,13.64c-1.65.15-2.78.22-3.38.22q-11.39,0-12.85-10.48a218.31,218.31,0,0,1-2.48-32.58,152.32,152.32,0,0,1,2.36-27.18l3-7.55q5.85-8.46,16.68-8.46a19.3,19.3,0,0,1,4.4.46,7.58,7.58,0,0,1,4.17,5.29Z"/><path class="cls-22" d="M819.3,933.93q0,5.87-2.36,9.14a8.79,8.79,0,0,1-5,3.38c-1.06.3-2.6.67-4.63,1.13a18.41,18.41,0,0,1-3,.56,10.13,10.13,0,0,1-8.23-4.34A16.94,16.94,0,0,1,792.7,933a114.76,114.76,0,0,1,1.24-11.5q1-7,.11-11-.57,1.69-3.5,10.26-3.82,10.83-6.87,13.19a6.32,6.32,0,0,1-4.06,1.36,6.87,6.87,0,0,1-3.72-1.24q-6.09-6.31-9.47-24.47a29,29,0,0,0-.57,5.75q0,1.7.9,10.71a37.7,37.7,0,0,1,0,10.26,16,16,0,0,1-4.84,8.79,15.23,15.23,0,0,1-7.56,2.26q-5,0-9.13-4.4-4.62-7.89-5.41-10.48-1.7-5.09-1.69-15.22,0-9.36,1.58-33.15a25.28,25.28,0,0,1,5-14,22.35,22.35,0,0,1,12-7.95q15-.43,22.77,25.82a60,60,0,0,1,3.5-12.85q4.29-11.73,9.7-14.32a32.6,32.6,0,0,1,9-1.58q6.19,0,9.47,3.84a21,21,0,0,1,6,10.14,66,66,0,0,1,1.47,13.31q.11,8.34.22,16.68.45,18.5.45,30.67Z"/><path class="cls-22" d="M877.14,894.25a11,11,0,0,1,.34,3.49,12.61,12.61,0,0,1-4.85,10,12,12,0,0,1-9.47,3.27,8.75,8.75,0,0,0-3.38-.12c.15.91-.11,3.31-.79,7.22a4.39,4.39,0,0,0,2.37,4.06q4.62-1.25,7.55,0,4.62,1.8,5.07,6.09.57,4.85-2.81,9.86a27.14,27.14,0,0,1-9.36,8.4,24.73,24.73,0,0,1-12.52,3,26.54,26.54,0,0,1-11.38-2.36q-2.14-1-6.43-6.32-4.62-7.67-4.74-32.35a231.81,231.81,0,0,1,2.37-32.47q1.47-10.61,6.09-13.76L854,860.42a45.54,45.54,0,0,1,9.24-1c5.87,0,9.32,1.46,10.38,4.4a11.47,11.47,0,0,1,.67,4.05,9.84,9.84,0,0,1-3.61,7.9q-3.6,3-10,3H858.2a14.34,14.34,0,0,0-.9,5.37c-.15,3.12-.27,4.91-.34,5.36a2.71,2.71,0,0,0,2.37,2,12.82,12.82,0,0,1,8.23-2.59Q873.31,889,877.14,894.25Z"/><path class="cls-22" d="M928.38,930.3a15.18,15.18,0,0,1,1.66,7.09,19.79,19.79,0,0,1-1.33,7q-4.1,5.54-13.74,5.54c-1.4,0-2.81-.08-4.21-.22q-7.77-4.11-8.65-12.42a27.64,27.64,0,0,0-.22-4.54q2.33-7.75,11.42-9.76a55.36,55.36,0,0,1,8.64,1.44A10.37,10.37,0,0,1,928.38,930.3ZM933,863.79l.11-.11a14.8,14.8,0,0,1,2.1,7.87,51.11,51.11,0,0,1-1.94,11.09c-1.29,5.09-1.9,8.94-1.82,11.52a163.14,163.14,0,0,0-2.66,21.73q-1,3.66-7.54,4.54a22.17,22.17,0,0,1-3.77.34q-5.88,0-9-3.22-2.65-2.65-3.1-11.08.33-3.33.33-7.21,0-4.21-.61-12.19t-.61-11.86a47.62,47.62,0,0,1,1.77-13.52l.22.33a17.93,17.93,0,0,1,1.67-2.77,5.44,5.44,0,0,1,2.94-2.28,13.76,13.76,0,0,1,3.82-.49,71.13,71.13,0,0,1,9.53,1.44Q930.71,860,933,863.79Z"/></g></svg>