<svg id="Layer_1" data-name="Layer 1" xmlns="http://www.w3.org/2000/svg" viewBox="0 0 213.85 256.92"><defs><style>.cls-1,.cls-6{fill:none;stroke-linecap:round;stroke-miterlimit:10;}.cls-1{stroke:#0f8ab2;stroke-width:6.42px;}.cls-2{fill:#a2cced;}.cls-3{fill:#00a1cd;}.cls-4{fill:#56c5d0;}.cls-5{fill:#504b48;}.cls-6{stroke:#0d4060;stroke-width:1.86px;}.cls-7{fill:#0d4060;}.cls-8{fill:#fff;}</style></defs><path class="cls-1" d="M58.49,129.45s-21.83,20.05-15.9,48.7"/><path class="cls-1" d="M154.91,130.74s20,19.94,15.35,48.84"/><path class="cls-2" d="M48.39,170.51c-1.2-2.08-4-3.28-7.22-2.81-4.05.6-7.16,3.69-6.92,6.87l.61,7.83a1,1,0,0,0,0,.17.22.22,0,0,0,0,.08l.81,10.58a1.64,1.64,0,0,0,2,1.22,1.92,1.92,0,0,0,1.81-1.79l-.44-5.76a8.43,8.43,0,0,0,1.62.26l.54,6.9c.06.83,1,1.38,2,1.23a1.94,1.94,0,0,0,1.81-1.8l-.54-6.9a9.41,9.41,0,0,0,1.4-.65l.46,5.93c.06.83,1,1.38,2,1.23a1.94,1.94,0,0,0,1.81-1.8l-.77-9.89a4.57,4.57,0,0,0,.07-1l.88,1.78a2,2,0,0,0,2.48.65h0a1.61,1.61,0,0,0,1.14-2.08"/><path class="cls-2" d="M163.72,170.51c1.19-2.08,4-3.28,7.22-2.81,4.05.6,7.16,3.69,6.91,6.87l-.6,7.83,0,.17s0,.05,0,.08l-.82,10.58c-.06.83-1,1.38-2,1.22a1.93,1.93,0,0,1-1.81-1.79l.45-5.76a8.54,8.54,0,0,1-1.63.26l-.53,6.9c-.06.83-1,1.38-2,1.23a1.94,1.94,0,0,1-1.81-1.8l.53-6.9a8.85,8.85,0,0,1-1.39-.65l-.46,5.93a1.65,1.65,0,0,1-2,1.23c-1.06-.16-1.88-1-1.81-1.8l.76-9.89a4.57,4.57,0,0,1-.07-1l-.88,1.78a2,2,0,0,1-2.48.65h0a1.61,1.61,0,0,1-1.13-2.08"/><polyline class="cls-3" points="81.02 179.09 89.09 236.5 93.79 236.5 101.86 179.27"/><polyline class="cls-3" points="108.2 178.82 116.28 236.23 120.97 236.23 129.04 179"/><polygon class="cls-4" points="93.87 234.99 96.31 218.55 85.99 218.55 88.81 234.75 93.87 234.99"/><polygon class="cls-4" points="120.88 234.99 123.33 218.55 113.92 218.55 115.83 234.75 120.88 234.99"/><path class="cls-5" d="M96.65,236.77a11.09,11.09,0,0,0-22.17,0"/><path class="cls-5" d="M135.84,236.77a11.08,11.08,0,0,0-22.16,0"/><path class="cls-3" d="M138.19,175.75c9.2-10.32,13.2-24.12,17.26-37,5.21-16.55,10.42-33.32,14.55-50.16,3.8-15.51,8.39-32.66,3-48.35-5.56-16.09-19.35-23.74-35.48-24.07-14.35-.28-28.7-.57-43-.43-11,.1-27.56-2.3-37.35,3.46-11,6.45-19.73,15.57-22.35,28.4-2.07,10.08-.71,20.56,1.57,30.59,6.16,27.09,16.32,53.42,26.43,79.23,8.14,20.77,23.27,31.11,39.3,31.11,9.15,0,19-.46,27.26-4.86C133,181.67,135.35,178.94,138.19,175.75Z"/><line class="cls-6" x1="82.57" y1="58.35" x2="92.84" y2="52.58"/><line class="cls-6" x1="127.87" y1="58.54" x2="117.82" y2="52.4"/><path class="cls-7" d="M93.12,85.22s2.2-8.93,13-8.65,11.71,8.65,11.71,8.65Z"/><path class="cls-8" d="M110.08,69.83c0-4.94,4.27-8.94,9.53-8.94s9.54,4,9.54,8.94"/><path class="cls-7" d="M115.52,69.83a4.15,4.15,0,1,1,8.29,0"/><path class="cls-8" d="M82.72,69.83c0-4.94,4.3-8.94,9.59-8.94s9.59,4,9.59,8.94"/><path class="cls-7" d="M88.16,69.83a4.15,4.15,0,0,1,8.3,0"/><path class="cls-7" d="M91.44,60.89h0Z"/><path class="cls-7" d="M121.44,60.89h0Z"/></svg>