<svg xmlns="http://www.w3.org/2000/svg" viewBox="0 0 552.28 814.74"><defs><style>.cls-1{fill:#faad1c;}.cls-2{fill:#ffcc04;}.cls-3{fill:#00a1cd;}.cls-4{fill:#02a1cd;}.cls-5{fill:#5e62ac;}.cls-6{fill:#514c49;}.cls-10,.cls-7,.cls-9{fill:none;stroke-miterlimit:10;}.cls-7{stroke:#188ab2;stroke-width:18.8px;}.cls-10,.cls-7{stroke-linecap:round;}.cls-8{fill:#a2cced;}.cls-10,.cls-9{stroke:#0d4161;}.cls-9{stroke-width:3.55px;}.cls-10{stroke-width:7.11px;}.cls-11{fill:#0d4161;}</style></defs><g id="Layer_1" data-name="Layer 1"><polyline class="cls-1" points="147.14 795.68 171.86 795.68 171.86 689.21 370.92 689.21 370.92 795.68 396.17 795.68 396.17 679.26 395.76 679.26 395.76 656.57 147.14 656.57 147.14 679.58"/><rect class="cls-2" x="125.97" y="605.92" width="289.35" height="57.86" rx="17.49"/><path class="cls-3" d="M369.75,40c24.49.08,52.32.67,73.24,16.87,22.93,17.75,45.24,43,56.06,71.81C524,195.07,497,267.84,483,334q-14.61,68.78-29.23,137.53c-8.47,40-21.45,79-46.14,111.35-20.9,27.39-66.44,39.09-97.95,43.6-40.35,5.78-39.25-.24-76.28-.24-59.28,0-114.2-48.18-131.79-105.71C78.07,443.61,65.78,361,49,282.13c-8-37.46-19.16-72.14-13.62-111.4a178.22,178.22,0,0,1,6.48-28.67C53.38,105.62,86.34,68,118,50.92c13.45-7.26,45.7-11.34,61.59-11.34"/><path class="cls-4" d="M251.34,619.49l-20.6,126.1H201.45L176.58,603.72"/><path class="cls-5" d="M205,778.38l22.57,14.45,7-73.17H196.27Z"/><path class="cls-6" d="M252.54,795.68a38.69,38.69,0,1,0-77.38,0"/><path class="cls-4" d="M362.84,605.49l-21.6,140.1H312L287.08,603.72"/><path class="cls-5" d="M315.53,778.38l22.58,14.45,7-73.17h-38.3Z"/><path class="cls-6" d="M367,795.68a38.69,38.69,0,1,0-77.38,0"/><path class="cls-7" d="M150.33,590.25s-78.24-54.72-77.05-104c.06-19,23.26-71.08,23.26-71.08"/><path class="cls-8" d="M186.4,656.09a5.72,5.72,0,0,0,8.62-7.44l-12.77-14.81a23,23,0,0,0,4.65-1.79l15.31,17.76a5.45,5.45,0,0,0,7.66.17c2.37-2.05,2.81-5.47,1-7.6l-15.31-17.76a23.3,23.3,0,0,0,2.24-3.89L210.92,636a5.72,5.72,0,0,0,8.62-7.44l-21.93-25.43a17.61,17.61,0,0,0-1.83-2.76l5.85,3.45a5.84,5.84,0,0,0,7.61-2.05h0a5.08,5.08,0,0,0-1.31-7.32L176.68,576a5.24,5.24,0,0,0-4-.5c-7.23-3.75-16.89-2.64-24,3.5-9.07,7.82-10.72,20.9-3.68,29.07l17.38,20.15c.13.15.27.27.39.41s.1.16.16.23Z"/><path class="cls-7" d="M389,588.25s78.23-54.72,77.05-104c-.06-19-19.57-74.52-19.57-74.52"/><path class="cls-8" d="M353.87,654.09a5.73,5.73,0,0,1-8.62-7.44L358,631.84a22.76,22.76,0,0,1-4.65-1.79l-15.32,17.76c-1.84,2.14-5.29,2.21-7.66.17s-2.8-5.47-1-7.6l15.32-17.76a22,22,0,0,1-2.24-3.89L329.36,634a5.72,5.72,0,0,1-8.62-7.44l21.93-25.43a18.27,18.27,0,0,1,1.82-2.76l-5.85,3.45a5.82,5.82,0,0,1-7.6-2.05h0a5.08,5.08,0,0,1,1.31-7.32L363.6,574a5.23,5.23,0,0,1,4-.5c7.23-3.75,16.88-2.64,24,3.5,9.07,7.82,10.73,20.9,3.68,29.07l-17.38,20.15c-.12.15-.26.27-.39.41s-.1.16-.16.23Z"/><path class="cls-9" d="M341.41,209.88c0,12.82-12.08,23.11-27,23.11s-27-10.38-27-23.11"/><path class="cls-9" d="M258.23,209.88c0,12.82-12.09,23.11-27,23.11s-27-10.38-27-23.11"/><path class="cls-10" d="M197.59,186.23s12.21-24.72,39.1-10.15"/><path class="cls-10" d="M343.28,186.23s-8.89-25.2-35.72-10.66"/><path class="cls-11" d="M314.51,261.42S307,275.4,270.35,275s-39.62-13.55-39.62-13.55Z"/><polygon class="cls-3" points="73.26 404.52 92.79 489.64 125.97 404.52 73.26 404.52"/><polygon class="cls-3" points="417.16 396.94 449.56 489.64 469.87 396.94 417.16 396.94"/></g></svg>