<svg xmlns="http://www.w3.org/2000/svg" viewBox="0 0 560.84 454.74"><defs><style>.cls-1,.cls-12,.cls-3,.cls-6,.cls-7{fill:none;stroke-linecap:round;stroke-miterlimit:10;}.cls-1,.cls-3{stroke:#0f8ab2;}.cls-1{stroke-width:9.78px;}.cls-2{fill:#a2cced;}.cls-3{stroke-width:6.33px;}.cls-4{fill:#00a1cd;}.cls-5{fill:#0d4060;}.cls-12,.cls-6{stroke:#0d4060;}.cls-6{stroke-width:2.11px;}.cls-7{stroke:#231f20;stroke-width:1.87px;}.cls-8{fill:#fff;}.cls-9{fill:#56c5d0;}.cls-10{fill:#504b48;}.cls-11{fill:#5e62ac;}.cls-12{stroke-width:3.23px;}</style></defs><g id="Layer_1" data-name="Layer 1"><path class="cls-1" d="M246,153.52C268.84,214.8,318.54,215,318.54,215"/><path class="cls-2" d="M220.79,124.81a3.17,3.17,0,0,1,5.87-2.32l4,10.09a12.57,12.57,0,0,1,2.08-1.82L228,118.67a3.17,3.17,0,0,1,5.87-2.32l4.77,12.09a12.9,12.9,0,0,1,2.48-.09L237,118a3.17,3.17,0,0,1,5.87-2.31L249.67,133a9.49,9.49,0,0,1,.88,1.6l-.19-3.76a3.24,3.24,0,0,1,3-3.2h0a2.81,2.81,0,0,1,3.26,2.53l1,20.08a2.89,2.89,0,0,1-.78,2.09,12.1,12.1,0,0,1-7.91,10.88c-6.17,2.43-13-.13-15.21-5.69l-5.41-13.72c0-.1-.06-.2-.1-.3l-.07-.14Z"/><path class="cls-3" d="M219.61,261.84c-14.55,49.33-55.74,27.62-55.74,27.62"/><path class="cls-4" d="M137.13,145.31l-17.46-.5A57.87,57.87,0,0,0,60.18,201l-.12,4c-.43,4.05-.68,8.09-.8,12.05l-3,107.32a57.87,57.87,0,0,0,56.22,59.48l17.46.5a57.87,57.87,0,0,0,59.49-56.21l.12-4c.43-4.05.69-8.09.8-12.05l3-107.32A57.87,57.87,0,0,0,137.13,145.31Z"/><path class="cls-5" d="M132.24,244.06a4.63,4.63,0,0,1-2.45-8.58c2.92-1.81,4.55-3.83,10.15-3.55,5.42.26,11.53,2.48,14,4.33a4.62,4.62,0,0,1-3.09,8.29l-3.79-1.35a17.48,17.48,0,0,0-10.89-.31Z"/><path class="cls-6" d="M107.69,190.91s7.54,5.9,16.16,13"/><path class="cls-6" d="M176.14,192.08l-16.28,11.7"/><path class="cls-7" d="M133.06,210.7a26.42,26.42,0,1,1-25.71-27.11A26.41,26.41,0,0,1,133.06,210.7Z"/><path class="cls-7" d="M203.88,212.58a26.42,26.42,0,1,1-25.71-27.11A26.43,26.43,0,0,1,203.88,212.58Z"/><path class="cls-7" d="M133.1,207.55s8.93-11.69,17.19.45"/><path class="cls-8" d="M155.51,218.29c.09-8,7.06-14.38,15.57-14.28s15.34,6.63,15.26,14.61"/><path class="cls-8" d="M95.89,217.42c.08-8,7.09-14.37,15.65-14.27s15.42,6.63,15.34,14.61"/><path class="cls-5" d="M115.36,203a8.66,8.66,0,0,0,11.27,12A14.86,14.86,0,0,0,115.36,203Z"/><path class="cls-5" d="M174.83,204.75a8.66,8.66,0,0,0,11.27,12A14.83,14.83,0,0,0,174.83,204.75Z"/><path class="cls-3" d="M28.12,255.15c7.25,41.65,47,40.73,47,40.73"/><path class="cls-2" d="M15.48,233.91a2,2,0,0,1,4-.77L20.82,240a7.54,7.54,0,0,1,1.53-.91l-1.6-8.25a2.05,2.05,0,0,1,4-.78l1.6,8.25a8.47,8.47,0,0,1,1.59.23l-1.38-7.09a2.05,2.05,0,0,1,4-.77l2.29,11.81a6.13,6.13,0,0,1,.37,1.12l.32-2.41a2.09,2.09,0,0,1,2.27-1.68h0a1.82,1.82,0,0,1,1.77,2l-1.75,12.89a1.86,1.86,0,0,1-.74,1.23,7.83,7.83,0,0,1-6.31,6c-4.21.81-8.26-1.62-9-5.42L18,246.85a1.38,1.38,0,0,1,0-.2l0-.1Z"/><path class="cls-2" d="M235.68,243.51a2,2,0,0,0-3.77-1.55l-2.67,6.48a8.49,8.49,0,0,0-1.33-1.2l3.2-7.77a2,2,0,0,0-3.77-1.55l-3.2,7.77a8.64,8.64,0,0,0-1.6-.09l2.75-6.68a2,2,0,0,0-3.77-1.55l-4.59,11.13a6.08,6.08,0,0,0-.58,1l.15-2.43a2.09,2.09,0,0,0-1.88-2.1h0a1.81,1.81,0,0,0-2.13,1.6l-.84,13a1.87,1.87,0,0,0,.49,1.35,7.82,7.82,0,0,0,5,7.11c4,1.64,8.42,0,9.89-3.53l3.63-8.81c0-.07,0-.13.07-.19a.26.26,0,0,1,.05-.09Z"/><polyline class="cls-4" points="128.72 357.64 138.24 434.99 147.76 434.99 157.78 347.98"/><polygon class="cls-9" points="147.1 444.77 138.12 444.77 134.5 402.25 151.88 402.25 147.1 444.77"/><path class="cls-10" d="M138.24,446a14,14,0,0,1,28,0"/><polyline class="cls-4" points="92.24 357.4 101.76 434.99 111.28 434.99 119.23 357.64"/><polygon class="cls-9" points="111.26 444.77 102.28 444.77 97.47 402.25 114.85 402.25 111.26 444.77"/><path class="cls-10" d="M101.6,446a14,14,0,0,1,28,0"/><path class="cls-4" d="M448.16,350.44c-23,4.64-22.54,1.15-43.8,2.38-34,1.95-67.15-23.88-79.14-56.32-16-43.36-25.82-90.34-38.05-135.07-5.81-21.23-13.38-40.76-11.49-63.47a102.47,102.47,0,0,1,2.77-16.67c5.41-21.29,23.09-43.95,40.71-54.81,7.49-4.61,25.86-8,35-8.54,38.36-2.21,70.8-4,109.17-6.05,14.06-.77,30.06-1.35,42.6,7.26,13.75,9.43,27.39,23.18,34.55,39.36C557,95.8,543.9,138.45,538,176.88q-6.12,39.94-12.24,79.89c-3.55,23.25-9.71,46-22.82,65.42C491.86,338.59,466.1,346.81,448.16,350.44Z"/><polyline class="cls-4" points="466.13 322.15 455.42 441.59 442.59 441.59 427.73 326.97"/><polyline class="cls-4" points="413.14 326.75 402.44 439.32 389.61 439.32 376.82 331.48"/><polygon class="cls-11" points="443.01 441.59 436.93 402.91 460.23 402.91 455.83 438.39 443.01 441.59"/><polygon class="cls-11" points="390.45 441.59 384.37 402.91 407.67 402.91 403.27 438.39 390.45 441.59"/><path class="cls-10" d="M413.55,443.89c0-13,9.66-23.55,21.57-23.55s21.57,10.54,21.57,23.55"/><path class="cls-10" d="M404.46,443.89c0-13-9.66-23.55-21.57-23.55s-21.57,10.54-21.57,23.55"/><path class="cls-8" d="M360,117.14c-.59-10.28-10-18.1-20.93-17.47s-19.39,9.47-18.79,19.76"/><path class="cls-5" d="M344.28,118.05A8.65,8.65,0,0,0,327,119"/><path class="cls-8" d="M379.1,116c-.59-10.28,7.87-19.13,18.9-19.76s20.44,7.19,21,17.47"/><path class="cls-5" d="M399.61,114.87a8.65,8.65,0,0,0-17.28,1"/><path class="cls-12" d="M336,79.56s11.36,11,18.72,17.73"/><path class="cls-12" d="M382.51,95.86S393,84.05,399.46,76.42"/><path class="cls-5" d="M357.55,148.62a7.41,7.41,0,0,1-4.7-13.49c4.5-3.16,6.92-6.56,15.91-6.62,8.68-.07,18.66,2.91,22.83,5.64,6.13,4,3.23,13.32-4.19,13.55l-6.18-1.82a28.11,28.11,0,0,0-17.44.5Z"/><path class="cls-1" d="M522,128.88c-6,79.33-58.69,77.37-58.69,77.37"/><path class="cls-2" d="M540.3,96a3.17,3.17,0,0,0-6.21-1.13l-1.93,10.67a12.59,12.59,0,0,0-2.4-1.38l2.32-12.79a3.17,3.17,0,0,0-6.21-1.12L523.56,103a13.15,13.15,0,0,0-2.46.38l2-11a3.17,3.17,0,0,0-6.2-1.12l-3.32,18.31a9.61,9.61,0,0,0-.55,1.75l-.56-3.72a3.22,3.22,0,0,0-3.53-2.56h0a2.81,2.81,0,0,0-2.7,3.11L509.17,128a3,3,0,0,0,1.18,1.9,12.09,12.09,0,0,0,9.88,9.12c6.52,1.18,12.74-2.66,13.8-8.54L536.66,116c0-.11,0-.21,0-.32s0-.09,0-.15Z"/></g></svg>