<svg id="Layer_1" data-name="Layer 1" xmlns="http://www.w3.org/2000/svg" viewBox="0 0 274.84 313.89"><defs><style>.cls-1,.cls-3,.cls-7{fill:none;stroke-miterlimit:10;}.cls-1{stroke:#0f8ab2;stroke-width:4.81px;}.cls-1,.cls-7{stroke-linecap:round;}.cls-2{fill:#a2cced;}.cls-3{stroke:#88b4d3;stroke-width:1.23px;}.cls-4{fill:#00a1cd;}.cls-5{fill:#56c5d0;}.cls-6{fill:#504b48;}.cls-7{stroke:#0d4060;stroke-width:2.03px;}.cls-8{fill:#0d4060;}.cls-9{fill:#fff;}</style></defs><path class="cls-1" d="M44.67,153.1c2.86.72,14.32,16.49,22.76,16.49,12.48,0,17.74-8.24,21.43-15.67"/><path class="cls-2" d="M50.71,152.23c.41-2.55-2.62-5.15-4.05-6.79-2.89-3.32-4.95-6.69-4.82-11.11a4.67,4.67,0,0,0-.38-2.71c-.82-1.3-2.89-1.22-4.06-.22-1.44,1.24-2,3.57-2.13,5.41,0,.76.12,4.95,1.11,5.27a41.19,41.19,0,0,0-5.64-1.39c-3.68-.63-5.58-.93-6.61.17a3.53,3.53,0,0,0-.21,4,4.54,4.54,0,0,0,1.75,1.67,3.72,3.72,0,0,0-1.29,1.94,3.78,3.78,0,0,0,.7,3.27,4,4,0,0,0,1.25,1,2.79,2.79,0,0,0-1.22,2,3.52,3.52,0,0,0,1,2.55c2.8,3.33,11.28,3.64,14,3.67a56.24,56.24,0,0,0,7.45-.41,2.44,2.44,0,0,0,2.1-2Z"/><path class="cls-3" d="M35.18,143.34s2.24,2.53,1.1,3.72-11-.46-11-.46"/><path class="cls-3" d="M35.26,147.72s4.84,3.44,1.59,5.43c-1.41.86-11-.46-11-.46"/><path class="cls-3" d="M35.39,153.6s2.24,2.53,1.1,3.72-8.54,0-8.54,0"/><path class="cls-1" d="M195.58,157s19.89,6.95,13.41,44.68"/><path class="cls-2" d="M202.49,199c1.1-2.21,4-3.62,7.26-3.33,4.21.38,7.6,3.37,7.54,6.66l-.15,8.1c0,.06,0,.12,0,.17s0,.06,0,.09l-.2,10.95c0,.86-.93,1.48-2,1.38a2,2,0,0,1-2-1.74l.11-6a8,8,0,0,1-1.66.37l-.13,7.14a1.69,1.69,0,0,1-2,1.39,2,2,0,0,1-2-1.74l.13-7.15a9.1,9.1,0,0,1-1.48-.58l-.11,6.14c0,.86-.93,1.48-2,1.38a2,2,0,0,1-2-1.74l.18-10.23a4.29,4.29,0,0,1-.12-1l-.8,1.89a2,2,0,0,1-2.52.82h0a1.67,1.67,0,0,1-1.3-2.07"/><polyline class="cls-4" points="115.58 218.65 124.39 281.26 129.5 281.26 138.31 218.84"/><polyline class="cls-4" points="145.23 218.35 154.03 280.96 159.15 280.96 167.96 218.54"/><polygon class="cls-5" points="129.59 279.6 132.26 261.68 121 261.68 124.08 279.34 129.59 279.6"/><polygon class="cls-5" points="159.06 279.6 161.72 261.68 151.46 261.68 153.54 279.34 159.06 279.6"/><path class="cls-6" d="M132.44,281.55a12.09,12.09,0,0,0-24.17,0"/><path class="cls-6" d="M175.55,281.55a12.09,12.09,0,0,0-24.17,0"/><path class="cls-4" d="M177.93,215c10-11.26,14.39-26.31,18.83-40.4,5.68-18.05,11.36-36.33,15.86-54.71,4.15-16.91,9.15-35.61,3.24-52.72-6.05-17.55-21.09-25.89-38.69-26.25-15.64-.31-31.29-.63-46.94-.48-12,.12-30-2.5-40.73,3.78-12,7-21.51,17-24.37,31-2.26,11-.77,22.42,1.71,33.36C73.56,138.1,84.65,166.83,95.67,195c8.87,22.65,25.38,33.93,42.86,33.93,10,0,20.69-.51,29.73-5.3C172.3,221.46,174.83,218.48,177.93,215Z"/><line class="cls-7" x1="116.55" y1="84.97" x2="129.19" y2="82.69"/><path class="cls-7" d="M168.61,85.05s-9.29-2.89-11.58-2.6"/><path class="cls-8" d="M155.78,109s-2.4,7.72-14.24,7.49S128.77,109,128.77,109Z"/><path class="cls-9" d="M148.36,99.49c0-5.39,4.66-9.75,10.4-9.75s10.4,4.36,10.4,9.75"/><path class="cls-8" d="M154.29,99.49a4.53,4.53,0,1,1,9.05,0"/><path class="cls-9" d="M117.44,99.49c0-5.39,4.68-9.75,10.45-9.75s10.46,4.36,10.46,9.75"/><path class="cls-8" d="M123.37,99.49a4.53,4.53,0,1,1,9,0"/><path class="cls-8" d="M126.94,89.75h0Z"/><path class="cls-8" d="M159.66,89.74h0Z"/></svg>