<svg id="Layer_1" data-name="Layer 1" xmlns="http://www.w3.org/2000/svg" viewBox="0 0 274.84 360.78"><defs><style>.cls-1{fill:#ffcb05;}.cls-2,.cls-7{fill:none;stroke-linecap:round;stroke-miterlimit:10;}.cls-2{stroke:#0f8ab2;stroke-width:4.81px;}.cls-3{fill:#a2cced;}.cls-4{fill:#00a1cd;}.cls-5{fill:#56c5d0;}.cls-6{fill:#504b48;}.cls-7{stroke:#0d4060;stroke-width:2.03px;}.cls-8{fill:#0d4060;}.cls-9{fill:#fff;}</style></defs><path class="cls-1" d="M15.09,104.09a5.05,5.05,0,0,1,.76-3.29c1.29-2,3.24-2.54,5.84-1.7.49.17,1.83.79,4,1.85l6.87,4.32a.93.93,0,0,0,.73-.35,3,3,0,0,0-1.11-1.29l-1.12-.84c-.73-.92-1.8-2.33-3.21-4.21a5.12,5.12,0,0,1-.68-5.18,3.07,3.07,0,0,1,3.11-1.53,14.87,14.87,0,0,1,4.39,1.47,15.82,15.82,0,0,1,2.77,1.47A3.45,3.45,0,0,0,39.39,96c.32-.31.34-.57.07-.79q-8.22-6.09-10.58-10.92a4.51,4.51,0,0,1-.58-2.6,4.7,4.7,0,0,1,.61-2,5.25,5.25,0,0,1,3.79-2.65,5.63,5.63,0,0,1,4.36,1,35.3,35.3,0,0,1,3.62,3.26q3.32,3.11,9.86,9.39,5.76,5.61,7.1,10.49a5,5,0,0,1-.94,3.23,8.45,8.45,0,0,1-3.29,3,6.18,6.18,0,0,1-4.08-.16,20.35,20.35,0,0,1-3.86-2,27.91,27.91,0,0,0-3.71-2,1,1,0,0,0-.74.46q.51.5,4.35,3.56a21.61,21.61,0,0,1,4,3.89,4.65,4.65,0,0,1,.09,5.23q-2.52,4.55-8.09,4.19A18.59,18.59,0,0,1,34,118.92,50.32,50.32,0,0,1,24.82,114Q15.42,107.76,15.09,104.09Z"/><path class="cls-1" d="M64,66.86a4.57,4.57,0,0,1,1,1,5.19,5.19,0,0,1,1.19,4.45A5,5,0,0,1,64.2,75.9a3.75,3.75,0,0,0-1.09.88,13.22,13.22,0,0,1,1.7,2.47,1.8,1.8,0,0,0,1.84.63,4.85,4.85,0,0,1,2.36-2,3,3,0,0,1,3.24.54A6,6,0,0,1,74,82.23a11.17,11.17,0,0,1-.66,5.16,10.2,10.2,0,0,1-3.1,4.33,11,11,0,0,1-4.21,2.34,10.2,10.2,0,0,1-3.71-.25Q58.83,92.67,52.12,85a97.1,97.1,0,0,1-8-10.81c-1.6-2.47-2.2-4.46-1.8-6l5.37-5.69a18.75,18.75,0,0,1,2.63-2.81c1.83-1.59,3.31-2.06,4.43-1.43A4.88,4.88,0,0,1,56,59.36a4.07,4.07,0,0,1,1,3.45,6.24,6.24,0,0,1-2.32,3.66l-.78.67a6.11,6.11,0,0,0,1.17,1.93c.8,1,1.25,1.61,1.34,1.77a1.14,1.14,0,0,0,1.29,0,5.29,5.29,0,0,1,1.88-3A4.77,4.77,0,0,1,64,66.86Z"/><path class="cls-1" d="M93.54,67.44l0,0q1.48,3.77,0,6.07A17.83,17.83,0,0,1,88.2,78q-8.64,4.78-13.81-4.56l-1.33-2.4c-.17-.3-.41-.77-.73-1.41s-.43-.87-.55-1.09A77.35,77.35,0,0,1,65.19,55a7.3,7.3,0,0,1,.11-3.79,6.19,6.19,0,0,1,2.44-2.58c.28-.19.6-.38,1-.58a4,4,0,0,1,2.93-.66,13,13,0,0,1,2.29,1.24,32,32,0,0,1,4.48,6.47q1.42,2.56,4,8.31,1.77,4,2.15,4.08a9.78,9.78,0,0,1,3.41-2.9,2.26,2.26,0,0,1,.88-.33,3.39,3.39,0,0,1,2.77.87,12,12,0,0,1,2,2.4Z"/><path class="cls-1" d="M114.4,60.56l-.05,0c.49,2.65.09,4.64-1.18,6a18.14,18.14,0,0,1-6.08,3.36q-9.42,3-12.66-7.18l-.83-2.62c-.11-.32-.25-.83-.44-1.52s-.25-.93-.32-1.17A77.6,77.6,0,0,1,89,42.81a7.34,7.34,0,0,1,.86-3.7,6.15,6.15,0,0,1,2.89-2c.32-.13.67-.26,1.06-.38a4.12,4.12,0,0,1,3-.08,14.14,14.14,0,0,1,2,1.66A32.52,32.52,0,0,1,102,45.49c.59,1.86,1.34,4.84,2.25,8.92.64,2.83,1.08,4.31,1.31,4.43a9.74,9.74,0,0,1,3.91-2.18,2.3,2.3,0,0,1,.93-.15,3.37,3.37,0,0,1,2.54,1.4,11.71,11.71,0,0,1,1.52,2.74Z"/><path class="cls-1" d="M153.4,45.42A23.92,23.92,0,0,1,150.35,57,16.14,16.14,0,0,1,140.05,65a15.67,15.67,0,0,1-6.53-1c-1.93-.77-2.92-1.75-3-2.93q-.57-12.47-.31-23.94.09-4.23.32-6c.81-1.66,3.33-2.45,7.56-2.35a22.19,22.19,0,0,1,6.37,1,14.08,14.08,0,0,1,5.21,4.59A17.86,17.86,0,0,1,153.4,45.42ZM141.84,41a1.78,1.78,0,0,0-1.24-.82,1.85,1.85,0,0,0-.7.18,3.77,3.77,0,0,1-.47.17,93.3,93.3,0,0,1,.41,11,7.18,7.18,0,0,0,2.32-2.7,8.24,8.24,0,0,0,1-3.67A6.41,6.41,0,0,0,141.84,41Z"/><path class="cls-1" d="M181.44,65l0,.06a11.48,11.48,0,0,1-5.73,4.58,11.75,11.75,0,0,1-7.4.19,13.46,13.46,0,0,1-9.56-8.51,19,19,0,0,1-.22-12.08,28.1,28.1,0,0,1,2.11-5.41q5.77-11,14.18-10.24a8.43,8.43,0,0,1,1.57.29,12.52,12.52,0,0,1,6.3,4.35,12.16,12.16,0,0,1,2.92,7.08q.42,8.11-.74,12.24A28.43,28.43,0,0,1,181.4,65Zm-10.21-6.37v-.05q1.37.15,2.71-4.61a25.08,25.08,0,0,0,.93-5.19c.11-1.63,0-2.53-.4-2.7-.6-.37-1.41.18-2.4,1.64a17.42,17.42,0,0,0-2.32,5.12C168.74,56.45,169.23,58.39,171.23,58.63Z"/><path class="cls-1" d="M218.91,64.41l0,0q-2.43,4.84-4.94,8.95-7.73,12.6-12.85,11.59a5.22,5.22,0,0,1-1.62-.67,12.78,12.78,0,0,1-2.34-2q-1.31-2.33,1.74-16.49a31.37,31.37,0,0,1-3,6.5A14.19,14.19,0,0,1,191.75,77a4.33,4.33,0,0,1-2.53.61,4.08,4.08,0,0,1-2.5-.79q-3.1-2.34-2-6.77a31.79,31.79,0,0,1,3.89-8.13q6.18-10.08,9.14-13a8.59,8.59,0,0,1,5.51-2.48,5.72,5.72,0,0,1,3.53.85,6.67,6.67,0,0,1,1.58,1.35q1.54,2.64,0,10.13a59.07,59.07,0,0,1-1.88,6.89q1.22-2.87,2.15-5a53.65,53.65,0,0,1,2.67-5.42,5.81,5.81,0,0,1,3-2.58,4.83,4.83,0,0,1,4.28.6q3.85,2.37,2.18,7.24A41.61,41.61,0,0,1,218.91,64.41Z"/><path class="cls-1" d="M236.46,88.15a4.3,4.3,0,0,1-.93,1.11,5.21,5.21,0,0,1-4.36,1.49,5,5,0,0,1-3.72-1.84,3.56,3.56,0,0,0-.94-1,14.23,14.23,0,0,1-2.36,1.86,1.82,1.82,0,0,0-.51,1.87,4.79,4.79,0,0,1,2.19,2.23,2.94,2.94,0,0,1-.32,3.26,6,6,0,0,1-3.72,2,11.3,11.3,0,0,1-5.19-.32A10.21,10.21,0,0,1,212.07,96a11,11,0,0,1-2.61-4,10.37,10.37,0,0,1,0-3.72q.91-3.59,8.15-10.79a95.85,95.85,0,0,1,10.26-8.73q3.54-2.64,5.82-2.2l6,5a19.4,19.4,0,0,1,3,2.43q2.55,2.6,1.71,4.33a4.41,4.41,0,0,1-1,1.38A4.05,4.05,0,0,1,240,80.89a6.26,6.26,0,0,1-3.81-2.07c-.3-.31-.54-.56-.72-.73a6.08,6.08,0,0,0-1.84,1.29c-1,.86-1.52,1.35-1.68,1.45a1.13,1.13,0,0,0,.1,1.29,5.27,5.27,0,0,1,3.15,1.67A4.74,4.74,0,0,1,236.46,88.15Z"/><path class="cls-1" d="M233.85,110.52a6.37,6.37,0,0,1-2.08,2.25A8.33,8.33,0,0,1,229,114c-1.93-.08-3.65-1.25-5.16-3.49a14.62,14.62,0,0,1-.92-1.52,6.39,6.39,0,0,1,2.29-5.93,11.68,11.68,0,0,0,1.54-1.15,5.84,5.84,0,0,1,6.08,1.68,22.69,22.69,0,0,1,1.54,3.36A4.38,4.38,0,0,1,233.85,110.52Zm24.28-14h.07A6.25,6.25,0,0,1,256,99.09a22.37,22.37,0,0,1-4.32,1.93,19.18,19.18,0,0,0-4.45,2.08,69.2,69.2,0,0,0-8.2,4.18c-1,.34-2.13-.17-3.36-1.55a10.66,10.66,0,0,1-1-1.24,5,5,0,0,1-1-3.89q.3-1.55,3.13-3.69a29.63,29.63,0,0,0,2.59-1.58q1.47-1,4.11-3.08c1.75-1.4,3.09-2.4,4-3a20.13,20.13,0,0,1,5.13-2.56l-.06.15a8.46,8.46,0,0,1,1.35-.07,2.32,2.32,0,0,1,1.49.49,6.08,6.08,0,0,1,1.07,1.21,31.63,31.63,0,0,1,1.74,3.67A6.42,6.42,0,0,1,258.13,96.49Z"/><path class="cls-2" d="M89,220.94s-31.54,7.31-42.9-35.74"/><path class="cls-3" d="M57,190.26c0,2.61-2.09,5.27-5.36,6.52-4.18,1.58-8.79.31-10.25-2.84l-3.6-7.78s0-.11-.07-.17l-.05-.08-4.86-10.49c-.39-.83.19-1.84,1.29-2.26a2.1,2.1,0,0,1,2.67.75l2.65,5.71a9.21,9.21,0,0,1,1.41-1.11l-3.18-6.85A1.79,1.79,0,0,1,39,169.4a2.11,2.11,0,0,1,2.68.75L44.82,177a9.47,9.47,0,0,1,1.67-.13L43.76,171a1.78,1.78,0,0,1,1.29-2.25,2.11,2.11,0,0,1,2.68.74l4.55,9.81a5.37,5.37,0,0,1,.59.9L52.75,178a2.15,2.15,0,0,1,2-1.94h0c1.15-.16,2.14.46,2.18,1.37"/><path class="cls-2" d="M191.49,220.94s31.54,7.31,42.9-35.74"/><path class="cls-3" d="M223.5,190.26c0,2.61,2.09,5.27,5.37,6.52,4.17,1.58,8.78.31,10.24-2.84l3.61-7.78.06-.17a.22.22,0,0,0,.05-.08l4.87-10.49a1.79,1.79,0,0,0-1.29-2.26,2.11,2.11,0,0,0-2.68.75l-2.65,5.71a8.66,8.66,0,0,0-1.4-1.11l3.17-6.85a1.78,1.78,0,0,0-1.28-2.26,2.11,2.11,0,0,0-2.68.75L235.71,177a9.47,9.47,0,0,0-1.67-.13l2.73-5.89a1.78,1.78,0,0,0-1.29-2.25,2.11,2.11,0,0,0-2.68.74l-4.55,9.81a5.37,5.37,0,0,0-.59.9l.11-2.16a2.14,2.14,0,0,0-2-1.94h0a1.76,1.76,0,0,0-2.19,1.37"/><polyline class="cls-4" points="113.96 277.02 122.77 339.63 127.88 339.63 136.69 277.21"/><polyline class="cls-4" points="143.6 276.72 152.41 339.33 157.53 339.33 166.33 276.92"/><polygon class="cls-5" points="127.97 337.98 130.64 320.05 119.38 320.05 122.46 337.71 127.97 337.98"/><polygon class="cls-5" points="157.43 337.98 160.1 320.05 149.84 320.05 151.92 337.71 157.43 337.98"/><path class="cls-6" d="M130.82,339.92a12.09,12.09,0,0,0-24.17,0"/><path class="cls-6" d="M173.93,339.92a12.09,12.09,0,0,0-24.17,0"/><path class="cls-4" d="M176.31,273.38c10-11.26,14.39-26.31,18.83-40.4,5.68-18,11.36-36.33,15.86-54.71,4.15-16.91,9.15-35.61,3.24-52.72C208.19,108,193.15,99.66,175.55,99.3c-15.64-.31-31.29-.63-46.94-.48-12,.12-30-2.49-40.73,3.79-12,7-21.51,17-24.37,31-2.26,11-.77,22.41,1.71,33.35,6.72,29.54,17.8,58.27,28.83,86.41,8.87,22.65,25.38,33.93,42.86,33.93,10,0,20.69-.51,29.73-5.3C170.68,279.83,173.21,276.85,176.31,273.38Z"/><line class="cls-7" x1="114.93" y1="143.34" x2="127.57" y2="141.06"/><path class="cls-7" d="M167,143.43s-9.3-2.9-11.58-2.61"/><path class="cls-8" d="M154.16,167.38s-2.41,7.72-14.24,7.49-12.77-7.49-12.77-7.49Z"/><path class="cls-9" d="M146.74,157.86c0-5.39,4.65-9.75,10.4-9.75s10.39,4.36,10.39,9.75"/><path class="cls-8" d="M152.67,157.86a4.53,4.53,0,1,1,9.05,0"/><path class="cls-9" d="M115.82,157.86c0-5.39,4.68-9.75,10.45-9.75s10.46,4.36,10.46,9.75"/><path class="cls-8" d="M121.75,157.86a4.53,4.53,0,1,1,9.05,0"/><path class="cls-8" d="M125.32,148.12h0Z"/><path class="cls-8" d="M158,148.11h0Z"/></svg>