<svg id="Layer_1" data-name="Layer 1" xmlns="http://www.w3.org/2000/svg" viewBox="0 0 204.78 291.79"><defs><style>.cls-1,.cls-6{fill:none;stroke-linecap:round;stroke-miterlimit:10;}.cls-1{stroke:#0f8ab2;stroke-width:4.81px;}.cls-2{fill:#a2cced;}.cls-3{fill:#00a1cd;}.cls-4{fill:#56c5d0;}.cls-5{fill:#504b48;}.cls-6{stroke:#0d4060;stroke-width:2.03px;}.cls-7{fill:#0d4060;}.cls-8{fill:#fff;}</style></defs><path class="cls-1" d="M154.68,131s23.84,21.85,17.11,65.86"/><path class="cls-2" d="M163.82,187.93c1.07-2.38,4-4,7.52-3.84,4.46.2,8.18,3.21,8.26,6.68l.21,8.57a1.09,1.09,0,0,1,0,.18.29.29,0,0,1,0,.09l.28,11.57c0,.91-.91,1.61-2.08,1.55a2.11,2.11,0,0,1-2.16-1.75l-.15-6.29a8.71,8.71,0,0,1-1.74.46l.19,7.55c0,.91-.91,1.61-2.08,1.55a2.1,2.1,0,0,1-2.16-1.75l-.19-7.55a9.22,9.22,0,0,1-1.58-.55l.15,6.49c0,.91-.91,1.61-2.07,1.56a2.13,2.13,0,0,1-2.17-1.75l-.26-10.81a4.89,4.89,0,0,1-.18-1.07l-.76,2a2.14,2.14,0,0,1-2.62,1h0c-1.12-.31-1.78-1.27-1.46-2.12"/><polyline class="cls-3" points="77.75 208.92 86.56 271.53 91.68 271.53 100.48 209.12"/><polyline class="cls-3" points="105.4 208.63 114.2 271.24 119.32 271.24 128.13 208.82"/><polygon class="cls-4" points="91.77 269.88 94.43 251.96 83.17 251.96 86.25 269.62 91.77 269.88"/><polygon class="cls-4" points="119.23 269.88 121.89 251.96 111.63 251.96 113.72 269.62 119.23 269.88"/><path class="cls-5" d="M95.61,271.83a12.09,12.09,0,1,0-24.17,0"/><path class="cls-5" d="M134.72,271.83a12.09,12.09,0,1,0-24.17,0"/><path class="cls-3" d="M139.1,205.29c10-11.26,14.4-26.32,18.83-40.4,5.68-18.06,11.36-36.34,15.87-54.71,4.14-16.91,9.14-35.61,3.24-52.73C171,39.9,155.94,31.56,138.35,31.21c-15.65-.32-31.29-.63-46.94-.48-12,.12-30-2.5-40.73,3.78-12,7-21.51,17-24.38,31-2.25,11-.77,22.42,1.72,33.36,6.71,29.54,17.8,58.26,28.82,86.4,8.87,22.66,25.38,33.94,42.86,33.94,10,0,20.69-.51,29.73-5.31C133.47,211.73,136,208.76,139.1,205.29Z"/><line class="cls-6" x1="77.62" y1="77.55" x2="88.47" y2="70.66"/><path class="cls-6" d="M129.84,77.46s-7.47-6.25-9.69-6.87"/><path class="cls-7" d="M90,102.83s2.37-7.73,14.21-7.54,12.8,7.43,12.8,7.43Z"/><path class="cls-8" d="M109.53,89.76c0-5.38,4.66-9.75,10.4-9.75s10.4,4.37,10.4,9.75"/><path class="cls-7" d="M115.47,89.76a4.52,4.52,0,1,1,9,0"/><path class="cls-8" d="M78.61,89.76c0-5.38,4.68-9.74,10.46-9.74s10.45,4.36,10.45,9.74"/><path class="cls-7" d="M84.55,89.76a4.52,4.52,0,1,1,9,0"/><path class="cls-7" d="M88.11,80h0Z"/><path class="cls-7" d="M120.84,80h0Z"/><path class="cls-1" d="M48.55,152.84s-34.95,5-4-60.55"/><path class="cls-2" d="M33.88,102c.35,2.59,2.72,5,6.13,5.81,4.34,1.06,8.75-.77,9.81-4.08l2.63-8.16a.85.85,0,0,1,0-.17l0-.09,3.54-11c.27-.87-.43-1.8-1.56-2.08a2.11,2.11,0,0,0-2.57,1.07l-1.92,6a9,9,0,0,0-1.54-.93l2.31-7.19c.28-.86-.42-1.8-1.55-2.08a2.12,2.12,0,0,0-2.57,1.07l-2.31,7.19a10.4,10.4,0,0,0-1.68.08l2-6.18c.28-.86-.42-1.8-1.56-2.08a2.11,2.11,0,0,0-2.56,1.07l-3.31,10.3a5.07,5.07,0,0,0-.48,1l-.15-2.16a2.14,2.14,0,0,0-2.24-1.68h0c-1.16,0-2.06.72-2,1.63"/><polygon class="cls-3" points="39.29 138.1 50.97 170.15 60.76 150.6 39.29 138.1"/></svg>