<svg id="Layer_1" data-name="Layer 1" xmlns="http://www.w3.org/2000/svg" viewBox="0 0 213.85 256.92"><defs><style>.cls-1,.cls-10,.cls-11,.cls-2,.cls-9{fill:none;stroke-linecap:round;stroke-miterlimit:10;}.cls-1{stroke:#633413;stroke-width:5px;}.cls-2{stroke:#2489b7;stroke-width:4.31px;}.cls-3{fill:#a2cced;}.cls-4{fill:#00a1cd;}.cls-5{fill:#5652a3;}.cls-6{fill:#504b48;}.cls-7{fill:#0d4060;}.cls-8{fill:#fff;}.cls-9{stroke:#2585aa;}.cls-10{stroke:#0d4060;stroke-width:2px;}.cls-11{stroke:#231f20;stroke-width:1.5px;}</style></defs><path class="cls-1" d="M173.52,224.28l.89-44.46s.14-7.61,6.48-7.83l5.82-.65"/><path class="cls-2" d="M152.64,136.73s15.74-2.8,24.21,22.78"/><path class="cls-3" d="M171.31,162.85a5.59,5.59,0,0,1,2.64-5.62,5.32,5.32,0,0,1,7.38,1.25l3.65,5.74a.83.83,0,0,1,.07.13l0,.06,4.93,7.75a1.46,1.46,0,0,1-2.46,1.56l-2.68-4.22a6.81,6.81,0,0,1-.78,1l3.21,5.06a1.46,1.46,0,0,1-2.46,1.56l-3.21-5.06a6.27,6.27,0,0,1-1.12.26l2.77,4.35a1.46,1.46,0,0,1-2.46,1.56L176.23,171a4.33,4.33,0,0,1-.54-.65l.42,1.69a1.5,1.5,0,0,1-1.07,1.71h0a1.3,1.3,0,0,1-1.69-.86"/><path class="cls-2" d="M47,131s-20.12,0-18.42,34.18"/><path class="cls-3" d="M34.26,163.82A5.57,5.57,0,0,0,28.75,161a5.33,5.33,0,0,0-5.1,5.49l.6,6.78a.59.59,0,0,1,0,.14s0,.05,0,.07l.82,9.15a1.38,1.38,0,0,0,1.56,1.18A1.4,1.4,0,0,0,28,182.35l-.45-5a6.28,6.28,0,0,0,1.24.33l.53,6a1.38,1.38,0,0,0,1.56,1.18,1.4,1.4,0,0,0,1.34-1.44l-.54-6a7.13,7.13,0,0,0,1-.47l.46,5.13a1.46,1.46,0,0,0,2.89-.26l-.76-8.55a4.8,4.8,0,0,0,0-.85l.7,1.59a1.48,1.48,0,0,0,1.88.71h0a1.29,1.29,0,0,0,.82-1.72"/><path class="cls-4" d="M66.14,176.06c-13-9.57-25.42-29.84-27.31-44.9a174.24,174.24,0,0,1-1.14-27.24,302.54,302.54,0,0,1,3.37-34.18c3.71-25,26.1-42.28,50-38.5l39.67,6.28C148.21,40.28,162.1,54,166.41,71c3.55,14,.76,30.3-2.38,44.13-5.53,24.37-20.89,56.23-46.53,65.63-14.12,5.16-16.31,4.56-31,3"/><polyline class="cls-4" points="122.88 172.22 114.2 225.7 109.15 225.7 100.47 172.38"/><polyline class="cls-4" points="89.66 171.97 80.98 225.44 75.93 225.44 67.25 172.13"/><polygon class="cls-5" points="109.07 225.62 104.04 194.24 118.91 194.24 115.89 225.26 109.07 225.62"/><polygon class="cls-5" points="75.83 224.62 70.75 194.24 85.92 194.24 81.75 225.44 75.83 224.62"/><path class="cls-6" d="M85.86,226a12,12,0,0,0-24,0"/><path class="cls-6" d="M129.84,226.2a12,12,0,0,0-24,0"/><path class="cls-7" d="M111.85,114.62s.52-9.87-9.08-11S91,111.28,91,111.28Z"/><path class="cls-8" d="M135.24,97.83a7.43,7.43,0,0,0-14.69-2.25"/><path class="cls-9" d="M120.37,95.45a8.2,8.2,0,0,0,6.14,10.66"/><path class="cls-10" d="M131,82.35s1.62,5.74,6.45,6.8"/><path class="cls-10" d="M85.27,73.48s-4.35,4.68-8.7,4.2"/><path class="cls-7" d="M131.28,97.22a3.22,3.22,0,0,0-6.36-1"/><path class="cls-8" d="M89.89,89.55A7.43,7.43,0,1,0,75.2,87.3"/><path class="cls-7" d="M85.93,88.94a3.22,3.22,0,1,0-6.36-1"/><circle class="cls-11" cx="131.01" cy="93.43" r="19.35"/><circle class="cls-11" cx="78.67" cy="85.54" r="19.35"/><path class="cls-11" d="M112.25,88.41s-6.4-10.12-14.46-2.09"/><path class="cls-9" d="M89.58,90.06c.29,4.1-4.84,9.48-10.41,7.67"/><path class="cls-9" d="M129.38,65.67a70.77,70.77,0,0,1-37.2-6.58"/></svg>