<svg id="Layer_1" data-name="Layer 1" xmlns="http://www.w3.org/2000/svg" viewBox="0 0 213.85 256.92"><defs><style>.cls-1,.cls-10,.cls-11,.cls-2,.cls-9{fill:none;stroke-linecap:round;stroke-miterlimit:10;}.cls-1{stroke:#633413;stroke-width:5px;}.cls-2{stroke:#2489b7;stroke-width:4.31px;}.cls-3{fill:#a2cced;}.cls-4{fill:#00a1cd;}.cls-5{fill:#5652a3;}.cls-6{fill:#504b48;}.cls-7{fill:#0d4060;}.cls-8{fill:#fff;}.cls-9{stroke:#2585aa;}.cls-10{stroke:#0d4060;stroke-width:2px;}.cls-11{stroke:#231f20;stroke-width:1.5px;}</style></defs><path class="cls-1" d="M172,226.86l.9-44.46s.13-7.61,6.48-7.84l5.82-.65"/><path class="cls-2" d="M151.16,139.31s15.74-2.8,24.21,22.78"/><path class="cls-3" d="M169.84,165.42a5.56,5.56,0,0,1,2.63-5.61,5.34,5.34,0,0,1,7.39,1.24l3.65,5.75a.75.75,0,0,0,.07.12l0,.06,4.93,7.76a1.47,1.47,0,0,1-2.46,1.56l-2.68-4.22a6.13,6.13,0,0,1-.78,1l3.22,5.06a1.47,1.47,0,0,1-2.46,1.57l-3.22-5.07a5,5,0,0,1-1.11.26l2.76,4.35a1.47,1.47,0,0,1-2.46,1.57l-4.6-7.25a4.78,4.78,0,0,1-.54-.65l.41,1.68a1.49,1.49,0,0,1-1.07,1.71h0a1.29,1.29,0,0,1-1.69-.86"/><path class="cls-2" d="M44.42,133.22S24.9,138.09,18.28,104.5"/><path class="cls-3" d="M24.18,104.48a5.58,5.58,0,0,1-4.66,4.1,5.33,5.33,0,0,1-6.27-4.09l-1.06-6.72a.76.76,0,0,1,0-.15.14.14,0,0,1,0-.07l-1.43-9.08A1.47,1.47,0,0,1,13.61,88l.77,5a5.82,5.82,0,0,1,1.12-.62l-.93-5.92A1.47,1.47,0,0,1,17.45,86l.93,5.92a6.09,6.09,0,0,1,1.13.21L18.71,87a1.46,1.46,0,0,1,2.87-.45l1.33,8.48a4.45,4.45,0,0,1,.24.81l.29-1.71A1.49,1.49,0,0,1,25.1,93h0a1.29,1.29,0,0,1,1.21,1.46"/><path class="cls-4" d="M64.66,178.63c-13-9.56-25.42-29.84-27.3-44.89a172,172,0,0,1-1.14-27.25,300.69,300.69,0,0,1,3.37-34.18c3.7-25,26.09-42.27,50-38.49l39.67,6.27c17.46,2.77,31.36,16.48,35.66,33.44,3.56,14,.77,30.29-2.37,44.13C157,142,141.67,173.89,116,183.28c-14.11,5.17-16.31,4.56-31,3"/><polyline class="cls-4" points="121.4 174.8 112.72 228.27 107.67 228.27 98.99 174.96"/><polyline class="cls-4" points="88.18 174.54 79.5 228.02 74.45 228.02 65.77 174.71"/><polygon class="cls-5" points="107.6 228.2 102.57 196.81 117.44 196.81 114.41 227.84 107.6 228.2"/><polygon class="cls-5" points="74.35 227.2 69.27 196.81 84.44 196.81 80.27 228.02 74.35 227.2"/><path class="cls-6" d="M84.39,228.52a12,12,0,1,0-24,0"/><path class="cls-6" d="M128.37,228.78a12,12,0,0,0-24,0"/><path class="cls-7" d="M90,106.57s.46,10,10.06,11.15,11.74-7.81,11.74-7.81Z"/><path class="cls-8" d="M133.77,100.41a7.44,7.44,0,0,0-14.7-2.25"/><path class="cls-9" d="M118.9,98A8.19,8.19,0,0,0,125,108.68"/><path class="cls-10" d="M135.65,89.16s-1.93-6.11-8.61-3.71"/><path class="cls-10" d="M75.66,79.77s3.94-5.48,9.59-1.19"/><path class="cls-7" d="M129.8,99.8a3.22,3.22,0,0,0-6.36-1"/><path class="cls-8" d="M88.42,92.12a7.44,7.44,0,0,0-14.7-2.25"/><path class="cls-7" d="M84.45,91.51a3.21,3.21,0,1,0-6.35-1"/><circle class="cls-11" cx="129.54" cy="96" r="19.35"/><circle class="cls-11" cx="77.19" cy="88.11" r="19.35"/><path class="cls-11" d="M110.77,91s-6.39-10.13-14.45-2.09"/><path class="cls-9" d="M88.11,92.64c.29,4.09-4.85,9.48-10.41,7.67"/><path class="cls-9" d="M127.9,68.24a70.66,70.66,0,0,1-37.2-6.58"/></svg>