<svg id="Layer_1" data-name="Layer 1" xmlns="http://www.w3.org/2000/svg" viewBox="0 0 213.85 256.92"><defs><style>.cls-1,.cls-8,.cls-9{fill:none;stroke-linecap:round;stroke-miterlimit:10;}.cls-1{stroke:#0f8ab2;stroke-width:5.63px;}.cls-2{fill:#a2cced;}.cls-3{fill:#00a1cd;}.cls-4{fill:#56c5d0;}.cls-5{fill:#504b48;}.cls-6{fill:#0d4060;}.cls-7{fill:#fff;}.cls-8{stroke:#0d4060;stroke-width:1.73px;}.cls-9{stroke:#231f20;stroke-width:1.04px;}</style></defs><path class="cls-1" d="M69.12,118.4s-15.46-7.94-21.43-45.72"/><path class="cls-2" d="M55.36,74.58c-.42,2.28-2.63,4.3-5.69,4.9-3.9.76-7.74-1-8.55-4l-2-7.35a1.1,1.1,0,0,1,0-.16s0-.05,0-.08l-2.68-9.93c-.21-.78.45-1.59,1.47-1.78a1.88,1.88,0,0,1,2.24,1l1.46,5.41a7.49,7.49,0,0,1,1.4-.76l-1.75-6.49c-.21-.78.45-1.58,1.47-1.78a1.87,1.87,0,0,1,2.23,1.06l1.75,6.48a10.31,10.31,0,0,1,1.49.14l-1.5-5.57c-.21-.78.45-1.58,1.47-1.78A1.86,1.86,0,0,1,50.35,55l2.51,9.29a4.87,4.87,0,0,1,.38.88l.23-1.92a1.9,1.9,0,0,1,2.06-1.39h0c1,0,1.8.72,1.71,1.53"/><path class="cls-1" d="M140.92,114.53s13.79,6.38,19.21,45.86"/><path class="cls-2" d="M153.76,158.77c.59-2.22,2.93-4.05,6-4.4,3.91-.45,7.57,1.65,8.13,4.65l1.39,7.43c0,.05,0,.1,0,.15a.24.24,0,0,1,0,.08l1.88,10c.15.79-.57,1.53-1.59,1.65a1.87,1.87,0,0,1-2.13-1.22l-1-5.46a7.88,7.88,0,0,1-1.44.65l1.22,6.54c.15.79-.57,1.53-1.59,1.64a1.85,1.85,0,0,1-2.12-1.21l-1.23-6.54a8.45,8.45,0,0,1-1.45-.26l1.05,5.62c.14.79-.57,1.53-1.59,1.65a1.87,1.87,0,0,1-2.13-1.22l-1.75-9.37a3.91,3.91,0,0,1-.31-.89l-.37,1.87a1.88,1.88,0,0,1-2.14,1.22h0c-1-.12-1.73-.86-1.57-1.64"/><rect class="cls-3" x="64.74" y="17.6" width="81.92" height="164.83" rx="29.81"/><polyline class="cls-3" points="82.11 173.92 89.87 238.41 95.01 238.41 101.9 174.09"/><polyline class="cls-3" points="109.52 177.09 115.55 238.41 120.69 238.41 128.45 174.09"/><polygon class="cls-4" points="95.16 238.41 97.14 219.65 87.08 219.65 89.45 237.58 95.16 238.41"/><polygon class="cls-4" points="115.58 238.98 113.6 220.22 122.89 220.22 121.28 238.15 115.58 238.98"/><path class="cls-5" d="M77.79,239.32a9.72,9.72,0,1,1,19.43,0"/><path class="cls-5" d="M113.44,239.32a9.72,9.72,0,1,1,19.43,0"/><path class="cls-6" d="M114.83,66.38a9.46,9.46,0,0,1-9.75,7.05c-8.1-.23-8.74-7.05-8.74-7.05Z"/><path class="cls-7" d="M83.62,58.79a8.12,8.12,0,0,1,16.23,0"/><path class="cls-7" d="M112.42,58.79a8.12,8.12,0,0,1,16.23,0"/><line class="cls-8" x1="126.61" y1="46.48" x2="119.53" y2="44.89"/><line class="cls-8" x1="85.25" y1="46.68" x2="92.34" y2="45.09"/><path class="cls-6" d="M88,58.79a3.51,3.51,0,1,1,7,0"/><path class="cls-6" d="M116.8,58.79a3.51,3.51,0,1,1,7,0"/><ellipse class="cls-9" cx="90.83" cy="56.64" rx="11.03" ry="7.5" transform="translate(-0.59 0.96) rotate(-0.61)"/><ellipse class="cls-9" cx="121" cy="56.37" rx="11.03" ry="7.5" transform="translate(-0.59 1.28) rotate(-0.61)"/><path class="cls-9" d="M101.87,57.27s4.41-5.74,8.32,0"/></svg>