<svg id="Layer_1" data-name="Layer 1" xmlns="http://www.w3.org/2000/svg" viewBox="0 0 213.85 256.92"><defs><style>.cls-1,.cls-8,.cls-9{fill:none;stroke-linecap:round;stroke-miterlimit:10;}.cls-1{stroke:#0f8ab2;stroke-width:5.63px;}.cls-2{fill:#a2cced;}.cls-3{fill:#00a1cd;}.cls-4{fill:#56c5d0;}.cls-5{fill:#504b48;}.cls-6{fill:#0d4060;}.cls-7{fill:#fff;}.cls-8{stroke:#0d4060;stroke-width:1.73px;}.cls-9{stroke:#231f20;stroke-width:1.04px;}</style></defs><path class="cls-1" d="M62.68,114.64s-13.64,10.77-12.23,49"/><path class="cls-2" d="M57.61,160.29c-.85-2.16-3.41-3.72-6.52-3.71-4,0-7.4,2.52-7.62,5.6l-.53,7.61V170s0,.05,0,.08l-.72,10.26c-.06.81.74,1.47,1.78,1.47a1.87,1.87,0,0,0,2-1.47l.39-5.59a7.58,7.58,0,0,0,1.53.48l-.47,6.7c-.06.81.74,1.47,1.78,1.47a1.87,1.87,0,0,0,2-1.47l.47-6.7a9.13,9.13,0,0,0,1.43-.42l-.4,5.76c-.05.8.75,1.46,1.79,1.46a1.88,1.88,0,0,0,2-1.47l.67-9.59a4.38,4.38,0,0,0,.2-.94l.6,1.84a1.88,1.88,0,0,0,2.28,1h0c1-.23,1.64-1.06,1.39-1.83"/><path class="cls-1" d="M139.84,113.31s13,7.92,13.81,47.76"/><path class="cls-2" d="M147.51,158.73c.84-2.14,3.38-3.68,6.47-3.68,3.93,0,7.32,2.51,7.54,5.56l.52,7.53a.86.86,0,0,1,0,.16.24.24,0,0,1,0,.08l.71,10.17c.06.8-.74,1.45-1.77,1.45a1.86,1.86,0,0,1-2-1.45l-.39-5.54a8.49,8.49,0,0,1-1.5.48l.46,6.63c.06.8-.74,1.45-1.77,1.45a1.85,1.85,0,0,1-2-1.45l-.46-6.64a8.06,8.06,0,0,1-1.42-.42l.4,5.71c.05.8-.74,1.45-1.77,1.45a1.85,1.85,0,0,1-2-1.45l-.67-9.51a4.81,4.81,0,0,1-.2-.93l-.59,1.82a1.87,1.87,0,0,1-2.26,1h0c-1-.24-1.62-1.05-1.38-1.82"/><rect class="cls-3" x="60.81" y="17.85" width="81.92" height="164.83" rx="29.81"/><polyline class="cls-3" points="78.17 174.16 85.93 238.66 91.07 238.66 97.96 174.33"/><polyline class="cls-3" points="105.59 177.33 111.61 238.66 116.75 238.66 124.51 174.33"/><polygon class="cls-4" points="91.22 238.66 93.2 219.89 83.15 219.89 85.52 237.82 91.22 238.66"/><polygon class="cls-4" points="111.64 239.22 109.66 220.46 118.95 220.46 117.34 238.39 111.64 239.22"/><path class="cls-5" d="M71.85,239.56a9.72,9.72,0,1,1,19.43,0"/><path class="cls-5" d="M111.5,239.56a9.72,9.72,0,1,1,19.44,0"/><path class="cls-6" d="M110.89,66.62s-1.64,5.29-9.75,5.13-8.74-5.13-8.74-5.13Z"/><path class="cls-7" d="M79.68,59a8.12,8.12,0,1,1,16.23,0"/><path class="cls-7" d="M108.49,59a8.11,8.11,0,1,1,16.22,0"/><path class="cls-8" d="M78.91,46.8a41,41,0,0,1,7.61-2"/><line class="cls-8" x1="122.61" y1="45.96" x2="115.65" y2="43.89"/><path class="cls-6" d="M84.06,59a3.51,3.51,0,0,1,7,0"/><path class="cls-6" d="M112.87,59a3.51,3.51,0,0,1,7,0"/><ellipse class="cls-9" cx="86.89" cy="56.88" rx="11.03" ry="7.5" transform="translate(-0.6 0.92) rotate(-0.61)"/><ellipse class="cls-9" cx="117.06" cy="56.61" rx="11.03" ry="7.5" transform="translate(-0.59 1.24) rotate(-0.61)"/><path class="cls-9" d="M97.93,57.51s4.41-5.74,8.32,0"/></svg>