<svg id="Layer_1" data-name="Layer 1" xmlns="http://www.w3.org/2000/svg" viewBox="0 0 213.85 256.92"><defs><style>.cls-1,.cls-8,.cls-9{fill:none;stroke-linecap:round;stroke-miterlimit:10;}.cls-1{stroke:#0f8ab2;stroke-width:5.63px;}.cls-2{fill:#a2cced;}.cls-3{fill:#00a1cd;}.cls-4{fill:#56c5d0;}.cls-5{fill:#504b48;}.cls-6{fill:#0d4060;}.cls-7{fill:#fff;}.cls-8{stroke:#0d4060;stroke-width:1.73px;}.cls-9{stroke:#231f20;stroke-width:1.04px;}</style></defs><path class="cls-1" d="M65.2,114.4s-13.64,10.76-12.23,49"/><path class="cls-2" d="M60.13,160.05c-.85-2.16-3.4-3.72-6.52-3.72-4,0-7.4,2.53-7.61,5.61l-.54,7.6a1,1,0,0,1,0,.17s0,0,0,.08l-.72,10.26c-.06.81.75,1.47,1.78,1.47a1.87,1.87,0,0,0,2-1.47l.4-5.59a7.29,7.29,0,0,0,1.52.48l-.47,6.7c-.06.81.75,1.47,1.78,1.47a1.88,1.88,0,0,0,2-1.47l.47-6.7a9.6,9.6,0,0,0,1.44-.43l-.41,5.76c0,.81.75,1.47,1.79,1.47a1.87,1.87,0,0,0,2-1.47l.67-9.59a4.38,4.38,0,0,0,.2-.94l.6,1.84a1.9,1.9,0,0,0,2.28,1h0c1-.24,1.64-1.06,1.39-1.83"/><path class="cls-1" d="M142.36,113.07s13,7.92,13.81,47.76"/><path class="cls-2" d="M150,158.49c.85-2.14,3.38-3.68,6.47-3.68,3.93,0,7.32,2.5,7.54,5.56l.52,7.53s0,.1,0,.16,0,.05,0,.08l.71,10.17c.06.8-.74,1.45-1.77,1.45a1.87,1.87,0,0,1-2-1.46l-.38-5.53a8.05,8.05,0,0,1-1.51.47l.46,6.64c.06.8-.74,1.45-1.77,1.45a1.86,1.86,0,0,1-2-1.45l-.46-6.64a8.32,8.32,0,0,1-1.42-.42l.4,5.71c0,.79-.74,1.45-1.77,1.45a1.86,1.86,0,0,1-2-1.46l-.67-9.5a4.81,4.81,0,0,1-.2-.93l-.59,1.82a1.87,1.87,0,0,1-2.26,1h0c-1-.23-1.62-1-1.37-1.81"/><rect class="cls-3" x="63.33" y="17.6" width="81.92" height="164.83" rx="29.81"/><polyline class="cls-3" points="80.69 173.92 88.45 238.41 93.59 238.41 100.49 174.09"/><polyline class="cls-3" points="108.11 177.09 114.13 238.41 119.28 238.41 127.03 174.09"/><polygon class="cls-4" points="93.74 238.41 95.72 219.65 85.67 219.65 88.04 237.58 93.74 238.41"/><polygon class="cls-4" points="114.16 238.98 112.18 220.22 121.47 220.22 119.86 238.15 114.16 238.98"/><path class="cls-5" d="M74.37,239.32a9.72,9.72,0,1,1,19.44,0"/><path class="cls-5" d="M114,239.32a9.72,9.72,0,0,1,19.44,0"/><path class="cls-6" d="M95,71.63s1.57-5.31,9.68-5.25,8.81,5,8.81,5Z"/><path class="cls-7" d="M82.2,58.79a8.12,8.12,0,0,1,16.23,0"/><path class="cls-7" d="M111,58.79a8.12,8.12,0,0,1,16.23,0"/><path class="cls-8" d="M81.7,47.29a41.41,41.41,0,0,1,7.07-3.44"/><path class="cls-6" d="M86.58,58.79a3.51,3.51,0,1,1,7,0"/><path class="cls-6" d="M115.39,58.79a3.51,3.51,0,1,1,7,0"/><ellipse class="cls-9" cx="89.41" cy="56.64" rx="11.03" ry="7.5" transform="matrix(1, -0.01, 0.01, 1, -0.59, 0.95)"/><ellipse class="cls-9" cx="119.58" cy="56.37" rx="11.03" ry="7.5" transform="translate(-0.59 1.27) rotate(-0.61)"/><path class="cls-9" d="M100.45,57.27s4.41-5.74,8.32,0"/><path class="cls-8" d="M126,47a41.41,41.41,0,0,0-7.07-3.44"/></svg>