<svg id="Layer_1" data-name="Layer 1" xmlns="http://www.w3.org/2000/svg" viewBox="0 0 213.85 256.92"><defs><style>.cls-1,.cls-6{fill:none;stroke-linecap:round;stroke-miterlimit:10;}.cls-1{stroke:#0f8ab2;stroke-width:4px;}.cls-2{fill:#00a1cd;}.cls-3{fill:#ed1651;}.cls-4{fill:#504b48;}.cls-5{fill:#a2cced;}.cls-6{stroke:#0d4060;stroke-width:2.03px;}.cls-7{fill:#0d4060;}.cls-8{fill:#fff;}</style></defs><path class="cls-1" d="M172.27,129.07s17,3.36,17.6,40.67"/><path class="cls-1" d="M38.79,129.05s-18.18-5.52-16-41.68"/><path class="cls-2" d="M33.72,131.63c0-32.46,15.55-64,35.68-86.46,51.9-58,109.7,25.73,109.7,89.14,0,46.8-35.74,58.15-71.5,58.15S33.72,178.43,33.72,131.63Z"/><polyline class="cls-2" points="122.74 229.92 129.73 183.81 109.56 183.81 116.6 231.25 121.97 227.85"/><polyline class="cls-2" points="87.56 227.48 78.78 185.13 100.66 185.13 92.8 229.92 85.29 227.48"/><polygon class="cls-3" points="85.13 215.15 95.69 215.15 93.11 230.29 86.68 230.29 85.13 215.15"/><polygon class="cls-3" points="114.01 215.75 124.57 215.75 123 230.9 116.58 230.9 114.01 215.75"/><path class="cls-4" d="M73.92,231.25a10.8,10.8,0,1,1,21.59,0"/><path class="cls-4" d="M114.61,231.25a10.8,10.8,0,1,1,21.59,0"/><path class="cls-5" d="M28.34,92.92c-1,1.92-3.5,3.13-6.39,2.83-3.68-.37-6.62-3-6.53-5.9l.22-7.09c0-.05,0-.1,0-.15v-.08L15.94,73c0-.75.83-1.29,1.79-1.19a1.75,1.75,0,0,1,1.71,1.54l-.16,5.22a7.3,7.3,0,0,1,1.45-.31L20.92,72c0-.75.83-1.28,1.79-1.18a1.74,1.74,0,0,1,1.71,1.54l-.19,6.25a8.12,8.12,0,0,1,1.29.53l.16-5.38c0-.75.83-1.28,1.79-1.18a1.74,1.74,0,0,1,1.71,1.54l-.28,9a3.8,3.8,0,0,1,.1.89l.72-1.65a1.78,1.78,0,0,1,2.21-.69h0c.92.31,1.42,1.14,1.11,1.83"/><path class="cls-5" d="M182.18,164.91c.89-2,3.33-3.31,6.23-3.18,3.69.17,6.77,2.66,6.84,5.54l.18,7.09s0,.1,0,.15,0,.05,0,.08l.24,9.57c0,.75-.76,1.33-1.72,1.29a1.75,1.75,0,0,1-1.79-1.45l-.13-5.21a7.24,7.24,0,0,1-1.44.38l.16,6.25c0,.75-.76,1.33-1.72,1.29a1.75,1.75,0,0,1-1.79-1.45l-.16-6.25a7.79,7.79,0,0,1-1.31-.46l.13,5.38c0,.75-.76,1.33-1.72,1.28a1.74,1.74,0,0,1-1.79-1.45l-.22-8.95a4.26,4.26,0,0,1-.15-.88l-.63,1.69a1.78,1.78,0,0,1-2.17.81h0c-.93-.27-1.47-1.06-1.21-1.76"/><path class="cls-6" d="M80.6,69.58s3-8.25,12-4.55"/><path class="cls-6" d="M132,69.57s-1.9-8.31-10.92-4.68"/><path class="cls-7" d="M119.52,91.49s-2.41,12-14.24,11.63S92.51,91.49,92.51,91.49Z"/><path class="cls-8" d="M112.1,83c0-5.38,4.65-9.74,10.4-9.74s10.39,4.36,10.39,9.74"/><path class="cls-7" d="M118,83a4.53,4.53,0,0,1,9,0"/><path class="cls-8" d="M81.18,83c0-5.38,4.68-9.74,10.45-9.74s10.46,4.36,10.46,9.74"/><path class="cls-7" d="M87.11,83a4.53,4.53,0,0,1,9,0"/><path class="cls-7" d="M90.68,73.22h0Z"/><path class="cls-7" d="M123.4,73.22a1,1,0,0,0-.2,0Z"/><path class="cls-7" d="M81.4,78.36,76.27,76.1l4.55,4c-.06.23-.1.44-.14.66l-4.45-.62,4.25,2a9.45,9.45,0,0,0,0,1c2.38-8.36,7.15-9.48,8.51-9.62A7.86,7.86,0,0,0,81.4,78.36Z"/><path class="cls-7" d="M88.94,73.51c.13,0,.25,0,.38,0A3.41,3.41,0,0,0,88.94,73.51Z"/><path class="cls-7" d="M137.07,80.11l-4.45.61c0-.21-.09-.42-.14-.65l4.54-4-5.13,2.26a7.85,7.85,0,0,0-7.53-4.85c1.36.14,6.12,1.25,8.5,9.62,0,0,0-.41,0-1Z"/><path class="cls-7" d="M119.36,73.51a3.49,3.49,0,0,0-.39,0C119.11,73.48,119.22,73.5,119.36,73.51Z"/></svg>