<svg id="Layer_1" data-name="Layer 1" xmlns="http://www.w3.org/2000/svg" viewBox="0 0 213.85 256.92"><defs><style>.cls-1,.cls-6{fill:none;stroke-linecap:round;stroke-miterlimit:10;}.cls-1{stroke:#0f8ab2;stroke-width:6.42px;}.cls-2{fill:#a2cced;}.cls-3{fill:#00a1cd;}.cls-4{fill:#56c5d0;}.cls-5{fill:#504b48;}.cls-6{stroke:#0d4060;stroke-width:1.86px;}.cls-7{fill:#0d4060;}.cls-8{fill:#fff;}</style></defs><path class="cls-1" d="M61.87,140.7s-24.34,0-36.76-35.68"/><path class="cls-1" d="M156,136.59s19.95,19.94,15.35,48.84"/><path class="cls-2" d="M33.81,109.08c-.09,2.39-2.05,4.78-5.08,5.84-3.86,1.36-8.06.07-9.32-2.85l-3.12-7.22s0-.1-.05-.15,0,0,0-.08L12,94.88a1.63,1.63,0,0,1,1.24-2,1.92,1.92,0,0,1,2.43.75L18,98.9a8.91,8.91,0,0,1,1.32-1l-2.75-6.35c-.33-.77.23-1.68,1.24-2a1.94,1.94,0,0,1,2.44.75l2.74,6.36a8.94,8.94,0,0,1,1.54-.08l-2.36-5.47c-.33-.76.23-1.67,1.24-2a1.94,1.94,0,0,1,2.44.75l3.93,9.1a4.48,4.48,0,0,1,.51.84l0-2A2,2,0,0,1,32.09,96h0c1.06-.12,1.95.47,2,1.3"/><path class="cls-2" d="M164.84,176.36c1.19-2.07,4-3.28,7.22-2.8,4.05.6,7.16,3.69,6.91,6.86l-.6,7.84a.88.88,0,0,0,0,.16.27.27,0,0,0,0,.09l-.82,10.57c-.06.83-1,1.38-2,1.23a1.94,1.94,0,0,1-1.81-1.8l.45-5.76a7.82,7.82,0,0,1-1.63.26l-.53,6.91c-.06.83-1,1.38-2,1.22a1.94,1.94,0,0,1-1.81-1.8l.53-6.9a8.85,8.85,0,0,1-1.39-.65l-.46,5.93a1.64,1.64,0,0,1-2,1.23c-1.06-.16-1.88-1-1.81-1.8l.76-9.88a4.72,4.72,0,0,1-.07-1l-.88,1.78a2,2,0,0,1-2.48.65h0a1.6,1.6,0,0,1-1.13-2.07"/><polyline class="cls-3" points="82.14 184.94 90.22 242.35 94.91 242.35 102.98 185.12"/><polyline class="cls-3" points="109.32 184.67 117.4 242.08 122.09 242.08 130.17 184.85"/><polygon class="cls-4" points="94.99 240.84 97.44 224.41 87.11 224.41 89.94 240.6 94.99 240.84"/><polygon class="cls-4" points="122 240.84 124.45 224.41 115.04 224.41 116.95 240.6 122 240.84"/><path class="cls-5" d="M97.77,242.62a11.09,11.09,0,0,0-22.17,0"/><path class="cls-5" d="M137,242.62a11.08,11.08,0,0,0-22.16,0"/><path class="cls-3" d="M139.31,181.61c9.2-10.32,13.2-24.13,17.26-37.05C161.78,128,167,111.25,171.12,94.4c3.8-15.51,8.39-32.66,3-48.35C168.54,30,154.75,22.31,138.62,22c-14.35-.29-28.69-.58-43-.44C84.54,21.66,68,19.26,58.23,25c-11,6.44-19.72,15.57-22.35,28.39C33.81,63.49,35.17,74,37.45,84c6.16,27.09,16.32,53.43,26.43,79.23C72,184,87.15,194.35,103.18,194.35c9.15,0,19-.47,27.26-4.87C134.15,187.52,136.47,184.79,139.31,181.61Z"/><line class="cls-6" x1="83.03" y1="62.37" x2="94.62" y2="60.27"/><line class="cls-6" x1="128.76" y1="62.37" x2="117.17" y2="60.27"/><path class="cls-7" d="M119,84.41s-2.2,10.74-13.06,10.41-11.7-10.41-11.7-10.41Z"/><path class="cls-8" d="M111.2,75.68c0-4.94,4.27-8.94,9.53-8.94s9.54,4,9.54,8.94"/><path class="cls-7" d="M116.64,75.68a4.15,4.15,0,1,1,8.29,0"/><path class="cls-8" d="M83.85,75.68c0-4.94,4.29-8.94,9.58-8.94s9.59,4,9.59,8.94"/><path class="cls-7" d="M89.29,75.68a4.15,4.15,0,1,1,8.29,0"/><path class="cls-7" d="M92.56,66.75h0Z"/><path class="cls-7" d="M122.56,66.75h0Z"/></svg>