<svg id="Layer_1" data-name="Layer 1" xmlns="http://www.w3.org/2000/svg" viewBox="0 0 213.85 256.92"><defs><style>.cls-1,.cls-6{fill:none;stroke-linecap:round;stroke-miterlimit:10;}.cls-1{stroke:#0f8ab2;stroke-width:4.81px;}.cls-2{fill:#a2cced;}.cls-3{fill:#00a1cd;}.cls-4{fill:#ed1651;}.cls-5{fill:#504b48;}.cls-6{stroke:#0d4060;stroke-width:2.09px;}.cls-7{fill:#fff;}.cls-8{fill:#0d4060;}</style></defs><path class="cls-1" d="M55.33,141.77s-16.58,0-24,35"/><path class="cls-2" d="M40.91,189c.18.73-.46,1.46-1.42,1.61a1.8,1.8,0,0,1-2.07-1.08L37,187.82a4.47,4.47,0,0,1-.26.86l-1.3,8.91a1.76,1.76,0,0,1-2,1.23c-1-.07-1.68-.75-1.57-1.49L32.7,192a8.76,8.76,0,0,1-1.37.29l-.91,6.23a1.75,1.75,0,0,1-2,1.22c-1-.07-1.68-.74-1.57-1.49L27.8,192a7.38,7.38,0,0,1-1.38-.56l-.76,5.19a1.75,1.75,0,0,1-2,1.23c-1-.07-1.68-.74-1.57-1.49l1.4-9.53a.24.24,0,0,1,0-.08.76.76,0,0,1,0-.15l1-7.06c.42-2.86,3.8-5,7.5-4.7,2.92.22,5.19,1.85,5.84,3.93Z"/><path class="cls-1" d="M156.51,142.55s16.57,0,24,35"/><path class="cls-2" d="M170.92,189.82c-.18.74.46,1.46,1.42,1.61a1.78,1.78,0,0,0,2.07-1.07l.42-1.76a4.08,4.08,0,0,0,.26.86l1.3,8.91a1.76,1.76,0,0,0,2,1.23c1-.07,1.67-.74,1.56-1.49l-.78-5.35a8.53,8.53,0,0,0,1.37.3l.91,6.22a1.76,1.76,0,0,0,2,1.23c1-.07,1.67-.74,1.56-1.49l-.91-6.23a7.45,7.45,0,0,0,1.39-.55l.76,5.19a1.76,1.76,0,0,0,2,1.23c1-.08,1.67-.75,1.56-1.5l-1.39-9.53a.25.25,0,0,1,0-.07.86.86,0,0,1,0-.16l-1-7.06c-.41-2.86-3.79-5-7.5-4.7-2.91.22-5.19,1.86-5.83,3.93Z"/><path class="cls-3" d="M167.48,93.09c1.34-9.47,2.61-19.14,2.61-28.72,0-37.47-28.53-46.47-63.92-46.62h-.89c-35.39.15-63.93,9.15-63.93,46.62,0,9.58,1.28,19.25,2.62,28.72,1.73,12.26,6.94,25.09,8,37.9,1.23,14.49-9,25.28-7.93,39,.86,11.67,6.91,21.85,17.18,27.38,13.3,7.16,18.84,7.06,44.47,7s31.18.12,44.48-7c10.27-5.53,16.31-15.71,17.18-27.38,1-13.73-9.16-24.52-7.93-39C160.54,118.18,165.74,105.35,167.48,93.09Z"/><polyline class="cls-3" points="99.34 200.67 93.53 242.14 87.77 242.14 81.96 199.73"/><polygon class="cls-4" points="88.15 242.14 85.42 226.23 95.88 226.23 93.91 240.83 88.15 242.14"/><path class="cls-5" d="M96.86,243.09a9.69,9.69,0,0,0-19.38,0"/><path class="cls-6" d="M81.57,57.15s8.35.22,10.61-6.23"/><path class="cls-6" d="M128.49,56.69s-7.66.68-10-5.42"/><path class="cls-7" d="M100.88,73.18c0-5-4.46-9-10-9s-10,4-10,9"/><path class="cls-8" d="M95.2,73.18a4.34,4.34,0,0,0-8.67,0"/><path class="cls-7" d="M130.49,73.18c0-5-4.49-9-10-9s-10,4-10,9"/><path class="cls-8" d="M124.81,73.18a4.34,4.34,0,0,0-8.67,0"/><path class="cls-8" d="M118.66,91.53S116.35,81,105,81.33s-12.23,10.2-12.23,10.2Z"/><path class="cls-8" d="M129.7,68.74l5.36-2.13-4.75,3.74c.06.21.11.41.15.61l4.65-.58-4.44,1.87c.05.59.05,1,.05,1-2.49-7.88-7.46-8.93-8.89-9.07,4.56.13,6.8,2.35,7.87,4.58"/><path class="cls-8" d="M76.33,70.38,81,71c0-.2.09-.4.15-.61l-4.75-3.74,5.35,2.13c1.08-2.23,3.31-4.45,7.87-4.58-1.42.14-6.39,1.19-8.88,9.07a8.55,8.55,0,0,1,0-1Z"/><polyline class="cls-3" points="109.86 200.67 115.67 242.14 121.43 242.14 127.24 199.73"/><polygon class="cls-4" points="121.05 242.14 123.78 226.23 113.32 226.23 115.3 240.83 121.05 242.14"/><path class="cls-5" d="M112.34,243.09a9.69,9.69,0,0,1,19.38,0"/></svg>