<svg id="Layer_1" data-name="Layer 1" xmlns="http://www.w3.org/2000/svg" viewBox="0 0 213.85 256.92"><defs><style>.cls-1,.cls-4{fill:none;stroke-linecap:round;stroke-miterlimit:10;}.cls-1{stroke:#0f8ab2;stroke-width:4.81px;}.cls-2{fill:#a2cced;}.cls-3{fill:#00a1cd;}.cls-4{stroke:#0d4060;stroke-width:2.09px;}.cls-5{fill:#fff;}.cls-6{fill:#0d4060;}.cls-7{fill:#ed1651;}.cls-8{fill:#504b48;}</style></defs><path class="cls-1" d="M60.29,141.25s-16.39,2.43-29-31"/><path class="cls-2" d="M39,96.66c.07-.76-.67-1.38-1.64-1.38a1.78,1.78,0,0,0-1.89,1.37l-.15,1.79a5,5,0,0,0-.38-.81L32.3,89a1.77,1.77,0,0,0-2.13-.92c-.94.22-1.54,1-1.32,1.71L30.42,95A9.11,9.11,0,0,0,29,94.89l-1.83-6A1.76,1.76,0,0,0,25.07,88c-.94.21-1.54,1-1.32,1.71l1.83,6a7.42,7.42,0,0,0-1.29.76l-1.53-5a1.75,1.75,0,0,0-2.12-.92c-.95.21-1.54,1-1.32,1.71l2.8,9.22,0,.07a.57.57,0,0,0,0,.14l2.07,6.83c.84,2.77,4.49,4.36,8.12,3.53,2.85-.65,4.86-2.61,5.18-4.76Z"/><path class="cls-1" d="M156.68,142.55s16.57,0,24,35"/><path class="cls-2" d="M171.09,189.82c-.18.74.46,1.46,1.42,1.61a1.78,1.78,0,0,0,2.07-1.07l.42-1.76a4.08,4.08,0,0,0,.26.86l1.3,8.91a1.76,1.76,0,0,0,2,1.23c1-.07,1.67-.74,1.56-1.49l-.78-5.35a8.53,8.53,0,0,0,1.37.3l.91,6.22a1.76,1.76,0,0,0,2,1.23c1-.07,1.67-.75,1.56-1.49l-.91-6.23a7.74,7.74,0,0,0,1.39-.55l.76,5.19a1.76,1.76,0,0,0,2,1.23c1-.08,1.67-.75,1.56-1.5l-1.39-9.53a.25.25,0,0,1,0-.07.86.86,0,0,1,0-.16l-1-7.06c-.42-2.86-3.79-5-7.5-4.7-2.91.22-5.19,1.86-5.83,3.93Z"/><path class="cls-3" d="M167.65,93.09c1.34-9.47,2.61-19.14,2.61-28.72,0-37.47-28.54-46.47-63.92-46.62h-.89c-35.39.15-63.93,9.15-63.93,46.62,0,9.58,1.28,19.25,2.62,28.72,1.73,12.26,6.94,25.09,8,37.9,1.23,14.49-9,25.28-7.93,39,.86,11.67,6.91,21.85,17.18,27.38,13.3,7.16,18.84,7.06,44.47,7s31.18.12,44.48-7c10.27-5.53,16.31-15.71,17.18-27.38,1-13.73-9.16-24.52-7.93-39C160.71,118.18,165.91,105.35,167.65,93.09Z"/><path class="cls-4" d="M132.08,59s-3.72-7.55-11.9-3.1"/><path class="cls-4" d="M82.43,59s3.72-7.55,11.9-3.1"/><path class="cls-5" d="M102.06,74.4c0-5.08-4.46-9.2-10-9.2s-10,4.12-10,9.2"/><path class="cls-6" d="M96.37,74.4a4.33,4.33,0,0,0-8.66,0"/><path class="cls-5" d="M111.64,74.4c0-5.08,4.48-9.2,10-9.2s10,4.12,10,9.2"/><path class="cls-6" d="M126,74.4a4.34,4.34,0,0,0-8.67,0"/><path class="cls-6" d="M93.75,82.92s2.31,12.36,13.64,12,12.23-12,12.23-12Z"/><path class="cls-6" d="M130.68,69.77,136,67.64l-4.74,3.74c.06.22.1.42.15.62l4.64-.58-4.44,1.87a8.42,8.42,0,0,1,.05,1c-2.48-7.88-7.46-8.92-8.88-9.06,4.56.13,6.79,2.35,7.87,4.57"/><path class="cls-6" d="M77.7,71.42l4.65.58c0-.2.09-.4.15-.62l-4.75-3.74,5.36,2.13c1.07-2.22,3.31-4.44,7.87-4.57-1.43.14-6.4,1.18-8.88,9.06a9.7,9.7,0,0,1,0-1Z"/><polyline class="cls-3" points="99.28 200.79 93.47 242.27 87.71 242.27 81.9 199.86"/><polygon class="cls-7" points="88.09 242.27 85.36 226.36 95.83 226.36 93.85 240.95 88.09 242.27"/><path class="cls-8" d="M96.8,243.22a9.69,9.69,0,1,0-19.37,0"/><polyline class="cls-3" points="109.8 200.79 115.61 242.27 121.38 242.27 127.19 199.86"/><polygon class="cls-7" points="121 242.27 123.73 226.36 113.26 226.36 115.24 240.95 121 242.27"/><path class="cls-8" d="M112.28,243.22a9.69,9.69,0,0,1,19.38,0"/></svg>