<svg id="Layer_1" data-name="Layer 1" xmlns="http://www.w3.org/2000/svg" viewBox="0 0 213.85 256.92"><defs><style>.cls-1,.cls-4{fill:none;stroke-linecap:round;stroke-miterlimit:10;}.cls-1{stroke:#0f8ab2;stroke-width:4.81px;}.cls-2{fill:#a2cced;}.cls-3{fill:#00a1cd;}.cls-4{stroke:#0d4060;stroke-width:2.09px;}.cls-5{fill:#fff;}.cls-6{fill:#0d4060;}.cls-7{fill:#ed1651;}.cls-8{fill:#504b48;}</style></defs><path class="cls-1" d="M56,142.33s-16.58,0-24,35"/><path class="cls-2" d="M41.6,189.6c.18.74-.46,1.46-1.42,1.61a1.78,1.78,0,0,1-2.07-1.07l-.42-1.75a4.18,4.18,0,0,1-.26.85l-1.3,8.92a1.76,1.76,0,0,1-2,1.23c-1-.08-1.68-.75-1.57-1.5l.78-5.35a7.47,7.47,0,0,1-1.36.3l-.91,6.22a1.77,1.77,0,0,1-2,1.23c-1-.07-1.67-.74-1.56-1.49l.91-6.22A7.76,7.76,0,0,1,27.1,192l-.76,5.19a1.76,1.76,0,0,1-2,1.23c-1-.07-1.67-.74-1.56-1.49l1.39-9.54a.19.19,0,0,0,0-.07c0-.05,0-.1,0-.15l1-7.06c.42-2.87,3.79-5,7.5-4.7,2.91.21,5.19,1.85,5.83,3.93Z"/><path class="cls-1" d="M156.26,141.37s16.58,0,24,35"/><path class="cls-2" d="M170.68,188.64c-.18.74.46,1.46,1.42,1.61a1.78,1.78,0,0,0,2.07-1.07l.42-1.75a4.47,4.47,0,0,0,.26.86l1.3,8.91a1.76,1.76,0,0,0,2,1.23c1-.08,1.68-.75,1.57-1.5l-.78-5.34a8.41,8.41,0,0,0,1.36.29l.91,6.22a1.76,1.76,0,0,0,2,1.23c1-.07,1.68-.74,1.57-1.49l-.91-6.22a7.76,7.76,0,0,0,1.39-.56l.75,5.19a1.77,1.77,0,0,0,2,1.23c1-.07,1.67-.74,1.56-1.49l-1.39-9.54a.19.19,0,0,1,0-.07s0-.1,0-.15l-1-7.06c-.42-2.86-3.79-5-7.5-4.7-2.91.22-5.19,1.85-5.83,3.93Z"/><path class="cls-3" d="M167.24,91.91c1.34-9.47,2.61-19.13,2.61-28.71,0-37.47-28.54-46.48-63.92-46.63H105c-35.38.15-63.92,9.16-63.92,46.63,0,9.58,1.27,19.24,2.61,28.71,1.74,12.27,6.94,25.09,8,37.9,1.23,14.49-8.94,25.28-7.92,39,.86,11.68,6.9,21.86,17.17,27.39,13.3,7.15,18.84,7,44.48,7s31.18.11,44.48-7c10.27-5.53,16.31-15.71,17.18-27.39,1-13.73-9.16-24.52-7.93-39C160.3,117,165.5,104.18,167.24,91.91Z"/><path class="cls-4" d="M131.67,57.82s-3.73-7.54-11.9-3.1"/><path class="cls-4" d="M82,57.82s3.73-7.54,11.91-3.1"/><path class="cls-5" d="M101.64,73.22c0-5.08-4.46-9.2-10-9.2s-10,4.12-10,9.2"/><path class="cls-6" d="M96,73.22a4.33,4.33,0,0,0-8.66,0"/><path class="cls-5" d="M111.23,73.22c0-5.08,4.48-9.2,10-9.2s10,4.12,10,9.2"/><path class="cls-6" d="M125.57,73.22a4.33,4.33,0,0,0-8.66,0"/><path class="cls-6" d="M93.34,81.74s.57,6,13.64,6c11.33,0,12.23-6,12.23-6Z"/><path class="cls-6" d="M130.27,68.6l5.35-2.13-4.74,3.74c.06.21.1.41.14.61l4.65-.58-4.44,1.87a8.63,8.63,0,0,1,.05,1c-2.49-7.88-7.46-8.93-8.88-9.07,4.56.13,6.79,2.35,7.87,4.58"/><path class="cls-6" d="M77.29,70.24l4.65.58c0-.2.09-.4.15-.61l-4.75-3.74L82.7,68.6c1.07-2.23,3.3-4.45,7.86-4.58-1.42.14-6.39,1.19-8.88,9.07a8.55,8.55,0,0,1,0-1Z"/><polyline class="cls-3" points="98.2 200.79 92.39 242.27 86.63 242.27 80.82 199.86"/><polygon class="cls-7" points="87.01 242.27 84.28 226.36 94.74 226.36 92.77 240.95 87.01 242.27"/><path class="cls-8" d="M95.72,243.22a9.69,9.69,0,0,0-19.38,0"/><polyline class="cls-3" points="108.72 200.79 114.53 242.27 120.29 242.27 126.1 199.86"/><polygon class="cls-7" points="119.91 242.27 122.64 226.36 112.18 226.36 114.16 240.95 119.91 242.27"/><path class="cls-8" d="M111.2,243.22a9.69,9.69,0,0,1,19.38,0"/></svg>