<svg id="Layer_1" data-name="Layer 1" xmlns="http://www.w3.org/2000/svg" viewBox="0 0 306.06 260.53"><defs><style>.cls-1{fill:#00a1cd;}.cls-2{fill:#ed1651;}.cls-3{fill:#504b48;}.cls-10,.cls-4,.cls-8,.cls-9{fill:none;stroke-miterlimit:10;}.cls-4{stroke:#0d4060;stroke-width:1.92px;}.cls-10,.cls-4{stroke-linecap:round;}.cls-5{fill:#0d4060;}.cls-6{fill:#fff;}.cls-7{fill:#f1eec8;}.cls-8,.cls-9{stroke:#e5dfa0;}.cls-9{stroke-width:0.89px;}.cls-10{stroke:#0f8ab2;stroke-width:4.81px;}.cls-11{fill:#a2cced;}</style></defs><polyline class="cls-1" points="171.37 250.04 178.96 199.94 157.04 199.94 164.69 251.49 170.53 247.79"/><polyline class="cls-1" points="133.14 247.39 123.6 201.37 147.37 201.37 138.83 250.04 130.66 247.39"/><polygon class="cls-2" points="130.49 233.99 141.96 233.99 139.16 250.45 132.18 250.45 130.49 233.99"/><polygon class="cls-2" points="161.88 234.65 173.35 234.65 171.65 251.11 164.67 251.11 161.88 234.65"/><path class="cls-3" d="M120.14,251.49a11.73,11.73,0,1,1,23.46,0"/><path class="cls-3" d="M159.7,251.49a11.73,11.73,0,1,1,23.46,0"/><path class="cls-1" d="M71.62,141.57c0-34,16.91-67,38.78-90.62,56.4-60.76,119.21,27,119.21,93.43,0,49.06-38.84,61-77.7,61S71.62,190.63,71.62,141.57Z"/><path class="cls-4" d="M127.74,82.49s3.69-7.47,11.79-3.07"/><path class="cls-4" d="M175.09,82.49s-2.69-7.62-10.79-3.21"/><path class="cls-5" d="M164.86,104.84s-2.28,7.33-13.51,7.1-12.11-7.1-12.11-7.1Z"/><path class="cls-6" d="M156.86,95.8c0-5.1,4.41-9.24,9.86-9.24s9.87,4.14,9.87,9.24"/><path class="cls-5" d="M162.49,95.8a4.29,4.29,0,0,1,8.58,0"/><path class="cls-6" d="M127.53,95.8c0-5.1,4.44-9.24,9.91-9.24s9.92,4.14,9.92,9.24"/><path class="cls-5" d="M133.15,95.8a4.29,4.29,0,1,1,8.58,0"/><path class="cls-5" d="M128.38,91.44l-5.13-2.26,4.55,4c-.06.22-.1.44-.14.65l-4.45-.61,4.25,2a9.52,9.52,0,0,0,0,1c2.38-8.36,7.15-9.47,8.51-9.62A7.88,7.88,0,0,0,128.38,91.44Z"/><path class="cls-5" d="M135.92,86.58l.38,0Z"/><path class="cls-5" d="M181.05,93.18l-4.45.62c0-.21-.09-.43-.14-.65l4.54-4-5.13,2.26a7.87,7.87,0,0,0-7.53-4.86c1.36.15,6.12,1.26,8.5,9.62,0,0,0-.4,0-1Z"/><path class="cls-5" d="M166.34,86.58l-.39,0Z"/><rect class="cls-2" x="109.08" y="135.83" width="80.08" height="45.91"/><path class="cls-7" d="M112.74,132.75v47.47s22.12-9,36.34,0V132.75S128.54,124.78,112.74,132.75Z"/><path class="cls-7" d="M149.08,132.75v47.47s22.13-9,36.35,0V132.75S164.89,124.78,149.08,132.75Z"/><line class="cls-8" x1="149.08" y1="132.75" x2="149.08" y2="179.12"/><path class="cls-9" d="M154.07,140.18s14-7.05,26.38,0"/><path class="cls-9" d="M154.07,147.39s14-7.06,26.38,0"/><path class="cls-9" d="M154.07,154.19s14-7.05,26.38,0"/><path class="cls-9" d="M154.07,162.2s14-7,26.38,0"/><path class="cls-9" d="M154.07,169.55s14-7.06,26.38,0"/><path class="cls-9" d="M117.72,139.94s14-7.05,26.38,0"/><path class="cls-9" d="M117.72,147.15s14-7.06,26.38,0"/><path class="cls-9" d="M117.72,154s14-7,26.38,0"/><path class="cls-9" d="M117.72,162s14-7.05,26.38,0"/><path class="cls-9" d="M117.72,169.31s14-7.06,26.38,0"/><path class="cls-10" d="M219.13,136.62s8.22,40.83-27.21,40.83"/><path class="cls-11" d="M198.29,167.27c2.59.36,5,2.74,5.8,6.14,1.06,4.34-.78,8.75-4.09,9.81l-8.16,2.61-.18,0-.08,0-11,3.52c-.87.28-1.8-.42-2.08-1.56a2.11,2.11,0,0,1,1.07-2.56l6-1.92a9.3,9.3,0,0,1-.93-1.53l-7.19,2.3c-.87.27-1.8-.43-2.08-1.56a2.12,2.12,0,0,1,1.07-2.57l7.2-2.3a10.22,10.22,0,0,1,.08-1.67l-6.18,2c-.87.28-1.8-.42-2.08-1.56a2.11,2.11,0,0,1,1.07-2.56l10.3-3.29a5.15,5.15,0,0,1,1-.48l-2.16-.15a2.16,2.16,0,0,1-1.68-2.24h0c0-1.17.73-2.07,1.63-2"/><path class="cls-10" d="M82.57,136.73s-5.08,41,27.21,40.83"/><path class="cls-11" d="M103.41,167.39c-2.59.36-5,2.73-5.8,6.14-1,4.34.79,8.75,4.1,9.81l8.16,2.61.18,0,.08,0,11,3.52c.86.28,1.8-.42,2.07-1.56a2.1,2.1,0,0,0-1.07-2.56l-6-1.92a8.66,8.66,0,0,0,.93-1.53l7.2,2.3c.86.27,1.8-.43,2.07-1.56a2.1,2.1,0,0,0-1.07-2.57l-7.19-2.3a10.4,10.4,0,0,0-.08-1.68l6.18,2c.86.28,1.8-.43,2.07-1.56a2.09,2.09,0,0,0-1.07-2.56l-10.3-3.3a5.43,5.43,0,0,0-1-.47l2.17-.16a2.13,2.13,0,0,0,1.67-2.24h0c0-1.16-.72-2.06-1.63-2"/></svg>