<svg xmlns="http://www.w3.org/2000/svg" viewBox="0 0 680.32 806.49"><defs><style>.cls-1{fill:#cceaed;}.cls-2{fill:#00a1cd;}.cls-3{fill:#ed1651;}.cls-4{fill:#504b48;}.cls-5{fill:#c6cacb;}.cls-23,.cls-24,.cls-28,.cls-29,.cls-30,.cls-31,.cls-32,.cls-33,.cls-6{fill:none;stroke-linecap:round;stroke-miterlimit:10;}.cls-6{stroke:#188ab2;stroke-width:12.99px;}.cls-7{fill:#a2cced;}.cls-8{fill:#9c9e9f;}.cls-9{fill:#249045;}.cls-10{fill:#e69227;}.cls-11{fill:#761415;}.cls-12{fill:#a51e23;}.cls-13{fill:#ffcd05;}.cls-14{fill:#6f6f70;}.cls-15{fill:#f8ad1d;}.cls-16{fill:#d4a92a;}.cls-17{fill:#fad85b;}.cls-18{fill:#5e5e5c;}.cls-19{fill:#888884;}.cls-20{fill:#454546;}.cls-21{fill:#323333;}.cls-22{fill:#f8e5b9;}.cls-23{stroke:#939393;stroke-width:2.47px;}.cls-24,.cls-30,.cls-33{stroke:#0d4060;}.cls-24{stroke-width:2.6px;}.cls-25{fill:#0d4161;}.cls-26{fill:#fff;}.cls-27{fill:#0d4060;}.cls-28,.cls-29,.cls-32{stroke:#0f8ab2;}.cls-28{stroke-width:5.66px;}.cls-29{stroke-width:3.9px;}.cls-30{stroke-width:2.17px;}.cls-31{stroke:#231f20;stroke-width:1.15px;}.cls-32{stroke-width:6.22px;}.cls-33{stroke-width:2.21px;}</style></defs><g id="Layer_1" data-name="Layer 1"><path class="cls-1" d="M224.68,307.23c8.8,0,16.12,5.91,17.3,14.28a14.09,14.09,0,0,1-4,11.93,18.14,18.14,0,0,1-23.62,2.17C209.5,332,207,327.11,208,321c1-6.52,5.17-10.62,11.31-12.69A40.61,40.61,0,0,1,224.68,307.23Z"/><path class="cls-1" d="M247,344a7.88,7.88,0,0,1,8.2,7.68c.05,4.15-3.64,7.65-8.11,7.71a8,8,0,0,1-8.21-7.62A7.92,7.92,0,0,1,247,344Z"/><polyline class="cls-2" points="382.98 772.57 398.57 669.64 353.55 669.64 369.26 775.54 381.26 767.95"/><polyline class="cls-2" points="304.44 767.12 284.85 672.59 333.68 672.59 316.13 772.57 299.36 767.12"/><polygon class="cls-3" points="299.01 739.6 322.58 739.6 316.81 773.41 302.48 773.41 299.01 739.6"/><polygon class="cls-3" points="363.5 740.94 388.36 740.94 384.86 774.76 369.26 775.54 363.5 740.94"/><path class="cls-4" d="M269.53,775.54a24.1,24.1,0,1,1,48.2,0"/><path class="cls-4" d="M369.28,775.54a24.1,24.1,0,1,1,48.2,0"/><path class="cls-5" d="M632.43,539.54s-10-32.69-13.38-34.34-9.66-1.63-9.66-1.63L622,544.36Z"/><path class="cls-6" d="M484.11,544.87s37.49,12.48,60.19,3.82,48.94-28.93,48.94-28.93"/><path class="cls-7" d="M581.17,512c-4.5,3.08-6.72,9.74-5.08,16.88,2.06,9.09,9.61,15.61,16.76,14.5s14.38-2.16,21.6-3.14q5.65-.76,11.33-1.5c3.08-.4,6.87-.25,9.52-2.13,3.11-2.2,2-9.09-2.4-8.41l-13,2a19.82,19.82,0,0,0,.3-3.74L635.78,524c1.87-.29,3-2.47,2.42-4.85s-2.52-4.07-4.39-3.79l-15.54,2.42a22,22,0,0,0-1.71-3l13.35-2.08c1.87-.29,3-2.47,2.42-4.84s-2.51-4.08-4.39-3.8l-22.25,3.47a10.58,10.58,0,0,0-2.25,0l6-3.94c1.62-1,2.1-3.56,1-5.75s-5.35-1.55-7-.58Z"/><path class="cls-6" d="M491.49,555.13s31.5,22.6,34,46.81-3.87,56.82-3.87,56.82"/><path class="cls-5" d="M656.18,624.35S639.39,569,631.79,538a68.41,68.41,0,0,1-11,1.36c1.59,12.22,6.27,28.5,6.29,29.27.18,7.8-23.19,17-38,3.72-11.69-10.51,14.77-59.25,14.77-59.25s5-8.86,10.76-7c1.66-1.56,4.08.54,5.84-.91-8.19-3.42-13.74-2.65-13.74-2.65-20.19,10.39-40.22,70.73-48,88s-11.81,62.64,6.25,78.33c5.13,4.46-.38.48,54.19,1.75C662.59,671.61,656.18,624.35,656.18,624.35Z"/><path class="cls-8" d="M598.92,522.82s-21.3,44.42-19.46,60.57,45.59,11.48,48.86,5-7.54-49.07-7.54-49.07,1.77,30.75-1.81,34.14-6,7.44-20.22,3.13-11.25-8.24-8.6-18.78S598.92,522.82,598.92,522.82Z"/><path class="cls-9" d="M602.94,561.76c1.54,0,3.67,3.43,4.84,5.54.08-.15.16-.3.24-.43-1-3.5-2.88-10.22-1.36-9.4,1.34.71,2.49,4,3.12,6.18.18-.31.35-.62.53-.92-.85-5.13,2-11.74,2-11.74l.58,2.34a18.44,18.44,0,0,1,0,5.3c1.64-2.43,3.18-4.21,4.4-4.79,5.62-2.65,7.65-.28,7.65-.28s-7.84,3.77-9.17,6.17l-1.34,2.4s9.71-2.19,9.72-.4-11,4.38-11,4.38,8.84.17,9.26,3.22-11.41-1-11.41-1l-.51,1.55a7.78,7.78,0,0,1,3.44.44c4.2,1.4-2,3.61-5.1,4.56l-5.87,17.76-6.6-1,3.38-7.27s2.8-6.57,6.33-13.64C604.41,567.74,601.26,561.73,602.94,561.76Z"/><path class="cls-10" d="M601.27,594.42s2.51-23.89,27.26-17.41c0,0,2.72,9.32-.21,11.41S616.85,595.75,601.27,594.42Z"/><path class="cls-11" d="M588.12,591.21a8.69,8.69,0,1,0-8.76-8.59A8.66,8.66,0,0,0,588.12,591.21Z"/><path class="cls-12" d="M602.53,589.21a8.66,8.66,0,1,0-17.32.19v1.5c4.29,2.33,9.35,3.15,15.21,3.8C601.34,593.32,602.55,591,602.53,589.21Z"/><path class="cls-6" d="M210,557s-49.27,4-69.47-9.48-41.27-39.11-41.27-39.11"/><path class="cls-7" d="M78.59,521.85l18.22,11.23c7.69,3.52,18-1,22.91-10a17.43,17.43,0,0,0-.83-19.81l-20.79-23a4.21,4.21,0,0,0-5.95.56A1.39,1.39,0,0,0,92,481a4.82,4.82,0,0,0-.48,6.49l3.73,3.88a15.32,15.32,0,0,0-2.5-.75l-15.32-3.48c-1,1.06-2.48-1.44-2.93,0-.08,1.77-.2,3.53-.33,5.3,0,.07,0,.15,0,.23a.86.86,0,0,1,0,.16l4.13,1.83a23.64,23.64,0,0,0-2.75,2.73l-1.91,1.23a119.89,119.89,0,0,0-.41,19.86,28.42,28.42,0,0,0,4.08,2.4.89.89,0,0,1,.6.76"/><path class="cls-13" d="M44.85,695.53,41.31,738l101.46-2.68L137,692.57Z"/><path class="cls-14" d="M73.8,677.49c0-1.37,0-2.74-.12-4.12,0-.19,0-.38,0-.57a3.71,3.71,0,0,1,3.83-3.58c2.77-.11,2.52-.13,5.29-.23,3.76,0,7.53-.07,11.3-.13.38,0,.42-.28.57-.51.41.52,1,.35,1.48.35,2.43,0,4,.07,6.47.09a3.33,3.33,0,0,1,3.49,3,38.73,38.73,0,0,1,.08,5.8c-.11,1.67-.8,2.74-2.4,2.84a2.11,2.11,0,0,0-.62-.08,39.34,39.34,0,0,1-6.42.3c-4.24.17-8.5.2-12.72.26l-3.69.09c-2.14,0-1.21.05-3.31.11A3.74,3.74,0,0,1,73.8,677.49Z"/><path class="cls-15" d="M95,736.65a5.78,5.78,0,0,0,.16-1.18c-.24-4.39,0-8.6-.07-13.11s0-9,0-13.54a28.82,28.82,0,0,1,.17-5.25.63.63,0,0,1,.26.53,45.18,45.18,0,0,1,.29,5.46c.21,3.5.45,6.93.45,10.42,0,1.93.29,3.86.38,5.78.14,3.21.25,6.4.35,9.61a1.15,1.15,0,0,0,.87,1.17A7.4,7.4,0,0,1,95,736.65Z"/><path class="cls-15" d="M109.46,736.23a1.48,1.48,0,0,0,.16-.49l0-13.74c0-2.88-.06-6-.1-8.65s0-5.34,0-8l0-4.62a.59.59,0,0,1,.35.66c0,2.93.23,5.87.36,8.8.11,2.48.23,5,.38,7.47.33,5.68.54,11.35.78,17,0,.69.16,1.27.94,1.46A9.09,9.09,0,0,1,109.46,736.23Z"/><path class="cls-15" d="M72.12,737.14q0-2.31,0-4.62c0-5.32-.13-10.66-.13-16,0-3.64,0-7.18,0-10.79a4.12,4.12,0,0,1,.3-2.45,17.77,17.77,0,0,1,.29,2.49l.52,11.38.52,10.76c.15,3.06.14,6.12.46,9.18A3.35,3.35,0,0,1,72.12,737.14Z"/><path class="cls-15" d="M123.19,735.81c.28-.3.76-.37.75-1,0-3.53,0-7.06,0-10.6,0-3.17,0-6.29,0-9.4,0-2.28-.09-4.56-.13-6.85l.2-.35.58.26a3.44,3.44,0,0,0,.2,1.82,10.74,10.74,0,0,0,.08,3.1c.13,3.64.17,7.1.4,11s.22,7.71.68,11.59c0,.29-.17.37-.31.51A5.39,5.39,0,0,1,123.19,735.81Z"/><path class="cls-15" d="M116.88,736.08c-.25-2.49-.09-5-.1-7.5l0-10.26c0-3.34-.07-6.72,0-10,0-.55-.31-1.24.27-1.79a1.08,1.08,0,0,1,.25.85c.25,4.94.49,9.87.75,14.8.16,3.15.37,6.31.45,9.49a24.17,24.17,0,0,1,0,4.42Z"/><path class="cls-15" d="M79,737c.75-1.49.25-3.07.32-4.58.08-2.17.05-4.27,0-6.39-.07-5.4.15-10.81,0-16.21,0-.3-.1-.67.32-.88.45.7.19,1.55.24,2.33.21,3.75.48,7.5.68,11.25q.38,6.71.68,13.43c0,.38-.07.8.43,1A6.48,6.48,0,0,1,79,737Z"/><path class="cls-15" d="M102.49,736.41c-.07-.12-.2-.24-.19-.36l0-13.33c0-2.86,0-5.73,0-8.58,0-2.46,0-4.87,0-7.32,0-.26,0-.51.38-.63.1,1.8.21,3.56.3,5.34l.66,14.26c.14,3.18.3,6.36.42,9.53,0,.46,0,.81.49,1A3.81,3.81,0,0,1,102.49,736.41Z"/><path class="cls-15" d="M87,715.16a7.46,7.46,0,0,1,.21,2.68q.57,9.4,1.15,18.89a1.9,1.9,0,0,1-1.58.1c-.32-.23-.23-.57-.24-.88,0-2.56.15-5.13.06-7.69-.13-3.75.26-7.47.06-11.22a2.92,2.92,0,0,1,.33-2Z"/><path class="cls-15" d="M57.68,730.56c.08-5.12,0-10.22,0-15.33,0-4.17,0-8.36,0-12.53,0-.39-.38-.86.08-1.28A1.87,1.87,0,0,1,58,702.5c.17,4.14.35,8.19.51,12.14s.36,7.88.55,11.82c.19,3.62.39,7.21.58,10.8a1.49,1.49,0,0,1-2-.15C57.84,734.91,57.7,732.77,57.68,730.56Z"/><path class="cls-15" d="M64.92,736.6l0-12.57c0-4.12-.07-8.26,0-12.38a32.61,32.61,0,0,1,.11-5.59,11.12,11.12,0,0,1,.42,3.68c.34,6.7.73,13.36,1,20.07a56.91,56.91,0,0,1,.21,7.27,1.46,1.46,0,0,1-1.79,0A2.16,2.16,0,0,0,64.92,736.6Z"/><path class="cls-15" d="M48.65,732.18c.4-3.6.59-7.2.85-10.77.33-4.26.62-8.52.94-12.79,0-.27-.15-.64.25-.83.24.26.12.55.12.83-.08,2.64-.27,5.27-.22,7.9,0,3.64-.23,7.35-.26,11,0,2.66-.2,5.29-.25,8,0,.65-.33,1.38.29,1.91-.77.72-1.62.39-2.45.17C48.68,735.84,48.38,734,48.65,732.18Z"/><path class="cls-16" d="M79.68,707.2c-.54-.38-.36-.85-.13-1.32A2,2,0,0,1,79.68,707.2Z"/><path class="cls-16" d="M79.47,708.56a1.37,1.37,0,0,1,.21-1.36C79.69,707.63,80,708.08,79.47,708.56Z"/><path class="cls-16" d="M87,715.08c-.39-.28-.43-.58,0-1.08A1.35,1.35,0,0,1,87,715.08Z"/><path class="cls-16" d="M65.05,706a1.17,1.17,0,0,1,0-.95A.72.72,0,0,1,65.05,706Z"/><path class="cls-16" d="M87,713.64s-.2.06-.19,0,0-.15,0-.19.19,0,.19,0S87,713.61,87,713.64Z"/><path class="cls-15" d="M50.65,707.21s.05-.05.05-.05l.06.08,0,0S50.64,707.21,50.65,707.21Z"/><path class="cls-17" d="M123.83,691.27c-.91-.23-1.52.26-2.19.53-1.35.54-1.91.37-2.37-1,.23-.27.53-.85.83-.29.45.78.91.46,1.4.25s1.37-.3,1.42-.77c.1-1.15.52-.86,1.08-.4.25.21.47.07.7,0,.45-.08.48.27.53.59C124.54,690.33,124.39,691.43,123.83,691.27Z"/><path class="cls-15" d="M79.18,744.06c-.13-.06-.32-.11-.23-.32a.08.08,0,0,1,0-.07c.22,0,.18.22.16.38Z"/><path class="cls-18" d="M45,688.65a27.56,27.56,0,0,0,.15,3.52c.18-.22.29-.67.54-.61.89.23,1.64-.36,2.51-.26,1.21.14,2.53.55,3.63.18,1.53-.51,2.9-.13,4.47-.21s3.21.07,4.78,0c2.86-.1,5.74-.19,8.59-.4.44,0,1-.28,1.32-.14,1.18.53,2.38,0,3.55,0a49.44,49.44,0,0,0,6-.17c1.7-.19,3.49.18,5.18.08,2.52-.11,5.11-.45,7.65-.39,1.91,0,3.81-.42,5.72.13h.2c.82-.73,2.46-.24,3.43-.22,1.38,0,2.8-.07,4.17-.14l4.1-.21a15.65,15.65,0,0,1,6.13.48c.87.29,2,.76,2.71.08a1.69,1.69,0,0,0,.31.21,2,2,0,0,0,2.71-.67c.13-.23.23-.53.48-.56a.52.52,0,0,1,.25,0,2.73,2.73,0,0,1,1.92,1c.93-.48,2-.61,2.89-1.15a.33.33,0,0,1,.29,0c.84.86,1.92.44,2.8.35a8.09,8.09,0,0,0,2.75-.2,1.8,1.8,0,0,1,2.22.66c.27-1.31-.13-2.62.11-3.94.06-.5-.47-.61-.85-.67-6-1-11.94-2.3-17.93-3.3-2.26-.38-4.51-.74-6.78-1.07-1.87-.28-4.18-.27-5.83-1.27a2.27,2.27,0,0,0-.62-.09,37.23,37.23,0,0,1-6.42.31c-4.26.16-8.51.21-12.73.27l-3.68.08c-2.14.08-4.23.12-6.33.16-.54.78-1.46.64-2.19.83-5.6,1.38-11.25,2.58-16.86,3.9l-6.53,1.55a20.2,20.2,0,0,0-4,1C45.26,688.06,44.92,688.4,45,688.65Z"/><path class="cls-19" d="M82.45,403.35a5.92,5.92,0,0,0-5.56,6.27c.1,6.8.3,13.6.47,20.4q.35,13.11.65,26.26l.91,36.23.82,31.88-.1.09,0,0v.28a4.14,4.14,0,0,0,.91-.21,6,6,0,0,1-.91.21c.07.55-.19,1.14.08,1.69v.23a.38.38,0,0,0,0,.56,48.94,48.94,0,0,0,.15,5.14l0,.73c.57.11,1,0,.94-.74a.89.89,0,0,1,.11-.48.8.8,0,0,0-.11.48c.07.71-.37.83-.94.74a3.39,3.39,0,0,0,.06,1.76.28.28,0,0,0,0,.2.86.86,0,0,0,.3.33.62.62,0,0,0,.67,0,5.82,5.82,0,0,1,1-.42,8.2,8.2,0,0,0-1,.42.62.62,0,0,1-.67,0,1,1,0,0,1-.3-.33,25.57,25.57,0,0,0,.07,4c0,.5-.24,1,.07,1.53.11,4.83.22,9.76.31,14.66q.38,14.29.75,28.59.38,14.6.73,29.22c0,.31,2.79,55.47,2.77,55.79l3.78,0c.39,0,7.52,0,7.68-.24-.21-8.26-2.74-71.83-3-80.09q-.33-13-.65-26c-.09-3.18-.18-6.37-.29-9.55a1.11,1.11,0,0,0,0-1c-.69-.37-1.15.1-1.81.3s-1.3.49-1.94.75c.64-.25,1.36-.56,1.94-.75s1.12-.67,1.81-.3a53.6,53.6,0,0,0-.07-5.81q-.66-26.21-1.29-52.4-.5-18.53-.9-37.09-.42-15-.82-29.9l-.42-17.43s0-.05,0-.08a6,6,0,0,0-6.06-5.92A.31.31,0,0,1,82.45,403.35Zm.92,129.44a.45.45,0,0,1-.1.14.44.44,0,0,0,.07-.17.2.2,0,0,0,0-.13l0,.13Zm-1,2.15a.4.4,0,0,1,.34,0,.45.45,0,0,0-.36,0Zm.27,1.39,0-.05Zm-1.75,3.19-.13-.15Zm.14-1.07.06.07Zm2.79-.4a2,2,0,0,1-.23.62,1.64,1.64,0,0,0,.23-.64,1.11,1.11,0,0,0-.08-.6,1.11,1.11,0,0,1,.08.6ZM85.54,552a.19.19,0,0,0,.22-.11.19.19,0,0,1-.22.08.38.38,0,0,1-.25-.18.38.38,0,0,0,.25.18Zm.35-.33c.06-.12.12-.26.2-.39a2.92,2.92,0,0,0-.2.39l-.06.19A.53.53,0,0,1,85.89,551.62Zm.18-.46c.2-.45.38-.85.6-1.28,0-.16.09-.37.15-.55-.06.18-.08.38-.15.55-.17.43-.37.85-.56,1.27Zm.78-2a.51.51,0,0,1,.32-.25.45.45,0,0,0-.31.27Zm.51-.26a1.25,1.25,0,0,1,.83.59,1.27,1.27,0,0,0-.83-.56Zm1.41,3c-.06.13-.1.26-.17.4.06-.13.12-.24.17-.36Zm-.3.64-.06.06a.35.35,0,0,0,0,.14l0-.14ZM90.23,554a1.36,1.36,0,0,0,0,.21c0-.06,0-.13,0-.18Zm.24.66.18.35Zm.28.6a3.39,3.39,0,0,1,.11.71,2.84,2.84,0,0,0-.1-.66l-.07-.08.07.08Zm0,1.29a1.52,1.52,0,0,1-.22.58,1.45,1.45,0,0,0,.22-.55Zm-4.42-2c.25-.4.28-.66,0-.79.28.16.26.42,0,.82a2.24,2.24,0,0,0-.31,2.09,2.68,2.68,0,0,0,.38.68l.2.23-.2-.23a2.83,2.83,0,0,1-.38-.68,2.24,2.24,0,0,1,.31-2.09Zm-2.24-3.2,0,.25a3.88,3.88,0,0,0,.41,1.07,3.88,3.88,0,0,1-.41-1.07Zm0-.46,0,.17Zm0-.12a1.22,1.22,0,0,0,.07-.17,1.42,1.42,0,0,0-.08.18Zm.09-.2a.94.94,0,0,1,.47-.33,1.14,1.14,0,0,1,.3-.06l.12,1-.12-1a.77.77,0,0,0-.3.06.86.86,0,0,0-.48.35ZM80.41,539a.45.45,0,0,1,0-.11.33.33,0,0,0,0,.14ZM82.09,535l.23-.06Zm-1.53-4a5.05,5.05,0,0,0,.23-.61,3,3,0,0,1-.24.61Zm-.48.78,0,.13Zm.77-2.56a3.56,3.56,0,0,0-.34-.89,3,3,0,0,1,.32.9Zm.6-4.71a.75.75,0,0,0-.67.07c.24-.1.49-.18.64,0Z"/><path class="cls-15" d="M136.3,693.2,44.13,696l.14-4.43,91.46-2.64Z"/><path class="cls-7" d="M69.33,488.61A5.14,5.14,0,0,1,70.78,487c4.09-2.93,11.26.88,15.19,2.89l.29.17a4.22,4.22,0,0,1,1.38,5.81,4.89,4.89,0,0,1-5.84,2.87l-5.44-2.27c-2-.84-6.53-1.8-7.4-4A4.37,4.37,0,0,1,69.33,488.61Z"/><path class="cls-7" d="M68.33,500.88a5.22,5.22,0,0,1,1.46-1.64c4.09-2.92,11.26.89,15.19,2.9l.29.16a4.23,4.23,0,0,1,1.38,5.81A4.9,4.9,0,0,1,80.81,511l-5.44-2.27c-2-.84-6.53-1.8-7.41-4A4.47,4.47,0,0,1,68.33,500.88Z"/><path class="cls-7" d="M68.54,511.92A5.29,5.29,0,0,1,70,510.29c4.09-2.93,11.26.89,15.19,2.9a2.09,2.09,0,0,1,.29.16,4.23,4.23,0,0,1,1.38,5.81A4.91,4.91,0,0,1,81,522c-1.81-.77-3.63-1.52-5.44-2.28-2-.84-6.53-1.8-7.41-4A4.43,4.43,0,0,1,68.54,511.92Z"/><path class="cls-6" d="M181.36,670.92s-9-32-8.6-56.31,29.92-49.47,29.92-49.47"/><path class="cls-20" d="M223.78,695.94a3.38,3.38,0,1,0,0-4.59A3.25,3.25,0,0,0,223.78,695.94Z"/><path class="cls-21" d="M187.12,716.49l-12.51-23.55a4.8,4.8,0,0,1,2-6.5l46.89-24.85a4.82,4.82,0,0,1,6.51,2l12.52,23.55a4.81,4.81,0,0,1-2,6.5l-46.89,24.85A4.82,4.82,0,0,1,187.12,716.49Z"/><path class="cls-20" d="M197.59,710.4l-12.06-22.69a1.1,1.1,0,0,1,.45-1.49l38.83-20.57a1.1,1.1,0,0,1,1.49.46l12.06,22.69a1.1,1.1,0,0,1-.46,1.49l-38.82,20.56A1.08,1.08,0,0,1,197.59,710.4Z"/><path class="cls-7" d="M167.28,674.32q3.1,10.48,6,21,1.52,5.52,3,11c.8,3,1.16,6.79,3.38,9.17,2.6,2.78,9.26.78,8-3.53l-3.72-12.6a19,19,0,0,0,3.73-.2l4.46,15.11c.53,1.81,2.84,2.59,5.12,1.74s3.7-3,3.16-4.86l-4.46-15.11a21.94,21.94,0,0,0,2.79-2.11l3.84,13c.53,1.81,2.84,2.59,5.11,1.74s3.71-3,3.17-4.86l-6.07-20.53a1,1,0,0,1-.52-.81c-.05-.72-.06-1.45-.05-2.16,0-.12,0-.25-.07-.36l.09.1c.1-3.85,2.67-8.37,3.07-12.21l-10.52-9.39c-3.64-4-10.53-5.35-17.37-2.78C170.68,659,165.23,667.37,167.28,674.32Z"/><path class="cls-22" d="M597,666.54l-12.13,58.72s-12.4-9-27.1-7.73c-11.31,1-20.32,9.45-46.07,7-24.39-2.34-46.13-14.29-46.13-14.29l15.18-59.18,20,11.06s14.93,6.26,26.85,2.18S565.1,643.65,597,666.54Z"/><path class="cls-23" d="M483.48,707,489,683.35"/><path class="cls-23" d="M494.42,711.15l9.74-41.45"/><path class="cls-23" d="M504.76,712.76l11-39.1"/><path class="cls-23" d="M516.11,713.93l8.62-37.87"/><path class="cls-23" d="M525.83,712.87l9.69-42.44"/><path class="cls-23" d="M534.18,711.5l9.63-45.39"/><path class="cls-23" d="M544.46,709l9.06-43.62"/><path class="cls-23" d="M554.92,707.64,564,664"/><path class="cls-23" d="M565.82,708.32l9.07-43.61"/><path class="cls-7" d="M522.26,643.46c-7-2-13.79-.11-17.08,4.21l-9.7,10.24c.72,3.79,3.66,8.08,4.08,11.91l.08-.1a3.6,3.6,0,0,0,0,.36c.07.71.12,1.43.13,2.16a1,1,0,0,1-.45.85l-4.34,21c-.39,1.86,1.22,3.92,3.56,4.58s4.58-.31,4.95-2.16l2.75-13.26a22.1,22.1,0,0,0,2.95,1.88L506,700.51c-.39,1.86,1.22,3.92,3.56,4.58s4.57-.31,5-2.16l3.19-15.43a19.2,19.2,0,0,0,3.73-.11l-2.66,12.87c-.9,4.4,5.91,5.83,8.26,2.84,2-2.55,2-6.35,2.6-9.41.68-3.76,1.38-7.51,2.07-11.27q2-10.74,4.2-21.44C537.34,653.88,531.21,646,522.26,643.46Z"/><path class="cls-2" d="M184.24,558c0-69.89,34.72-137.74,79.66-186.15C379.77,247,508.79,427.19,508.79,563.73,508.79,664.51,429,689,349.17,689S184.24,658.73,184.24,558Z"/><path class="cls-24" d="M291.44,417.33s-.59-17.11,18.36-17"/><path class="cls-24" d="M405,416.78s2.43-16.42-16.52-16.2"/><path class="cls-25" d="M349.41,479.27c14.87,0,26.92-3.91,26.92-8.73s-12.05-8.73-26.92-8.73-26.93,3.91-26.93,8.73S334.54,479.27,349.41,479.27Z"/><path class="cls-26" d="M322.73,450.34a15.89,15.89,0,1,0-15.85-15.89A15.88,15.88,0,0,0,322.73,450.34Z"/><path class="cls-25" d="M318.59,438.6c6.05,4.62,12.88-2.23,8.28-8.3C320.82,425.68,314,432.54,318.59,438.6Z"/><path class="cls-26" d="M376.08,450.34a15.89,15.89,0,1,0-15.84-15.89A15.87,15.87,0,0,0,376.08,450.34Z"/><path class="cls-25" d="M372,438.6c6.05,4.62,12.88-2.24,8.27-8.3C374.17,425.68,367.34,432.54,372,438.6Z"/><path class="cls-27" d="M310,424l-9.71-6.2,8,9.48c-.19.44-.34.87-.49,1.28L299,426l8,5.36c-.31,1.26-.42,2.09-.42,2.09,7.45-16.24,17.27-15.72,20.08-15.59C317.74,416.72,312.86,419.56,310,424Z"/><path class="cls-27" d="M388.29,423.7l9.42-6.62-7.56,9.83c.21.43.38.84.55,1.25l8.72-3-7.77,5.72c.36,1.24.51,2.06.51,2.06C384,417,374.21,418,371.41,418.22,380.26,416.74,385.26,419.36,388.29,423.7Z"/><path class="cls-3" d="M379.25,553.69H319.56a9.48,9.48,0,0,0-6.71,2.78l-12.39,12.39a9.49,9.49,0,0,0-.6,12.75l42.23,51.18a9.49,9.49,0,0,0,14.64,0L399,581.61a9.49,9.49,0,0,0-.61-12.75L386,556.47A9.48,9.48,0,0,0,379.25,553.69Z"/><path class="cls-13" d="M370.59,561.79H328.48a11.67,11.67,0,0,0-8.07,3.21l-5.56,5.33c-4.16,4-4.47,9.07-.73,13.42l30.51,35.48a6.46,6.46,0,0,0,9.81,0L385,583.75c3.75-4.35,3.43-9.43-.73-13.42L378.66,565A11.67,11.67,0,0,0,370.59,561.79Z"/><path class="cls-3" d="M353.18,567.28l2.45,7.5a3.44,3.44,0,0,0,3.26,2.37l7.9,0a3.43,3.43,0,0,1,2,6.2L362.42,588a3.43,3.43,0,0,0-1.24,3.83l2.43,7.51a3.43,3.43,0,0,1-5.28,3.84l-6.4-4.63a3.44,3.44,0,0,0-4,0l-6.4,4.63a3.43,3.43,0,0,1-5.28-3.84l2.43-7.51A3.44,3.44,0,0,0,337.4,588L331,583.37a3.43,3.43,0,0,1,2-6.2l7.9,0a3.43,3.43,0,0,0,3.25-2.37l2.46-7.5A3.43,3.43,0,0,1,353.18,567.28Z"/><path class="cls-1" d="M308.94,36.29c32.69.73,58.25,10.31,78.24,30.83,2.43,2.48,4.38,2.61,7.09.37,31.32-25.93,81-17.57,99.78,19.28,1.45,2.86,3.25,4.07,6.82,4.34,33.25,2.57,54.64,23.11,60.41,49.43,5.54,25.28.73,45.37-21.84,60.75A90,90,0,0,1,528,207.4c-2.26,1.1-3.21,2.49-3,4.8,3.77,33.24-23.42,64.07-60.37,68.57a78.32,78.32,0,0,1-44.42-7.17c-3.54-1.7-4.83-1.39-7.31,1.43-16.36,18.59-37.23,31.54-61.89,36.05-30.42,5.57-72.45-1.76-91.22-28.82-4.73-6.83-4.88-12.53-13.73-11.08-6.9,1.14-13.52,2.1-20.56,1.65-13.69-.88-26.89-5.72-38.43-13.06-22.05-14-39.34-37.34-45-63C132.23,152,165.77,111,212.64,104.44c2.49-.35,3.88-1.37,4.53-3.67C227,66,252.86,46.25,291.05,38.33,297.69,37,304.64,36.76,308.94,36.29Z"/><path class="cls-28" d="M354.56,183s-9.84-7-18.81-13.07a29.56,29.56,0,0,1-11.68-17.56c-1.87-7.65-3.51-16.7-1.81-20"/><path class="cls-7" d="M312.42,111.11a2,2,0,0,1,4-.21l.36,6.81a8.74,8.74,0,0,1,1.6-.68l-.44-8.16a2,2,0,0,1,4-.21l.44,8.16a7.42,7.42,0,0,1,1.5.44l-.37-7a2,2,0,0,1,4-.21l.63,11.69a5.93,5.93,0,0,1,.2,1.13l.64-2.28a2,2,0,0,1,2.41-1.32h0a1.77,1.77,0,0,1,1.43,2.16l-3.39,12.17a1.85,1.85,0,0,1-.89,1.09,7.6,7.6,0,0,1-6.88,4.92c-4.16.22-7.73-2.67-7.94-6.42l-.5-9.26a1.33,1.33,0,0,0,0-.2s0-.06,0-.09Z"/><path class="cls-2" d="M336.79,195.12c0-35.81,17.79-70.56,40.81-95.35C437,35.83,503,128.14,503,198.08c0,51.62-40.87,61.53-81.76,61.53S336.79,246.74,336.79,195.12Z"/><path class="cls-29" d="M306,186.79c-9,30.38-34.33,17-34.33,17"/><path class="cls-2" d="M255.18,115l-10.76-.3a35.63,35.63,0,0,0-36.63,34.61l-.07,2.5c-.27,2.49-.43,5-.5,7.42l-1.87,66.08A35.63,35.63,0,0,0,240,262l10.75.31a35.64,35.64,0,0,0,36.64-34.62l.07-2.49c.27-2.49.42-5,.49-7.42l1.87-66.09A35.64,35.64,0,0,0,255.18,115Z"/><path class="cls-27" d="M252.16,175.84a2.84,2.84,0,0,1-1.5-5.28c1.79-1.11,2.8-2.36,6.25-2.19a18.75,18.75,0,0,1,8.64,2.67,2.85,2.85,0,0,1-1.91,5.11l-2.33-.84a10.84,10.84,0,0,0-6.71-.19Z"/><path class="cls-30" d="M236.47,144s5.17,2.85,11.1,6.28"/><path class="cls-30" d="M281.53,144.64l-11,5.6"/><path class="cls-31" d="M252.67,155.3a16.27,16.27,0,1,1-15.83-16.69A16.27,16.27,0,0,1,252.67,155.3Z"/><path class="cls-31" d="M296.28,156.46a16.27,16.27,0,1,1-15.83-16.7A16.27,16.27,0,0,1,296.28,156.46Z"/><path class="cls-31" d="M252.69,153.36s5.5-7.2,10.59.28"/><path class="cls-26" d="M266.5,160c.05-4.91,4.34-8.85,9.58-8.79s9.45,4.09,9.4,9"/><path class="cls-26" d="M229.78,159.44c.05-4.91,4.37-8.85,9.64-8.79s9.49,4.09,9.44,9"/><path class="cls-26" d="M382.17,130c0-5.62-4.86-10.18-10.86-10.18s-10.86,4.56-10.86,10.18"/><path class="cls-27" d="M373.94,130a4.73,4.73,0,0,0-9.45,0"/><path class="cls-26" d="M396,130c0-5.62,4.89-10.18,10.92-10.18s10.92,4.56,10.92,10.18"/><path class="cls-27" d="M407.55,130a4.73,4.73,0,0,0-9.45,0"/><path class="cls-27" d="M395.38,149.2a3.49,3.49,0,0,0,3.2-5.37,15.88,15.88,0,0,0-12.6-7.74c-6.07-.44-9.6,1.8-11.64,4.22a3.5,3.5,0,0,0,2.44,5.73l4.31-.64a15.77,15.77,0,0,1,9,1.32Z"/><path class="cls-27" d="M241.77,150.54a5.33,5.33,0,0,0,6.94,7.39A9.15,9.15,0,0,0,241.77,150.54Z"/><path class="cls-27" d="M278.39,151.64a5.33,5.33,0,0,0,6.94,7.39A9.13,9.13,0,0,0,278.39,151.64Z"/><path class="cls-32" d="M468.46,127.93s3.74,38.76-32,51.47"/><path class="cls-29" d="M188.05,182.67c4.46,25.65,29,25.09,29,25.09"/><path class="cls-7" d="M180.26,169.6a1.27,1.27,0,0,1,2.47-.48l.82,4.24a5.23,5.23,0,0,1,.94-.57l-1-5.08a1.26,1.26,0,0,1,2.46-.47l1,5.08a4.54,4.54,0,0,1,1,.14l-.85-4.37a1.26,1.26,0,0,1,2.47-.47l1.41,7.27a4,4,0,0,1,.23.69l.2-1.48a1.29,1.29,0,0,1,1.39-1h0a1.12,1.12,0,0,1,1.09,1.23l-1.07,7.93a1.17,1.17,0,0,1-.46.76,4.8,4.8,0,0,1-3.89,3.68,4.59,4.59,0,0,1-5.54-3.33l-1.11-5.77s0-.08,0-.12a.14.14,0,0,1,0-.06Z"/><path class="cls-7" d="M315.86,175.51a1.26,1.26,0,0,0-2.32-1l-1.65,4a4.78,4.78,0,0,0-.81-.74l2-4.78a1.26,1.26,0,0,0-2.32-1l-2,4.79a5.6,5.6,0,0,0-1-.06l1.69-4.11a1.26,1.26,0,0,0-2.32-1l-2.82,6.85a3.55,3.55,0,0,0-.36.63l.09-1.49a1.3,1.3,0,0,0-1.16-1.3h0a1.12,1.12,0,0,0-1.31,1l-.52,8a1.19,1.19,0,0,0,.3.84,4.83,4.83,0,0,0,3.09,4.37,4.6,4.6,0,0,0,6.09-2.17l2.23-5.43a.56.56,0,0,0,0-.12l0,0Z"/><path class="cls-7" d="M479.1,110.48a2,2,0,0,0-4-.4l-.68,6.79a7.82,7.82,0,0,0-1.57-.75l.82-8.13a2,2,0,0,0-3.94-.4l-.83,8.13a7.82,7.82,0,0,0-1.52.36l.71-7a2,2,0,0,0-3.94-.4L463,120.34a5.36,5.36,0,0,0-.26,1.12l-.53-2.31a2,2,0,0,0-2.34-1.43h0a1.77,1.77,0,0,0-1.54,2.09l2.82,12.32a1.83,1.83,0,0,0,.83,1.13,7.6,7.6,0,0,0,6.64,5.24c4.15.42,7.86-2.3,8.23-6l.94-9.23c0-.06,0-.13,0-.19s0-.07,0-.1Z"/><path class="cls-2" d="M397.16,290.29a120.59,120.59,0,0,0,14.39-13.87A13.15,13.15,0,0,1,413,275l1.76-18.8-21.65-2.61Z"/><path class="cls-2" d="M424.63,275.21a78.14,78.14,0,0,0,18.46,5.58l2.38-27.89-22.89,1.34Z"/><path class="cls-2" d="M247.8,271.17c6.48-.06,7,5.15,11.3,11.28l.44.6,3.89-33.72-17.6,5.85Z"/><path class="cls-2" d="M228.65,273.12A86.56,86.56,0,0,0,241.21,272l1.66-16.09-16.35-.15Z"/><path class="cls-27" d="M362.08,124.22,355.42,120l5.48,6.5c-.13.3-.23.59-.34.88l-6.06-1.81,5.49,3.67a14.35,14.35,0,0,0-.28,1.43c5.11-11.13,11.84-10.77,13.77-10.69C367.37,119.21,364,121.15,362.08,124.22Z"/><path class="cls-27" d="M415.74,124l6.47-4.54L417,126.19c.14.3.26.58.38.86l6-2.07-5.33,3.91a14.41,14.41,0,0,1,.35,1.42c-5.6-10.9-12.31-10.25-14.23-10.08C410.24,119.22,413.67,121,415.74,124Z"/><path class="cls-33" d="M411.07,114.47S408,103,395.86,121.59"/><path class="cls-33" d="M382.25,121.87s-9.59-16.5-14.64-7"/></g></svg>