<svg xmlns="http://www.w3.org/2000/svg" viewBox="0 0 853.89 767.14"><defs><style>.cls-1{fill:#00a1cd;}.cls-12,.cls-2{fill:none;stroke-linecap:round;stroke-miterlimit:10;}.cls-2{stroke:#0f8ab2;stroke-width:18.34px;}.cls-3{fill:#c9e1ef;}.cls-4{fill:#cae1f0;}.cls-5{fill:#27a6d1;}.cls-6{fill:#ed1651;}.cls-7{fill:#504b48;}.cls-8{fill:#a2cced;}.cls-9{fill:#fff;}.cls-10{fill:#0d4061;}.cls-11{fill:#0a4467;}.cls-12{stroke:#0d4060;stroke-width:7.34px;}</style></defs><g id="Layer_1" data-name="Layer 1"><path class="cls-1" d="M181.52,403.44C182.79,292.88,237,186.17,306.44,110.37c179-195.41,372.61,91.91,370.13,307.9-1.83,159.41-124,196.66-245.8,195.27S179.69,562.86,181.52,403.44Z"/><path class="cls-2" d="M256.87,220s-93.76,49.28-103.35,103c-5.18,29.05,31.14,56.94,38.31,69.38"/><path class="cls-3" d="M55.64,183.45a28.72,28.72,0,0,1-2.61-15c.42-3.76.42-7.61,2-11.17,5.77-13,15.64-20.41,29.77-22.08,7.66-.91,14.55,1.28,20.88,5.47,1.54,1,3.09,2,4.63,3,2.15,3.09,4.6,6,6.34,9.35l.17.3a1.27,1.27,0,0,0,1.8.41c.92-.4.64-1.08.3-1.69a26.54,26.54,0,0,0-2.46-4.12c-1.24-1.5-1-2.84-.14-4.3,1.78-.08,3.19-1.19,4.77-1.81,8.2-3.22,15.45-1.61,22,4a27.4,27.4,0,0,1,9.62,16.52c.53,2.92-.09,5.69-.53,8.51-2.8-1.35-5.06-3.52-7.68-5.14a19.33,19.33,0,0,0-2.07-1.18.94.94,0,0,0-1.18.43,1,1,0,0,0,0,1.27,6.94,6.94,0,0,0,1.3,1.11c3.24,2.33,6.51,4.65,9.76,7,.43.31.8.35,1.15-.09.83,2.09,2.62,3.11,4.49,4a81.62,81.62,0,0,0,16.24,5.45A179.42,179.42,0,0,0,202.8,188c4.45.31,8.93.38,13.37.92,3,.36,3,.37,2.73,3.39-.08.92-.19,1.83-.31,2.75-.37,3-.87,3.49-3.93,3.39-16.8-.5-33.32,2.07-49.85,4.52-3.68.55-7.37,1.15-11.05,1.74-.67.1-1.4.09-1.86.73a7.37,7.37,0,0,0-3.73.06c-3.74.61-7.48,1.15-11.22,1.73-.79.12-1.58.3-2.36.45a1,1,0,0,0-.89.9,1,1,0,0,0,1,1.16,7.41,7.41,0,0,0,2,0q6.3-.94,12.57-2a3.5,3.5,0,0,0,2.48-1c3.95,2.48,5.81,6.36,7.2,10.6,4.35,13.28-4.54,26.4-17,29a22.32,22.32,0,0,1-17.37-3.57c-1.72-1.14-2.64-.75-3.81.47-8.65,9-19.24,12.24-31.38,10.1-9.24-1.64-15.29-7.37-18.75-16-1.74-4.34-2.11-8.89-2.28-13.49,2.5.32,5,.65,7.5.94a7.27,7.27,0,0,0,2-.07,1,1,0,0,0,.61-.72,1.26,1.26,0,0,0-.4-.88c-.54-.53-1.27-.4-2-.44A33.88,33.88,0,0,1,67.45,221c-7.2-.49-13.83-7.85-15.28-14-1.3-5.46-.84-10.63,2.41-15.39a17.64,17.64,0,0,0,1.09-2.12c1.28,0,2,1,2.86,1.73,1.36,1.17,2.51,2.68,4.4,3.15.54-2.06.59-2.12-.68-3.17C59.59,189,57.08,186.7,55.64,183.45ZM111.69,199a37.16,37.16,0,0,1,8.58,3.24c6.34,3.7,8.76,8.77,7.38,15.94-.24,1.24-.73,2.42-1.09,3.63-.23.77-.61,1.67.41,2.1s1.3-.55,1.61-1.26c4.09-9.27,1.3-17.18-6.66-22.09-.91-.56-2.14-.79-2.58-2a11,11,0,0,1,.86-.8c7.29-5.4,10.39-13,11.21-21.71a13.23,13.23,0,0,0-8.55-14c-.77-.27-1.62-.66-2,.45-.28.77.23,1.3.9,1.63.52.26,1.07.44,1.57.72a11,11,0,0,1,5.87,9.16,20.21,20.21,0,0,1-1.17,8.14c-2.53,7.94-6.66,14.47-15.7,16.16C112.23,198.34,112.17,198.48,111.69,199ZM196,190.35c-4.51.26-8.87-.3-13.24-.47-13.1-.48-26.21-.85-39.33-.68a63.61,63.61,0,0,0-11.69.81c-.71.15-1.36.46-1.21,1.35s.83.91,1.58.81a123.27,123.27,0,0,1,15.49-.8c11.4-.16,22.78.27,34.16.65,4.6.16,9.2.43,13.8.65.84,0,1.7,0,1.71-1.15C197.27,190.64,196.62,190.39,196,190.35Z"/><path class="cls-4" d="M804.18,195.36a2.6,2.6,0,0,1,1.3,1.06c4.6,6.6,4.21,19.37-3.32,25-3.1,2.3-6,4.49-10,4.63a37.7,37.7,0,0,1-7.76,1.31c-1.23.15-3.63-1-3.48,1.29.11,1.6,2.38,1.12,3.8,1.18,2,.09,3.75-1.09,5.74-.72-.06,9.75-3.47,17.91-11.25,24.09a20.59,20.59,0,0,1-9.78,4c-9.72,1.53-18.72-.21-26.63-6.5a37.9,37.9,0,0,1-5.54-5.11c-1.18-1.4-2.08-1.38-3.49-.51a21.76,21.76,0,0,1-11.05,3.48c-6.79.19-12.25-2.44-17.26-7.05-6.8-6.27-8.07-18.95-3.25-27.15a17.55,17.55,0,0,1,5.31-5.81c.79.13,1.58.23,2.37.39l14.55,2.89c.67.14,1.42.38,1.65-.6s-.27-1.5-1.22-1.67c-.57-.1-1.12-.3-1.68-.42l-15.89-3.22c-9.79-1.94-19.57-3.94-29.37-5.8S658,197,648,195.91a10,10,0,0,0-1.73,0c-3.85.29-3.67.16-3.89-3.7-.32-5.57-1-5.3,4.58-5.29a236.2,236.2,0,0,0,26.88-1.22c9.32-1,18.64-2.37,27.51-5.76a21.94,21.94,0,0,0,7.9-4.77c2.26-1.36,4.54-2.7,6.79-4.09,1.37-.84,2.7-1.75,4-2.64.58-.39,1.23-.82.79-1.65s-1.29-.79-2.07-.37c-.6.34-1.19.7-1.77,1.07-2.62,1.67-5.22,3.36-7.83,5-1.48-9.43,2-17.06,8.63-23.5a2,2,0,0,1,.56-.4c1.21-.54.2-2.58,1.53-2.71,4.68-.47,8.46-4.23,13.44-3.52,3.86.56,7.7,1.08,11.1,3.23a40.81,40.81,0,0,0,3.68,1.85,10.86,10.86,0,0,1-1.81,3.28c-.94,1.3-1.84,2.64-2.67,4-.37.6-.55,1.39.22,1.82a1.41,1.41,0,0,0,1.83-.48c.36-.45.66-.94,1-1.41,1.79-2.52,3.28-5.28,5.81-7.21.33-.25.25-.59-.05-.87,3.12-1.36,5.88-3.39,9.06-4.71,11.35-4.73,22-3.19,32,3.43,10.41,6.86,15.26,16.91,15.41,29.14.07,5.73-1.13,11.39-4.69,16.22a5.65,5.65,0,0,1-2.26,2.9c-1.33,1.07-2.6,2.23-4,3.23-1,.7-1.63,1.53-.79,2.51s1.67-.09,2.37-.51C801.22,197.85,802.42,196.24,804.18,195.36Zm-63.32,5.82A6,6,0,0,1,738.3,203c-8.76,4.74-10.76,12.38-7.95,21.48a6.22,6.22,0,0,0,.48,1.29,1.13,1.13,0,0,0,1.46.54,1.05,1.05,0,0,0,.76-1.34c-.26-1-.61-2-.9-3a13.4,13.4,0,0,1,5.08-15.27,25.71,25.71,0,0,1,9.41-4.14c.7-.18,1.68.15,2-.86-.22-.55-.7-.57-1.13-.67-4.54-1-7.84-3.74-10.38-7.49A28.53,28.53,0,0,1,732.4,180c-.53-5.81,1.31-10.7,7.34-13l.65-.22a1.22,1.22,0,0,0,.76-1.67c-.25-.91-.91-.86-1.64-.64a12.6,12.6,0,0,0-8.21,6.87c-2.17,4.72-1.33,9.54-.31,14.25A25.93,25.93,0,0,0,740.86,201.18Zm-75.38-11.85v.06l-.69,0a1.33,1.33,0,0,0-1.44,1.54c0,1,.85.94,1.54.92,2.08-.05,4.15-.2,6.22-.16,9.77.18,19.53.37,29.29.66,9.3.28,18.62.33,27.82,2.07.95.18,2,.4,2.19-.87s-1-1.44-1.85-1.57c-2.27-.35-4.55-.7-6.83-.91-8.72-.79-17.45-1.14-26.2-1.25C685.51,189.67,675.5,189.48,665.48,189.33Z"/><path class="cls-5" d="M256.75,104.3a5.83,5.83,0,0,1-.48.8,1,1,0,0,1-1.53.19c-1.45-1.12-2.88-2.28-4.33-3.43Q240.54,94,230.68,86.19c-.55-.43-1.1-.85-1.6-1.32a1.19,1.19,0,0,1-.17-1.82c.47-.54,1-.37,1.55,0a17,17,0,0,1,1.38,1q11.64,9.22,23.25,18.47C255.69,103,256.49,103.35,256.75,104.3Z"/><path class="cls-5" d="M592.2,92.47c-1-.06-1.34-1.1-.63-2.32,2.42-4.17,4.87-8.32,7.31-12.48,1.39-2.37,2.76-4.76,4.18-7.12.44-.71.75-1.86,2-1,1,.69.39,1.45,0,2.08-1.63,2.9-3.33,5.77-5,8.64C598,83.85,596,87.42,593.84,91,593.46,91.59,593.25,92.53,592.2,92.47Z"/><path class="cls-5" d="M645.89,140.11l-9.26.49c-.35,0-.69,0-1,0-1,.07-1.56-.35-1.55-1.35s.82-.92,1.49-1c3.54-.22,7.09-.44,10.63-.64s7.09-.37,10.63-.54c.78,0,1.79-.22,1.88.91s-.75,1.48-1.81,1.52c-3.66.12-7.32.3-11,.45Z"/><path class="cls-5" d="M251.24,120.24c-4.62-1.07-9-2.07-13.34-3.09-2.57-.61-5.13-1.24-7.7-1.84-.84-.19-1.66-.46-1.41-1.52s1.08-.91,1.92-.71q10.23,2.44,20.45,4.84c.11,0,.22.06.33.09.69.15,1.45.31,1.33,1.23C252.68,120.34,251.81,120.3,251.24,120.24Z"/><path class="cls-5" d="M648.37,116.34c0,.6-.54.94-1,1.32q-6.81,6.33-13.64,12.64c-.6.56-1.18,1.19-2,.29s-.17-1.47.43-2c4.71-4.38,9.44-8.73,14.16-13.1.36-.33.72-.54,1.2-.24A1.57,1.57,0,0,1,648.37,116.34Z"/><path class="cls-5" d="M707.26,205.88l15.89,3.22c.56.12,1.11.32,1.68.42.95.17,1.46.67,1.22,1.67s-1,.74-1.65.6l-14.55-2.89c-.79-.16-1.58-.26-2.37-.39A5.47,5.47,0,0,1,707.26,205.88Z"/><path class="cls-5" d="M151.81,206.75a3.5,3.5,0,0,1-2.48,1q-6.27,1-12.57,2a7.41,7.41,0,0,1-2,0,1,1,0,0,1-1-1.16,1,1,0,0,1,.89-.9c.78-.15,1.57-.33,2.36-.45,3.74-.58,7.48-1.12,11.22-1.73a7.37,7.37,0,0,1,3.73-.06Z"/><path class="cls-5" d="M616.82,89.65a2.1,2.1,0,0,1-1,1.49c-3.08,2.55-6.2,5-9.28,7.61a1.27,1.27,0,0,1-2.05-.15c-.64-.75-.15-1.18.43-1.65q4.95-4,9.86-8c.51-.42,1-.55,1.5-.06A3.63,3.63,0,0,1,616.82,89.65Z"/><path class="cls-5" d="M116.32,143.63c-.82,1.46-1.1,2.8.14,4.3a26.54,26.54,0,0,1,2.46,4.12c.34.61.62,1.29-.3,1.69a1.27,1.27,0,0,1-1.8-.41l-.17-.3c-1.74-3.37-4.19-6.26-6.34-9.35A17.83,17.83,0,0,1,116.32,143.63Z"/><path class="cls-5" d="M153.52,174.17c-.35.44-.72.4-1.15.09-3.25-2.32-6.52-4.64-9.76-7a6.94,6.94,0,0,1-1.3-1.11,1,1,0,0,1,0-1.27.94.94,0,0,1,1.18-.43,19.33,19.33,0,0,1,2.07,1.18c2.62,1.62,4.88,3.79,7.68,5.14A8.21,8.21,0,0,1,153.52,174.17Z"/><path class="cls-5" d="M709.14,172.54c2.61-1.68,5.21-3.37,7.83-5,.58-.37,1.17-.73,1.77-1.07.78-.42,1.58-.56,2.07.37s-.21,1.26-.79,1.65c-1.33.89-2.66,1.8-4,2.64-2.25,1.39-4.53,2.73-6.79,4.09Z"/><path class="cls-5" d="M752.4,146.63c.3.28.38.62.05.87-2.53,1.93-4,4.69-5.81,7.21-.33.47-.63,1-1,1.41a1.41,1.41,0,0,1-1.83.48c-.77-.43-.59-1.22-.22-1.82.83-1.37,1.73-2.71,2.67-4a10.86,10.86,0,0,0,1.81-3.28Z"/><path class="cls-5" d="M55.64,183.45c1.44,3.25,4,5.56,6.61,7.77,1.27,1.05,1.22,1.11.68,3.17-1.89-.47-3-2-4.4-3.15-.87-.74-1.58-1.69-2.86-1.73C55.69,187.49,54.93,185.47,55.64,183.45Z"/><path class="cls-5" d="M790.42,229.06c-2-.37-3.79.81-5.74.72-1.42-.06-3.69.42-3.8-1.18-.15-2.3,2.25-1.14,3.48-1.29a37.7,37.7,0,0,0,7.76-1.31C791.67,227.09,791.53,228.34,790.42,229.06Z"/><path class="cls-5" d="M804.18,195.36c-1.76.88-3,2.49-4.61,3.48-.7.42-1.55,1.48-2.37.51s-.17-1.81.79-2.51c1.38-1,2.65-2.16,4-3.23a5.65,5.65,0,0,0,2.26-2.9c.12.81.25,1.62.37,2.43a.62.62,0,0,0-.29.84C804.27,194.44,804.22,194.9,804.18,195.36Z"/><path class="cls-5" d="M67.45,221a33.88,33.88,0,0,0,8.75,1.68c.68,0,1.41-.09,2,.44a1.26,1.26,0,0,1,.4.88,1,1,0,0,1-.61.72,7.27,7.27,0,0,1-2,.07c-2.5-.29-5-.62-7.5-.94C67.87,223,67.2,222.12,67.45,221Z"/><path class="cls-4" d="M804.31,194a.62.62,0,0,1,.29-.84A.76.76,0,0,1,804.31,194Z"/><path class="cls-5" d="M111.69,199c.48-.52.54-.66.63-.68,9-1.69,13.17-8.22,15.7-16.16a20.21,20.21,0,0,0,1.17-8.14,11,11,0,0,0-5.87-9.16c-.5-.28-1-.46-1.57-.72-.67-.33-1.18-.86-.9-1.63.39-1.11,1.24-.72,2-.45a13.23,13.23,0,0,1,8.55,14c-.82,8.68-3.92,16.31-11.21,21.71a11,11,0,0,0-.86.8c.44,1.22,1.67,1.45,2.58,2,8,4.91,10.75,12.82,6.66,22.09-.31.71-.49,1.73-1.61,1.26s-.64-1.33-.41-2.1c.36-1.21.85-2.39,1.09-3.63,1.38-7.17-1-12.24-7.38-15.94A37.16,37.16,0,0,0,111.69,199Z"/><path class="cls-5" d="M196,190.35c.62,0,1.27.29,1.27,1.17,0,1.14-.87,1.19-1.71,1.15-4.6-.22-9.2-.49-13.8-.65-11.38-.38-22.76-.81-34.16-.65a123.27,123.27,0,0,0-15.49.8c-.75.1-1.43.11-1.58-.81s.5-1.2,1.21-1.35a63.61,63.61,0,0,1,11.69-.81c13.12-.17,26.23.2,39.33.68C187.13,190.05,191.49,190.61,196,190.35Z"/><path class="cls-5" d="M740.86,201.18a25.93,25.93,0,0,1-9.87-15.6c-1-4.71-1.86-9.53.31-14.25a12.6,12.6,0,0,1,8.21-6.87c.73-.22,1.39-.27,1.64.64a1.22,1.22,0,0,1-.76,1.67l-.65.22c-6,2.33-7.87,7.22-7.34,13a28.53,28.53,0,0,0,4.74,13.55c2.54,3.75,5.84,6.49,10.38,7.49.43.1.91.12,1.13.67-.33,1-1.31.68-2,.86a25.71,25.71,0,0,0-9.41,4.14A13.4,13.4,0,0,0,732.15,222c.29,1,.64,2,.9,3a1.05,1.05,0,0,1-.76,1.34,1.13,1.13,0,0,1-1.46-.54,6.22,6.22,0,0,1-.48-1.29c-2.81-9.1-.81-16.74,7.95-21.48A6,6,0,0,0,740.86,201.18Z"/><path class="cls-5" d="M665.48,189.33c10,.15,20,.34,30,.47,8.75.11,17.48.46,26.2,1.25,2.28.21,4.56.56,6.83.91.89.13,2,.33,1.85,1.57s-1.24,1.05-2.19.87c-9.2-1.74-18.52-1.79-27.82-2.07-9.76-.29-19.52-.48-29.29-.66-2.07,0-4.14.11-6.22.16-.69,0-1.49,0-1.54-.92a1.33,1.33,0,0,1,1.44-1.54l.69,0Z"/><polyline class="cls-1" points="451.92 594.04 468.69 727.13 495.45 727.13 512.23 593.99"/><polyline class="cls-1" points="350.31 593.63 367.09 727.13 392.18 727.13 408.96 594.04"/><polygon class="cls-6" points="493.59 754.45 471.56 754.45 464.19 697.63 499.06 697.63 493.59 754.45"/><polygon class="cls-6" points="388.45 754.06 370.74 754.06 363.27 697.24 396.48 697.24 388.45 754.06"/><path class="cls-7" d="M320,754.89a33.8,33.8,0,0,1,67.6,0"/><path class="cls-7" d="M470.82,754.89a33.8,33.8,0,1,1,67.6,0"/><path class="cls-8" d="M221.09,219c-4.25,6.19-3.87,15.53,1.66,23.35,7.05,10,19.85,13.81,28.45,8.57L272.41,238c.15-.09.29-.2.43-.3a2.72,2.72,0,0,0,.25-.11l28.64-17.46c2.25-1.38,2.58-4.63.74-7.23s-5.19-3.61-7.44-2.24l-15.59,9.51a24,24,0,0,0-1.42-4.72l18.69-11.4c2.25-1.37,2.58-4.62.74-7.23s-5.19-3.61-7.44-2.24L271.32,206a27,27,0,0,0-3.67-2.8l16.06-9.79c2.25-1.38,2.58-4.63.74-7.23s-5.19-3.61-7.44-2.24l-26.77,16.32a16.1,16.1,0,0,0-2.86,1.25l3.85-4.93c1.61-2.07,1-5.48-1.46-7.57h0c-2.42-2.09-5.72-2.11-7.33,0"/><path class="cls-2" d="M614.84,221.18s82.54,54.15,88.2,108.44c3.05,29.35-28.81,56.26-36.87,68.14"/><path class="cls-8" d="M650.6,222.79c3.79,6.48,2.73,15.77-3.36,23.17-7.75,9.41-20.8,12.33-29,6.47L598,238c-.15-.11-.27-.23-.41-.33s-.16-.08-.23-.13L570.09,218c-2.14-1.53-2.24-4.79-.21-7.26s5.44-3.22,7.58-1.69l14.86,10.62a23.45,23.45,0,0,1,1.76-4.61l-17.82-12.73c-2.14-1.53-2.23-4.79-.21-7.26s5.44-3.22,7.59-1.69l17.81,12.73a26.43,26.43,0,0,1,3.87-2.52L590,192.67c-2.15-1.53-2.24-4.8-.21-7.26s5.43-3.23,7.58-1.7l25.51,18.23a16.14,16.14,0,0,1,2.76,1.45l-3.48-5.2c-1.46-2.18-.55-5.53,2-7.44h0c2.56-1.91,5.86-1.68,7.31.5"/><path class="cls-9" d="M420.73,213.67a30.35,30.35,0,1,1-60.69-.26"/><path class="cls-10" d="M403.51,213.6a13.13,13.13,0,0,1-26.25-.11"/><path class="cls-9" d="M511.34,213.67a30.35,30.35,0,1,1-60.69-.26"/><path class="cls-10" d="M494.13,213.6a13.13,13.13,0,0,1-26.26-.11"/><path class="cls-11" d="M401.81,274a63,63,0,0,1,12.35,2.51c4.23,1.15,8.45,2.33,12.76,3.21a48.9,48.9,0,0,0,23.46-1.11,117.31,117.31,0,0,1,19.45-4.28,29.11,29.11,0,0,1,21.52,5.79,60.66,60.66,0,0,1,4.87,4.48c.74.7,1.49,1.54.23,2.35-1.06.69-2.07,2-3.61.82a32.36,32.36,0,0,1-2.43-2.25c-6.16-6-13.76-7.63-22.21-6.36a99.73,99.73,0,0,0-15.74,3.71,53.33,53.33,0,0,1-29.76.72c-5-1.25-9.93-2.67-14.91-3.94-9.1-2.31-16.7-.14-22.46,7-1.15,1.43-2,1.8-3.69.69-1.48-1-1.77-1.77-.64-3.12C386.17,278,392.65,274.16,401.81,274Z"/><path class="cls-12" d="M370.27,179.42s19.59,19.35,38.59-1.7"/><path class="cls-12" d="M459.25,176s15.89,21.82,38.35,4.51"/><path class="cls-1" d="M186.27,349.39s-7.31,44.69-4.77,69.33,53.13,0,53.13,0Z"/><path class="cls-1" d="M670.44,347.38s7.32,44.69,4.77,69.33-53.13,0-53.13,0Z"/></g></svg>