<svg id="Layer_1" data-name="Layer 1" xmlns="http://www.w3.org/2000/svg" viewBox="0 0 303.52 248.56"><defs><style>.cls-1,.cls-10,.cls-12,.cls-14,.cls-6,.cls-7,.cls-9{fill:none;stroke-linecap:round;stroke-miterlimit:10;}.cls-1,.cls-12,.cls-6{stroke:#0f8ab2;}.cls-1{stroke-width:4.5px;}.cls-2{fill:#a2cced;}.cls-3{fill:#00a1cd;}.cls-4{fill:#56c5d0;}.cls-5{fill:#504b48;}.cls-6{stroke-width:3.5px;}.cls-14,.cls-7,.cls-9{stroke:#0d4060;}.cls-8{fill:#0d4060;}.cls-9{stroke-width:1.31px;}.cls-10{stroke:#231f20;stroke-width:0.95px;}.cls-11{fill:#fff;}.cls-12{stroke-width:3px;}.cls-13{fill:#5652a3;}.cls-14{stroke-width:2px;}</style></defs><path class="cls-1" d="M148,113.17s-16.81,5.7-36.45-27.13"/><path class="cls-2" d="M122.51,88.86c.86,3.39-1.93,7.31-6.19,8.72-3.36,1.11-6.66.34-8.33-1.68l-8.09-10a1.77,1.77,0,0,1,.84-2.46c1-.61,1.76-.47,2.3.27l2.36,2.71c-.07-.35-.68-1.7-.68-2.06L101.3,74.07a2.12,2.12,0,0,1,1.62-2.28,1.79,1.79,0,0,1,2.43.94l2.36,6c.42-.35.39-.56.89-.85L106,70.6a2.12,2.12,0,0,1,1.62-2.28,1.79,1.79,0,0,1,2.44.94l2.63,7.31a3.05,3.05,0,0,1,1,.07l-1.5-5.17a2.11,2.11,0,0,1,1.61-2.28c1.12-.37,2,.31,2.59,1.76l3.4,9.32"/><polyline class="cls-3" points="48.92 188.98 54.38 233.3 59.83 233.3 65.57 183.44"/><polygon class="cls-4" points="59.45 238.91 54.3 238.91 52.23 214.54 62.19 214.54 59.45 238.91"/><path class="cls-5" d="M54.38,239.6a8,8,0,1,1,16.05,0"/><polyline class="cls-3" points="28.01 188.84 33.47 233.3 38.92 233.3 43.48 188.98"/><polygon class="cls-4" points="38.91 238.91 33.77 238.91 31.01 214.54 40.97 214.54 38.91 238.91"/><path class="cls-5" d="M33.38,239.6a8,8,0,0,1,16.06,0"/><path class="cls-6" d="M105.53,101.26s-1.79,20.52-26.5,36.11"/><path class="cls-2" d="M100.07,100.92c0,2.41,2.54,4.55,5.62,4.76a5.28,5.28,0,0,0,5.27-2.54l3.67-8.09c.24-.58-.2-1.25-1-1.49s-1.25,0-1.48.57l-1.11,2.21c0-.25.16-1.24.1-1.49l.53-7.42a1.47,1.47,0,0,0-1.47-1.24c-.81,0-1.47.42-1.47,1l-.53,4.43c-.35-.17-.37-.37-.75-.47l.5-5.33a1.47,1.47,0,0,0-1.47-1.25c-.81,0-1.46.42-1.46,1L104.53,91a4.32,4.32,0,0,0-1,.26l.29-3.71a1.31,1.31,0,0,0-1.3-1.28,1.23,1.23,0,0,0-1.46,1l-.63,7.43"/><path class="cls-7" d="M87.16,63.52l7.57,6.11"/><path class="cls-7" d="M85,72.74l8,1"/><path class="cls-7" d="M95.49,59.43c1.15,3,1.71,4.49,2.86,7.53"/><path class="cls-3" d="M58.43,76.13l-8.9-.7a29.55,29.55,0,0,0-31.78,27.15l-.16,2.06c-.33,2.06-.56,4.11-.72,6.13l-4.29,54.66a29.56,29.56,0,0,0,27.15,31.79l8.9.7a29.57,29.57,0,0,0,31.78-27.16l.16-2.06c.33-2,.56-4.11.72-6.13l4.29-54.66A29.54,29.54,0,0,0,58.43,76.13Z"/><path class="cls-8" d="M68,123.24s-1.63,3.71-8.22,3.09-6.84-4.25-6.84-4.25Z"/><path class="cls-9" d="M39.31,102.81s2.62-4.42,7.4-1.33"/><path class="cls-9" d="M82.75,106.15s-1.29-4.82-6.48-2.49"/><path class="cls-10" d="M56.47,110A13.49,13.49,0,1,1,44.05,95.54,13.5,13.5,0,0,1,56.47,110Z"/><path class="cls-10" d="M92.54,112.8A13.49,13.49,0,1,1,80.12,98.31,13.49,13.49,0,0,1,92.54,112.8Z"/><path class="cls-10" d="M56.57,108.42s4.85-5.74,8.76.67"/><path class="cls-11" d="M67.73,114.47a7.89,7.89,0,0,1,15.71,1"/><path class="cls-11" d="M37.33,112.5a7.67,7.67,0,0,1,8.35-6.88,7.66,7.66,0,0,1,7.45,7.85"/><path class="cls-8" d="M38.37,108.82l-4.13-1.94,3.57,3.18c-.06.17-.1.32-.15.48L34,109.86l3.42,1.69a6.1,6.1,0,0,0-.09.76c2.34-6.1,6.32-6.68,7.45-6.72-3.61-.12-5.48,1.53-6.43,3.23"/><path class="cls-8" d="M87.05,113.2l-3.69.24c0-.16,0-.32-.09-.5l3.93-2.72-4.33,1.42c-.74-1.8-2.4-3.66-6-4,1.12.17,5,1.24,6.57,7.58a6,6,0,0,0,0-.77Z"/><path class="cls-8" d="M47.64,105.63A4.42,4.42,0,0,0,53.08,112,7.59,7.59,0,0,0,47.64,105.63Z"/><path class="cls-8" d="M77.93,108.06a4.42,4.42,0,0,0,5.44,6.41A7.58,7.58,0,0,0,77.93,108.06Z"/><path class="cls-12" d="M26.26,179.71S19.64,166,24.8,144"/><path class="cls-2" d="M21.37,182.07c-.05-2.3,2.32-4.42,5.28-4.7a5.08,5.08,0,0,1,5.11,2.32l3.72,7.66c.24.56-.17,1.21-.9,1.46s-1.2,0-1.44-.51L32,186.2a13.81,13.81,0,0,1,.13,1.43l.69,7.1A1.4,1.4,0,0,1,31.46,196c-.77.07-1.42-.36-1.43-1l-.62-4.23c-.33.17-.35.36-.71.47l.61,5.11a1.4,1.4,0,0,1-1.38,1.22,1.18,1.18,0,0,1-1.43-1l-.61-5.1a4.56,4.56,0,0,1-1-.23l.37,3.56a1.25,1.25,0,0,1-1.21,1.25c-.78.07-1.42-.36-1.43-1L21.84,188"/><path class="cls-3" d="M137.18,133.17c-4.11-35.61,8.95-72.14,28.18-99.36C214.94-36.35,288.94,48.12,297,117.68c5.93,51.33-31.83,68.31-71.06,72.85S143.12,184.5,137.18,133.17Z"/><polyline class="cls-3" points="241.72 187.21 235.25 238.21 229.07 238.21 220.48 187.21"/><polyline class="cls-3" points="208.32 184.97 200.16 238.21 193.98 238.21 184.95 177.39"/><polygon class="cls-13" points="228.28 238.21 225.94 221.17 237.56 221.17 235.54 238.97 228.28 238.21"/><polygon class="cls-13" points="193.39 238.44 191.47 221.17 202.83 221.17 200.36 238.91 193.39 238.44"/><path class="cls-5" d="M214.8,239.22a10.38,10.38,0,0,1,20.75,0"/><path class="cls-5" d="M200.51,239.22a10.38,10.38,0,0,0-20.75,0"/><path class="cls-14" d="M209.42,44.9s-5.06-7.46-13.08-1.54"/><path class="cls-14" d="M158.12,52.66s1.93-8.8,11.57-6.29"/><path class="cls-11" d="M182.76,65.45C182,60,176.66,56.2,170.83,57s-10,5.9-9.19,11.37"/><path class="cls-8" d="M174.75,66.55a4.63,4.63,0,1,0-9.18,1.27"/><path class="cls-11" d="M192.93,64c-.76-5.47,3.38-10.56,9.25-11.37s11.23,3,12,8.43"/><path class="cls-8" d="M204.18,62.48A4.64,4.64,0,0,0,195,63.75"/><path class="cls-8" d="M174.2,74.83S176,87.55,190.42,85.54c12-1.67,11.21-14.5,11.21-14.5Z"/><path class="cls-8" d="M212.56,56.43,218,53.34l-4.54,4.73c.09.22.17.43.25.64l4.9-1.32-4.49,2.68a10,10,0,0,1,.2,1c-3.84-8.1-9.34-8.48-10.89-8.42,4.91-.54,7.64,1.52,9.13,3.75"/><path class="cls-8" d="M156.22,66,161.3,66c0-.23,0-.45.07-.69L155.71,62l6.08,1.49c.82-2.55,2.89-5.27,7.77-6.09-1.51.36-6.7,2.23-8.2,11.07,0,0-.06-.41-.09-1.06Z"/><path class="cls-1" d="M259.48,119s5,29.84-44.42,38.42"/><path class="cls-2" d="M219.05,163.8c3.09-1.63,4.15-6.33,2.34-10.44-1.42-3.23-4.19-5.17-6.82-5.07L201.7,149c-.92.09-1.48,1.11-1.27,2.26s.82,1.63,1.74,1.53l3.59,0a18.53,18.53,0,0,0-2,.87l-9.91,4.31a2.12,2.12,0,0,0-.62,2.73,1.8,1.8,0,0,0,2.33,1.18l6.06-2.29c0,.56-.15.67,0,1.24l-7.2,2.94a2.12,2.12,0,0,0-.62,2.73,1.8,1.8,0,0,0,2.33,1.18l7.2-2.94c.37.5.33.34.76.74l-4.86,2.34a2.12,2.12,0,0,0-.61,2.73c.47,1.07,1.57,1.28,3,.74l9.2-3.7"/></svg>