<svg id="Layer_1" data-name="Layer 1" xmlns="http://www.w3.org/2000/svg" viewBox="0 0 278.57 262.4"><defs><style>.cls-1,.cls-2,.cls-7{fill:none;stroke-miterlimit:10;}.cls-1{stroke:#ffcb05;stroke-width:5.75px;}.cls-2{stroke:#0f8ab2;stroke-width:4.81px;}.cls-2,.cls-7{stroke-linecap:round;}.cls-3{fill:#a2cced;}.cls-4{fill:#00a1cd;}.cls-5{fill:#ed1651;}.cls-6{fill:#504b48;}.cls-7{stroke:#0d4060;stroke-width:1.92px;}.cls-8{fill:#0d4060;}.cls-9{fill:#fff;}</style></defs><line class="cls-1" x1="65.81" y1="48.13" x2="74.51" y2="55.84"/><polyline class="cls-1" points="80.48 49.11 75.44 44.65 69.47 51.38"/><path class="cls-2" d="M68.25,127.1s-21.07-.56-26.39-38.47"/><path class="cls-3" d="M48.67,75.61a2,2,0,0,0-2.14,1.55l-.19,2a4.53,4.53,0,0,0-.43-.92l-2.53-8.45a15.76,15.76,0,0,1-3,4.07l.4,1.34a9.12,9.12,0,0,0-1.58-.11l0-.13a15.91,15.91,0,0,1-9,3.56l1.19,4a.19.19,0,0,0,0,.08c0,.06,0,.12,0,.17l2.33,7.77c.94,3.15,5.09,5,9.21,4,3.24-.73,5.53-2.94,5.9-5.38l1.67-12C50.61,76.33,49.78,75.62,48.67,75.61Z"/><ellipse class="cls-1" cx="24.47" cy="90.64" rx="8.06" ry="11.91" transform="translate(-59.6 48.85) rotate(-48.46)"/><line class="cls-1" x1="30.09" y1="84.3" x2="73.12" y2="35.73"/><line class="cls-1" x1="19.16" y1="98.28" x2="15.51" y2="103.05"/><polyline class="cls-4" points="163.83 243.11 171.42 193.01 149.5 193.01 157.15 244.56 162.99 240.86"/><polyline class="cls-4" points="125.6 240.46 116.06 194.44 139.83 194.44 131.29 243.11 123.13 240.46"/><polygon class="cls-5" points="122.96 227.06 134.43 227.06 131.62 243.52 124.64 243.52 122.96 227.06"/><polygon class="cls-5" points="154.34 227.72 165.81 227.72 164.11 244.18 157.13 244.18 154.34 227.72"/><path class="cls-6" d="M111.6,244.56a11.74,11.74,0,1,1,23.47,0"/><path class="cls-6" d="M155.16,244.56a11.73,11.73,0,1,1,23.46,0"/><path class="cls-2" d="M215.76,131.43s21.07-.56,26.39-38.47"/><path class="cls-3" d="M235.13,93.53c.38,2.44,2.67,4.66,5.91,5.38,4.12.93,8.26-.89,9.21-4l2.33-7.77a.94.94,0,0,1,0-.16l0-.08,3.15-10.49c.24-.82-.44-1.7-1.52-1.94a2,2,0,0,0-2.4,1.06l-1.72,5.71a7.75,7.75,0,0,0-1.46-.85l2.05-6.85c.25-.82-.43-1.69-1.51-1.94a2,2,0,0,0-2.41,1.06l-2.05,6.85a9.31,9.31,0,0,0-1.59.1L245,73.69c.24-.82-.44-1.7-1.52-1.94a2,2,0,0,0-2.4,1.06l-2.94,9.8a4.53,4.53,0,0,0-.43.92l-.19-2A2,2,0,0,0,235.33,80h0c-1.1,0-1.94.71-1.86,1.57"/><path class="cls-4" d="M64.09,134.64c0-34,16.9-67,38.77-90.62,56.41-60.76,119.21,27,119.21,93.43,0,49.06-38.84,61-77.7,61S64.09,183.7,64.09,134.64Z"/><path class="cls-7" d="M120.2,75.56s3.69-7.47,11.79-3.07"/><path class="cls-7" d="M167.56,75.56s-2.7-7.62-10.8-3.21"/><path class="cls-8" d="M157.32,97.91s-2.28,7.33-13.51,7.1-12.11-7.1-12.11-7.1Z"/><path class="cls-9" d="M149.32,88.87c0-5.1,4.42-9.24,9.86-9.24s9.87,4.14,9.87,9.24"/><path class="cls-8" d="M155,88.87a4.29,4.29,0,1,1,8.58,0"/><path class="cls-9" d="M120,88.87c0-5.1,4.44-9.24,9.92-9.24s9.91,4.14,9.91,9.24"/><path class="cls-8" d="M125.62,88.87a4.29,4.29,0,0,1,8.58,0"/><path class="cls-8" d="M120.84,84.51l-5.12-2.26,4.54,4c-.06.22-.1.44-.14.65l-4.45-.61,4.25,2c0,.63,0,1,0,1,2.37-8.36,7.14-9.47,8.5-9.62A7.89,7.89,0,0,0,120.84,84.51Z"/><path class="cls-8" d="M128.38,79.65l.39,0Z"/><path class="cls-8" d="M173.51,86.25l-4.45.62c0-.21-.08-.43-.14-.65l4.55-4-5.13,2.26a7.88,7.88,0,0,0-7.54-4.86c1.36.15,6.13,1.26,8.51,9.62a9.52,9.52,0,0,0-.05-1Z"/><path class="cls-8" d="M158.8,79.65l-.38,0Z"/><path class="cls-3" d="M41.9,71.15l0,0a2.12,2.12,0,0,0,0-2.77l-.73-.83A2.12,2.12,0,0,0,38.41,67a2.54,2.54,0,0,0-.61,3.13l.93,1.07A2.1,2.1,0,0,0,41.9,71.15Z"/><path class="cls-3" d="M38.92,76l0,0a2.09,2.09,0,0,0,0-2.76l-2.53-2.89a2.12,2.12,0,0,0-2.78,0A1.78,1.78,0,0,0,33,72.9L35.77,76A2.08,2.08,0,0,0,38.92,76Z"/><path class="cls-3" d="M35.54,79.65a2.09,2.09,0,0,0,0-2.71l-2.22-2.53a2.12,2.12,0,0,0-2.78,0A1.79,1.79,0,0,0,29.9,77l2.42,2.76a2.09,2.09,0,0,0,3.19,0Z"/></svg>