<svg id="Layer_1" data-name="Layer 1" xmlns="http://www.w3.org/2000/svg" viewBox="0 0 213.85 256.92"><defs><style>.cls-1,.cls-6{fill:none;stroke-linecap:round;stroke-miterlimit:10;}.cls-1{stroke:#0f8ab2;stroke-width:4px;}.cls-2{fill:#00a1cd;}.cls-3{fill:#ed1651;}.cls-4{fill:#504b48;}.cls-5{fill:#a2cced;}.cls-6{stroke:#0d4060;stroke-width:2.03px;}.cls-7{fill:#0d4060;}.cls-8{fill:#fff;}</style></defs><path class="cls-1" d="M173.65,129.07s17,3.36,17.6,40.67"/><path class="cls-1" d="M40.17,130.77s-18.18,5.52-16,41.68"/><path class="cls-2" d="M35.1,131.63c0-32.46,15.55-64,35.68-86.46,51.9-58,109.69,25.73,109.69,89.14,0,46.8-35.73,58.15-71.49,58.15S35.1,178.43,35.1,131.63Z"/><polyline class="cls-2" points="124.12 229.92 131.1 183.81 110.94 183.81 117.98 231.25 123.35 227.85"/><polyline class="cls-2" points="88.94 227.48 80.16 185.13 102.04 185.13 94.18 229.92 86.67 227.48"/><polygon class="cls-3" points="86.51 215.15 97.06 215.15 94.48 230.29 88.06 230.29 86.51 215.15"/><polygon class="cls-3" points="115.39 215.75 125.95 215.75 124.38 230.9 117.96 230.9 115.39 215.75"/><path class="cls-4" d="M75.3,231.25a10.8,10.8,0,1,1,21.59,0"/><path class="cls-4" d="M116,231.25a10.8,10.8,0,1,1,21.59,0"/><path class="cls-5" d="M29.72,166.9c-1-1.92-3.51-3.12-6.39-2.83-3.68.37-6.62,3-6.53,5.9l.22,7.1c0,.05,0,.1,0,.15v.07l.29,9.58c0,.75.83,1.28,1.79,1.19a1.76,1.76,0,0,0,1.71-1.55l-.16-5.21a7.3,7.3,0,0,0,1.45.3l.19,6.25A1.48,1.48,0,0,0,24.09,189a1.75,1.75,0,0,0,1.71-1.54l-.19-6.25a8.59,8.59,0,0,0,1.28-.53l.17,5.37c0,.75.83,1.29,1.79,1.19a1.75,1.75,0,0,0,1.71-1.55l-.28-8.94a3.86,3.86,0,0,0,.1-.89l.72,1.65a1.78,1.78,0,0,0,2.21.68h0c.92-.31,1.42-1.13,1.11-1.82"/><path class="cls-5" d="M183.56,164.91c.88-2,3.33-3.31,6.23-3.18,3.69.17,6.77,2.66,6.84,5.54l.17,7.09a.75.75,0,0,1,0,.15s0,.05,0,.08l.24,9.57c0,.75-.76,1.33-1.72,1.29a1.74,1.74,0,0,1-1.79-1.45l-.13-5.21a7.24,7.24,0,0,1-1.44.38l.16,6.25c0,.75-.76,1.33-1.73,1.29a1.74,1.74,0,0,1-1.78-1.45l-.16-6.25a7.79,7.79,0,0,1-1.31-.46l.13,5.38c0,.75-.76,1.33-1.72,1.28a1.74,1.74,0,0,1-1.79-1.45l-.22-8.95a3.68,3.68,0,0,1-.15-.88l-.63,1.69a1.78,1.78,0,0,1-2.17.81h0c-.93-.27-1.47-1.06-1.21-1.76"/><path class="cls-6" d="M82,69.58S85,61.33,94,65"/><path class="cls-6" d="M133.39,69.57s-1.89-8.31-10.91-4.68"/><path class="cls-7" d="M120.9,92.49s-2.41,7.72-14.24,7.49-12.77-7.49-12.77-7.49Z"/><path class="cls-8" d="M113.48,83c0-5.38,4.65-9.74,10.39-9.74s10.4,4.36,10.4,9.74"/><path class="cls-7" d="M119.41,83a4.52,4.52,0,1,1,9,0"/><path class="cls-8" d="M82.56,83c0-5.38,4.68-9.74,10.45-9.74s10.46,4.36,10.46,9.74"/><path class="cls-7" d="M88.49,83a4.52,4.52,0,0,1,9,0"/><path class="cls-7" d="M92.06,73.22h0Z"/><path class="cls-7" d="M124.78,73.22a1,1,0,0,0-.2,0Z"/><path class="cls-7" d="M82.78,78.36,77.65,76.1l4.55,4c-.06.23-.1.44-.15.66l-4.45-.62,4.26,2a9.45,9.45,0,0,0,0,1c2.38-8.36,7.14-9.48,8.51-9.62A7.86,7.86,0,0,0,82.78,78.36Z"/><path class="cls-7" d="M90.32,73.51c.13,0,.24,0,.38,0A3.25,3.25,0,0,0,90.32,73.51Z"/><path class="cls-7" d="M138.45,80.11l-4.45.61c0-.21-.09-.42-.14-.65l4.54-4-5.13,2.26a7.86,7.86,0,0,0-7.54-4.85c1.37.14,6.13,1.25,8.51,9.62,0,0,0-.41,0-1Z"/><path class="cls-7" d="M120.73,73.51a3.25,3.25,0,0,0-.38,0C120.49,73.48,120.6,73.5,120.73,73.51Z"/></svg>