<svg xmlns="http://www.w3.org/2000/svg" viewBox="0 0 933.02 592.09"><defs><style>.cls-1,.cls-13,.cls-14,.cls-4,.cls-6,.cls-8{fill:none;stroke-miterlimit:10;}.cls-1,.cls-4,.cls-6{stroke:#0f8ab2;}.cls-1{stroke-width:9.44px;}.cls-2{fill:#a2cced;}.cls-3{fill:#00a1cd;}.cls-4,.cls-6{stroke-width:12.45px;}.cls-5{fill:#5e62ac;}.cls-13,.cls-14,.cls-6,.cls-8{stroke-linecap:round;}.cls-7{fill:#fff;}.cls-13,.cls-8{stroke:#0d4060;}.cls-8{stroke-width:4px;}.cls-9{fill:#0d4060;}.cls-10{fill:#56c5d0;}.cls-11{fill:#504b48;}.cls-12{fill:#ed1651;}.cls-13{stroke-width:3.75px;}.cls-14{stroke:#231f20;stroke-width:2.72px;}</style></defs><g id="Layer_1" data-name="Layer 1"><path class="cls-1" d="M306.11,300.78S287,326.32,275.85,336.62s-62.28,6.54-62.28,6.54h0"/><path class="cls-2" d="M340.83,282.53a3.06,3.06,0,0,0-4.34-4.27l-7.34,7.45a12,12,0,0,0-1.15-2.4l8.8-8.94a3.06,3.06,0,0,0-4.34-4.27l-8.8,8.94a12.28,12.28,0,0,0-2.17-1L330,267.42c1.06-1.07,0,0-1.19-1.17a2.9,2.9,0,0,0-4.09-.18l-12.6,12.79a9.51,9.51,0,0,0-1.39,1.09l1.59-3.27a3.12,3.12,0,0,0-1.43-4h0a2.71,2.71,0,0,0-3.84,1l-8.47,17.45a2.76,2.76,0,0,0-.09,2.15A11.64,11.64,0,0,0,301.4,306c4.56,4.49,11.6,4.8,15.65.7l10-10.14c.07-.07.13-.15.2-.23l.12-.09Z"/><path class="cls-3" d="M165.13,163.29l-23.72-.67A78.61,78.61,0,0,0,60.59,239l-.15,5.5c-.6,5.5-.94,11-1.09,16.37L55.22,406.63a78.62,78.62,0,0,0,76.36,80.81l23.73.68a78.61,78.61,0,0,0,80.81-76.36l.16-5.51c.59-5.5.93-11,1.09-16.36L241.5,244.1A78.62,78.62,0,0,0,165.13,163.29Z"/><path class="cls-4" d="M572.37,259.54s-43,7.72-65.37-3.62-62.66-44.2-62.66-44.2"/><path class="cls-2" d="M401.4,210.21c-1.73-.91-2.13-3.32-.88-5.33s3.69-2.93,5.42-2l12,6.34a17.22,17.22,0,0,1,.83-3.57L404.38,198c-1.73-.91-2.13-3.31-.88-5.33s3.69-2.93,5.42-2l14.42,7.6a19.61,19.61,0,0,1,2.6-2.24l-12.39-6.54c-1.73-.92-2.13-3.32-.88-5.34s3.69-2.92,5.42-2l20.65,10.89a11.62,11.62,0,0,1,2.18.79l-3.09-3.49c-1.29-1.46-1-4,.74-5.69h0c1.7-1.66,4.15-1.83,5.44-.36L460.51,203a3.49,3.49,0,0,1,.76,2.71c3.44,4.4,3.59,11.36-.16,17.43-4.78,7.72-14.11,11.18-20.74,7.68L424,222.14a3.7,3.7,0,0,1-.33-.21l-.19-.07Z"/><path class="cls-3" d="M498.62,302.31c-2.37-85.83,36.44-170.28,88-231.2,133-157.08,291.92,60,296.57,227.65,3.43,123.75-90.23,156.37-184.79,159S502.05,426.06,498.62,302.31Z"/><circle class="cls-5" cx="346.66" cy="103.69" r="58.89"/><path class="cls-6" d="M559.05,210.62s34.38,27.86,60.59,46.54a67.85,67.85,0,0,0,44,12.44c20.87-1.42,50-3.89,60.18-7.13"/><path class="cls-2" d="M521.28,207.89c-1.68-1-2-3.42-.61-5.38s3.84-2.73,5.52-1.73l11.69,6.95a17.93,17.93,0,0,1,1-3.52l-14-8.33c-1.68-1-2-3.42-.61-5.37s3.84-2.74,5.52-1.73l14,8.33a20,20,0,0,1,2.71-2.12l-12-7.16c-1.68-1-2-3.42-.61-5.37s3.84-2.73,5.52-1.73l20.07,11.93a11.77,11.77,0,0,1,2.13.91l-2.9-3.65c-1.22-1.52-.76-4.06,1-5.64h0c1.78-1.58,4.23-1.62,5.45-.09l15.52,19.46a3.43,3.43,0,0,1,.62,2.75c3.22,4.57,3,11.53-1,17.39-5.16,7.47-14.65,10.45-21.1,6.62L543.25,221l-.32-.22a1.42,1.42,0,0,1-.18-.08Z"/><path class="cls-7" d="M555.31,153.4a25.1,25.1,0,0,1,50.2,0"/><path class="cls-7" d="M624.27,153.4a25.1,25.1,0,0,1,50.2,0"/><path class="cls-8" d="M560.71,120.47s6.66-18,25.64-5.82"/><path class="cls-8" d="M670.47,120.47s-12.5-20.1-30.19-5.53"/><path class="cls-9" d="M559.92,153.4a10.86,10.86,0,1,1,21.71,0"/><path class="cls-9" d="M628.88,153.4a10.86,10.86,0,0,1,21.72,0"/><path class="cls-9" d="M646.16,170.27s-5.78,18.54-34.19,18-30.65-18-30.65-18Z"/><path class="cls-9" d="M671.65,140.55l15.78-6.28-14,11c.18.63.31,1.23.44,1.82l13.7-1.71-13.09,5.51a25.74,25.74,0,0,1,.14,2.87c-7.32-23.23-22-26.31-26.17-26.72,13.43.38,20,6.93,23.19,13.49"/><path class="cls-9" d="M542.46,145.4l13.7,1.71c.12-.59.26-1.19.43-1.81l-14-11,15.79,6.28c3.17-6.56,9.75-13.11,23.19-13.49-4.19.41-18.85,3.49-26.18,26.72a27.75,27.75,0,0,1,.15-2.87Z"/><path class="cls-9" d="M244.76,299.39c-.3-.09-.56-.19-.88-.27,0,0,.34.08.88.27"/><path class="cls-1" d="M220.09,322.29S201,347.83,189.83,358.13s-62.27,6.53-62.27,6.53h0"/><path class="cls-2" d="M254.82,304a3.06,3.06,0,0,0-4.34-4.27l-7.34,7.45a12.87,12.87,0,0,0-1.15-2.4l8.79-8.93a3.06,3.06,0,0,0-4.33-4.27l-8.8,8.93a12.57,12.57,0,0,0-2.17-1L244,288.93c1.06-1.08,0,0-1.19-1.18a2.92,2.92,0,0,0-4.09-.18l-12.6,12.79a9.82,9.82,0,0,0-1.39,1.09l1.58-3.26a3.12,3.12,0,0,0-1.42-4h0a2.72,2.72,0,0,0-3.85,1l-8.47,17.46a2.83,2.83,0,0,0-.09,2.14,11.67,11.67,0,0,0,2.91,12.64c4.56,4.5,11.61,4.81,15.65.7L241,318l.2-.22s.08-.06.11-.1Z"/><polyline class="cls-3" points="152.87 456.16 166.05 563.29 179.24 563.29 193.12 442.77"/><polyline class="cls-3" points="104.31 455.83 117.49 563.29 130.68 563.29 141.69 456.16"/><polygon class="cls-10" points="130.66 576.85 118.22 576.85 111.55 517.94 135.63 517.94 130.66 576.85"/><polygon class="cls-10" points="178.32 576.85 165.88 576.85 160.86 517.94 184.94 517.94 178.32 576.85"/><path class="cls-11" d="M117.28,578.51a19.41,19.41,0,1,1,38.81,0"/><path class="cls-11" d="M166.05,578.51a19.41,19.41,0,0,1,38.82,0"/><polyline class="cls-3" points="693.79 405.17 714.27 542.56 733.82 542.56 749.3 405.6"/><polyline class="cls-3" points="676.96 405.17 661.48 542.56 641.93 542.56 622.45 402.07"/><polygon class="cls-12" points="733.21 565.79 737.36 514.57 710.64 514.57 717 561.55 733.21 565.79"/><polygon class="cls-12" points="645.07 565.79 638.75 514.57 664.63 514.57 661.1 565.79 645.07 565.79"/><path class="cls-11" d="M732.33,571.16a31.19,31.19,0,0,0-62.38,0"/><path class="cls-11" d="M662.54,571.16a31.19,31.19,0,1,0-62.38,0"/><path class="cls-9" d="M193.28,288.38s-4.12,10.81-23,10-20.06-11.11-20.06-11.11Z"/><path class="cls-13" d="M108.78,234.31s6.83-12.95,20.87-4.84"/><path class="cls-13" d="M232.93,237.6s-4.38-13.51-18.83-6.14"/><path class="cls-14" d="M158.65,252.41a38.46,38.46,0,1,1-37.43-39.47A38.46,38.46,0,0,1,158.65,252.41Z"/><path class="cls-14" d="M261.75,255.14a38.46,38.46,0,1,1-37.43-39.47A38.46,38.46,0,0,1,261.75,255.14Z"/><path class="cls-14" d="M158.7,247.82s13-17,25,.66"/><path class="cls-7" d="M191.33,263.45c.13-11.62,10.28-20.92,22.67-20.79s22.33,9.66,22.21,21.28"/><path class="cls-7" d="M104.52,262.19c.13-11.61,10.33-20.92,22.79-20.78s22.46,9.66,22.33,21.27"/><path class="cls-9" d="M132.88,241.16a12.59,12.59,0,0,0,16.4,17.46C148.07,250.21,141.52,243.36,132.88,241.16Z"/><path class="cls-9" d="M219.46,243.75a12.6,12.6,0,0,0,16.41,17.46C234.65,252.8,228.1,246,219.46,243.75Z"/></g></svg>