<svg xmlns="http://www.w3.org/2000/svg" viewBox="0 0 937.26 1008"><defs><style>.cls-1,.cls-12,.cls-14,.cls-16,.cls-17,.cls-2,.cls-8,.cls-9{fill:none;}.cls-1,.cls-2{stroke:#0f8ab2;}.cls-1,.cls-12,.cls-18,.cls-2,.cls-21,.cls-8,.cls-9{stroke-linecap:round;}.cls-1,.cls-12,.cls-14,.cls-16,.cls-17,.cls-18,.cls-2,.cls-21,.cls-8,.cls-9{stroke-miterlimit:10;}.cls-1{stroke-width:14.51px;}.cls-2{stroke-width:10.39px;}.cls-3{fill:#45478d;}.cls-4{fill:#00a1cd;}.cls-5{fill:#56c5d0;}.cls-6{fill:#504b48;}.cls-7{fill:#0d4060;}.cls-12,.cls-8{stroke:#0d4060;}.cls-8{stroke-width:4.23px;}.cls-9{stroke:#231f20;stroke-width:3.07px;}.cls-10{fill:#fff;}.cls-11{fill:#ed1651;}.cls-12{stroke-width:5px;}.cls-13{fill:#a2cced;}.cls-14{stroke:#45478d;stroke-width:10px;}.cls-15{fill:#e7efb9;}.cls-16,.cls-17{stroke:#777769;}.cls-16{stroke-width:2px;}.cls-17{stroke-width:1.78px;}.cls-18,.cls-21{fill:#f9f2d8;stroke:#1d3c6f;}.cls-18{stroke-width:7.26px;}.cls-19{fill:#0f8ab2;}.cls-20{fill:#98c4e1;}.cls-21{stroke-width:6.27px;}</style></defs><g id="Layer_1" data-name="Layer 1"><path class="cls-1" d="M497.71,423.28s-25.67-10.46-52.6-19.93c-17-6-26.51-18.51-34.36-34.76-8.13-16.83-16.95-56.16-13.59-64.69"/><path class="cls-2" d="M334.72,461.08c-6.13,87.9-82.54,76-82.54,76"/><path class="cls-3" d="M123.23,639.39,92.48,642.3a59.29,59.29,0,0,1-33.72-7.21c-19.7-10.76-30.28-33-27-55.19L39.58,527c.85-5.73,4.9-18.81,9.7-28.42,18.28-36.59,31.76-37,59-39.61l-2.1.2a54.08,54.08,0,0,1,58.76,48.6l6.9,72.92A54.06,54.06,0,0,1,123.23,639.39Z"/><path class="cls-4" d="M444.55,491.26c-2.8-101,42.87-200.34,103.55-272C704.56,34.44,891.55,289.81,897,487.08c4,145.59-106.16,184-217.41,187.06S448.59,636.85,444.55,491.26Z"/><polyline class="cls-4" points="191.09 662.45 206.46 787.38 221.84 787.38 238.02 646.84"/><polygon class="cls-5" points="220.76 803.18 206.26 803.18 200.41 734.49 228.49 734.49 220.76 803.18"/><path class="cls-6" d="M206.46,805.11a22.63,22.63,0,0,1,45.26,0"/><path class="cls-4" d="M204.26,300.43l-28.68-.81A95.05,95.05,0,0,0,77.86,392l-.19,6.65c-.72,6.65-1.13,13.29-1.31,19.79l-5,176.27a95.08,95.08,0,0,0,92.34,97.72l28.68.81a95.05,95.05,0,0,0,97.72-92.33l.19-6.66c.72-6.64,1.13-13.29,1.31-19.78l5-176.28A95.06,95.06,0,0,0,204.26,300.43Z"/><path class="cls-7" d="M236.65,448.43s-4.65,12.19-25.91,11.25-22.64-12.54-22.64-12.54Z"/><path class="cls-8" d="M141.31,387.43S149,372.81,164.85,382"/><path class="cls-8" d="M281.38,391.14s-4.94-15.24-21.24-6.93"/><path class="cls-9" d="M197.58,407.85a43.4,43.4,0,1,1-42.23-44.53A43.4,43.4,0,0,1,197.58,407.85Z"/><path class="cls-9" d="M313.9,410.93a43.4,43.4,0,1,1-42.23-44.53A43.4,43.4,0,0,1,313.9,410.93Z"/><path class="cls-9" d="M197.63,402.67s14.67-19.21,28.24.74"/><path class="cls-10" d="M234.45,420.3c.14-13.1,11.59-23.6,25.57-23.45s25.2,10.9,25.06,24"/><path class="cls-10" d="M136.51,418.88c.14-13.1,11.65-23.6,25.71-23.45s25.34,10.9,25.2,24"/><polyline class="cls-4" points="132.16 662.07 147.53 787.38 162.91 787.38 175.75 662.45"/><polygon class="cls-5" points="162.89 803.18 148.38 803.18 140.6 734.49 168.68 734.49 162.89 803.18"/><path class="cls-6" d="M147.28,805.11a22.63,22.63,0,0,1,45.26,0"/><polyline class="cls-4" points="731.41 659.43 714.39 803.34 693.99 803.34 670.36 666.46"/><polyline class="cls-4" points="645.33 656.13 628.32 800.04 607.92 800.04 587.59 663.02"/><polygon class="cls-11" points="694.66 803.34 684.99 747.02 722.03 747.02 715.03 798.68 694.66 803.34"/><polygon class="cls-11" points="609.26 803.34 599.6 747.02 636.64 747.02 629.64 798.68 609.26 803.34"/><path class="cls-6" d="M646.8,806.69a34.29,34.29,0,1,1,68.58,0"/><path class="cls-6" d="M629.48,806.69a34.29,34.29,0,1,0-68.58,0"/><path class="cls-12" d="M661.56,270.74s-10.84-21.94-34.63-9"/><path class="cls-12" d="M563.71,260.11s-21.14-12.33-33.86,11.58"/><path class="cls-10" d="M582.17,306.11c0-15-13-27.15-29-27.15s-29,12.16-29,27.15"/><path class="cls-7" d="M560.21,306.11a12.6,12.6,0,0,0-25.2,0"/><path class="cls-10" d="M610.06,306.11c0-15,13-27.15,29.12-27.15s29.13,12.16,29.13,27.15"/><path class="cls-7" d="M640.92,306.11a12.6,12.6,0,0,0-25.2,0"/><path class="cls-7" d="M558.81,325.38s0,23.27,33.17,23.25c27.58,0,29.74-23.25,29.74-23.25Z"/><path class="cls-7" d="M168.5,395.15A14.21,14.21,0,0,0,187,414.86C185.64,405.36,178.25,397.64,168.5,395.15Z"/><path class="cls-7" d="M266.19,398.07a14.21,14.21,0,0,0,18.5,19.71C283.32,408.28,275.94,400.56,266.19,398.07Z"/><path class="cls-1" d="M765.44,436.45S744.08,525.67,613.62,464"/><path class="cls-13" d="M621.69,458.37c-.31-6.54-9.17-11.42-13.55-14.74-8.88-6.73-15.72-14-17.68-25.06-.41-2.31-.71-4.83-2.35-6.51-2.71-2.79-7.79-1.55-10.16,1.53-3,3.84-3.19,9.91-2.5,14.52.29,1.9,2.84,12.21,5.47,12.49a104.5,104.5,0,0,0-14.71-.52c-9.44.33-14.3.56-16.28,3.83-1.66,2.74-1,7.11,1.51,9.95a11.36,11.36,0,0,0,5.2,3.22,9.54,9.54,0,0,0-2.18,5.49,9.42,9.42,0,0,0,3.42,7.74,10.16,10.16,0,0,0,3.61,1.83,7.16,7.16,0,0,0-2,5.5c.28,3,2.76,4.93,3.85,5.79,8.65,6.81,29.83,3.19,36.7,1.85a142.24,142.24,0,0,0,18.25-4.86,6.16,6.16,0,0,0,4.17-6.11Z"/><path class="cls-7" d="M665.72,292.94l15.79-6.28-14,11c.18.63.31,1.22.44,1.81l13.69-1.71-13.08,5.52a25.67,25.67,0,0,1,.14,2.87c-7.33-23.23-22-26.32-26.18-26.72,13.44.37,20,6.93,23.19,13.48"/><path class="cls-7" d="M510.54,297.79l13.69,1.71c.13-.59.26-1.18.44-1.81l-14-11,15.78,6.28c3.17-6.56,9.76-13.11,23.19-13.49-4.19.41-18.85,3.5-26.17,26.73a25.67,25.67,0,0,1,.14-2.87Z"/><path class="cls-14" d="M53.07,517.74s57.1-12.32,56.16,14.21-28.42,51-51.16,50.1"/><path class="cls-2" d="M185.1,572.21c-77.3,34.1-93.79-40.58-93.79-40.58"/><path class="cls-15" d="M51.17,525.5s12.51-40.92,23.94-46.91V448l-34.78,19Z"/><path class="cls-16" d="M75.11,478.59s-13.83,10.88-23.94,48.46S43,590.53,43,590.53"/><rect class="cls-17" x="102.62" y="525.5" width="12.84" height="11.34" rx="2.49"/><circle class="cls-18" cx="305.59" cy="140.79" r="101.15"/><path class="cls-19" d="M121.14,947.94H121a23.07,23.07,0,0,1-5.29,6.88q-4.86,4.39-9.81,5-9.58,1-19.62-19.5a45.35,45.35,0,0,1,.34,5q0,6.91-3.39,10.92a18.17,18.17,0,0,1-10.37,3.57,16.87,16.87,0,0,1-4.06-.45q-6.64-1.68-8.68-4.27-2.7-3.37-2.7-12.15v-4.5q-.34-.33.22-20.13.68-22.38,2.59-34.08,1.47-8.43,12-11.58,5-1.46,19.5-2.92,17.25.56,23.68,11.5,4.85,10.93,4.73,20.07-.11,9.36-5.07,15.67a83,83,0,0,1-6.43,6q12.75,13.76,12.74,23A13.43,13.43,0,0,1,121.14,947.94ZM88.89,895.4h-.11a3.7,3.7,0,0,0-1.13-.22,16.45,16.45,0,0,0-3.49,1.58c-.3.3-.42,2.21-.34,5.75q.11,6.19.11,11.72A19.89,19.89,0,0,0,91.2,910q3-2.76,3-5.8Q94.19,900,88.89,895.4Z"/><path class="cls-19" d="M161.16,885.59c0,3.09.08,6.84.23,11.28s.22,7.29.22,8.57a221.08,221.08,0,0,1-3,39.91q-2,11.39-10.37,13.64c-1.66.15-2.79.23-3.39.23q-11.38,0-12.85-10.49a218.21,218.21,0,0,1-2.48-32.58A151.22,151.22,0,0,1,131.85,889l3-7.56q5.87-8.46,16.69-8.45a19.4,19.4,0,0,1,4.4.45,7.62,7.62,0,0,1,4.17,5.3Z"/><path class="cls-19" d="M227.23,891.12a22.62,22.62,0,0,1,.34,3.83q0,6.09-2.48,9.47-3.84,5.31-11.5,5-7-.33-9.36-6.54v-3.15a2.89,2.89,0,0,0-1.13-2.37l-.68.11q-7.21,18.27-7.21,30.67c0,2.78,0,3.76-.11,2.93a5.6,5.6,0,0,0,1.91,3.38q5-.45,6.2-3c.38-1,0-2-1.24-2.93a4.33,4.33,0,0,1-2.25-.68,2.08,2.08,0,0,1-1.35-1.8,10.37,10.37,0,0,1,1.69-6.09l2.82-2.26q1.13,0,5.92-.39c3.19-.26,5.31-.4,6.36-.4q6.54,0,9.81,3.27a14.85,14.85,0,0,1,2.15,8.46,35.9,35.9,0,0,1-2.48,12.74A33.75,33.75,0,0,1,217,953.47,21.45,21.45,0,0,1,204.45,960a48.5,48.5,0,0,1-6.08.45,27,27,0,0,1-17.7-6.43q-5.41-4.5-8.46-13.53a63.59,63.59,0,0,1-3-20.41,77.41,77.41,0,0,1,5.07-28.41q5.07-13,13.64-18.6a28.2,28.2,0,0,1,13.19-3,27,27,0,0,1,11.84,2.59q13.18,9,14.09,18.49Z"/><path class="cls-19" d="M238.05,877.59h-.11a16.94,16.94,0,0,1,12.51-5q6.31,0,9.25,1.69,3.27,3.27,3.49,10.26-.68,5.52-1,14.77,1.35,5,4.06,5a8.49,8.49,0,0,0,3.15-1q1.25-.56,1.92-4.62-.68-5.85-.9-16.12.45-5.87,7.44-10.15,1.35-.78,6.65-1a23.84,23.84,0,0,1,5.3.22q5.07,1.36,6.77,7.67c.37,1.28.79,2.56,1.24,3.83a32.28,32.28,0,0,1,1.12,7.56q.68,15.78.68,23.67,0,16.7-5.75,36.76-1.8,6.2-9.92,7.89c-3.46.75-6.24.42-8.34-1q-4.29-2.82-5-9.36a32.53,32.53,0,0,1,.29-6.43,46,46,0,0,0,.39-6.42,3.41,3.41,0,0,0-3.68-2.82,7.23,7.23,0,0,0-5.13,2.14,7,7,0,0,0-2.13,5.52q.57,2.26,1.58,8a10.83,10.83,0,0,1-.34,5.86,8.36,8.36,0,0,1-4.39,4.4q-2,.9-7.44.9a11.22,11.22,0,0,1-8.57-3.61q-2.82-3-4.74-10A67.86,67.86,0,0,1,234,928.89q-.33-13.65-.34-23.34Q233.65,884,238.05,877.59Z"/><path class="cls-19" d="M368.16,885h.11a22.81,22.81,0,0,1,.34,4.4c-.08,3.76-1,6.61-2.71,8.57-.67.75-3.7,1.63-9.07,2.65s-8.14,1.67-8.29,2q-.23,1.25,2.59,23.56a72,72,0,0,1,.57,9q0,10.26-2.71,16.91-3.37,8.35-9.92,8.12-10.6-.33-14.77-6.65-3.17-4.74-3.27-15,0,.92.45-11.83l.57-14.44a86.7,86.7,0,0,1,1.46-11.72,6.83,6.83,0,0,1-2,.23,24.77,24.77,0,0,1-7.67-1.25q-5.18-1.68-7.1-5a17.33,17.33,0,0,1-2.7-8.68q0-6.76,7.44-10.48,9.57-4.85,23.11-4.85A87,87,0,0,1,349.44,872c2.48.9,6.24,2.3,11.28,4.17Q367,879.39,368.16,885Z"/><path class="cls-19" d="M468.5,940.05l.11.11a27.58,27.58,0,0,1-10.31,14.43,28.51,28.51,0,0,1-17.08,5.3q-17.94,0-27.85-13.53-8.46-11.49-8.46-28a68.1,68.1,0,0,1,1.35-14q6.21-29.43,26.27-33.14a20.47,20.47,0,0,1,3.84-.34q9,0,17.53,6t11.44,14.55q6.32,18.6,6.32,29a68.47,68.47,0,0,1-3.27,19.62Zm-28-8.12v-.11q3.27-.57,3.27-12.51a60.56,60.56,0,0,0-1.24-12.69q-1.24-5.8-2.71-6-2.48-.68-4.51,5.41a42.31,42.31,0,0,0-2,13.42Q433.32,933.06,440.54,931.93Z"/><path class="cls-19" d="M544.83,893.37v-.11Q546,906.34,546,918q0,35.74-11.84,40.14a11.92,11.92,0,0,1-4.17.68,31.75,31.75,0,0,1-7.33-1.13q-5.64-3.17-17.25-36.19a75.65,75.65,0,0,1,2,17.19q0,9.38-2.71,14.92a10.6,10.6,0,0,1-4.45,4.47,9.89,9.89,0,0,1-6.15,1.52q-9.36-.9-12.74-11.4-2.25-7-2.25-21.67,0-28.56,2.37-38.39A20.88,20.88,0,0,1,489.7,876a13.86,13.86,0,0,1,8.34-2.7,16.45,16.45,0,0,1,5,.78q6.54,3.49,12.85,20.86a140.26,140.26,0,0,1,4.85,16.58c-.75-5-1.39-9.32-1.92-13.08a120.72,120.72,0,0,1-1.35-14.55,14,14,0,0,1,2.93-9.13q3.39-4.17,9.59-4.17,10.93,0,13.64,12.18A104.68,104.68,0,0,1,544.83,893.37Z"/><path class="cls-19" d="M647.31,885h.11a22.81,22.81,0,0,1,.34,4.4c-.07,3.76-1,6.61-2.7,8.57q-1,1.13-9.08,2.65c-5.37,1-8.14,1.67-8.29,2q-.23,1.25,2.6,23.56a73.91,73.91,0,0,1,.56,9q0,10.26-2.71,16.91-3.37,8.35-9.92,8.12-10.59-.33-14.77-6.65-3.15-4.74-3.27-15,0,.92.46-11.83l.56-14.44a90,90,0,0,1,1.46-11.72,6.76,6.76,0,0,1-2,.23,24.68,24.68,0,0,1-7.67-1.25q-5.19-1.68-7.1-5a17.25,17.25,0,0,1-2.71-8.68q0-6.76,7.44-10.48,9.58-4.85,23.11-4.85A87.18,87.18,0,0,1,628.6,872c2.48.9,6.23,2.3,11.27,4.17Q646.19,879.39,647.31,885Z"/><path class="cls-19" d="M685.31,885.59c0,3.09.07,6.84.22,11.28s.23,7.29.23,8.57a221,221,0,0,1-3,39.91q-2,11.39-10.37,13.64c-1.65.15-2.78.23-3.38.23q-11.38,0-12.85-10.49a219.66,219.66,0,0,1-2.49-32.58A153.07,153.07,0,0,1,656,889l3-7.56q5.85-8.46,16.68-8.45a19.34,19.34,0,0,1,4.4.45,7.6,7.6,0,0,1,4.17,5.3Z"/><path class="cls-19" d="M775.16,944.79c0,3.9-.79,7-2.37,9.13a8.72,8.72,0,0,1-5,3.38c-1.05.3-2.59.68-4.62,1.13a18.41,18.41,0,0,1-3,.56,10.09,10.09,0,0,1-8.23-4.34,17,17,0,0,1-3.39-10.77q0-2.48,1.25-11.5,1-7,.11-11-.57,1.7-3.5,10.26-3.82,10.83-6.87,13.2a6.31,6.31,0,0,1-4.06,1.35,6.79,6.79,0,0,1-3.72-1.24q-6.09-6.31-9.47-24.47a29,29,0,0,0-.57,5.75q0,1.7.9,10.71a38.53,38.53,0,0,1,0,10.26,16.1,16.1,0,0,1-4.84,8.8,15.32,15.32,0,0,1-7.56,2.25q-5,0-9.13-4.4-4.62-7.89-5.41-10.48Q694,938.25,694,928.1q0-9.36,1.57-33.15a25.36,25.36,0,0,1,5-14,22.3,22.3,0,0,1,12-7.95q15-.45,22.77,25.82a59.89,59.89,0,0,1,3.5-12.86q4.27-11.71,9.69-14.32a32.6,32.6,0,0,1,9-1.57q6.21,0,9.47,3.83A20.91,20.91,0,0,1,773,884q1.13,4.17,1.47,13.3.1,8.34.22,16.69.45,18.48.45,30.66Z"/><path class="cls-19" d="M833,905.1a11,11,0,0,1,.34,3.49,12.61,12.61,0,0,1-4.85,10A12,12,0,0,1,819,921.9a8.81,8.81,0,0,0-3.38-.11c.15.9-.12,3.3-.79,7.21a4.39,4.39,0,0,0,2.37,4.06c3.08-.83,5.59-.83,7.55,0q4.62,1.8,5.07,6.09Q830.41,944,827,949a27,27,0,0,1-9.35,8.4,24.73,24.73,0,0,1-12.52,3.05,26.54,26.54,0,0,1-11.38-2.37q-2.14-1-6.43-6.31-4.62-7.66-4.74-32.36A231.92,231.92,0,0,1,785,887q1.47-10.61,6.09-13.76l18.83-1.91a44.88,44.88,0,0,1,9.24-1c5.87,0,9.32,1.47,10.38,4.4a11.49,11.49,0,0,1,.67,4.06,9.83,9.83,0,0,1-3.61,7.89q-3.6,3-10,3h-2.48a14.34,14.34,0,0,0-.9,5.37c-.15,3.13-.27,4.91-.34,5.36a2.69,2.69,0,0,0,2.37,2,12.88,12.88,0,0,1,8.23-2.59Q829.17,899.8,833,905.1Z"/><path class="cls-13" d="M367.75,289.48a1.12,1.12,0,0,0,0-1.21c-1-1.85-3-8.8-3.39-10.73a1.16,1.16,0,0,0,.1-.84c-.17-.66-.31-1.34-.43-2l0-.28a32.45,32.45,0,0,1,.4-6c1.24-1.2,1.07,4.48,2.33,3.32v0a1.66,1.66,0,0,1,2.58.54l.06.12c1.19-1.25.4,2.29,1.82,1.3l4.09-3.28a1.35,1.35,0,0,1,.81-.35,1.41,1.41,0,0,0,1.07-.59c.77-1-2-5.32-1.24-6.32.31.4.57.58.8.16l7.81.95a1.61,1.61,0,0,0,.44,0c.71-.11,1.42-.21,2.14-.27a1.67,1.67,0,0,0,1.34-2.39l-1.39-2.79c0-.06.08-.09.12-.16,1.81-3.39,3.67-5.32,7-6a1.67,1.67,0,0,1,1.78.78l10.63,17.93.11.16a17.83,17.83,0,0,1,1.76,2.64l-.5-6.7a6,6,0,0,1,5.62-5.86,1.55,1.55,0,0,1,.31-.07,5.26,5.26,0,0,1,6.16,4.19l1.7,38.58v.2a21.78,21.78,0,0,1-15,19.62c-11.86,4.72-25.3.92-30-8.49a2.6,2.6,0,0,1-.1-.25l-7.95-23.45"/><path class="cls-13" d="M386.41,237.72a6.4,6.4,0,0,1,2.72.17c6,1.77,8.68,18.58,16.4,31.6,0,.13-.59,3.57-.57,3.71.32,2.89-8.66-12.23-11.56-11.9-3,.84-2.39,10.59-3.57,7.73-.65-2.36-5.06-16-5.71-18.35-.73-2.64-3.26-7.81-1.79-10.35A5.51,5.51,0,0,1,386.41,237.72Z"/><path class="cls-20" d="M377.27,256.85A6.57,6.57,0,0,1,380,257c6,1.77,7.8,11.75,8.85,17.16,0,.13.05.27.07.41a5.28,5.28,0,0,1-4.65,5.83,6.1,6.1,0,0,1-7.32-3.52c-.65-2.37-1.31-4.74-2-7.1-.73-2.63-3.26-7.81-1.79-10.34A5.56,5.56,0,0,1,377.27,256.85Z"/><path class="cls-20" d="M366.86,266a6.75,6.75,0,0,1,2.72.17c6,1.77,7.8,11.76,8.85,17.17,0,.13.05.27.07.41a5.28,5.28,0,0,1-4.65,5.83,6.11,6.11,0,0,1-7.32-3.53l-2-7.09c-.73-2.63-3.26-7.81-1.79-10.35A5.5,5.5,0,0,1,366.86,266Z"/><path class="cls-13" d="M352.2,442.31a.72.72,0,0,1-.17-.77,39.93,39.93,0,0,0,1-7.3.77.77,0,0,1-.16-.52,12.28,12.28,0,0,0,0-1.36,1.09,1.09,0,0,0,0-.18,19.45,19.45,0,0,0-.94-3.79c-.93-.63-.17,3-1.11,2.4h0a1.08,1.08,0,0,0-1.6.64l0,.08c-.91-.66,0,1.52-1,1.05l-3-1.65a.91.91,0,0,0-.56-.13.89.89,0,0,1-.75-.26c-.61-.56.69-3.64.07-4.2-.15.29-.29.43-.49.19l-4.92,1.5a.92.92,0,0,1-.28.05q-.7,0-1.41.06a1.08,1.08,0,0,1-1.13-1.38l.57-2a.65.65,0,0,1-.09-.08c-1.55-2-3-3-5.19-3.07a1.12,1.12,0,0,0-1.06.71l-4.79,12.75a.61.61,0,0,1-.05.12,10.72,10.72,0,0,0-.83,1.9l-.45-4.38a3.91,3.91,0,0,0-4.28-3.12h-.21a3.44,3.44,0,0,0-3.48,3.4l3.31,25s0,.09,0,.13A14.25,14.25,0,0,0,331,469c8.16,1.69,16.38-2.29,18.3-8.88a1.22,1.22,0,0,0,0-.17l2.44-16"/><path class="cls-13" d="M334.28,411.14a4.32,4.32,0,0,0-1.73.42c-3.68,1.83-3.46,12.94-6.94,22.2,0,.09.79,2.23.79,2.32.12,1.9,4.17-8.85,6.07-9,2,.2,2.75,6.54,3.19,4.56.14-1.59,1.42-10.86,1.57-12.45.17-1.78,1.2-5.4,0-6.86A3.58,3.58,0,0,0,334.28,411.14Z"/><path class="cls-20" d="M342.35,422.41a4.2,4.2,0,0,0-1.74.42c-3.67,1.83-3.67,8.45-3.73,12.05a2.43,2.43,0,0,0,0,.27,3.45,3.45,0,0,0,3.66,3.22,4,4,0,0,0,4.31-3.1c.14-1.59.3-3.2.45-4.79.16-1.78,1.2-5.39,0-6.86A3.65,3.65,0,0,0,342.35,422.41Z"/><path class="cls-20" d="M350.09,427.1a4.45,4.45,0,0,0-1.73.42c-3.68,1.83-3.68,8.46-3.74,12.06a2.44,2.44,0,0,0,0,.27,3.44,3.44,0,0,0,3.65,3.22,4,4,0,0,0,4.31-3.11c.14-1.59.3-3.19.45-4.78.17-1.78,1.2-5.4,0-6.86A3.59,3.59,0,0,0,350.09,427.1Z"/><path class="cls-13" d="M177,565.89c.2-4.23,5.93-7.39,8.77-9.54,5.75-4.36,10.17-9.08,11.44-16.22.27-1.5.46-3.13,1.52-4.22,1.75-1.8,5-1,6.58,1,1.91,2.48,2.06,6.41,1.61,9.39-.18,1.23-1.83,7.91-3.53,8.09a66.73,66.73,0,0,1,9.52-.34c6.1.21,9.25.36,10.53,2.48,1.08,1.77.65,4.6-1,6.44a7.4,7.4,0,0,1-3.37,2.09,6,6,0,0,1-.8,8.56A6.7,6.7,0,0,1,216,574.8a4.64,4.64,0,0,1,1.31,3.56,5.75,5.75,0,0,1-2.49,3.75c-5.6,4.41-19.31,2.07-23.76,1.2a91.93,91.93,0,0,1-11.81-3.15,4,4,0,0,1-2.7-3.95Q176.81,571.05,177,565.89Z"/><path class="cls-21" d="M305.59,92.31l.84,42.26a5.08,5.08,0,0,0,7.44,4.4l24-12.62"/><line class="cls-21" x1="305.59" y1="53.44" x2="305.59" y2="67.96"/><line class="cls-21" x1="305.59" y1="214.68" x2="305.59" y2="227.39"/><line class="cls-21" x1="218.33" y1="140.79" x2="232.85" y2="140.79"/><line class="cls-21" x1="377.57" y1="140.79" x2="390.28" y2="140.79"/><line class="cls-21" x1="349.96" y1="210.29" x2="351.77" y2="212.03"/><line class="cls-21" x1="377.09" y1="102.3" x2="379.53" y2="100.74"/><line class="cls-21" x1="377.92" y1="179.84" x2="380.02" y2="181.04"/><line class="cls-21" x1="351.09" y1="71.43" x2="352.5" y2="69.1"/><line class="cls-21" x1="266.32" y1="210.83" x2="264.51" y2="212.57"/><line class="cls-21" x1="239.18" y1="102.84" x2="236.75" y2="101.28"/><line class="cls-21" x1="238.36" y1="180.38" x2="236.26" y2="181.58"/><line class="cls-21" x1="265.19" y1="71.97" x2="263.77" y2="69.64"/><path class="cls-19" d="M884.24,941.15a15.22,15.22,0,0,1,1.66,7.1,19.73,19.73,0,0,1-1.33,7q-4.1,5.55-13.74,5.54a39.44,39.44,0,0,1-4.21-.22q-7.77-4.09-8.65-12.41a27.75,27.75,0,0,0-.22-4.55q2.32-7.76,11.42-9.75a53,53,0,0,1,8.64,1.44A10.36,10.36,0,0,1,884.24,941.15Zm4.66-66.51.11-.11a14.8,14.8,0,0,1,2.1,7.87,51.11,51.11,0,0,1-1.94,11.09q-1.93,7.65-1.83,11.53a166.28,166.28,0,0,0-2.66,21.72q-1,3.66-7.53,4.55a23.18,23.18,0,0,1-3.77.33q-5.88,0-9-3.22-2.65-2.65-3.1-11.08.33-3.33.33-7.21,0-4.2-.61-12.19t-.61-11.86a47.67,47.67,0,0,1,1.77-13.52l.22.33a18.47,18.47,0,0,1,1.67-2.77,5.39,5.39,0,0,1,2.93-2.27,13.46,13.46,0,0,1,3.83-.5,71.13,71.13,0,0,1,9.53,1.44Q886.57,870.87,888.9,874.64Z"/></g></svg>