<svg id="Layer_1" data-name="Layer 1" xmlns="http://www.w3.org/2000/svg" viewBox="0 0 213.85 256.92"><defs><style>.cls-1,.cls-6{fill:none;stroke-linecap:round;stroke-miterlimit:10;}.cls-1{stroke:#0f8ab2;stroke-width:4px;}.cls-2{fill:#00a1cd;}.cls-3{fill:#ed1651;}.cls-4{fill:#504b48;}.cls-5{fill:#a2cced;}.cls-6{stroke:#0d4060;stroke-width:2.03px;}.cls-7{fill:#0d4060;}.cls-8{fill:#fff;}</style></defs><path class="cls-1" d="M172.93,129.07s17,3.36,17.6,40.67"/><path class="cls-1" d="M39.45,130.77s-18.18,5.52-16,41.68"/><path class="cls-2" d="M34.38,131.63c0-32.46,15.55-64,35.68-86.46,51.9-58,109.7,25.73,109.7,89.14,0,46.8-35.74,58.15-71.5,58.15S34.38,178.43,34.38,131.63Z"/><polyline class="cls-2" points="123.4 229.92 130.39 183.81 110.22 183.81 117.26 231.25 122.63 227.85"/><polyline class="cls-2" points="88.22 227.48 79.44 185.13 101.32 185.13 93.46 229.92 85.95 227.48"/><polygon class="cls-3" points="85.79 215.15 96.34 215.15 93.76 230.29 87.34 230.29 85.79 215.15"/><polygon class="cls-3" points="114.67 215.75 125.23 215.75 123.66 230.9 117.24 230.9 114.67 215.75"/><path class="cls-4" d="M72.58,231.25a10.8,10.8,0,1,1,21.59,0"/><path class="cls-4" d="M117.27,231.25a10.8,10.8,0,1,1,21.59,0"/><path class="cls-5" d="M29,166.9c-1-1.92-3.51-3.12-6.39-2.83-3.68.37-6.62,3-6.53,5.9l.22,7.1c0,.05,0,.1,0,.15v.07l.29,9.58c0,.75.83,1.28,1.79,1.19a1.76,1.76,0,0,0,1.71-1.55l-.16-5.21a7.3,7.3,0,0,0,1.45.3l.19,6.25A1.48,1.48,0,0,0,23.37,189a1.74,1.74,0,0,0,1.71-1.54l-.19-6.25a9.18,9.18,0,0,0,1.29-.53l.16,5.37c0,.75.83,1.29,1.79,1.19a1.75,1.75,0,0,0,1.71-1.55l-.28-8.94a3.86,3.86,0,0,0,.1-.89l.72,1.65a1.78,1.78,0,0,0,2.21.68h0c.92-.31,1.42-1.13,1.11-1.82"/><path class="cls-5" d="M182.84,164.91c.89-2,3.33-3.31,6.23-3.18,3.69.17,6.77,2.66,6.84,5.54l.18,7.09s0,.1,0,.15,0,.05,0,.08l.24,9.57c0,.75-.76,1.33-1.72,1.29a1.75,1.75,0,0,1-1.79-1.45l-.13-5.21a7.24,7.24,0,0,1-1.44.38l.16,6.25c0,.75-.76,1.33-1.72,1.29a1.74,1.74,0,0,1-1.79-1.45l-.16-6.25a7.79,7.79,0,0,1-1.31-.46l.13,5.38c0,.75-.76,1.33-1.72,1.28a1.74,1.74,0,0,1-1.79-1.45l-.22-8.95a4.26,4.26,0,0,1-.15-.88l-.63,1.69a1.78,1.78,0,0,1-2.17.81h0c-.93-.27-1.47-1.06-1.21-1.76"/><path class="cls-6" d="M92.21,62.19s-4.44,6.59-11.27,6.16"/><path class="cls-6" d="M122.11,62.19s4.44,6.59,11.27,6.16"/><path class="cls-7" d="M93.17,99.48s2.41-10.3,14.24-10,12.77,10,12.77,10Z"/><path class="cls-8" d="M112.76,83c0-5.38,4.65-9.74,10.4-9.74s10.39,4.36,10.39,9.74"/><path class="cls-7" d="M118.69,83a4.52,4.52,0,0,1,9,0"/><path class="cls-8" d="M81.84,83c0-5.38,4.68-9.74,10.45-9.74s10.46,4.36,10.46,9.74"/><path class="cls-7" d="M87.77,83a4.52,4.52,0,0,1,9,0"/><path class="cls-7" d="M91.34,73.22h0Z"/><path class="cls-7" d="M124.06,73.22a1,1,0,0,0-.2,0Z"/><path class="cls-7" d="M82.06,78.36,76.93,76.1l4.55,4c-.06.23-.1.44-.14.66l-4.45-.62,4.25,2a9.45,9.45,0,0,0,0,1c2.38-8.36,7.15-9.48,8.51-9.62A7.86,7.86,0,0,0,82.06,78.36Z"/><path class="cls-7" d="M89.6,73.51c.13,0,.24,0,.38,0A3.25,3.25,0,0,0,89.6,73.51Z"/><path class="cls-7" d="M137.73,80.11l-4.45.61c0-.21-.09-.42-.14-.65l4.54-4-5.13,2.26A7.85,7.85,0,0,0,125,73.51c1.36.14,6.12,1.25,8.5,9.62,0,0,0-.41,0-1Z"/><path class="cls-7" d="M120,73.51a3.49,3.49,0,0,0-.39,0C119.77,73.48,119.88,73.5,120,73.51Z"/></svg>