<svg xmlns="http://www.w3.org/2000/svg" viewBox="0 0 492.63 693.47"><defs><style>.cls-1{fill:#faad1c;}.cls-2{fill:#ffcc04;}.cls-3{fill:#02a1cd;}.cls-4{fill:#ed1651;}.cls-5{fill:#514c49;}.cls-6{fill:#00a1cd;}.cls-10,.cls-7,.cls-9{fill:none;stroke-miterlimit:10;}.cls-7{stroke:#188ab2;stroke-width:18.8px;}.cls-10,.cls-7{stroke-linecap:round;}.cls-8{fill:#a2cced;}.cls-10,.cls-9{stroke:#0d4161;}.cls-9{stroke-width:3.08px;}.cls-10{stroke-width:6.16px;}.cls-11{fill:#0d4161;}</style></defs><g id="Layer_1" data-name="Layer 1"><polyline class="cls-1" points="125.02 671.52 149.74 671.52 149.74 565.05 348.8 565.05 348.8 671.52 374.05 671.52 374.05 555.1 373.64 555.1 373.64 532.41 125.02 532.41 125.02 555.42"/><rect class="cls-2" x="103.85" y="481.76" width="289.35" height="57.86" rx="17.49"/><path class="cls-3" d="M242.22,495.33l-20.6,126.1H192.33L167.46,479.56"/><path class="cls-4" d="M195.91,654.22l22.57,14.46,7-73.18H187.15Z"/><path class="cls-5" d="M243.42,671.52a38.69,38.69,0,1,0-77.38,0"/><path class="cls-3" d="M330.72,481.33l-21.6,140.1H279.83L255,479.56"/><path class="cls-4" d="M283.41,654.22,306,668.68l7-73.18h-38.3Z"/><path class="cls-5" d="M334.92,671.52a38.69,38.69,0,1,0-77.38,0"/><path class="cls-6" d="M31.07,330c0-93.42,46.41-184.1,106.47-248.81,154.87-166.83,327.31,74,327.31,256.54,0,134.7-106.63,167.36-213.34,167.36S31.07,464.68,31.07,330Z"/><path class="cls-7" d="M158.63,469.65S72,429.57,64.47,380.87c-3.29-18.73,10.37-74.07,10.37-74.07"/><path class="cls-8" d="M199.74,526.11a5.72,5.72,0,0,0,7.17-8.83l-15.18-12.34a22.77,22.77,0,0,0,4.26-2.57l18.21,14.78a5.72,5.72,0,0,0,7.17-8.84l-18.2-14.78a23.19,23.19,0,0,0,1.52-4.22L220.33,502c2.19,1.78,5.6,1.24,7.57-1.19a5.44,5.44,0,0,0-.39-7.65L201.44,472a17.71,17.71,0,0,0-2.28-2.39l6.36,2.36a5.84,5.84,0,0,0,7.13-3.36h0a5.07,5.07,0,0,0-2.58-7l-34-12.65a5.25,5.25,0,0,0-4,.21c-7.78-2.42-17.08.38-23,7.68-7.55,9.29-6.87,22.46,1.5,29.26l20.66,16.78c.15.12.31.21.46.33s.12.14.19.2Z"/><path class="cls-7" d="M337,468.43s86.65-40.08,94.16-88.78c3.29-18.74-10.38-74.07-10.38-74.07"/><path class="cls-8" d="M295.91,524.89c-2.19,1.78-5.59,1.24-7.57-1.19a5.45,5.45,0,0,1,.4-7.65l15.18-12.33a22.82,22.82,0,0,1-4.26-2.58l-18.21,14.79a5.73,5.73,0,0,1-7.18-8.84l18.21-14.79a22.84,22.84,0,0,1-1.52-4.21l-15.64,12.7a5.45,5.45,0,0,1-7.57-1.18c-2-2.43-1.8-5.88.39-7.65l26.07-21.18a17.71,17.71,0,0,1,2.28-2.39l-6.36,2.37A5.85,5.85,0,0,1,283,467.4h0a5.08,5.08,0,0,1,2.58-7l34-12.65a5.3,5.3,0,0,1,4,.22c7.78-2.42,17.08.37,23,7.68,7.55,9.29,6.87,22.45-1.5,29.25L324.46,501.7c-.15.12-.31.22-.46.33a1.89,1.89,0,0,1-.2.2Z"/><path class="cls-9" d="M309.81,157.48c0,11.1-10.47,20-23.39,20s-23.39-9-23.39-20"/><path class="cls-9" d="M237.74,157.48c0,11.1-10.47,20-23.39,20s-23.39-9-23.39-20"/><path class="cls-10" d="M185.21,137s10.57-21.42,33.87-8.79"/><path class="cls-10" d="M311.42,137s-7.69-21.83-30.94-9.24"/><path class="cls-11" d="M286.5,202.13s-6.47,12.11-38.26,11.74-34.32-11.74-34.32-11.74Z"/></g></svg>