<svg xmlns="http://www.w3.org/2000/svg" viewBox="0 0 558.95 423.72"><defs><style>.cls-1,.cls-10,.cls-12,.cls-8,.cls-9{fill:none;stroke-linecap:round;stroke-miterlimit:10;}.cls-1,.cls-8{stroke:#0f8ab2;}.cls-1{stroke-width:10.69px;}.cls-2{fill:#a2cced;}.cls-3{fill:#00a1cd;}.cls-4{fill:#ed1651;}.cls-5{fill:#504b48;}.cls-6{fill:#fff;}.cls-7{fill:#0d4060;}.cls-8{stroke-width:6.33px;}.cls-12,.cls-9{stroke:#0d4060;}.cls-9{stroke-width:2.11px;}.cls-10{stroke:#231f20;stroke-width:1.87px;}.cls-11{fill:#56c5d0;}.cls-12{stroke-width:3.2px;}</style></defs><g id="Layer_1" data-name="Layer 1"><path class="cls-1" d="M228.54,113.72c13,74.55,63.38,84,63.38,84"/><path class="cls-2" d="M207.69,79.07A3.26,3.26,0,0,1,214,77.69l2.37,10.88a13.7,13.7,0,0,1,2.4-1.51L216,74a3.26,3.26,0,0,1,6.33-1.38l2.84,13a13.07,13.07,0,0,1,2.53.31l-2.44-11.2a3.26,3.26,0,0,1,6.33-1.38l4.07,18.67a9.53,9.53,0,0,1,.63,1.77l.43-3.84a3.33,3.33,0,0,1,3.53-2.76h0a2.88,2.88,0,0,1,2.88,3.1l-2.29,20.52a3,3,0,0,1-1.14,2,12.41,12.41,0,0,1-9.79,9.72c-6.66,1.45-13.17-2.26-14.48-8.26l-3.23-14.79c0-.11,0-.21-.05-.32s0-.1,0-.15Z"/><path class="cls-3" d="M256.9,227c-1.78-64,27.18-127,65.65-172.46C421.75-62.6,540.31,99.3,543.77,224.37,546.33,316.68,476.47,341,405.93,343S259.46,319.34,256.9,227Z"/><polyline class="cls-3" points="441.77 323.65 430.98 414.89 418.05 414.89 403.07 328.1"/><polyline class="cls-3" points="387.2 321.56 376.41 412.8 363.48 412.8 350.59 325.93"/><polygon class="cls-4" points="418.47 414.89 412.35 379.18 435.83 379.18 431.39 411.94 418.47 414.89"/><polygon class="cls-4" points="364.33 414.89 358.2 379.18 381.68 379.18 377.25 411.94 364.33 414.89"/><path class="cls-5" d="M388.13,417a21.74,21.74,0,0,1,43.48,0"/><path class="cls-5" d="M377.15,417a21.75,21.75,0,0,0-43.49,0"/><path class="cls-6" d="M344.15,109.64c0-9.51-8.22-17.22-18.36-17.22s-18.37,7.71-18.37,17.22"/><path class="cls-7" d="M330.23,109.64a8,8,0,0,0-16,0"/><path class="cls-6" d="M361.83,109.64c0-9.51,8.27-17.22,18.47-17.22s18.47,7.71,18.47,17.22"/><path class="cls-7" d="M381.4,109.64a8,8,0,1,0-16,0"/><path class="cls-7" d="M397.13,101.29l10-4-8.87,7c.12.4.2.77.28,1.15l8.69-1.09-8.3,3.5a15.9,15.9,0,0,1,.09,1.82C394.38,95,385.08,93,382.42,92.74c8.52.24,12.7,4.39,14.71,8.55"/><path class="cls-7" d="M298.73,104.36l8.69,1.09c.08-.38.16-.75.27-1.15l-8.87-7,10,4c2-4.16,6.19-8.31,14.71-8.55-2.66.26-12,2.21-16.6,16.94a15.9,15.9,0,0,1,.09-1.82Z"/><path class="cls-8" d="M216.49,232.21c-14.56,49.33-55.75,27.62-55.75,27.62"/><path class="cls-3" d="M134,115.68l-17.47-.5a57.88,57.88,0,0,0-59.49,56.21l-.11,4.06c-.44,4-.69,8.09-.8,12l-3,107.32a57.87,57.87,0,0,0,56.21,59.49l17.47.49a57.87,57.87,0,0,0,59.49-56.21l.11-4.05c.44-4,.69-8.09.8-12l3-107.31A57.87,57.87,0,0,0,134,115.68Z"/><path class="cls-7" d="M129.11,214.43a4.62,4.62,0,0,1-2.44-8.58c2.92-1.8,4.55-3.83,10.15-3.55,5.41.27,11.53,2.48,14,4.33a4.62,4.62,0,0,1-3.09,8.29L144,213.57a17.55,17.55,0,0,0-10.89-.31Z"/><path class="cls-9" d="M104.57,161.29s7.53,5.89,16.16,12.94"/><path class="cls-9" d="M173,162.45l-16.29,11.7"/><path class="cls-10" d="M129.94,181.07A26.42,26.42,0,1,1,104.23,154,26.42,26.42,0,0,1,129.94,181.07Z"/><path class="cls-10" d="M200.75,183A26.42,26.42,0,1,1,175,155.84,26.41,26.41,0,0,1,200.75,183Z"/><path class="cls-10" d="M130,177.92s8.93-11.69,17.19.46"/><path class="cls-6" d="M152.39,188.66c.08-8,7.05-14.37,15.56-14.28S183.3,181,183.21,189"/><path class="cls-6" d="M92.76,187.79c.09-8,7.09-14.37,15.65-14.27s15.43,6.63,15.34,14.61"/><path class="cls-7" d="M112.23,173.34a8.66,8.66,0,0,0,11.27,12A14.84,14.84,0,0,0,112.23,173.34Z"/><path class="cls-7" d="M171.71,175.12a8.65,8.65,0,0,0,11.26,12A14.85,14.85,0,0,0,171.71,175.12Z"/><path class="cls-8" d="M25,225.52c7.25,41.65,47,40.73,47,40.73"/><path class="cls-2" d="M12.35,204.29a2,2,0,0,1,1.65-2.2,2,2,0,0,1,2.36,1.42l1.33,6.88a8.11,8.11,0,0,1,1.54-.91l-1.6-8.25a2,2,0,0,1,4-.78l1.6,8.25a9.23,9.23,0,0,1,1.59.23l-1.38-7.09a2.05,2.05,0,0,1,4-.77l2.29,11.81a6.23,6.23,0,0,1,.37,1.13l.33-2.41a2.08,2.08,0,0,1,2.26-1.69h0a1.82,1.82,0,0,1,1.77,2l-1.74,12.89A1.89,1.89,0,0,1,32,226a7.81,7.81,0,0,1-6.31,6c-4.21.82-8.26-1.62-9-5.41l-1.82-9.37,0-.2,0-.09Z"/><path class="cls-2" d="M232.55,213.88a2,2,0,0,0-3.77-1.55l-2.67,6.48a8.41,8.41,0,0,0-1.32-1.2l3.2-7.77a2.05,2.05,0,0,0-3.78-1.55l-3.2,7.77a8.64,8.64,0,0,0-1.6-.09l2.75-6.67a2.05,2.05,0,0,0-3.77-1.56l-4.58,11.13a6.54,6.54,0,0,0-.59,1l.16-2.43a2.1,2.1,0,0,0-1.89-2.1h0a1.83,1.83,0,0,0-2.13,1.61l-.84,13a1.91,1.91,0,0,0,.49,1.36,7.8,7.8,0,0,0,5,7.1c4,1.64,8.41.05,9.88-3.52l3.63-8.82c0-.07.05-.13.07-.19s0-.06.05-.09Z"/><polyline class="cls-3" points="125.6 328.01 135.12 405.36 144.64 405.36 154.66 318.35"/><polygon class="cls-11" points="143.97 415.14 134.99 415.14 131.37 372.62 148.75 372.62 143.97 415.14"/><path class="cls-5" d="M135.12,416.34a14,14,0,0,1,28,0"/><polyline class="cls-3" points="89.11 327.77 98.63 405.36 108.15 405.36 116.1 328.01"/><polygon class="cls-11" points="108.14 415.14 99.16 415.14 94.34 372.62 111.72 372.62 108.14 415.14"/><path class="cls-5" d="M98.48,416.34a14,14,0,0,1,28,0"/><path class="cls-1" d="M510.48,101.68c-6.17,92.2-60.25,89.93-60.25,89.93"/><path class="cls-2" d="M529.31,67.88a3.25,3.25,0,0,0-6.37-1.16l-2,11a13.21,13.21,0,0,0-2.46-1.41l2.38-13.13A3.26,3.26,0,0,0,514.51,62L512.13,75.1a13.8,13.8,0,0,0-2.52.4l2-11.28a3.25,3.25,0,0,0-6.37-1.16l-3.41,18.81a10.64,10.64,0,0,0-.56,1.79l-.57-3.82a3.31,3.31,0,0,0-3.63-2.63h0a2.88,2.88,0,0,0-2.77,3.19l3,20.43a3,3,0,0,0,1.21,1.94,12.43,12.43,0,0,0,10.14,9.37c6.7,1.21,13.08-2.73,14.17-8.77l2.7-14.9c0-.11,0-.21,0-.32s0-.1,0-.16Z"/><path class="cls-7" d="M340.44,145.9a7.89,7.89,0,0,1-5-14.38c4.8-3.37,7.38-7,17-7.06,9.25-.07,19.9,3.11,24.34,6,6.53,4.29,3.44,14.19-4.47,14.44L365.67,143a29.92,29.92,0,0,0-18.59.54Z"/><path class="cls-12" d="M388.7,79.57s-4.41-16.54-22,10.29"/><path class="cls-12" d="M340.83,90.26S327,66.43,319.69,80.12"/></g></svg>