<svg id="Layer_1" data-name="Layer 1" xmlns="http://www.w3.org/2000/svg" viewBox="0 0 274.84 248.84"><defs><style>.cls-1,.cls-3,.cls-7{fill:none;stroke-miterlimit:10;}.cls-1{stroke:#0f8ab2;stroke-width:4.81px;}.cls-1,.cls-7{stroke-linecap:round;}.cls-2{fill:#a2cced;}.cls-3{stroke:#88b4d3;stroke-width:1.23px;}.cls-4{fill:#00a1cd;}.cls-5{fill:#ed1651;}.cls-6{fill:#504b48;}.cls-7{stroke:#0d4060;stroke-width:1.92px;}.cls-8{fill:#0d4060;}.cls-9{fill:#fff;}</style></defs><path class="cls-1" d="M36.38,114.57c2.86.72,14.31,16.48,22.76,16.49,12.48,0,17.74-8.25,21.43-15.67"/><path class="cls-2" d="M42.42,113.69c.41-2.55-2.63-5.15-4.05-6.79-2.89-3.31-4.95-6.69-4.82-11.11a4.74,4.74,0,0,0-.38-2.7c-.83-1.3-2.89-1.23-4.06-.23-1.45,1.25-2,3.57-2.13,5.41,0,.76.12,5,1.11,5.27a41.26,41.26,0,0,0-5.65-1.38c-3.67-.64-5.57-.94-6.6.17a3.55,3.55,0,0,0-.22,4A4.5,4.5,0,0,0,17.38,108a3.76,3.76,0,0,0-1.29,2,3.72,3.72,0,0,0,.7,3.27,4.11,4.11,0,0,0,1.25,1,2.85,2.85,0,0,0-1.22,2,3.48,3.48,0,0,0,1,2.54c2.8,3.33,11.27,3.64,14,3.67a56.41,56.41,0,0,0,7.45-.41,2.43,2.43,0,0,0,2.1-2Z"/><path class="cls-3" d="M26.89,104.8s2.24,2.53,1.1,3.73-11-.46-11-.46"/><path class="cls-3" d="M27,109.18s4.85,3.44,1.6,5.43c-1.41.86-11-.46-11-.46"/><path class="cls-3" d="M27.09,115.07s2.24,2.52,1.1,3.72-8.54,0-8.54,0"/><polyline class="cls-4" points="170.63 233.76 178.22 183.65 156.3 183.65 163.95 235.21 169.79 231.51"/><polyline class="cls-4" points="132.39 231.11 122.86 185.09 146.63 185.09 138.09 233.76 129.92 231.11"/><polygon class="cls-5" points="129.75 217.71 141.22 217.71 138.42 234.17 131.44 234.17 129.75 217.71"/><polygon class="cls-5" points="161.14 218.36 172.61 218.36 170.91 234.82 163.93 234.82 161.14 218.36"/><path class="cls-6" d="M117.4,235.21a11.73,11.73,0,1,1,23.46,0"/><path class="cls-6" d="M162,235.21a11.73,11.73,0,1,1,23.46,0"/><path class="cls-1" d="M223.29,120.45s19.89,7,13.41,44.68"/><path class="cls-2" d="M230.19,162.45c1.11-2.21,4-3.62,7.27-3.32,4.21.37,7.6,3.36,7.54,6.65l-.15,8.11c0,.06,0,.11,0,.17s0,.06,0,.09l-.2,10.94c0,.86-.93,1.48-2,1.39a2,2,0,0,1-2-1.74l.1-6a8.62,8.62,0,0,1-1.65.36l-.13,7.15c0,.86-.93,1.48-2,1.38a2,2,0,0,1-2-1.74l.13-7.14a8.78,8.78,0,0,1-1.48-.59l-.11,6.14a1.69,1.69,0,0,1-2,1.39,2,2,0,0,1-2-1.74l.19-10.23a4.9,4.9,0,0,1-.13-1l-.8,1.89a2,2,0,0,1-2.51.81h0c-1.05-.34-1.63-1.27-1.3-2.06"/><path class="cls-4" d="M70.88,125.29c0-34,16.9-67.06,38.78-90.62,56.4-60.76,119.21,27,119.21,93.43,0,49.06-38.84,61-77.7,61S70.88,174.34,70.88,125.29Z"/><path class="cls-7" d="M127,66.2s3.69-7.47,11.79-3.06"/><path class="cls-7" d="M174.35,66.2s-2.69-7.61-10.8-3.21"/><path class="cls-8" d="M164.12,88.56s-2.28,7.32-13.51,7.1-12.11-7.1-12.11-7.1Z"/><path class="cls-9" d="M156.12,79.52c0-5.11,4.41-9.25,9.86-9.25s9.87,4.14,9.87,9.25"/><path class="cls-8" d="M161.74,79.52a4.3,4.3,0,0,1,8.59,0"/><path class="cls-9" d="M126.78,79.52c0-5.11,4.44-9.25,9.92-9.25s9.92,4.14,9.92,9.25"/><path class="cls-8" d="M132.41,79.52a4.29,4.29,0,0,1,8.58,0"/><path class="cls-8" d="M127.64,75.16l-5.13-2.27,4.55,4c-.06.23-.1.45-.15.66l-4.44-.62,4.25,2a9.52,9.52,0,0,0,0,1c2.38-8.36,7.15-9.47,8.51-9.62C130.81,70.44,128.67,72.79,127.64,75.16Z"/><path class="cls-8" d="M135.18,70.3c.13,0,.24,0,.38,0A3.25,3.25,0,0,0,135.18,70.3Z"/><path class="cls-8" d="M180.31,76.9l-4.45.62c0-.22-.09-.43-.14-.66l4.54-4-5.13,2.26a7.85,7.85,0,0,0-7.53-4.85c1.36.14,6.12,1.26,8.5,9.62,0,0,0-.41,0-1Z"/><path class="cls-8" d="M165.6,70.3a3.49,3.49,0,0,0-.39,0C165.35,70.27,165.46,70.29,165.6,70.3Z"/></svg>