<svg id="Layer_1" data-name="Layer 1" xmlns="http://www.w3.org/2000/svg" viewBox="0 0 274.84 298.1"><defs><style>.cls-1{fill:#00a1cd;}.cls-2{fill:#ed1651;}.cls-3{fill:#504b48;}.cls-4,.cls-6{fill:none;stroke-linecap:round;stroke-miterlimit:10;}.cls-4{stroke:#0f8ab2;stroke-width:4.81px;}.cls-5{fill:#a2cced;}.cls-6{stroke:#0d4060;stroke-width:1.92px;}.cls-7{fill:#0d4060;}.cls-8{fill:#fff;}.cls-9{fill:#ffcb05;}</style></defs><polyline class="cls-1" points="159.95 281.97 167.54 231.86 145.63 231.86 153.27 283.42 159.12 279.72"/><polyline class="cls-1" points="121.72 279.32 112.18 233.3 135.96 233.3 127.41 281.97 119.25 279.32"/><polygon class="cls-2" points="119.08 265.92 130.55 265.92 127.74 282.38 120.77 282.38 119.08 265.92"/><polygon class="cls-2" points="150.47 266.57 161.94 266.57 160.24 283.03 153.25 283.03 150.47 266.57"/><path class="cls-3" d="M106.73,283.42a11.73,11.73,0,1,1,23.46,0"/><path class="cls-3" d="M151.28,283.42a11.74,11.74,0,1,1,23.47,0"/><path class="cls-4" d="M65.17,170.61s-21.06-.56-26.38-38.47"/><path class="cls-5" d="M45.8,132.71c-.38,2.45-2.67,4.66-5.91,5.39-4.12.92-8.26-.9-9.21-4l-2.33-7.77,0-.17,0-.08-3.14-10.49c-.25-.82.43-1.69,1.51-1.93a2,2,0,0,1,2.41,1l1.71,5.71a8.33,8.33,0,0,1,1.46-.85l-2-6.85c-.24-.82.44-1.69,1.51-1.93a2,2,0,0,1,2.41,1l2,6.85a10.37,10.37,0,0,1,1.59.1L36,112.87c-.25-.82.43-1.69,1.51-1.93a2,2,0,0,1,2.41,1l2.93,9.8a5.63,5.63,0,0,1,.44.93l.18-2a2,2,0,0,1,2.15-1.54h0c1.1,0,1.94.72,1.86,1.57"/><path class="cls-4" d="M211.88,170.29s21.07-.56,26.39-38.47"/><path class="cls-5" d="M231.25,132.39c.38,2.44,2.67,4.65,5.91,5.38,4.12.92,8.27-.89,9.21-4L248.7,126c0-.06,0-.11,0-.17l0-.08,3.15-10.48c.24-.83-.44-1.7-1.51-1.94a2,2,0,0,0-2.41,1.06l-1.71,5.71a8.85,8.85,0,0,0-1.47-.86l2.05-6.84c.25-.83-.43-1.7-1.51-1.94a2,2,0,0,0-2.41,1.06l-2,6.84a9.3,9.3,0,0,0-1.59.11l1.77-5.89c.24-.82-.44-1.69-1.51-1.93a2,2,0,0,0-2.41,1l-2.94,9.81a4.53,4.53,0,0,0-.43.92l-.19-2a2,2,0,0,0-2.14-1.55h0c-1.11,0-2,.72-1.87,1.58"/><path class="cls-1" d="M60.21,173.5c0-34,16.9-67,38.78-90.62,56.4-60.76,119.2,27,119.2,93.43,0,49.06-38.83,60.95-77.7,60.95S60.21,222.55,60.21,173.5Z"/><path class="cls-6" d="M116.32,114.41s3.69-7.47,11.8-3.06"/><path class="cls-6" d="M163.68,114.41s-2.7-7.61-10.8-3.21"/><path class="cls-7" d="M153.44,136.77s-2.28,7.32-13.5,7.1-12.12-7.1-12.12-7.1Z"/><path class="cls-8" d="M145.44,127.73c0-5.11,4.42-9.25,9.87-9.25s9.86,4.14,9.86,9.25"/><path class="cls-7" d="M151.07,127.73a4.29,4.29,0,1,1,8.58,0"/><path class="cls-8" d="M116.11,127.73c0-5.11,4.44-9.25,9.92-9.25s9.92,4.14,9.92,9.25"/><path class="cls-7" d="M121.74,127.73a4.29,4.29,0,1,1,8.58,0"/><path class="cls-7" d="M117,123.37l-5.13-2.26,4.54,4c0,.23-.1.45-.14.66l-4.45-.62,4.25,2c-.05.63,0,1,0,1,2.38-8.36,7.14-9.47,8.5-9.62A7.87,7.87,0,0,0,117,123.37Z"/><path class="cls-7" d="M124.5,118.51c.14,0,.25,0,.39,0A3.49,3.49,0,0,0,124.5,118.51Z"/><path class="cls-7" d="M169.63,125.11l-4.45.62c0-.22-.08-.43-.14-.66l4.55-4-5.13,2.26a7.86,7.86,0,0,0-7.54-4.85c1.36.15,6.13,1.26,8.51,9.62a9.45,9.45,0,0,0-.05-1Z"/><path class="cls-7" d="M154.92,118.51a3.41,3.41,0,0,0-.38,0C154.67,118.48,154.79,118.5,154.92,118.51Z"/><path class="cls-9" d="M37.23,76.72A4.23,4.23,0,0,1,37.87,74c1.09-1.66,2.72-2.14,4.91-1.42.41.14,1.54.66,3.39,1.55L52,77.72a.78.78,0,0,0,.61-.3,2.52,2.52,0,0,0-.93-1.08l-.94-.71q-.93-1.17-2.7-3.54a4.3,4.3,0,0,1-.57-4.36A2.6,2.6,0,0,1,50,66.44a13,13,0,0,1,3.68,1.24,13,13,0,0,1,2.33,1.24,3,3,0,0,0,1.62,1c.27-.27.29-.49.06-.67q-6.91-5.11-8.9-9.18a3.79,3.79,0,0,1-.49-2.2,4,4,0,0,1,.51-1.63A4.41,4.41,0,0,1,52,54a4.73,4.73,0,0,1,3.67.85,30.52,30.52,0,0,1,3,2.74q2.79,2.63,8.3,7.9,4.85,4.71,6,8.82A4.12,4.12,0,0,1,72.22,77a7.08,7.08,0,0,1-2.76,2.51A5.2,5.2,0,0,1,66,79.37a16.31,16.31,0,0,1-3.25-1.65A25.68,25.68,0,0,0,59.66,76a.88.88,0,0,0-.62.39q.42.42,3.66,3A18.16,18.16,0,0,1,66,82.66a3.91,3.91,0,0,1,.08,4.41,6.67,6.67,0,0,1-6.8,3.52,15.77,15.77,0,0,1-6.19-1.39,42.71,42.71,0,0,1-7.72-4.14Q37.51,79.81,37.23,76.72Z"/><path class="cls-9" d="M78.4,45.41a3.73,3.73,0,0,1,.88.85,4.38,4.38,0,0,1,1,3.74,4.19,4.19,0,0,1-1.76,3,3.22,3.22,0,0,0-.91.74,11.82,11.82,0,0,1,1.43,2.08,1.51,1.51,0,0,0,1.54.53,4.09,4.09,0,0,1,2-1.71,2.46,2.46,0,0,1,2.72.45,5,5,0,0,1,1.5,3.24,9.31,9.31,0,0,1-.56,4.33,8.54,8.54,0,0,1-2.6,3.65,9.18,9.18,0,0,1-3.54,2,8.52,8.52,0,0,1-3.13-.2q-3-1-8.59-7.45a80.16,80.16,0,0,1-6.76-9.09q-2-3.12-1.52-5l4.53-4.79a15.18,15.18,0,0,1,2.2-2.36c1.55-1.34,2.79-1.73,3.73-1.2a3.87,3.87,0,0,1,1.1.91,3.43,3.43,0,0,1,.85,2.9,5.29,5.29,0,0,1-2,3.08l-.65.57a5.07,5.07,0,0,0,1,1.61c.67.86,1.05,1.36,1.13,1.49a.93.93,0,0,0,1.08,0,4.51,4.51,0,0,1,1.58-2.56A4,4,0,0,1,78.4,45.41Z"/><path class="cls-9" d="M103.21,45.9l0,0q1.26,3.15,0,5.1a15.1,15.1,0,0,1-4.46,3.77q-7.27,4-11.62-3.83l-1.12-2c-.14-.25-.34-.65-.61-1.19s-.36-.72-.46-.91a64.16,64.16,0,0,1-5.54-11.4,6,6,0,0,1,.09-3.19,5.15,5.15,0,0,1,2.05-2.17c.24-.16.51-.32.81-.49A3.49,3.49,0,0,1,84.79,29a11.31,11.31,0,0,1,1.92,1.05,26.83,26.83,0,0,1,3.77,5.44c.8,1.44,1.9,3.77,3.33,7,1,2.23,1.59,3.37,1.81,3.43a8.15,8.15,0,0,1,2.86-2.43,1.92,1.92,0,0,1,.74-.28,2.79,2.79,0,0,1,2.33.73,9.63,9.63,0,0,1,1.7,2Z"/><path class="cls-9" d="M120.75,40.11l0,0c.41,2.23.07,3.9-1,5A15.41,15.41,0,0,1,114.61,48q-7.92,2.52-10.65-6l-.7-2.2c-.09-.28-.21-.7-.37-1.29s-.21-.78-.27-1a64.45,64.45,0,0,1-3.21-12.27,6.26,6.26,0,0,1,.72-3.11,5.17,5.17,0,0,1,2.44-1.72c.26-.11.56-.22.88-.32A3.41,3.41,0,0,1,106,20a11.24,11.24,0,0,1,1.68,1.4,26.92,26.92,0,0,1,2.64,6.07c.5,1.57,1.13,4.08,1.89,7.51.54,2.38.91,3.62,1.1,3.72a8.4,8.4,0,0,1,3.29-1.83,1.85,1.85,0,0,1,.79-.12,2.84,2.84,0,0,1,2.14,1.17,10.13,10.13,0,0,1,1.27,2.31Z"/><path class="cls-9" d="M153.56,27.38A20.26,20.26,0,0,1,151,37.09a13.56,13.56,0,0,1-8.66,6.79,13.22,13.22,0,0,1-5.49-.85c-1.62-.65-2.46-1.47-2.52-2.47q-.47-10.49-.26-20.13c.05-2.38.14-4.07.27-5.09q1-2.1,6.36-2a18.65,18.65,0,0,1,5.35.83,11.92,11.92,0,0,1,4.39,3.86A15.07,15.07,0,0,1,153.56,27.38Zm-9.72-3.75a1.51,1.51,0,0,0-1.05-.69,1.55,1.55,0,0,0-.59.14,2.56,2.56,0,0,1-.4.15,76.08,76.08,0,0,1,.35,9.27,6,6,0,0,0,1.95-2.27,6.87,6.87,0,0,0,.83-3.08A5.38,5.38,0,0,0,143.84,23.63Z"/><path class="cls-9" d="M177.14,43.85l0,0a9.61,9.61,0,0,1-4.82,3.86,9.92,9.92,0,0,1-6.22.16,11.32,11.32,0,0,1-8-7.16,16,16,0,0,1-.19-10.16A23.57,23.57,0,0,1,159.68,26q4.86-9.27,11.93-8.61a7.12,7.12,0,0,1,1.31.24,10.5,10.5,0,0,1,5.3,3.66,10.14,10.14,0,0,1,2.46,6q.36,6.82-.63,10.3a23.49,23.49,0,0,1-3,6.26Zm-8.59-5.37v0c.77.08,1.53-1.22,2.28-3.88a20.79,20.79,0,0,0,.78-4.37c.09-1.37,0-2.13-.33-2.27-.51-.31-1.19.15-2,1.38a14.73,14.73,0,0,0-2,4.3Q166,38.18,168.55,38.48Z"/><path class="cls-9" d="M208.66,43.34l0,0c-1.37,2.72-2.75,5.23-4.16,7.53q-6.5,10.59-10.81,9.75a4.27,4.27,0,0,1-1.36-.56,11,11,0,0,1-2-1.67c-.74-1.3-.25-5.93,1.46-13.86A26.15,26.15,0,0,1,189.33,50a12,12,0,0,1-3.52,3.94,3.7,3.7,0,0,1-2.13.51,3.46,3.46,0,0,1-2.1-.66q-2.61-2-1.7-5.7a26.34,26.34,0,0,1,3.27-6.84q5.19-8.48,7.68-10.95a7.27,7.27,0,0,1,4.63-2.09,4.84,4.84,0,0,1,3,.72A5.91,5.91,0,0,1,199.76,30c.87,1.49.87,4.33,0,8.52a49.36,49.36,0,0,1-1.58,5.8q1-2.42,1.81-4.23a42.41,42.41,0,0,1,2.25-4.55,4.81,4.81,0,0,1,2.53-2.18,4,4,0,0,1,3.59.51q3.26,2,1.84,6.09Q209.9,40.85,208.66,43.34Z"/><path class="cls-9" d="M223.41,63.31a3.49,3.49,0,0,1-.78.94A4.39,4.39,0,0,1,219,65.5,4.15,4.15,0,0,1,215.84,64a3.13,3.13,0,0,0-.8-.86,10.72,10.72,0,0,1-2,1.56,1.55,1.55,0,0,0-.43,1.58,4.07,4.07,0,0,1,1.85,1.87,2.51,2.51,0,0,1-.27,2.75,5,5,0,0,1-3.13,1.7,9.51,9.51,0,0,1-4.37-.26,8.57,8.57,0,0,1-3.81-2.36,9.16,9.16,0,0,1-2.19-3.4,8.73,8.73,0,0,1,0-3.13q.78-3,6.86-9.08A81.5,81.5,0,0,1,216.19,47q3-2.22,4.89-1.85l5.07,4.2a15.89,15.89,0,0,1,2.51,2c1.43,1.46,1.91,2.67,1.44,3.65a4,4,0,0,1-.84,1.16,3.41,3.41,0,0,1-2.83,1,5.27,5.27,0,0,1-3.21-1.74c-.25-.27-.46-.47-.6-.62a5,5,0,0,0-1.55,1.09c-.81.72-1.28,1.13-1.41,1.22a.93.93,0,0,0,.08,1.08,4.48,4.48,0,0,1,2.65,1.41A4,4,0,0,1,223.41,63.31Z"/><path class="cls-9" d="M221.22,82.13A5.34,5.34,0,0,1,219.47,84a6.68,6.68,0,0,1-2.31,1c-1.62-.07-3.07-1-4.35-2.93-.27-.41-.53-.84-.77-1.28a5.39,5.39,0,0,1,1.93-5,9,9,0,0,0,1.29-1,4.93,4.93,0,0,1,5.12,1.41,18.35,18.35,0,0,1,1.29,2.82A3.67,3.67,0,0,1,221.22,82.13Zm20.42-11.8h.06a5.3,5.3,0,0,1-1.89,2.17,18.12,18.12,0,0,1-3.64,1.63,16,16,0,0,0-3.74,1.75,58.48,58.48,0,0,0-6.9,3.52c-.84.28-1.78-.15-2.82-1.31a8.33,8.33,0,0,1-.84-1,4.2,4.2,0,0,1-.84-3.27c.17-.87,1.05-1.91,2.64-3.11a24.3,24.3,0,0,0,2.17-1.32q1.24-.84,3.46-2.6c1.48-1.17,2.6-2,3.35-2.53A17,17,0,0,1,237,62.08l-.05.13a6.7,6.7,0,0,1,1.14-.06,1.9,1.9,0,0,1,1.25.41,5,5,0,0,1,.9,1,26.9,26.9,0,0,1,1.47,3.08A5.47,5.47,0,0,1,241.64,70.33Z"/></svg>