<svg id="Layer_1" data-name="Layer 1" xmlns="http://www.w3.org/2000/svg" viewBox="0 0 213.59 252"><defs><style>.cls-1,.cls-6{fill:none;stroke-linecap:round;stroke-miterlimit:10;}.cls-1{stroke:#0f8ab2;stroke-width:4.81px;}.cls-2{fill:#00a1cd;}.cls-3{fill:#ed1651;}.cls-4{fill:#504b48;}.cls-5{fill:#a2cced;}.cls-6{stroke:#0d4060;stroke-width:2.03px;}.cls-7{fill:#0d4060;}.cls-8{fill:#fff;}</style></defs><path class="cls-1" d="M171.74,129.52s17,3.36,17.61,40.67"/><path class="cls-2" d="M33.2,132.08c0-32.46,15.55-64,35.68-86.45,51.9-58,109.69,25.72,109.69,89.13,0,46.81-35.73,58.15-71.49,58.15S33.2,178.88,33.2,132.08Z"/><polyline class="cls-2" points="122.22 230.37 129.2 184.27 109.04 184.27 116.08 231.7 121.45 228.3"/><polyline class="cls-2" points="87.04 227.93 78.26 185.59 100.14 185.59 92.28 230.37 84.77 227.93"/><polygon class="cls-3" points="84.61 215.6 95.16 215.6 92.58 230.75 86.16 230.75 84.61 215.6"/><polygon class="cls-3" points="113.49 216.21 124.05 216.21 122.48 231.35 116.06 231.35 113.49 216.21"/><path class="cls-4" d="M73.4,231.7a10.8,10.8,0,1,1,21.59,0"/><path class="cls-4" d="M113.08,231.7a10.8,10.8,0,1,1,21.59,0"/><path class="cls-5" d="M181.66,165.37c.88-2,3.33-3.32,6.23-3.18,3.69.17,6.77,2.66,6.84,5.53l.17,7.09a.75.75,0,0,1,0,.15s0,0,0,.08l.24,9.58c0,.75-.76,1.33-1.73,1.28a1.72,1.72,0,0,1-1.78-1.45l-.13-5.21a7.24,7.24,0,0,1-1.44.38l.16,6.25c0,.75-.76,1.33-1.73,1.29a1.75,1.75,0,0,1-1.79-1.45l-.15-6.25a8.77,8.77,0,0,1-1.31-.45l.13,5.37c0,.75-.76,1.33-1.72,1.28a1.74,1.74,0,0,1-1.79-1.44l-.22-8.95a3.77,3.77,0,0,1-.15-.88l-.63,1.68a1.77,1.77,0,0,1-2.17.81h0c-.93-.26-1.47-1-1.21-1.76"/><path class="cls-6" d="M76.62,72s-.26-8.78,9.46-8.68"/><path class="cls-6" d="M131.88,71.87s1.49-8.39-8.23-8.55"/><path class="cls-7" d="M92,97.41S94.4,89.69,106.23,90,119,97.46,119,97.46Z"/><path class="cls-8" d="M111.58,83.42c0-5.39,4.65-9.75,10.39-9.75s10.4,4.36,10.4,9.75"/><path class="cls-7" d="M117.51,83.42a4.52,4.52,0,1,1,9,0"/><path class="cls-8" d="M80.66,83.42c0-5.39,4.68-9.75,10.45-9.75s10.46,4.36,10.46,9.75"/><path class="cls-7" d="M86.59,83.42a4.52,4.52,0,1,1,9,0"/><path class="cls-7" d="M90.16,73.68h0Z"/><path class="cls-7" d="M122.88,73.68h0Z"/><path class="cls-7" d="M80.88,78.82l-5.13-2.26,4.55,4c-.06.22-.1.44-.15.65l-4.45-.62,4.26,2a9.52,9.52,0,0,0,0,1c2.38-8.36,7.14-9.47,8.51-9.62A7.88,7.88,0,0,0,80.88,78.82Z"/><path class="cls-7" d="M88.42,74l.38,0Z"/><path class="cls-7" d="M136.55,80.56l-4.45.62q-.06-.32-.15-.66l4.55-4-5.13,2.26A7.88,7.88,0,0,0,123.83,74c1.37.15,6.13,1.26,8.51,9.62a9.52,9.52,0,0,0-.05-1Z"/><path class="cls-7" d="M118.83,74a3.25,3.25,0,0,0-.38,0C118.59,73.93,118.7,74,118.83,74Z"/><path class="cls-1" d="M36.35,133.55s-21.84-4,3.77-44.49"/><path class="cls-5" d="M35.55,86.74c-.29,2.15,1.08,4.57,3.62,6,3.22,1.8,7.15,1.31,8.73-1.1l3.88-5.93.08-.13,0-.06,5.25-8a1.47,1.47,0,0,0-.79-2,1.75,1.75,0,0,0-2.28.28l-2.86,4.37a7,7,0,0,0-1-1.09l3.43-5.22a1.49,1.49,0,0,0-.79-2,1.74,1.74,0,0,0-2.28.29l-3.42,5.23A9.83,9.83,0,0,0,45.79,77l2.94-4.49a1.47,1.47,0,0,0-.78-2,1.74,1.74,0,0,0-2.28.29l-4.91,7.48a4.17,4.17,0,0,0-.59.67l.35-1.76A1.77,1.77,0,0,0,39.1,75.4h0a1.45,1.45,0,0,0-2,.86"/><path class="cls-2" d="M33.6,122.94s-1.43,14.08.77,22.56,10.46-5.29,10.46-5.29L46.42,126Z"/></svg>