<svg width="47" height="47" viewBox="0 0 47 47" fill="none" xmlns="http://www.w3.org/2000/svg">
<path d="M23.6717 22.7172C23.6694 22.6581 23.6606 22.6305 23.6576 22.623C23.657 22.6214 23.6566 22.6207 23.6566 22.6207L23.6717 22.7172ZM23.6717 22.7172C23.672 22.736 23.6726 22.7549 23.6736 22.7741M23.6717 22.7172L23.6736 22.7741M23.6736 22.7741L23.6287 22.7891L23.5664 22.8163C23.5302 22.8322 23.5049 22.8343 23.4886 22.8337C23.4706 22.833 23.4525 22.8284 23.4352 22.8195C23.4052 22.804 23.3704 22.7727 23.3532 22.7054C23.3493 22.6811 23.3526 22.6605 23.3603 22.642C23.3685 22.6223 23.386 22.5952 23.4255 22.5692L23.4256 22.5692L23.4332 22.5642C23.4568 22.5484 23.4817 22.5311 23.5075 22.5121C23.5478 22.5428 23.5871 22.5703 23.6244 22.5947L23.6736 22.7741Z" fill="#F5F5F5" stroke="white" stroke-width="3"/>
<path d="M4.76121 23.5061C4.48745 23.5061 4.19848 23.5061 3.92472 23.5061C3.45325 23.5061 3.11865 23.1715 3.11865 22.7152C3.11865 22.2894 3.45325 21.9548 3.90952 21.9548C4.48745 21.9396 5.05018 21.9396 5.62812 21.9548C6.08439 21.9548 6.41898 22.3046 6.41898 22.7456C6.41898 23.1867 6.06918 23.5061 5.61291 23.5213C5.32394 23.5213 5.03497 23.5061 4.76121 23.5061Z" fill="#F5F5F5"/>
<path d="M42.2508 23.4603C41.9618 23.4603 41.6729 23.4603 41.3839 23.4603C40.9733 23.4451 40.6691 23.1257 40.6539 22.7302C40.6387 22.3196 40.9428 21.9546 41.3535 21.9394C41.9162 21.9242 42.4789 21.9394 43.0264 21.9394C43.1025 21.9394 43.1785 21.9394 43.2546 21.9394C43.6348 21.9698 43.939 22.3196 43.939 22.715C43.939 23.1257 43.6196 23.4603 43.209 23.4755C42.8896 23.4907 42.5702 23.4755 42.2508 23.4603C42.2508 23.4755 42.2508 23.4755 42.2508 23.4603Z" fill="#F5F5F5"/>
<path d="M8.79139 13.6957C8.79139 14.3649 8.18304 14.7451 7.65073 14.4561C7.13362 14.1824 6.61652 13.8782 6.09942 13.574C5.7192 13.3459 5.61274 12.8896 5.84087 12.5094C6.05379 12.1596 6.52527 12.0379 6.89028 12.2509C7.39218 12.5398 7.87886 12.8288 8.38075 13.1025C8.63931 13.2546 8.77619 13.4828 8.79139 13.6957Z" fill="#F5F5F5"/>
<path d="M39.0419 30.8521C39.1636 30.8977 39.3005 30.9129 39.4221 30.9737C39.924 31.2627 40.4259 31.5517 40.9278 31.8406C41.2168 32.0079 41.3689 32.3425 41.308 32.6467C41.2472 32.9813 41.0039 33.2399 40.6693 33.2703C40.502 33.2855 40.3043 33.2551 40.1674 33.179C39.6503 32.9053 39.1484 32.6011 38.6465 32.3121C38.3423 32.1296 38.2054 31.7646 38.2967 31.43C38.3879 31.0954 38.6769 30.8825 39.0419 30.8521Z" fill="#F5F5F5"/>
<path d="M34.145 39.7039C34.1298 40.0689 33.9017 40.3579 33.5671 40.4643C33.2325 40.5556 32.8827 40.4339 32.7002 40.1298C32.396 39.6279 32.1071 39.1108 31.8181 38.5936C31.6052 38.1982 31.7268 37.7419 32.1071 37.529C32.4873 37.3161 32.9435 37.4378 33.1717 37.818C33.4759 38.3199 33.7648 38.837 34.0538 39.3541C34.0994 39.4606 34.1146 39.5822 34.145 39.7039Z" fill="#F5F5F5"/>
<path d="M33.3234 4.93652C33.9013 4.93652 34.2816 5.54488 34.0078 6.04677C33.7188 6.57909 33.4146 7.1114 33.0953 7.6285C32.8823 7.99351 32.4109 8.09998 32.0611 7.88705C31.696 7.67413 31.5592 7.21786 31.7721 6.83764C32.0611 6.32053 32.35 5.81864 32.6542 5.30154C32.8063 5.05819 33.0344 4.93652 33.3234 4.93652Z" fill="#F5F5F5"/>
<path d="M6.90583 33.2248C6.52561 33.4377 6.05413 33.3008 5.85641 32.9358C5.64349 32.5708 5.76516 32.1145 6.14538 31.8864C6.64728 31.5822 7.16438 31.2932 7.68148 31.0042C8.19858 30.7153 8.80694 31.0955 8.82215 31.6734" fill="#F5F5F5"/>
<path d="M13.7194 40.494C13.1415 40.4788 12.7612 39.9008 13.035 39.3837C13.324 38.8362 13.6282 38.3191 13.9475 37.7868C14.1605 37.437 14.6319 37.3457 14.997 37.5586C15.3316 37.7564 15.4836 38.1974 15.2859 38.5624" fill="#F5F5F5"/>
<path d="M38.2361 13.7573C38.2361 13.4684 38.3578 13.2402 38.6163 13.0881C39.1182 12.784 39.6353 12.495 40.1524 12.206C40.5174 12.0083 40.9737 12.13 41.1866 12.4798C41.3995 12.8448 41.3083 13.3011 40.9281 13.5292C40.4109 13.8486 39.8786 14.1528 39.3463 14.4417C38.8444 14.7155 38.2361 14.3353 38.2361 13.7573Z" fill="#F5F5F5"/>
<path d="M15.3466 7.21787C15.3314 7.56767 15.1185 7.87185 14.7839 7.9631C14.4493 8.06957 14.0995 7.9631 13.917 7.65893C13.5976 7.12661 13.2782 6.5943 12.9892 6.04678C12.7915 5.68177 12.9436 5.24071 13.2934 5.04299C13.6432 4.84528 14.1147 4.93653 14.3276 5.30155C14.647 5.83386 14.9512 6.36617 15.2401 6.89848C15.301 6.98973 15.3162 7.11141 15.3466 7.21787Z" fill="#F5F5F5"/>
<path d="M24.2741 3.94767C24.2741 4.25184 24.2893 4.55602 24.2741 4.8602C24.2589 5.25563 23.9547 5.55981 23.5897 5.59023C23.1791 5.62065 22.8445 5.3773 22.7532 4.99708C22.738 4.92104 22.738 4.8602 22.738 4.78416C22.738 4.23664 22.738 3.67391 22.738 3.12638C22.738 2.65491 23.0574 2.32031 23.4985 2.32031C23.9395 2.32031 24.2741 2.6397 24.2741 3.11118C24.2893 3.38494 24.2741 3.6587 24.2741 3.94767Z" fill="#F5F5F5"/>
<path d="M24.3046 41.4987C24.3046 41.7876 24.3046 42.0766 24.3046 42.3504C24.3046 42.7914 23.9852 43.1108 23.5594 43.126C23.1183 43.126 22.7837 42.8218 22.7685 42.3656C22.7533 41.7572 22.7533 41.1641 22.7685 40.5557C22.7685 40.1603 23.1335 39.8257 23.5137 39.8257C23.9244 39.8257 24.2742 40.1299 24.2894 40.5405C24.3046 40.6926 24.2894 40.8599 24.3046 41.012C24.3046 41.1793 24.3046 41.3314 24.3046 41.4987Z" fill="#F5F5F5"/>
<circle cx="23.5" cy="23.5" r="22.5" stroke="white" stroke-width="2"/>
</svg>
