<svg width="25" height="51" viewBox="0 0 25 51" fill="none" xmlns="http://www.w3.org/2000/svg">
<path opacity="0.1" fill-rule="evenodd" clip-rule="evenodd" d="M21.0902 41.8767C21.0902 41.8767 26.0327 47.0782 23.9692 49.4648C21.9057 51.8514 16.9615 46.6485 16.9615 46.6485L16.9576 46.6451L16.95 46.6386L16.9262 46.6181C16.9067 46.6013 16.8799 46.578 16.8462 46.5486C16.7788 46.4897 16.6838 46.406 16.5648 46.2993C16.3269 46.0859 15.9918 45.7796 15.5877 45.3943C14.7817 44.6261 13.6884 43.5323 12.5373 42.2262C10.3264 39.7175 7.5414 36.029 6.5454 32.1631C5.67842 28.7979 5.03821 23.6683 4.61741 19.5479C4.4034 17.4524 4.24034 15.556 4.13077 14.1837C4.07595 13.4971 4.03442 12.9404 4.00651 12.5542C3.99255 12.361 3.982 12.2104 3.97488 12.1074L3.9668 11.9892L3.96394 11.9465C3.96394 11.9465 3.96391 11.9461 7.12427 11.7399C10.2846 11.5337 10.2846 11.5336 10.2846 11.5336L10.2869 11.568L10.2944 11.677C10.3011 11.7737 10.3111 11.9176 10.3246 12.1037C10.3515 12.4761 10.3918 13.017 10.4453 13.6862C10.5522 15.0258 10.7112 16.8746 10.9194 18.9129C11.3429 23.06 11.9474 27.7521 12.682 30.6032C13.2875 32.9536 15.2087 35.705 17.3035 38.0819C18.3053 39.2186 19.2648 40.1791 19.9734 40.8545C20.3265 41.191 20.6141 41.4538 20.8096 41.6291C20.9073 41.7167 20.9817 41.7823 21.0295 41.8241C21.0534 41.8449 21.0707 41.8599 21.0808 41.8686L21.0902 41.8767Z" fill="black"/>
<path d="M0.02344 3.30308C-0.108525 2.70692 0.328538 2.1008 0.994172 1.95556C1.66033 1.81085 2.31273 2.17841 2.4447 2.77456L3.35898 6.90729C3.63717 6.68655 3.947 6.49623 4.27797 6.33369L3.18159 1.37933C3.04962 0.783699 3.48669 0.177052 4.15232 0.0318145C4.81848 -0.113948 5.47095 0.254658 5.60291 0.850815L6.69878 5.80568C7.03028 5.81355 7.35488 5.85286 7.6679 5.92207L6.72623 1.66351C6.59426 1.0684 7.03133 0.461232 7.69696 0.315994C8.36312 0.171281 9.01552 0.539382 9.14748 1.13554L10.7168 8.23068C10.8192 8.44355 10.8974 8.67007 10.9591 8.9034L11.1212 7.44419C11.1887 6.83126 11.7969 6.35885 12.4725 6.39398C13.1477 6.42806 13.6449 6.95762 13.5768 7.57003L12.7116 15.3709C12.6784 15.6714 12.5142 15.9367 12.2767 16.1265C11.9874 17.8651 10.5326 19.3914 8.53199 19.8277C5.98611 20.3834 3.49039 18.9741 2.98628 16.6954L1.74266 11.0736C1.73369 11.0327 1.73054 10.9928 1.72262 10.953C1.71735 10.9331 1.70732 10.9147 1.7031 10.8943L0.02344 3.30308Z" fill="#A2CCED"/>
</svg>
