<svg width="150" height="171" viewBox="0 0 150 171" fill="none" xmlns="http://www.w3.org/2000/svg">
<path opacity="0.1" fill-rule="evenodd" clip-rule="evenodd" d="M107.434 117.886C107.434 117.886 113.136 122.242 111.475 124.925C109.814 127.607 104.11 123.249 104.11 123.249L104.106 123.247L104.098 123.241L104.071 123.225C104.049 123.211 104.019 123.193 103.981 123.169C103.905 123.121 103.798 123.054 103.664 122.967C103.395 122.794 103.016 122.544 102.556 122.228C101.639 121.596 100.387 120.689 99.0439 119.581C96.4647 117.452 93.1325 114.25 91.5389 110.589C90.1517 107.403 88.71 102.439 87.6442 98.4365C87.1022 96.401 86.6419 94.5541 86.3171 93.2163C86.1546 92.5469 86.0258 92.0038 85.9373 91.6268C85.893 91.4383 85.8588 91.2913 85.8355 91.1907L85.8089 91.0752L85.7993 91.0335C85.7993 91.0335 85.7992 91.0331 88.8874 90.3307C91.9757 89.6283 91.9756 89.6282 91.9756 89.6282L91.9833 89.6619L92.0079 89.7683C92.0297 89.8627 92.0624 90.0033 92.1051 90.1849C92.1904 90.5484 92.3156 91.0761 92.474 91.7286C92.791 93.0344 93.2398 94.835 93.767 96.8149C94.8397 100.843 96.1771 105.381 97.3524 108.081C98.3213 110.306 100.653 112.72 103.096 114.736C104.265 115.701 105.364 116.498 106.17 117.053C106.572 117.329 106.898 117.543 107.118 117.686C107.229 117.757 107.312 117.81 107.366 117.843C107.393 117.86 107.412 117.872 107.424 117.879L107.434 117.886Z" fill="black"/>
<path d="M80.5442 83.1203C80.3198 82.5524 80.6557 81.8849 81.2901 81.6364C81.9251 81.3884 82.6273 81.6484 82.8517 82.2162L84.4067 86.1529C84.6466 85.891 84.9225 85.6542 85.2237 85.4415L83.3592 80.7222C83.1349 80.1549 83.4707 79.4868 84.1051 79.2384C84.7399 78.9893 85.4424 79.2503 85.6668 79.8182L87.5308 84.538C87.8594 84.4935 88.1862 84.4811 88.5062 84.5L86.9042 80.4434C86.68 79.8766 87.0158 79.2081 87.6502 78.9596C88.2851 78.7116 88.9874 78.9721 89.2118 79.54L91.8812 86.2985C92.016 86.4926 92.1288 86.7039 92.2266 86.9246L92.1564 85.4581C92.1264 84.8422 92.6523 84.2797 93.3251 84.2078C93.9971 84.1349 94.5717 84.5793 94.6011 85.1948L94.9779 93.0345C94.9925 93.3364 94.8722 93.6243 94.6676 93.8492C94.6564 95.6117 93.4606 97.3485 91.5539 98.095C89.1277 99.0456 86.4408 98.0477 85.5834 95.8771L83.4682 90.522C83.4529 90.4831 83.4435 90.4442 83.4294 90.4061C83.421 90.3873 83.4082 90.3708 83.4008 90.3512L80.5442 83.1203Z" fill="#A2CCED"/>
</svg>
