<svg width="150" height="171" viewBox="0 0 150 171" fill="none" xmlns="http://www.w3.org/2000/svg">
<path d="M149.615 70.6149C149.615 109.615 117.999 141.229 78.9997 141.229C40.0001 141.229 8.38477 109.615 8.38477 70.6149C8.38477 31.6149 40.0001 0 78.9997 0C117.999 0 149.615 31.6149 149.615 70.6149Z" fill="#00A1CD"/>
<path opacity="0.1" fill-rule="evenodd" clip-rule="evenodd" d="M107.434 117.886C107.434 117.886 113.136 122.242 111.475 124.925C109.814 127.607 104.11 123.249 104.11 123.249L104.106 123.247L104.098 123.241L104.071 123.225C104.049 123.211 104.019 123.193 103.981 123.169C103.905 123.121 103.798 123.054 103.664 122.967C103.395 122.794 103.016 122.544 102.556 122.228C101.639 121.596 100.387 120.689 99.0439 119.581C96.4647 117.452 93.1325 114.25 91.5389 110.589C90.1517 107.403 88.71 102.439 87.6442 98.4365C87.1022 96.401 86.6419 94.5541 86.3171 93.2163C86.1546 92.5469 86.0258 92.0038 85.9373 91.6268C85.893 91.4383 85.8588 91.2913 85.8355 91.1907L85.8089 91.0752L85.7993 91.0335C85.7993 91.0335 85.7992 91.0331 88.8874 90.3307C91.9757 89.6283 91.9756 89.6282 91.9756 89.6282L91.9833 89.6619L92.0079 89.7683C92.0297 89.8627 92.0624 90.0033 92.1051 90.1849C92.1904 90.5484 92.3156 91.0761 92.474 91.7286C92.791 93.0344 93.2398 94.835 93.767 96.8149C94.8397 100.843 96.1771 105.381 97.3524 108.081C98.3213 110.306 100.653 112.72 103.096 114.736C104.265 115.701 105.364 116.498 106.17 117.053C106.572 117.329 106.898 117.543 107.118 117.686C107.229 117.757 107.312 117.81 107.366 117.843C107.393 117.86 107.412 117.872 107.424 117.879L107.434 117.886Z" fill="black"/>
<path d="M80.5442 83.1203C80.3198 82.5524 80.6557 81.8849 81.2901 81.6364C81.9251 81.3884 82.6273 81.6484 82.8517 82.2162L84.4067 86.1529C84.6466 85.891 84.9225 85.6542 85.2237 85.4415L83.3592 80.7222C83.1349 80.1549 83.4707 79.4868 84.1051 79.2384C84.7399 78.9893 85.4424 79.2503 85.6668 79.8182L87.5308 84.538C87.8594 84.4935 88.1862 84.4811 88.5062 84.5L86.9042 80.4434C86.68 79.8766 87.0158 79.2081 87.6502 78.9596C88.2851 78.7116 88.9874 78.9721 89.2118 79.54L91.8812 86.2985C92.016 86.4926 92.1288 86.7039 92.2266 86.9246L92.1564 85.4581C92.1264 84.8422 92.6523 84.2797 93.3251 84.2078C93.9971 84.1349 94.5717 84.5793 94.6011 85.1948L94.9779 93.0345C94.9925 93.3364 94.8722 93.6243 94.6676 93.8492C94.6564 95.6117 93.4606 97.3485 91.5539 98.095C89.1277 99.0456 86.4408 98.0477 85.5834 95.8771L83.4682 90.522C83.4529 90.4831 83.4435 90.4442 83.4294 90.4061C83.421 90.3873 83.4082 90.3708 83.4008 90.3512L80.5442 83.1203Z" fill="#A2CCED"/>
<path d="M85.9604 135.598L90.2552 163.739H95.4023L99.6966 135.586" fill="#00A1CD"/>
<path d="M60.2886 135.511L64.5833 163.738H69.7304L74.0252 135.598" fill="#00A1CD"/>
<path d="M95.3519 170.733H90.3056L87.6519 147.952H98.0316L95.3519 170.733Z" fill="#CF2153"/>
<path d="M69.6257 170.578H64.5794L62.355 147.796H72.2794L69.6257 170.578Z" fill="#CF2153"/>
<path d="M52.5103 170.846C52.5103 166.067 56.3845 162.194 61.1634 162.194C65.9427 162.194 69.8169 166.067 69.8169 170.846" fill="#504B48"/>
<path d="M90.3545 170.846C90.3545 166.067 94.2287 162.194 99.0076 162.194C103.787 162.194 107.661 166.067 107.661 170.846" fill="#504B48"/>
<path d="M57.2437 66.5862C57.2437 61.1634 61.6396 56.7674 67.0625 56.7674C72.4854 56.7674 76.8818 61.1634 76.8818 66.5862" fill="white"/>
<path d="M82.6582 66.5862C82.6582 61.1634 87.0542 56.7674 92.477 56.7674C97.8999 56.7674 102.296 61.1634 102.296 66.5862" fill="white"/>
<path d="M59.9998 54.5765C59.9998 54.5765 62.8779 48.7463 69.2 52.1834" stroke="#0D4060" stroke-width="3" stroke-miterlimit="10"/>
<path d="M99.3832 54.5764C99.3832 54.5764 97.2806 48.6328 90.959 52.0699" stroke="#0D4060" stroke-width="3" stroke-miterlimit="10"/>
<path d="M85.9671 77.5122C85.9671 77.5122 84.4917 76.2486 79.4522 77.7503C74.4126 79.2518 74.4348 80.8299 74.4348 80.8299L85.9671 77.5122Z" fill="#0D4060"/>
<g opacity="0.7">
<g opacity="0.7">
<path opacity="0.7" d="M57.2439 74.8452C57.2439 76.0183 54.3251 76.9694 50.7247 76.9694C47.1243 76.9694 44.2051 76.0183 44.2051 74.8452C44.2051 73.6721 47.1243 72.7211 50.7247 72.7211C54.3246 72.7211 57.2439 73.6721 57.2439 74.8452Z" fill="#A2CCED"/>
</g>
</g>
<g opacity="0.7">
<g opacity="0.7">
<path opacity="0.7" d="M112.949 74.8452C112.949 76.0183 110.03 76.9694 106.43 76.9694C102.829 76.9694 99.9104 76.0183 99.9104 74.8452C99.9104 73.6721 102.829 72.7211 106.43 72.7211C110.03 72.7211 112.949 73.6721 112.949 74.8452Z" fill="#A2CCED"/>
</g>
</g>
<circle cx="89.4998" cy="61.5" r="3.5" fill="#0D4060"/>
<circle cx="63.4998" cy="61.5" r="3.5" fill="#0D4060"/>
<path d="M149.615 70.6149C149.615 109.615 117.999 141.229 78.9997 141.229C40.0001 141.229 8.38477 109.615 8.38477 70.6149C8.38477 31.6149 40.0001 0 78.9997 0C117.999 0 149.615 31.6149 149.615 70.6149Z" fill="#00A1CD"/>
<path d="M85.9604 135.598L90.2552 163.739H95.4023L99.6966 135.586" fill="#00A1CD"/>
<path d="M60.2886 135.511L64.5833 163.738H69.7304L74.0252 135.598" fill="#00A1CD"/>
<path d="M95.3519 170.733H90.3056L87.6519 147.952H98.0316L95.3519 170.733Z" fill="#CF2153"/>
<path d="M69.6257 170.578H64.5794L62.355 147.796H72.2794L69.6257 170.578Z" fill="#CF2153"/>
<path d="M52.5103 170.846C52.5103 166.067 56.3845 162.194 61.1634 162.194C65.9427 162.194 69.8169 166.067 69.8169 170.846" fill="#504B48"/>
<path d="M90.3545 170.846C90.3545 166.067 94.2287 162.194 99.0076 162.194C103.787 162.194 107.661 166.067 107.661 170.846" fill="#504B48"/>
<path d="M57.2437 66.5862C57.2437 61.1634 61.6396 56.7674 67.0625 56.7674C72.4854 56.7674 76.8818 61.1634 76.8818 66.5862" fill="white"/>
<path d="M82.6582 66.5862C82.6582 61.1634 87.0542 56.7674 92.477 56.7674C97.8999 56.7674 102.296 61.1634 102.296 66.5862" fill="white"/>
<path d="M59.9998 54.5765C59.9998 54.5765 62.8779 48.7463 69.2 52.1834" stroke="#0D4060" stroke-width="3" stroke-miterlimit="10"/>
<path d="M99.3832 54.5764C99.3832 54.5764 97.2806 48.6328 90.959 52.0699" stroke="#0D4060" stroke-width="3" stroke-miterlimit="10"/>
<path d="M85.9671 77.5122C85.9671 77.5122 84.4917 76.2486 79.4522 77.7503C74.4126 79.2518 74.4348 80.8299 74.4348 80.8299L85.9671 77.5122Z" fill="#0D4060"/>
<g opacity="0.7">
<g opacity="0.7">
<path opacity="0.7" d="M57.2439 74.8452C57.2439 76.0183 54.3251 76.9694 50.7247 76.9694C47.1243 76.9694 44.2051 76.0183 44.2051 74.8452C44.2051 73.6721 47.1243 72.7211 50.7247 72.7211C54.3246 72.7211 57.2439 73.6721 57.2439 74.8452Z" fill="#A2CCED"/>
</g>
</g>
<g opacity="0.7">
<g opacity="0.7">
<path opacity="0.7" d="M112.949 74.8452C112.949 76.0183 110.03 76.9694 106.43 76.9694C102.829 76.9694 99.9104 76.0183 99.9104 74.8452C99.9104 73.6721 102.829 72.7211 106.43 72.7211C110.03 72.7211 112.949 73.6721 112.949 74.8452Z" fill="#A2CCED"/>
</g>
</g>
<path d="M19.6703 106.157C21.7285 106.05 21.7287 106.049 21.7287 106.049L21.7262 106.057L21.7125 106.102C21.6999 106.143 21.6803 106.208 21.6553 106.294C21.6051 106.467 21.533 106.722 21.4496 107.041C21.2822 107.681 21.072 108.566 20.9009 109.544C20.5431 111.59 20.4212 113.697 20.9178 114.96C21.5203 116.491 22.8624 118.698 24.1128 120.592C24.7274 121.522 25.3022 122.351 25.7234 122.947C25.9339 123.245 26.1056 123.484 26.2243 123.648C26.2837 123.73 26.3298 123.794 26.3608 123.836L26.3958 123.884L26.4069 123.899C26.4069 123.899 26.4068 123.899 24.4989 125.455C22.591 127.011 22.5909 127.01 22.5909 127.01L22.5771 126.992L22.5392 126.94C22.5061 126.895 22.4579 126.828 22.3963 126.743C22.2732 126.573 22.0964 126.327 21.8805 126.021C21.449 125.41 20.8594 124.56 20.2276 123.604C18.9852 121.723 17.506 119.32 16.7949 117.513C15.978 115.436 16.263 112.503 16.6406 110.344C16.834 109.238 18.3728 105.387 18.5725 104.624L19.6703 106.157Z" fill="#00A1CD"/>
<path d="M32.499 134.38C32.9146 134.608 33.4638 134.326 33.7201 133.755C33.9761 133.182 33.8457 132.527 33.4304 132.299L30.549 130.717C30.7754 130.507 30.9864 130.264 31.1807 129.996L34.6349 131.893C35.0506 132.121 35.5998 131.84 35.8557 131.268C36.1116 130.696 35.9812 130.041 35.566 129.812L32.1113 127.916C32.1789 127.616 32.2215 127.317 32.2388 127.022L35.2077 128.652C35.6233 128.881 36.1725 128.599 36.4288 128.027C36.6843 127.455 36.5544 126.8 36.1386 126.572L31.1918 123.856C31.0556 123.724 30.9043 123.612 30.7435 123.514L31.8683 123.636C32.3407 123.688 32.828 123.228 32.9515 122.614C33.0754 122.001 32.7906 121.456 32.3186 121.405L26.3054 120.748C26.0735 120.723 25.8394 120.822 25.6452 121.001C24.2832 120.941 22.8222 121.969 22.0524 123.688C21.0742 125.876 21.5728 128.38 23.1612 129.252L27.0817 131.405C27.1094 131.42 27.1388 131.43 27.1668 131.445C27.1809 131.453 27.1912 131.465 27.2055 131.473L32.499 134.38Z" fill="#A2CCED"/>
</svg>
