<?xml version="1.0" encoding="UTF-8" standalone="no"?>
<!DOCTYPE svg PUBLIC "-//W3C//DTD SVG 1.1//EN" "http://www.w3.org/Graphics/SVG/1.1/DTD/svg11.dtd">
<svg width="100%" height="100%" viewBox="0 0 197 183" version="1.1" xmlns="http://www.w3.org/2000/svg" xmlns:xlink="http://www.w3.org/1999/xlink" xml:space="preserve" xmlns:serif="http://www.serif.com/" style="fill-rule:evenodd;clip-rule:evenodd;stroke-linejoin:round;stroke-miterlimit:2;">
    <g transform="matrix(1,0,0,1,-0.00131601,-206.594)">
        <g transform="matrix(-6.3e-06,-145.211,145.211,-6.3e-06,99.2177,351.805)">
            <path d="M1,-0.002C1,-0.216 0.808,-0.36 0.522,-0.36C0.343,-0.36 0.167,-0.298 0.027,-0.185C0.009,-0.171 0,-0.15 0,-0.128C0,-0.112 0.005,-0.096 0.016,-0.082C0.042,-0.051 0.088,-0.046 0.119,-0.071C0.233,-0.162 0.376,-0.213 0.522,-0.213C0.675,-0.213 0.853,-0.158 0.853,-0.002L0.853,-0.002C0.853,0.153 0.681,0.194 0.607,0.204C0.567,0.21 0.539,0.247 0.545,0.287C0.55,0.327 0.587,0.355 0.627,0.349C0.857,0.318 1,0.183 1,-0.002L1,-0.002Z" style="fill:url(#_Linear1);fill-rule:nonzero;"/>
        </g>
        <g transform="matrix(-2.1e-06,47.6887,-47.6887,-2.1e-06,121.667,224.222)">
            <path d="M0.051,0.365C0.051,0.436 0.074,0.576 0.096,0.625C0.096,0.624 0.096,0.623 0.096,0.623C0.084,0.577 0.077,0.529 0.077,0.476L0.077,0.476C0.077,0.004 0.601,-0.12 0.827,-0.151C0.949,-0.168 1.034,-0.281 1.017,-0.403C1,-0.525 0.888,-0.61 0.766,-0.593C0.736,-0.589 0.708,-0.584 0.679,-0.579C0.276,-0.446 0.051,-0.108 0.051,0.364L0.051,0.365Z" style="fill:url(#_Linear2);fill-rule:nonzero;"/>
        </g>
        <g transform="matrix(-125.757,72.6079,-72.6079,-125.757,132.21,292.828)">
            <path d="M0.627,0.353C0.857,0.321 1,0.186 1,0.002C1,0.002 1,0.001 1,0.001C1,-0.213 0.808,-0.356 0.522,-0.356C0.343,-0.356 0.167,-0.294 0.027,-0.182C0.009,-0.168 0,-0.146 0,-0.125C0,-0.109 0.005,-0.093 0.016,-0.079C0.041,-0.048 0.088,-0.043 0.119,-0.068C0.233,-0.159 0.376,-0.21 0.522,-0.21C0.675,-0.21 0.853,-0.155 0.853,0.001C0.853,0.001 0.853,0.001 0.853,0.001C0.853,0.157 0.681,0.197 0.607,0.207C0.567,0.213 0.539,0.25 0.544,0.29C0.548,0.313 0.562,0.333 0.58,0.343C0.594,0.351 0.61,0.355 0.627,0.353Z" style="fill:url(#_Linear3);fill-rule:nonzero;"/>
        </g>
        <g transform="matrix(41.2978,-23.844,23.844,41.2978,10.4942,337.186)">
            <path d="M0.766,-0.603C0.736,-0.599 0.708,-0.594 0.679,-0.589C0.276,-0.456 0.051,-0.118 0.051,0.354L0.051,0.355C0.051,0.427 0.073,0.566 0.096,0.615C0.096,0.614 0.096,0.614 0.096,0.613C0.084,0.568 0.077,0.519 0.077,0.466C0.077,0.466 0.077,0.466 0.076,0.466C0.077,-0.006 0.601,-0.13 0.827,-0.161C0.949,-0.178 1.034,-0.29 1.017,-0.413C1.007,-0.484 0.965,-0.542 0.908,-0.575C0.866,-0.599 0.817,-0.61 0.766,-0.603Z" style="fill:url(#_Linear4);fill-rule:nonzero;"/>
        </g>
        <g transform="matrix(125.765,72.6126,-72.6126,125.765,64.7243,292.769)">
            <path d="M0.027,-0.185C0.009,-0.171 0,-0.15 -0,-0.128C0,-0.112 0.005,-0.096 0.016,-0.082C0.042,-0.051 0.088,-0.046 0.119,-0.071C0.233,-0.163 0.376,-0.213 0.522,-0.213C0.675,-0.213 0.853,-0.158 0.853,-0.002C0.853,-0.002 0.853,-0.002 0.853,-0.002C0.853,0.153 0.681,0.194 0.607,0.204C0.567,0.21 0.539,0.247 0.545,0.287C0.55,0.327 0.587,0.355 0.627,0.349C0.857,0.317 1,0.183 1,-0.002C1,-0.002 1,-0.002 1,-0.002C1,-0.216 0.808,-0.36 0.522,-0.36C0.383,-0.36 0.246,-0.322 0.127,-0.253C0.092,-0.233 0.059,-0.211 0.027,-0.185Z" style="fill:url(#_Linear5);fill-rule:nonzero;"/>
        </g>
        <g transform="matrix(-41.2972,-23.8437,23.8437,-41.2972,163.992,376.008)">
            <path d="M0.096,0.623C0.084,0.578 0.077,0.529 0.077,0.476C0.077,0.476 0.077,0.476 0.077,0.476C0.077,0.004 0.602,-0.12 0.827,-0.151C0.949,-0.168 1.034,-0.281 1.018,-0.403C1.001,-0.525 0.888,-0.61 0.766,-0.593C0.737,-0.589 0.708,-0.584 0.68,-0.579C0.276,-0.446 0.051,-0.108 0.051,0.364L0.051,0.365C0.051,0.437 0.074,0.576 0.096,0.625C0.096,0.624 0.096,0.624 0.096,0.623Z" style="fill:url(#_Linear6);fill-rule:nonzero;"/>
        </g>
    </g>
    <defs>
        <linearGradient id="_Linear1" x1="0" y1="0" x2="1" y2="0" gradientUnits="userSpaceOnUse" gradientTransform="matrix(1,6.61744e-24,6.61744e-24,-1,0,-0.00474079)"><stop offset="0" style="stop-color:rgb(243,112,33);stop-opacity:1"/><stop offset="1" style="stop-color:rgb(253,185,19);stop-opacity:1"/></linearGradient>
        <linearGradient id="_Linear2" x1="0" y1="0" x2="1" y2="0" gradientUnits="userSpaceOnUse" gradientTransform="matrix(1,0,0,-1,0,0.0148065)"><stop offset="0" style="stop-color:rgb(243,112,33);stop-opacity:1"/><stop offset="1" style="stop-color:rgb(253,185,19);stop-opacity:1"/></linearGradient>
        <linearGradient id="_Linear3" x1="0" y1="0" x2="1" y2="0" gradientUnits="userSpaceOnUse" gradientTransform="matrix(1,5.55112e-17,5.55112e-17,-1,0,-0.00157976)"><stop offset="0" style="stop-color:rgb(243,112,33);stop-opacity:1"/><stop offset="1" style="stop-color:rgb(253,185,19);stop-opacity:1"/></linearGradient>
        <linearGradient id="_Linear4" x1="0" y1="0" x2="1" y2="0" gradientUnits="userSpaceOnUse" gradientTransform="matrix(1,5.55112e-17,5.55112e-17,-1,0,0.00491084)"><stop offset="0" style="stop-color:rgb(243,112,33);stop-opacity:1"/><stop offset="1" style="stop-color:rgb(253,185,19);stop-opacity:1"/></linearGradient>
        <linearGradient id="_Linear5" x1="0" y1="0" x2="1" y2="0" gradientUnits="userSpaceOnUse" gradientTransform="matrix(1,0,0,-1,0,-0.00479935)"><stop offset="0" style="stop-color:rgb(243,112,33);stop-opacity:1"/><stop offset="1" style="stop-color:rgb(253,185,19);stop-opacity:1"/></linearGradient>
        <linearGradient id="_Linear6" x1="0" y1="0" x2="1" y2="0" gradientUnits="userSpaceOnUse" gradientTransform="matrix(1,0,0,-1,0,0.0148198)"><stop offset="0" style="stop-color:rgb(243,112,33);stop-opacity:1"/><stop offset="1" style="stop-color:rgb(253,185,19);stop-opacity:1"/></linearGradient>
    </defs>
</svg>
