<svg width="232" height="270" viewBox="0 0 232 270" fill="none" xmlns="http://www.w3.org/2000/svg">
<path d="M232 249.5C232 260.822 180.065 270 116 270C51.935 270 0 260.822 0 249.5C0 238.178 51.935 229 116 229C180.065 229 232 238.178 232 249.5Z" fill="black" fill-opacity="0.1"/>
<g clip-path="url(#clip0)">
<path d="M68.1694 251H77.6863V209.662H154.322V251H164.043V205.798H163.885V196.989H68.1694V205.923" fill="#FAAD1C"/>
<path d="M66.753 177.323H164.686C168.405 177.323 171.42 180.363 171.42 184.114V193.001C171.42 196.752 168.405 199.792 164.686 199.792H66.753C63.034 199.792 60.0195 196.752 60.0195 193.001V184.114C60.0195 180.359 63.034 177.323 66.753 177.323Z" fill="#FFCC04"/>
<path d="M113.29 182.592L105.359 231.552H94.0832L84.5085 176.473" fill="#02A1CD"/>
<path d="M95.4613 244.283L104.15 249.897L106.83 221.488H92.085L95.4613 244.283Z" fill="#ED1651"/>
<path d="M113.752 251C113.752 242.687 107.088 235.943 98.8568 235.943C90.6258 235.943 83.9617 242.68 83.9617 251" fill="#514C49"/>
<path d="M147.361 177.156L139.046 231.552H127.769L118.195 176.473" fill="#02A1CD"/>
<path d="M129.148 244.283L137.837 249.897L140.516 221.488H125.771L129.148 244.283Z" fill="#ED1651"/>
<path d="M148.979 251C148.979 242.687 142.314 235.943 134.083 235.943C125.852 235.943 119.188 242.68 119.188 251" fill="#514C49"/>
<path d="M32 118.392C32 82.1201 49.8673 46.9125 72.9896 21.788C132.613 -42.9858 199 50.5311 199 121.389C199 173.688 157.949 186.369 116.867 186.369C75.7885 186.369 32 170.691 32 118.392Z" fill="#00A1CD"/>
<path d="M81.109 172.622C81.109 172.622 47.7498 157.06 44.8547 138.152C43.5881 130.88 48.8509 109.393 48.8509 109.393" stroke="#188AB2" stroke-width="8" stroke-miterlimit="10" stroke-linecap="round"/>
<path d="M96.9358 194.543C97.7789 195.234 99.0879 195.024 99.8502 194.081C100.609 193.137 100.543 191.802 99.7 191.11L93.8559 186.323C94.4296 186.059 94.9762 185.717 95.496 185.321L102.503 191.064C103.346 191.755 104.655 191.545 105.417 190.602C106.176 189.658 106.11 188.323 105.267 187.632L98.2602 181.889C98.5104 181.353 98.7068 180.806 98.8454 180.251L104.87 185.186C105.714 185.877 107.023 185.667 107.785 184.723C108.543 183.78 108.478 182.444 107.635 181.753L97.598 173.534C97.3401 173.2 97.0436 172.893 96.7202 172.606L99.1688 173.526C100.197 173.91 101.432 173.324 101.914 172.221C102.395 171.119 101.948 169.9 100.92 169.515L87.827 164.604C87.3227 164.413 86.7721 164.464 86.2794 164.685C83.2842 163.746 79.7038 164.833 77.4208 167.667C74.5141 171.274 74.7759 176.387 77.9983 179.028L85.9521 185.543C86.0099 185.589 86.0715 185.628 86.1292 185.671C86.1562 185.694 86.1754 185.725 86.2062 185.749L96.9358 194.543Z" fill="#A2CCED"/>
<path d="M149.787 172.148C149.787 172.148 183.146 156.586 186.041 137.678C187.308 130.406 182.045 108.919 182.045 108.919" stroke="#188AB2" stroke-width="8" stroke-miterlimit="10" stroke-linecap="round"/>
<path d="M133.96 194.069C133.117 194.76 131.808 194.55 131.046 193.607C130.287 192.663 130.353 191.328 131.196 190.637L137.04 185.849C136.466 185.585 135.92 185.244 135.4 184.848L128.393 190.59C127.55 191.281 126.241 191.072 125.479 190.128C124.72 189.185 124.786 187.849 125.629 187.158L132.636 181.416C132.386 180.88 132.189 180.332 132.051 179.777L126.026 184.712C125.182 185.403 123.874 185.193 123.111 184.25C122.353 183.306 122.418 181.971 123.261 181.28L133.298 173.06C133.556 172.726 133.852 172.419 134.176 172.132L131.727 173.052C130.699 173.437 129.464 172.85 128.982 171.748C128.501 170.645 128.948 169.426 129.976 169.042L143.069 164.13C143.573 163.94 144.124 163.99 144.617 164.212C147.612 163.272 151.192 164.359 153.475 167.193C156.382 170.8 156.12 175.914 152.898 178.554L144.944 185.069C144.886 185.116 144.825 185.154 144.767 185.197C144.74 185.22 144.721 185.252 144.69 185.275L133.96 194.069Z" fill="#A2CCED"/>
<path d="M139.312 51.4175C139.312 55.7272 135.281 59.1866 130.307 59.1866C125.333 59.1866 121.302 55.6961 121.302 51.4175" stroke="#0D4161" stroke-width="3.0792" stroke-miterlimit="10"/>
<path d="M111.565 51.4175C111.565 55.7272 107.535 59.1866 102.561 59.1866C97.5865 59.1866 93.5557 55.6961 93.5557 51.4175" stroke="#0D4161" stroke-width="3.0792" stroke-miterlimit="10"/>
<path d="M91.342 43.462C91.342 43.462 95.4152 35.1454 104.382 40.0492" stroke="#0D4161" stroke-width="4" stroke-miterlimit="10" stroke-linecap="round"/>
<path d="M139.931 43.4622C139.931 43.4622 136.967 34.9864 128.016 39.8747" stroke="#0D4161" stroke-width="4" stroke-miterlimit="10" stroke-linecap="round"/>
<path d="M130.337 68.7534C130.337 68.7534 127.847 73.4553 115.608 73.3116C103.369 73.168 102.395 68.7534 102.395 68.7534H130.337Z" fill="#0D4161"/>
</g>
<defs>
<clipPath id="clip0">
<rect width="167" height="251" fill="white" transform="translate(32)"/>
</clipPath>
</defs>
</svg>
