<svg width="52" height="47" viewBox="0 0 52 47" fill="none" xmlns="http://www.w3.org/2000/svg">
<path d="M50.5948 31.521C50.5948 33.6736 50.5948 36.4412 50.5948 39.0735C41.4915 41.2876 32.5784 43.4525 23.678 45.6543C21.9664 46.0848 20.5338 45.9126 19.063 44.8547C13.6619 40.9801 8.18478 37.2038 2.74565 33.3907C1.04672 32.1975 0.539571 30.4755 1.47779 29.1347C2.53011 27.6341 4.46994 27.4865 6.32102 28.6919C9.97246 31.0659 13.6112 33.4645 17.3768 35.6663C18.3403 36.2321 19.8364 36.4289 20.9521 36.2075C24.4007 35.5064 27.7986 34.51 31.2091 33.6121C33.0349 33.1324 33.9477 32.0007 33.7702 30.4878C33.58 28.8887 32.3502 27.8063 30.4865 27.7448C28.5974 27.6833 26.6956 27.6956 24.8064 27.7202C23.5893 27.7325 22.4609 27.5111 22.4989 26.0965C22.537 24.8173 23.5132 24.3129 24.7811 24.3375C28.8129 24.399 32.8827 24.1161 36.8511 24.6328C39.1333 24.928 41.2633 26.4286 43.3933 27.5234C45.7135 28.7165 47.9576 30.0573 50.5948 31.521Z" stroke="white" stroke-width="2" stroke-miterlimit="10"/>
<path d="M14.2061 5.8655C15.8598 4.5823 17.1251 3.21104 18.6911 2.48138C21.0839 1.34914 24.0279 2.31783 25.5814 4.30553C27.3228 6.54484 27.5483 9.40059 25.7693 11.6399C24.1407 13.6905 22.1863 15.4769 20.3447 17.3514C18.6535 19.0623 16.9121 20.7355 15.1833 22.4213C15.0329 22.5723 14.8325 22.6729 14.3815 23C12.9283 21.5658 11.4374 20.1191 9.95916 18.6472C7.97976 16.6972 6.00036 14.7473 4.04602 12.7721C1.25231 9.94155 1.34 5.81518 4.18382 3.46265C7.06523 1.08495 11.1242 1.68881 13.3918 4.84649C13.6799 5.2239 14.0057 5.60131 14.2061 5.8655Z" stroke="white" stroke-width="2" stroke-miterlimit="10"/>
</svg>
