<svg width="37" height="26" viewBox="0 0 37 26" fill="none" xmlns="http://www.w3.org/2000/svg">
<g clip-path="url(#clip0)">
<path d="M29.3625 19.6015C29.2844 19.8545 29.2223 20.097 29.137 20.329C28.8579 21.0909 28.3042 21.519 27.5496 21.6717C27.1881 21.7451 26.818 21.7705 26.4508 21.799C26.3424 21.808 26.2904 21.8304 26.2557 21.9397C25.9174 23.0055 25.1511 23.5354 24.1305 23.727C23.8717 23.7749 23.6013 23.7734 23.3368 23.7674C23.2125 23.7644 23.1532 23.8093 23.1214 23.9156C22.9566 24.4665 22.546 24.7808 22.0978 25.0533C21.4111 25.4709 20.6825 25.5413 19.909 25.3527C19.085 25.1521 18.2898 24.8751 17.5178 24.5204C17.4296 24.48 17.3371 24.447 17.233 24.4051C17.0277 24.6536 16.8239 24.9051 16.6142 25.1506C16.0258 25.8377 15.2885 26.1296 14.4197 25.9409C13.5305 25.7478 12.958 25.164 12.6949 24.2614C12.6877 24.239 12.6819 24.2165 12.6747 24.194C12.6732 24.1896 12.666 24.1866 12.6501 24.1701C11.8911 24.4306 11.1668 24.3318 10.509 23.8363C9.86279 23.3498 9.471 22.7076 9.45076 21.8244C8.53274 21.9247 7.83591 21.4921 7.25473 20.8275C6.6432 20.1269 6.5261 19.3066 6.78632 18.4084C6.6273 18.3456 6.46249 18.2947 6.31069 18.2183C5.15123 17.6375 4.72908 16.2394 5.35796 15.0703C5.41435 14.9655 5.40423 14.8937 5.33917 14.7979C4.67704 13.8279 2.66172 11.3071 2.215 10.2113C2.17452 10.111 2.10079 10.0182 2.02272 9.94486C1.4242 9.38651 0.825673 8.83115 0.232933 8.27131C-0.073557 7.9824 -0.0750028 7.61865 0.21703 7.31477C1.60202 5.88072 2.98556 4.44518 4.37055 3.01113C5.26978 2.08154 6.16901 1.15196 7.06824 0.220871C7.2981 -0.0171391 7.54821 -0.0770159 7.82 0.102615C8.23781 0.379545 10.084 2.18184 10.4859 2.48272C10.869 2.77162 11.2651 2.91682 11.7624 2.84048C12.8713 2.66834 13.9917 2.59499 15.115 2.59948C15.2148 2.59948 15.3189 2.56355 15.4143 2.52463C16.2629 2.17136 17.152 1.99772 18.0556 1.89742C19.5187 1.73575 20.9759 1.86 22.4332 1.99023C23.5218 2.08753 24.609 2.18932 25.6962 2.29261C26.1154 2.33302 26.5347 2.41685 26.9539 2.42434C27.3371 2.43033 27.7231 2.37195 28.1062 2.32105C28.9244 2.21028 31.1884 0.589113 32.0052 0.470857C32.1888 0.443912 32.371 0.41098 32.5546 0.394514C32.864 0.366072 33.0895 0.517261 33.2023 0.818142C33.7068 2.17285 34.2099 3.52906 34.7145 4.88378C35.3174 6.50195 36.0662 8.11862 36.6705 9.73529C36.7602 9.9748 36.8455 10.2158 36.9409 10.4538C37.0218 10.6559 37.032 10.861 36.9062 11.0361C36.5809 11.4927 36.2542 11.9492 35.9043 12.3833C35.3651 13.0525 33.2095 15.1991 32.6674 15.8652C32.5893 15.961 32.5488 16.1092 32.5373 16.2364C32.4809 16.8681 32.3479 17.4759 32.066 18.0432C31.5412 19.1 30.6969 19.6075 29.5562 19.6C29.4926 19.6015 29.429 19.6015 29.3625 19.6015ZM18.0498 23.4366C18.7698 23.7525 19.4898 24.0144 20.2444 24.1806C20.7114 24.2839 21.1422 24.233 21.5412 23.9725C21.7075 23.8632 21.8564 23.7165 21.9894 23.5638C22.066 23.477 22.0862 23.3558 21.9547 23.2555C21.534 22.9306 21.1176 22.5968 20.7027 22.2615C20.0247 21.7121 19.3466 21.1628 18.6744 20.6074C18.4402 20.4143 18.3997 20.07 18.5587 19.8126C18.7149 19.5626 19.0228 19.4623 19.2888 19.591C19.3972 19.6434 19.4941 19.7242 19.591 19.7991C20.7085 20.6793 21.8246 21.561 22.9435 22.4382C23.0129 22.4935 23.1084 22.5355 23.1937 22.5429C23.5464 22.5774 23.8992 22.5699 24.2403 22.4516C24.6639 22.3019 24.9979 22.0534 25.1309 21.5804C25.1757 21.4232 25.1699 21.311 25.0167 21.2047C24.6524 20.9517 24.2924 20.6898 23.9483 20.4068C22.8221 19.4802 21.7031 18.5447 20.5885 17.6031C20.4902 17.5208 20.4193 17.3711 20.3919 17.2409C20.334 16.9669 20.4526 16.7409 20.681 16.6077C20.9109 16.4729 21.1422 16.5044 21.3865 16.702C21.9778 17.181 22.5706 17.66 23.1604 18.1405C24.0726 18.8845 24.982 19.6314 25.8971 20.3724C26.0027 20.4577 26.1284 20.5505 26.2542 20.567C26.6894 20.6224 27.1159 20.5625 27.5322 20.4068C27.7245 20.335 27.8835 20.2242 27.9573 20.0386C28.0585 19.7811 28.125 19.5087 28.19 19.2377C28.203 19.1824 28.1597 19.0866 28.112 19.0461C27.8835 18.847 27.6435 18.6614 27.4093 18.4683C26.432 17.6645 25.4562 16.8591 24.4803 16.0538C23.9527 15.6167 23.4293 15.1736 22.9002 14.738C22.7065 14.5778 22.5807 14.3847 22.6226 14.1213C22.7021 13.6183 23.2211 13.4357 23.6216 13.7635C25.4634 15.2679 27.3038 16.7723 29.1471 18.2767C29.1832 18.3052 29.2237 18.3411 29.2656 18.3471C29.8439 18.4339 30.3774 18.3546 30.7793 17.8621C31.174 17.3786 31.294 16.7888 31.3474 16.181C31.3518 16.1271 31.2968 16.0508 31.2491 16.0134C30.9311 15.7649 30.6145 15.5134 30.2848 15.2829C28.6613 14.1482 27.0335 13.021 25.4085 11.8909C23.4756 10.5466 21.5441 9.20089 19.6083 7.86265C19.5288 7.80726 19.4016 7.78032 19.3076 7.79678C18.7958 7.89109 18.2869 7.99887 17.7795 8.11413C17.6768 8.13808 17.5655 8.20245 17.4932 8.28029C17.1492 8.65152 16.8325 9.0497 16.4769 9.40747C15.7902 10.102 14.9965 10.629 14.0756 10.9313C13.7778 11.0286 13.4771 11.1214 13.1576 11.0676C12.4564 10.9478 11.8983 10.3176 11.7885 9.56764C11.709 9.03174 11.842 8.54824 12.0501 8.07521C12.4159 7.24292 12.8062 6.42111 13.1561 5.58284C13.3874 5.03047 13.5652 4.45566 13.7749 3.87036C13.7026 3.87036 13.6621 3.86737 13.6231 3.87036C13.0997 3.92275 12.5706 3.94072 12.0545 4.03802C11.2752 4.18621 9.12982 2.54708 8.48937 2.07256C8.19444 1.85401 7.90386 1.63097 7.63495 1.42739C5.57627 3.55601 3.53059 5.67116 1.47769 7.79379C1.90272 8.19047 2.33933 8.59165 2.76581 9.0033C2.92773 9.16048 3.10989 9.31915 3.21109 9.51674C3.5436 10.1649 5.27701 12.3339 5.60518 12.9836C5.77722 13.3234 5.99697 13.6378 6.2037 13.9761C6.38442 13.759 6.55501 13.5719 6.70681 13.3698C7.52508 12.2816 9.07922 12.1872 9.99724 13.1842C10.1852 13.3878 10.3225 13.6408 10.4859 13.8758C11.3562 13.3968 12.2265 13.3833 13.065 13.994C13.8688 14.5793 14.3416 15.3487 14.2491 16.419C15.0803 16.434 15.7063 16.8322 16.1906 17.4729C16.6952 18.139 16.7834 18.892 16.5448 19.6943C18.2161 19.9742 19.0358 21.9517 18.0498 23.4366ZM31.8722 14.9101C32.3204 14.3832 34.3502 12.3759 34.7839 11.8579C35.086 11.4972 35.3824 11.1289 35.6744 10.7577C35.712 10.7098 35.7279 10.611 35.7077 10.5541C35.407 9.72631 34.953 8.90151 34.6451 8.07671C33.8731 6.00796 33.0982 3.94072 32.3305 1.86898C32.2756 1.71929 32.2163 1.6639 32.0602 1.68785C31.1985 1.81958 28.8897 3.44524 28.0252 3.56349C27.6725 3.61139 27.3125 3.68175 26.9612 3.65481C26.0403 3.58445 25.1222 3.45572 24.2013 3.37039C23.0794 3.2671 21.9561 3.18477 20.8328 3.09346C19.6242 2.99466 18.4199 3.02161 17.2258 3.25962C16.594 3.38536 15.9781 3.559 15.4056 3.87336C15.0832 4.04999 14.8476 4.28201 14.7363 4.66822C14.4399 5.69361 14.0004 6.66361 13.5652 7.63362C13.3657 8.07671 13.1706 8.52279 12.9884 8.97336C12.9017 9.18742 12.9378 9.40896 13.039 9.61554C13.1445 9.83259 13.2819 9.89696 13.5074 9.83259C14.0698 9.67242 14.5859 9.41046 15.0558 9.0512C15.7121 8.54824 16.2586 7.9345 16.7574 7.26987C16.8716 7.11718 17.0075 7.00791 17.194 6.97048C17.9298 6.82079 18.6671 6.67409 19.403 6.51841C19.617 6.47351 19.7977 6.51392 19.9755 6.63817C21.5325 7.72493 23.0925 8.8087 24.6509 9.89097C26.1429 10.9283 27.6363 11.9627 29.1283 13.0001C30.0362 13.6318 30.947 14.2665 31.8722 14.9101ZM13.0795 16.1526C13.0694 16.0643 13.0621 15.9745 13.0477 15.8861C12.987 15.5224 12.7397 15.2978 12.4867 15.0748C11.9461 14.5973 11.2593 14.6542 10.8025 15.217C10.5379 15.5418 10.269 15.8622 10.0016 16.184C9.35824 16.9594 8.71201 17.7333 8.07589 18.5147C7.86916 18.7677 7.80266 19.0716 7.84747 19.4054C7.90096 19.8066 8.14963 20.0566 8.42865 20.3021C8.95778 20.7661 9.65172 20.7122 10.1042 20.1643C10.9355 19.1539 11.774 18.1495 12.6096 17.1435C12.8482 16.8546 13.0925 16.5717 13.0795 16.1526ZM10.6305 21.8259C10.6247 22.3199 10.9023 22.6357 11.2622 22.8932C11.7075 23.2121 12.3205 23.1312 12.6776 22.7106C12.9855 22.3468 13.2891 21.9786 13.5927 21.6119C14.1002 20.9996 14.6105 20.3874 15.1136 19.7706C15.2235 19.6359 15.3362 19.4922 15.4013 19.332C15.6124 18.8081 15.4476 18.3171 14.9459 17.9055C14.463 17.5088 13.8197 17.5582 13.4207 18.0357C12.5778 19.0446 11.7408 20.0581 10.9023 21.0715C10.723 21.287 10.6232 21.537 10.6305 21.8259ZM16.3439 20.9203C15.9217 20.9173 15.6586 21.0146 15.4664 21.2391C14.9748 21.8109 14.4876 22.3888 14.0206 22.98C13.6852 23.4052 13.7199 24.0144 14.0669 24.3976C14.5599 24.941 15.2871 24.8931 15.7714 24.2958C16.1747 23.7974 16.5897 23.3064 17.0002 22.8139C17.3125 22.4382 17.3949 22.0145 17.1969 21.5625C17.0089 21.1358 16.6663 20.9293 16.3439 20.9203ZM7.2316 17.2169C7.40653 17.1974 7.60026 17.2064 7.74194 17.0343C8.26673 16.3981 8.79441 15.7664 9.31631 15.1287C9.36547 15.0688 9.40161 14.985 9.41462 14.9057C9.48546 14.479 9.26716 14.03 8.90428 13.8369C8.49804 13.6213 8.03975 13.6737 7.74194 14.015C7.29232 14.5284 6.85716 15.0553 6.43502 15.5927C6.1878 15.9086 6.18202 16.2843 6.34683 16.6421C6.51598 17.0133 6.81813 17.2034 7.2316 17.2169Z" fill="white"/>
</g>
<defs>
<clipPath id="clip0">
<rect width="37" height="26" fill="white"/>
</clipPath>
</defs>
</svg>
