<svg width="36" height="22" viewBox="0 0 36 22" fill="none" xmlns="http://www.w3.org/2000/svg">
<path d="M8.26198 21.1112C16.9457 21.1112 25.6294 21.1112 34.2939 21.1112C35.9042 21.1112 35.9233 21.0936 35.9233 19.5624C35.9233 15.7783 35.9233 11.9943 35.9233 8.21018C35.9233 7.99897 35.8658 7.78777 35.9425 7.59416C35.9617 7.55896 35.9617 7.54136 35.9808 7.52376C35.9617 6.74935 35.9425 5.97493 35.9425 5.20052C35.9425 5.13011 35.9617 5.05971 35.9808 5.00691C36 4.4613 36.0383 3.88049 35.7508 3.51088C35.4058 3.08847 34.4281 3.10607 33.5463 2.87727C33.5463 2.50766 33.5463 1.96205 33.5463 1.41644C33.5655 0.800427 33.2204 0.501221 32.5495 0.501221C32.3578 0.501221 32.1661 0.501221 31.9744 0.501221C21.8339 0.501221 11.6741 0.501221 1.53355 0.518821C1.01597 0.518821 0.517572 0.730025 0 0.835627V18.26C0.728435 18.4008 1.45687 18.5592 2.39617 18.7352C2.39617 19.0344 2.39617 19.4568 2.39617 19.8792C2.41534 20.988 2.53035 21.0936 3.69968 21.1112C3.77636 21.1112 3.83387 21.1112 3.91054 21.1112H8.26198ZM32.0128 18.5768C33.4505 18.5768 33.5463 18.4888 33.5463 17.204C33.5463 13.3319 33.5463 9.4598 33.5463 5.58772V4.6549C34.4473 4.3733 34.3323 4.90131 34.3323 5.32372C34.3323 9.231 34.3323 13.1207 34.3323 17.028V19.6152H4.08307V18.5768H5.19489C14.1278 18.5768 23.0607 18.5768 32.0128 18.5768ZM28.2364 17.028C28.3898 15.3559 29.8275 14.0007 31.9553 13.5431V17.028H28.2364ZM31.8978 2.03245V5.46452C30.0767 5.35892 28.4473 3.88049 28.1406 2.03245H31.8978ZM1.64856 2.03245H5.3099C5.40575 3.58128 3.623 5.25332 1.64856 5.46452V2.03245ZM1.57188 7.08375C4.46645 6.48534 6.28754 5.00691 7.05431 2.45486C7.11182 2.24366 7.64856 1.99725 7.95527 1.99725C11.3674 1.96205 14.7796 1.97965 18.1917 1.97965C20.6837 1.97965 23.1757 1.96205 25.6677 1.99725C25.9553 1.99725 26.4345 2.22606 26.492 2.43726C27.2588 4.98931 29.0607 6.48534 31.9553 7.06615C31.9553 8.59738 31.9744 10.1286 31.9361 11.6774C31.9361 11.8182 31.7061 12.0471 31.5527 12.0823C28.6581 12.7159 27.0288 14.4407 26.377 17.0456H7.16933C6.99681 16.5351 6.84345 16.0247 6.63259 15.5671C5.78914 13.7895 4.3131 12.6455 2.28115 12.1703C1.72524 12.0471 1.57188 11.8358 1.57188 11.343C1.59105 9.93501 1.57188 8.54458 1.57188 7.08375ZM1.62939 17.116V13.7543C3.27796 13.5959 5.21406 15.3383 5.34824 17.116H1.62939Z" fill="white"/>
<path d="M15.9489 13.5783C15.9489 12.6455 15.9872 11.7126 15.9297 10.7798C15.9105 10.5686 15.6613 10.2694 15.4313 10.1638C14.0894 9.54781 13.2843 8.57979 13.2652 7.18936C13.2652 5.79894 14.0703 4.83092 15.393 4.19731C15.6422 4.07411 15.7572 3.7397 15.968 3.5285C16.2172 3.24689 16.5048 3.00049 16.7732 2.73648C17.0415 2.98289 17.3099 3.21169 17.5783 3.45809C17.8083 3.6869 17.9617 4.03891 18.23 4.16211C19.3802 4.72532 20.0894 5.57013 20.2811 6.76696C20.3578 7.27737 20.2428 7.75257 19.591 7.82298C18.9968 7.89338 18.8051 7.50617 18.6709 7.03096C18.5176 6.52055 18.1917 6.04534 17.9425 5.57013C17.8275 5.60533 17.7125 5.64054 17.5974 5.67574C17.5974 6.66135 17.5783 7.64697 17.6166 8.63259C17.6166 8.80859 17.9425 9.0198 18.1533 9.1254C19.4952 9.75901 20.2811 10.7446 20.262 12.1351C20.2428 13.4903 19.4569 14.4231 18.1725 15.0743C17.885 15.2151 17.7508 15.5671 17.5208 15.7959C17.2907 16.0071 17.0224 16.3063 16.754 16.3063C16.5048 16.3063 16.2172 16.0071 15.9872 15.7959C15.7188 15.5495 15.5463 15.1975 15.2396 15.0391C14.0894 14.4583 13.361 13.5959 13.2652 12.3991C13.246 12.0823 13.591 11.5542 13.8978 11.4486C14.4537 11.255 14.6837 11.6774 14.8371 12.1703C14.9904 12.6983 15.2971 13.1911 15.5271 13.7015C15.6997 13.6487 15.8339 13.6135 15.9489 13.5783ZM15.8914 8.56219C15.8914 7.57657 15.8914 6.62615 15.8914 5.64054C14.5303 6.45015 14.5303 7.84058 15.8914 8.56219ZM17.6358 13.6487C19.016 12.6631 18.9776 11.3606 17.6358 10.6742C17.6358 11.6422 17.6358 12.5751 17.6358 13.6487Z" fill="white"/>
</svg>
