<svg width="30" height="29" viewBox="0 0 30 29" fill="none" xmlns="http://www.w3.org/2000/svg">
<g clip-path="url(#clip0)">
<path d="M22.3475 20.6103C22.1475 22.4402 21.5073 23.1358 19.8467 23.3498C19.7067 24.9657 18.9564 25.9823 17.3159 26.0572C17.2859 26.2712 17.2558 26.4531 17.2258 26.6351C17.0858 27.5339 16.6356 28.2188 15.8654 28.5185C15.0751 28.8288 14.2548 28.8502 13.5646 28.1118C11.5439 25.9609 9.49325 23.8421 7.47258 21.6804C5.87205 19.979 4.28152 18.2775 2.731 16.5332C0.100124 13.6011 -0.490073 9.24576 1.20049 5.60738C2.88105 2.00111 6.43224 -0.0642049 10.2235 0.331736C11.724 0.492253 13.1045 0.973802 14.3149 1.9155C14.815 2.30074 15.1351 2.29004 15.6453 1.9262C19.9367 -1.15572 25.6486 0.17122 28.3896 4.8369C30.5303 8.48598 30.1101 13.2801 27.3692 16.4048C26.4389 17.4642 25.4586 18.4701 24.5083 19.5188C23.9081 20.1716 23.2778 20.7066 22.3475 20.6103ZM14.3949 3.22103C13.0444 2.12952 11.754 1.56236 10.3135 1.36974C6.9324 0.909596 3.61129 2.77159 2.11079 5.98192C0.520264 9.37417 1.05044 13.248 3.51126 15.9554C5.09179 17.6996 6.69232 19.4332 8.30286 21.1454C10.2235 23.2 12.1641 25.2439 14.0948 27.2878C14.5349 27.7587 15.0251 27.8122 15.5653 27.5447C16.1155 27.2664 16.3455 26.7528 16.2655 26.1321C16.2255 25.8539 16.0454 25.5649 15.8554 25.3509C14.2448 23.5638 12.6243 21.7982 11.0038 20.0218C10.7537 19.7542 10.4136 19.4225 10.7837 19.0801C10.9037 18.9624 11.4039 19.1336 11.604 19.3262C12.2942 19.9683 12.9244 20.6745 13.5846 21.3594C14.585 22.4081 15.5853 23.4675 16.5956 24.5162C16.9557 24.8908 17.3659 25.169 17.9161 24.9336C18.8864 24.5269 19.1365 23.4568 18.4062 22.6435C16.7557 20.803 15.0751 18.9945 13.4346 17.1432C13.2945 16.9827 13.3345 16.6295 13.2945 16.3727C13.5446 16.4155 13.8747 16.362 14.0348 16.5118C14.765 17.2074 15.4552 17.9565 16.1555 18.6841C17.1758 19.7435 18.1962 20.8137 19.2265 21.8731C19.5866 22.2476 20.0568 22.483 20.4969 22.1727C20.847 21.9266 21.2572 21.4878 21.3072 21.0812C21.3572 20.6745 21.0971 20.1074 20.807 19.7756C19.4966 18.2775 18.1261 16.8435 16.7957 15.3775C16.3856 14.9173 15.9954 14.4358 15.6253 13.9756C15.9054 13.4192 16.1855 13.4299 16.5256 13.7616C16.7857 14.0185 17.0558 14.2646 17.3159 14.5321C18.7663 16.0517 20.1968 17.5819 21.6673 19.0801C22.2775 19.7007 23.0178 19.7114 23.5079 19.1871C24.0681 18.5878 24.0881 17.8815 23.4279 17.1753C20.857 14.4465 18.6663 11.2255 14.805 9.631C14.1548 10.4122 13.3846 11.4395 12.5043 12.3491C11.3139 13.569 9.50326 13.5904 8.23283 12.4882C7.29252 11.6749 7.2225 10.7118 8.07278 9.82362C10.1135 7.66199 12.2142 5.48967 14.3949 3.22103ZM19.4066 11.3218C21.1671 13.462 23.3279 15.2598 24.9384 17.6996C25.5686 16.9827 26.2488 16.2657 26.859 15.4845C29.62 11.9745 29.3999 6.99853 26.3589 3.77749C23.3479 0.599264 18.6863 0.406644 15.7353 3.16753C13.2445 5.51107 11.0038 8.15424 8.65298 10.6476C8.31286 11.0114 8.37288 11.3218 8.68299 11.6107C8.86305 11.7819 9.07312 11.9317 9.29319 12.0387C10.3035 12.4989 11.2038 12.3063 11.9841 11.4823C12.8544 10.562 13.7447 9.6631 14.625 8.74281C14.9951 8.35757 15.3452 8.32546 15.7053 8.74281C15.8054 8.86052 15.9354 8.96753 16.0554 9.07454C17.686 10.5085 18.8664 10.5513 20.627 9.30996C20.797 9.19225 21.0971 9.27786 21.3272 9.26716C21.2972 9.53469 21.3572 9.94133 21.2072 10.059C20.657 10.5299 20.0368 10.8937 19.4066 11.3218Z" fill="white" stroke="white" stroke-width="0.5" stroke-miterlimit="10"/>
</g>
<defs>
<clipPath id="clip0">
<rect width="30" height="29" fill="white"/>
</clipPath>
</defs>
</svg>
