<svg width="34" height="32" viewBox="0 0 34 32" fill="none" xmlns="http://www.w3.org/2000/svg">
<path d="M32.9048 21.4897C32.9048 22.8573 32.9048 24.6155 32.9048 26.2878C27.1214 27.6944 21.4589 29.0698 15.8045 30.4686C14.7171 30.7421 13.8069 30.6327 12.8725 29.9607C9.44121 27.4991 5.96155 25.1 2.50605 22.6775C1.42671 21.9195 1.10452 20.8255 1.70057 19.9737C2.36912 19.0203 3.6015 18.9265 4.7775 19.6924C7.09727 21.2006 9.40899 22.7244 11.8013 24.1232C12.4134 24.4827 13.3639 24.6077 14.0727 24.467C16.2636 24.0216 18.4223 23.3886 20.589 22.8182C21.7489 22.5134 22.3288 21.7945 22.2161 20.8333C22.0953 19.8174 21.3139 19.1297 20.1299 19.0906C18.9297 19.0516 17.7215 19.0594 16.5214 19.075C15.7481 19.0828 15.0312 18.9422 15.0554 18.0435C15.0796 17.2308 15.6998 16.9104 16.5052 16.926C19.0667 16.9651 21.6522 16.7854 24.1734 17.1136C25.6232 17.3011 26.9764 18.2545 28.3296 18.95C29.8037 19.708 31.2294 20.5598 32.9048 21.4897Z" stroke="white" stroke-width="1.2" stroke-miterlimit="10"/>
<path d="M15.4585 3.7976C16.5218 3.00051 17.3353 2.14873 18.3421 1.69549C19.8806 0.992177 21.7735 1.5939 22.7723 2.82859C23.8919 4.21958 24.0369 5.99348 22.8931 7.38447C21.846 8.65824 20.5894 9.7679 19.4054 10.9323C18.318 11.995 17.1984 13.0344 16.0868 14.0815C15.9901 14.1753 15.8613 14.2378 15.5713 14.441C14.6369 13.5501 13.6784 12.6515 12.728 11.7372C11.4553 10.5259 10.1827 9.31466 8.92611 8.08778C7.1299 6.3295 7.18628 3.76634 9.01471 2.30502C10.8673 0.828072 13.4771 1.20317 14.935 3.16462C15.1202 3.39905 15.3297 3.63349 15.4585 3.7976Z" stroke="white" stroke-width="1.3" stroke-miterlimit="10"/>
</svg>
