<svg width="30" height="30" viewBox="0 0 30 30" fill="none" xmlns="http://www.w3.org/2000/svg">
<circle cx="15" cy="15" r="14" stroke="white" stroke-width="2"/>
<path d="M13.8804 17.2896C13.8804 16.5148 13.9744 15.8978 14.1626 15.4385C14.3507 14.9792 14.6938 14.5282 15.1919 14.0854C15.6955 13.6372 16.0303 13.2747 16.1963 12.998C16.3623 12.7158 16.4453 12.4198 16.4453 12.1099C16.4453 11.1746 16.0137 10.707 15.1504 10.707C14.7409 10.707 14.4116 10.8343 14.1626 11.0889C13.9191 11.3379 13.7918 11.6838 13.7808 12.1265H11.3735C11.3846 11.0695 11.7249 10.2422 12.3945 9.64453C13.0697 9.04688 13.9883 8.74805 15.1504 8.74805C16.3236 8.74805 17.2339 9.03304 17.8813 9.60303C18.5288 10.1675 18.8525 10.9671 18.8525 12.002C18.8525 12.4723 18.7474 12.9178 18.5371 13.3384C18.3268 13.7534 17.9588 14.2155 17.4331 14.7246L16.7607 15.3638C16.3402 15.7677 16.0994 16.2409 16.0386 16.7832L16.0054 17.2896H13.8804ZM13.6396 19.8379C13.6396 19.4671 13.7642 19.1628 14.0132 18.9248C14.2677 18.6813 14.5915 18.5596 14.9844 18.5596C15.3773 18.5596 15.6982 18.6813 15.9473 18.9248C16.2018 19.1628 16.3291 19.4671 16.3291 19.8379C16.3291 20.2031 16.2046 20.5047 15.9556 20.7427C15.7121 20.9806 15.3883 21.0996 14.9844 21.0996C14.5804 21.0996 14.2539 20.9806 14.0049 20.7427C13.7614 20.5047 13.6396 20.2031 13.6396 19.8379Z" fill="white"/>
</svg>
