<svg width="29" height="23" viewBox="0 0 29 23" fill="none" xmlns="http://www.w3.org/2000/svg">
<path fill-rule="evenodd" clip-rule="evenodd" d="M28.6658 0.69963C28.8754 0.836729 29 1.04695 29 1.26631V20.2775C29 20.6248 28.6941 20.9264 28.2693 20.995L19.2068 22.4574H18.85L9.96875 21.0224L1.08184 22.4574C0.594727 22.5351 0.113281 22.2791 0.0169922 21.8815L0 21.7399V2.72871C0 2.38139 0.305859 2.07977 0.730664 2.01122L9.79316 0.54882H10.15L19.0312 1.9838L27.9182 0.54882C28.1844 0.50769 28.4563 0.56253 28.6658 0.69963ZM18.125 3.32738L10.875 2.15746V19.6788L18.125 20.8487V3.32738ZM19.9375 20.8487L27.1875 19.6788V2.15746L19.9375 3.32738V20.8487ZM9.0625 19.6788V2.15746L1.8125 3.32738V20.8487L9.0625 19.6788Z" fill="white"/>
</svg>
