<svg width="486" height="451" viewBox="0 0 486 451" fill="none" xmlns="http://www.w3.org/2000/svg">
<path d="M3.57996 113.63C1.68471 110.582 0.648182 107.079 0.579959 103.49C0.579959 100.86 0.279957 98.21 1.08996 95.64C4.08996 86.27 10.29 80.37 19.89 78.13C24.9204 77.0185 30.1837 77.7831 34.69 80.28C35.83 80.87 36.97 81.44 38.11 82.01C39.9365 83.8784 41.6369 85.8661 43.2 87.96L43.34 88.15C43.4114 88.246 43.5018 88.3265 43.6054 88.3864C43.709 88.4463 43.8238 88.4845 43.9427 88.4985C44.0615 88.5125 44.182 88.5022 44.2968 88.468C44.4115 88.4339 44.5181 88.3767 44.61 88.3C45.22 87.95 44.97 87.5 44.69 87.11C44.1048 86.168 43.4354 85.281 42.69 84.46C42.2898 84.0928 42.0285 83.5989 41.9502 83.0615C41.8719 82.5241 41.9813 81.9761 42.26 81.51C43.49 81.32 44.37 80.44 45.41 79.89C50.81 77.04 55.92 77.59 60.9 80.89C64.723 83.3712 67.5268 87.1438 68.8 91.52C69.2402 93.4547 69.3383 95.4515 69.09 97.42C67.09 96.7 65.34 95.42 63.41 94.47C62.9161 94.2245 62.4086 94.0075 61.89 93.82C61.7361 93.7772 61.5718 93.7935 61.4293 93.8657C61.2868 93.9378 61.1765 94.0606 61.12 94.21C61.0344 94.3463 60.9978 94.5076 61.0159 94.6675C61.0341 94.8274 61.106 94.9763 61.22 95.09C61.5262 95.3485 61.8619 95.5701 62.22 95.75L69.4799 99.75C69.7999 99.93 70.06 99.93 70.27 99.6C70.6493 100.205 71.1453 100.729 71.729 101.141C72.3127 101.553 72.9724 101.845 73.67 102C77.4402 103.243 81.3321 104.081 85.28 104.5C91.9142 105.305 98.6024 105.575 105.28 105.31C108.37 105.18 111.46 104.88 114.56 104.9C116.66 104.9 116.67 104.9 116.7 107.03C116.7 107.67 116.7 108.31 116.7 108.94C116.7 111.03 116.36 111.41 114.25 111.59C102.64 112.59 91.47 115.59 80.25 118.59C77.76 119.25 75.25 119.95 72.78 120.64C72.32 120.76 71.78 120.81 71.55 121.29C70.6824 121.178 69.8006 121.291 68.99 121.62C66.46 122.33 63.92 122.99 61.4 123.68C60.86 123.82 60.33 124.01 59.8 124.17C59.644 124.205 59.5049 124.292 59.4064 124.418C59.3079 124.544 59.2561 124.7 59.26 124.86C59.261 124.96 59.2827 125.059 59.3237 125.151C59.3647 125.242 59.4241 125.324 59.4982 125.392C59.5723 125.46 59.6596 125.511 59.7545 125.543C59.8494 125.576 59.95 125.588 60.05 125.58C60.5249 125.587 60.9987 125.533 61.46 125.42C64.3 124.66 67.14 123.88 69.96 123.09C70.599 123.019 71.1845 122.699 71.59 122.2C74.5 123.6 76.0799 126.13 77.3699 128.94C78.2635 130.944 78.7254 133.114 78.7257 135.308C78.7259 137.502 78.2645 139.672 77.3713 141.676C76.4782 143.68 75.1733 145.474 73.5415 146.941C71.9098 148.407 69.9876 149.515 67.9 150.19C65.8923 150.852 63.7702 151.095 61.6648 150.904C59.5595 150.714 57.5157 150.093 55.66 149.08C55.4572 148.927 55.2232 148.821 54.9746 148.768C54.7261 148.716 54.4691 148.719 54.2219 148.777C53.9746 148.836 53.7433 148.948 53.5442 149.105C53.3451 149.263 53.1832 149.463 53.07 149.69C47.81 156.55 40.77 159.62 32.24 159.08C25.76 158.67 21.15 155.19 18.1 149.53C16.7007 146.67 15.814 143.587 15.48 140.42C17.23 140.42 18.98 140.48 20.72 140.48C21.1937 140.479 21.6649 140.411 22.12 140.28C22.2175 140.224 22.3008 140.146 22.3633 140.052C22.4257 139.959 22.4657 139.852 22.48 139.74C22.4628 139.625 22.4231 139.515 22.363 139.415C22.3029 139.315 22.2237 139.229 22.13 139.16C21.72 138.84 21.23 138.98 20.76 139.01C18.6945 139.116 16.624 138.955 14.6 138.53C9.59996 138.75 4.46996 134.19 2.99996 130.1C2.28541 128.378 1.95717 126.52 2.03837 124.658C2.11958 122.795 2.60825 120.973 3.46996 119.32C3.69763 118.816 3.89465 118.298 4.05995 117.77C4.93995 117.7 5.49996 118.29 6.15996 118.77C7.15996 119.47 8.08996 120.42 9.42996 120.6C9.64996 119.14 9.66996 119.09 8.71996 118.47C6.64846 117.285 4.88705 115.627 3.57996 113.63V113.63ZM43.37 120C45.4799 120.263 47.549 120.787 49.53 121.56C54.18 123.62 56.25 126.93 55.85 131.97C55.78 132.84 55.53 133.69 55.38 134.55C55.28 135.1 55.09 135.75 55.82 135.97C56.55 136.19 56.67 135.49 56.82 134.97C58.91 128.27 56.38 123.05 50.52 120.28C49.85 119.96 48.98 119.9 48.59 119.09C48.7559 118.878 48.9328 118.674 49.12 118.48C53.72 114.19 55.27 108.7 55.12 102.66C55.144 100.589 54.4647 98.5712 53.1931 96.9364C51.9216 95.3016 50.1331 94.1465 48.12 93.66C47.57 93.53 46.95 93.33 46.76 94.12C46.63 94.67 47.03 95 47.52 95.12C48.01 95.24 48.28 95.34 48.65 95.49C49.8827 95.9697 50.9692 96.7624 51.8021 97.79C52.6351 98.8176 53.1858 100.045 53.4 101.35C53.737 103.238 53.6756 105.177 53.22 107.04C52.1 112.71 49.76 117.52 43.67 119.39C43.7 119.5 43.66 119.6 43.37 120ZM100.76 107.52C97.6699 108.04 94.63 107.99 91.61 108.22C82.55 108.9 73.49 109.66 64.47 110.79C61.7633 111.029 59.0849 111.522 56.47 112.26C56 112.41 55.57 112.68 55.75 113.26C55.93 113.84 56.39 113.82 56.89 113.69C60.3957 112.911 63.9456 112.347 67.52 112C75.35 111 83.22 110.42 91.08 109.81C94.26 109.56 97.45 109.39 100.63 109.18C101.22 109.18 101.81 109.05 101.73 108.26C101.66 107.61 101.19 107.49 100.76 107.52Z" fill="#C9E1EF"/>
<path d="M481.72 122.71C482.087 122.87 482.39 123.148 482.58 123.5C485.46 128.27 484.58 137.08 479.16 140.6C476.91 142.06 474.78 143.44 472.01 143.35C470.228 143.726 468.411 143.914 466.59 143.91C465.73 143.91 464.12 143.05 464.12 144.65C464.12 145.76 465.71 145.53 466.69 145.65C468.04 145.79 469.34 145.06 470.69 145.41C470.2 152.14 467.48 157.64 461.83 161.56C459.739 162.933 457.326 163.736 454.83 163.89C448.04 164.51 441.89 162.89 436.71 158.2C435.39 157.06 434.184 155.794 433.11 154.42C433.005 154.21 432.855 154.025 432.669 153.881C432.484 153.737 432.268 153.637 432.038 153.588C431.808 153.539 431.57 153.542 431.342 153.598C431.114 153.654 430.901 153.76 430.72 153.91C428.339 155.236 425.644 155.896 422.92 155.82C418.21 155.64 414.56 153.58 411.3 150.16C406.88 145.52 406.57 136.7 410.3 131.25C411.309 129.711 412.652 128.418 414.23 127.47C414.77 127.59 415.32 127.7 415.86 127.84L425.79 130.5C426.25 130.62 426.79 130.82 426.96 130.15C427.13 129.48 426.84 129.15 426.19 128.94C425.8 128.85 425.43 128.69 425.05 128.58L414.2 125.64C407.52 123.86 400.85 122.04 394.15 120.31C387.45 118.58 380.52 117.31 373.64 116.08C373.243 116.022 372.841 115.998 372.44 116.01C369.77 116.01 369.9 115.95 369.92 113.28C369.92 109.41 369.49 109.57 373.32 109.83C379.522 110.3 385.745 110.42 391.96 110.19C398.46 109.89 404.96 109.39 411.25 107.44C413.328 106.874 415.261 105.872 416.92 104.5C418.55 103.66 420.18 102.84 421.8 101.98C422.8 101.46 423.75 100.89 424.71 100.33C425.12 100.09 425.6 99.82 425.33 99.23C425.06 98.64 424.47 98.62 423.91 98.88C423.35 99.14 423.06 99.3 422.64 99.54L417 102.66C416.4 96.07 419.13 90.95 424 86.8C424.118 86.689 424.257 86.6038 424.41 86.55C425.27 86.23 424.67 84.77 425.59 84.74C428.85 84.63 431.59 82.2 435.04 82.91C437.68 83.47 440.32 84 442.57 85.64C443.34 86.2 444.21 86.64 445.03 87.09C444.698 87.8947 444.224 88.6331 443.63 89.27C442.92 90.13 442.24 91.02 441.63 91.93C441.36 92.32 441.2 92.86 441.71 93.2C441.919 93.3173 442.163 93.3556 442.398 93.3078C442.633 93.2601 442.843 93.1296 442.99 92.94C443.26 92.65 443.49 92.32 443.74 92.01C445.1 90.35 446.25 88.51 448.08 87.29C448.32 87.13 448.29 86.89 448.08 86.69C450.3 85.89 452.3 84.6 454.55 83.83C462.62 81.07 469.92 82.62 476.55 87.65C483.44 92.86 486.35 100.03 485.9 108.49C485.826 112.499 484.418 116.369 481.9 119.49C481.565 120.297 480.97 120.969 480.21 121.4C479.21 122.08 478.31 122.82 477.31 123.45C476.62 123.89 476.11 124.45 476.65 125.16C477.19 125.87 477.81 125.16 478.31 124.91C479.57 124.3 480.47 123.24 481.72 122.71ZM437.72 123.89C437.214 124.428 436.576 124.824 435.87 125.04C429.6 127.92 427.87 133.12 429.41 139.53C429.463 139.846 429.554 140.155 429.68 140.45C429.756 140.64 429.903 140.792 430.09 140.874C430.277 140.957 430.489 140.962 430.68 140.89C430.778 140.871 430.872 140.833 430.955 140.777C431.038 140.721 431.108 140.648 431.163 140.564C431.217 140.48 431.253 140.386 431.27 140.287C431.287 140.188 431.283 140.087 431.26 139.99C431.12 139.29 430.93 138.6 430.77 137.9C430.258 135.956 430.39 133.897 431.148 132.035C431.905 130.172 433.246 128.605 434.97 127.57C437.01 126.307 439.287 125.474 441.66 125.12C442.15 125.03 442.82 125.3 443.09 124.62C442.96 124.23 442.63 124.19 442.34 124.11C440.883 123.666 439.529 122.938 438.355 121.969C437.181 120.999 436.211 119.806 435.5 118.46C433.807 115.547 432.888 112.249 432.83 108.88C432.72 104.88 434.22 101.53 438.49 100.2L438.95 100.07C439.067 100.042 439.176 99.9897 439.271 99.9164C439.366 99.8431 439.445 99.7505 439.501 99.6447C439.558 99.5389 439.592 99.4223 439.6 99.3025C439.608 99.1828 439.591 99.0627 439.55 98.95C439.42 98.32 438.96 98.32 438.44 98.44C437.178 98.6799 435.985 99.1973 434.947 99.9548C433.909 100.712 433.053 101.691 432.44 102.82C430.73 105.98 431.09 109.36 431.59 112.66C432.172 117.024 434.34 121.021 437.68 123.89H437.72ZM386.12 112.31L385.64 112.26C385.501 112.24 385.36 112.251 385.226 112.294C385.093 112.336 384.97 112.408 384.868 112.504C384.766 112.6 384.688 112.718 384.638 112.849C384.588 112.98 384.568 113.12 384.58 113.26C384.58 113.92 385.13 113.94 385.58 113.96C387.01 114.02 388.45 114.01 389.88 114.13C396.63 114.7 403.37 115.26 410.11 115.9C416.53 116.51 422.97 116.97 429.25 118.58C429.9 118.75 430.62 118.95 430.81 118.08C431 117.21 430.21 117.08 429.6 116.91C428.04 116.57 426.48 116.22 424.91 115.97C418.91 115.04 412.91 114.4 406.85 113.97C399.92 113.44 393 112.87 386.08 112.31H386.12Z" fill="#CAE1F0"/>
<path d="M107.35 46.55C107.26 46.7446 107.149 46.929 107.02 47.1C106.964 47.1843 106.891 47.2557 106.805 47.3092C106.719 47.3628 106.622 47.3974 106.522 47.4107C106.421 47.4239 106.319 47.4156 106.223 47.3861C106.126 47.3567 106.036 47.3069 105.96 47.24C104.96 46.46 103.96 45.66 102.96 44.86L89.2801 34C88.9101 33.71 88.5301 33.41 88.1801 33.09C88.0813 33.0211 87.9987 32.9316 87.9379 32.8276C87.8772 32.7236 87.8399 32.6077 87.8284 32.4878C87.817 32.3679 87.8318 32.247 87.8718 32.1334C87.9118 32.0198 87.9761 31.9163 88.0601 31.83C88.3901 31.45 88.7801 31.57 89.1401 31.83C89.5001 32.09 89.7801 32.3 90.1401 32.54C95.5201 36.81 100.89 41.06 106.25 45.34C106.62 45.64 107.17 45.89 107.35 46.55Z" fill="#27A6D1"/>
<path d="M359.94 20C359.22 20 359.01 19.24 359.5 18.39C361.18 15.51 362.88 12.63 364.57 9.75002C365.57 8.10002 366.48 6.45002 367.46 4.81002C367.76 4.32002 367.98 3.52002 368.87 4.12002C369.57 4.60002 369.14 5.12003 368.87 5.57003C367.74 7.57003 366.57 9.57003 365.41 11.57C363.96 14.04 362.53 16.52 361.05 18.97C360.81 19.42 360.67 20.08 359.94 20Z" fill="#27A6D1"/>
<path d="M391 75L384.58 75.34C384.34 75.34 384.1 75.34 383.86 75.34C383.18 75.39 382.78 75.1 382.79 74.4C382.8 73.7 383.36 73.77 383.79 73.74L391.16 73.3C393.61 73.16 396.07 73.04 398.53 72.92C399.06 72.92 399.77 72.77 399.83 73.55C399.89 74.33 399.31 74.55 398.57 74.61C396.04 74.69 393.5 74.81 390.96 74.92L391 75Z" fill="#27A6D1"/>
<path d="M103.53 57.6L94.29 55.45C92.51 55.04 90.74 54.6 88.95 54.18C88.37 54.05 87.81 53.86 87.95 53.13C88.09 52.4 88.7 52.5 89.28 52.64L103.48 56L103.71 56.06C104.18 56.17 104.71 56.28 104.63 56.92C104.55 57.56 103.93 57.64 103.53 57.6Z" fill="#27A6D1"/>
<path d="M392.75 58.56C392.75 58.98 392.38 59.21 392.1 59.47C388.947 62.3967 385.793 65.3167 382.64 68.23C382.22 68.62 381.83 69.06 381.26 68.43C380.69 67.8 381.14 67.43 381.55 67.03L391.37 57.96C391.62 57.73 391.86 57.59 392.2 57.79C392.344 57.8682 392.469 57.9781 392.564 58.1116C392.659 58.245 392.723 58.3983 392.75 58.56V58.56Z" fill="#27A6D1"/>
<path d="M414.23 125.63L425.08 128.57C425.46 128.68 425.83 128.84 426.22 128.93C426.87 129.1 427.22 129.47 426.99 130.14C426.76 130.81 426.28 130.61 425.82 130.49L415.89 127.83C415.35 127.69 414.8 127.58 414.26 127.46C414.105 126.861 414.095 126.234 414.23 125.63V125.63Z" fill="#27A6D1"/>
<path d="M71.6 122.23C71.1945 122.729 70.6091 123.049 69.97 123.12C67.15 123.91 64.31 124.69 61.47 125.45C61.0088 125.563 60.5349 125.617 60.06 125.61C59.96 125.618 59.8594 125.606 59.7645 125.573C59.6696 125.541 59.5823 125.49 59.5082 125.422C59.4341 125.354 59.3747 125.272 59.3337 125.181C59.2927 125.089 59.271 124.99 59.27 124.89C59.2662 124.73 59.3179 124.574 59.4164 124.448C59.5149 124.322 59.654 124.235 59.81 124.2C60.34 124.04 60.87 123.85 61.41 123.71C63.93 123.02 66.47 122.36 69 121.65C69.8107 121.321 70.6925 121.208 71.56 121.32C71.58 121.62 71.59 121.92 71.6 122.23Z" fill="#27A6D1"/>
<path d="M377 18.08C376.972 18.2843 376.899 18.4798 376.787 18.6527C376.674 18.8256 376.525 18.9715 376.35 19.08C374.21 20.85 372.05 22.58 369.92 24.35C369.831 24.4563 369.717 24.5399 369.59 24.5941C369.462 24.6482 369.323 24.6714 369.184 24.6616C369.046 24.6519 368.912 24.6095 368.793 24.538C368.674 24.4664 368.573 24.3677 368.5 24.25C368.05 23.73 368.4 23.43 368.8 23.11C371.08 21.27 373.357 19.4267 375.63 17.58C375.98 17.29 376.32 17.2 376.63 17.53C376.78 17.6938 376.905 17.8792 377 18.08V18.08Z" fill="#27A6D1"/>
<path d="M42.2699 81.51C41.9912 81.9761 41.8818 82.5241 41.9601 83.0615C42.0385 83.5989 42.2997 84.0928 42.6999 84.46C43.4453 85.281 44.1148 86.168 44.6999 87.11C44.9799 87.5 45.2299 87.95 44.6199 88.3C44.528 88.3767 44.4214 88.4339 44.3067 88.4681C44.192 88.5022 44.0715 88.5126 43.9526 88.4985C43.8337 88.4845 43.7189 88.4463 43.6153 88.3864C43.5117 88.3265 43.4214 88.246 43.3499 88.15L43.2099 87.96C41.6536 85.8633 39.9599 83.8723 38.1399 82C39.4788 81.6034 40.8754 81.4377 42.2699 81.51V81.51Z" fill="#27A6D1"/>
<path d="M70.26 99.66C70.05 99.99 69.79 99.99 69.47 99.81L62.21 95.81C61.8519 95.63 61.5163 95.4085 61.21 95.15C61.0961 95.0363 61.0242 94.8874 61.006 94.7275C60.9878 94.5676 61.0245 94.4063 61.11 94.27C61.1666 94.1206 61.2769 93.9978 61.4194 93.9257C61.5619 93.8535 61.7262 93.8372 61.88 93.88C62.3987 94.0675 62.9062 94.2845 63.4 94.53C65.33 95.45 67.05 96.76 69.08 97.48C69.6321 98.1088 70.0354 98.8539 70.26 99.66V99.66Z" fill="#27A6D1"/>
<path d="M417 102.66L422.64 99.53C423.06 99.29 423.48 99.07 423.91 98.87C424.34 98.67 425.03 98.55 425.33 99.22C425.63 99.89 425.12 100.08 424.71 100.32C423.71 100.88 422.79 101.45 421.8 101.97C420.18 102.83 418.55 103.65 416.92 104.49L417 102.66Z" fill="#27A6D1"/>
<path d="M448.11 86.69C448.31 86.89 448.34 87.13 448.11 87.29C446.28 88.51 445.11 90.35 443.77 92.01C443.52 92.32 443.29 92.65 443.02 92.94C442.873 93.1296 442.663 93.2601 442.428 93.3078C442.193 93.3556 441.949 93.3173 441.74 93.2C441.23 92.86 441.39 92.32 441.66 91.93C442.3 91.02 442.98 90.13 443.66 89.27C444.254 88.6331 444.728 87.8947 445.06 87.09L448.11 86.69Z" fill="#27A6D1"/>
<path d="M3.57988 113.63C4.8898 115.628 6.65474 117.286 8.72988 118.47C9.72988 119.09 9.65988 119.14 9.43988 120.6C8.09988 120.42 7.19987 119.47 6.16987 118.77C5.50987 118.32 4.94988 117.77 4.06988 117.77C3.91988 116.41 3.23988 115.08 3.57988 113.63Z" fill="#27A6D1"/>
<path d="M470.7 145.4C469.34 145.05 468.04 145.78 466.7 145.64C465.7 145.53 464.14 145.76 464.13 144.64C464.13 143.04 465.74 143.95 466.6 143.9C468.421 143.904 470.238 143.716 472.02 143.34C471.65 144.09 471.49 145 470.7 145.4Z" fill="#27A6D1"/>
<path d="M481.72 122.71C480.47 123.24 479.57 124.3 478.38 124.91C477.88 125.17 477.24 125.86 476.72 125.16C476.2 124.46 476.72 123.89 477.38 123.45C478.38 122.82 479.31 122.08 480.28 121.4C481.04 120.969 481.635 120.297 481.97 119.49L482.12 121.19C482.066 121.211 482.017 121.242 481.976 121.283C481.934 121.323 481.902 121.371 481.879 121.424C481.857 121.477 481.845 121.534 481.845 121.592C481.846 121.65 481.857 121.707 481.88 121.76C481.83 122.08 481.77 122.39 481.72 122.71Z" fill="#27A6D1"/>
<path d="M14.6101 138.56C16.6342 138.985 18.7047 139.146 20.7701 139.04C21.2401 139.04 21.7701 138.87 22.1401 139.19C22.2339 139.259 22.3131 139.345 22.3732 139.445C22.4332 139.545 22.473 139.655 22.4901 139.77C22.4758 139.882 22.4359 139.989 22.3734 140.082C22.311 140.176 22.2277 140.254 22.1301 140.31C21.675 140.441 21.2038 140.509 20.7301 140.51C18.9901 140.51 17.2401 140.51 15.4901 140.45C15.2228 140.211 15.0069 139.92 14.8556 139.596C14.7043 139.271 14.6208 138.918 14.6101 138.56V138.56Z" fill="#27A6D1"/>
<path d="M481.88 121.76C481.857 121.707 481.846 121.65 481.845 121.592C481.845 121.534 481.857 121.477 481.879 121.424C481.902 121.371 481.934 121.323 481.976 121.283C482.017 121.242 482.066 121.211 482.12 121.19C482.143 121.298 482.133 121.411 482.09 121.513C482.047 121.615 481.974 121.701 481.88 121.76Z" fill="#CAE1F0"/>
<path d="M43.3701 120C43.6601 119.6 43.7001 119.5 43.7601 119.48C49.8501 117.61 52.1901 112.8 53.3101 107.13C53.7658 105.267 53.8271 103.329 53.4901 101.44C53.276 100.135 52.7252 98.9077 51.8923 97.88C51.0593 96.8524 49.9729 96.0597 48.7401 95.58C48.3701 95.43 47.9801 95.35 47.6101 95.21C47.2401 95.07 46.7201 94.71 46.8501 94.21C47.0401 93.42 47.6601 93.62 48.2101 93.75C50.2232 94.2365 52.0118 95.3916 53.2833 97.0264C54.5548 98.6612 55.2341 100.679 55.2101 102.75C55.3201 108.75 53.7701 114.28 49.2101 118.57C49.0229 118.764 48.846 118.968 48.6801 119.18C49.0701 119.99 49.9401 120.05 50.6101 120.37C56.4701 123.14 59.0001 128.37 56.9101 135.06C56.7401 135.58 56.7001 136.29 55.9101 136.06C55.1201 135.83 55.3701 135.19 55.4701 134.64C55.6201 133.78 55.8701 132.93 55.9401 132.06C56.3401 127.06 54.2701 123.71 49.6201 121.65C47.6144 120.839 45.5145 120.285 43.3701 120Z" fill="#27A6D1"/>
<path d="M100.76 107.52C101.19 107.52 101.66 107.61 101.76 108.22C101.84 109.01 101.25 109.1 100.66 109.14C97.4801 109.35 94.2901 109.52 91.1101 109.77C83.2501 110.38 75.3801 110.97 67.5501 111.96C63.9778 112.327 60.4313 112.911 56.9301 113.71C56.4301 113.84 55.9301 113.9 55.7901 113.28C55.6501 112.66 56.0401 112.41 56.5101 112.28C59.1251 111.541 61.8034 111.049 64.5101 110.81C73.5101 109.68 82.5901 108.92 91.6501 108.24C94.6301 108 97.6701 108 100.76 107.52Z" fill="#27A6D1"/>
<path d="M437.68 123.89C434.329 121.026 432.15 117.028 431.56 112.66C431.06 109.36 430.7 105.98 432.41 102.82C433.023 101.691 433.879 100.712 434.917 99.9548C435.955 99.1973 437.148 98.6799 438.41 98.44C438.93 98.32 439.41 98.32 439.52 98.95C439.561 99.0627 439.578 99.1828 439.57 99.3026C439.562 99.4223 439.528 99.5389 439.471 99.6447C439.415 99.7505 439.336 99.8432 439.241 99.9165C439.146 99.9898 439.037 100.042 438.92 100.07L438.46 100.2C434.19 101.53 432.69 104.84 432.8 108.88C432.858 112.249 433.777 115.547 435.47 118.46C436.181 119.806 437.151 120.999 438.325 121.969C439.499 122.938 440.853 123.666 442.31 124.11C442.6 124.19 442.93 124.23 443.06 124.62C442.79 125.3 442.12 125.03 441.63 125.12C439.257 125.474 436.98 126.307 434.94 127.57C433.216 128.605 431.875 130.172 431.118 132.035C430.36 133.897 430.228 135.956 430.74 137.9C430.9 138.6 431.09 139.29 431.23 139.99C431.253 140.087 431.257 140.188 431.24 140.287C431.223 140.386 431.187 140.48 431.133 140.564C431.078 140.648 431.008 140.721 430.925 140.777C430.842 140.833 430.748 140.871 430.65 140.89C430.459 140.962 430.247 140.957 430.06 140.874C429.873 140.792 429.726 140.64 429.65 140.45C429.524 140.155 429.433 139.846 429.38 139.53C427.84 133.12 429.57 127.92 435.84 125.04C436.542 124.822 437.176 124.426 437.68 123.89V123.89Z" fill="#27A6D1"/>
<path d="M386.08 112.31C393 112.87 399.92 113.44 406.84 113.98C412.89 114.45 418.91 115.09 424.9 115.98C426.47 116.23 428.03 116.58 429.59 116.92C430.2 117.05 430.98 117.24 430.8 118.09C430.62 118.94 429.89 118.76 429.24 118.59C423 117 416.52 116.56 410.1 116C403.36 115.36 396.62 114.8 389.87 114.23C388.44 114.11 387 114.12 385.57 114.06C385.09 114.06 384.57 114.06 384.57 113.36C384.558 113.22 384.578 113.08 384.628 112.949C384.678 112.818 384.757 112.7 384.858 112.604C384.96 112.508 385.083 112.436 385.216 112.394C385.35 112.351 385.491 112.34 385.63 112.36L386.11 112.41L386.08 112.31Z" fill="#27A6D1"/>
<path d="M242.65 0.910004C174.96 0.910004 120.08 17.63 120.08 89.08C120.08 107.21 122.49 125.48 125.03 143.38C127.84 163.27 131.34 177.09 136.56 196.49C138.85 205.02 141.56 212.49 140.68 221.49C139.91 229.34 137.68 243.32 134.22 250.4C124.77 269.49 124.22 295.15 131.22 315.54C135.86 329.07 145.1 343.86 157.67 350.62C183.74 364.62 214.84 363.93 243.59 363.93C275.15 363.93 311.75 365.52 337.64 345.26C348.32 336.9 356.06 317.58 360.35 304.74C361.3 301.91 371.1 279.62 358.98 250.59C352.5 235.06 345.61 216.59 349.86 199.59C359.28 161.75 365.19 106.88 365.19 87.7C365.19 16.25 310.31 0.970001 242.62 0.970001" fill="#00A1CD"/>
<path d="M258.43 353.64L268.52 433.66H284.61L294.7 353.6" fill="#00A1CD"/>
<path d="M190.34 353.39L200.43 433.66H215.51L225.6 353.64" fill="#00A1CD"/>
<path d="M283.49 450.09H269.64L263.41 396.58H289.78L283.49 450.09Z" fill="#56C5D0"/>
<path d="M213.27 449.72H201.42L195.12 396.22H220.5L213.27 449.72Z" fill="#56C5D0"/>
<path d="M172.1 450.35C172.1 444.961 174.241 439.792 178.052 435.982C181.862 432.171 187.031 430.03 192.42 430.03C197.809 430.03 202.978 432.171 206.789 435.982C210.599 439.792 212.74 444.961 212.74 450.35" fill="#504B48"/>
<path d="M269.8 450.35C269.8 444.961 271.941 439.792 275.752 435.982C279.562 432.171 284.731 430.03 290.12 430.03C295.509 430.03 300.678 432.171 304.488 435.982C308.299 439.792 310.44 444.961 310.44 450.35" fill="#504B48"/>
<path d="M138 136C138 136 102.2 170.12 108.09 192.86C112.09 208.43 121.88 214.86 127.39 220.37C129.56 222.55 143.12 233.63 143.12 233.63C143.12 233.63 144.93 236.69 141.25 231.42" stroke="#0F8AB2" stroke-width="14" stroke-miterlimit="10"/>
<path d="M123 134.46C121.62 138.31 123.13 143.18 127.14 146.53C132.24 150.79 139.52 151.04 143.32 147.08L152.7 137.3L152.88 137.08C152.924 137.06 152.964 137.033 153 137L165.66 123.8C166.66 122.8 166.38 121 165.04 119.89C164.476 119.35 163.732 119.037 162.952 119.011C162.171 118.985 161.408 119.248 160.81 119.75L153.92 126.93C153.531 126.119 153.059 125.352 152.51 124.64L160.77 116.03C161.77 115.03 161.49 113.23 160.15 112.12C159.586 111.58 158.844 111.267 158.063 111.239C157.283 111.211 156.521 111.472 155.92 111.97L147.66 120.59C146.917 120.189 146.141 119.855 145.34 119.59L152.44 112.18C153.44 111.18 153.15 109.39 151.82 108.27C151.252 107.733 150.508 107.422 149.726 107.396C148.945 107.371 148.182 107.632 147.58 108.13L135.73 120.5C135.252 120.804 134.807 121.156 134.4 121.55L135.74 118.41C135.96 117.665 135.895 116.865 135.556 116.166C135.218 115.467 134.631 114.919 133.91 114.63V114.63C133.592 114.435 133.238 114.307 132.869 114.251C132.5 114.196 132.124 114.216 131.763 114.309C131.402 114.403 131.063 114.568 130.767 114.795C130.471 115.021 130.224 115.306 130.04 115.63" fill="#A2CCED"/>
<path d="M373.52 291.37C377.75 281.59 386.6 265.16 380.36 255.05C375.47 247.11 362.02 235.94 354.59 230.52C352.1 228.7 348.59 226.36 348.59 226.36C348.59 226.36 346.12 224.74 352.51 229.54" stroke="#0F8AB2" stroke-width="14" stroke-miterlimit="10"/>
<path d="M363.46 283.48C367.04 281.48 372.09 282.16 376.05 285.55C381.11 289.88 382.56 297.02 379.28 301.42L371.19 312.29C371.135 312.368 371.075 312.441 371.01 312.51C371.01 312.51 371.01 312.6 370.94 312.64L360 327.31C359.14 328.46 357.36 328.48 356 327.31C355.375 326.842 354.944 326.16 354.789 325.395C354.634 324.63 354.766 323.834 355.16 323.16L361.1 315.16C360.237 314.917 359.402 314.582 358.61 314.16L351.49 323.74C350.63 324.89 348.85 324.91 347.49 323.74C346.867 323.271 346.437 322.59 346.28 321.826C346.123 321.062 346.251 320.266 346.64 319.59L353.77 310.01C353.261 309.341 352.812 308.629 352.43 307.88L346.31 316.11C345.45 317.26 343.67 317.28 342.31 316.11C341.685 315.642 341.254 314.96 341.099 314.195C340.944 313.43 341.076 312.634 341.47 311.96L351.67 298.24C351.896 297.719 352.17 297.22 352.49 296.75L349.62 298.6C348.925 298.929 348.133 298.991 347.395 298.773C346.657 298.556 346.025 298.074 345.62 297.42V297.42C345.371 297.139 345.183 296.809 345.065 296.453C344.948 296.096 344.904 295.719 344.937 295.345C344.969 294.971 345.078 294.607 345.256 294.276C345.433 293.945 345.676 293.654 345.97 293.42" fill="#A2CCED"/>
<path d="M234.25 101.72C234.127 106.038 232.321 110.137 229.216 113.142C226.112 116.146 221.956 117.817 217.637 117.799C213.317 117.781 209.175 116.074 206.097 113.044C203.018 110.013 201.246 105.899 201.16 101.58" fill="white"/>
<path d="M224.86 101.68C224.892 102.642 224.729 103.601 224.382 104.499C224.035 105.396 223.51 106.215 222.839 106.905C222.168 107.596 221.365 108.144 220.478 108.517C219.59 108.89 218.637 109.08 217.674 109.076C216.711 109.072 215.759 108.874 214.875 108.493C213.991 108.113 213.192 107.558 212.527 106.862C211.862 106.166 211.344 105.343 211.005 104.443C210.665 103.542 210.51 102.582 210.55 101.62" fill="#0D4061"/>
<path d="M283.65 101.72C283.527 106.038 281.721 110.137 278.617 113.142C275.512 116.146 271.357 117.817 267.037 117.799C262.717 117.781 258.575 116.074 255.497 113.044C252.418 110.013 250.646 105.899 250.56 101.58" fill="white"/>
<path d="M274.26 101.68C274.292 102.642 274.129 103.601 273.782 104.499C273.435 105.396 272.91 106.215 272.239 106.905C271.568 107.596 270.765 108.144 269.877 108.517C268.99 108.89 268.036 109.08 267.074 109.076C266.111 109.072 265.159 108.874 264.275 108.493C263.391 108.113 262.592 107.558 261.927 106.862C261.262 106.166 260.744 105.343 260.404 104.443C260.065 103.542 259.91 102.582 259.95 101.62" fill="#0D4061"/>
<path d="M223.93 134.62C226.217 134.845 228.475 135.301 230.67 135.98C232.97 136.61 235.27 137.25 237.62 137.73C241.869 138.574 246.259 138.368 250.41 137.13C253.867 136.052 257.41 135.273 261 134.8C263.071 134.532 265.175 134.677 267.19 135.226C269.205 135.775 271.091 136.718 272.74 138C273.671 138.763 274.559 139.578 275.4 140.44C275.8 140.83 276.21 141.28 275.53 141.73C274.85 142.18 274.4 142.84 273.53 142.17C273.06 141.8 272.64 141.36 272.2 140.94C268.84 137.69 264.7 136.79 260.1 137.48C257.19 137.913 254.321 138.582 251.52 139.48C246.256 141.148 240.627 141.283 235.29 139.87C232.57 139.19 229.88 138.42 227.16 137.73C222.16 136.47 218.06 137.65 214.92 141.55C214.29 142.32 213.82 142.55 212.92 141.92C212.02 141.29 211.92 140.92 212.57 140.22C213.906 138.477 215.626 137.065 217.596 136.094C219.566 135.123 221.733 134.618 223.93 134.62Z" fill="#0A4467"/>
<path d="M206.74 83.05C206.74 83.05 215.24 93.6 225.6 82.12" stroke="#0D4060" stroke-width="4" stroke-miterlimit="10"/>
<path d="M257.43 81.19C257.43 81.19 263.91 93.09 276.15 83.65" stroke="#0D4060" stroke-width="4" stroke-miterlimit="10"/>
<path opacity="0.7" d="M193.79 132.16C199.815 132.16 204.7 130.571 204.7 128.61C204.7 126.649 199.815 125.06 193.79 125.06C187.764 125.06 182.88 126.649 182.88 128.61C182.88 130.571 187.764 132.16 193.79 132.16Z" fill="#A2CCED"/>
<path opacity="0.7" d="M291.51 132.16C297.536 132.16 302.42 130.571 302.42 128.61C302.42 126.649 297.536 125.06 291.51 125.06C285.485 125.06 280.6 126.649 280.6 128.61C280.6 130.571 285.485 132.16 291.51 132.16Z" fill="#A2CCED"/>
<path d="M349.69 233.41C353.181 233.41 356.01 230.58 356.01 227.09C356.01 223.6 353.181 220.77 349.69 220.77C346.2 220.77 343.37 223.6 343.37 227.09C343.37 230.58 346.2 233.41 349.69 233.41Z" fill="#278AB2"/>
<path d="M354.47 236.94C357.96 236.94 360.79 234.11 360.79 230.62C360.79 227.13 357.96 224.3 354.47 224.3C350.979 224.3 348.15 227.13 348.15 230.62C348.15 234.11 350.979 236.94 354.47 236.94Z" fill="#278AB2"/>
<path d="M143.78 240.82C147.27 240.82 150.1 237.99 150.1 234.5C150.1 231.01 147.27 228.18 143.78 228.18C140.29 228.18 137.46 231.01 137.46 234.5C137.46 237.99 140.29 240.82 143.78 240.82Z" fill="#278AB2"/>
<path d="M141.03 238.54C144.52 238.54 147.35 235.71 147.35 232.22C147.35 228.73 144.52 225.9 141.03 225.9C137.54 225.9 134.71 228.73 134.71 232.22C134.71 235.71 137.54 238.54 141.03 238.54Z" fill="#278AB2"/>
</svg>
