<svg id="Layer_1" data-name="Layer 1" xmlns="http://www.w3.org/2000/svg" viewBox="0 0 606.54 841.26"><defs><style>.cls-1{fill:#c9e1ef;}.cls-2{fill:#cae1f0;}.cls-3{fill:#27a6d1;}.cls-4{fill:#00a1cd;}.cls-5{fill:#56c5d0;}.cls-6{fill:#504b48;}.cls-12,.cls-7{fill:none;stroke-miterlimit:10;}.cls-7{stroke:#0f8ab2;stroke-width:14px;}.cls-13,.cls-8{fill:#a2cced;}.cls-9{fill:#fff;}.cls-10{fill:#0d4061;}.cls-11{fill:#0a4467;}.cls-12{stroke:#0d4060;stroke-width:4px;}.cls-13{opacity:0.7;}.cls-14{fill:#278ab2;}</style></defs><path class="cls-1" d="M63.58,308.63a19.92,19.92,0,0,1-3-10.14c0-2.63-.3-5.28.51-7.85,3-9.37,9.2-15.27,18.8-17.51a21.13,21.13,0,0,1,14.8,2.15c1.14.59,2.28,1.16,3.42,1.73a59,59,0,0,1,5.09,5.95l.14.19a.88.88,0,0,0,1.27.15c.61-.35.36-.8.08-1.19a18.33,18.33,0,0,0-2-2.65,2.36,2.36,0,0,1-.43-2.95c1.23-.19,2.11-1.07,3.15-1.62,5.4-2.85,10.51-2.3,15.49,1a19,19,0,0,1,7.9,10.63,17,17,0,0,1,.29,5.9c-2-.72-3.75-2-5.68-2.95a14.46,14.46,0,0,0-1.52-.65.64.64,0,0,0-.77.39.71.71,0,0,0,.1.88,5.1,5.1,0,0,0,1,.66l7.26,4c.32.18.58.18.79-.15a5.39,5.39,0,0,0,3.4,2.4,55.88,55.88,0,0,0,11.61,2.5,124.9,124.9,0,0,0,20,.81c3.09-.13,6.18-.43,9.28-.41,2.1,0,2.11,0,2.14,2.13,0,.64,0,1.28,0,1.91,0,2.09-.34,2.47-2.45,2.65-11.61,1-22.78,4-34,7-2.49.66-5,1.36-7.47,2.05-.46.12-1,.17-1.23.65a5.08,5.08,0,0,0-2.56.33c-2.53.71-5.07,1.37-7.59,2.06-.54.14-1.07.33-1.6.49a.69.69,0,0,0-.54.69.73.73,0,0,0,.79.72,5.55,5.55,0,0,0,1.41-.16c2.84-.76,5.68-1.54,8.5-2.33a2.45,2.45,0,0,0,1.63-.89c2.91,1.4,4.49,3.93,5.78,6.74a15.64,15.64,0,0,1-9.47,21.25,15.45,15.45,0,0,1-12.24-1.11,1.73,1.73,0,0,0-2.59.61c-5.26,6.86-12.3,9.93-20.83,9.39-6.48-.41-11.09-3.89-14.14-9.55a27.23,27.23,0,0,1-2.62-9.11c1.75,0,3.5.06,5.24.06a5.09,5.09,0,0,0,1.4-.2.73.73,0,0,0,.36-.54.88.88,0,0,0-.35-.58c-.41-.32-.9-.18-1.37-.15a24,24,0,0,1-6.16-.48c-5,.22-10.13-4.34-11.6-8.43a12.75,12.75,0,0,1,.47-10.78,13.75,13.75,0,0,0,.59-1.55c.88-.07,1.44.52,2.1,1,1,.7,1.93,1.65,3.27,1.83.22-1.46.24-1.51-.71-2.13A15.11,15.11,0,0,1,63.58,308.63ZM103.37,315a25.73,25.73,0,0,1,6.16,1.56c4.65,2.06,6.72,5.37,6.32,10.41-.07.87-.32,1.72-.47,2.58-.1.55-.29,1.2.44,1.42s.85-.48,1-1c2.09-6.7-.44-11.92-6.3-14.69-.67-.32-1.54-.38-1.93-1.19a7.74,7.74,0,0,1,.53-.61c4.6-4.29,6.15-9.78,6-15.82a9.15,9.15,0,0,0-7-9c-.55-.13-1.17-.33-1.36.46-.13.55.27.88.76,1s.76.22,1.13.37a7.61,7.61,0,0,1,4.75,5.86,13.77,13.77,0,0,1-.18,5.69c-1.12,5.67-3.46,10.48-9.55,12.35C103.7,314.5,103.66,314.6,103.37,315Zm57.39-12.48c-3.09.52-6.13.47-9.15.7-9.06.68-18.12,1.44-27.14,2.57a43.55,43.55,0,0,0-8,1.47c-.47.15-.9.42-.72,1s.64.56,1.14.43A88.39,88.39,0,0,1,127.52,307c7.83-1,15.7-1.58,23.56-2.19,3.18-.25,6.37-.42,9.55-.63.59,0,1.18-.13,1.1-.92C161.66,302.61,161.19,302.49,160.76,302.52Z"/><path class="cls-2" d="M541.72,317.71a1.79,1.79,0,0,1,.86.79c2.88,4.77,2,13.58-3.42,17.1-2.25,1.46-4.38,2.84-7.15,2.75a26,26,0,0,1-5.42.56c-.86,0-2.47-.86-2.47.74,0,1.11,1.59.88,2.57,1,1.35.14,2.65-.59,4-.24-.49,6.73-3.21,12.23-8.86,16.15a14.36,14.36,0,0,1-7,2.33c-6.79.62-12.94-1-18.12-5.69a26.75,26.75,0,0,1-3.6-3.78,1.56,1.56,0,0,0-2.39-.51,15.17,15.17,0,0,1-7.8,1.91c-4.71-.18-8.36-2.24-11.62-5.66-4.42-4.64-4.73-13.46-1-18.91a12.24,12.24,0,0,1,3.93-3.78c.54.12,1.09.23,1.63.37l9.93,2.66c.46.12,1,.32,1.17-.35s-.12-1-.77-1.21c-.39-.09-.76-.25-1.14-.36l-10.85-2.94c-6.68-1.78-13.35-3.6-20.05-5.33s-13.63-3-20.51-4.23a6.91,6.91,0,0,0-1.2-.07c-2.67,0-2.54-.06-2.52-2.73,0-3.87-.43-3.71,3.4-3.45a165.77,165.77,0,0,0,18.64.36c6.5-.3,13-.8,19.29-2.75a15.14,15.14,0,0,0,5.67-2.94c1.63-.84,3.26-1.66,4.88-2.52,1-.52,1.95-1.09,2.91-1.65.41-.24.89-.51.62-1.1s-.86-.61-1.42-.35-.85.42-1.27.66L477,297.66c-.6-6.59,2.13-11.71,7-15.86a1.16,1.16,0,0,1,.41-.25c.86-.32.26-1.78,1.18-1.81,3.26-.11,6-2.54,9.45-1.83,2.64.56,5.28,1.09,7.53,2.73.77.56,1.64,1,2.46,1.45a7.26,7.26,0,0,1-1.4,2.18c-.71.86-1.39,1.75-2,2.66-.27.39-.43.93.08,1.27a1,1,0,0,0,1.28-.26c.27-.29.5-.62.75-.93,1.36-1.66,2.51-3.5,4.34-4.72.24-.16.21-.4,0-.6,2.22-.8,4.22-2.09,6.47-2.86,8.07-2.76,15.37-1.21,22,3.82,6.89,5.21,9.8,12.38,9.35,20.84a18.05,18.05,0,0,1-4,11,3.93,3.93,0,0,1-1.69,1.91c-1,.68-1.9,1.42-2.9,2.05-.69.44-1.2,1-.66,1.71s1.16,0,1.66-.25C539.57,319.3,540.47,318.24,541.72,317.71Zm-44,1.18a4.25,4.25,0,0,1-1.85,1.15c-6.27,2.88-8,8.08-6.46,14.49a4.07,4.07,0,0,0,.27.92.78.78,0,0,0,1,.44.74.74,0,0,0,.58-.9c-.14-.7-.33-1.39-.49-2.09a9.29,9.29,0,0,1,4.2-10.33,17.66,17.66,0,0,1,6.69-2.45c.49-.09,1.16.18,1.43-.5-.13-.39-.46-.43-.75-.51a11.54,11.54,0,0,1-6.84-5.65,19.74,19.74,0,0,1-2.67-9.58c-.11-4,1.39-7.35,5.66-8.68l.46-.13a.85.85,0,0,0,.6-1.12c-.13-.63-.59-.63-1.11-.51a8.67,8.67,0,0,0-6,4.38c-1.71,3.16-1.35,6.54-.85,9.84A17.93,17.93,0,0,0,497.68,318.89Zm-51.6-11.58v0l-.48-.05a.93.93,0,0,0-1.06,1c0,.66.55.68,1,.7,1.43.06,2.87.05,4.3.17,6.75.57,13.49,1.13,20.23,1.77,6.42.61,12.86,1.07,19.14,2.68.65.17,1.37.37,1.56-.5s-.6-1-1.21-1.17c-1.56-.34-3.12-.69-4.69-.94-6-.93-12-1.57-18.06-2C459.92,308.44,453,307.87,446.08,307.31Z"/><path class="cls-3" d="M167.35,241.55a3,3,0,0,1-.33.55.71.71,0,0,1-1.06.14c-1-.78-2-1.58-3-2.38L149.28,229c-.37-.29-.75-.59-1.1-.91a.83.83,0,0,1-.12-1.26c.33-.38.72-.26,1.08,0s.64.47,1,.71c5.38,4.27,10.75,8.52,16.11,12.8C166.62,240.64,167.17,240.89,167.35,241.55Z"/><path class="cls-3" d="M419.94,215c-.72,0-.93-.76-.44-1.61,1.68-2.88,3.38-5.76,5.07-8.64,1-1.65,1.91-3.3,2.89-4.94.3-.49.52-1.29,1.41-.69.7.48.27,1,0,1.45-1.13,2-2.3,4-3.46,6-1.45,2.47-2.88,4.95-4.36,7.4C420.81,214.42,420.67,215.08,419.94,215Z"/><path class="cls-3" d="M451,270l-6.42.34c-.24,0-.48,0-.72,0-.68.05-1.08-.24-1.07-.94s.57-.63,1-.66l7.37-.44c2.45-.14,4.91-.26,7.37-.38.53,0,1.24-.15,1.3.63s-.52,1-1.26,1.06c-2.53.08-5.07.2-7.61.31Z"/><path class="cls-3" d="M163.53,252.6l-9.24-2.15c-1.78-.41-3.55-.85-5.34-1.27-.58-.13-1.14-.32-1-1.05s.75-.63,1.33-.49L163.48,251l.23.06c.47.11,1,.22.92.86S163.93,252.64,163.53,252.6Z"/><path class="cls-3" d="M452.75,253.56c0,.42-.37.65-.65.91q-4.73,4.39-9.46,8.76c-.42.39-.81.83-1.38.2s-.12-1,.29-1.4l9.82-9.07c.25-.23.49-.37.83-.17A1.08,1.08,0,0,1,452.75,253.56Z"/><path class="cls-3" d="M474.23,320.63l10.85,2.94c.38.11.75.27,1.14.36.65.17,1,.54.77,1.21s-.71.47-1.17.35l-9.93-2.66c-.54-.14-1.09-.25-1.63-.37A3.91,3.91,0,0,1,474.23,320.63Z"/><path class="cls-3" d="M131.6,317.23a2.45,2.45,0,0,1-1.63.89c-2.82.79-5.66,1.57-8.5,2.33a5.55,5.55,0,0,1-1.41.16.73.73,0,0,1-.79-.72.69.69,0,0,1,.54-.69c.53-.16,1.06-.35,1.6-.49,2.52-.69,5.06-1.35,7.59-2.06a5.08,5.08,0,0,1,2.56-.33C131.58,316.62,131.59,316.92,131.6,317.23Z"/><path class="cls-3" d="M437,213.08a1.4,1.4,0,0,1-.65,1c-2.14,1.77-4.3,3.5-6.43,5.27a.88.88,0,0,1-1.42-.1c-.45-.52-.1-.82.3-1.14q3.42-2.76,6.83-5.53c.35-.29.69-.38,1-.05A2.22,2.22,0,0,1,437,213.08Z"/><path class="cls-3" d="M102.27,276.51a2.36,2.36,0,0,0,.43,2.95,18.33,18.33,0,0,1,2,2.65c.28.39.53.84-.08,1.19a.88.88,0,0,1-1.27-.15l-.14-.19A59,59,0,0,0,98.14,277,12.3,12.3,0,0,1,102.27,276.51Z"/><path class="cls-3" d="M130.26,294.66c-.21.33-.47.33-.79.15l-7.26-4a5.1,5.1,0,0,1-1-.66.71.71,0,0,1-.1-.88.64.64,0,0,1,.77-.39,14.46,14.46,0,0,1,1.52.65c1.93.92,3.65,2.23,5.68,2.95A5.57,5.57,0,0,1,130.26,294.66Z"/><path class="cls-3" d="M477,297.66l5.64-3.13c.42-.24.84-.46,1.27-.66s1.12-.32,1.42.35-.21.86-.62,1.1c-1,.56-1.92,1.13-2.91,1.65-1.62.86-3.25,1.68-4.88,2.52Z"/><path class="cls-3" d="M508.11,281.69c.2.2.23.44,0,.6-1.83,1.22-3,3.06-4.34,4.72-.25.31-.48.64-.75.93a1,1,0,0,1-1.28.26c-.51-.34-.35-.88-.08-1.27.64-.91,1.32-1.8,2-2.66a7.26,7.26,0,0,0,1.4-2.18Z"/><path class="cls-3" d="M63.58,308.63a15.11,15.11,0,0,0,5.15,4.84c1,.62.93.67.71,2.13-1.34-.18-2.24-1.13-3.27-1.83-.66-.45-1.22-1-2.1-1C63.92,311.41,63.24,310.08,63.58,308.63Z"/><path class="cls-3" d="M530.7,340.4c-1.36-.35-2.66.38-4,.24-1-.11-2.56.12-2.57-1,0-1.6,1.61-.69,2.47-.74a26,26,0,0,0,5.42-.56C531.65,339.09,531.49,340,530.7,340.4Z"/><path class="cls-3" d="M541.72,317.71c-1.25.53-2.15,1.59-3.34,2.2-.5.26-1.14.95-1.66.25s0-1.27.66-1.71c1-.63,1.93-1.37,2.9-2.05a3.93,3.93,0,0,0,1.69-1.91l.15,1.7a.43.43,0,0,0-.24.57C541.83,317.08,541.77,317.39,541.72,317.71Z"/><path class="cls-3" d="M74.61,333.56a24,24,0,0,0,6.16.48c.47,0,1-.17,1.37.15a.88.88,0,0,1,.35.58.73.73,0,0,1-.36.54,5.09,5.09,0,0,1-1.4.2c-1.74,0-3.49,0-5.24-.06A2.64,2.64,0,0,1,74.61,333.56Z"/><path class="cls-2" d="M541.88,316.76a.43.43,0,0,1,.24-.57A.54.54,0,0,1,541.88,316.76Z"/><path class="cls-3" d="M103.37,315c.29-.4.33-.5.39-.52,6.09-1.87,8.43-6.68,9.55-12.35a13.77,13.77,0,0,0,.18-5.69,7.61,7.61,0,0,0-4.75-5.86c-.37-.15-.76-.23-1.13-.37s-.89-.5-.76-1c.19-.79.81-.59,1.36-.46a9.15,9.15,0,0,1,7,9c.11,6-1.44,11.53-6,15.82a7.74,7.74,0,0,0-.53.61c.39.81,1.26.87,1.93,1.19,5.86,2.77,8.39,8,6.3,14.69-.17.52-.21,1.23-1,1s-.54-.87-.44-1.42c.15-.86.4-1.71.47-2.58.4-5-1.67-8.35-6.32-10.41A25.73,25.73,0,0,0,103.37,315Z"/><path class="cls-3" d="M160.76,302.52c.43,0,.9.09,1,.7.08.79-.51.88-1.1.92-3.18.21-6.37.38-9.55.63-7.86.61-15.73,1.2-23.56,2.19a88.39,88.39,0,0,0-10.62,1.75c-.5.13-1,.19-1.14-.43s.25-.87.72-1a43.55,43.55,0,0,1,8-1.47c9-1.13,18.08-1.89,27.14-2.57C154.63,303,157.67,303,160.76,302.52Z"/><path class="cls-3" d="M497.68,318.89a17.93,17.93,0,0,1-6.12-11.23c-.5-3.3-.86-6.68.85-9.84a8.67,8.67,0,0,1,6-4.38c.52-.12,1-.12,1.11.51a.85.85,0,0,1-.6,1.12l-.46.13c-4.27,1.33-5.77,4.64-5.66,8.68a19.74,19.74,0,0,0,2.67,9.58,11.54,11.54,0,0,0,6.84,5.65c.29.08.62.12.75.51-.27.68-.94.41-1.43.5a17.66,17.66,0,0,0-6.69,2.45,9.29,9.29,0,0,0-4.2,10.33c.16.7.35,1.39.49,2.09a.74.74,0,0,1-.58.9.78.78,0,0,1-1-.44,4.07,4.07,0,0,1-.27-.92c-1.54-6.41.19-11.61,6.46-14.49A4.25,4.25,0,0,0,497.68,318.89Z"/><path class="cls-3" d="M446.08,307.31c6.92.56,13.84,1.13,20.76,1.67,6.05.47,12.07,1.11,18.06,2,1.57.25,3.13.6,4.69.94.61.13,1.39.32,1.21,1.17s-.91.67-1.56.5C483,312,476.52,311.56,470.1,311c-6.74-.64-13.48-1.2-20.23-1.77-1.43-.12-2.87-.11-4.3-.17-.48,0-1,0-1-.7a.93.93,0,0,1,1.06-1l.48.05Z"/><path class="cls-4" d="M302.65,195.91c-67.69,0-122.57,16.72-122.57,88.17,0,18.13,2.41,36.4,4.95,54.3,2.81,19.89,6.31,33.71,11.53,53.11,2.29,8.53,5,16,4.12,25-.77,7.85-3,21.83-6.46,28.91-9.45,19.09-10,44.75-3,65.14,4.64,13.53,13.88,28.32,26.45,35.08,26.07,14,57.17,13.31,85.92,13.31,31.56,0,68.16,1.59,94.05-18.67,10.68-8.36,18.42-27.68,22.71-40.52.95-2.83,10.75-25.12-1.37-54.15-6.48-15.53-13.37-34-9.12-51,9.42-37.84,15.33-92.71,15.33-111.89,0-71.45-54.88-86.73-122.57-86.73"/><polyline class="cls-4" points="318.43 548.64 328.52 628.66 344.61 628.66 354.7 548.6"/><polyline class="cls-4" points="250.34 548.39 260.43 628.66 275.51 628.66 285.6 548.64"/><polygon class="cls-5" points="343.49 645.09 329.64 645.09 323.41 591.58 349.78 591.58 343.49 645.09"/><polygon class="cls-5" points="273.27 644.72 261.42 644.72 255.12 591.22 280.5 591.22 273.27 644.72"/><path class="cls-6" d="M232.1,645.35a20.32,20.32,0,0,1,40.64,0"/><path class="cls-6" d="M329.8,645.35a20.32,20.32,0,0,1,40.64,0"/><path class="cls-7" d="M198,331s-35.8,34.12-29.91,56.86c4,15.57,13.79,22,19.3,27.51,2.17,2.18,15.73,13.26,15.73,13.26s1.81,3.06-1.87-2.21"/><path class="cls-8" d="M183,329.46c-1.38,3.85.13,8.72,4.14,12.07,5.1,4.26,12.38,4.51,16.18.55l9.38-9.78.18-.22A.48.48,0,0,0,213,332l12.66-13.2c1-1,.72-2.8-.62-3.91a3.17,3.17,0,0,0-4.23-.14l-6.89,7.18a12.85,12.85,0,0,0-1.41-2.29l8.26-8.61c1-1,.72-2.8-.62-3.91a3.18,3.18,0,0,0-4.23-.15l-8.26,8.62a14.39,14.39,0,0,0-2.32-1l7.1-7.41c1-1,.71-2.79-.62-3.91a3.2,3.2,0,0,0-4.24-.14L195.73,315.5a8.42,8.42,0,0,0-1.33,1.05l1.34-3.14a3.12,3.12,0,0,0-1.83-3.78h0a2.78,2.78,0,0,0-3.87,1"/><path class="cls-7" d="M433.52,486.37c4.23-9.78,13.08-26.21,6.84-36.32-4.89-7.94-18.34-19.11-25.77-24.53-2.49-1.82-6-4.16-6-4.16s-2.47-1.62,3.92,3.18"/><path class="cls-8" d="M423.46,478.48c3.58-2,8.63-1.32,12.59,2.07,5.06,4.33,6.51,11.47,3.23,15.87l-8.09,10.87a1.92,1.92,0,0,1-.18.22s0,.09-.07.13L420,522.31c-.86,1.15-2.64,1.17-4,0a3.18,3.18,0,0,1-.84-4.15l5.94-8a12.51,12.51,0,0,1-2.49-1l-7.12,9.58c-.86,1.15-2.64,1.17-4,0a3.2,3.2,0,0,1-.85-4.15l7.13-9.58a14.06,14.06,0,0,1-1.34-2.13l-6.12,8.23c-.86,1.15-2.64,1.17-4,0a3.18,3.18,0,0,1-.84-4.15l10.2-13.72a9,9,0,0,1,.82-1.49l-2.87,1.85a3.13,3.13,0,0,1-4-1.18h0a2.77,2.77,0,0,1,.35-4"/><path class="cls-9" d="M294.25,296.72a16.55,16.55,0,0,1-33.09-.14"/><path class="cls-10" d="M284.86,296.68a7.16,7.16,0,1,1-14.31-.06"/><path class="cls-9" d="M343.65,296.72a16.55,16.55,0,0,1-33.09-.14"/><path class="cls-10" d="M334.26,296.68a7.16,7.16,0,1,1-14.31-.06"/><path class="cls-11" d="M283.93,329.62a34.14,34.14,0,0,1,6.74,1.36c2.3.63,4.6,1.27,6.95,1.75a26.62,26.62,0,0,0,12.79-.6A63.41,63.41,0,0,1,321,329.8,15.82,15.82,0,0,1,332.74,333a32.31,32.31,0,0,1,2.66,2.44c.4.39.81.84.13,1.29s-1.13,1.11-2,.44c-.47-.37-.89-.81-1.33-1.23-3.36-3.25-7.5-4.15-12.1-3.46a54.32,54.32,0,0,0-8.58,2,29.09,29.09,0,0,1-16.23.39c-2.72-.68-5.41-1.45-8.13-2.14-5-1.26-9.1-.08-12.24,3.82-.63.77-1.1,1-2,.37s-1-1-.35-1.7A14.3,14.3,0,0,1,283.93,329.62Z"/><path class="cls-12" d="M266.74,278.05s8.5,10.55,18.86-.93"/><path class="cls-12" d="M317.43,276.19s6.48,11.9,18.72,2.46"/><ellipse class="cls-13" cx="253.79" cy="323.61" rx="10.91" ry="3.55"/><ellipse class="cls-13" cx="351.51" cy="323.61" rx="10.91" ry="3.55"/><circle class="cls-14" cx="409.69" cy="422.09" r="6.32"/><circle class="cls-14" cx="414.47" cy="425.62" r="6.32"/><circle class="cls-14" cx="203.78" cy="429.5" r="6.32"/><circle class="cls-14" cx="201.03" cy="427.22" r="6.32"/></svg>