<svg width="162" height="167" viewBox="0 0 162 167" fill="none" xmlns="http://www.w3.org/2000/svg">
<path d="M60.7846 166.911H65.3978V142.446H102.556V166.911H107.269V140.161H107.194V134.942H60.7846V140.231" fill="#444693"/>
<path d="M107.748 123.303H59.9289C58.2181 123.303 56.8313 125.01 56.8313 127.116V132.787C56.8313 134.893 58.2181 136.6 59.9289 136.6H107.748C109.459 136.6 110.846 134.893 110.846 132.787V127.116C110.846 125.01 109.459 123.303 107.748 123.303Z" fill="#5E62AC"/>
<path d="M83.4317 0C63.0354 0 46.4991 6.20167 46.4991 32.7071C46.4991 39.4281 47.2252 46.2047 47.9906 52.8477C48.8373 60.2215 49.8919 65.3475 51.4648 72.5469C52.1548 75.7108 52.9714 78.4816 52.7062 81.8198C52.4742 84.7314 51.8023 89.9168 50.7597 92.5429C47.9123 99.6273 47.1439 106.916 49.2531 114.479C50.6512 119.497 54.0381 123.499 57.8256 126.01C65.681 131.203 75.052 130.947 83.7149 130.947C93.2245 130.947 104.253 131.537 112.054 124.019C115.272 120.918 117.604 117.461 118.897 112.698C120.678 106.159 120.641 98.9745 118.484 92.6134C116.531 86.8531 114.455 80.0023 115.736 73.6968C118.574 59.6614 120.355 39.3094 120.355 32.1953C120.355 5.69352 103.819 0.0259666 83.4226 0.0259666" fill="#00A1CD"/>
<path d="M70.1164 33.6307C70.1164 33.6307 72.1865 28.4713 76.7454 31.5128" stroke="#0D4060" stroke-width="4" stroke-miterlimit="10"/>
<path d="M94.8185 33.6307C94.8185 33.6307 93.3119 28.3712 88.762 31.4052" stroke="#0D4060" stroke-width="4" stroke-miterlimit="10"/>
<path d="M89.9402 50.4368C89.9402 50.4368 88.6746 56.2713 82.4524 56.0932C76.2302 55.9152 75.736 50.4368 75.736 50.4368H89.9402Z" fill="#0D4060"/>
<path opacity="0.7" d="M66.3047 51.0562C68.3217 51.0562 69.9567 50.4003 69.9567 49.5911C69.9567 48.782 68.3217 48.126 66.3047 48.126C64.2878 48.126 62.6527 48.782 62.6527 49.5911C62.6527 50.4003 64.2878 51.0562 66.3047 51.0562Z" fill="#A2CCED"/>
<path opacity="0.7" d="M98.7055 51.0562C100.722 51.0562 102.357 50.4003 102.357 49.5911C102.357 48.782 100.722 48.126 98.7055 48.126C96.6886 48.126 95.0535 48.782 95.0535 49.5911C95.0535 50.4003 96.6886 51.0562 98.7055 51.0562Z" fill="#A2CCED"/>
<path d="M70.6467 115.606C70.6467 115.606 64.4095 115.721 60.1006 104.831C59.049 102.168 58.9556 97.8247 58.5187 95.4916C58.3108 94.3789 58.1722 93.663 58.1722 93.663C58.1722 93.663 58.1059 92.6504 58.4735 94.9946" stroke="#0F8AB2" stroke-width="14" stroke-miterlimit="10"/>
<path d="M70.3032 112.164C69.0979 112.479 68.0855 113.9 67.8595 115.818C67.5582 118.258 68.658 120.606 70.2701 121.036L74.2595 122.101H74.3469H74.3861L79.7737 123.533C80.1955 123.644 80.6053 123.214 80.6776 122.576C80.7255 122.292 80.6876 121.997 80.571 121.746C80.4545 121.495 80.2674 121.304 80.0448 121.211L77.113 120.432C77.2601 120.152 77.3823 119.854 77.4776 119.542L80.994 120.48C81.4158 120.591 81.8256 120.161 81.898 119.523C81.9465 119.24 81.9089 118.944 81.7923 118.693C81.6756 118.441 81.4881 118.251 81.2652 118.158L77.7488 117.223C77.7319 116.912 77.6916 116.602 77.6283 116.3L80.6415 117.105C81.0633 117.216 81.4731 116.786 81.5454 116.148C81.5939 115.864 81.5563 115.569 81.4397 115.317C81.3231 115.066 81.1356 114.876 80.9126 114.783L75.8776 113.444C75.7244 113.352 75.5638 113.28 75.3985 113.229L76.414 113.043C76.6397 112.967 76.8346 112.791 76.9609 112.549C77.0872 112.306 77.1361 112.014 77.098 111.73C77.0467 111.085 76.655 110.617 76.2271 110.703" fill="#A2CCED"/>
<path d="M97.6991 115.354C97.6991 115.354 103.936 115.465 108.245 104.575C109.297 101.912 109.39 97.5725 109.827 95.2394C110.035 94.1267 110.174 93.4108 110.174 93.4108C110.174 93.4108 110.24 92.3982 109.872 94.7387" stroke="#0F8AB2" stroke-width="14" stroke-miterlimit="10"/>
<path d="M98.0456 111.912C99.2509 112.227 100.266 113.648 100.492 115.565C100.794 118.006 99.6938 120.354 98.0818 120.784L94.0833 121.841H93.9959H93.9537L88.5752 123.325C88.1534 123.436 87.7436 123.006 87.6712 122.368C87.622 122.085 87.6593 121.789 87.7761 121.537C87.8928 121.285 88.0807 121.095 88.304 121.003L91.2358 120.224C91.0888 119.944 90.9665 119.646 90.8712 119.334L87.3549 120.269C86.933 120.384 86.5232 119.953 86.4509 119.315C86.4017 119.032 86.439 118.736 86.5557 118.484C86.6724 118.233 86.8604 118.042 87.0837 117.95L90.594 117.019C90.6114 116.709 90.6507 116.401 90.7115 116.1L87.6984 116.904C87.2735 117.016 86.8667 116.585 86.7944 115.948C86.7452 115.664 86.7825 115.368 86.8992 115.116C87.0159 114.865 87.2039 114.675 87.4272 114.583L92.4622 113.244C92.6153 113.151 92.7759 113.079 92.9413 113.028L91.9259 112.839C91.6994 112.765 91.5037 112.589 91.3772 112.346C91.2506 112.103 91.2024 111.811 91.2419 111.526C91.2931 110.885 91.6848 110.413 92.1097 110.502" fill="#A2CCED"/>
<path d="M70.0592 128.47L73.3164 160.368H78.1857L81.443 128.566" fill="#00A1CD"/>
<path d="M77.4626 166.751H73.6358L71.6049 145.487H79.7978L77.4626 166.751Z" fill="#56C5D0"/>
<path d="M86.3002 128.47L89.5575 160.368H94.4268L97.684 128.566" fill="#00A1CD"/>
<path d="M93.7006 166.751H89.8769L87.843 145.487H96.0358L93.7006 166.751Z" fill="#56C5D0"/>
<path d="M86.4388 167C86.4388 162.92 88.8494 159.582 91.8385 159.582C94.8275 159.582 97.2411 162.92 97.2411 167" fill="#504B48"/>
<path d="M70.3484 166.751C70.3484 162.653 72.759 159.333 75.7511 159.333C78.7432 159.333 81.1537 162.653 81.1537 166.751" fill="#504B48"/>
<path d="M85.101 43.1446C85.138 41.543 85.6823 40.0226 86.6176 38.9082C87.553 37.7939 88.8052 37.1739 90.1069 37.1807C91.4085 37.1874 92.6565 37.8205 93.5841 38.9445C94.5117 40.0686 95.0456 41.5946 95.0716 43.1966" fill="white"/>
<path d="M87.9303 43.1595C87.9534 42.4728 88.1918 41.8239 88.5955 41.3491C88.9992 40.8743 89.5367 40.6106 90.095 40.6135C90.6533 40.6164 91.189 40.8856 91.5894 41.3645C91.9898 41.8435 92.2238 42.4948 92.2422 43.1817" fill="#0D4061"/>
<path d="M70.2159 43.1446C70.2529 41.543 70.7972 40.0226 71.7325 38.9082C72.6679 37.7939 73.9201 37.1739 75.2218 37.1807C76.5234 37.1874 77.7713 37.8205 78.699 38.9445C79.6266 40.0686 80.1605 41.5946 80.1865 43.1966" fill="white"/>
<path d="M73.0452 43.1595C73.0683 42.4728 73.3067 41.8239 73.7104 41.3491C74.1141 40.8743 74.6515 40.6106 75.2099 40.6135C75.7682 40.6164 76.3038 40.8856 76.7043 41.3645C77.1047 41.8435 77.3387 42.4948 77.3571 43.1817" fill="#0D4061"/>
<path d="M58.1722 95.7921C59.2239 95.7921 60.0765 94.7426 60.0765 93.4479C60.0765 92.1533 59.2239 91.1037 58.1722 91.1037C57.1204 91.1037 56.2678 92.1533 56.2678 93.4479C56.2678 94.7426 57.1204 95.7921 58.1722 95.7921Z" fill="#278AB2"/>
<path d="M58.4283 97.2757C59.48 97.2757 60.3326 96.2262 60.3326 94.9316C60.3326 93.6369 59.48 92.5874 58.4283 92.5874C57.3765 92.5874 56.5239 93.6369 56.5239 94.9316C56.5239 96.2262 57.3765 97.2757 58.4283 97.2757Z" fill="#278AB2"/>
<path d="M110.207 95.5361C111.259 95.5361 112.111 94.4866 112.111 93.192C112.111 91.8973 111.259 90.8478 110.207 90.8478C109.155 90.8478 108.302 91.8973 108.302 93.192C108.302 94.4866 109.155 95.5361 110.207 95.5361Z" fill="#278AB2"/>
<path d="M109.902 96.864C110.954 96.864 111.807 95.8145 111.807 94.5198C111.807 93.2252 110.954 92.1757 109.902 92.1757C108.851 92.1757 107.998 93.2252 107.998 94.5198C107.998 95.8145 108.851 96.864 109.902 96.864Z" fill="#278AB2"/>
<path d="M142.9 40.678V33.2004C140.399 33.5491 138.443 32.4883 136.873 30.0217C136.84 30.604 136.801 31.0157 136.798 31.4237C136.774 34.1685 136.762 36.9133 136.741 39.6543C136.734 39.842 136.718 40.0291 136.693 40.2144C136.509 42.0244 135.355 42.7774 133.981 41.9799C133.231 41.5385 132.953 40.207 133.378 39.0831C133.452 38.8676 133.563 38.6738 133.702 38.5145C133.842 38.3551 134.007 38.2339 134.187 38.1586C134.367 38.0833 134.558 38.0557 134.747 38.0776C134.937 38.0995 135.12 38.1704 135.286 38.2856C135.587 38.46 135.888 38.6974 136.253 38.9644V27.1879C138.311 29.5914 140.33 31.676 143.43 31.2902C143.43 32.2694 143.43 33.219 143.43 34.1685C143.414 36.7501 143.397 39.3304 143.379 41.9095C143.379 42.2581 143.346 42.6105 143.322 42.9591C143.252 43.9643 143.044 44.2388 142.216 44.3946C141.553 44.517 140.902 44.6653 140.375 43.8976C139.847 43.1298 139.673 42.1394 140.043 41.3791C140.282 40.9674 140.614 40.6518 140.998 40.4723C141.382 40.2927 141.8 40.2572 142.201 40.3702C142.436 40.4555 142.662 40.5742 142.9 40.678Z" fill="black"/>
<path d="M149.366 26.7762C149.052 26.1595 148.787 25.5074 148.574 24.8289C148.32 23.8741 148.282 22.8527 148.462 21.8732C148.643 20.8936 149.035 19.9924 149.598 19.2652C150.553 18.0165 151.348 16.5956 151.954 15.0517C151.985 14.9738 152.039 14.9033 152.217 14.8365V15.6117V26.1716C152.217 27.1101 152.177 28.0485 152.217 28.9832C152.292 30.8785 150.336 32.3214 148.875 31.7836C148.167 31.5202 147.911 30.3518 148.308 29.3912C148.602 28.6903 149.094 28.1462 149.692 27.8619C150.289 27.5776 150.95 27.5727 151.551 27.8482C151.613 27.8597 151.676 27.8597 151.737 27.8482V19.2764C150.695 20.1406 149.628 20.9084 149.273 22.4069C148.94 23.8235 149.065 25.3433 149.619 26.6501L149.366 26.7762Z" fill="black"/>
<path d="M126.43 33.245C126.607 33.5456 126.762 33.8646 126.894 34.1982C127.072 34.7435 127.267 35.1626 127.798 35.311C128.328 35.4593 128.542 36.1566 128.316 37.0728C128.286 35.6374 126.84 35.8525 126.55 34.7026C126.534 35.0073 126.594 35.3108 126.723 35.5717C126.852 35.8325 127.043 36.0381 127.27 36.1603C127.979 36.5609 128.15 36.9986 127.933 38.0854C128.018 36.7464 127.029 36.7241 126.442 36.1566C126.442 37.6403 126.442 39.0868 126.442 40.5482C126.458 40.8767 126.389 41.2029 126.245 41.48C126.101 41.7572 125.889 41.9712 125.64 42.0912C125.498 42.1587 125.345 42.1901 125.193 42.1835C125.04 42.1768 124.89 42.1324 124.752 42.0527C124.613 41.9731 124.489 41.8599 124.387 41.7199C124.285 41.58 124.207 41.4161 124.158 41.2381C124.113 41.0377 124.104 40.828 124.129 40.6227C124.155 40.4173 124.215 40.2209 124.306 40.046C124.398 39.8712 124.518 39.7219 124.659 39.6078C124.8 39.4937 124.959 39.4173 125.125 39.3836C125.474 39.3495 125.825 39.3495 126.174 39.3836V33.3525L126.43 33.245Z" fill="black"/>
<path d="M1 23.3453C2.69341 22.5256 5.26968 21.8616 8.72279 22.6517C13.4143 23.7088 17.6659 26.5092 21.8151 29.2799C26.2083 32.2212 30.7461 34.5135 35.2689 37.1136C36.7122 37.9407 40.8373 40.2218 44.0463 39.2315" stroke="#010101" stroke-width="0.75" stroke-miterlimit="10"/>
<path d="M44.0584 40.3479C43.2929 40.6354 42.492 40.7535 41.693 40.6966C37.4203 40.4036 31.1469 36.509 23.7706 32.5031C20.0252 30.4705 16.539 27.6367 12.655 25.9194C10.3082 24.8413 7.80766 24.363 5.30581 24.5137C4.1087 24.5713 2.92495 24.845 1.79243 25.326" stroke="#010101" stroke-width="0.75" stroke-miterlimit="10"/>
<path d="M1.42181 28.271C2.48245 27.7072 5.05873 27.2362 6.61052 27.3252C10.2444 27.5255 15.6501 28.9498 23.3819 33.8236C25.8165 35.3567 28.3044 36.7526 30.8455 38.0112C33.1687 39.161 35.064 40.1959 37.4956 40.96C39.4693 41.5794 42.0576 42.2285 44.1246 41.4533" stroke="#010101" stroke-width="0.75" stroke-miterlimit="10"/>
<path d="M44.1518 42.4918C38.4599 44.7173 30.2912 39.6432 30.2912 39.6432C30.2912 39.6432 14.9028 30.7784 8.89756 30.0662C6.31225 29.7584 3.12731 30.1701 2.05763 30.7376" stroke="#010101" stroke-width="0.75" stroke-miterlimit="10"/>
<path d="M2.62106 33.7568C3.49489 33.1596 6.7883 32.2472 9.23199 32.5031C14.0531 33.0113 28.5917 40.9562 31.7194 42.2433C34.2052 43.267 40.0026 45.5185 44.426 43.6565" stroke="#010101" stroke-width="0.75" stroke-miterlimit="10"/>
<path d="M11.6094 38.753C12.1879 37.963 12.1819 36.5275 11.8625 35.0031C11.4651 35.1292 11.0629 35.2307 10.6572 35.3072C9.64457 35.5042 8.60925 35.2118 7.76759 34.4912C6.80036 33.6196 6.53821 32.3622 6.45384 30.9861C6.3062 28.5826 7.18002 26.7577 8.56307 25.2221C8.95478 24.7918 9.34349 24.3541 9.75027 23.9498C9.84705 23.8702 9.92303 23.7578 9.96901 23.6261C10.015 23.4945 10.029 23.3493 10.0094 23.208C9.85527 21.3349 9.92532 19.4441 10.2173 17.5961C10.3342 16.8971 10.512 16.2156 10.7476 15.5635C11.0489 14.7883 11.4618 14.7512 11.8233 15.4893C12.1806 16.2467 12.4763 17.0455 12.7062 17.8743C12.9442 18.7782 13.0242 19.7337 12.9412 20.6784C12.8566 21.8324 12.4448 22.913 11.7781 23.731C11.4286 24.1909 11.0429 24.6138 10.6934 25.07C10.5986 25.1972 10.5478 25.3648 10.5518 25.5374C10.6301 26.3064 10.7306 27.0692 10.8531 27.8259C10.8721 27.8965 10.9052 27.96 10.9495 28.0105C10.9937 28.0611 11.0476 28.0971 11.1062 28.1152C13.125 28.2339 14.0892 29.7658 13.6855 32.2435C13.6205 32.7342 13.4692 33.2015 13.2423 33.6127C13.0154 34.024 12.7183 34.3694 12.3717 34.6247C12.283 34.6694 12.2118 34.7546 12.1731 34.8625C12.1343 34.9704 12.131 35.0925 12.1638 35.2034C12.3898 36.2648 12.3898 37.38 12.1638 38.4414C12.0787 38.8569 11.9216 39.2448 11.7031 39.5784C11.4846 39.912 11.2101 40.1834 10.8983 40.3739C10.5884 40.5631 10.2342 40.6119 9.89805 40.5115C9.56188 40.4111 9.26522 40.168 9.06025 39.8249C8.68962 39.2834 8.73482 38.4748 9.18077 37.8109C9.33692 37.5581 9.53966 37.3546 9.77228 37.2172C10.0049 37.0798 10.2607 37.0125 10.5186 37.0208C11.2297 37.0357 11.6094 37.644 11.6094 38.753ZM9.65083 32.6255C9.30275 32.3662 9.0472 31.9545 8.93543 31.4729C8.82366 30.9914 8.86394 30.4756 9.04819 30.0291C9.27811 29.3322 9.70666 28.7625 10.2535 28.4268C10.3981 28.3378 10.6392 28.3118 10.5819 27.9705C10.4523 27.2028 10.3318 26.435 10.1992 25.6078C9.24706 26.6501 8.27079 27.6071 7.53557 28.8607C7.32807 29.2076 7.15886 29.5867 7.03237 29.9883C6.87428 30.3875 6.83781 30.8433 6.9296 31.2728C7.02139 31.7023 7.23534 32.077 7.53256 32.3288C8.33622 33.1564 9.35031 33.6105 10.3981 33.6121C10.7883 33.5995 11.1776 33.5599 11.5642 33.4935L10.6602 28.9646C10.3071 29.0098 9.97033 29.1715 9.68555 29.4327C9.40077 29.6938 9.1785 30.0446 9.04217 30.4482C8.71373 31.3792 9.20488 32.0024 9.65083 32.6255ZM10.3439 23.3119C11.2267 22.3475 12.0915 21.4796 12.4923 20.1331C12.5559 19.9484 12.5778 19.7459 12.5555 19.5471C12.42 18.6319 12.1227 17.7645 11.6847 17.0064C11.4437 16.5946 11.1876 16.6354 10.9706 17.0509C10.8847 17.2215 10.814 17.4031 10.7597 17.5924C10.2505 19.4247 10.2053 21.3127 10.3439 23.3119ZM11.8324 33.3636C12.1462 33.2565 12.4381 33.069 12.6889 32.8133C12.9397 32.5576 13.1438 32.2395 13.2877 31.88C13.5891 31.1382 13.5408 30.5855 13.0256 30.0736C12.6081 29.6978 12.1585 29.3794 11.6847 29.1241C11.4634 29.0337 11.2335 28.9789 11.0007 28.9609L11.8324 33.3636Z" fill="black"/>
<path d="M23.1559 29.7213C23.0414 30.5855 22.8908 31.3756 22.8546 32.173C22.7733 33.6567 23.3277 34.4653 24.4757 34.7694C24.9458 34.8918 25.4068 35.081 25.8437 35.2294C25.8437 32.9705 25.8196 30.6449 25.8437 28.3192C25.8648 26.9839 26.3439 26.1939 27.3864 25.9231C27.8414 25.8044 28.5345 25.8935 28.8117 26.2532C28.9898 26.5108 29.1232 26.8105 29.2035 27.1339C29.2838 27.4574 29.3094 27.7977 29.2787 28.1338C29.0226 29.8697 28.1699 30.3593 26.4252 29.955V38.5787C26.3168 38.3895 26.2113 38.2857 26.1932 38.167C26.0546 37.1915 25.4912 36.7723 24.7981 36.4979C24.2615 36.2816 23.7754 35.9086 23.3815 35.4107C22.9876 34.9127 22.6975 34.3048 22.5361 33.6387C22.3747 32.9727 22.3467 32.2684 22.4547 31.5862C22.5626 30.9039 22.8033 30.2641 23.1559 29.7213Z" fill="black"/>
<path d="M37.4625 44.8471V40.8116C36.8434 40.9212 36.2117 40.8189 35.6366 40.516C35.0616 40.2131 34.5653 39.7212 34.2022 39.0942C34.1842 39.4095 34.1631 39.6283 34.1601 39.8361C34.1601 41.3197 34.142 42.8034 34.1329 44.287C34.1329 44.3872 34.1149 44.4873 34.1058 44.5874C34.0064 45.5667 33.3827 45.9747 32.6474 45.5407C32.2407 45.3033 32.093 44.5837 32.322 43.9792C32.3618 43.8623 32.4213 43.7573 32.4965 43.6709C32.5718 43.5845 32.6611 43.5188 32.7585 43.4781C32.8559 43.4375 32.9593 43.4227 33.0617 43.4349C33.1641 43.4471 33.2632 43.486 33.3525 43.5489C33.5183 43.6416 33.6719 43.7714 33.8768 43.9198V37.5661C34.9857 38.8606 36.0764 39.9881 37.7518 39.7915C37.7518 40.3219 37.7518 40.8338 37.7518 41.3494C37.7518 42.7415 37.7427 44.1337 37.7247 45.5259C37.7247 45.715 37.7066 45.8968 37.6945 46.0934C37.6584 46.6349 37.5469 46.7833 37.0919 46.8686C36.7333 46.9353 36.3808 47.0132 36.0975 46.5978C35.9539 46.4247 35.8591 46.1994 35.8271 45.9551C35.7951 45.7107 35.8276 45.4602 35.9198 45.2403C36.0479 45.0177 36.2269 44.8471 36.434 44.75C36.6411 44.6529 36.8669 44.6338 37.0828 44.695C37.2124 44.7247 37.3329 44.7877 37.4625 44.8471Z" fill="black"/>
<path d="M161 24.1465C159.307 23.323 157.035 22.6628 153.579 23.4529C148.887 24.5063 144.635 27.3066 140.489 30.0811C136.093 33.0187 131.555 35.3109 127.032 37.911C125.592 38.7382 121.464 41.0193 118.258 40.029" stroke="#010101" stroke-width="0.75" stroke-miterlimit="10"/>
<path d="M118.243 41.1454C119.009 41.4324 119.809 41.5505 120.608 41.4941C124.884 41.201 131.154 37.3102 138.531 33.3006C142.276 31.268 145.762 28.4379 149.646 26.7169C151.994 25.6384 154.496 25.1601 156.999 25.3111C158.195 25.3708 159.379 25.6444 160.512 26.1234" stroke="#010101" stroke-width="0.75" stroke-miterlimit="10"/>
<path d="M159.979 29.0685C158.619 28.3901 157.16 28.0717 155.694 28.1338C152.057 28.3378 146.654 29.7584 138.919 34.6322C136.487 36.1628 133.999 37.5599 131.456 38.8235C129.133 39.9696 127.237 41.0045 124.809 41.7686C122.832 42.388 120.244 43.0371 118.18 42.2619" stroke="#010101" stroke-width="0.75" stroke-miterlimit="10"/>
<path d="M118.15 43.2893C123.841 45.5148 132.01 40.4407 132.01 40.4407C132.01 40.4407 147.396 31.5758 153.404 30.8637C155.992 30.5558 158.27 30.9676 159.34 31.535" stroke="#010101" stroke-width="0.75" stroke-miterlimit="10"/>
<path d="M159.078 34.1833C158.207 33.5862 155.513 33.0446 153.072 33.3006C148.251 33.8087 133.713 41.7537 130.585 43.0408C128.111 44.083 122.299 46.3085 117.866 44.4539" stroke="#010101" stroke-width="0.75" stroke-miterlimit="10"/>
</svg>
