<svg width="533" height="451" viewBox="0 0 533 451" fill="none" xmlns="http://www.w3.org/2000/svg">
<path d="M199.41 450H214.72V384.04H338.04V450H353.68V377.88H353.43V363.81H199.41V378.07" fill="#444693"/>
<path d="M355.27 332.43H196.57C190.893 332.43 186.29 337.032 186.29 342.71V358C186.29 363.677 190.893 368.28 196.57 368.28H355.27C360.948 368.28 365.55 363.677 365.55 358V342.71C365.55 337.032 360.948 332.43 355.27 332.43Z" fill="#5E62AC"/>
<path d="M274.57 0C206.88 0 152 16.72 152 88.18C152 106.3 154.41 124.57 156.95 142.48C159.76 162.36 163.26 176.18 168.48 195.59C170.77 204.12 173.48 211.59 172.6 220.59C171.83 228.44 169.6 242.42 166.14 249.5C156.69 268.6 154.14 288.25 161.14 308.64C165.78 322.17 177.02 332.96 189.59 339.73C215.66 353.73 246.76 353.04 275.51 353.04C307.07 353.04 343.67 354.63 369.56 334.36C380.24 326 387.98 316.68 392.27 303.84C398.18 286.21 398.06 266.84 390.9 249.69C384.42 234.16 377.53 215.69 381.78 198.69C391.2 160.85 397.11 105.98 397.11 86.8C397.11 15.35 342.23 0.0700073 274.54 0.0700073" fill="#00A1CD"/>
<path d="M230.38 90.6701C230.38 90.6701 237.25 76.7601 252.38 84.9601" stroke="#0D4060" stroke-width="4" stroke-miterlimit="10"/>
<path d="M312.36 90.67C312.36 90.67 307.36 76.49 292.26 84.67" stroke="#0D4060" stroke-width="4" stroke-miterlimit="10"/>
<path d="M296.17 135.98C296.17 135.98 291.97 151.71 271.32 151.23C250.67 150.75 249.03 135.98 249.03 135.98H296.17Z" fill="#0D4060"/>
<path opacity="0.7" d="M217.73 137.65C224.424 137.65 229.85 135.882 229.85 133.7C229.85 131.518 224.424 129.75 217.73 129.75C211.036 129.75 205.61 131.518 205.61 133.7C205.61 135.882 211.036 137.65 217.73 137.65Z" fill="#A2CCED"/>
<path opacity="0.7" d="M325.26 137.65C331.954 137.65 337.38 135.882 337.38 133.7C337.38 131.518 331.954 129.75 325.26 129.75C318.566 129.75 313.14 131.518 313.14 133.7C313.14 135.882 318.566 137.65 325.26 137.65Z" fill="#A2CCED"/>
<path d="M232.14 311.68C232.14 311.68 211.44 311.99 197.14 282.63C193.65 275.45 193.34 263.74 191.89 257.45C191.2 254.45 190.74 252.52 190.74 252.52C190.74 252.52 190.52 249.79 191.74 256.11" stroke="#0F8AB2" stroke-width="14" stroke-miterlimit="10"/>
<path d="M231 302.4C227 303.25 223.64 307.08 222.89 312.25C221.89 318.83 225.54 325.16 230.89 326.32L244.13 329.19H244.42H244.55L262.43 333.05C263.83 333.35 265.19 332.19 265.43 330.47C265.589 329.706 265.463 328.91 265.076 328.233C264.69 327.555 264.069 327.042 263.33 326.79L253.6 324.69C254.088 323.936 254.494 323.131 254.81 322.29L266.48 324.82C267.88 325.12 269.24 323.96 269.48 322.24C269.641 321.476 269.516 320.679 269.129 320.001C268.742 319.323 268.12 318.81 267.38 318.56L255.71 316.04C255.654 315.199 255.52 314.366 255.31 313.55L265.31 315.72C266.71 316.02 268.07 314.86 268.31 313.14C268.471 312.376 268.346 311.579 267.959 310.901C267.572 310.223 266.95 309.71 266.21 309.46L249.5 305.85C248.991 305.602 248.459 305.408 247.91 305.27L251.28 304.77C252.029 304.565 252.676 304.09 253.095 303.436C253.514 302.782 253.676 301.996 253.55 301.23V301.23C253.38 299.49 252.08 298.23 250.66 298.46" fill="#A2CCED"/>
<path d="M321.92 311C321.92 311 342.62 311.3 356.92 281.94C360.41 274.76 360.72 263.06 362.17 256.77C362.86 253.77 363.32 251.84 363.32 251.84C363.32 251.84 363.54 249.11 362.32 255.42" stroke="#0F8AB2" stroke-width="14" stroke-miterlimit="10"/>
<path d="M323.07 301.72C327.07 302.57 330.44 306.4 331.19 311.57C332.19 318.15 328.54 324.48 323.19 325.64L309.92 328.49H309.63H309.49L291.64 332.49C290.24 332.79 288.88 331.63 288.64 329.91C288.477 329.146 288.601 328.348 288.988 327.669C289.375 326.991 289.999 326.478 290.74 326.23L300.47 324.13C299.982 323.376 299.576 322.571 299.26 321.73L287.59 324.25C286.19 324.56 284.83 323.4 284.59 321.68C284.427 320.916 284.551 320.118 284.938 319.439C285.325 318.761 285.949 318.248 286.69 318L298.34 315.49C298.398 314.654 298.528 313.824 298.73 313.01L288.73 315.18C287.32 315.48 285.97 314.32 285.73 312.6C285.567 311.836 285.691 311.038 286.078 310.359C286.465 309.681 287.089 309.168 287.83 308.92L304.54 305.31C305.048 305.061 305.581 304.867 306.13 304.73L302.76 304.22C302.009 304.019 301.359 303.545 300.939 302.89C300.519 302.235 300.359 301.447 300.49 300.68V300.68C300.66 298.95 301.96 297.68 303.37 297.92" fill="#A2CCED"/>
<path d="M230.19 346.36L241 432.36H257.16L267.97 346.62" fill="#00A1CD"/>
<path d="M254.76 449.57H242.06L235.32 392.24H262.51L254.76 449.57Z" fill="#56C5D0"/>
<path d="M284.09 346.36L294.9 432.36H311.06L321.87 346.62" fill="#00A1CD"/>
<path d="M308.65 449.57H295.96L289.21 392.24H316.4L308.65 449.57Z" fill="#56C5D0"/>
<path d="M284.55 450.24C284.55 439.24 292.55 430.24 302.47 430.24C312.39 430.24 320.4 439.24 320.4 450.24" fill="#504B48"/>
<path d="M231.15 449.57C231.15 438.52 239.15 429.57 249.08 429.57C259.01 429.57 267.01 438.52 267.01 449.57" fill="#504B48"/>
<path d="M280.11 116.32C280.233 112.002 282.039 107.903 285.143 104.898C288.247 101.894 292.403 100.223 296.723 100.241C301.043 100.259 305.185 101.966 308.263 104.996C311.342 108.027 313.114 112.141 313.2 116.46" fill="white"/>
<path d="M289.5 116.36C289.577 114.509 290.368 112.759 291.708 111.479C293.047 110.199 294.831 109.488 296.684 109.496C298.537 109.504 300.315 110.229 301.643 111.521C302.972 112.812 303.749 114.568 303.81 116.42" fill="#0D4061"/>
<path d="M230.71 116.32C230.833 112.002 232.639 107.903 235.743 104.898C238.848 101.894 243.003 100.223 247.323 100.241C251.643 100.259 255.785 101.966 258.863 104.996C261.942 108.027 263.714 112.141 263.8 116.46" fill="white"/>
<path d="M240.1 116.36C240.177 114.509 240.968 112.759 242.308 111.479C243.647 110.199 245.431 109.488 247.284 109.496C249.137 109.504 250.915 110.229 252.244 111.521C253.572 112.812 254.349 114.568 254.41 116.42" fill="#0D4061"/>
<path d="M190.74 258.26C194.23 258.26 197.06 255.43 197.06 251.94C197.06 248.45 194.23 245.62 190.74 245.62C187.249 245.62 184.42 248.45 184.42 251.94C184.42 255.43 187.249 258.26 190.74 258.26Z" fill="#278AB2"/>
<path d="M191.59 262.26C195.08 262.26 197.91 259.43 197.91 255.94C197.91 252.45 195.08 249.62 191.59 249.62C188.1 249.62 185.27 252.45 185.27 255.94C185.27 259.43 188.1 262.26 191.59 262.26Z" fill="#278AB2"/>
<path d="M363.43 257.57C366.92 257.57 369.75 254.741 369.75 251.25C369.75 247.76 366.92 244.93 363.43 244.93C359.939 244.93 357.11 247.76 357.11 251.25C357.11 254.741 359.939 257.57 363.43 257.57Z" fill="#278AB2"/>
<path d="M362.42 261.15C365.911 261.15 368.74 258.32 368.74 254.83C368.74 251.34 365.911 248.51 362.42 248.51C358.93 248.51 356.1 251.34 356.1 254.83C356.1 258.32 358.93 261.15 362.42 261.15Z" fill="#278AB2"/>
<path d="M471.93 109.67V89.5099C463.63 90.4499 457.14 87.5899 451.93 80.9399C451.82 82.5099 451.69 83.6199 451.68 84.7199C451.6 92.1199 451.56 99.5199 451.49 106.91C451.467 107.416 451.413 107.92 451.33 108.42C450.72 113.3 446.89 115.33 442.33 113.18C439.84 111.99 438.92 108.4 440.33 105.37C440.576 104.789 440.943 104.266 441.405 103.837C441.868 103.407 442.416 103.08 443.013 102.877C443.611 102.674 444.245 102.6 444.873 102.659C445.502 102.718 446.111 102.909 446.66 103.22C447.66 103.69 448.66 104.33 449.87 105.05V73.2999C456.7 79.7799 463.4 85.3999 473.69 84.3599C473.69 86.9999 473.69 89.5599 473.69 92.1199C473.637 99.0799 473.58 106.037 473.52 112.99C473.52 113.93 473.41 114.88 473.33 115.82C473.1 118.53 472.41 119.27 469.66 119.69C467.46 120.02 465.3 120.42 463.55 118.35C461.8 116.28 461.22 113.61 462.45 111.56C463.241 110.45 464.344 109.599 465.618 109.115C466.892 108.631 468.281 108.535 469.61 108.84C470.39 109.07 471.14 109.39 471.93 109.67Z" fill="black"/>
<path d="M493.39 72.19C492.349 70.5272 491.468 68.7693 490.76 66.94C489.92 64.3657 489.792 61.612 490.391 58.9711C490.99 56.3302 492.292 53.9005 494.16 51.94C497.329 48.5733 499.966 44.7425 501.98 40.58C502.08 40.37 502.26 40.18 502.85 40V42.09V70.56C502.85 73.09 502.72 75.62 502.85 78.14C503.1 83.25 496.61 87.14 491.76 85.69C489.41 84.98 488.56 81.83 489.88 79.24C490.854 77.3505 492.487 75.8836 494.47 75.117C496.453 74.3504 498.648 74.3373 500.64 75.08C500.845 75.1111 501.054 75.1111 501.26 75.08V51.97C497.8 54.3 494.26 56.37 493.08 60.41C491.977 64.2293 492.389 68.3266 494.23 71.85L493.39 72.19Z" fill="black"/>
<path d="M417.27 89.63C417.857 90.4406 418.372 91.3004 418.81 92.2C419.4 93.67 420.05 94.8 421.81 95.2C423.57 95.6 424.28 97.48 423.53 99.95C423.43 96.08 418.63 96.66 417.67 93.56C417.616 94.3814 417.816 95.1996 418.244 95.9029C418.671 96.6062 419.306 97.1605 420.06 97.49C422.41 98.57 422.98 99.75 422.26 102.68C422.54 99.07 419.26 99.01 417.31 97.48C417.31 101.48 417.31 105.38 417.31 109.32C417.363 110.205 417.134 111.085 416.656 111.832C416.178 112.579 415.476 113.156 414.65 113.48C414.177 113.662 413.672 113.746 413.165 113.729C412.658 113.711 412.16 113.591 411.701 113.376C411.242 113.161 410.83 112.856 410.492 112.479C410.153 112.102 409.894 111.66 409.73 111.18C409.583 110.64 409.55 110.074 409.635 109.521C409.72 108.967 409.92 108.437 410.223 107.966C410.525 107.495 410.924 107.092 411.392 106.784C411.86 106.477 412.387 106.271 412.94 106.18C414.098 106.088 415.262 106.088 416.42 106.18V89.92L417.27 89.63Z" fill="black"/>
<path d="M1 62.94C6.62 60.73 15.17 58.94 26.63 61.07C42.2 63.92 56.31 71.47 70.08 78.94C84.66 86.87 99.72 93.05 114.73 100.06C119.52 102.29 133.21 108.44 143.86 105.77" stroke="#010101" stroke-width="0.75" stroke-miterlimit="10"/>
<path d="M143.9 108.78C141.359 109.555 138.702 109.873 136.05 109.72C121.87 108.93 101.05 98.43 76.5699 87.63C64.1399 82.15 52.5699 74.51 39.6799 69.88C31.8917 66.9733 23.5929 65.6837 15.2899 66.09C11.317 66.2454 7.38842 66.9833 3.62988 68.28" stroke="#010101" stroke-width="0.75" stroke-miterlimit="10"/>
<path d="M2.3999 76.22C5.9199 74.7 14.4699 73.43 19.6199 73.67C31.6799 74.21 49.6199 78.05 75.2799 91.19C83.3599 95.3233 91.6166 99.0867 100.05 102.48C107.76 105.58 114.05 108.37 122.12 110.43C128.67 112.1 137.26 113.85 144.12 111.76" stroke="#010101" stroke-width="0.75" stroke-miterlimit="10"/>
<path d="M144.21 114.56C125.32 120.56 98.21 106.88 98.21 106.88C98.21 106.88 47.14 82.98 27.21 81.06C18.63 80.23 8.06001 81.34 4.51001 82.87" stroke="#010101" stroke-width="0.75" stroke-miterlimit="10"/>
<path d="M6.37988 91.01C9.27988 89.4 20.2099 86.94 28.3199 87.63C44.3199 89 92.5699 110.42 102.95 113.89C111.2 116.65 130.44 122.72 145.12 117.7" stroke="#010101" stroke-width="0.75" stroke-miterlimit="10"/>
<path d="M36.2099 104.48C38.1299 102.35 38.1099 98.4799 37.0499 94.3699C35.7311 94.71 34.3961 94.9837 33.0499 95.1899C29.6892 95.721 26.2532 94.9328 23.4599 92.99C20.2499 90.64 19.3799 87.2499 19.0999 83.5399C18.6099 77.0599 21.5099 72.1399 26.0999 67.9999C27.3999 66.8399 28.6899 65.6599 30.0399 64.5699C30.3611 64.3553 30.6133 64.0521 30.7659 63.6972C30.9185 63.3423 30.9651 62.9508 30.8999 62.5699C30.3884 57.52 30.6209 52.4224 31.5899 47.4399C31.9777 45.5553 32.5678 43.718 33.3499 41.9599C34.3499 39.8699 35.7199 39.7699 36.9199 41.7599C38.1055 43.8018 39.087 45.9555 39.8499 48.1899C40.6396 50.6268 40.9054 53.2031 40.6299 55.7499C40.349 58.8613 38.9825 61.7746 36.7699 63.9799C35.6099 65.2199 34.3299 66.3599 33.1699 67.5899C32.8554 67.9329 32.6869 68.3848 32.6999 68.8499C32.9599 70.9233 33.2933 72.98 33.6999 75.02C33.7629 75.2102 33.873 75.3814 34.0198 75.5178C34.1667 75.6541 34.3456 75.7512 34.5399 75.8C41.2399 76.12 44.4399 80.2499 43.0999 86.9299C42.8841 88.2528 42.3822 89.5127 41.6291 90.6216C40.8761 91.7304 39.8901 92.6616 38.7399 93.3499C38.4455 93.4703 38.2092 93.7 38.0806 93.9909C37.9519 94.2818 37.9409 94.6112 38.0499 94.9099C38.7998 97.7716 38.7998 100.778 38.0499 103.64C37.7675 104.76 37.2459 105.806 36.5209 106.705C35.7958 107.605 34.8846 108.336 33.8499 108.85C32.8215 109.36 31.6461 109.492 30.5304 109.221C29.4147 108.95 28.4302 108.295 27.7499 107.37C26.5199 105.91 26.6699 103.73 28.1499 101.94C28.6681 101.258 29.341 100.71 30.113 100.339C30.885 99.969 31.734 99.7875 32.5899 99.8099C34.9499 99.8499 36.2099 101.49 36.2099 104.48ZM29.7099 87.9599C28.5547 87.2609 27.7066 86.1509 27.3357 84.8526C26.9648 83.5543 27.0984 82.1638 27.7099 80.9599C28.473 79.081 29.8952 77.5451 31.7099 76.64C32.1899 76.4 32.9899 76.3299 32.7999 75.4099C32.3699 73.3399 31.9699 71.2699 31.5299 69.0399C28.3699 71.8499 25.1299 74.4299 22.6899 77.8099C22.0013 78.745 21.4397 79.7672 21.0199 80.8499C20.4952 81.9262 20.3742 83.1551 20.6788 84.313C20.9835 85.471 21.6935 86.4812 22.6799 87.1599C25.347 89.3912 28.7126 90.6156 32.1899 90.6199C33.4849 90.5858 34.7769 90.479 36.0599 90.3L33.0599 78.0899C31.8878 78.2119 30.7702 78.6479 29.8251 79.3519C28.88 80.0559 28.1424 81.0018 27.6899 82.0899C26.5999 84.5999 28.2299 86.2799 29.7099 87.9599ZM32.0099 62.8499C34.9399 60.2499 37.8099 57.9099 39.1399 54.2799C39.3511 53.7818 39.4237 53.2359 39.3499 52.7C38.9 50.2325 37.9134 47.894 36.4599 45.8499C35.6599 44.7399 34.8099 44.8499 34.0899 45.9699C33.8049 46.4301 33.5702 46.9196 33.3899 47.4299C31.6999 52.3699 31.5499 57.4599 32.0099 62.8499ZM36.9499 89.95C37.9914 89.6611 38.96 89.1555 39.7924 88.4662C40.6248 87.7768 41.3021 86.9193 41.7799 85.95C42.7799 83.95 42.6199 82.46 40.9099 81.08C39.5245 80.0667 38.0323 79.2083 36.4599 78.52C35.7253 78.2763 34.9624 78.1284 34.1899 78.08L36.9499 89.95Z" fill="black"/>
<path d="M74.53 80.13C74.15 82.46 73.65 84.59 73.53 86.74C73.26 90.74 75.1 92.92 78.91 93.74C80.47 94.07 82 94.58 83.45 94.98C83.45 88.89 83.37 82.62 83.45 76.35C83.52 72.75 85.11 70.62 88.57 69.89C90.08 69.57 92.38 69.81 93.3 70.78C93.8912 71.4742 94.3338 72.2824 94.6004 73.1544C94.867 74.0264 94.9519 74.9438 94.85 75.85C94 80.53 91.17 81.85 85.38 80.76V104.01C85.02 103.5 84.67 103.22 84.61 102.9C84.15 100.27 82.28 99.14 79.98 98.4C78.1991 97.817 76.586 96.8113 75.2786 95.4689C73.9712 94.1264 73.0085 92.4872 72.4728 90.6916C71.9371 88.8959 71.8445 86.9971 72.2028 85.1578C72.561 83.3185 73.3596 81.5934 74.53 80.13V80.13Z" fill="black"/>
<path d="M122.01 120.91V110.03C119.955 110.325 117.859 110.05 115.95 109.233C114.042 108.416 112.395 107.09 111.19 105.4C111.13 106.25 111.06 106.84 111.05 107.4C111.05 111.4 110.99 115.4 110.96 119.4C110.96 119.67 110.9 119.94 110.87 120.21C110.54 122.85 108.47 123.95 106.03 122.78C104.68 122.14 104.19 120.2 104.95 118.57C105.082 118.255 105.279 117.972 105.529 117.739C105.779 117.506 106.075 117.329 106.398 117.219C106.722 117.109 107.065 117.07 107.405 117.103C107.745 117.136 108.074 117.24 108.37 117.41C108.92 117.66 109.43 118.01 110.11 118.41V101.28C113.79 104.77 117.41 107.81 122.97 107.28C122.97 108.71 122.97 110.09 122.97 111.48C122.97 115.233 122.94 118.987 122.88 122.74C122.88 123.25 122.82 123.74 122.78 124.27C122.66 125.73 122.29 126.13 120.78 126.36C119.59 126.54 118.42 126.75 117.48 125.63C117.003 125.163 116.689 124.556 116.582 123.897C116.476 123.238 116.584 122.563 116.89 121.97C117.315 121.37 117.909 120.91 118.596 120.648C119.284 120.386 120.033 120.335 120.75 120.5C121.18 120.58 121.58 120.75 122.01 120.91Z" fill="black"/>
<path d="M532 65.1C526.38 62.88 518.84 61.1 507.37 63.23C491.8 66.07 477.69 73.62 463.93 81.1C449.34 89.02 434.28 95.2 419.27 102.21C414.49 104.44 400.79 110.59 390.15 107.92" stroke="#010101" stroke-width="0.75" stroke-miterlimit="10"/>
<path d="M390.1 110.93C392.641 111.704 395.298 112.022 397.95 111.87C412.14 111.08 432.95 100.59 457.43 89.78C469.86 84.3 481.43 76.67 494.32 72.03C502.112 69.1225 510.414 67.8329 518.72 68.24C522.692 68.4008 526.62 69.1385 530.38 70.43" stroke="#010101" stroke-width="0.75" stroke-miterlimit="10"/>
<path d="M528.61 78.37C524.1 76.5411 519.254 75.6825 514.39 75.85C502.32 76.4 484.39 80.23 458.72 93.37C450.647 97.4967 442.39 101.263 433.95 104.67C426.24 107.76 419.95 110.55 411.89 112.61C405.33 114.28 396.74 116.03 389.89 113.94" stroke="#010101" stroke-width="0.75" stroke-miterlimit="10"/>
<path d="M389.79 116.71C408.68 122.71 435.79 109.03 435.79 109.03C435.79 109.03 486.85 85.13 506.79 83.21C515.38 82.38 522.94 83.49 526.49 85.02" stroke="#010101" stroke-width="0.75" stroke-miterlimit="10"/>
<path d="M525.62 92.1599C522.73 90.5499 513.79 89.0899 505.69 89.7799C489.69 91.1499 441.44 112.57 431.06 116.04C422.85 118.85 403.56 124.85 388.85 119.85" stroke="#010101" stroke-width="0.75" stroke-miterlimit="10"/>
</svg>
