<svg width="246" height="451" viewBox="0 0 246 451" fill="none" xmlns="http://www.w3.org/2000/svg">
<path d="M47.41 450H62.72V384.04H186.04V450H201.68V377.88H201.43V363.81H47.41V378.07" fill="#444693"/>
<path d="M203.27 332.43H44.57C38.8926 332.43 34.29 337.032 34.29 342.71V358C34.29 363.677 38.8926 368.28 44.57 368.28H203.27C208.948 368.28 213.55 363.677 213.55 358V342.71C213.55 337.032 208.948 332.43 203.27 332.43Z" fill="#5E62AC"/>
<path d="M122.57 0C54.88 0 0 16.72 0 88.18C0 106.3 2.41 124.57 4.95 142.48C7.76 162.36 11.26 176.18 16.48 195.59C18.77 204.12 21.48 211.59 20.6 220.59C19.83 228.44 17.6 242.42 14.14 249.5C4.69 268.6 2.14 288.25 9.14 308.64C13.78 322.17 25.02 332.96 37.59 339.73C63.66 353.73 94.76 353.04 123.51 353.04C155.07 353.04 191.67 354.63 217.56 334.36C228.24 326 235.98 316.68 240.27 303.84C246.18 286.21 246.06 266.84 238.9 249.69C232.42 234.16 225.53 215.69 229.78 198.69C239.2 160.85 245.11 105.98 245.11 86.8C245.11 15.35 190.23 0.0700073 122.54 0.0700073" fill="#00A1CD"/>
<path opacity="0.7" d="M65.73 137.65C72.4237 137.65 77.85 135.882 77.85 133.7C77.85 131.518 72.4237 129.75 65.73 129.75C59.0363 129.75 53.61 131.518 53.61 133.7C53.61 135.882 59.0363 137.65 65.73 137.65Z" fill="#A2CCED"/>
<path opacity="0.7" d="M173.26 137.65C179.954 137.65 185.38 135.882 185.38 133.7C185.38 131.518 179.954 129.75 173.26 129.75C166.566 129.75 161.14 131.518 161.14 133.7C161.14 135.882 166.566 137.65 173.26 137.65Z" fill="#A2CCED"/>
<path d="M80.1401 311.68C80.1401 311.68 59.4401 311.99 45.1401 282.63C41.6501 275.45 41.3401 263.74 39.8901 257.45C39.2001 254.45 38.7401 252.52 38.7401 252.52C38.7401 252.52 38.5201 249.79 39.7401 256.11" stroke="#0F8AB2" stroke-width="14" stroke-miterlimit="10"/>
<path d="M79 302.4C75 303.25 71.64 307.08 70.89 312.25C69.89 318.83 73.54 325.16 78.89 326.32L92.13 329.19H92.42H92.55L110.43 333.05C111.83 333.35 113.19 332.19 113.43 330.47C113.589 329.706 113.463 328.91 113.076 328.233C112.69 327.555 112.069 327.042 111.33 326.79L101.6 324.69C102.088 323.936 102.494 323.131 102.81 322.29L114.48 324.82C115.88 325.12 117.24 323.96 117.48 322.24C117.641 321.476 117.516 320.679 117.129 320.001C116.742 319.323 116.12 318.81 115.38 318.56L103.71 316.04C103.654 315.199 103.52 314.366 103.31 313.55L113.31 315.72C114.71 316.02 116.07 314.86 116.31 313.14C116.471 312.376 116.346 311.579 115.959 310.901C115.572 310.223 114.95 309.71 114.21 309.46L97.5 305.85C96.9915 305.602 96.4586 305.408 95.91 305.27L99.28 304.77C100.029 304.565 100.676 304.09 101.095 303.436C101.514 302.782 101.676 301.996 101.55 301.23V301.23C101.38 299.49 100.08 298.23 98.66 298.46" fill="#A2CCED"/>
<path d="M169.92 311C169.92 311 190.62 311.3 204.92 281.94C208.41 274.76 208.72 263.06 210.17 256.77C210.86 253.77 211.32 251.84 211.32 251.84C211.32 251.84 211.54 249.11 210.32 255.42" stroke="#0F8AB2" stroke-width="14" stroke-miterlimit="10"/>
<path d="M171.07 301.72C175.07 302.57 178.44 306.4 179.19 311.57C180.19 318.15 176.54 324.48 171.19 325.64L157.92 328.49H157.63H157.49L139.64 332.49C138.24 332.79 136.88 331.63 136.64 329.91C136.477 329.146 136.601 328.348 136.988 327.669C137.375 326.991 137.999 326.478 138.74 326.23L148.47 324.13C147.982 323.376 147.576 322.571 147.26 321.73L135.59 324.25C134.19 324.56 132.83 323.4 132.59 321.68C132.427 320.916 132.551 320.118 132.938 319.439C133.325 318.761 133.949 318.248 134.69 318L146.34 315.49C146.398 314.654 146.528 313.824 146.73 313.01L136.73 315.18C135.32 315.48 133.97 314.32 133.73 312.6C133.567 311.836 133.691 311.038 134.078 310.359C134.465 309.681 135.089 309.168 135.83 308.92L152.54 305.31C153.048 305.061 153.581 304.867 154.13 304.73L150.76 304.22C150.009 304.019 149.359 303.545 148.939 302.89C148.519 302.235 148.359 301.447 148.49 300.68V300.68C148.66 298.95 149.96 297.68 151.37 297.92" fill="#A2CCED"/>
<path d="M78.1901 346.36L89.0001 432.36H105.16L115.97 346.62" fill="#00A1CD"/>
<path d="M102.76 449.57H90.0601L83.3201 392.24H110.51L102.76 449.57Z" fill="#56C5D0"/>
<path d="M132.09 346.36L142.9 432.36H159.06L169.87 346.62" fill="#00A1CD"/>
<path d="M156.65 449.57H143.96L137.21 392.24H164.4L156.65 449.57Z" fill="#56C5D0"/>
<path d="M132.55 450.24C132.55 439.24 140.55 430.24 150.47 430.24C160.39 430.24 168.4 439.24 168.4 450.24" fill="#504B48"/>
<path d="M79.15 449.57C79.15 438.52 87.15 429.57 97.08 429.57C107.01 429.57 115.01 438.52 115.01 449.57" fill="#504B48"/>
<path d="M38.7401 258.26C42.2305 258.26 45.06 255.43 45.06 251.94C45.06 248.45 42.2305 245.62 38.7401 245.62C35.2496 245.62 32.42 248.45 32.42 251.94C32.42 255.43 35.2496 258.26 38.7401 258.26Z" fill="#278AB2"/>
<path d="M39.59 262.26C43.0805 262.26 45.91 259.43 45.91 255.94C45.91 252.45 43.0805 249.62 39.59 249.62C36.0996 249.62 33.27 252.45 33.27 255.94C33.27 259.43 36.0996 262.26 39.59 262.26Z" fill="#278AB2"/>
<path d="M211.43 257.57C214.92 257.57 217.75 254.74 217.75 251.25C217.75 247.76 214.92 244.93 211.43 244.93C207.94 244.93 205.11 247.76 205.11 251.25C205.11 254.74 207.94 257.57 211.43 257.57Z" fill="#278AB2"/>
<path d="M210.42 261.15C213.91 261.15 216.74 258.32 216.74 254.83C216.74 251.34 213.91 248.51 210.42 248.51C206.93 248.51 204.1 251.34 204.1 254.83C204.1 258.32 206.93 261.15 210.42 261.15Z" fill="#278AB2"/>
<path d="M79 90.5418C79 90.5418 85.87 76.6318 101 84.8318" stroke="#0D4060" stroke-width="4" stroke-miterlimit="10"/>
<path d="M160.98 90.5418C160.98 90.5418 155.98 76.3618 140.88 84.5418" stroke="#0D4060" stroke-width="4" stroke-miterlimit="10"/>
<path d="M144.79 135.852C144.79 135.852 140.59 143.722 119.94 143.482C99.29 143.242 97.65 135.852 97.65 135.852H144.79Z" fill="#0D4060"/>
<path d="M159.36 106.442C159.36 113.652 152.56 119.492 144.17 119.492C135.78 119.492 128.99 113.652 128.99 106.442" stroke="#0D4060" stroke-width="2" stroke-miterlimit="10"/>
<path d="M112.54 106.442C112.54 113.652 105.74 119.492 97.35 119.492C88.96 119.492 82.16 113.652 82.16 106.442" stroke="#0D4060" stroke-width="2" stroke-miterlimit="10"/>
</svg>
