<svg width="585" height="884" viewBox="0 0 585 884" fill="none" xmlns="http://www.w3.org/2000/svg">
<rect width="413.915" height="61.7489" rx="15" transform="matrix(-1 0 0 1 505 630.834)" fill="#CD2155"/>
<rect width="283.401" height="33.8623" transform="matrix(-1 0 0 1 431.353 692.583)" fill="#ED1650"/>
<path d="M292.431 49C409.753 49 504.862 79.9681 504.862 212.268C504.862 245.823 500.689 279.653 496.297 312.811C491.418 349.624 485.35 386.328 476.311 422.259C472.338 438.054 467.633 451.914 469.155 468.5C470.49 483.037 474.297 497.819 480.367 510.926C496.739 546.281 501.089 582.675 488.967 620.432C480.926 645.485 461.452 665.454 439.659 677.985C394.477 703.968 340.575 702.632 290.76 702.632C236.05 702.632 172.618 698.17 127.745 660.643C109.239 645.168 95.8247 624.201 88.3808 600.435C83.9778 586.384 82.531 572.34 80.8157 557.783C78.4431 537.646 83.6655 520.273 90.7627 502.003C101.418 474.578 113.608 437.573 106.574 407.513C90.2369 337.446 80 245.109 80 209.591C80 77.293 175.109 49 292.431 49Z" fill="#00A1CD"/>
<path d="M354.079 205.556C354.079 205.556 345.474 186.933 326.57 197.912" stroke="#0D4060" stroke-width="3" stroke-miterlimit="10"/>
<path d="M236.32 205.557C236.32 205.557 242.607 186.571 261.509 197.55" stroke="#0D4060" stroke-width="3" stroke-miterlimit="10"/>
<g opacity="0.6">
<path d="M283.127 224.486C283.127 238.786 270.601 250.381 255.161 250.381C239.712 250.381 227.192 238.786 227.192 224.486" stroke="black" stroke-width="3"/>
<path d="M357.706 224.486C357.706 238.786 345.181 250.381 329.74 250.381C314.291 250.381 301.772 238.786 301.772 224.486" stroke="black" stroke-width="3"/>
</g>
<path d="M253.295 285.239C253.295 285.239 260.102 295.507 293.599 295.192C327.094 294.877 329.739 285.239 329.739 285.239H253.295Z" fill="#0D4060"/>
<g opacity="0.7">
<g opacity="0.7">
<path opacity="0.7" d="M360.395 272.542C360.395 276.29 369.122 279.327 379.889 279.327C390.654 279.327 399.383 276.29 399.383 272.542C399.383 268.795 390.654 265.759 379.889 265.759C369.122 265.759 360.395 268.796 360.395 272.542Z" fill="#A2CCED"/>
</g>
</g>
<g opacity="0.7">
<g opacity="0.7">
<path opacity="0.7" d="M193.832 272.542C193.832 276.29 202.559 279.327 213.323 279.327C224.091 279.327 232.818 276.29 232.818 272.542C232.818 268.795 224.091 265.759 213.323 265.759C202.559 265.759 193.832 268.796 193.832 272.542Z" fill="#A2CCED"/>
</g>
</g>
<path d="M270.552 697.437L254.791 807.763H235.902L220.142 697.391" fill="#00A1CD"/>
<path d="M364.759 697.096L348.999 807.763H330.11L314.349 697.437" fill="#00A1CD"/>
<path d="M236.087 835.187H254.605L264.346 745.87H226.253L236.087 835.187Z" fill="#FFCB05"/>
<path d="M330.494 834.577H349.013L358.846 745.261H320.754L330.494 834.577Z" fill="#FFCB05"/>
<path d="M393.303 835.628C393.303 816.894 379.086 801.703 361.548 801.703C344.009 801.703 329.793 816.893 329.793 835.628" fill="#504B48"/>
<path d="M254.428 835.628C254.428 816.894 240.209 801.703 222.672 801.703C205.135 801.703 190.917 816.893 190.917 835.628" fill="#504B48"/>
<path d="M373.594 671.648C372.387 673.506 369.25 673.536 366.624 671.714C363.999 669.892 362.838 666.881 364.047 665.023L372.425 652.132C370.885 651.756 369.323 651.202 367.769 650.512L357.725 665.966C356.518 667.825 353.381 667.854 350.755 666.033C348.13 664.21 346.969 661.199 348.177 659.341L358.222 643.887C357.138 642.787 356.161 641.636 355.306 640.448L346.674 653.729C345.465 655.587 342.329 655.617 339.703 653.796C337.078 651.974 335.918 648.962 337.125 647.104L351.51 624.973C351.758 624.129 352.122 623.332 352.562 622.571L347.984 625.542C346.063 626.789 342.724 625.941 340.564 623.657C338.405 621.373 338.209 618.483 340.13 617.236L364.6 601.348C365.542 600.737 366.825 600.635 368.142 600.954C373.917 597.728 382.996 598.81 390.887 604.284C400.927 611.251 405.363 622.766 400.744 629.872L389.345 647.412C389.263 647.537 389.163 647.643 389.077 647.764C389.041 647.83 389.025 647.904 388.984 647.968L373.594 671.648Z" fill="#A2CCED"/>
<path d="M459.83 466.572L441.524 467.964C462.44 520.338 409.988 580.037 381.147 603.339L396.8 615.514C471.009 549.609 469.74 488.759 459.83 466.572Z" fill="#00A1CD" stroke="#006D8B" stroke-width="4"/>
<path d="M373.594 671.648C372.387 673.506 369.25 673.536 366.624 671.714C363.999 669.892 362.838 666.881 364.047 665.023L372.425 652.132C370.885 651.756 369.323 651.202 367.769 650.512L357.725 665.966C356.518 667.825 353.381 667.854 350.755 666.033C348.13 664.21 346.969 661.199 348.177 659.341L358.222 643.887C357.138 642.787 356.161 641.636 355.306 640.448L346.674 653.729C345.465 655.587 342.329 655.617 339.703 653.796C337.078 651.974 335.918 648.962 337.125 647.104L351.51 624.973C351.758 624.129 352.122 623.332 352.562 622.571L347.984 625.542C346.063 626.789 342.724 625.941 340.564 623.657C338.405 621.373 338.209 618.483 340.13 617.236L364.6 601.348C365.542 600.737 366.825 600.635 368.142 600.954C373.917 597.728 382.996 598.81 390.887 604.284C400.927 611.251 405.363 622.766 400.744 629.872L389.345 647.412C389.263 647.537 389.163 647.643 389.077 647.764C389.041 647.83 389.025 647.904 388.984 647.968L373.594 671.648Z" fill="#A2CCED"/>
<path d="M459.83 466.572L441.524 467.964C462.44 520.338 409.988 580.037 381.147 603.339L396.8 615.514C471.009 549.609 469.74 488.759 459.83 466.572Z" fill="#00A1CD" stroke="#006D8B" stroke-width="4"/>
<path d="M198.723 661.688C199.93 663.547 203.067 663.577 205.693 661.755C208.318 659.933 209.48 656.922 208.27 655.063L199.893 642.173C201.433 641.796 202.995 641.243 204.548 640.552L214.592 656.006C215.8 657.865 218.937 657.895 221.562 656.073C224.187 654.251 225.348 651.239 224.14 649.382L214.096 633.928C215.18 632.828 216.157 631.677 217.011 630.488L225.644 643.77C226.852 645.627 229.988 645.658 232.614 643.837C235.239 642.014 236.399 639.002 235.192 637.145L220.808 615.013C220.559 614.17 220.195 613.373 219.756 612.612L224.333 615.583C226.254 616.83 229.593 615.982 231.753 613.698C233.913 611.413 234.108 608.523 232.188 607.276L207.717 591.389C206.776 590.778 205.492 590.676 204.175 590.994C198.4 587.769 189.321 588.851 181.431 594.325C171.391 601.291 166.954 612.806 171.573 619.913L182.973 637.452C183.054 637.577 183.155 637.683 183.24 637.805C183.276 637.87 183.293 637.945 183.334 638.009L198.723 661.688Z" fill="#A2CCED"/>
<path d="M112.488 456.612L130.794 458.004C109.877 510.379 162.33 570.077 191.171 593.379L175.517 605.554C101.309 539.649 102.577 478.799 112.488 456.612Z" fill="#00A1CD" stroke="#006D8B" stroke-width="4"/>
<rect width="31.6962" height="109.555" transform="matrix(-1 0 0 1 179.648 726.446)" fill="#ED1650"/>
<rect width="31.6962" height="109.555" transform="matrix(-1 0 0 1 431.353 726.446)" fill="#ED1650"/>
</svg>
