<svg width="282" height="607" viewBox="0 0 282 607" fill="none" xmlns="http://www.w3.org/2000/svg">
<path d="M83.4102 606H98.7202V540.04H222.04V606H237.68V533.88H237.43V519.81H83.4102V534.07" fill="#444693"/>
<path d="M239.27 488.43H80.57C74.8926 488.43 70.29 493.032 70.29 498.71V514C70.29 519.677 74.8926 524.28 80.57 524.28H239.27C244.948 524.28 249.55 519.677 249.55 514V498.71C249.55 493.032 244.948 488.43 239.27 488.43Z" fill="#5E62AC"/>
<path d="M158.57 156C90.88 156 36 172.72 36 244.18C36 262.3 38.41 280.57 40.95 298.48C43.76 318.36 47.26 332.18 52.48 351.59C54.77 360.12 57.48 367.59 56.6 376.59C55.83 384.44 53.6 398.42 50.14 405.5C40.69 424.6 38.14 444.25 45.14 464.64C49.78 478.17 61.02 488.96 73.59 495.73C99.66 509.73 130.76 509.04 159.51 509.04C191.07 509.04 227.67 510.63 253.56 490.36C264.24 482 271.98 472.68 276.27 459.84C282.18 442.21 282.06 422.84 274.9 405.69C268.42 390.16 261.53 371.69 265.78 354.69C275.2 316.85 281.11 261.98 281.11 242.8C281.11 171.35 226.23 156.07 158.54 156.07" fill="#00A1CD"/>
<path opacity="0.7" d="M101.73 293.65C108.424 293.65 113.85 291.882 113.85 289.7C113.85 287.518 108.424 285.75 101.73 285.75C95.0362 285.75 89.6099 287.518 89.6099 289.7C89.6099 291.882 95.0362 293.65 101.73 293.65Z" fill="#A2CCED"/>
<path opacity="0.7" d="M209.26 293.65C215.954 293.65 221.38 291.882 221.38 289.7C221.38 287.518 215.954 285.75 209.26 285.75C202.566 285.75 197.14 287.518 197.14 289.7C197.14 291.882 202.566 293.65 209.26 293.65Z" fill="#A2CCED"/>
<path d="M116.14 467.68C116.14 467.68 95.4401 467.99 81.1401 438.63C77.6501 431.45 77.3401 419.74 75.8901 413.45C75.2001 410.45 74.7401 408.52 74.7401 408.52C74.7401 408.52 74.5201 405.79 75.7401 412.11" stroke="#0F8AB2" stroke-width="14" stroke-miterlimit="10"/>
<path d="M115 458.4C111 459.25 107.64 463.08 106.89 468.25C105.89 474.83 109.54 481.16 114.89 482.32L128.13 485.19H128.42H128.55L146.43 489.05C147.83 489.35 149.19 488.19 149.43 486.47C149.589 485.706 149.463 484.91 149.076 484.233C148.69 483.555 148.069 483.042 147.33 482.79L137.6 480.69C138.088 479.936 138.494 479.131 138.81 478.29L150.48 480.82C151.88 481.12 153.24 479.96 153.48 478.24C153.641 477.476 153.516 476.679 153.129 476.001C152.742 475.323 152.12 474.81 151.38 474.56L139.71 472.04C139.654 471.199 139.52 470.366 139.31 469.55L149.31 471.72C150.71 472.02 152.07 470.86 152.31 469.14C152.471 468.376 152.346 467.579 151.959 466.901C151.572 466.223 150.95 465.71 150.21 465.46L133.5 461.85C132.991 461.602 132.459 461.408 131.91 461.27L135.28 460.77C136.029 460.565 136.676 460.09 137.095 459.436C137.514 458.782 137.676 457.996 137.55 457.23V457.23C137.38 455.49 136.08 454.23 134.66 454.46" fill="#A2CCED"/>
<path d="M205.92 467C205.92 467 226.62 467.3 240.92 437.94C244.41 430.76 244.72 419.06 246.17 412.77C246.86 409.77 247.32 407.84 247.32 407.84C247.32 407.84 247.54 405.11 246.32 411.42" stroke="#0F8AB2" stroke-width="14" stroke-miterlimit="10"/>
<path d="M207.07 457.72C211.07 458.57 214.44 462.4 215.19 467.57C216.19 474.15 212.54 480.48 207.19 481.64L193.92 484.49H193.63H193.49L175.64 488.49C174.24 488.79 172.88 487.63 172.64 485.91C172.477 485.146 172.601 484.348 172.988 483.669C173.375 482.991 173.999 482.478 174.74 482.23L184.47 480.13C183.982 479.376 183.576 478.571 183.26 477.73L171.59 480.25C170.19 480.56 168.83 479.4 168.59 477.68C168.427 476.916 168.551 476.118 168.938 475.439C169.325 474.761 169.949 474.248 170.69 474L182.34 471.49C182.398 470.654 182.528 469.824 182.73 469.01L172.73 471.18C171.32 471.48 169.97 470.32 169.73 468.6C169.567 467.836 169.691 467.038 170.078 466.359C170.465 465.681 171.089 465.168 171.83 464.92L188.54 461.31C189.048 461.061 189.581 460.867 190.13 460.73L186.76 460.22C186.009 460.019 185.359 459.545 184.939 458.89C184.519 458.235 184.359 457.447 184.49 456.68V456.68C184.66 454.95 185.96 453.68 187.37 453.92" fill="#A2CCED"/>
<path d="M114.19 502.36L125 588.36H141.16L151.97 502.62" fill="#00A1CD"/>
<path d="M138.76 605.57H126.06L119.32 548.24H146.51L138.76 605.57Z" fill="#56C5D0"/>
<path d="M168.09 502.36L178.9 588.36H195.06L205.87 502.62" fill="#00A1CD"/>
<path d="M192.65 605.57H179.96L173.21 548.24H200.4L192.65 605.57Z" fill="#56C5D0"/>
<path d="M168.55 606.24C168.55 595.24 176.55 586.24 186.47 586.24C196.39 586.24 204.4 595.24 204.4 606.24" fill="#504B48"/>
<path d="M115.15 605.57C115.15 594.52 123.15 585.57 133.08 585.57C143.01 585.57 151.01 594.52 151.01 605.57" fill="#504B48"/>
<path d="M74.7399 414.26C78.2304 414.26 81.0599 411.43 81.0599 407.94C81.0599 404.45 78.2304 401.62 74.7399 401.62C71.2495 401.62 68.4199 404.45 68.4199 407.94C68.4199 411.43 71.2495 414.26 74.7399 414.26Z" fill="#278AB2"/>
<path d="M75.59 418.26C79.0805 418.26 81.91 415.43 81.91 411.94C81.91 408.45 79.0805 405.62 75.59 405.62C72.0996 405.62 69.27 408.45 69.27 411.94C69.27 415.43 72.0996 418.26 75.59 418.26Z" fill="#278AB2"/>
<path d="M247.43 413.57C250.92 413.57 253.75 410.74 253.75 407.25C253.75 403.76 250.92 400.93 247.43 400.93C243.939 400.93 241.11 403.76 241.11 407.25C241.11 410.74 243.939 413.57 247.43 413.57Z" fill="#278AB2"/>
<path d="M246.42 417.15C249.911 417.15 252.74 414.32 252.74 410.83C252.74 407.34 249.911 404.51 246.42 404.51C242.93 404.51 240.1 407.34 240.1 410.83C240.1 414.32 242.93 417.15 246.42 417.15Z" fill="#278AB2"/>
<path d="M115 246.542C115 246.542 121.87 232.632 137 240.832" stroke="#0D4060" stroke-width="4" stroke-miterlimit="10"/>
<path d="M196.98 246.542C196.98 246.542 191.98 232.362 176.88 240.542" stroke="#0D4060" stroke-width="4" stroke-miterlimit="10"/>
<path d="M180.79 291.852C180.79 291.852 176.59 299.722 155.94 299.482C135.29 299.242 133.65 291.852 133.65 291.852H180.79Z" fill="#0D4060"/>
<path d="M195.36 262.442C195.36 269.652 188.56 275.492 180.17 275.492C171.78 275.492 164.99 269.652 164.99 262.442" stroke="#0D4060" stroke-width="2" stroke-miterlimit="10"/>
<path d="M148.54 262.442C148.54 269.652 141.74 275.492 133.35 275.492C124.96 275.492 118.16 269.652 118.16 262.442" stroke="#0D4060" stroke-width="2" stroke-miterlimit="10"/>
<path d="M266.53 60.28C266.53 42.39 248.61 27.88 226.53 27.88C224.117 27.883 221.707 28.0601 219.32 28.41C213.05 11.96 194.12 0 171.74 0C156.92 0 143.62 5.24 134.5 13.56C127.086 9.39472 118.714 7.23691 110.21 7.3C91.29 7.3 75.29 17.41 69.99 31.3C51.36 31.3 36.26 43.53 36.26 58.61C36.26 67.55 41.57 75.48 49.77 80.47C48.2607 84.0115 47.4785 87.8203 47.47 91.67C47.47 110.9 66.73 126.48 90.47 126.48C97.0669 126.503 103.606 125.254 109.73 122.8C120.51 131.62 135.47 137.09 152.01 137.09C170.01 137.09 186.07 130.64 197.01 120.44C203.581 124.165 211.017 126.096 218.57 126.04C239.05 126.04 255.66 112.6 255.66 96.04C255.633 92.0814 254.671 88.1852 252.85 84.67C261.23 78.73 266.53 70.01 266.53 60.28Z" fill="#CAE1F0"/>
<path d="M27.8401 136.56C38.9023 136.56 47.8701 127.592 47.8701 116.53C47.8701 105.468 38.9023 96.5 27.8401 96.5C16.7778 96.5 7.81006 105.468 7.81006 116.53C7.81006 127.592 16.7778 136.56 27.8401 136.56Z" fill="#CAE1F0"/>
<path d="M10.42 161.09C16.1748 161.09 20.84 156.425 20.84 150.67C20.84 144.915 16.1748 140.25 10.42 140.25C4.66521 140.25 0 144.915 0 150.67C0 156.425 4.66521 161.09 10.42 161.09Z" fill="#CAE1F0"/>
<path d="M17.8402 185.92C21.9106 185.92 25.2102 182.62 25.2102 178.55C25.2102 174.48 21.9106 171.18 17.8402 171.18C13.7699 171.18 10.4702 174.48 10.4702 178.55C10.4702 182.62 13.7699 185.92 17.8402 185.92Z" fill="#CAE1F0"/>
</svg>
