<svg width="638" height="1013" viewBox="0 0 638 1013" fill="none" xmlns="http://www.w3.org/2000/svg">
<path d="M173.941 156.084C172.363 168.792 149.939 161.379 138.924 156.084C133.992 162.041 121.464 173.756 110.811 172.962C100.158 172.167 94.8643 160.056 93.5491 154.099C90.5899 159.559 82.2054 169.884 72.3413 167.501C62.4772 165.119 59.0248 152.941 58.5316 147.15C49.1607 155.092 31.8986 150.128 29.4325 140.697C27.4597 133.152 34.529 125.309 38.3102 122.33C33.2138 119.518 22.8236 112.7 22.0345 107.935C21.2453 103.17 34.2002 98.0075 40.7762 96.022L29.4325 86.0943C27.7885 83.2814 25.191 75.968 27.9529 69.2172C30.7149 62.4664 42.9135 62.7642 48.6675 63.757C47.6811 58.4622 47.1879 46.7806 53.1063 42.4124C59.0248 38.0443 71.6837 46.2181 77.2734 50.851C79.2462 44.398 84.8687 31.492 91.5763 31.492C98.2839 31.492 103.906 41.0887 105.879 45.8871C108.838 40.096 116.236 28.6129 122.155 29.01C128.073 29.4071 134.156 41.0887 136.458 46.8799C139.91 41.2542 148.985 30.3007 157.666 31.492C166.346 32.6833 168.516 44.8944 168.516 50.851C170.325 47.3763 177.098 40.2283 189.724 39.4341C202.35 38.6399 199.917 58.9586 197.122 69.2172C205.506 69.7136 209.452 81.1304 208.959 87.5834C208.564 92.7458 197.944 99.993 192.683 102.971C195.149 106.115 199.983 115.282 199.588 126.798C199.193 138.314 180.024 134.244 170.489 130.769C172.297 133.913 175.52 143.377 173.941 156.084Z" fill="white" stroke="black" stroke-width="2"/>
<path d="M182.229 198.068C189.118 197.301 194.03 203.184 195.625 206.222C196.661 204.863 199.404 202.145 202.083 202.145C204.762 202.145 204.635 206.142 204.236 208.141C205.911 205.263 210.934 200.035 217.632 202.145C224.33 204.256 220.423 211.658 217.632 215.095C222.257 215.415 231.602 217.302 231.985 222.29C232.367 227.278 225.446 232.042 221.938 233.801C226.483 235.48 228.157 240.996 224.808 248.91C222.129 255.241 213.326 251.548 209.26 248.91C211.652 252.587 213.996 260.373 204.236 262.1C194.476 263.826 189.804 258.342 188.687 255.385C187.731 258.982 183.52 265.361 174.335 262.1C165.149 258.838 168.275 249.549 170.986 245.312C166.839 245.152 158.26 243.154 157.111 236.439C155.963 229.724 163.969 227.406 168.115 227.086C163.809 225.088 155.868 219.412 158.547 212.697C161.226 205.982 170.188 208.94 174.335 211.258C174.096 207.181 175.339 198.836 182.229 198.068Z" fill="white" stroke="black" stroke-width="2"/>
<path d="M259.819 307.045C264.412 306.538 267.687 310.43 268.75 312.439C269.441 311.54 271.269 309.742 273.056 309.742C274.842 309.742 274.757 312.386 274.491 313.708C275.607 311.805 278.956 308.346 283.421 309.742C287.887 311.138 285.282 316.035 283.421 318.309C286.505 318.521 292.735 319.769 292.99 323.069C293.245 326.369 288.631 329.52 286.292 330.684C289.322 331.794 290.438 335.443 288.206 340.679C286.419 344.867 280.551 342.424 277.84 340.679C279.435 343.111 280.997 348.262 274.491 349.404C267.984 350.547 264.869 346.919 264.125 344.962C263.487 347.342 260.68 351.562 254.556 349.404C248.433 347.247 250.516 341.102 252.324 338.299C249.56 338.193 243.84 336.871 243.074 332.429C242.309 327.987 247.646 326.453 250.41 326.242C247.54 324.92 242.245 321.165 244.031 316.723C245.817 312.281 251.792 314.237 254.556 315.771C254.397 313.074 255.226 307.553 259.819 307.045Z" fill="white" stroke="black" stroke-width="2"/>
</svg>
