<svg width="77" height="67" viewBox="0 0 77 67" fill="none" xmlns="http://www.w3.org/2000/svg">
<path d="M26.2287 1.06836C33.118 0.300942 38.0298 6.18446 39.6246 9.22215C40.6612 7.86318 43.4041 5.14525 46.0833 5.14525C48.7625 5.14525 48.6349 9.14221 48.2362 11.1407C49.9107 8.26288 54.9341 3.03486 61.632 5.14525C68.33 7.25564 64.4229 14.658 61.632 18.0954C66.2568 18.4151 75.602 20.3017 75.9848 25.2899C76.3675 30.2781 69.4463 35.0425 65.9379 36.8011C70.4829 38.4799 72.1574 43.9957 68.8084 51.9096C66.1292 58.2408 57.3262 54.5476 53.2596 51.9096C55.6518 55.5868 57.996 63.3729 48.2362 65.0996C38.4763 66.8263 33.8037 61.3425 32.6874 58.3847C31.7306 61.982 27.5205 68.3611 18.3347 65.0996C9.14899 61.8381 12.2747 52.5491 14.9858 48.3124C10.8394 48.1525 2.25969 46.154 1.11147 39.4391C-0.0367514 32.7242 7.96887 30.406 12.1152 30.0863C7.8094 28.0878 -0.132432 22.4121 2.54674 15.6972C5.22591 8.98233 14.1884 11.9401 18.3347 14.2583C18.0955 10.1814 19.3394 1.83577 26.2287 1.06836Z" fill="white" stroke="black" stroke-width="2"/>
</svg>
