<svg width="189" height="146" viewBox="0 0 189 146" fill="none" xmlns="http://www.w3.org/2000/svg">
<path d="M152.941 128.084C151.363 140.792 128.939 133.379 117.924 128.084C112.992 134.041 100.464 145.756 89.8112 144.962C79.158 144.167 73.8643 132.056 72.5491 126.099C69.5899 131.559 61.2054 141.884 51.3413 139.501C41.4772 137.119 38.0248 124.941 37.5316 119.15C28.1607 127.092 10.8986 122.128 8.43254 112.697C6.45972 105.152 13.529 97.3087 17.3102 94.3304C12.2138 91.5175 1.8236 84.7005 1.03447 79.9352C0.245346 75.1699 13.2002 70.0075 19.7762 68.022L8.43254 58.0943C6.78852 55.2814 4.19098 47.968 6.95292 41.2172C9.71487 34.4664 21.9135 34.7642 27.6675 35.757C26.6811 30.4622 26.1879 18.7806 32.1063 14.4124C38.0248 10.0443 50.6837 18.2181 56.2734 22.851C58.2462 16.398 63.8687 3.49199 70.5763 3.49199C77.2839 3.49199 82.9064 13.0887 84.8792 17.8871C87.8384 12.096 95.2365 0.612931 101.155 1.01004C107.073 1.40715 113.156 13.0887 115.458 18.8799C118.91 13.2542 127.985 2.30066 136.666 3.49199C145.346 4.68331 147.516 16.8944 147.516 22.851C149.325 19.3763 156.098 12.2283 168.724 11.4341C181.35 10.6399 178.917 30.9586 176.122 41.2172C184.506 41.7136 188.452 53.1304 187.959 59.5834C187.564 64.7458 176.944 71.993 171.683 74.9713C174.149 78.1151 178.983 87.2817 178.588 98.7978C178.193 110.314 159.024 106.244 149.489 102.769C151.297 105.913 154.52 115.377 152.941 128.084Z" fill="white" stroke="black" stroke-width="2"/>
</svg>
