<svg width="52" height="45" viewBox="0 0 52 45" fill="none" xmlns="http://www.w3.org/2000/svg">
<path d="M17.8191 1.04522C22.412 0.537546 25.6866 4.42972 26.7497 6.43927C27.4408 5.54026 29.2694 3.74224 31.0555 3.74224C32.8416 3.74224 32.7566 6.38638 32.4908 7.70845C33.6071 5.80467 36.9561 2.34614 41.4214 3.74224C45.8867 5.13835 43.2819 10.0353 41.4214 12.3093C44.5045 12.5208 50.7347 13.7688 50.9898 17.0687C51.245 20.3686 46.6309 23.5204 44.2919 24.6838C47.3219 25.7944 48.4382 29.4433 46.2056 34.6787C44.4195 38.867 38.5508 36.4238 35.8398 34.6787C37.4345 37.1113 38.9974 42.2621 32.4908 43.4043C25.9842 44.5466 22.8692 40.9189 22.125 38.9622C21.4871 41.3419 18.6803 45.562 12.5565 43.4043C6.43266 41.2467 8.51646 35.1017 10.3238 32.299C7.55961 32.1932 1.83979 30.8711 1.07431 26.429C0.308832 21.9868 5.64592 20.4532 8.41014 20.2417C5.5396 18.9196 0.245045 15.1649 2.03116 10.7228C3.81728 6.28062 9.79225 8.23728 12.5565 9.77088C12.397 7.07386 13.2263 1.5529 17.8191 1.04522Z" fill="white" stroke="black" stroke-width="2"/>
</svg>
