<svg id="Layer_1" data-name="Layer 1" xmlns="http://www.w3.org/2000/svg" viewBox="0 0 213.85 256.92"><defs><style>.cls-1,.cls-10,.cls-11,.cls-2,.cls-9{fill:none;stroke-linecap:round;stroke-miterlimit:10;}.cls-1{stroke:#633413;stroke-width:5px;}.cls-2{stroke:#2489b7;stroke-width:4.31px;}.cls-3{fill:#a2cced;}.cls-4{fill:#00a1cd;}.cls-5{fill:#5652a3;}.cls-6{fill:#504b48;}.cls-7{fill:#0d4060;}.cls-8{fill:#fff;}.cls-9{stroke:#2585aa;}.cls-10{stroke:#0d4060;stroke-width:2px;}.cls-11{stroke:#231f20;stroke-width:1.5px;}</style></defs><path class="cls-1" d="M174.21,226.28l.9-44.46s.13-7.61,6.48-7.83l5.82-.65"/><path class="cls-2" d="M153.33,138.73s15.74-2.8,24.21,22.78"/><path class="cls-3" d="M172,164.85a5.57,5.57,0,0,1,2.63-5.62,5.33,5.33,0,0,1,7.39,1.25l3.65,5.74a.83.83,0,0,0,.07.13l0,.06,4.93,7.75a1.46,1.46,0,0,1-2.46,1.56l-2.68-4.22a6.2,6.2,0,0,1-.78,1l3.22,5.06a1.46,1.46,0,0,1-2.46,1.56l-3.22-5.06a6.37,6.37,0,0,1-1.11.26l2.76,4.35a1.46,1.46,0,0,1-2.46,1.56l-4.6-7.25a3.81,3.81,0,0,1-.54-.65l.41,1.69a1.5,1.5,0,0,1-1.06,1.71h0a1.31,1.31,0,0,1-1.7-.86"/><path class="cls-2" d="M47.64,133s-20.11,0-18.41,34.18"/><path class="cls-3" d="M35,165.82a5.57,5.57,0,0,0-5.5-2.85,5.32,5.32,0,0,0-5.1,5.49l.6,6.78a.78.78,0,0,0,0,.14v.07l.81,9.15a1.46,1.46,0,0,0,2.9-.25l-.44-5a6.18,6.18,0,0,0,1.23.33l.53,6a1.46,1.46,0,0,0,2.9-.26l-.53-6a6.57,6.57,0,0,0,1-.47l.46,5.13a1.46,1.46,0,0,0,2.9-.26L36,175.28a4,4,0,0,0,0-.85l.7,1.59a1.49,1.49,0,0,0,1.89.71h0a1.31,1.31,0,0,0,.82-1.72"/><path class="cls-4" d="M66.83,178.06c-13-9.57-25.42-29.84-27.3-44.9a171.84,171.84,0,0,1-1.14-27.24,300.24,300.24,0,0,1,3.37-34.18c3.7-25,26.09-42.28,50-38.5l39.67,6.28C148.9,42.28,162.8,56,167.1,73c3.56,14,.77,30.3-2.37,44.13-5.54,24.37-20.89,56.23-46.54,65.63-14.11,5.16-16.31,4.56-31,3"/><polyline class="cls-4" points="123.57 174.22 114.89 227.7 109.84 227.7 101.16 174.38"/><polyline class="cls-4" points="90.35 173.97 81.67 227.44 76.62 227.44 67.94 174.13"/><polygon class="cls-5" points="109.77 227.62 104.74 196.24 119.61 196.24 116.58 227.26 109.77 227.62"/><polygon class="cls-5" points="76.52 226.62 71.44 196.24 86.62 196.24 82.44 227.44 76.52 226.62"/><path class="cls-6" d="M86.56,228a12,12,0,0,0-24,0"/><path class="cls-6" d="M130.54,228.2a12,12,0,0,0-24,0"/><path class="cls-7" d="M92.16,106s1.13,5.58,10.71,6.88S114,109.33,114,109.33Z"/><path class="cls-8" d="M135.94,99.83a7.44,7.44,0,0,0-14.7-2.25"/><path class="cls-9" d="M121.07,97.45a8.2,8.2,0,0,0,6.13,10.66"/><path class="cls-10" d="M137.82,88.58s-1.93-6.11-8.61-3.7"/><path class="cls-10" d="M77.84,79.19s3.93-5.47,9.58-1.18"/><path class="cls-7" d="M132,99.22a3.22,3.22,0,0,0-6.36-1"/><path class="cls-8" d="M90.59,91.55a7.44,7.44,0,1,0-14.7-2.25"/><path class="cls-7" d="M86.62,90.94a3.21,3.21,0,1,0-6.35-1"/><circle class="cls-11" cx="131.71" cy="95.43" r="19.35"/><circle class="cls-11" cx="79.36" cy="87.54" r="19.35"/><path class="cls-11" d="M112.94,90.41s-6.39-10.12-14.45-2.09"/><path class="cls-9" d="M90.28,92.06c.29,4.1-4.85,9.48-10.41,7.67"/><path class="cls-9" d="M130.07,67.67a70.78,70.78,0,0,1-37.2-6.58"/></svg>