<svg width="299" height="292" viewBox="0 0 299 292" fill="none" xmlns="http://www.w3.org/2000/svg">
<path d="M0 268.98V0H298.74V268.98" fill="#F9DA78"/>
<path d="M298.74 122.57H0V283.49H298.74V122.57Z" fill="#FFCB05"/>
<path d="M115.2 185.6C105.81 150.15 113.68 111.23 129.16 80.85C169.07 2.51999 256.42 77.21 274.77 146.47C288.31 197.59 252.56 220.33 213.5 230.67C174.44 241.02 128.75 236.72 115.2 185.6Z" fill="#00A1CD"/>
<path d="M56.41 13.45H2.39001V68.63H56.41V13.45Z" fill="#A5DBDF" stroke="#986227" stroke-width="2.0064" stroke-miterlimit="10"/>
<path d="M54.76 45.16H0.27002V67.74H54.76V45.16Z" fill="#2E9E48"/>
<path d="M54.76 14.38H0.27002V46.33H54.76V14.38Z" fill="#A5DBDF"/>
<path d="M24.3 13.45V68.35" stroke="#986227" stroke-width="2.1182" stroke-miterlimit="10"/>
<path d="M56.64 63.86H0.27002V69.75H56.64V63.86Z" fill="#986227"/>
<path d="M56.64 12.45H0.27002V16.54H56.64V12.45Z" fill="#986227"/>
<path d="M16.16 26.14C16.28 25.33 16.17 24.48 15.8 23.68C14.79 21.53 12.23 20.6 10.07 21.61C9.19 22.02 8.52 22.7 8.1 23.5C7.32 22.39 6.04 21.67 4.58 21.67C2.68 21.67 1.07 22.91 0.499998 24.62C0.439998 24.62 0.369998 24.61 0.309998 24.61V33.22C0.349998 33.22 0.399998 33.21 0.439998 33.21C0.499998 33.43 0.579998 33.66 0.679998 33.87C1.69 36.02 4.25 36.95 6.41 35.94C6.81 35.75 7.18 35.51 7.49 35.22C8.56 37.23 11.03 38.08 13.11 37.1C14.32 36.53 15.14 35.48 15.45 34.28C16.54 34.75 17.82 34.77 18.98 34.23C21.13 33.22 22.06 30.66 21.05 28.5C20.17 26.62 18.1 25.67 16.16 26.14Z" fill="white"/>
<path d="M57.44 26.5C56.29 24.73 53.98 24.04 52.01 24.96C51.13 25.37 50.46 26.05 50.03 26.85C49.25 25.74 47.97 25.02 46.51 25.02C44.61 25.02 43 26.26 42.43 27.97C42.36 27.97 42.28 27.96 42.21 27.96C39.83 27.96 37.9 29.89 37.9 32.27C37.9 34.65 39.83 36.58 42.21 36.58C42.27 36.58 42.32 36.57 42.38 36.57C42.44 36.79 42.52 37.02 42.62 37.23C43.63 39.38 46.19 40.31 48.35 39.3C48.75 39.11 49.12 38.87 49.43 38.58C50.5 40.59 52.97 41.44 55.05 40.46C56.26 39.89 57.08 38.84 57.39 37.64C57.41 37.65 57.42 37.65 57.44 37.66V26.5Z" fill="white"/>
<path d="M69.73 79.53C69.73 80.02 64.58 80.02 64.14 79.94C62.81 79.7 61.51 79.27 60.18 79.09C58.24 78.82 56.34 79.2 54.44 79.53V11.78H69.73C69.73 11.78 69.73 79.39 69.73 79.53Z" fill="#ED1651"/>
<path d="M195.95 76.47C195.95 76.47 190.29 69.25 182.56 75.83" stroke="#0D4060" stroke-width="2.2763" stroke-miterlimit="10" stroke-linecap="round"/>
<path d="M142.96 87.56C142.96 87.56 145.25 78.68 154.97 81.6" stroke="#0D4060" stroke-width="2.2763" stroke-miterlimit="10" stroke-linecap="round"/>
<path d="M166.95 103.04C165.8 97.54 160.11 94.07 154.24 95.3C148.37 96.53 144.55 101.99 145.7 107.49" fill="white"/>
<path d="M159.18 104.67C158.65 102.12 156.14 100.48 153.59 101.02C151.04 101.55 149.4 104.06 149.94 106.61" fill="#0D4060"/>
<path d="M177.18 100.9C176.03 95.4 179.88 89.94 185.78 88.7C191.68 87.46 197.4 90.92 198.55 96.42" fill="white"/>
<path d="M189.06 98.41C188.53 95.86 186.02 94.22 183.47 94.76C180.92 95.29 179.28 97.8 179.82 100.35" fill="#0D4060"/>
<path d="M160 112.13C160 112.13 164.94 123.45 176.95 120.55C188.97 117.65 187.6 106.35 187.6 106.35L160 112.13Z" fill="#0D4060"/>
<path d="M196.47 91.71L201.71 88.24L197.48 93.29C197.59 93.5 197.69 93.71 197.78 93.91L202.61 92.25L198.29 95.24C198.48 95.86 198.56 96.27 198.56 96.27C194.15 88.42 188.61 88.41 187.06 88.58C191.94 87.7 194.82 89.58 196.47 91.71Z" fill="#0D4060"/>
<path d="M140.3 105.3L145.39 104.88C145.39 104.66 145.39 104.43 145.41 104.19L139.51 101.26L145.7 102.34C146.35 99.73 148.24 96.86 153.07 95.7C151.58 96.17 146.51 98.39 145.62 107.36C145.62 107.36 145.52 106.95 145.45 106.31L140.3 105.3Z" fill="#0D4060"/>
<path d="M168.45 240.43C168.45 240.43 158.65 236.29 155.1 230.64C151.55 224.99 146.42 211.96 146.42 211.96" stroke="#0F8AB2" stroke-width="4.1446" stroke-miterlimit="10"/>
<g filter="url(#filter0_f)">
<path d="M219.8 275.6C252.274 275.6 278.6 249.274 278.6 216.8C278.6 184.326 252.274 158 219.8 158C187.326 158 161 184.326 161 216.8C161 249.274 187.326 275.6 219.8 275.6Z" fill="#0D4060"/>
</g>
<path d="M220.18 275.81C252.654 275.81 278.98 249.484 278.98 217.01C278.98 184.536 252.654 158.21 220.18 158.21C187.706 158.21 161.38 184.536 161.38 217.01C161.38 249.484 187.706 275.81 220.18 275.81Z" fill="#00A1CD"/>
<g filter="url(#filter1_f)">
<path d="M132.895 236.41L143.115 159.82C146.155 137.02 130.135 116.07 107.335 113.03L94.8749 111.37C72.0749 108.33 51.1249 124.35 48.0849 147.15L37.8649 223.74C35.8849 238.59 36.6849 255.66 46.9149 267.02H122.455C128.635 258.36 131.475 247.01 132.895 236.41Z" fill="#0D4060"/>
</g>
<path d="M131.99 236.72L142.21 160.13C145.25 137.33 129.23 116.38 106.43 113.34L93.97 111.68C71.17 108.64 50.22 124.66 47.18 147.46L36.96 224.05C34.98 238.9 35.78 255.97 46.01 267.33H121.55C127.73 258.67 130.57 247.32 131.99 236.72Z" fill="#00A1CD"/>
<path d="M93.11 176.83C93.11 176.83 94.28 182.43 103.54 183.5C112.8 184.57 114.2 179.65 114.2 179.65L93.11 176.83Z" fill="#0D4060"/>
<path d="M138.59 157.06C138.59 157.06 136.27 150.2 128.78 153.06" stroke="#0D4060" stroke-width="1.6959" stroke-miterlimit="10" stroke-linecap="round"/>
<path d="M77.73 148.94C77.73 148.94 80.93 142.69 87.4 147.41" stroke="#0D4060" stroke-width="1.6959" stroke-miterlimit="10" stroke-linecap="round"/>
<path d="M112.83 161.98C111.44 172.39 118.75 181.95 129.16 183.34C139.57 184.73 149.13 177.42 150.52 167.01C151.91 156.6 144.6 147.04 134.19 145.65C123.78 144.26 114.21 151.58 112.83 161.98Z" stroke="black" stroke-width="1.343" stroke-miterlimit="10" stroke-linecap="round"/>
<path d="M62.29 155.24C60.9 165.65 68.21 175.21 78.62 176.6C89.03 177.99 98.59 170.68 99.98 160.27C101.37 149.86 94.06 140.3 83.65 138.91C73.24 137.52 63.68 144.83 62.29 155.24Z" stroke="black" stroke-width="1.343" stroke-miterlimit="10" stroke-linecap="round"/>
<path d="M113.16 159.74C113.16 159.74 108.15 150.41 100.89 158.1" stroke="black" stroke-width="1.343" stroke-miterlimit="10" stroke-linecap="round"/>
<path d="M96.01 164.81C96.86 159.13 92.63 153.79 86.58 152.89C80.52 151.99 74.92 155.86 74.07 161.54" fill="white"/>
<path d="M138.48 171C139.33 165.32 135.08 159.98 128.98 159.07C122.89 158.16 117.26 162.03 116.41 167.71" fill="white"/>
<path d="M138.13 165.61L144.38 164.15L138.54 167.49C138.57 167.74 138.59 167.97 138.6 168.19L143.81 168.32L138.61 169.65C138.58 170.31 138.5 170.73 138.5 170.73C137.06 161.64 131.75 159.67 130.21 159.28C135.22 160.17 137.31 162.99 138.13 165.61Z" fill="#0D4060"/>
<path d="M69.74 157.41L74.76 158.81C74.84 158.6 74.92 158.38 75.02 158.16L70.41 153.26L75.96 156.49C77.51 154.22 80.34 152.13 85.38 152.74C83.79 152.66 78.14 152.99 74.1 161.27C74.1 161.27 74.15 160.85 74.31 160.21L69.74 157.41Z" fill="#0D4060"/>
<path d="M298.74 254.8H0V291.49H298.74V254.8Z" fill="#FBAD18"/>
<path d="M137.36 209.42C137.03 208.85 137.28 208.08 137.91 207.71C138.55 207.34 139.34 207.51 139.67 208.08L141.98 212.05C142.19 211.73 142.45 211.43 142.73 211.15L139.96 206.39C139.63 205.82 139.88 205.05 140.51 204.68C141.14 204.31 141.94 204.48 142.27 205.05L145.04 209.81C145.38 209.71 145.73 209.64 146.07 209.61L143.69 205.52C143.36 204.95 143.61 204.18 144.24 203.81C144.88 203.44 145.67 203.61 146 204.18L149.96 211C150.14 211.19 150.29 211.39 150.43 211.62L150.11 210.06C149.98 209.4 150.44 208.72 151.15 208.53C151.85 208.34 152.54 208.73 152.67 209.38L154.36 217.73C154.43 218.05 154.34 218.38 154.16 218.65C154.44 220.54 153.45 222.6 151.54 223.71C149.11 225.12 146.08 224.49 144.81 222.3L141.67 216.9C141.65 216.86 141.63 216.82 141.61 216.78C141.6 216.76 141.58 216.75 141.57 216.73L137.36 209.42Z" fill="#A2CCED"/>
<path d="M183.62 181.27C183.62 181.27 187.72 173.79 195.82 178.65" stroke="#0D4060" stroke-width="1.6959" stroke-miterlimit="10" stroke-linecap="round"/>
<path d="M231.32 183.41C231.32 183.41 228.9 175.5 220.42 179.65" stroke="#0D4060" stroke-width="1.6959" stroke-miterlimit="10" stroke-linecap="round"/>
<path d="M217.67 205.3C217.67 205.3 215.45 210.53 205.67 209.95C195.89 209.36 195.33 204.34 195.33 204.34L217.67 205.3Z" fill="#0D4060"/>
<g opacity="0.7">
<g opacity="0.7">
<path opacity="0.7" d="M187.89 201.26C187.84 202.52 185.43 203.44 182.51 203.32C179.59 203.19 177.28 202.07 177.33 200.81C177.38 199.55 179.79 198.63 182.71 198.76C185.63 198.88 187.95 200 187.89 201.26Z" fill="#E9BDBB"/>
</g>
</g>
<g opacity="0.7">
<g opacity="0.7">
<path opacity="0.7" d="M238.13 202.93C238.08 204.19 235.67 205.11 232.75 204.99C229.84 204.86 227.52 203.74 227.57 202.48C227.62 201.22 230.03 200.3 232.95 200.43C235.87 200.54 238.19 201.67 238.13 202.93Z" fill="#E9BDBB"/>
</g>
</g>
<path d="M212.08 196.22C212.31 191 217.01 186.96 222.58 187.2C228.15 187.44 232.49 191.87 232.26 197.09" fill="white"/>
<path d="M174.31 194.4C174.45 194.37 174.56 194.33 174.7 194.3C174.71 194.3 174.56 194.33 174.31 194.4Z" fill="#0D4060"/>
<path d="M236.85 194.15L232.12 194.54C232.08 194.34 232.05 194.13 232 193.91L236.97 190.33L231.45 192.25C230.46 189.95 228.29 187.6 223.68 187.27C225.11 187.47 230.11 188.75 232.28 196.84C232.28 196.84 232.31 196.45 232.27 195.85L236.85 194.15Z" fill="#0D4060"/>
<path d="M212.01 244.51C212.01 244.51 225.7 247.45 232.37 247.62C239.04 247.8 254.86 231.79 254.86 231.79C254.86 231.79 256.93 229.56 254.86 231.79" stroke="#0F8AB2" stroke-width="4.1446" stroke-miterlimit="10"/>
<path d="M195.25 248.5C194.59 248.45 194.09 247.81 194.15 247.08C194.21 246.35 194.79 245.79 195.45 245.84L200.03 246.18C199.89 245.82 199.78 245.44 199.72 245.05L194.23 244.64C193.57 244.59 193.07 243.95 193.13 243.22C193.19 242.49 193.77 241.93 194.43 241.98L199.92 242.39C200.03 242.05 200.17 241.73 200.34 241.43L194.47 240.38C193.81 240.33 194.47 240.38 194.53 239.65C194.59 238.92 195.17 238.36 195.83 238.41L203.69 239C203.94 238.96 204.2 238.95 204.46 238.96L202.99 238.34C202.37 238.08 202.07 237.3 202.32 236.62C202.57 235.93 203.27 235.59 203.88 235.85L211.72 239.18C212.02 239.31 212.25 239.56 212.37 239.86C214.09 240.7 215.22 242.68 215.06 244.88C214.85 247.68 212.61 249.82 210.09 249.63L203.86 249.16C203.82 249.16 203.77 249.15 203.73 249.14C203.71 249.14 203.69 249.14 203.66 249.14L195.25 248.5Z" fill="#A2CCED"/>
<path d="M80.48 259.11C80.48 259.11 63.93 248.15 58.66 243.05C53.39 237.95 53.79 213.24 53.79 213.24C53.79 213.24 53.95 209.9 53.79 213.24" stroke="#0F8AB2" stroke-width="4.5523" stroke-miterlimit="10"/>
<path d="M89.96 275.72C90.5 276.21 91.38 276.12 91.93 275.52C92.47 274.92 92.47 274.03 91.93 273.54L88.19 270.16C88.58 270 88.96 269.8 89.32 269.55L93.81 273.61C94.35 274.1 95.23 274.01 95.78 273.41C96.33 272.81 96.32 271.92 95.78 271.43L91.29 267.37C91.48 267.02 91.63 266.67 91.74 266.3L95.6 269.79C96.14 270.28 97.02 270.19 97.57 269.59C98.11 268.99 98.11 268.1 97.57 267.61L91.14 261.8C90.98 261.57 90.79 261.36 90.59 261.15L92.2 261.85C92.87 262.14 93.72 261.8 94.08 261.08C94.44 260.37 94.18 259.54 93.51 259.25L84.92 255.53C84.59 255.39 84.22 255.4 83.88 255.53C81.91 254.8 79.48 255.39 77.85 257.19C75.78 259.48 75.77 262.88 77.84 264.74L82.93 269.34C82.97 269.37 83.01 269.4 83.04 269.43C83.06 269.45 83.07 269.47 83.09 269.48L89.96 275.72Z" fill="#A2CCED"/>
<path d="M212.8 193.17C214.19 194.01 215.96 194.15 217.5 193.33C219.64 192.2 220.55 189.68 219.73 187.47C216.57 188.2 213.98 190.34 212.8 193.17Z" fill="#0D4060"/>
<path d="M180.73 194.75C180.96 189.53 185.66 185.49 191.23 185.73C196.8 185.97 201.14 190.4 200.91 195.62" fill="white"/>
<path d="M175.42 192.68L180.15 193.07C180.19 192.87 180.22 192.66 180.27 192.44L175.3 188.86L180.82 190.78C181.81 188.48 183.98 186.13 188.59 185.8C187.16 186 182.16 187.28 179.99 195.37C179.99 195.37 179.96 194.98 180 194.38L175.42 192.68Z" fill="#0D4060"/>
<path d="M181.44 191.7C182.83 192.54 184.6 192.68 186.14 191.86C188.28 190.73 189.19 188.21 188.37 186C185.21 186.73 182.63 188.87 181.44 191.7Z" fill="#0D4060"/>
<path d="M95.37 159.15C93.98 159.99 92.21 160.13 90.67 159.31C88.53 158.18 87.62 155.66 88.44 153.45C91.61 154.19 94.19 156.32 95.37 159.15Z" fill="#0D4060"/>
<path d="M137.73 165.69C136.34 166.53 134.57 166.67 133.03 165.85C130.89 164.72 129.98 162.2 130.8 159.99C133.97 160.72 136.55 162.86 137.73 165.69Z" fill="#0D4060"/>
<path d="M263.62 142.31C263.62 142.31 294.69 193.75 265.88 205.95" stroke="#0F8AB2" stroke-width="5.2345" stroke-miterlimit="10" stroke-linecap="round"/>
<path d="M251.5 225.29C250.78 225.83 249.71 225.62 249.11 224.82C248.51 224.02 248.61 222.93 249.33 222.4L254.3 218.67C253.84 218.44 253.39 218.14 252.98 217.8L247.02 222.28C246.3 222.82 245.23 222.61 244.63 221.81C244.03 221.01 244.13 219.92 244.85 219.39L250.81 214.91C250.62 214.47 250.48 214.01 250.38 213.55L245.26 217.4C244.54 217.94 243.47 217.73 242.87 216.93C242.27 216.13 242.37 215.04 243.09 214.51L251.62 208.1C251.84 207.83 252.1 207.59 252.37 207.37L250.32 208.04C249.46 208.32 248.46 207.8 248.1 206.89C247.74 205.97 248.14 204.99 249 204.71L259.95 201.1C260.37 200.96 260.83 201.02 261.22 201.22C263.72 200.54 266.64 201.54 268.43 203.93C270.71 206.97 270.34 211.14 267.6 213.2L260.84 218.28C260.79 218.32 260.74 218.34 260.69 218.38C260.67 218.4 260.65 218.42 260.62 218.44L251.5 225.29Z" fill="#A2CCED"/>
<path d="M60.1 141.61C60.89 141.01 61.1 139.93 60.56 139.22L54.12 130.71C53.98 130.39 53.8 130.09 53.6 129.8L55.38 131.01C56.13 131.52 57.23 131.29 57.83 130.51C58.43 129.73 58.31 128.67 57.56 128.16L56.35 127.4C54.17 126.05 51.35 126.33 49.5 128.1C45.82 131.62 42.68 136.07 45.22 141.62L49.49 147.26C50.03 147.97 51.12 148.07 51.91 147.47C52.7 146.87 52.91 145.79 52.37 145.08L48.62 140.12C49.13 140.02 49.64 139.86 50.13 139.65L54.63 145.59C55.17 146.3 56.26 146.4 57.05 145.8C57.84 145.2 58.05 144.12 57.51 143.41L53.01 137.47C53.31 137.09 53.58 136.7 53.8 136.28L57.66 141.39C58.22 142.11 59.31 142.21 60.1 141.61Z" fill="#A2CCED"/>
<path d="M148.54 259.41L136.98 280.15C136.98 280.15 146.56 278.78 153.33 279.04C157.47 279.2 160.71 280.77 162.73 281.5C164.52 282.14 165.47 282.41 167.32 282.04C169.98 281.51 174.92 279.98 178.98 279.98C185.91 279.98 195.2 282.72 195.2 282.72L207.16 261.49C207.16 261.49 189.3 254.98 173.88 262.49C173.87 262.49 164.76 251.6 148.54 259.41Z" fill="#ED1651"/>
<path d="M151.44 257.2L140.64 277.35C140.64 277.35 143.79 275.21 153.76 276.07C157.8 276.42 162.66 278.43 164.03 279.43C164.95 280.1 166.66 280.33 167.72 279.97C170.22 279.14 174.85 277.24 179.58 277.24C186.51 277.24 193.8 279.97 193.8 279.97L205.37 259.83C205.37 259.83 187.75 251.79 176.05 261.12C176.05 261.12 164.86 250.87 151.44 257.2Z" fill="#F6E9B4"/>
<path d="M168.09 277.67L175.99 263.12" stroke="#F4C77F" stroke-width="1.2627" stroke-miterlimit="10"/>
<path d="M192.19 275.19C192.19 275.19 183.23 271.35 174.46 273.48" stroke="#F4C77F" stroke-width="1.2627" stroke-miterlimit="10"/>
<path d="M196.77 264.81C196.77 264.81 189.06 259.72 179.04 263.63" stroke="#F4C77F" stroke-width="1.2627" stroke-miterlimit="10"/>
<path d="M164.86 274.02C164.86 274.02 155.9 270.18 147.13 272.31" stroke="#F4C77F" stroke-width="1.2627" stroke-miterlimit="10"/>
<path d="M167.31 268.1C167.31 268.1 158.45 262.64 149.58 266.39" stroke="#F4C77F" stroke-width="1.2627" stroke-miterlimit="10"/>
<path d="M170.17 263.12C170.17 263.12 162.95 257.2 152.44 261.41" stroke="#F4C77F" stroke-width="1.2627" stroke-miterlimit="10"/>
<path d="M193.52 269.48C193.52 269.48 186.47 266.15 177.88 268.58" stroke="#F4C77F" stroke-width="1.2627" stroke-miterlimit="10"/>
<defs>
<filter id="filter0_f" x="151" y="148" width="137.6" height="137.6" filterUnits="userSpaceOnUse" color-interpolation-filters="sRGB">
<feFlood flood-opacity="0" result="BackgroundImageFix"/>
<feBlend mode="normal" in="SourceGraphic" in2="BackgroundImageFix" result="shape"/>
<feGaussianBlur stdDeviation="5" result="effect1_foregroundBlur"/>
</filter>
<filter id="filter1_f" x="33" y="107" width="114.485" height="164.02" filterUnits="userSpaceOnUse" color-interpolation-filters="sRGB">
<feFlood flood-opacity="0" result="BackgroundImageFix"/>
<feBlend mode="normal" in="SourceGraphic" in2="BackgroundImageFix" result="shape"/>
<feGaussianBlur stdDeviation="2" result="effect1_foregroundBlur"/>
</filter>
</defs>
</svg>
