<svg width="300" height="292" viewBox="0 0 300 292" fill="none" xmlns="http://www.w3.org/2000/svg">
<g clip-path="url(#clip0)">
<path d="M0.0500031 269.26V0H299.32V269.26" fill="#F9DA78"/>
<path d="M196.79 79.88C196.79 65.18 203.83 50.91 212.95 40.72C236.46 14.46 262.63 52.37 262.63 81.09C262.63 102.29 246.44 107.43 230.25 107.43C214.06 107.43 196.79 101.08 196.79 79.88Z" fill="#00A1CD"/>
<path d="M299.32 120.57H0.0500031V281.76H299.32V120.57Z" fill="#FFCB05"/>
<path d="M241.02 47.53C241.02 47.53 239.36 44.17 235.72 46.15" stroke="#0D4060" stroke-width="0.9299" stroke-miterlimit="10" stroke-linecap="round"/>
<path d="M218.91 47.53C218.91 47.53 220.57 44.17 224.21 46.15" stroke="#0D4060" stroke-width="0.9299" stroke-miterlimit="10" stroke-linecap="round"/>
<path d="M227.21 55.73C227.21 53.43 225.22 51.57 222.78 51.57C220.33 51.57 218.35 53.43 218.35 55.73" fill="white"/>
<path d="M224.68 55.73C224.68 54.66 223.82 53.8 222.75 53.8C221.68 53.8 220.82 54.66 220.82 55.73" fill="#0D4060"/>
<path d="M231.48 55.73C231.48 53.43 233.48 51.57 235.94 51.57C238.4 51.57 240.4 53.43 240.4 55.73" fill="white"/>
<path d="M237.86 55.73C237.86 54.66 237 53.8 235.93 53.8C234.86 53.8 234 54.66 234 55.73" fill="#0D4060"/>
<path d="M223.51 59.52C223.51 59.52 224.54 62.27 229.58 62.19C234.63 62.11 235.03 59.52 235.03 59.52H223.51Z" fill="#0D4060"/>
<path d="M239.95 53.67L242.33 52.72L240.22 54.39C240.25 54.48 240.27 54.58 240.29 54.66L242.36 54.4L240.38 55.23C240.41 55.49 240.4 55.66 240.4 55.66C239.29 52.15 237.08 51.68 236.44 51.62C238.48 51.69 239.47 52.68 239.95 53.67Z" fill="#0D4060"/>
<path d="M216.36 54.4L218.43 54.66C218.45 54.57 218.47 54.48 218.5 54.39L216.39 52.72L218.78 53.67C219.26 52.68 220.25 51.69 222.28 51.63C221.65 51.69 219.43 52.16 218.33 55.67C218.33 55.67 218.33 55.5 218.35 55.24L216.36 54.4Z" fill="#0D4060"/>
<path d="M232.94 105.33L235.36 125.24H238.88L241.3 105.32" fill="#00A1CD"/>
<path d="M219.61 106.51L222.03 126.49H224.93L227.35 106.57" fill="#00A1CD"/>
<path d="M238.7 128.34H235.86L234.36 115.51H240.21L238.7 128.34Z" fill="#5652A3"/>
<path d="M224.87 129.09H222.03L220.77 116.26H226.36L224.87 129.09Z" fill="#5652A3"/>
<path d="M228.7 129.75C228.7 126.66 226.2 124.16 223.11 124.16C220.02 124.16 217.52 126.66 217.52 129.75" fill="#504B48"/>
<path d="M243.01 129.75C243.01 126.66 240.51 124.16 237.42 124.16C234.33 124.16 231.83 126.66 231.83 129.75" fill="#504B48"/>
<path d="M179.88 103.49H173.77V135.25H179.88V103.49Z" fill="#FBAD18"/>
<path d="M283.91 103.46H278.14V135.22H283.91V103.46Z" fill="#FBAD18"/>
<path d="M288.44 100.15H169.56V110.17H288.44V100.15Z" fill="#FBAD18"/>
<path d="M244.64 100.15H208.71C207.81 100.15 207.08 99.42 207.08 98.52C207.08 97.62 207.81 96.89 208.71 96.89H244.64C245.54 96.89 246.27 97.62 246.27 98.52C246.28 99.42 245.54 100.15 244.64 100.15Z" fill="#727272"/>
<path d="M238.54 97.15H221.4C221.02 97.15 220.71 96.84 220.71 96.46C220.71 96.08 221.02 95.77 221.4 95.77H238.54C238.92 95.77 239.23 96.08 239.23 96.46C239.23 96.84 238.92 97.15 238.54 97.15Z" fill="#515151"/>
<path d="M213.88 96.52H210.36C210.18 96.52 210.03 96.37 210.03 96.19V95.47C210.03 95.29 210.18 95.14 210.36 95.14H213.88C214.06 95.14 214.21 95.29 214.21 95.47V96.19C214.2 96.38 214.06 96.52 213.88 96.52Z" fill="#515151"/>
<path d="M217.03 87.21C215.94 87.21 214.98 87.18 214.02 87.22C213.18 87.25 212.73 86.98 212.72 86.28C212.71 85.6 213.12 85.28 213.98 85.31C214.96 85.34 215.95 85.32 216.98 85.32C216.98 84.65 216.98 84.06 216.98 83.43C215.19 83.63 215.49 82.28 214.67 81.56C224.76 81.56 234.64 81.56 244.51 81.56C244.23 82.83 243.67 83.36 242.46 83.48C242.44 83.57 242.41 83.67 242.41 83.78C242.4 84.25 242.41 84.73 242.41 85.32C243.45 85.32 244.46 85.34 245.47 85.31C246.34 85.28 246.72 85.63 246.7 86.3C246.69 86.94 246.29 87.25 245.48 87.22C244.49 87.19 243.51 87.21 242.4 87.21C242.4 88.65 242.4 90.04 242.4 91.42C242.4 91.92 242.41 92.42 242.4 92.92C242.34 94.52 240.91 95.73 238.97 95.74C232.79 95.76 226.61 95.76 220.43 95.74C218.5 95.73 217.06 94.5 217.03 92.9C217 91.05 217.03 89.18 217.03 87.21Z" fill="#8C8C8C"/>
<path d="M242.45 85.32H245.77C246.4 85.32 246.92 85.74 246.92 86.26C246.92 86.78 246.4 87.2 245.77 87.2H242.45" fill="#606060"/>
<path d="M217.06 87.21H213.74C213.11 87.21 212.59 86.79 212.59 86.27C212.59 85.75 213.11 85.33 213.74 85.33H217.06" fill="#606060"/>
<path d="M241.25 76.38C239.83 78.63 238.4 80.88 237.01 83.16C236.81 83.49 236.64 84.07 236.79 84.34C237.65 85.84 237.27 87.11 236.23 88.31C235.43 89.24 234.5 89.95 233.24 90.1C232.63 90.18 232.15 89.97 231.86 89.4C231.03 87.8 232.01 84.62 233.62 83.82C234.01 83.63 234.49 83.45 234.89 83.51C235.79 83.66 236.18 83.19 236.57 82.51C239.19 78.09 241.83 73.69 244.47 69.29C244.54 69.17 244.61 69.05 244.68 68.93C244.94 68.49 245.12 68.02 245.67 68.36C246.19 68.69 245.92 69.06 245.61 69.49C245.34 69.87 245.07 70.27 244.82 70.66" fill="#8C8C8C"/>
<path d="M192.85 100.04C191.12 100.04 189.7 98.62 189.7 96.89C189.7 95.16 191.12 94.99 192.85 94.99C194.58 94.99 196 95.16 196 96.89C196 98.62 194.59 100.04 192.85 100.04Z" fill="#CF2153"/>
<path d="M186.02 100.14C184.29 100.14 182.87 98.72 182.87 96.99C182.87 95.26 184.29 95.09 186.02 95.09C187.75 95.09 189.17 95.26 189.17 96.99C189.18 98.72 187.76 100.14 186.02 100.14Z" fill="#CF2153"/>
<path d="M192.85 95.77C192.85 95.77 191.83 93.96 192.85 93.31C192.85 93.31 193.61 95.15 192.85 95.77Z" fill="#149A48"/>
<path d="M178.99 100.26C177.26 100.26 175.84 98.84 175.84 97.11C175.84 95.38 177.26 95.21 178.99 95.21C180.72 95.21 182.14 95.38 182.14 97.11C182.15 98.84 180.73 100.26 178.99 100.26Z" fill="#CF2153"/>
<path d="M178.99 95.98C178.99 95.98 177.97 94.17 178.99 93.52C178.99 93.52 179.75 95.36 178.99 95.98Z" fill="#149A48"/>
<path d="M186.04 95.36C186.04 95.36 184.04 94.82 184.28 93.63C184.28 93.63 186.12 94.38 186.04 95.36Z" fill="#149A48"/>
<path d="M265.4 92.16C265.4 92.16 264.9 90.19 267.3 90.19C269.7 90.19 268.24 91.49 270.36 91.54C271.94 91.57 271.21 90.46 273.08 90.19C274.95 89.93 274.82 91.45 276 91.48C277.24 91.51 276.56 90.11 278.1 90.15C279.64 90.19 280.22 90.76 280.52 92.19C280.84 93.6 265.4 92.16 265.4 92.16Z" fill="#179146"/>
<path d="M264.19 91.86C264.19 91.86 263.93 100.15 270.23 100.15C276.53 100.15 276.53 100.15 276.53 100.15C276.53 100.15 282 100.95 281.98 91.86H264.19Z" fill="#B6B6B6"/>
<path d="M203.27 74.05C203.27 74.05 203.42 86.27 217.06 75.02" stroke="#0F8AB2" stroke-width="1.8714" stroke-miterlimit="10" stroke-linecap="round"/>
<path d="M219.6 68.15C218.44 68.61 217.87 69.93 218.33 71.09L220.57 76.72C221.03 77.88 222 77.25 223.15 76.79C224.31 76.33 225.24 76.2 224.78 75.04L222.54 69.41C222.08 68.26 220.76 67.69 219.6 68.15Z" fill="#828282"/>
<path d="M225.6 73.89C225.89 73.76 226.01 73.39 225.87 73.06C225.73 72.74 225.37 72.58 225.08 72.71L223.05 73.61C223.06 73.42 223.04 73.23 223.01 73.05L225.44 71.97C225.73 71.84 225.85 71.47 225.71 71.14C225.57 70.82 225.21 70.66 224.92 70.79L222.49 71.87C222.38 71.73 222.27 71.61 222.14 71.5L224.23 70.57C224.52 70.44 224.64 70.07 224.5 69.74C224.36 69.42 224 69.26 223.71 69.39L220.22 70.94C220.1 70.96 219.98 71 219.86 71.05L220.43 70.53C220.67 70.31 220.68 69.91 220.46 69.64C220.24 69.37 219.86 69.32 219.62 69.54L216.59 72.33C216.47 72.44 216.41 72.59 216.4 72.75C215.75 73.41 215.56 74.5 215.99 75.47C216.54 76.71 217.91 77.32 219.03 76.83L221.79 75.6C221.81 75.59 221.83 75.58 221.85 75.57C221.86 75.57 221.87 75.56 221.88 75.56L225.6 73.89Z" fill="#A2CCED"/>
<path d="M224.54 76.56L222.12 77.44C221.56 77.64 221.27 78.26 221.47 78.82L221.6 79.17C221.8 79.73 222.42 80.02 222.98 79.82L225.4 78.94C225.96 78.74 226.25 78.12 226.05 77.56L225.92 77.21C225.72 76.65 225.1 76.36 224.54 76.56Z" fill="#727272"/>
<path d="M256.32 72.79C256.32 72.79 255.49 87.22 244.6 75.95" stroke="#0F8AB2" stroke-width="1.8714" stroke-miterlimit="10" stroke-linecap="round"/>
<path d="M247.46 75.53C247.96 76.31 247.93 77.41 247.31 78.28C246.52 79.39 245.06 79.71 244.06 78.99L241.6 77.23C241.58 77.22 241.57 77.2 241.55 77.19C241.54 77.18 241.53 77.18 241.52 77.17L238.2 74.79C237.94 74.6 237.9 74.21 238.1 73.93C238.31 73.64 238.69 73.56 238.95 73.74L240.76 75.03C240.79 74.85 240.84 74.66 240.91 74.49L238.74 72.94C238.48 72.75 238.44 72.36 238.64 72.08C238.85 71.79 239.23 71.71 239.49 71.89L241.66 73.44C241.79 73.33 241.93 73.23 242.08 73.15L240.22 71.82C239.96 71.63 239.92 71.24 240.12 70.96C240.33 70.67 240.71 70.59 240.97 70.77L244.07 72.99C244.18 73.04 244.29 73.1 244.4 73.17L243.95 72.54C243.76 72.28 243.83 71.88 244.11 71.66C244.38 71.44 244.76 71.47 244.95 71.73" fill="#A2CCED"/>
<path d="M56.14 12.99H2.12V68.17H56.14V12.99Z" fill="#A5DBDF" stroke="#986227" stroke-width="2.0064" stroke-miterlimit="10"/>
<path d="M54.49 44.7H0V67.28H54.49V44.7Z" fill="#2E9E48"/>
<path d="M54.49 13.93H0V45.88H54.49V13.93Z" fill="#A5DBDF"/>
<path d="M24.03 12.99V67.9" stroke="#986227" stroke-width="2.1182" stroke-miterlimit="10"/>
<path d="M56.37 63.41H0V69.3H56.37V63.41Z" fill="#986227"/>
<path d="M56.37 12H0V16.09H56.37V12Z" fill="#986227"/>
<path d="M15.89 25.68C16.01 24.87 15.9 24.02 15.53 23.22C14.52 21.07 11.96 20.14 9.8 21.15C8.92 21.56 8.25 22.24 7.82 23.04C7.04 21.93 5.76 21.21 4.3 21.21C2.4 21.21 0.789999 22.45 0.219999 24.16C0.159999 24.16 0.0899988 24.15 0.0299988 24.15V32.76C0.0699988 32.76 0.119999 32.75 0.159999 32.75C0.219999 32.97 0.299999 33.2 0.399999 33.41C1.41 35.56 3.97 36.49 6.13 35.48C6.53 35.29 6.9 35.05 7.21 34.76C8.28 36.77 10.75 37.62 12.83 36.64C14.04 36.07 14.86 35.02 15.17 33.82C16.26 34.29 17.54 34.31 18.7 33.77C20.85 32.76 21.78 30.2 20.77 28.04C19.9 26.16 17.83 25.22 15.89 25.68Z" fill="white"/>
<path d="M57.17 26.04C56.02 24.27 53.71 23.58 51.74 24.5C50.86 24.91 50.19 25.59 49.76 26.39C48.98 25.28 47.7 24.56 46.24 24.56C44.34 24.56 42.73 25.8 42.16 27.51C42.09 27.51 42.01 27.5 41.94 27.5C39.56 27.5 37.63 29.43 37.63 31.81C37.63 34.19 39.56 36.12 41.94 36.12C42 36.12 42.05 36.11 42.11 36.11C42.17 36.33 42.25 36.56 42.35 36.77C43.36 38.92 45.92 39.85 48.08 38.84C48.48 38.65 48.85 38.41 49.16 38.12C50.23 40.13 52.7 40.98 54.78 40C55.99 39.43 56.81 38.38 57.12 37.18C57.14 37.19 57.15 37.19 57.17 37.2V26.04Z" fill="white"/>
<path d="M69.46 79.08C69.46 79.57 64.31 79.57 63.87 79.49C62.54 79.25 61.24 78.82 59.91 78.64C57.97 78.37 56.07 78.75 54.17 79.08V11.33H69.46C69.46 11.33 69.46 78.94 69.46 79.08Z" fill="#ED1651"/>
<path d="M167.2 228.1C167.2 228.1 150.14 230.05 141.97 229.46C133.8 228.88 116.41 207.44 116.41 207.44C116.41 207.44 114.15 204.47 116.41 207.44" stroke="#0F8AB2" stroke-width="5.0843" stroke-miterlimit="10"/>
<path d="M162.66 230.9C162.66 230.9 152.66 237.31 149.82 244.21C146.99 251.11 143.8 266.41 143.8 266.41" stroke="#0F8AB2" stroke-width="4.6289" stroke-miterlimit="10"/>
<path d="M215.09 275.86C251.359 275.86 280.76 246.459 280.76 210.19C280.76 173.921 251.359 144.52 215.09 144.52C178.821 144.52 149.42 173.921 149.42 210.19C149.42 246.459 178.821 275.86 215.09 275.86Z" fill="#00A1CD"/>
<path d="M130.29 235.98L141.7 150.44C145.1 124.97 127.21 101.58 101.74 98.18L87.82 96.32C62.35 92.92 38.95 110.81 35.56 136.28L24.15 221.82C21.94 238.4 22.83 257.47 34.26 270.16H118.63C125.52 260.5 128.71 247.82 130.29 235.98Z" fill="#00A1CD"/>
<path d="M299.32 255.07H0.0500031V291.76H299.32V255.07Z" fill="#FBAD18"/>
<path d="M134.53 271.9C134.27 272.59 134.69 273.39 135.46 273.68C136.23 273.97 137.07 273.63 137.33 272.94L139.12 268.13C139.41 268.44 139.75 268.72 140.12 268.97L137.98 274.73C137.72 275.42 138.14 276.22 138.91 276.51C139.68 276.8 140.52 276.46 140.78 275.77L142.92 270.01C143.32 270.06 143.71 270.06 144.1 270.03L142.26 274.98C142 275.67 142.42 276.47 143.19 276.76C143.96 277.05 144.8 276.71 145.06 276.02L148.13 267.76C148.29 267.52 148.42 267.26 148.53 266.99L148.48 268.77C148.46 269.52 149.1 270.19 149.91 270.26C150.72 270.33 151.4 269.78 151.43 269.03L151.71 259.52C151.72 259.15 151.57 258.81 151.32 258.54C151.27 256.4 149.79 254.33 147.48 253.47C144.54 252.38 141.32 253.65 140.34 256.3L137.91 262.84C137.89 262.89 137.88 262.93 137.87 262.98C137.86 263 137.85 263.02 137.84 263.05L134.53 271.9Z" fill="#A2CCED"/>
<path d="M86.86 169.21C86.86 169.21 88.28 174.54 98.63 175.76C108.97 176.98 110.42 172.35 110.42 172.35L86.86 169.21Z" fill="#0D4060"/>
<path d="M137.65 147.02C137.65 147.02 135.06 139.36 126.7 142.56" stroke="#0D4060" stroke-width="1.8941" stroke-miterlimit="10" stroke-linecap="round"/>
<path d="M69.69 137.95C69.69 137.95 73.26 130.97 80.49 136.25" stroke="#0D4060" stroke-width="1.8941" stroke-miterlimit="10" stroke-linecap="round"/>
<path d="M108.88 152.52C107.33 164.15 115.5 174.83 127.12 176.38C138.75 177.93 149.43 169.76 150.98 158.14C152.53 146.51 144.36 135.83 132.74 134.28C121.12 132.72 110.43 140.89 108.88 152.52Z" stroke="black" stroke-width="1.5" stroke-miterlimit="10" stroke-linecap="round"/>
<path d="M52.44 144.99C50.89 156.62 59.06 167.3 70.68 168.85C82.3 170.4 92.99 162.23 94.54 150.61C96.09 138.98 87.92 128.3 76.3 126.75C64.68 125.19 53.99 133.36 52.44 144.99Z" stroke="black" stroke-width="1.5" stroke-miterlimit="10" stroke-linecap="round"/>
<path d="M109.26 150.01C109.26 150.01 103.66 139.59 95.55 148.18" stroke="black" stroke-width="1.5" stroke-miterlimit="10" stroke-linecap="round"/>
<path d="M90.1 155.68C91.05 149.34 86.33 143.37 79.56 142.36C72.79 141.35 66.54 145.67 65.59 152.02" fill="white"/>
<path d="M85.85 155.04C86.29 152.1 84.26 149.35 81.32 148.91C78.38 148.47 75.63 150.5 75.19 153.44" fill="#0D4060"/>
<path d="M137.53 162.58C138.48 156.24 133.73 150.27 126.93 149.26C120.13 148.24 113.84 152.56 112.9 158.9" fill="white"/>
<path d="M133.29 161.95C133.73 159.01 131.7 156.26 128.76 155.82C125.82 155.38 123.07 157.41 122.63 160.35" fill="#0D4060"/>
<path d="M137.15 156.57L144.13 154.93L137.6 158.66C137.63 158.94 137.65 159.19 137.67 159.45L143.49 159.59L137.69 161.08C137.65 161.82 137.57 162.28 137.57 162.28C135.96 152.13 130.03 149.93 128.31 149.49C133.89 150.49 136.23 153.64 137.15 156.57Z" fill="#0D4060"/>
<path d="M60.76 147.41L66.37 148.98C66.46 148.74 66.55 148.5 66.67 148.25L61.52 142.78L67.72 146.38C69.45 143.84 72.61 141.52 78.24 142.2C76.47 142.11 70.15 142.48 65.65 151.72C65.65 151.72 65.71 151.25 65.89 150.53L60.76 147.41Z" fill="#0D4060"/>
<path d="M161.87 186.18C161.87 186.18 164.42 177 174.46 180.21" stroke="#0D4060" stroke-width="1.8941" stroke-miterlimit="10" stroke-linecap="round"/>
<path d="M216.22 175.83C216.22 175.83 211.56 167.85 203.4 174.53" stroke="#0D4060" stroke-width="1.8941" stroke-miterlimit="10" stroke-linecap="round"/>
<path d="M206.98 201.13C206.98 201.13 207.13 212.56 196.35 214.42C185.57 216.28 182.45 205.8 182.45 205.8L206.98 201.13Z" fill="#0D4060"/>
<g opacity="0.7">
<g opacity="0.7">
<path opacity="0.7" d="M173.58 206.36C173.84 207.75 171.46 209.36 168.26 209.97C165.06 210.58 162.25 209.95 161.99 208.57C161.73 207.18 164.11 205.57 167.31 204.96C170.5 204.35 173.31 204.98 173.58 206.36Z" fill="#E9BDBB"/>
</g>
</g>
<g opacity="0.7">
<g opacity="0.7">
<path opacity="0.7" d="M228.62 195.31C228.88 196.7 226.5 198.31 223.3 198.92C220.1 199.53 217.29 198.9 217.03 197.52C216.77 196.13 219.15 194.52 222.35 193.91C225.55 193.3 228.35 193.93 228.62 195.31Z" fill="#E9BDBB"/>
</g>
</g>
<path d="M198.58 194.69C197.49 188.95 201.56 183.36 207.68 182.19C213.8 181.03 219.65 184.73 220.74 190.47" fill="white"/>
<path d="M202.42 193.96C201.91 191.3 203.66 188.73 206.32 188.22C208.98 187.71 211.55 189.46 212.06 192.12" fill="#0D4060"/>
<path d="M165.64 200.96C164.55 195.22 168.65 189.63 174.8 188.45C180.95 187.28 186.83 190.98 187.92 196.71" fill="white"/>
<path d="M169.48 200.23C168.97 197.57 170.72 195 173.38 194.49C176.04 193.98 178.61 195.73 179.12 198.39" fill="#0D4060"/>
<path d="M165.77 195.47L159.36 194.23L165.43 197.39C165.41 197.64 165.4 197.88 165.39 198.11L160.1 198.45L165.43 199.59C165.49 200.26 165.58 200.68 165.58 200.68C166.68 191.39 171.99 189.17 173.54 188.71C168.51 189.83 166.5 192.77 165.77 195.47Z" fill="#0D4060"/>
<path d="M173.56 188.72C173.71 188.69 173.84 188.64 174 188.61C174 188.61 173.83 188.64 173.56 188.72Z" fill="#0D4060"/>
<path d="M224.97 186.1L219.92 187.73C219.83 187.52 219.74 187.3 219.62 187.08L224.11 181.91L218.6 185.41C216.93 183.16 213.98 181.16 208.88 181.99C210.49 181.84 216.25 181.95 220.68 190.19C220.68 190.19 220.61 189.76 220.42 189.12L224.97 186.1Z" fill="#0D4060"/>
<path d="M208.89 181.99C208.61 182.02 208.44 182.05 208.44 182.05C208.6 182.02 208.73 182.01 208.89 181.99Z" fill="#0D4060"/>
<path d="M206.47 253.55C206.47 253.55 221.94 251.28 228.99 248.86C236.04 246.44 246.34 223.52 246.34 223.52C246.34 223.52 247.63 220.37 246.34 223.52" stroke="#0F8AB2" stroke-width="4.6289" stroke-miterlimit="10"/>
<path d="M72.76 260.99C72.76 260.99 54.27 248.75 48.39 243.05C42.51 237.35 42.95 209.76 42.95 209.76C42.95 209.76 43.13 206.03 42.95 209.76" stroke="#0F8AB2" stroke-width="5.0843" stroke-miterlimit="10"/>
<path d="M83.35 279.55C83.95 280.09 84.94 279.99 85.54 279.32C86.14 278.65 86.15 277.66 85.54 277.11L81.36 273.33C81.8 273.16 82.22 272.93 82.63 272.65L87.64 277.18C88.24 277.72 89.23 277.62 89.83 276.95C90.43 276.28 90.44 275.29 89.83 274.74L84.82 270.21C85.03 269.82 85.2 269.43 85.32 269.02L89.63 272.91C90.23 273.45 91.22 273.35 91.82 272.68C92.42 272.01 92.43 271.02 91.82 270.47L84.64 263.98C84.46 263.72 84.25 263.48 84.02 263.26L85.81 264.04C86.56 264.37 87.51 263.98 87.91 263.18C88.31 262.38 88.03 261.46 87.27 261.14L77.68 256.99C77.31 256.83 76.9 256.84 76.52 256.99C74.32 256.17 71.6 256.84 69.78 258.85C67.47 261.41 67.46 265.2 69.77 267.29L75.46 272.43C75.5 272.47 75.54 272.5 75.59 272.53C75.61 272.55 75.62 272.57 75.64 272.59L83.35 279.55Z" fill="#A2CCED"/>
<path d="M146.79 256.09L135.23 276.83C135.23 276.83 143.81 275.46 150.58 275.72C154.72 275.88 157.96 277.45 159.98 278.18C161.77 278.82 162.72 279.09 164.57 278.72C167.23 278.19 172.17 276.66 176.23 276.66C183.16 276.66 192.45 279.4 192.45 279.4L204.41 258.17C204.41 258.17 186.55 251.66 171.13 259.17C171.12 259.17 163.01 248.29 146.79 256.09Z" fill="#ED1651"/>
<path d="M148.69 253.88L137.89 274.03C137.89 274.03 141.04 271.89 151.01 272.75C155.05 273.1 159.91 275.11 161.28 276.11C162.2 276.78 163.91 277.01 164.97 276.65C167.47 275.82 172.1 273.92 176.83 273.92C183.76 273.92 191.05 276.65 191.05 276.65L202.62 256.51C202.62 256.51 185 248.47 173.3 257.8C173.3 257.8 162.11 247.56 148.69 253.88Z" fill="#F6E9B4"/>
<path d="M165.34 274.35L173.24 259.8" stroke="#F4C77F" stroke-width="1.2627" stroke-miterlimit="10"/>
<path d="M190.5 264.27C189.79 264.48 189.02 264 188.79 263.21C188.56 262.42 188.96 261.61 189.67 261.4L194.6 259.97C194.31 259.65 194.06 259.3 193.83 258.91L187.92 260.62C187.21 260.83 186.44 260.35 186.21 259.56C185.98 258.77 186.38 257.96 187.09 257.75L193 256.04C192.98 255.64 193 255.25 193.06 254.87L186.51 256.07C185.8 256.28 186.51 256.07 186.28 255.28C186.05 254.49 186.45 253.68 187.16 253.47L195.62 251.02C195.87 250.88 196.14 250.77 196.41 250.68L194.63 250.6C193.88 250.57 193.26 249.87 193.25 249.06C193.24 248.25 193.84 247.61 194.59 247.64L204.1 248.06C204.47 248.08 204.8 248.25 205.05 248.52C207.18 248.73 209.14 250.36 209.82 252.72C210.69 255.73 209.19 258.85 206.47 259.63L199.77 261.57C199.72 261.58 199.67 261.59 199.63 261.6C199.61 261.61 199.59 261.62 199.56 261.63L190.5 264.27Z" fill="#A2CCED"/>
<path d="M189.44 271.88C189.44 271.88 180.48 268.04 171.71 270.17" stroke="#F4C77F" stroke-width="1.2627" stroke-miterlimit="10"/>
<path d="M194.02 261.5C194.02 261.5 186.31 256.41 176.29 260.32" stroke="#F4C77F" stroke-width="1.2627" stroke-miterlimit="10"/>
<path d="M162.11 270.7C162.11 270.7 153.15 266.86 144.38 268.99" stroke="#F4C77F" stroke-width="1.2627" stroke-miterlimit="10"/>
<path d="M164.56 264.78C164.56 264.78 155.7 259.32 146.83 263.07" stroke="#F4C77F" stroke-width="1.2627" stroke-miterlimit="10"/>
<path d="M167.42 259.81C167.42 259.81 160.2 253.89 149.69 258.1" stroke="#F4C77F" stroke-width="1.2627" stroke-miterlimit="10"/>
<path d="M190.77 266.16C190.77 266.16 183.72 262.83 175.13 265.26" stroke="#F4C77F" stroke-width="1.2627" stroke-miterlimit="10"/>
</g>
<defs>
<clipPath id="clip0">
<rect width="299.32" height="291.76" fill="white"/>
</clipPath>
</defs>
</svg>
