<svg width="299" height="292" viewBox="0 0 299 292" fill="none" xmlns="http://www.w3.org/2000/svg">
<g clip-path="url(#clip0)">
<path d="M0.0599976 268.98V0H298.8V268.98" fill="#F9DA78"/>
<path d="M298.8 120.57H0.0599976V281.49H298.8V120.57Z" fill="#FFCB05"/>
<path d="M56.14 13.44H2.12V68.62H56.14V13.44Z" fill="#A5DBDF" stroke="#986227" stroke-width="2.0064" stroke-miterlimit="10"/>
<path d="M54.49 45.16H0V67.74H54.49V45.16Z" fill="#2E9E48"/>
<path d="M54.49 14.38H0V46.33H54.49V14.38Z" fill="#A5DBDF"/>
<path d="M24.03 13.44V68.35" stroke="#986227" stroke-width="2.1182" stroke-miterlimit="10"/>
<path d="M56.37 63.86H0V69.75H56.37V63.86Z" fill="#986227"/>
<path d="M56.37 12.45H0V16.54H56.37V12.45Z" fill="#986227"/>
<path d="M15.89 26.13C16.01 25.32 15.9 24.47 15.53 23.67C14.52 21.52 11.96 20.59 9.8 21.6C8.92 22.01 8.25 22.69 7.82 23.49C7.04 22.38 5.76 21.66 4.3 21.66C2.4 21.66 0.789999 22.9 0.219999 24.61C0.159999 24.61 0.0899988 24.6 0.0299988 24.6V33.21C0.0699988 33.21 0.119999 33.2 0.159999 33.2C0.219999 33.42 0.299999 33.65 0.399999 33.86C1.41 36.01 3.97 36.94 6.13 35.93C6.53 35.74 6.9 35.5 7.21 35.21C8.28 37.22 10.75 38.07 12.83 37.09C14.04 36.52 14.86 35.47 15.17 34.27C16.26 34.74 17.54 34.76 18.7 34.22C20.85 33.21 21.78 30.65 20.77 28.49C19.9 26.61 17.83 25.67 15.89 26.13Z" fill="white"/>
<path d="M57.17 26.49C56.02 24.72 53.71 24.03 51.74 24.95C50.86 25.36 50.19 26.04 49.76 26.84C48.98 25.73 47.7 25.01 46.24 25.01C44.34 25.01 42.73 26.25 42.16 27.96C42.09 27.96 42.01 27.95 41.94 27.95C39.56 27.95 37.63 29.88 37.63 32.26C37.63 34.64 39.56 36.57 41.94 36.57C42 36.57 42.05 36.56 42.11 36.56C42.17 36.78 42.25 37.01 42.35 37.22C43.36 39.37 45.92 40.3 48.08 39.29C48.48 39.1 48.85 38.86 49.16 38.57C50.23 40.58 52.7 41.43 54.78 40.45C55.99 39.88 56.81 38.83 57.12 37.63C57.14 37.64 57.15 37.64 57.17 37.65V26.49Z" fill="white"/>
<path d="M69.46 79.53C69.46 80.02 64.31 80.02 63.87 79.94C62.54 79.7 61.24 79.27 59.91 79.09C57.97 78.82 56.07 79.2 54.17 79.53V11.78H69.46C69.46 11.78 69.46 79.39 69.46 79.53Z" fill="#ED1651"/>
<path d="M196.74 77.87C196.74 63.17 203.78 48.9 212.9 38.71C236.41 12.45 262.58 50.36 262.58 79.08C262.58 100.28 246.39 105.42 230.2 105.42C214 105.43 196.74 99.07 196.74 77.87Z" fill="#00A1CD"/>
<path d="M240.97 45.52C240.97 45.52 239.31 42.16 235.67 44.14" stroke="#0D4060" stroke-width="0.9299" stroke-miterlimit="10" stroke-linecap="round"/>
<path d="M218.86 45.52C218.86 45.52 220.52 42.16 224.16 44.14" stroke="#0D4060" stroke-width="0.9299" stroke-miterlimit="10" stroke-linecap="round"/>
<path d="M227.15 53.72C227.15 51.42 225.16 49.56 222.72 49.56C220.27 49.56 218.29 51.42 218.29 53.72" fill="white"/>
<path d="M224.62 53.72C224.62 52.65 223.76 51.79 222.69 51.79C221.62 51.79 220.76 52.65 220.76 53.72" fill="#0D4060"/>
<path d="M231.42 53.72C231.42 51.42 233.42 49.56 235.88 49.56C238.34 49.56 240.34 51.42 240.34 53.72" fill="white"/>
<path d="M237.81 53.72C237.81 52.65 236.95 51.79 235.88 51.79C234.81 51.79 233.95 52.65 233.95 53.72" fill="#0D4060"/>
<path d="M223.46 57.51C223.46 57.51 224.49 60.26 229.53 60.18C234.58 60.1 234.98 57.51 234.98 57.51H223.46Z" fill="#0D4060"/>
<path d="M239.9 51.66L242.28 50.71L240.17 52.38C240.2 52.47 240.22 52.57 240.24 52.65L242.31 52.39L240.33 53.22C240.36 53.48 240.35 53.65 240.35 53.65C239.24 50.14 237.03 49.67 236.39 49.61C238.43 49.68 239.42 50.67 239.9 51.66Z" fill="#0D4060"/>
<path d="M216.31 52.39L218.38 52.65C218.4 52.56 218.42 52.47 218.45 52.38L216.34 50.71L218.73 51.66C219.21 50.67 220.2 49.68 222.23 49.62C221.6 49.68 219.38 50.15 218.28 53.66C218.28 53.66 218.28 53.49 218.3 53.23L216.31 52.39Z" fill="#0D4060"/>
<path d="M232.89 103.32L235.31 123.23H238.83L241.25 103.31" fill="#00A1CD"/>
<path d="M219.56 104.5L221.98 124.48H224.87L227.29 104.56" fill="#00A1CD"/>
<path d="M238.64 126.32H235.8L234.31 113.5H240.15L238.64 126.32Z" fill="#5652A3"/>
<path d="M224.82 127.08H221.97L220.72 114.25H226.31L224.82 127.08Z" fill="#5652A3"/>
<path d="M228.64 127.74C228.64 124.65 226.14 122.15 223.05 122.15C219.96 122.15 217.46 124.65 217.46 127.74" fill="#504B48"/>
<path d="M242.96 127.74C242.96 124.65 240.46 122.15 237.37 122.15C234.28 122.15 231.78 124.65 231.78 127.74" fill="#504B48"/>
<path d="M179.83 101.48H173.72V133.24H179.83V101.48Z" fill="#FBAD18"/>
<path d="M283.86 101.45H278.09V133.21H283.86V101.45Z" fill="#FBAD18"/>
<path d="M288.39 98.14H169.51V108.16H288.39V98.14Z" fill="#FBAD18"/>
<path d="M244.59 98.14H208.66C207.76 98.14 207.03 97.41 207.03 96.51C207.03 95.61 207.76 94.88 208.66 94.88H244.59C245.49 94.88 246.22 95.61 246.22 96.51C246.22 97.41 245.49 98.14 244.59 98.14Z" fill="#727272"/>
<path d="M238.49 95.14H221.35C220.97 95.14 220.66 94.83 220.66 94.45C220.66 94.07 220.97 93.76 221.35 93.76H238.49C238.87 93.76 239.18 94.07 239.18 94.45C239.18 94.83 238.87 95.14 238.49 95.14Z" fill="#515151"/>
<path d="M213.82 94.51H210.3C210.12 94.51 209.97 94.36 209.97 94.18V93.46C209.97 93.28 210.12 93.13 210.3 93.13H213.82C214 93.13 214.15 93.28 214.15 93.46V94.18C214.15 94.37 214 94.51 213.82 94.51Z" fill="#515151"/>
<path d="M216.97 85.2C215.88 85.2 214.92 85.17 213.96 85.21C213.12 85.24 212.67 84.97 212.66 84.27C212.65 83.59 213.06 83.27 213.92 83.3C214.9 83.33 215.89 83.31 216.92 83.31C216.92 82.64 216.92 82.05 216.92 81.42C215.13 81.62 215.43 80.27 214.61 79.55C224.7 79.55 234.58 79.55 244.45 79.55C244.17 80.82 243.61 81.35 242.4 81.47C242.38 81.56 242.35 81.66 242.35 81.77C242.34 82.24 242.35 82.72 242.35 83.31C243.39 83.31 244.4 83.33 245.41 83.3C246.28 83.27 246.66 83.62 246.64 84.29C246.63 84.93 246.23 85.24 245.42 85.21C244.43 85.18 243.45 85.2 242.34 85.2C242.34 86.64 242.34 88.03 242.34 89.41C242.34 89.91 242.35 90.41 242.34 90.91C242.28 92.51 240.85 93.72 238.91 93.73C232.73 93.75 226.55 93.75 220.37 93.73C218.44 93.72 217 92.49 216.97 90.89C216.95 89.04 216.97 87.17 216.97 85.2Z" fill="#8C8C8C"/>
<path d="M242.4 83.31H245.72C246.35 83.31 246.87 83.73 246.87 84.25C246.87 84.77 246.35 85.19 245.72 85.19H242.4" fill="#606060"/>
<path d="M217.01 85.2H213.69C213.06 85.2 212.54 84.78 212.54 84.26C212.54 83.74 213.06 83.32 213.69 83.32H217.01" fill="#606060"/>
<path d="M241.2 74.37C239.78 76.62 238.35 78.87 236.96 81.15C236.76 81.48 236.59 82.06 236.74 82.33C237.6 83.83 237.22 85.1 236.18 86.3C235.38 87.23 234.45 87.94 233.19 88.09C232.58 88.17 232.1 87.96 231.81 87.39C230.98 85.79 231.96 82.61 233.57 81.81C233.96 81.62 234.44 81.44 234.84 81.5C235.74 81.65 236.13 81.18 236.52 80.5C239.14 76.08 241.78 71.68 244.42 67.28C244.49 67.16 244.56 67.04 244.63 66.92C244.89 66.48 245.07 66.01 245.62 66.35C246.14 66.68 245.87 67.05 245.56 67.48C245.29 67.86 245.02 68.26 244.77 68.65" fill="#8C8C8C"/>
<path d="M192.8 98.03C191.07 98.03 189.65 96.61 189.65 94.88C189.65 93.15 191.07 92.98 192.8 92.98C194.53 92.98 195.95 93.15 195.95 94.88C195.95 96.61 194.53 98.03 192.8 98.03Z" fill="#CF2153"/>
<path d="M185.97 98.13C184.24 98.13 182.82 96.71 182.82 94.98C182.82 93.25 184.24 93.08 185.97 93.08C187.7 93.08 189.12 93.25 189.12 94.98C189.12 96.71 187.7 98.13 185.97 98.13Z" fill="#CF2153"/>
<path d="M192.8 93.76C192.8 93.76 191.78 91.95 192.8 91.3C192.8 91.3 193.56 93.13 192.8 93.76Z" fill="#149A48"/>
<path d="M178.94 98.25C177.21 98.25 175.79 96.83 175.79 95.1C175.79 93.37 177.21 93.2 178.94 93.2C180.67 93.2 182.09 93.37 182.09 95.1C182.09 96.83 180.68 98.25 178.94 98.25Z" fill="#CF2153"/>
<path d="M178.94 93.97C178.94 93.97 177.92 92.16 178.94 91.51C178.94 91.51 179.7 93.35 178.94 93.97Z" fill="#149A48"/>
<path d="M185.98 93.35C185.98 93.35 183.98 92.81 184.22 91.62C184.23 91.62 186.07 92.37 185.98 93.35Z" fill="#149A48"/>
<path d="M265.35 90.15C265.35 90.15 264.85 88.18 267.25 88.18C269.65 88.18 268.19 89.48 270.31 89.53C271.89 89.56 271.16 88.45 273.03 88.18C274.9 87.92 274.77 89.44 275.95 89.47C277.19 89.5 276.51 88.1 278.05 88.14C279.59 88.18 280.17 88.75 280.47 90.18C280.78 91.59 265.35 90.15 265.35 90.15Z" fill="#179146"/>
<path d="M264.14 89.85C264.14 89.85 263.88 98.14 270.18 98.14C276.48 98.14 276.48 98.14 276.48 98.14C276.48 98.14 281.95 98.94 281.93 89.85H264.14Z" fill="#B6B6B6"/>
<path d="M203.21 72.03C203.21 72.03 203.36 84.25 217 73" stroke="#0F8AB2" stroke-width="1.8714" stroke-miterlimit="10" stroke-linecap="round"/>
<path d="M219.54 66.14C218.38 66.6 217.81 67.92 218.27 69.08L220.51 74.71C220.97 75.87 221.94 75.24 223.09 74.78C224.25 74.32 225.18 74.19 224.72 73.03L222.48 67.4C222.03 66.25 220.7 65.68 219.54 66.14Z" fill="#828282"/>
<path d="M225.55 71.88C225.84 71.75 225.96 71.38 225.82 71.05C225.68 70.73 225.32 70.57 225.03 70.7L223 71.6C223.01 71.41 222.99 71.22 222.96 71.04L225.39 69.96C225.68 69.83 225.8 69.46 225.66 69.13C225.52 68.81 225.16 68.65 224.87 68.78L222.44 69.86C222.33 69.72 222.22 69.6 222.09 69.49L224.18 68.56C224.47 68.43 224.59 68.06 224.45 67.73C224.31 67.41 223.95 67.25 223.66 67.38L220.17 68.93C220.05 68.95 219.93 68.99 219.81 69.04L220.38 68.52C220.62 68.3 220.63 67.9 220.41 67.63C220.19 67.36 219.81 67.31 219.57 67.53L216.54 70.32C216.42 70.43 216.36 70.58 216.35 70.74C215.7 71.4 215.51 72.49 215.94 73.46C216.49 74.7 217.86 75.31 218.98 74.82L221.74 73.59C221.76 73.58 221.78 73.57 221.8 73.56C221.81 73.56 221.82 73.55 221.83 73.55L225.55 71.88Z" fill="#A2CCED"/>
<path d="M224.49 74.55L222.07 75.43C221.51 75.63 221.22 76.25 221.42 76.81L221.55 77.16C221.75 77.72 222.37 78.01 222.93 77.81L225.35 76.93C225.91 76.73 226.2 76.11 226 75.55L225.87 75.2C225.67 74.64 225.04 74.35 224.49 74.55Z" fill="#727272"/>
<path d="M256.26 70.77C256.26 70.77 255.43 85.2 244.54 73.93" stroke="#0F8AB2" stroke-width="1.8714" stroke-miterlimit="10" stroke-linecap="round"/>
<path d="M247.41 73.52C247.91 74.3 247.88 75.4 247.26 76.27C246.47 77.38 245.01 77.7 244.01 76.98L241.55 75.22C241.53 75.21 241.52 75.19 241.5 75.18C241.49 75.17 241.48 75.17 241.47 75.16L238.15 72.78C237.89 72.59 237.85 72.2 238.05 71.92C238.26 71.63 238.64 71.55 238.9 71.73L240.71 73.02C240.74 72.84 240.79 72.65 240.86 72.48L238.69 70.93C238.43 70.74 238.39 70.35 238.59 70.07C238.79 69.79 239.18 69.7 239.44 69.88L241.61 71.43C241.74 71.32 241.88 71.22 242.03 71.14L240.17 69.81C239.91 69.62 239.87 69.23 240.07 68.95C240.28 68.66 240.66 68.58 240.92 68.76L244.02 70.98C244.13 71.03 244.24 71.09 244.35 71.16L243.9 70.53C243.71 70.27 243.78 69.87 244.06 69.65C244.33 69.43 244.71 69.46 244.9 69.72" fill="#A2CCED"/>
<path d="M167.68 227.83C167.68 227.83 150.62 229.78 142.45 229.19C134.28 228.61 116.89 207.17 116.89 207.17C116.89 207.17 114.63 204.2 116.89 207.17" stroke="#0F8AB2" stroke-width="5.0843" stroke-miterlimit="10"/>
<path d="M162.87 231.1C162.87 231.1 153.17 237.96 150.65 244.98C148.13 252 145.65 267.43 145.65 267.43" stroke="#0F8AB2" stroke-width="4.6289" stroke-miterlimit="10"/>
<path d="M215.86 278.25C252.129 278.25 281.53 248.849 281.53 212.58C281.53 176.311 252.129 146.91 215.86 146.91C179.591 146.91 150.19 176.311 150.19 212.58C150.19 248.849 179.591 278.25 215.86 278.25Z" fill="#00A1CD"/>
<path d="M130.76 235.71L142.17 150.17C145.57 124.7 127.68 101.31 102.21 97.91L88.3 96.05C62.83 92.65 39.43 110.54 36.04 136.01L24.63 221.55C22.42 238.13 23.31 257.2 34.74 269.89H119.11C126 260.23 129.18 247.55 130.76 235.71Z" fill="#00A1CD"/>
<path d="M88.56 165.64C88.56 165.64 88.79 177.5 99.12 178.81C109.46 180.12 112.02 169.43 112.02 169.43L88.56 165.64Z" fill="#0D4060"/>
<path d="M138.13 146.74C138.13 146.74 135.54 139.08 127.18 142.28" stroke="#0D4060" stroke-width="1.8941" stroke-miterlimit="10" stroke-linecap="round"/>
<path d="M70.17 137.67C70.17 137.67 73.74 130.69 80.97 135.97" stroke="#0D4060" stroke-width="1.8941" stroke-miterlimit="10" stroke-linecap="round"/>
<path d="M109.36 152.24C107.81 163.87 115.98 174.55 127.6 176.1C139.22 177.65 149.91 169.48 151.46 157.86C153.01 146.23 144.84 135.55 133.22 134C121.6 132.45 110.91 140.62 109.36 152.24Z" stroke="black" stroke-width="1.5" stroke-miterlimit="10" stroke-linecap="round"/>
<path d="M52.92 144.71C51.37 156.34 59.54 167.02 71.16 168.57C82.79 170.12 93.47 161.95 95.02 150.33C96.57 138.7 88.4 128.02 76.78 126.47C65.16 124.92 54.47 133.09 52.92 144.71Z" stroke="black" stroke-width="1.5" stroke-miterlimit="10" stroke-linecap="round"/>
<path d="M109.74 149.74C109.74 149.74 104.14 139.32 96.03 147.91" stroke="black" stroke-width="1.5" stroke-miterlimit="10" stroke-linecap="round"/>
<path d="M90.58 155.4C91.53 149.06 86.81 143.09 80.04 142.08C73.27 141.07 67.02 145.39 66.07 151.74" fill="white"/>
<path d="M86.33 154.77C86.77 151.83 84.74 149.08 81.8 148.64C78.86 148.2 76.11 150.23 75.67 153.17" fill="#0D4060"/>
<path d="M138.01 162.31C138.96 155.97 134.21 150 127.41 148.99C120.61 147.97 114.32 152.29 113.38 158.63" fill="white"/>
<path d="M133.77 161.68C134.21 158.74 132.18 155.99 129.24 155.55C126.3 155.11 123.55 157.14 123.11 160.08" fill="#0D4060"/>
<path d="M137.62 156.3L144.6 154.66L138.07 158.39C138.1 158.67 138.12 158.92 138.14 159.18L143.96 159.32L138.16 160.81C138.12 161.55 138.04 162.01 138.04 162.01C136.43 151.86 130.5 149.66 128.78 149.22C134.37 150.22 136.71 153.36 137.62 156.3Z" fill="#0D4060"/>
<path d="M61.24 147.13L66.85 148.7C66.94 148.46 67.03 148.22 67.15 147.97L62 142.5L68.2 146.1C69.93 143.56 73.09 141.24 78.72 141.92C76.95 141.83 70.63 142.2 66.13 151.44C66.13 151.44 66.19 150.97 66.37 150.25L61.24 147.13Z" fill="#0D4060"/>
<path d="M298.8 254.8H0.0599976V291.49H298.8V254.8Z" fill="#FBAD18"/>
<path d="M137.62 270.51C137.39 271.21 137.85 272 138.63 272.25C139.41 272.5 140.24 272.13 140.46 271.43L142.03 266.55C142.34 266.85 142.69 267.11 143.07 267.35L141.19 273.21C140.96 273.91 141.42 274.7 142.2 274.95C142.98 275.2 143.81 274.83 144.03 274.13L145.91 268.27C146.31 268.3 146.7 268.29 147.09 268.24L145.48 273.27C145.25 273.97 145.71 274.76 146.49 275.01C147.27 275.26 148.1 274.89 148.32 274.19L151.01 265.8C151.16 265.55 151.28 265.29 151.38 265.02L151.41 266.8C151.42 267.55 152.1 268.19 152.91 268.22C153.72 268.25 154.38 267.67 154.37 266.93L154.22 257.42C154.21 257.05 154.05 256.71 153.78 256.46C153.63 254.33 152.06 252.32 149.71 251.57C146.72 250.61 143.57 252.03 142.71 254.72L140.58 261.37C140.56 261.42 140.56 261.47 140.54 261.51C140.53 261.53 140.52 261.55 140.51 261.58L137.62 270.51Z" fill="#A2CCED"/>
<path d="M172.8 173.78C172.8 173.78 177.38 165.43 186.42 170.86" stroke="#0D4060" stroke-width="1.8941" stroke-miterlimit="10" stroke-linecap="round"/>
<path d="M226.07 176.17C226.07 176.17 223.37 167.33 213.89 171.97" stroke="#0D4060" stroke-width="1.8941" stroke-miterlimit="10" stroke-linecap="round"/>
<path d="M210.82 200.62C210.82 200.62 208.34 206.47 197.42 205.81C186.5 205.15 185.87 199.54 185.87 199.54L210.82 200.62Z" fill="#0D4060"/>
<g opacity="0.7">
<g opacity="0.7">
<path opacity="0.7" d="M177.57 196.11C177.51 197.52 174.82 198.55 171.57 198.41C168.31 198.27 165.72 197.01 165.79 195.6C165.85 194.19 168.54 193.16 171.8 193.31C175.04 193.45 177.63 194.7 177.57 196.11Z" fill="#E9BDBB"/>
</g>
</g>
<g opacity="0.7">
<g opacity="0.7">
<path opacity="0.7" d="M233.68 197.97C233.62 199.38 230.93 200.41 227.68 200.27C224.43 200.13 221.84 198.87 221.9 197.46C221.96 196.05 224.65 195.02 227.9 195.17C231.15 195.31 233.74 196.56 233.68 197.97Z" fill="#E9BDBB"/>
</g>
</g>
<path d="M204.59 190.48C204.84 184.65 210.09 180.13 216.31 180.4C222.53 180.67 227.37 185.62 227.12 191.45" fill="white"/>
<path d="M178.04 188.44C178.19 188.41 178.32 188.36 178.48 188.33C178.48 188.33 178.31 188.37 178.04 188.44Z" fill="#0D4060"/>
<path d="M232.24 188.17L226.95 188.6C226.91 188.37 226.87 188.14 226.81 187.9L232.36 183.9L226.2 186.05C225.09 183.48 222.67 180.86 217.52 180.49C219.12 180.71 224.7 182.14 227.13 191.18C227.13 191.18 227.16 190.75 227.12 190.08L232.24 188.17Z" fill="#0D4060"/>
<path d="M204.5 244.41C204.5 244.41 219.79 247.69 227.24 247.89C234.69 248.09 252.35 230.21 252.35 230.21C252.35 230.21 254.66 227.72 252.35 230.21" stroke="#0F8AB2" stroke-width="4.6289" stroke-miterlimit="10"/>
<path d="M185.79 248.87C185.05 248.81 184.5 248.1 184.56 247.28C184.62 246.46 185.28 245.84 186.01 245.89L191.13 246.28C190.97 245.88 190.86 245.46 190.78 245.02L184.65 244.56C183.91 244.5 183.36 243.79 183.42 242.97C183.48 242.15 184.14 241.53 184.87 241.58L191 242.04C191.12 241.66 191.28 241.3 191.47 240.96L184.91 239.79C184.17 239.73 184.91 239.79 184.97 238.97C185.03 238.15 185.69 237.53 186.42 237.58L195.2 238.24C195.48 238.2 195.77 238.18 196.06 238.2L194.42 237.5C193.73 237.21 193.39 236.34 193.67 235.58C193.94 234.81 194.73 234.42 195.42 234.72L204.18 238.44C204.52 238.58 204.77 238.86 204.91 239.2C206.83 240.14 208.1 242.35 207.91 244.81C207.67 247.94 205.17 250.33 202.35 250.12L195.39 249.6C195.34 249.6 195.29 249.59 195.24 249.58C195.21 249.58 195.19 249.58 195.17 249.58L185.79 248.87Z" fill="#A2CCED"/>
<path d="M73.24 260.72C73.24 260.72 54.75 248.48 48.87 242.78C42.99 237.08 43.43 209.49 43.43 209.49C43.43 209.49 43.61 205.76 43.43 209.49" stroke="#0F8AB2" stroke-width="5.0843" stroke-miterlimit="10"/>
<path d="M83.83 279.27C84.43 279.81 85.42 279.71 86.02 279.04C86.62 278.37 86.63 277.38 86.02 276.83L81.84 273.05C82.28 272.88 82.7 272.65 83.11 272.37L88.12 276.9C88.72 277.44 89.71 277.34 90.31 276.67C90.91 276 90.92 275.01 90.31 274.46L85.3 269.93C85.51 269.54 85.68 269.15 85.8 268.74L90.11 272.63C90.71 273.17 91.7 273.07 92.3 272.4C92.9 271.73 92.91 270.74 92.3 270.19L85.12 263.7C84.94 263.44 84.73 263.2 84.5 262.98L86.29 263.76C87.04 264.09 87.99 263.7 88.39 262.9C88.79 262.1 88.51 261.18 87.75 260.86L78.16 256.71C77.79 256.55 77.38 256.56 77 256.71C74.8 255.89 72.08 256.56 70.26 258.57C67.95 261.13 67.94 264.92 70.25 267.01L75.94 272.15C75.98 272.19 76.02 272.22 76.07 272.25C76.09 272.27 76.1 272.29 76.12 272.31L83.83 279.27Z" fill="#A2CCED"/>
<path d="M205.39 187.07C206.94 188.01 208.92 188.16 210.64 187.25C213.03 185.99 214.04 183.17 213.13 180.7C209.59 181.52 206.71 183.91 205.39 187.07Z" fill="#0D4060"/>
<path d="M169.56 188.84C169.81 183.01 175.06 178.49 181.28 178.76C187.5 179.03 192.34 183.98 192.09 189.81" fill="white"/>
<path d="M163.63 186.53L168.92 186.96C168.96 186.73 169 186.5 169.06 186.26L163.51 182.26L169.67 184.41C170.78 181.84 173.2 179.22 178.35 178.85C176.75 179.07 171.17 180.5 168.74 189.54C168.74 189.54 168.71 189.11 168.75 188.44L163.63 186.53Z" fill="#0D4060"/>
<path d="M170.36 185.43C171.91 186.37 173.89 186.52 175.61 185.61C178 184.35 179.01 181.53 178.1 179.06C174.57 179.88 171.68 182.27 170.36 185.43Z" fill="#0D4060"/>
<path d="M151.51 256.7L139.95 277.44C139.95 277.44 146.58 275.51 153.36 275.78C157.5 275.94 162.69 278.07 164.71 278.8C166.5 279.44 167.45 279.71 169.3 279.34C171.96 278.81 176.9 277.28 180.96 277.28C187.89 277.28 197.18 280.02 197.18 280.02L209.14 258.79C209.14 258.79 191.28 252.28 175.86 259.79C175.84 259.78 167.72 248.9 151.51 256.7Z" fill="#ED1651"/>
<path d="M153.41 254.49L142.61 274.64C142.61 274.64 145.76 272.5 155.73 273.36C159.77 273.71 164.63 275.72 166 276.72C166.92 277.39 168.63 277.62 169.69 277.26C172.19 276.43 176.82 274.53 181.55 274.53C188.48 274.53 195.77 277.26 195.77 277.26L207.34 257.12C207.34 257.12 189.72 249.08 178.02 258.41C178.01 258.41 166.83 248.16 153.41 254.49Z" fill="#F6E9B4"/>
<path d="M170.05 274.96L177.96 260.41" stroke="#F4C77F" stroke-width="1.2627" stroke-miterlimit="10"/>
<path d="M194.16 272.49C194.16 272.49 185.2 268.65 176.43 270.78" stroke="#F4C77F" stroke-width="1.2627" stroke-miterlimit="10"/>
<path d="M198.74 262.11C198.74 262.11 191.03 257.02 181.01 260.93" stroke="#F4C77F" stroke-width="1.2627" stroke-miterlimit="10"/>
<path d="M166.83 271.31C166.83 271.31 157.87 267.47 149.1 269.6" stroke="#F4C77F" stroke-width="1.2627" stroke-miterlimit="10"/>
<path d="M169.27 265.39C169.27 265.39 160.41 259.93 151.54 263.68" stroke="#F4C77F" stroke-width="1.2627" stroke-miterlimit="10"/>
<path d="M172.13 260.41C172.13 260.41 164.91 254.49 154.4 258.7" stroke="#F4C77F" stroke-width="1.2627" stroke-miterlimit="10"/>
<path d="M195.48 266.77C195.48 266.77 188.43 263.44 179.84 265.87" stroke="#F4C77F" stroke-width="1.2627" stroke-miterlimit="10"/>
</g>
<defs>
<clipPath id="clip0">
<rect width="298.8" height="291.49" fill="white"/>
</clipPath>
</defs>
</svg>
