<svg width="353" height="363" viewBox="0 0 353 363" fill="none" xmlns="http://www.w3.org/2000/svg">
<g id="egg_character1">
<g id="left_arm_rotate_group">
<g id="left_arm_group">
<path id="right_arm" d="M85.3515 177.94C85.3515 177.94 57.4382 181.17 54.832 225.402" stroke="#2489B7" stroke-width="8" stroke-miterlimit="10" stroke-linecap="round"/>
<path id="left_hand" d="M67.0505 242.836C67.3211 244.003 66.4809 245.142 65.1991 245.355C63.9174 245.568 62.6357 244.8 62.3651 243.633L61.7242 240.858C61.653 241.327 61.5533 241.783 61.4109 242.21L60.001 256.256C59.8871 257.438 58.7193 258.292 57.409 258.163C56.0988 258.035 55.1304 256.954 55.2443 255.787L56.0846 247.362C55.5007 247.561 54.8883 247.717 54.2474 247.803L53.2648 257.608C53.1508 258.79 51.983 259.644 50.6728 259.515C49.3626 259.387 48.3942 258.306 48.5081 257.139L49.4908 247.333C48.8214 247.091 48.1806 246.792 47.5967 246.437L46.7706 254.62C46.6567 255.801 45.4889 256.655 44.1787 256.527C42.8685 256.399 41.9001 255.317 42.014 254.15L43.5236 239.122C43.5236 239.079 43.5378 239.05 43.5521 239.008C43.5521 238.922 43.5521 238.851 43.5663 238.766L44.6771 227.637C45.1329 223.125 49.6047 219.852 54.6177 220.35C58.5484 220.749 61.6957 223.367 62.6357 226.655L67.0505 242.836Z" fill="#A2CCED"/>
</g>
</g>
<g id="right_arm_rotate_group">
<g id="right_arm_group">
<path id="right_arm_2" d="M260.963 175.278C260.963 175.278 288.905 178.253 301.167 135.686" stroke="#2489B7" stroke-width="8" stroke-miterlimit="10" stroke-linecap="round"/>
<path id="right_hand" d="M291.369 115.477C291.298 114.282 292.309 113.3 293.619 113.3C294.929 113.3 296.054 114.282 296.126 115.477L296.296 118.323C296.439 117.882 296.61 117.441 296.838 117.043L300.569 103.423C300.882 102.284 302.178 101.63 303.446 101.971C304.713 102.313 305.496 103.537 305.183 104.689L302.947 112.858C303.56 112.759 304.186 112.716 304.827 112.73L307.433 103.224C307.747 102.085 309.043 101.43 310.31 101.772C311.578 102.114 312.361 103.337 312.048 104.49L309.441 113.997C310.068 114.339 310.638 114.751 311.15 115.207L313.329 107.28C313.643 106.141 314.939 105.486 316.206 105.828C317.474 106.17 318.257 107.393 317.944 108.546L313.942 123.119C313.927 123.162 313.913 123.191 313.899 123.233C313.885 123.304 313.87 123.39 313.856 123.461L310.894 134.249C309.698 138.618 304.742 141.108 299.885 139.785C296.069 138.746 293.42 135.629 293.035 132.228L291.369 115.477Z" fill="#A2CCED"/>
</g>
</g>
<path id="torso" d="M79.0137 187.133C79.0137 125.183 124.131 38 177.123 38C232.936 38 275.233 123.931 275.233 185.881C275.233 247.831 231.312 262.333 177.123 262.333C122.934 262.333 79.0137 249.084 79.0137 187.133Z" fill="#00A1CD"/>
<g id="eyes_container">
<g id="left_eye">
<path id="Vector" d="M148 118.94C148 112.351 153.355 107 159.949 107C166.542 107 171.897 112.351 171.897 118.94" fill="white"/>
<g id="Mask Group">
<mask id="mask0" mask-type="alpha" maskUnits="userSpaceOnUse" x="148" y="107" width="24" height="12">
<path id="Vector_2" d="M148 118.94C148 112.351 153.355 107 159.949 107C166.542 107 171.897 112.351 171.897 118.94" fill="#C16161"/>
</mask>
<g mask="url(#mask0)">
<circle id="left_pupil" cx="160" cy="118" r="5" fill="#0D4060"/>
</g>
</g>
</g>
<g id="right_eye">
<path id="Vector_3" d="M181 118.94C181 112.351 186.355 107 192.949 107C199.542 107 204.897 112.351 204.897 118.94" fill="white"/>
<g id="Mask Group_2">
<mask id="mask1" mask-type="alpha" maskUnits="userSpaceOnUse" x="181" y="107" width="24" height="12">
<path id="Vector_4" d="M181 118.94C181 112.351 186.355 107 192.949 107C199.542 107 204.897 112.351 204.897 118.94" fill="#C16161"/>
</mask>
<g mask="url(#mask1)">
<circle id="right_pupil" cx="193" cy="118" r="5" fill="#0D4060"/>
</g>
</g>
</g>
<g id="eyebrows">
<path id="right_eyebrow" d="M202.658 101.658C202.658 101.658 200.095 94.4285 192.404 98.6126" stroke="#0D4060" stroke-width="2" stroke-miterlimit="10" stroke-linecap="round"/>
<path id="left_eyebrow" d="M150.079 101.658C150.079 101.658 153.583 94.5708 161.273 98.7407" stroke="#0D4060" stroke-width="2" stroke-miterlimit="10" stroke-linecap="round"/>
</g>
</g>
<path id="Vector_5" d="M193.088 129.424C193.088 129.424 190.339 138.248 176.81 137.977C163.281 137.707 162.212 129.424 162.212 129.424H193.088Z" fill="#0D4060"/>
<path id="Vector_6" d="M201.106 305.783L206.988 253.012H182.122L191.692 319.744L198.799 316.286" fill="#00A1CD"/>
<path id="Vector_7" d="M187.562 290.555H202.986L199.183 319.274H191.336L187.562 290.555Z" fill="#FFCB05"/>
<path id="Vector_8" d="M191.293 320C191.293 312.756 197.175 306.893 204.41 306.893C211.659 306.893 217.526 312.77 217.526 320" fill="#504B48"/>
<path id="left_thigh" d="M160.596 289.104L165 261.874C157.953 253.403 149.34 252.798 142 259.857L146.404 289.104C151.885 294.349 158.149 291.289 160.596 289.104Z" fill="#00A1CD"/>
<g id="left_calf_group">
<path id="left_calf" d="M160.663 283.076L156.913 319.076L150.819 319.076L145.663 281.607C151.163 276.576 157.663 276.576 160.663 283.076Z" fill="#00A1CD" stroke="#00A1CD"/>
<path id="left_sock" d="M145.663 291.076H161.087L157.298 318.686H149.451L145.663 291.076Z" fill="#FFCB05"/>
<path id="left_foot" d="M132 319.959C132 312.716 137.882 306.852 145.116 306.852C152.351 306.852 158.233 312.73 158.233 319.959" fill="#504B48"/>
</g>
</g>
</svg>
