<svg width="120" height="120" viewBox="0 0 120 120" fill="none" xmlns="http://www.w3.org/2000/svg">
<rect width="120" height="120" fill="white"/>
<path fill-rule="evenodd" clip-rule="evenodd" d="M92.6109 67.7378C92.6104 67.738 92.6099 67.7382 92.8777 68.3591C93.1455 68.9799 93.145 68.9801 93.1446 68.9803L93.144 68.9806L93.154 68.9765C93.1647 68.9722 93.1829 68.9651 93.2084 68.9556C93.2595 68.9367 93.3395 68.9087 93.4454 68.8765C93.6575 68.8121 93.9717 68.7315 94.3649 68.6735C95.152 68.5573 96.2447 68.5326 97.4671 68.8987C99.8709 69.6187 102.984 71.9186 105.205 78.6191L106.489 78.1936C104.173 71.2095 100.802 68.4858 97.8551 67.6033C96.4021 67.1681 95.1032 67.1975 94.1674 67.3356C93.6991 67.4048 93.3192 67.5015 93.0523 67.5825C92.9188 67.6231 92.8132 67.6599 92.7385 67.6875C92.7012 67.7014 92.6715 67.713 92.65 67.7216C92.6392 67.7259 92.6304 67.7295 92.6237 67.7323L92.6152 67.7359L92.6122 67.7372L92.6109 67.7378Z" fill="#2489B7"/>
<path d="M22.0228 54.0058C22.3344 45.4746 24.1814 36.7012 25.0588 28.5158C26.6056 14.0069 39.1074 3.55032 52.9944 5.16434C52.9944 5.16434 76.0124 7.84477 76.0182 7.84477C86.1535 9.02647 94.4938 16.5951 97.3739 26.2619C99.1516 32.2223 98.2166 38.2691 97.5702 44.339C96.7044 52.4321 95.5673 60.5196 93.9916 68.5032C92.1158 77.9683 87.937 86.2286 78.679 90.0504C70.6619 93.3591 62.4544 93.6416 53.9409 93.0652C54.091 93.1055 54.2353 93.1401 54.3854 93.1805C47.0205 91.699 39.8346 89.9582 33.5145 85.7098C25.6244 80.4008 24.1179 73.3683 22.6 64.4336C22.0228 61.0383 21.89 57.5394 22.0228 54.0058Z" fill="#00A1CD"/>
<path d="M56.0015 44.1545C56.0015 44.1545 56.723 47.8898 62.2812 48.3971C67.8395 48.9043 68.6533 45.561 68.6533 45.561L56.0015 44.1545Z" fill="#0D4060"/>
<path d="M81.1031 39.5718C81.3629 37.22 79.666 35.0987 77.3168 34.8393C74.9619 34.5799 72.8379 36.2746 72.5782 38.6207" fill="white"/>
<path fill-rule="evenodd" clip-rule="evenodd" d="M73.4951 42.3096C72.7922 41.3165 72.4736 40.0283 72.9036 38.683L72.0449 38.4085C71.5168 40.0608 71.9168 41.6403 72.7593 42.8305C73.5948 44.0109 74.8897 44.8429 76.2111 44.9888L76.3101 44.0927C75.2823 43.9792 74.205 43.3125 73.4951 42.3096Z" fill="#2585AA"/>
<path fill-rule="evenodd" clip-rule="evenodd" d="M81.293 33.2774C81.2929 33.2771 81.2927 33.2767 81.9285 33.0466C82.5643 32.8164 82.5642 32.8161 82.5641 32.8157L82.5638 32.8149L82.5631 32.813L82.5613 32.8083L82.5564 32.7952C82.5524 32.7848 82.5471 32.7711 82.5403 32.7545C82.5269 32.7212 82.5078 32.6758 82.4827 32.6206C82.4326 32.5103 82.3579 32.3592 82.2557 32.1852C82.0529 31.8399 81.7324 31.3886 81.2654 30.9883C80.7946 30.5848 80.1714 30.2308 79.3783 30.0986C78.5846 29.9662 77.6679 30.0637 76.6231 30.4893L77.1333 31.7417C77.9845 31.3949 78.6471 31.3476 79.1558 31.4325C79.6652 31.5174 80.0676 31.7428 80.3854 32.0151C80.7069 32.2908 80.938 32.6119 81.0896 32.87C81.1646 32.9977 81.2179 33.1062 81.2514 33.1799C81.2682 33.2167 81.2798 33.2445 81.2866 33.2614C81.29 33.2698 81.2922 33.2755 81.2932 33.2781L81.2932 33.278L81.293 33.2774ZM81.2932 33.2781C81.2937 33.2795 81.2939 33.28 81.2939 33.2798L81.2935 33.2789L81.2932 33.2781Z" fill="#0D4060"/>
<path fill-rule="evenodd" clip-rule="evenodd" d="M47.6824 29.2862C47.6822 29.2866 47.6821 29.2869 48.2903 29.5822C48.8986 29.8775 48.8985 29.8778 48.8983 29.8781L48.898 29.8787L48.8977 29.8794C48.8989 29.8771 48.9014 29.8721 48.9054 29.8646C48.9134 29.8496 48.9271 29.8248 48.9464 29.7921C48.9851 29.7264 49.0458 29.6308 49.1282 29.5208C49.2957 29.2974 49.539 29.0338 49.8542 28.8341C50.1626 28.6387 50.5387 28.5044 50.9987 28.5239C51.4622 28.5435 52.0683 28.7218 52.8278 29.2497L53.5996 28.1392C52.6796 27.4998 51.8304 27.2055 51.0559 27.1727C50.2778 27.1398 49.633 27.3733 49.1305 27.6917C48.6347 28.0057 48.277 28.4017 48.0462 28.7096C47.9296 28.8652 47.8418 29.0031 47.7819 29.1045C47.7518 29.1554 47.7286 29.1975 47.712 29.2285C47.7038 29.2441 47.6971 29.2569 47.6921 29.2667L47.6859 29.2792L47.6837 29.2836L47.6828 29.2854L47.6824 29.2862ZM48.8977 29.8794L48.8976 29.8796L48.8971 29.8806L48.8971 29.8807C48.8971 29.8806 48.8973 29.8801 48.8977 29.8794Z" fill="#0D4060"/>
<path d="M78.806 39.3124C78.9214 38.2979 78.1884 37.3814 77.1668 37.2661C76.1451 37.1508 75.2332 37.8829 75.1178 38.9032" fill="#0D4060"/>
<path d="M55.3608 36.4187C55.6205 34.0669 53.9236 31.9456 51.5745 31.6862C49.2254 31.4268 47.0956 33.1215 46.8358 35.4676" fill="white"/>
<path d="M53.0579 36.1651C53.1733 35.1506 52.4403 34.234 51.4187 34.1187C50.4028 34.0035 49.4851 34.7355 49.3697 35.7558" fill="#0D4060"/>
<path fill-rule="evenodd" clip-rule="evenodd" d="M78.5636 26.4302C84.4833 26.4302 89.2812 31.2228 89.2812 37.1335C89.2812 43.0442 84.4833 47.8368 78.5636 47.8368C72.6438 47.8368 67.8459 43.0442 67.8459 37.1335C67.8459 31.2228 72.6438 26.4302 78.5636 26.4302ZM90.1828 37.1335C90.1828 30.7238 84.9801 25.5287 78.5636 25.5287C72.147 25.5287 66.9443 30.7238 66.9443 37.1335C66.9443 43.5432 72.147 48.7384 78.5636 48.7384C84.9801 48.7384 90.1828 43.5432 90.1828 37.1335Z" fill="black"/>
<path fill-rule="evenodd" clip-rule="evenodd" d="M48.1864 23.1215C54.1062 23.1215 58.9041 27.9141 58.9041 33.8248C58.9041 39.7355 54.1062 44.528 48.1864 44.528C42.2667 44.528 37.4687 39.7355 37.4687 33.8248C37.4687 27.9141 42.2667 23.1215 48.1864 23.1215ZM59.8057 33.8248C59.8057 27.4151 54.603 22.2199 48.1864 22.2199C41.7698 22.2199 36.5672 27.4151 36.5672 33.8248C36.5672 40.2345 41.7698 45.4296 48.1864 45.4296C54.603 45.4296 59.8057 40.2345 59.8057 33.8248Z" fill="black"/>
<path fill-rule="evenodd" clip-rule="evenodd" d="M67.2494 34.9458C67.2493 34.9457 67.2492 34.9456 67.6202 34.6894C67.9911 34.4333 67.991 34.4331 67.9908 34.4329L67.9904 34.4323L67.9894 34.4309L67.9863 34.4264L67.9758 34.4116C67.9669 34.3991 67.9542 34.3814 67.9378 34.3592C67.905 34.3147 67.8573 34.2517 67.7957 34.1741C67.6726 34.0192 67.4928 33.8053 67.2629 33.565C66.8057 33.0871 66.138 32.4915 65.3117 32.052C64.4829 31.6111 63.4767 31.3185 62.3614 31.4808C61.2427 31.6435 60.0722 32.2556 58.9029 33.5185L59.5645 34.131C60.626 32.9844 61.6192 32.4998 62.4912 32.3729C63.3667 32.2455 64.1782 32.4702 64.8883 32.8479C65.6009 33.227 66.1933 33.7511 66.6114 34.1882C66.8193 34.4055 66.981 34.598 67.0899 34.7351C67.1443 34.8035 67.1853 34.8579 67.2122 34.8943C67.2256 34.9125 67.2355 34.9262 67.2417 34.9349L67.2483 34.9442L67.2494 34.9458Z" fill="black"/>
<path d="M73.7325 86.1306L68.7168 116.953H65.8078L60.7921 86.2228" fill="#00A1CD"/>
<path d="M54.5585 85.9808L49.5428 116.809H46.6338L41.6181 86.0788" fill="#00A1CD"/>
<path fill-rule="evenodd" clip-rule="evenodd" d="M108.29 84.8679C105.906 84.9724 104.674 86.5048 104.095 87.8579C103.808 88.5269 103.664 89.177 103.59 89.6508C103.553 89.8904 103.533 90.0916 103.522 90.2367C103.516 90.3094 103.513 90.3685 103.511 90.4117C103.51 90.4333 103.509 90.451 103.509 90.4645L103.508 90.4816L103.508 90.4878L103.508 90.4902L103.508 90.4913L102.989 116.117L105.242 116.163L105.762 90.5351C105.762 90.5348 105.762 90.534 105.762 90.5334C105.762 90.5303 105.762 90.5234 105.762 90.5128C105.763 90.4917 105.765 90.4564 105.769 90.4089C105.776 90.3136 105.79 90.1711 105.817 89.9973C105.872 89.6445 105.976 89.1896 106.166 88.7454C106.537 87.8804 107.164 87.1638 108.416 87.1185L108.458 87.117L111.859 86.7376L111.609 84.4976L108.29 84.8679Z" fill="#633413"/>
<path d="M102.88 80.1876C102.672 79.0923 103.203 77.8703 104.289 77.1843C105.674 76.3081 107.452 76.6079 108.242 77.853L110.199 80.9254C110.21 80.9485 110.222 80.9715 110.239 80.9946C110.245 81.0061 110.257 81.0119 110.262 81.0234L112.9 85.1737C113.108 85.4965 112.981 85.9519 112.617 86.1825C112.254 86.4131 111.792 86.3324 111.584 86.0096L110.147 83.7499C110.032 83.9402 109.887 84.1189 109.726 84.286L111.446 86.9953C111.653 87.3181 111.526 87.7735 111.163 88.004C110.799 88.2346 110.337 88.1539 110.13 87.8311L108.41 85.1219C108.213 85.191 108.011 85.2371 107.809 85.2602L109.287 87.589C109.495 87.9118 109.368 88.3672 109.004 88.5978C108.641 88.8283 108.179 88.7476 107.971 88.4248L105.506 84.5454C105.403 84.4417 105.304 84.3206 105.218 84.1996L105.437 85.0988C105.53 85.4792 105.276 85.8885 104.866 86.0153C104.462 86.1421 104.052 85.9346 103.96 85.5542" fill="#A2CCED"/>
<path d="M65.7616 116.912L62.8584 98.8237H71.4411L69.698 116.705L65.7616 116.912Z" fill="#5652A3"/>
<path d="M46.5761 116.336L43.644 98.8237H52.3999L49.993 116.809L46.5761 116.336Z" fill="#5652A3"/>
<path d="M50.0565 117.097C50.0565 113.269 46.9513 110.168 43.1188 110.168C39.2863 110.168 36.181 113.269 36.181 117.097" fill="#504B48"/>
<path d="M79.4813 117.247C79.4813 113.419 76.376 110.318 72.5435 110.318C68.711 110.318 65.6058 113.419 65.6058 117.247" fill="#504B48"/>
<path fill-rule="evenodd" clip-rule="evenodd" d="M53.9033 40.6126C55.0578 39.5604 55.7916 38.0339 55.6415 36.6748L54.7454 36.7737C54.855 37.7665 54.3046 39.0271 53.296 39.9463C52.3017 40.8525 50.9363 41.3579 49.4911 40.9535L49.2482 41.8217C51.0583 42.3282 52.7347 41.6777 53.9033 40.6126Z" fill="#2585AA"/>
<path fill-rule="evenodd" clip-rule="evenodd" d="M77.0469 21.6268C77.0471 21.6267 77.0473 21.6267 76.9648 21.1835C76.8822 20.7404 76.8823 20.7403 76.8824 20.7403L76.8814 20.7405L76.8769 20.7413L76.8565 20.745C76.8379 20.7482 76.8095 20.7531 76.7716 20.7594C76.6956 20.7719 76.5814 20.7899 76.4313 20.8112C76.1311 20.8539 75.6874 20.9099 75.119 20.9623C73.9821 21.0672 72.3476 21.1574 70.366 21.0975C66.4012 20.9777 61.0585 20.2571 55.5346 17.859L55.1756 18.686C60.8317 21.1415 66.2938 21.8764 70.3388 21.9987C72.3622 22.0598 74.0338 21.9678 75.2018 21.8601C75.7859 21.8062 76.2444 21.7484 76.5582 21.7038C76.7151 21.6815 76.8359 21.6625 76.9182 21.6489C76.9594 21.6421 76.9909 21.6367 77.0125 21.6329L77.0374 21.6285L77.0443 21.6272L77.0469 21.6268Z" fill="#2585AA"/>
<path fill-rule="evenodd" clip-rule="evenodd" d="M22.9932 58.5404C22.9928 58.5405 22.9924 58.5406 23.1195 59.2047C23.2467 59.8688 23.2462 59.8689 23.2456 59.869L23.2442 59.8693L23.2407 59.8699L23.2304 59.8718C23.2221 59.8733 23.211 59.8752 23.1972 59.8775C23.1696 59.8821 23.1312 59.8882 23.0825 59.895C22.9853 59.9085 22.8473 59.9252 22.6742 59.9391C22.3283 59.9671 21.8402 59.9846 21.2567 59.9456C20.0916 59.8677 18.5283 59.563 16.9591 58.6488C13.7702 56.7911 10.7925 52.5672 10.7699 43.4047L12.1222 43.4013C12.1441 52.2673 15.003 55.9442 17.6398 57.4803C18.9834 58.263 20.3302 58.5283 21.3469 58.5963C21.8543 58.6302 22.2751 58.6146 22.5654 58.5912C22.7103 58.5795 22.8222 58.5659 22.8953 58.5556C22.9319 58.5505 22.9587 58.5463 22.9751 58.5435L22.9919 58.5407L22.9932 58.5404ZM22.9942 58.5402L22.9932 58.5404L22.9938 58.5403C22.994 58.5403 22.9941 58.5403 22.9942 58.5402Z" fill="#2489B7"/>
<path d="M14.6045 43.3265C14.3761 44.4142 13.4185 45.3451 12.151 45.5654C10.5359 45.8489 9.00674 44.8921 8.75453 43.4379L8.12832 39.852C8.12235 39.8297 8.12046 39.8004 8.12007 39.7766C8.11709 39.7655 8.1141 39.7543 8.10963 39.7376L7.26112 34.8984C7.19461 34.5164 7.48389 34.1465 7.90689 34.0749C8.3299 34.0033 8.73013 34.2482 8.79663 34.6302L9.25733 37.2638C9.43715 37.1321 9.63966 37.0182 9.84814 36.9265L9.29479 33.7686C9.22828 33.3866 9.51757 33.0167 9.94057 32.9451C10.3636 32.8736 10.7638 33.1184 10.8303 33.5004L11.3837 36.6583C11.5911 36.6743 11.796 36.7029 11.9901 36.7584L11.5141 34.0453C11.4476 33.6633 11.7369 33.2933 12.1599 33.2218C12.5829 33.1502 12.9831 33.395 13.0496 33.7771L13.8439 38.3026C13.905 38.4414 13.9438 38.5861 13.977 38.7324L14.1201 37.8168C14.1781 37.4313 14.5753 37.1518 14.9973 37.1879C15.4208 37.2296 15.7163 37.5741 15.6582 37.9597" fill="#A2CCED"/>
</svg>
