<svg width="120" height="145" viewBox="0 0 120 145" fill="none" xmlns="http://www.w3.org/2000/svg">
<path d="M32.0748 74.0033C32.0748 74.0033 19.8251 85.2541 23.1527 101.331" stroke="#0F8AB2" stroke-width="4" stroke-miterlimit="10" stroke-linecap="round"/>
<path d="M86.18 74.7272C86.18 74.7272 97.3748 85.9163 94.7935 102.133" stroke="#0F8AB2" stroke-width="4" stroke-miterlimit="10" stroke-linecap="round"/>
<path d="M26.4073 97.0437C25.7339 95.8765 24.1627 95.2032 22.3559 95.4669C20.0832 95.8092 18.3381 97.5431 18.4728 99.3219L18.8151 103.716C18.8124 103.747 18.8124 103.779 18.8151 103.811C18.8151 103.811 18.8151 103.845 18.8151 103.856L19.2696 109.793C19.2972 109.912 19.3483 110.025 19.42 110.124C19.4917 110.223 19.5824 110.307 19.6869 110.371C19.7914 110.435 19.9076 110.477 20.0287 110.495C20.1497 110.514 20.2732 110.507 20.3919 110.477C20.6546 110.463 20.903 110.353 21.0901 110.168C21.2772 109.983 21.3901 109.736 21.4075 109.473L21.1606 106.241C21.4582 106.319 21.7626 106.368 22.0697 106.387L22.3727 110.259C22.399 110.379 22.4492 110.492 22.5204 110.593C22.5916 110.693 22.6823 110.778 22.7871 110.842C22.8919 110.907 23.0086 110.949 23.1302 110.968C23.2518 110.986 23.3759 110.98 23.495 110.949C23.7578 110.932 24.0056 110.82 24.1923 110.634C24.3791 110.449 24.4922 110.201 24.5106 109.939L24.2076 106.067C24.479 105.967 24.7418 105.845 24.9932 105.702L25.2514 109.03C25.285 109.495 25.8125 109.804 26.3736 109.72C26.6365 109.703 26.8842 109.591 27.071 109.405C27.2578 109.22 27.3708 108.973 27.3893 108.71L26.9572 103.16C26.9909 102.975 27.004 102.787 26.9965 102.599L27.4903 103.598C27.6428 103.812 27.8657 103.966 28.12 104.033C28.3743 104.099 28.644 104.074 28.8819 103.963C29.0032 103.933 29.1171 103.879 29.2163 103.803C29.3155 103.728 29.3978 103.632 29.458 103.523C29.5181 103.414 29.5549 103.293 29.5659 103.169C29.5768 103.044 29.5618 102.919 29.5216 102.801" fill="#A2CCED"/>
<path d="M91.1237 97.0437C91.7914 95.8765 93.3683 95.2032 95.1751 95.4669C97.4197 95.8092 99.1929 97.5431 99.0526 99.3219L98.7159 103.716V103.811C98.7159 103.811 98.7159 103.845 98.7159 103.856L98.2558 109.793C98.2221 110.259 97.6946 110.567 97.1335 110.477C96.8712 110.462 96.6235 110.351 96.4366 110.166C96.2497 109.982 96.1364 109.735 96.1178 109.473L96.3704 106.241C96.0709 106.319 95.7646 106.368 95.4557 106.387L95.1583 110.259C95.132 110.379 95.0818 110.492 95.0106 110.593C94.9394 110.693 94.8487 110.778 94.7439 110.842C94.6391 110.907 94.5224 110.949 94.4008 110.968C94.2792 110.986 94.1551 110.98 94.036 110.949C93.7732 110.932 93.5254 110.82 93.3386 110.634C93.1519 110.449 93.0388 110.201 93.0203 109.939L93.3177 106.067C93.0477 105.968 92.7867 105.846 92.5378 105.702L92.2796 109.03C92.252 109.149 92.2009 109.262 92.1293 109.361C92.0577 109.461 91.9671 109.545 91.8627 109.609C91.7583 109.673 91.6422 109.716 91.5211 109.735C91.4 109.754 91.2764 109.749 91.1574 109.72C90.5625 109.63 90.1024 109.159 90.1417 108.71L90.5682 103.16C90.5345 102.975 90.5214 102.787 90.5289 102.599L90.0351 103.598C89.8826 103.812 89.6597 103.966 89.4054 104.033C89.1511 104.099 88.8814 104.074 88.6434 103.963V103.963C88.5231 103.932 88.4104 103.877 88.3123 103.801C88.2142 103.725 88.1328 103.629 88.0733 103.52C88.0138 103.411 87.9774 103.291 87.9664 103.167C87.9554 103.043 87.97 102.919 88.0094 102.801" fill="#A2CCED"/>
<path d="M44.7173 101.858L49.2457 134.073H51.8831L56.4115 101.959" fill="#00A1CD"/>
<path d="M59.9691 101.707L64.5031 133.922H67.1349L71.6689 101.808" fill="#00A1CD"/>
<path d="M51.928 133.226L53.2972 124.001H47.5062L49.0886 133.091L51.928 133.226Z" fill="#56C5D0"/>
<path d="M67.0844 133.226L68.4592 124.001H63.1789L64.2506 133.091L67.0844 133.226Z" fill="#56C5D0"/>
<path d="M53.488 134.225C53.4394 132.608 52.7627 131.073 51.6015 129.946C50.4403 128.819 48.8858 128.189 47.2677 128.189C45.6496 128.189 44.0951 128.819 42.9339 129.946C41.7727 131.073 41.0961 132.608 41.0475 134.225" fill="#504B48"/>
<path d="M75.4791 134.225C75.4791 132.576 74.824 130.995 73.658 129.829C72.492 128.663 70.9106 128.007 69.2616 128.007C67.6127 128.007 66.0312 128.663 64.8652 129.829C63.6992 130.995 63.0442 132.576 63.0442 134.225" fill="#504B48"/>
<path d="M76.7978 99.9897C81.9602 94.1932 84.2048 86.4494 86.483 79.1995C89.4066 69.9126 92.3301 60.5022 94.6476 51.0526C96.78 42.3493 99.3556 32.7258 96.3311 23.9215C93.2111 14.8927 85.473 10.6 76.4218 10.4204C68.3694 10.2577 60.317 10.0949 52.2927 10.1735C46.1202 10.2352 36.8277 8.88288 31.3341 12.1151C25.1447 15.712 20.2291 20.852 18.7589 28.0571C17.5974 33.7078 18.3605 39.5885 19.6399 45.2168C23.0966 60.4181 28.7978 75.1929 34.4709 89.676C39.0386 101.331 47.5286 107.133 56.5237 107.133C61.6582 107.133 67.1854 106.875 71.8204 104.406C73.9023 103.306 75.1929 101.774 76.7978 99.9897Z" fill="#00A1CD"/>
<path d="M45.2167 33.0792L51.7204 31.9008" stroke="#0D4060" stroke-width="1.86" stroke-miterlimit="10" stroke-linecap="round"/>
<path d="M70.8777 33.0792L64.3741 31.9008" stroke="#0D4060" stroke-width="1.86" stroke-miterlimit="10" stroke-linecap="round"/>
<path d="M65.401 45.4524C65.401 45.4524 64.1665 49.4253 58.0725 49.3075C51.9785 49.1896 51.5071 45.4524 51.5071 45.4524H65.401Z" fill="#0D4060"/>
<path d="M61.0241 40.548C61.0241 37.776 63.4201 35.5314 66.3717 35.5314C69.3233 35.5314 71.725 37.776 71.725 40.548" fill="white"/>
<path d="M64.0767 40.5481C64.0612 40.233 64.1099 39.9181 64.2198 39.6224C64.3297 39.3267 64.4985 39.0565 64.716 38.828C64.9335 38.5996 65.1952 38.4177 65.4851 38.2934C65.775 38.1691 66.0872 38.105 66.4026 38.105C66.718 38.105 67.0302 38.1691 67.3201 38.2934C67.61 38.4177 67.8717 38.5996 68.0892 38.828C68.3067 39.0565 68.4755 39.3267 68.5854 39.6224C68.6953 39.9181 68.744 40.233 68.7285 40.5481" fill="#0D4060"/>
<path d="M45.6713 40.548C45.6713 37.776 48.0842 35.5314 51.0526 35.5314C54.021 35.5314 56.4339 37.776 56.4339 40.548" fill="white"/>
<path d="M48.7239 40.5481C48.7239 39.9304 48.9692 39.3381 49.4059 38.9014C49.8427 38.4647 50.435 38.2193 51.0526 38.2193C51.6702 38.2193 52.2626 38.4647 52.6993 38.9014C53.136 39.3381 53.3813 39.9304 53.3813 40.5481" fill="#0D4060"/>
</svg>
