<svg width="120" height="120" viewBox="0 0 120 120" fill="none" xmlns="http://www.w3.org/2000/svg">
<rect width="120" height="120" fill="white"/>
<g clip-path="url(#clip0)">
<path d="M21.4945 49.0272C22.0235 57.9746 29.0625 63.5094 32.5158 65.1584L31.6341 68.3846C22.6407 64.083 19.2168 54.1175 18.629 49.6724L21.4945 49.0272Z" fill="#0F8AB2"/>
<path d="M96.4796 76.3801C97.7421 78.4842 98.0613 81.991 98.4821 84.586L101.428 83.9548C99.7445 72.3403 92.5907 67.052 89.2242 65.8597C88.8034 66.9118 88.4667 69.2683 90.4866 70.2783C93.0115 71.5407 94.9487 73.8285 96.4796 76.3801Z" fill="#0F8AB2"/>
<path d="M96.0364 90.7388C95.9896 91.1244 96.3582 91.4515 96.8555 91.4748C97.3529 91.4924 97.7975 91.1945 97.8443 90.8089L97.9555 89.8918C98.0023 90.0379 98.0608 90.1781 98.1369 90.3124L99.3188 94.7635C99.4182 95.1374 99.898 95.3652 100.389 95.2717C100.881 95.1783 101.197 94.7986 101.097 94.4247L100.384 91.7552C100.612 91.7961 100.852 91.8195 101.097 91.8253L101.922 94.9329C102.022 95.3068 102.502 95.5346 102.993 95.4411C103.485 95.3477 103.801 94.968 103.701 94.5941L102.876 91.4865C103.116 91.3814 103.344 91.2646 103.549 91.1244L104.239 93.7179C104.339 94.0918 104.819 94.3196 105.31 94.2261C105.802 94.1327 106.118 93.753 106.018 93.3791L104.748 88.6184C104.743 88.6067 104.737 88.5951 104.731 88.5834C104.725 88.56 104.725 88.5308 104.713 88.5074L103.777 84.9792C103.397 83.5481 101.554 82.6719 99.6874 83.0282C98.2188 83.3086 97.1539 84.2724 96.9491 85.3648L96.0364 90.7388Z" fill="#A2CCED"/>
<path d="M24.005 42.2026C24.0518 41.8171 23.6832 41.49 23.1859 41.4666C22.6886 41.4491 22.2439 41.747 22.1971 42.1325L22.0859 43.0496C22.0391 42.9036 21.9806 42.7634 21.9046 42.629L20.7227 38.1779C20.6232 37.8041 20.1434 37.5763 19.652 37.6697C19.1605 37.7632 18.8445 38.1429 18.944 38.5167L19.6578 41.1862C19.4296 41.1453 19.1898 41.122 18.944 41.1161L18.119 38.0085C18.0196 37.6347 17.5398 37.4069 17.0483 37.5003C16.5568 37.5938 16.2409 37.9735 16.3404 38.3473L17.1653 41.4549C16.9255 41.5601 16.6973 41.6769 16.4925 41.8171L15.8021 39.2235C15.7026 38.8497 15.2228 38.6219 14.7314 38.7153C14.2399 38.8088 13.9239 39.1885 14.0234 39.5623L15.2931 44.323C15.2989 44.3347 15.3048 44.3464 15.3106 44.3581C15.3165 44.3815 15.3165 44.4107 15.3282 44.434L16.2643 47.9622C16.6446 49.3934 18.4876 50.2696 20.3541 49.9132C21.8227 49.6329 22.8875 48.669 23.0923 47.5767L24.005 42.2026Z" fill="#A2CCED"/>
<path d="M59.6253 4C41.2886 4 26.4273 8.52122 26.4273 27.8445C26.4273 32.7454 27.0768 37.6872 27.7672 42.5297C28.5278 47.9038 29.4756 53.2662 30.8915 58.5117C31.5117 60.8191 32.249 62.8402 32.0091 65.2644C31.7984 67.3848 31.2075 69.5461 30.2596 71.4621C27.147 77.7415 26.8135 84.2488 30.5171 91.0657C38.4099 99.7927 49.6963 99.4598 59.8944 99.4598C68.4426 99.4598 78.3599 98.8056 85.3692 93.3263C88.2596 91.0657 90.3601 88.0048 91.5185 84.5351C92.2089 82.4847 92.4313 80.4344 92.7004 78.3082C93.069 75.3699 92.2558 72.829 91.1441 70.1594C89.4766 66.1523 87.575 60.749 88.675 56.3621C91.226 46.128 92.8291 32.6461 92.8291 27.459C92.8233 8.12985 77.962 4 59.6253 4Z" fill="#00A1CD"/>
<path d="M58.2386 34.6205C58.2386 32.0503 56.1557 29.9708 53.5813 29.9708C51.0069 29.9708 48.924 32.0503 48.924 34.6205H58.2386Z" fill="white"/>
<path d="M70.2915 34.6205C70.2915 32.0503 68.2085 29.9708 65.6342 29.9708C63.0598 29.9708 60.9768 32.0503 60.9768 34.6205H70.2915Z" fill="white"/>
<path d="M62.738 98.7004L65.2012 114.811H68.1501L70.5665 98.0695L62.738 98.7004Z" fill="#00A1CD"/>
<path d="M68.1208 118.818H65.2246L63.7034 105.774H69.4548L68.1208 118.818Z" fill="#ED1651"/>
<path d="M55.8924 98.7004L53.4292 114.811H50.4745L47.6719 98.0695L55.8924 98.7004Z" fill="#00A1CD"/>
<path d="M53.3648 118.731H50.4745L48.9357 105.687H54.8919L53.3648 118.731Z" fill="#ED1651"/>
<path d="M65.2538 118.882C65.2538 116.149 67.4772 113.929 70.2154 113.929C72.9536 113.929 75.177 116.149 75.177 118.882" fill="#504B48"/>
<path d="M43.8571 118.882C43.8571 116.149 46.0805 113.929 48.8187 113.929C51.5569 113.929 53.7803 116.149 53.7803 118.882" fill="#504B48"/>
<path d="M64.9321 39.463C64.9321 39.463 65.2188 43.7214 59.6253 43.7214C54.1664 43.7214 54.3186 39.463 54.3186 39.463H64.9321Z" fill="#0D4060"/>
<path d="M51.4048 34.6205C51.4048 33.5106 52.3058 32.6111 53.4175 32.6111C54.5292 32.6111 55.4302 33.5106 55.4302 34.6205" fill="#0D4060"/>
<path d="M63.4576 34.6205C63.4576 33.5106 64.3587 32.6111 65.4703 32.6111C66.582 32.6111 67.483 33.5106 67.483 34.6205" fill="#0D4060"/>
<path fill-rule="evenodd" clip-rule="evenodd" d="M70.0139 27.7045C70.014 27.7049 70.0142 27.7053 69.4373 27.9613C68.8603 28.2173 68.8605 28.2177 68.8606 28.218L68.8609 28.2187L68.8614 28.2198L68.8621 28.2214C68.8623 28.2217 68.8624 28.2219 68.8624 28.222L68.8623 28.2217C68.8618 28.2208 68.8602 28.2174 68.8575 28.2119C68.852 28.2009 68.8419 28.1813 68.8271 28.1549C68.7972 28.1017 68.7486 28.022 68.6795 27.9283C68.5403 27.7395 68.3249 27.5034 68.0206 27.3087C67.4484 26.9427 66.4411 26.6453 64.7615 27.3723L64.2601 26.2137C66.2782 25.3402 67.7342 25.6269 68.7008 26.2452C69.1659 26.5427 69.4888 26.8987 69.6955 27.1791C69.7994 27.3199 69.8757 27.444 69.9274 27.536C69.9534 27.5822 69.9733 27.6205 69.9876 27.6493C69.9948 27.6636 70.0005 27.6757 70.005 27.6851L70.0106 27.6972L70.0126 27.7017L70.0135 27.7036L70.0139 27.7045Z" fill="#0D4060"/>
<path fill-rule="evenodd" clip-rule="evenodd" d="M49.7581 28.2181C49.7582 28.2177 49.7584 28.2173 49.1814 27.9613C48.6045 27.7053 48.6046 27.7049 48.6048 27.7045L48.6052 27.7036L48.606 27.7017L48.6081 27.6972L48.6137 27.6851C48.6181 27.6757 48.6239 27.6636 48.6311 27.6493C48.6454 27.6205 48.6653 27.5822 48.6913 27.536C48.743 27.444 48.8193 27.3199 48.9232 27.1791C49.1299 26.8987 49.4528 26.5427 49.9179 26.2452C50.8844 25.6269 52.3404 25.3402 54.3586 26.2137L53.8571 27.3723C52.1776 26.6453 51.1703 26.9427 50.5981 27.3087C50.2938 27.5034 50.0784 27.7395 49.9392 27.9283C49.8701 28.022 49.8215 28.1017 49.7916 28.1549C49.7767 28.1813 49.7667 28.2009 49.7612 28.2119C49.7584 28.2174 49.7569 28.2208 49.7564 28.2218C49.7562 28.2222 49.7562 28.2221 49.7566 28.2214L49.7573 28.2198L49.7578 28.2187L49.7581 28.2181Z" fill="#0D4060"/>
</g>
<defs>
<clipPath id="clip0">
<rect width="93" height="114.882" fill="white" transform="translate(14 4)"/>
</clipPath>
</defs>
</svg>
