<svg width="120" height="120" viewBox="0 0 120 120" fill="none" xmlns="http://www.w3.org/2000/svg">
<rect width="120" height="120" fill="white"/>
<path d="M69.9553 114.397L73.6669 89.8922H62.9526L66.6887 115.106L69.5494 113.296" fill="#00A1CD"/>
<path d="M51.2604 113.101L46.5952 90.5964H58.2239L54.0429 114.397L50.0526 113.101" fill="#00A1CD"/>
<path d="M49.9694 106.548H55.5783L54.2091 114.597H50.7958L49.9694 106.548Z" fill="#ED1651"/>
<path d="M65.3195 106.866H70.9284L70.0971 114.915H66.6838L65.3195 106.866Z" fill="#ED1651"/>
<path d="M42.9521 115.106C42.9521 111.932 45.5194 109.355 48.6882 109.355C51.857 109.355 54.4243 111.932 54.4243 115.106" fill="#504B48"/>
<path d="M66.6985 115.106C66.6985 111.932 69.2658 109.355 72.4346 109.355C75.6034 109.355 78.1707 111.932 78.1707 115.106" fill="#504B48"/>
<path fill-rule="evenodd" clip-rule="evenodd" d="M96.1555 57.904C96.3672 57.2904 97.0363 56.9646 97.65 57.1763L97.2666 58.2874C97.65 57.1763 97.651 57.1767 97.6521 57.177L97.6543 57.1778L97.6595 57.1796L97.672 57.1841C97.6813 57.1875 97.6926 57.1916 97.7059 57.1966C97.7323 57.2066 97.7665 57.22 97.8079 57.2371C97.8908 57.2713 98.0026 57.3205 98.1398 57.3876C98.4142 57.5219 98.7897 57.7279 99.2373 58.0297C100.134 58.6341 101.312 59.6182 102.542 61.1683C105.006 64.2743 107.627 69.5919 108.655 78.5501C108.729 79.195 108.266 79.7778 107.621 79.8518C106.976 79.9258 106.393 79.4629 106.319 78.818C105.332 70.2109 102.843 65.3302 100.7 62.6292C99.6268 61.2758 98.6282 60.4542 97.9231 59.9788C97.5699 59.7407 97.2887 59.5883 97.1065 59.4991C97.0153 59.4545 96.9489 59.4257 96.9105 59.4099C96.8914 59.4019 96.8792 59.3973 96.8745 59.3955C96.8741 59.3954 96.8738 59.3952 96.8736 59.3951C96.2661 59.1797 95.9449 58.5144 96.1555 57.904Z" fill="#0F8AB2"/>
<path d="M104.122 77.9359C104.47 76.7769 105.726 75.8576 107.345 75.7206C109.404 75.5495 111.291 76.7035 111.536 78.2928L112.147 82.2098C112.152 82.2392 112.152 82.2636 112.157 82.2929C112.162 82.3076 112.167 82.3174 112.167 82.3321L112.993 87.6232C113.057 88.0388 112.67 88.4154 112.132 88.4594C111.595 88.5034 111.101 88.2002 111.037 87.7845L110.587 84.9043C110.352 85.0314 110.093 85.139 109.819 85.2221L110.357 88.6745C110.421 89.0902 110.035 89.4667 109.497 89.5108C108.959 89.5548 108.465 89.2516 108.401 88.8359L107.863 85.3835C107.599 85.3493 107.345 85.3004 107.101 85.227L107.565 88.1953C107.629 88.611 107.242 88.9875 106.704 89.0315C106.167 89.0755 105.673 88.7723 105.609 88.3567L104.836 83.4128C104.768 83.2612 104.724 83.0998 104.69 82.9384L104.465 83.9165C104.372 84.3272 103.854 84.6011 103.321 84.5228C102.787 84.4446 102.426 84.0436 102.523 83.6377" fill="#A2CCED"/>
<path fill-rule="evenodd" clip-rule="evenodd" d="M23.1265 57.7023C23.7339 57.9177 24.0551 58.583 23.8445 59.1934C23.6328 59.807 22.9637 60.1328 22.35 59.9211L22.7334 58.81C22.35 59.9211 22.349 59.9207 22.3479 59.9204L22.3457 59.9196L22.3405 59.9178L22.328 59.9133C22.3187 59.9099 22.3074 59.9058 22.2941 59.9008C22.2677 59.8908 22.2335 59.8774 22.1921 59.8603C22.1092 59.8261 21.9974 59.7769 21.8602 59.7098C21.5858 59.5755 21.2103 59.3695 20.7627 59.0677C19.8663 58.4633 18.6876 57.4792 17.4579 55.9291C14.994 52.8231 12.3729 47.5055 11.3453 38.5473C11.2714 37.9024 11.7342 37.3196 12.3791 37.2456C13.0241 37.1716 13.6068 37.6345 13.6808 38.2794C14.668 46.8865 17.157 51.7672 19.2996 54.4682C20.3732 55.8216 21.3718 56.6432 22.0769 57.1186C22.4301 57.3567 22.7113 57.5091 22.8935 57.5983C22.9847 57.6429 23.0511 57.6717 23.0895 57.6875C23.1086 57.6955 23.1208 57.7001 23.1255 57.7019C23.1259 57.702 23.1262 57.7022 23.1265 57.7023Z" fill="#0F8AB2"/>
<path d="M15.8775 39.1615C15.5303 40.3205 14.2736 41.2398 12.6549 41.3768C10.5962 41.5479 8.70861 40.3938 8.4641 38.8046L7.85284 34.8876C7.84794 34.8582 7.84794 34.8338 7.84305 34.8044C7.83816 34.7898 7.83327 34.78 7.83327 34.7653L7.00685 29.4742C6.94327 29.0586 7.32959 28.682 7.8675 28.638C8.40542 28.594 8.89932 28.8972 8.96289 29.3129L9.41278 32.1931C9.64751 32.066 9.90668 31.9584 10.1805 31.8753L9.64262 28.4229C9.57904 28.0072 9.96536 27.6307 10.5033 27.5866C11.0412 27.5426 11.5351 27.8458 11.5987 28.2615L12.1366 31.7139C12.4006 31.7481 12.6549 31.797 12.8994 31.8704L12.4349 28.9021C12.3713 28.4864 12.7576 28.1099 13.2955 28.0659C13.8334 28.0219 14.3273 28.3251 14.3909 28.7407L15.1636 33.6846C15.232 33.8362 15.276 33.9976 15.3103 34.159L15.5352 33.1809C15.6281 32.7702 16.1465 32.4963 16.6795 32.5746C17.2125 32.6528 17.5744 33.0538 17.4766 33.4597" fill="#A2CCED"/>
<path d="M22.6483 63.3096C22.6483 46.6734 30.9126 30.5214 41.6122 18.9954C69.1924 -10.717 99.9072 32.1791 99.9072 64.6837C99.9072 88.6746 80.914 94.4889 61.9111 94.4889C42.9032 94.4889 22.6483 87.2956 22.6483 63.3096Z" fill="#00A1CD"/>
<path fill-rule="evenodd" clip-rule="evenodd" d="M50.5129 29.7332L50.515 29.7292C50.5172 29.7249 50.5211 29.7174 50.5267 29.707C50.538 29.6862 50.556 29.6538 50.581 29.612C50.6309 29.5283 50.7078 29.4079 50.8122 29.2684C51.0222 28.9877 51.3356 28.6398 51.7538 28.3551C52.169 28.0724 52.6847 27.8535 53.311 27.8191C53.9368 27.7847 54.7063 27.9328 55.6325 28.4359C55.8608 28.5599 56.1465 28.4754 56.2705 28.2471C56.3945 28.0188 56.31 27.7331 56.0817 27.6091C55.0274 27.0364 54.086 26.8342 53.2594 26.8796C52.4333 26.925 51.7552 27.2158 51.2242 27.5774C50.6961 27.937 50.3109 28.3679 50.0588 28.7048C49.9321 28.8742 49.8371 29.0224 49.7729 29.13C49.7407 29.1839 49.7162 29.2279 49.6991 29.2595C49.6905 29.2753 49.6838 29.2881 49.6789 29.2975L49.673 29.3091L49.6711 29.3129L49.6704 29.3143L49.6701 29.3149C49.67 29.3152 49.6699 29.3154 50.0917 29.5238L49.6699 29.3154C49.5548 29.5484 49.6503 29.8305 49.8833 29.9456C50.1161 30.0606 50.398 29.9652 50.5132 29.7325M50.5129 29.7333C50.5128 29.7335 50.5128 29.7334 50.5129 29.7332Z" fill="#0D4060"/>
<path fill-rule="evenodd" clip-rule="evenodd" d="M73.6898 29.3666C73.6899 29.3669 73.69 29.3672 73.2464 29.5238L73.69 29.3672C73.7765 29.6122 73.648 29.8809 73.403 29.9674C73.1584 30.0537 72.8902 29.9258 72.8032 29.6817C72.8031 29.6814 72.803 29.6811 72.8029 29.6809C72.8029 29.6809 72.8029 29.6808 72.8029 29.6808M72.8029 29.6809L72.803 29.6812L72.8018 29.6778C72.8002 29.6736 72.7974 29.6661 72.7932 29.6557C72.785 29.6348 72.7716 29.6022 72.7527 29.56C72.7149 29.4756 72.6557 29.3541 72.5732 29.2134C72.4065 28.9294 72.1526 28.5814 71.7984 28.2971C71.4486 28.0163 71.0018 27.7975 70.4316 27.7589C69.8589 27.7202 69.1216 27.8606 68.1898 28.3673C67.9615 28.4915 67.6759 28.407 67.5517 28.1788C67.4276 27.9505 67.512 27.6649 67.7403 27.5407C68.7914 26.9692 69.7058 26.7667 70.4951 26.8201C71.287 26.8737 71.9126 27.1821 72.3874 27.5633C72.8579 27.941 73.1807 28.3897 73.3846 28.7371C73.4873 28.912 73.5619 29.0648 73.6115 29.1757C73.6364 29.2312 73.6551 29.2765 73.668 29.3092C73.6745 29.3255 73.6795 29.3387 73.6832 29.3485L73.6876 29.3605L73.6891 29.3645L73.6896 29.366L73.6898 29.3666" fill="#0D4060"/>
<path d="M68.2437 40.4581C68.2437 40.4581 67.1288 44.0376 61.6372 43.93C56.1456 43.8225 55.7153 40.4581 55.7153 40.4581H68.2437Z" fill="#0D4060"/>
<path d="M64.3268 36.0374C64.3268 33.5386 66.4882 31.5141 69.1484 31.5141C71.8135 31.5141 73.9701 33.5386 73.9701 36.0374" fill="white"/>
<path d="M67.0799 36.0374C67.0799 34.8784 68.0188 33.9395 69.1778 33.9395C70.3367 33.9395 71.2756 34.8784 71.2756 36.0374" fill="#0D4060"/>
<path d="M49.9841 36.0374C49.9841 33.5386 52.1553 31.5141 54.8351 31.5141C57.5149 31.5141 59.6861 33.5386 59.6861 36.0374" fill="white"/>
<path d="M52.7372 36.0374C52.7372 34.8784 53.6761 33.9395 54.8351 33.9395C55.9941 33.9395 56.933 34.8784 56.933 36.0374" fill="#0D4060"/>
<path d="M50.4046 33.9053L47.896 32.8001L50.121 34.7415C50.0917 34.854 50.0721 34.9567 50.0525 35.0594L47.8764 34.7562L49.9547 35.7293C49.9254 36.0374 49.9303 36.233 49.9303 36.233C51.0941 32.1449 53.4218 31.6021 54.0918 31.5287C51.9548 31.5972 50.9083 32.7512 50.4046 33.9053Z" fill="#0D4060"/>
<path d="M54.0869 31.5287C54.1505 31.5287 54.2091 31.5141 54.2727 31.5141C54.2776 31.5189 54.2042 31.5189 54.0869 31.5287Z" fill="#0D4060"/>
<path d="M76.1608 34.7562L73.9847 35.0594C73.9652 34.9567 73.9407 34.8491 73.9163 34.7415L76.1413 32.8001L73.6326 33.9053C73.129 32.7512 72.0825 31.5972 69.9455 31.5287C70.6106 31.6021 72.9431 32.1449 74.107 36.233C74.107 36.233 74.1119 36.0374 74.0825 35.7293L76.1608 34.7562Z" fill="#0D4060"/>
<path d="M68.9626 31.5287C68.8452 31.5141 68.7767 31.5141 68.7767 31.5141C68.8452 31.5141 68.899 31.5287 68.9626 31.5287Z" fill="#0D4060"/>
</svg>
