<svg width="340" height="293" viewBox="0 0 340 293" fill="none" xmlns="http://www.w3.org/2000/svg">
<rect width="340" height="293" fill="white"/>
<rect x="9.5" y="29.5" width="318" height="245" stroke="black"/>
<rect x="23.6124" y="83.7765" width="132" height="210" rx="18.5" transform="rotate(-15 23.6124 83.7765)" fill="white" stroke="black"/>
<rect x="36.6954" y="102.375" width="115.049" height="161.018" transform="rotate(-15 36.6954 102.375)" fill="white" stroke="black"/>
<rect x="128.115" y="252.114" width="22.4706" height="11.5595" transform="rotate(-15 128.115 252.114)" fill="white" stroke="black"/>
<path d="M78.5158 125.142L85.2904 134.613L86.4318 123.028L89.517 122.204L93.1856 135.941L90.808 136.576L89.5986 132.047L88.2168 125.927L86.9868 137.597L85.2791 138.053L78.407 128.557L80.2579 134.542L81.4674 139.071L79.0898 139.705L75.4211 125.968L78.5158 125.142ZM101.857 132.554C101.395 133.526 100.545 134.178 99.3061 134.509C98.1991 134.804 97.2728 134.705 96.5274 134.21C95.7883 133.713 95.255 132.851 94.9274 131.625L93.1611 125.011L95.4538 124.399L97.2126 130.984C97.5586 132.28 98.2694 132.784 99.345 132.497C100.458 132.2 101.103 131.6 101.28 130.697L99.3222 123.366L101.615 122.753L104.341 132.962L102.181 133.539L101.857 132.554ZM106.251 121.515L106.602 122.564C107.095 121.536 107.965 120.855 109.21 120.523C110.575 120.158 111.649 120.431 112.431 121.341C112.894 120.098 113.799 119.297 115.145 118.938C116.271 118.637 117.19 118.725 117.904 119.202C118.624 119.677 119.152 120.519 119.489 121.73L121.28 128.438L118.988 129.051L117.214 122.408C117.041 121.76 116.772 121.323 116.409 121.097C116.045 120.871 115.536 120.845 114.882 121.02C114.36 121.159 113.97 121.415 113.712 121.787C113.459 122.151 113.327 122.577 113.316 123.065L115.195 130.063L112.902 130.676L111.108 123.958C110.756 122.765 109.982 122.328 108.787 122.647C107.869 122.893 107.318 123.441 107.134 124.292L109.109 131.689L106.817 132.301L104.09 122.092L106.251 121.515ZM120.543 118.285L119.179 117.871C119.526 116.895 119.585 115.946 119.359 115.023L118.961 113.532L120.971 112.995L121.318 114.297C121.491 114.945 121.499 115.644 121.342 116.393C121.19 117.135 120.924 117.765 120.543 118.285ZM129.774 123.198C129.665 122.789 129.412 122.523 129.015 122.4C128.624 122.275 128.017 122.235 127.194 122.28C126.37 122.325 125.664 122.291 125.074 122.179C123.782 121.931 122.995 121.282 122.715 120.232C122.479 119.351 122.654 118.516 123.238 117.727C123.823 116.937 124.687 116.39 125.832 116.084C127.052 115.758 128.117 115.797 129.027 116.201C129.943 116.603 130.53 117.286 130.787 118.248L128.494 118.86C128.376 118.42 128.115 118.099 127.711 117.897C127.305 117.688 126.832 117.657 126.291 117.801C125.787 117.935 125.406 118.162 125.148 118.48C124.895 118.797 124.821 119.15 124.926 119.54C125.02 119.892 125.24 120.127 125.588 120.243C125.936 120.359 126.586 120.397 127.54 120.358C128.491 120.313 129.259 120.361 129.842 120.502C130.43 120.634 130.898 120.86 131.246 121.178C131.6 121.494 131.85 121.926 131.996 122.473C132.241 123.392 132.06 124.239 131.451 125.014C130.842 125.784 129.92 126.333 128.687 126.662C127.851 126.886 127.065 126.934 126.33 126.807C125.596 126.679 124.975 126.4 124.469 125.969C123.963 125.538 123.629 125.018 123.466 124.408L125.693 123.813C125.869 124.346 126.185 124.709 126.641 124.904C127.096 125.093 127.634 125.104 128.257 124.938C128.861 124.776 129.29 124.541 129.544 124.23C129.796 123.913 129.873 123.569 129.774 123.198ZM91.8979 153.854L86.369 155.331L87.9236 161.152L85.5366 161.79L81.868 148.053L90.5953 145.722L91.1093 147.647L84.769 149.34L85.86 153.425L91.3889 151.949L91.8979 153.854ZM99.0163 149.497C98.7009 149.528 98.3828 149.586 98.062 149.671C97.0116 149.952 96.4115 150.543 96.2617 151.446L98.1262 158.428L95.8335 159.04L93.1073 148.831L95.2962 148.247L95.6577 149.373C95.9743 148.339 96.6233 147.69 97.6045 147.428C97.9316 147.341 98.2138 147.313 98.4512 147.344L99.0163 149.497ZM105.215 156.535L102.923 157.147L100.196 146.938L102.489 146.326L105.215 156.535ZM99.3468 144.325C99.2527 143.973 99.2847 143.651 99.4427 143.359C99.607 143.066 99.8967 142.864 100.312 142.753C100.727 142.642 101.079 142.673 101.367 142.845C101.656 143.017 101.847 143.28 101.941 143.632C102.034 143.978 101.998 144.297 101.834 144.591C101.668 144.877 101.377 145.076 100.962 145.187C100.547 145.298 100.196 145.271 99.9088 145.105C99.6265 144.931 99.4392 144.671 99.3468 144.325ZM112.411 154.815C110.958 155.203 109.657 155.062 108.508 154.392C107.363 153.714 106.588 152.613 106.181 151.091L106.105 150.808C105.833 149.789 105.786 148.828 105.962 147.925C106.144 147.014 106.53 146.241 107.121 145.604C107.713 144.968 108.446 144.533 109.32 144.299C110.71 143.928 111.901 144.085 112.893 144.771C113.891 145.454 114.606 146.607 115.04 148.23L115.287 149.155L108.616 150.936C108.91 151.761 109.368 152.353 109.99 152.712C110.618 153.07 111.306 153.149 112.055 152.949C113.105 152.669 113.847 152.016 114.281 150.99L115.832 151.84C115.586 152.559 115.165 153.18 114.571 153.703C113.98 154.217 113.261 154.588 112.411 154.815ZM109.802 146.142C109.173 146.31 108.722 146.666 108.45 147.21C108.184 147.753 108.102 148.432 108.205 149.247L112.574 148.08L112.528 147.91C112.273 147.156 111.914 146.632 111.451 146.338C110.987 146.038 110.437 145.972 109.802 146.142ZM117.79 142.24L118.171 143.401C118.682 142.288 119.551 141.567 120.778 141.24C122.904 140.672 124.311 141.6 124.998 144.024L126.8 150.77L124.507 151.383L122.741 144.769C122.568 144.121 122.299 143.681 121.933 143.448C121.573 143.207 121.075 143.172 120.439 143.342C119.515 143.588 118.938 144.191 118.708 145.148L120.648 152.413L118.356 153.025L115.629 142.817L117.79 142.24ZM127.477 145.04C127.057 143.468 127.085 142.109 127.561 140.965C128.035 139.814 128.886 139.074 130.112 138.747C131.194 138.458 132.169 138.602 133.037 139.179L131.642 133.952L133.934 133.339L137.804 147.831L135.729 148.386L135.333 147.359C134.869 148.373 134.065 149.032 132.92 149.338C131.725 149.657 130.628 149.435 129.629 148.67C128.636 147.905 127.919 146.695 127.477 145.04ZM129.822 144.626C130.1 145.664 130.514 146.422 131.067 146.902C131.624 147.373 132.27 147.51 133.006 147.314C133.944 147.063 134.518 146.462 134.728 145.509L133.564 141.15C132.924 140.445 132.136 140.218 131.199 140.468C130.456 140.666 129.963 141.115 129.718 141.814C129.472 142.506 129.507 143.444 129.822 144.626Z" fill="black"/>
<path fill-rule="evenodd" clip-rule="evenodd" d="M144.46 199.636L150.046 204.868C150.051 204.862 151.583 203.295 151.654 203.226C153.404 201.456 160.672 208.331 158.999 210.168L157.378 211.83L162.944 217.092L164.583 215.41C165.843 214.057 165.874 212.125 165.101 210.012C162.713 203.487 152.655 195.247 147.479 197.106C146.97 197.289 146.508 197.569 146.105 197.959C146.009 198.051 144.466 199.63 144.46 199.636Z" fill="black"/>
<path fill-rule="evenodd" clip-rule="evenodd" d="M113.725 226.991L107.434 222.634C107.429 222.641 106.143 224.415 106.083 224.493C104.611 226.501 96.4148 220.764 97.8009 218.702L99.1607 216.821L92.8847 212.43L91.5097 214.334C90.4613 215.856 90.7131 217.772 91.7872 219.749C95.1048 225.855 106.261 232.534 111.109 229.937C111.586 229.681 112.002 229.336 112.344 228.892C112.425 228.787 113.72 226.999 113.725 226.991Z" fill="black"/>
</svg>
