<svg width="340" height="293" viewBox="0 0 340 293" fill="none" xmlns="http://www.w3.org/2000/svg">
<rect width="340" height="293" fill="white"/>
<rect x="9.5" y="29.5" width="318" height="245" stroke="black"/>
<rect x="23.6124" y="83.7765" width="132" height="210" rx="18.5" transform="rotate(-15 23.6124 83.7765)" fill="white" stroke="black"/>
<rect x="36.6954" y="102.375" width="115.049" height="161.018" transform="rotate(-15 36.6954 102.375)" fill="white" stroke="black"/>
<path fill-rule="evenodd" clip-rule="evenodd" d="M140.46 190.636L146.046 195.868C146.051 195.862 147.583 194.295 147.654 194.226C149.404 192.456 156.672 199.331 154.999 201.168L153.379 202.83L158.944 208.092L160.583 206.41C161.843 205.057 161.874 203.125 161.101 201.012C158.713 194.487 148.655 186.247 143.479 188.106C142.97 188.289 142.508 188.569 142.105 188.959C142.009 189.051 140.466 190.63 140.46 190.636Z" fill="black"/>
<rect x="128.115" y="252.114" width="22.4706" height="11.5595" transform="rotate(-15 128.115 252.114)" fill="white" stroke="black"/>
<path d="M71.0871 139.932C70.7632 140.713 70.2055 141.387 69.4139 141.956C68.6223 142.524 67.6667 142.958 66.5471 143.257C65.396 143.565 64.3074 143.576 63.281 143.29C62.2547 143.005 61.3701 142.443 60.6271 141.604C59.8887 140.756 59.337 139.687 58.9721 138.397L58.6849 137.321C58.1305 135.245 58.1949 133.493 58.878 132.064C59.5593 130.629 60.7901 129.673 62.5701 129.198C64.0986 128.79 65.4134 128.843 66.5144 129.358C67.6154 129.872 68.447 130.816 69.009 132.189L66.6691 132.814C65.9632 131.23 64.7831 130.659 63.1288 131.101C62.0595 131.386 61.3483 131.991 60.9951 132.914C60.6465 133.829 60.6618 135.034 61.041 136.53L61.3232 137.587C61.7197 139.071 62.3393 140.142 63.182 140.8C64.0294 141.45 65.0097 141.626 66.1231 141.329C67.3433 141.003 68.1374 140.494 68.5054 139.803L67.7873 137.114L64.9568 137.87L64.473 136.058L69.6811 134.668L71.0871 139.932ZM77.2874 131.494C76.9721 131.524 76.654 131.582 76.3332 131.668C75.2828 131.949 74.6827 132.54 74.5329 133.443L76.3974 140.424L74.1047 141.037L71.3784 130.828L73.5673 130.244L73.9288 131.37C74.2455 130.335 74.8945 129.687 75.8757 129.425C76.2028 129.338 76.485 129.309 76.7224 129.34L77.2874 131.494ZM86.8642 137.629C86.7115 137.461 86.5386 137.167 86.3455 136.747C85.8191 137.703 85.0276 138.322 83.9709 138.604C82.9456 138.878 82.0309 138.809 81.2268 138.397C80.4227 137.985 79.9056 137.348 79.6755 136.486C79.3849 135.398 79.5649 134.457 80.2155 133.664C80.8707 132.862 81.9499 132.26 83.4532 131.859L84.859 131.483L84.6801 130.814C84.539 130.285 84.2787 129.903 83.8991 129.668C83.5178 129.426 83.0252 129.386 82.4214 129.547C81.8993 129.686 81.5068 129.933 81.244 130.286C80.9795 130.633 80.901 131.007 81.0085 131.41L78.7158 132.022C78.5663 131.462 78.6125 130.891 78.8542 130.307C79.0943 129.718 79.4951 129.2 80.0564 128.753C80.6241 128.305 81.3011 127.976 82.0873 127.766C83.2824 127.447 84.316 127.494 85.188 127.908C86.0583 128.316 86.6482 129.062 86.9577 130.145L88.1873 134.749C88.4326 135.667 88.7572 136.366 89.1612 136.844L89.2041 137.004L86.8642 137.629ZM83.9041 136.651C84.357 136.53 84.7522 136.306 85.0896 135.981C85.4334 135.653 85.6564 135.277 85.7586 134.852L85.2445 132.927L84.0086 133.257C83.1594 133.484 82.5605 133.802 82.2117 134.212C81.8629 134.622 81.7608 135.097 81.9052 135.638C82.0228 136.079 82.2615 136.392 82.6214 136.579C82.9859 136.758 83.4135 136.782 83.9041 136.651ZM90.7647 125.651L91.1457 126.813C91.6569 125.699 92.5258 124.978 93.7523 124.651C95.8783 124.083 97.2853 125.011 97.9731 127.435L99.7746 134.181L97.4819 134.794L95.7156 128.18C95.5426 127.532 95.2734 127.092 94.9081 126.859C94.5473 126.619 94.0493 126.583 93.414 126.753C92.4894 127 91.9124 127.602 91.6829 128.559L93.623 135.824L91.3303 136.437L88.6041 126.228L90.7647 125.651ZM100.452 128.451C100.032 126.879 100.06 125.52 100.536 124.376C101.01 123.225 101.86 122.486 103.087 122.158C104.169 121.869 105.144 122.013 106.012 122.59L104.616 117.363L106.909 116.751L110.779 131.243L108.704 131.797L108.308 130.77C107.844 131.784 107.04 132.443 105.895 132.749C104.7 133.068 103.603 132.846 102.604 132.082C101.611 131.316 100.893 130.106 100.452 128.451ZM102.797 128.037C103.074 129.075 103.489 129.834 104.042 130.313C104.599 130.784 105.245 130.921 105.981 130.725C106.918 130.474 107.492 129.873 107.703 128.921L106.539 124.562C105.899 123.857 105.111 123.629 104.173 123.879C103.431 124.078 102.938 124.526 102.693 125.225C102.447 125.917 102.481 126.855 102.797 128.037ZM112.746 119.781L113.096 120.829C113.59 119.801 114.459 119.121 115.705 118.788C117.07 118.424 118.143 118.696 118.925 119.606C119.389 118.364 120.293 117.563 121.639 117.203C122.765 116.903 123.685 116.991 124.399 117.467C125.118 117.942 125.647 118.785 125.984 119.996L127.775 126.704L125.482 127.316L123.708 120.674C123.535 120.026 123.267 119.589 122.903 119.363C122.54 119.136 122.031 119.11 121.377 119.285C120.855 119.425 120.465 119.68 120.207 120.052C119.954 120.416 119.822 120.843 119.81 121.331L121.689 128.329L119.397 128.941L117.603 122.224C117.25 121.031 116.477 120.594 115.282 120.913C114.363 121.158 113.812 121.706 113.628 122.557L115.604 129.954L113.311 130.566L110.585 120.358L112.746 119.781ZM136.374 124.408C136.221 124.239 136.048 123.945 135.855 123.525C135.329 124.481 134.537 125.1 133.48 125.382C132.455 125.656 131.54 125.587 130.736 125.175C129.932 124.763 129.415 124.126 129.185 123.265C128.894 122.176 129.074 121.236 129.725 120.442C130.38 119.64 131.459 119.039 132.963 118.637L134.368 118.262L134.19 117.592C134.049 117.063 133.788 116.682 133.409 116.446C133.027 116.204 132.535 116.164 131.931 116.325C131.409 116.464 131.016 116.711 130.753 117.064C130.489 117.411 130.41 117.786 130.518 118.188L128.225 118.801C128.076 118.241 128.122 117.669 128.364 117.086C128.604 116.496 129.005 115.978 129.566 115.531C130.134 115.083 130.811 114.754 131.597 114.544C132.792 114.225 133.825 114.273 134.697 114.687C135.568 115.094 136.158 115.84 136.467 116.923L137.697 121.527C137.942 122.446 138.267 123.144 138.671 123.622L138.714 123.783L136.374 124.408ZM133.414 123.429C133.866 123.308 134.262 123.085 134.599 122.759C134.943 122.431 135.166 122.055 135.268 121.63L134.754 119.705L133.518 120.035C132.669 120.262 132.07 120.58 131.721 120.99C131.372 121.4 131.27 121.876 131.415 122.416C131.532 122.857 131.771 123.17 132.131 123.357C132.495 123.536 132.923 123.56 133.414 123.429ZM138.599 113.463L137.235 113.049C137.581 112.073 137.641 111.124 137.415 110.201L137.017 108.71L139.026 108.173L139.374 109.475C139.547 110.123 139.555 110.822 139.398 111.571C139.246 112.313 138.98 112.943 138.599 113.463ZM147.83 118.376C147.72 117.968 147.467 117.702 147.071 117.578C146.68 117.454 146.073 117.414 145.25 117.458C144.426 117.503 143.719 117.469 143.13 117.357C141.838 117.109 141.051 116.46 140.771 115.41C140.535 114.529 140.71 113.694 141.294 112.905C141.879 112.115 142.743 111.568 143.888 111.262C145.108 110.936 146.173 110.975 147.083 111.379C147.999 111.781 148.586 112.464 148.843 113.426L146.55 114.038C146.432 113.598 146.171 113.277 145.767 113.075C145.361 112.867 144.887 112.835 144.346 112.979C143.843 113.113 143.462 113.34 143.204 113.658C142.951 113.975 142.877 114.328 142.981 114.718C143.075 115.071 143.296 115.305 143.644 115.421C143.992 115.537 144.642 115.575 145.595 115.536C146.547 115.491 147.314 115.539 147.898 115.68C148.486 115.812 148.954 116.038 149.302 116.356C149.656 116.672 149.906 117.104 150.052 117.652C150.297 118.57 150.116 119.417 149.507 120.193C148.897 120.962 147.976 121.511 146.743 121.84C145.907 122.064 145.121 122.112 144.386 121.985C143.651 121.857 143.031 121.578 142.525 121.147C142.019 120.717 141.685 120.196 141.522 119.586L143.749 118.991C143.924 119.524 144.241 119.887 144.697 120.082C145.152 120.271 145.69 120.282 146.313 120.116C146.917 119.954 147.346 119.719 147.6 119.408C147.852 119.091 147.929 118.748 147.83 118.376ZM87.1843 161.35L84.8067 161.985L83.1765 155.88L77.0343 157.521L78.6645 163.625L76.2775 164.263L72.6088 150.525L74.9959 149.888L76.5228 155.605L82.665 153.965L81.1381 148.247L83.5157 147.612L87.1843 161.35ZM88.1204 155.53C87.8533 154.53 87.8112 153.578 87.9941 152.673C88.1754 151.762 88.5675 150.997 89.1703 150.378C89.7714 149.753 90.5375 149.315 91.4684 149.067C92.8459 148.699 94.0808 148.844 95.1731 149.503C96.2717 150.159 97.0512 151.211 97.5118 152.658L97.6649 153.194C97.9336 154.2 97.9788 155.152 97.8005 156.048C97.6285 156.943 97.2387 157.704 96.6313 158.332C96.0301 158.957 95.2578 159.396 94.3143 159.648C92.8739 160.033 91.592 159.863 90.4687 159.138C89.35 158.406 88.5773 157.241 88.1506 155.644L88.1204 155.53ZM90.466 155.116C90.7465 156.167 91.1836 156.933 91.7771 157.414C92.369 157.89 93.0518 158.024 93.8255 157.817C94.5992 157.611 95.1192 157.149 95.3857 156.43C95.6584 155.711 95.6394 154.769 95.3287 153.605C95.0532 152.574 94.6115 151.816 94.0037 151.331C93.4021 150.845 92.7208 150.703 91.9597 150.907C91.2112 151.107 90.6966 151.564 90.4159 152.279C90.1335 152.988 90.1502 153.934 90.466 155.116ZM106.066 153.336C105.956 152.927 105.703 152.661 105.307 152.538C104.916 152.413 104.309 152.373 103.486 152.418C102.662 152.462 101.955 152.429 101.366 152.316C100.074 152.069 99.287 151.42 99.0065 150.369C98.7713 149.489 98.9459 148.654 99.5302 147.864C100.115 147.075 100.979 146.527 102.124 146.221C103.344 145.895 104.409 145.934 105.319 146.338C106.235 146.741 106.821 147.423 107.078 148.385L104.786 148.998C104.668 148.557 104.407 148.236 104.003 148.034C103.597 147.826 103.123 147.794 102.582 147.938C102.079 148.073 101.698 148.299 101.44 148.618C101.187 148.934 101.113 149.288 101.217 149.678C101.311 150.03 101.532 150.264 101.88 150.38C102.228 150.496 102.878 150.535 103.831 150.496C104.783 150.451 105.55 150.498 106.134 150.639C106.722 150.772 107.19 150.997 107.538 151.315C107.892 151.632 108.142 152.064 108.288 152.611C108.533 153.529 108.352 154.376 107.743 155.152C107.133 155.921 106.212 156.471 104.979 156.8C104.143 157.023 103.357 157.071 102.622 156.944C101.887 156.817 101.267 156.538 100.761 156.107C100.255 155.676 99.9208 155.155 99.7579 154.545L101.985 153.951C102.16 154.483 102.477 154.847 102.933 155.042C103.388 155.23 103.926 155.241 104.549 155.075C105.153 154.914 105.582 154.678 105.836 154.367C106.088 154.051 106.165 153.707 106.066 153.336ZM118.815 147.545C119.237 149.124 119.215 150.481 118.75 151.616C118.283 152.745 117.446 153.47 116.239 153.793C115.119 154.092 114.124 153.963 113.255 153.407L114.547 158.247L112.255 158.86L108.48 144.726L110.594 144.162L110.965 145.174C111.42 144.177 112.226 143.523 113.383 143.214C114.629 142.882 115.728 143.087 116.681 143.83C117.639 144.564 118.338 145.756 118.778 147.404L118.815 147.545ZM116.479 147.957C116.207 146.938 115.787 146.184 115.218 145.696C114.656 145.206 113.998 145.062 113.243 145.263C112.306 145.514 111.736 146.08 111.534 146.963L112.743 151.492C113.37 152.173 114.155 152.388 115.099 152.136C115.828 151.942 116.32 151.497 116.572 150.803C116.829 150.101 116.798 149.152 116.479 147.957ZM124.683 151.336L122.39 151.948L119.664 141.739L121.957 141.127L124.683 151.336ZM118.815 139.126C118.72 138.774 118.752 138.452 118.91 138.16C119.075 137.867 119.364 137.665 119.78 137.554C120.195 137.443 120.547 137.474 120.835 137.646C121.124 137.818 121.315 138.081 121.409 138.433C121.502 138.779 121.466 139.098 121.301 139.392C121.135 139.679 120.845 139.877 120.43 139.988C120.014 140.099 119.663 140.072 119.377 139.906C119.094 139.732 118.907 139.472 118.815 139.126ZM126.817 137.171L127.48 139.652L129.282 139.171L129.735 140.869L127.933 141.35L129.455 147.049C129.559 147.439 129.71 147.702 129.908 147.838C130.111 147.966 130.41 147.977 130.807 147.871C131.071 147.8 131.33 147.697 131.583 147.562L132.057 149.336C131.574 149.62 131.09 149.827 130.605 149.956C128.844 150.426 127.704 149.69 127.185 147.746L125.64 141.963L123.961 142.411L123.507 140.713L125.187 140.264L124.524 137.783L126.817 137.171ZM140.012 147.242C139.86 147.074 139.687 146.78 139.494 146.359C138.967 147.315 138.176 147.934 137.119 148.217C136.094 148.49 135.179 148.421 134.375 148.009C133.571 147.598 133.054 146.961 132.824 146.099C132.533 145.011 132.713 144.07 133.364 143.276C134.019 142.474 135.098 141.873 136.601 141.471L138.007 141.096L137.828 140.426C137.687 139.898 137.427 139.516 137.047 139.28C136.666 139.038 136.173 138.998 135.569 139.159C135.047 139.299 134.655 139.545 134.392 139.898C134.128 140.245 134.049 140.62 134.157 141.023L131.864 141.635C131.714 141.075 131.761 140.503 132.002 139.92C132.242 139.33 132.643 138.812 133.204 138.366C133.772 137.918 134.449 137.589 135.235 137.379C136.43 137.06 137.464 137.107 138.336 137.521C139.206 137.929 139.796 138.674 140.106 139.757L141.335 144.362C141.581 145.28 141.905 145.978 142.309 146.457L142.352 146.617L140.012 147.242ZM137.052 146.263C137.505 146.143 137.9 145.919 138.238 145.593C138.581 145.265 138.804 144.889 138.907 144.464L138.393 142.54L137.157 142.87C136.307 143.096 135.708 143.415 135.36 143.825C135.011 144.234 134.909 144.71 135.053 145.251C135.171 145.691 135.41 146.005 135.769 146.192C136.134 146.371 136.562 146.394 137.052 146.263ZM146.95 145.389L144.658 146.001L140.787 131.509L143.08 130.897L146.95 145.389Z" fill="black"/>
<path fill-rule="evenodd" clip-rule="evenodd" d="M109.725 217.991L103.434 213.634C103.429 213.641 102.143 215.415 102.083 215.493C100.611 217.501 92.4148 211.764 93.8009 209.702L95.1607 207.821L88.8847 203.43L87.5097 205.334C86.4613 206.856 86.7131 208.772 87.7872 210.749C91.1048 216.855 102.261 223.534 107.109 220.937C107.586 220.681 108.002 220.336 108.344 219.892C108.425 219.787 109.72 217.999 109.725 217.991Z" fill="black"/>
<path fill-rule="evenodd" clip-rule="evenodd" d="M140.46 190.636L146.046 195.868C146.051 195.862 147.583 194.295 147.654 194.226C149.404 192.456 156.672 199.331 154.999 201.168L153.379 202.83L158.944 208.092L160.583 206.41C161.843 205.057 161.874 203.125 161.101 201.012C158.713 194.487 148.655 186.247 143.479 188.106C142.97 188.289 142.508 188.569 142.105 188.959C142.009 189.051 140.466 190.63 140.46 190.636Z" fill="black"/>
<path fill-rule="evenodd" clip-rule="evenodd" d="M109.725 217.991L103.434 213.634C103.429 213.641 102.143 215.415 102.083 215.493C100.611 217.501 92.4148 211.764 93.8009 209.702L95.1607 207.821L88.8847 203.43L87.5097 205.334C86.4613 206.856 86.7131 208.772 87.7872 210.749C91.1048 216.855 102.261 223.534 107.109 220.937C107.586 220.681 108.002 220.336 108.344 219.892C108.425 219.787 109.72 217.999 109.725 217.991Z" fill="black"/>
</svg>
