<svg width="307" height="254" viewBox="0 0 307 254" fill="none" xmlns="http://www.w3.org/2000/svg">
<path d="M298 234.5C298 245.27 231.29 254 149 254C66.7096 254 0 245.27 0 234.5C0 223.73 66.7096 215 149 215C231.29 215 298 223.73 298 234.5Z" fill="black" fill-opacity="0.1"/>
<g clip-path="url(#clip0)">
<path d="M156.45 106.429C156.45 106.429 139.543 112.167 119.767 79.1143" stroke="#0F8AB2" stroke-width="4.5" stroke-miterlimit="10" stroke-linecap="round"/>
<path d="M130.777 81.9635C131.643 85.3765 128.835 89.3232 124.547 90.7428C121.176 91.8603 117.855 91.0851 116.164 89.0513L108.032 78.933C107.489 78.188 107.871 77.0805 108.878 76.4563C109.884 75.8422 110.649 75.9831 111.192 76.7281L113.567 79.4566C113.497 79.0941 112.883 77.745 112.883 77.3826L109.441 67.0629C109.22 66.1668 109.944 65.1399 111.072 64.7674C112.189 64.3949 113.296 64.8177 113.527 65.7138L115.892 71.7848C116.325 71.4324 116.295 71.221 116.798 70.929L114.151 63.5592C113.93 62.6632 114.654 61.6362 115.782 61.2637C116.899 60.8912 118.006 61.3141 118.237 62.2101L120.884 69.5799C121.508 69.5094 121.357 69.5899 121.941 69.6403L120.431 64.4351C120.2 63.5391 120.934 62.5122 122.062 62.1396C123.189 61.7671 124.074 62.4518 124.668 63.9217L128.09 73.295" fill="#A2CCED"/>
<path d="M117.613 82.779C117.613 82.779 116.285 76.7282 124.115 73.2446" stroke="#88B4D3" stroke-width="0.7603" stroke-miterlimit="10"/>
<path d="M48.6738 182.754L54.1588 227.385H59.6538L65.4306 177.187" fill="#00A1CD"/>
<path d="M59.2715 233.034H54.0885L51.9951 208.498H62.0291L59.2715 233.034Z" fill="#ED1651"/>
<path d="M54.1587 233.718C54.1587 229.258 57.7717 225.633 62.2402 225.633C66.6986 225.633 70.3217 229.258 70.3217 233.718" fill="#504B48"/>
<path d="M27.6294 182.623L33.1143 227.385H38.6094L43.1885 182.754" fill="#00A1CD"/>
<path d="M38.5994 233.034H33.4164L30.6387 208.498H40.6726L38.5994 233.034Z" fill="#ED1651"/>
<path d="M33.0239 233.718C33.0239 229.258 36.637 225.633 41.1054 225.633C45.5638 225.633 49.1869 229.258 49.1869 233.718" fill="#504B48"/>
<path d="M108.203 98.4751C108.203 98.4751 102.537 118.43 75.1626 129.142" stroke="#0F8AB2" stroke-width="3.5" stroke-miterlimit="10" stroke-linecap="round"/>
<path d="M102.879 97.1058C102.426 99.4818 104.519 102.079 107.529 102.875C109.894 103.499 112.138 102.824 113.215 101.365L118.378 94.0753C118.72 93.5417 118.408 92.7967 117.693 92.4141C116.979 92.0315 116.456 92.1624 116.113 92.696L114.594 94.6693C114.634 94.4176 114.996 93.4712 114.976 93.2195L116.908 85.9807C117.029 85.3564 116.476 84.6819 115.691 84.4705C114.906 84.259 114.161 84.6013 114.05 85.2256L112.681 89.4944C112.369 89.2628 112.39 89.0615 112.027 88.8903L113.537 83.7154C113.658 83.0911 113.104 82.4166 112.319 82.2052C111.534 81.9937 110.789 82.336 110.679 82.9603L109.169 88.1352C108.736 88.1151 108.495 88.1352 108.092 88.1956L109.099 84.5711C109.219 83.9469 108.847 83.2724 108.062 83.0609C107.277 82.8495 106.532 83.1918 106.412 83.816L104.379 91.0448" fill="#A2CCED"/>
<path d="M95.2104 56.4512C97.7667 58.5151 100.283 60.5488 102.829 62.6027" stroke="#0D4060" stroke-miterlimit="10" stroke-linecap="round"/>
<path d="M93.0664 65.7236C96.3071 66.1264 97.8771 66.3177 101.108 66.7204" stroke="#0D4060" stroke-miterlimit="10" stroke-linecap="round"/>
<path d="M103.594 52.3232C104.751 55.3738 105.315 56.8538 106.472 59.9044" stroke="#0D4060" stroke-miterlimit="10" stroke-linecap="round"/>
<path d="M58.2447 69.1367L49.2877 68.432C32.9032 67.1433 18.582 79.3859 17.3038 95.7665L17.1327 97.8506C16.8006 99.9145 16.5692 101.989 16.4081 104.012L12.0906 159.054C10.8024 175.445 23.0404 189.761 39.4147 191.05L48.3718 191.755C64.7562 193.043 79.0775 180.801 80.3557 164.42L80.5167 162.346C80.8488 160.282 81.0803 158.208 81.2413 156.184L85.5588 101.143C86.8571 84.7521 74.6191 70.4254 58.2447 69.1367Z" fill="#00A1CD"/>
<path d="M67.8458 116.567C67.8458 116.567 66.2053 120.313 59.573 119.678C52.9408 119.054 52.6992 115.399 52.6992 115.399L67.8458 116.567Z" fill="#0D4060"/>
<path d="M39.002 96.0083C39.002 96.0083 41.6388 91.5583 46.4494 94.6693" stroke="#0D4060" stroke-width="1.3145" stroke-miterlimit="10" stroke-linecap="round"/>
<path d="M82.7206 99.361C82.7206 99.361 81.4123 94.5183 76.189 96.8642" stroke="#0D4060" stroke-width="1.3145" stroke-miterlimit="10" stroke-linecap="round"/>
<path d="M56.2619 103.267C55.6882 110.748 49.1667 116.356 41.689 115.782C34.2114 115.208 28.6157 108.674 29.1894 101.193C29.763 93.7128 36.2947 88.115 43.7723 88.6889C51.25 89.2628 56.8356 95.7868 56.2619 103.267Z" stroke="black" stroke-width="0.9531" stroke-miterlimit="10" stroke-linecap="round"/>
<path d="M92.5737 106.056C92.0001 113.537 85.4684 119.135 77.9908 118.561C70.5131 117.987 64.9175 111.453 65.4911 103.972C66.0648 96.4916 72.5964 90.8938 80.0741 91.4677C87.5517 92.0416 93.1474 98.5757 92.5737 106.056Z" stroke="black" stroke-width="0.9531" stroke-miterlimit="10" stroke-linecap="round"/>
<path d="M56.3628 101.657C56.3628 101.657 61.254 95.8775 65.179 102.331" stroke="black" stroke-width="0.9531" stroke-miterlimit="10" stroke-linecap="round"/>
<path d="M67.5942 107.748C67.8458 103.65 71.5897 100.549 75.9575 100.811C80.3254 101.073 83.6667 104.617 83.4151 108.714" fill="white"/>
<path d="M37.0093 105.764C37.2609 101.666 41.0249 98.5656 45.4128 98.8374C49.8008 99.1092 53.1622 102.643 52.9106 106.741" fill="white"/>
<path d="M38.0459 102.049L33.8994 100.096L37.4823 103.298C37.4219 103.469 37.3816 103.62 37.3313 103.781L33.668 103.096L37.0998 104.798C37.0294 105.261 37.0193 105.563 37.0193 105.563C39.3743 99.4214 43.3698 98.8375 44.507 98.7972C40.894 98.6764 39.012 100.338 38.0459 102.049Z" fill="#0D4060"/>
<path d="M87.048 106.469L83.3344 106.701C83.3142 106.54 83.2841 106.378 83.2438 106.207L87.1889 103.469L82.8312 104.898C82.0864 103.076 80.4158 101.204 76.8027 100.881C77.9199 101.063 81.8247 102.13 83.4149 108.513C83.4149 108.513 83.4451 108.211 83.425 107.738L87.048 106.469Z" fill="#0D4060"/>
<path d="M47.3755 98.8477C46.4396 100.378 46.4798 102.392 47.6372 103.892C48.8852 105.523 51.0389 106.036 52.8504 105.291C52.5686 102.311 50.3847 99.7739 47.3755 98.8477Z" fill="#0D4060"/>
<path d="M77.8599 101.294C76.924 102.824 76.9642 104.838 78.1216 106.338C79.3695 107.969 81.5233 108.482 83.3348 107.737C83.0631 104.747 80.8691 102.22 77.8599 101.294Z" fill="#0D4060"/>
<path d="M25.8686 173.421C25.8686 173.421 19.2061 159.597 24.3992 137.508" stroke="#0F8AB2" stroke-width="3" stroke-miterlimit="10" stroke-linecap="round"/>
<path d="M20.9471 175.807C20.8968 173.481 23.282 171.357 26.2609 171.075C28.5958 170.854 30.6187 171.85 31.4037 173.401L35.1476 181.123C35.3891 181.687 34.9765 182.341 34.2418 182.593C33.4971 182.845 33.0341 182.643 32.7926 182.079L31.6654 179.965C31.6553 180.207 31.8566 181.163 31.7962 181.405L32.4906 188.563C32.5007 189.167 31.8767 189.731 31.1018 189.802C30.3268 189.872 29.6727 189.439 29.6626 188.825L29.0386 184.566C28.7065 184.727 28.6965 184.929 28.3241 185.039L28.938 190.174C28.9481 190.778 28.3241 191.342 27.5491 191.412C26.7742 191.483 26.12 191.05 26.11 190.436L25.4961 185.301C25.0834 185.251 24.862 185.201 24.4896 185.08L24.862 188.654C24.8721 189.258 24.4192 189.842 23.6443 189.922C22.8693 189.993 22.2152 189.56 22.2051 188.946L21.4201 181.787" fill="#A2CCED"/>
<path d="M145.551 126.565C141.405 90.7127 154.559 53.9343 173.912 26.5394C223.81 -44.1077 298.285 40.9466 306.376 110.969C312.354 162.658 274.342 179.754 234.871 184.315C195.389 188.886 151.529 178.254 145.551 126.565Z" fill="#00A1CD"/>
<path d="M250.762 180.982L244.24 232.319H238.031L229.375 180.982" fill="#00A1CD"/>
<path d="M217.147 178.716L208.925 232.318H202.715L193.627 171.085" fill="#00A1CD"/>
<path d="M238.232 232.319L235.293 215.173H246.575L244.441 230.899L238.232 232.319Z" fill="#5652A3"/>
<path d="M203.128 232.319L200.179 215.173H211.461L209.328 230.899L203.128 232.319Z" fill="#5652A3"/>
<path d="M223.659 233.346C223.659 227.577 228.328 222.905 234.095 222.905C239.862 222.905 244.542 227.577 244.542 233.346" fill="#504B48"/>
<path d="M209.277 233.346C209.277 227.577 204.607 222.905 198.831 222.905C193.064 222.905 188.394 227.577 188.394 233.346" fill="#504B48"/>
<path d="M218.244 37.6944C218.244 37.6944 213.152 30.1937 205.081 36.1439" stroke="#0D4060" stroke-width="2" stroke-miterlimit="10" stroke-linecap="round"/>
<path d="M166.625 45.5075C166.625 45.5075 168.568 36.6477 178.27 39.1848" stroke="#0D4060" stroke-width="2" stroke-miterlimit="10" stroke-linecap="round"/>
<path d="M191.423 58.3843C190.659 52.8771 185.284 49.0714 179.417 49.8869C173.55 50.7024 169.403 55.8169 170.168 61.3241" fill="white"/>
<path d="M183.362 59.5016C183.01 56.9443 180.655 55.1623 178.099 55.5146C175.542 55.867 173.761 58.2229 174.113 60.7802" fill="#0D4060"/>
<path d="M201.659 56.9648C200.894 51.4576 205.07 46.333 210.968 45.5175C216.876 44.702 222.27 48.4976 223.035 54.0048" fill="white"/>
<path d="M212.981 55.4039C212.629 52.8466 210.274 51.0646 207.717 51.417C205.161 51.7694 203.38 54.1253 203.732 56.6825" fill="#0D4060"/>
<path d="M182.798 67.838C182.798 67.838 184.57 80.6344 199.122 78.6108C211.23 76.9294 210.404 64.0122 210.404 64.0122L182.798 67.838Z" fill="#0D4060"/>
<path d="M221.415 49.3031L226.89 46.2022L222.321 50.9643C222.421 51.1858 222.502 51.3973 222.572 51.6087L227.514 50.2797L222.995 52.9679C223.146 53.6021 223.196 54.0149 223.196 54.0149C219.332 45.8599 213.796 45.4672 212.236 45.5377C217.168 44.994 219.915 47.058 221.415 49.3031Z" fill="#0D4060"/>
<path d="M164.713 58.9684L169.826 58.8979C169.846 58.6764 169.866 58.4448 169.897 58.2133L164.2 54.8808L170.309 56.3809C171.144 53.8136 173.218 51.0751 178.139 50.2495C176.619 50.612 171.396 52.4846 169.886 61.3847C169.886 61.3847 169.816 60.9719 169.796 60.3276L164.713 58.9684Z" fill="#0D4060"/>
<path d="M268.625 112.329C268.625 112.329 273.708 142.382 223.92 151.02" stroke="#0F8AB2" stroke-width="4.5" stroke-miterlimit="10" stroke-linecap="round"/>
<path d="M227.936 157.403C231.046 155.772 232.113 151.04 230.291 146.892C228.862 143.64 226.064 141.687 223.427 141.787L210.475 142.502C209.559 142.593 208.985 143.62 209.207 144.788C209.428 145.945 210.032 146.419 210.958 146.328L214.581 146.268C214.269 146.449 212.85 146.902 212.588 147.144L202.615 151.483C201.799 151.906 201.528 153.144 202.001 154.231C202.474 155.319 203.531 155.852 204.346 155.419L210.445 153.124C210.465 153.678 210.294 153.799 210.414 154.362L203.168 157.322C202.353 157.745 202.081 158.984 202.554 160.071C203.027 161.158 204.084 161.692 204.899 161.259L212.145 158.299C212.508 158.802 212.467 158.641 212.9 159.044L208.019 161.4C207.204 161.833 206.922 163.061 207.405 164.148C207.878 165.236 208.985 165.437 210.465 164.893L219.724 161.168" fill="#A2CCED"/>
</g>
<defs>
<clipPath id="clip0">
<rect width="295" height="234" fill="white" transform="translate(12)"/>
</clipPath>
</defs>
</svg>
