<svg width="47" height="44" viewBox="0 0 47 44" fill="none" xmlns="http://www.w3.org/2000/svg">
<path d="M39.283 43H31.717C30.2239 43 29 41.6526 29 40C29 38.3514 30.2203 37 31.717 37H39.283C40.7761 37 42 38.3474 42 40C41.9964 41.6526 40.7761 43 39.283 43Z" stroke="white" stroke-width="2" stroke-miterlimit="10"/>
<path d="M41.2076 37H31.7924C30.2574 37 29 35.8742 29 34.5C29 33.1258 30.2574 32 31.7924 32H41.2076C42.7426 32 44 33.1258 44 34.5C44 35.8773 42.7426 37 41.2076 37Z" stroke="white" stroke-width="2" stroke-miterlimit="10"/>
<path d="M41.3938 25H32.6062C31.1736 25 30 23.4239 30 21.5C30 19.5761 31.1736 18 32.6062 18H41.3938C42.8264 18 44 19.5761 44 21.5C44 23.4282 42.8264 25 41.3938 25Z" stroke="white" stroke-width="2" stroke-miterlimit="10"/>
<path d="M43.1219 32H31.8781C30.2946 32 29 30.4855 29 28.6332V28.3668C29 26.5145 30.2946 25 31.8781 25H43.1219C44.7054 25 46 26.5145 46 28.3668V28.6332C46 30.4855 44.7054 32 43.1219 32Z" stroke="white" stroke-width="2" stroke-miterlimit="10"/>
<path d="M27.6087 20.5C27.8914 20.4108 29.0213 15.4986 29.1956 15.2757C31.0353 12.8648 33.0764 10.5431 34.5675 7.96501C35.2491 6.78743 34.9548 5.0935 34.8192 3.65589C34.7727 3.17297 33.1499 1.15585 32.5419 1.00726C32.2011 0.921821 31.4071 1.60905 31.136 2.08826C29.5868 4.82975 27.4643 7.02889 24.424 8.57052C22.929 9.33205 21.6277 10.4056 20.276 11.3789C17.2667 13.5446 14.3309 15.7957 11.2596 17.8871C10.4657 18.4295 9.29601 18.7193 8.27353 18.7787C5.9962 18.9087 3.6995 18.8196 1.3873 18.8196C1.3873 24.206 1 30.6771 1 35.9632C3.09143 35.9632 6.2402 36.0338 8.21931 35.9409C9.78014 35.8666 10.7445 36.3087 11.7205 37.4937C16.1513 42.8764 19.7377 43.3258 29.3195 42.8615" stroke="white" stroke-width="2" stroke-miterlimit="10"/>
<path d="M29 19C29 19 27.3207 32.1595 17 33" stroke="white" stroke-width="2" stroke-miterlimit="10"/>
</svg>
