<svg width="317" height="256" viewBox="0 0 317 256" fill="none" xmlns="http://www.w3.org/2000/svg">
<path d="M309 236.5C309 247.27 242.29 256 160 256C77.7096 256 11 247.27 11 236.5C11 225.73 77.7096 217 160 217C242.29 217 309 225.73 309 236.5Z" fill="black" fill-opacity="0.15"/>
<g clip-path="url(#clip0)">
<path d="M116.254 157.009C116.254 157.009 103.572 159.946 97.3645 160.211C91.159 160.474 76.1619 145.823 76.1619 145.823" stroke="#0F8AB2" stroke-width="4" stroke-miterlimit="10"/>
<path d="M131.92 160.471C132.598 160.338 133.037 159.683 132.904 159.008C132.787 158.425 132.28 158.003 131.687 157.997L127.429 158.387C127.555 158.047 127.647 157.692 127.697 157.335L132.8 156.867C133.478 156.733 133.916 156.079 133.784 155.403C133.667 154.821 133.16 154.398 132.567 154.392L127.465 154.861C127.359 154.55 127.223 154.253 127.058 153.968L132.505 152.906C133.12 152.852 132.505 152.906 132.435 152.228C132.405 151.577 131.855 151.072 131.206 151.093L123.899 151.762C123.659 151.728 123.418 151.723 123.177 151.735L124.534 151.131C125.118 150.83 125.377 150.131 125.129 149.519C124.941 148.932 124.313 148.61 123.729 148.799C123.704 148.806 123.684 148.813 123.662 148.823L116.42 152.036C116.143 152.164 115.931 152.394 115.825 152.681C114.139 153.614 113.187 155.476 113.412 157.39C113.656 159.996 115.779 161.95 118.125 161.733L123.911 161.202L124.033 161.186L124.096 161.183L131.92 160.471Z" fill="#A2CCED"/>
<path d="M2.53055 128.972C2.39725 159.727 27.3969 203.132 56.9783 203.274C88.1357 203.424 111.927 160.869 112.06 130.114C112.194 99.3596 87.7043 92.0416 57.4574 91.9009C27.2106 91.7602 2.66025 98.2172 2.53055 128.972Z" fill="#00A0CC"/>
<path d="M93.9098 130.709C93.9375 125.786 89.9592 121.771 85.0219 121.737C80.0843 121.707 76.06 125.672 76.0286 130.595" fill="white"/>
<path d="M68.9098 130.709C68.9375 125.786 64.9592 121.771 60.0219 121.737C55.0843 121.707 51.06 125.672 51.0286 130.595" fill="white"/>
<path d="M92.1058 117.55C92.1058 117.55 89.4287 112.287 83.707 115.466" stroke="#0D3F60" stroke-width="2" stroke-miterlimit="10" stroke-linecap="round"/>
<path d="M51.1855 119.624C51.1855 119.624 52.2629 114.001 58.4242 116.222" stroke="#0D3F60" stroke-width="2" stroke-miterlimit="10" stroke-linecap="round"/>
<path d="M60.8452 136.929C60.8452 136.929 63.1224 143.438 73.229 142.896C83.3357 142.353 83.923 136.149 83.923 136.149L60.8452 136.929Z" fill="#0D3F60"/>
<path d="M209.865 117.992C209.865 117.992 208.734 133.691 202.8 140.495C196.866 147.298 181.844 158.464 181.844 158.464" stroke="#0F8AB2" stroke-width="5" stroke-miterlimit="10"/>
<path d="M177.505 173.325C177.034 173.849 176.163 173.776 175.571 173.161C174.978 172.545 174.882 171.613 175.356 171.091L178.629 167.462C178.218 167.302 177.828 167.098 177.46 166.856L173.529 171.203C173.055 171.729 172.184 171.652 171.591 171.04C170.998 170.429 170.902 169.493 171.377 168.967L175.307 164.609C175.088 164.26 174.9 163.889 174.745 163.507L171.368 167.255C170.897 167.778 170.026 167.705 169.434 167.09C168.842 166.475 168.741 165.542 169.219 165.02L174.839 158.765C174.972 158.52 175.131 158.289 175.308 158.074L173.819 158.844C173.196 159.165 172.337 158.839 171.907 158.082C171.476 157.341 171.638 156.471 172.261 156.15L180.216 152.039C180.534 151.885 180.902 151.879 181.227 152.014C183.068 151.203 185.502 151.766 187.282 153.613C189.546 155.962 189.921 159.53 188.114 161.535L183.656 166.484C183.625 166.52 183.588 166.548 183.557 166.581L183.516 166.642L177.505 173.325Z" fill="#A2CCED"/>
<path d="M266.544 182.879C255.242 186.074 255.325 184.372 244.766 185.843C227.836 188.201 210.305 177.119 203.074 161.978C193.391 141.736 186.727 119.486 178.897 98.4243C175.187 88.4218 170.66 79.3201 170.74 68.2929C170.756 65.5594 171.005 62.8296 171.489 60.1396C173.382 49.6471 181.35 37.9819 189.741 32.0145C193.306 29.4795 202.357 27.0729 206.896 26.4408C225.978 23.7836 242.122 21.5861 261.212 18.9858C268.213 18.0326 276.183 17.0896 282.778 20.7162C290.009 24.704 297.331 30.7612 301.54 38.2603C311.225 55.5596 306.303 76.6703 304.826 95.4478C303.8 108.46 302.775 121.473 301.752 134.481C300.869 145.849 298.655 157.09 292.843 166.978C287.927 175.349 275.371 180.384 266.544 182.879Z" fill="#00A1CD"/>
<path d="M177.512 235.426C189.23 235.426 198.73 225.954 198.73 214.269C198.73 202.585 189.23 193.112 177.512 193.112C165.793 193.112 156.293 202.585 156.293 214.269C156.293 225.954 165.793 235.426 177.512 235.426Z" fill="#ED1651"/>
<path d="M291.461 204.484L292.802 204.574C280.634 198.621 291.904 199.487 294.859 200.029L273.864 195.589C269.328 195.197 270.084 182.853 269.81 181.488L275.507 178.323L276.033 178.204C275.464 178.247 274.894 178.298 274.325 178.351C270.426 178.711 266.542 179.275 262.651 179.742C259.145 180.194 255.621 180.471 252.09 180.568L259.945 200.838C260.478 202.045 262.51 207.498 267.512 207.304L292.939 207.664C294.232 207.739 291.029 206.184 291.461 204.484Z" fill="#00A1CD"/>
<path d="M220.066 172.973L214.827 185.361C214.323 186.571 211.872 191.576 214.377 197.791L228.158 230.344C228.699 232 231.686 232.614 232.947 232.374C234.579 232.065 235.469 234.317 235.206 231.968L231.243 213.351C231.207 213.135 232.241 212.923 232.172 212.711C231.091 209.402 228.962 200.08 228.295 195.33C228.072 193.731 228.789 192.147 230.14 191.256L241.67 183.747C243.612 182.49 244.163 179.903 242.902 177.967C242.69 177.644 242.434 177.349 242.142 177.094C242.106 177.062 242.066 177.033 242.027 177.004C241.18 176.623 243.976 179.72 243.191 179.16C238.651 178.046 234.24 176.092 229.809 174.385" fill="#00A1CD"/>
<path d="M295.951 199.095L293.328 207.308L274.563 207.721L275.957 195.793L295.951 199.095Z" fill="#5652A3"/>
<path d="M234.141 155.505C234.141 155.505 246.798 145.825 255.553 138.229C259.824 134.522 262.683 129.453 263.646 123.88C264.926 116.468 266.541 106.067 266.281 102.211" stroke="#0F8AB2" stroke-width="5" stroke-miterlimit="10" stroke-linecap="round"/>
<path d="M229.971 168.494C229.478 169.001 228.61 168.891 228.043 168.255C227.477 167.619 227.417 166.684 227.91 166.177L231.331 162.671C230.929 162.495 230.544 162.276 230.187 162.018L226.09 166.221C225.597 166.728 224.729 166.618 224.162 165.982C223.596 165.347 223.535 164.411 224.029 163.904L228.126 159.701C227.923 159.342 227.751 158.963 227.615 158.573L224.09 162.184C223.598 162.688 222.729 162.581 222.164 161.942C221.599 161.303 221.537 160.37 222.03 159.863L227.904 153.847C228.047 153.609 228.216 153.383 228.403 153.174L226.883 153.883C226.245 154.181 225.398 153.804 225 153.047C224.602 152.289 224.798 151.429 225.436 151.13L233.553 147.341C233.876 147.2 234.245 147.207 234.564 147.357C236.436 146.619 238.845 147.278 240.549 149.192C242.718 151.631 242.946 155.214 241.062 157.138L236.407 161.905C236.386 161.947 236.336 161.966 236.304 161.998L236.272 162.063L229.971 168.494Z" fill="#A2CCED"/>
<path d="M193.524 80.1918C192.609 75.2974 195.847 70.5833 200.755 69.6648C205.664 68.7463 210.388 71.9706 211.303 76.8651" fill="white"/>
<path d="M217.951 75.6213C216.936 70.7454 220.078 65.9689 224.968 64.9515C229.859 63.9342 234.645 67.0627 235.66 71.9386C235.685 72.0545 235.708 72.1745 235.726 72.2917" fill="white"/>
<path d="M195.157 79.8866C194.764 77.7671 196.169 75.7317 198.294 75.3376C200.413 74.9448 202.451 76.3361 202.85 78.4472" fill="#0D4060"/>
<path d="M82 130.894C82.0036 128.739 83.7583 126.996 85.9202 127C88.0748 127.004 89.8223 128.746 89.8259 130.894" fill="#0D4060"/>
<path d="M57 130.894C57.0036 128.739 58.7583 126.996 60.9202 127C63.0748 127.004 64.8223 128.746 64.8259 130.894" fill="#0D4060"/>
<path d="M219.594 75.3135C219.261 73.1828 220.724 71.1875 222.858 70.8541C224.902 70.5338 226.84 71.8598 227.283 73.8748" fill="#0D4060"/>
<path d="M226.815 80.1323C226.815 80.1323 225.993 87.0589 215.896 88.7545C205.799 90.45 203.852 84.4292 203.852 84.4292L226.815 80.1323Z" fill="#0D4060"/>
<path d="M235.552 231.846L228.695 232.485L219.133 210.66L231.664 209.941L235.552 231.846Z" fill="#5652A3"/>
<path d="M293.623 223.169C286.489 221.808 281.733 215.427 282.969 208.914C284.205 202.4 291.011 198.219 298.141 199.573" fill="#504B48"/>
<path d="M235.891 234.727C235.891 227.484 230.486 221.614 223.846 221.614C217.205 221.614 211.804 227.484 211.804 234.727" fill="#504B48"/>
<path d="M54.8068 197.058L49.3085 211.256C48.9266 212.104 47.5069 215.923 43.9939 215.779L26.1802 216.027C25.2867 216.103 27.5278 215.011 27.236 213.825L26.2991 213.886C34.8205 209.701 26.9297 210.326 24.8579 210.703L39.5621 207.595C44.1417 207.735 38.8667 195.129 39.0613 194.173" fill="#00A1CD"/>
<path d="M77.2394 191.752L80.9074 200.428C82.2261 203.159 82.3414 206.317 81.2244 209.137L71.5682 231.936C71.1862 233.096 69.1 233.531 68.2173 233.362C67.0715 233.143 66.4554 234.72 66.6283 233.071L69.4207 220.033C69.4423 219.882 68.7217 219.731 68.7686 219.584C69.9179 215.582 70.8259 211.515 71.4853 207.405C71.6438 206.277 71.1358 205.163 70.181 204.538L62.1064 199.279" fill="#00A1CD"/>
<path d="M24.0796 210.049L25.9208 215.801L39.0649 216.092L38.0848 207.735L24.0796 210.049Z" fill="#56C5D0"/>
<path d="M66.3943 232.992L71.1936 233.441L77.8918 218.15L69.1146 217.647L66.3943 232.992Z" fill="#56C5D0"/>
<path d="M25.7225 226.913C30.72 225.961 34.0636 221.492 33.1881 216.925C32.3125 212.359 27.5529 209.431 22.5518 210.383" fill="#504B48"/>
<path d="M66.1528 235C66.1528 229.927 69.9325 225.817 74.5913 225.817C79.2501 225.817 83.0261 229.927 83.0261 235" fill="#504B48"/>
<path d="M189.863 66.6407C189.863 66.6407 198.327 64.1873 203.658 62.5134" stroke="#0D4060" stroke-width="2" stroke-miterlimit="10" stroke-linecap="round"/>
<path d="M220.754 59.8447C220.754 59.8447 229.5 58.7674 235.027 57.9598" stroke="#0D4060" stroke-width="2" stroke-miterlimit="10" stroke-linecap="round"/>
<path d="M100 121.494C99.874 121.466 99.7659 121.419 99.6362 121.387C99.6362 121.387 99.7768 121.423 100 121.494Z" fill="#0D4060"/>
<path d="M64.5519 180.939C64.5519 180.939 51.954 177.644 46.3285 174.993C40.703 172.343 34.2341 152.404 34.2341 152.404" stroke="#0F8AB2" stroke-width="4" stroke-miterlimit="10"/>
<path d="M76.8143 191.276C77.4786 191.468 78.1683 191.085 78.3585 190.42C78.5202 189.856 78.2685 189.258 77.7577 188.976L73.8049 187.344C74.0746 187.101 74.3174 186.831 74.5313 186.537L79.2675 188.492C79.9299 188.689 80.6223 188.313 80.8186 187.653C80.9856 187.083 80.7331 186.474 80.211 186.192L75.4747 184.238C75.5215 183.915 75.5429 183.587 75.5289 183.258L80.8423 184.849C81.4115 185.084 80.8423 184.849 81.0995 184.215C81.3745 183.624 81.1226 182.921 80.5363 182.635L73.7563 179.837C73.559 179.696 73.3504 179.575 73.1288 179.478L74.6079 179.575C75.2653 179.579 75.822 179.08 75.8841 178.424C75.9922 177.823 75.5938 177.246 74.9942 177.137C74.9655 177.133 74.9354 177.126 74.908 177.125L67.0056 176.607C66.7005 176.591 66.4056 176.696 66.179 176.901C64.2525 176.944 62.5449 178.151 61.8551 179.95C60.8606 182.372 61.83 185.09 64.0116 185.986L69.3827 188.203C69.4202 188.219 69.4563 188.231 69.4958 188.242L69.5515 188.274L76.8143 191.276Z" fill="#A2CCED"/>
</g>
<defs>
<clipPath id="clip0">
<rect width="317" height="235" fill="white"/>
</clipPath>
</defs>
</svg>
