<svg width="302" height="263" viewBox="0 0 302 263" fill="none" xmlns="http://www.w3.org/2000/svg">
<path d="M302 243C302 254.046 234.395 263 151 263C67.605 263 0 254.046 0 243C0 231.954 67.605 223 151 223C234.395 223 302 231.954 302 243Z" fill="black" fill-opacity="0.1"/>
<path d="M117.8 237.841H110.442V206.111H51.1749V237.841H43.6572V203.144H43.7852V196.377H117.8V203.24" fill="#FAAD1C"/>
<path d="M118.898 181.286H43.1671C40.288 181.286 37.9634 183.623 37.9634 186.494V193.314C37.9634 196.196 40.2987 198.523 43.1671 198.523H118.898C121.777 198.523 124.102 196.185 124.102 193.314V186.494C124.113 183.623 121.777 181.286 118.898 181.286Z" fill="#FFCC04"/>
<path d="M255.496 238.321H248.138V206.591H188.871V238.321H181.354V203.624H181.471V196.869H255.496V203.721" fill="#FAAD1C"/>
<path d="M256.594 181.777H180.863C177.984 181.777 175.659 184.115 175.659 186.986V193.805C175.659 196.687 177.994 199.014 180.863 199.014H256.594C259.473 199.014 261.798 196.676 261.798 193.805V186.986C261.798 184.104 259.473 181.777 256.594 181.777Z" fill="#FFCC04"/>
<path d="M170.722 139.218C170.722 139.218 160.453 146.945 143.371 137.094" stroke="#108AB2" stroke-width="4" stroke-miterlimit="10" stroke-linecap="round"/>
<path d="M144.842 133.505C145.748 134.561 145.844 136.354 144.97 137.998C143.85 140.1 141.558 141.2 139.873 140.442L135.704 138.585C135.672 138.574 135.65 138.553 135.618 138.542C135.608 138.532 135.586 138.532 135.576 138.532L129.945 136.023C129.508 135.831 129.38 135.212 129.679 134.668C129.967 134.124 130.575 133.836 131.012 134.028L134.072 135.394C134.093 135.084 134.157 134.775 134.243 134.455L130.575 132.822C130.137 132.63 130.009 132.011 130.308 131.466C130.596 130.922 131.204 130.634 131.641 130.826L135.309 132.459C135.501 132.224 135.714 132.011 135.938 131.818L132.782 130.41C132.345 130.218 132.217 129.598 132.515 129.054C132.803 128.51 133.411 128.222 133.848 128.414L139.105 130.762C139.297 130.794 139.478 130.847 139.66 130.922L138.86 130.089C138.519 129.737 138.583 129.076 138.988 128.606C139.393 128.136 140.001 128.04 140.342 128.392" fill="#A1CBEC"/>
<path d="M158.928 120.452C158.928 120.452 145.183 129.673 138.614 129.673C132.046 129.673 123.057 120.452 123.057 120.452" stroke="#0A8AB2" stroke-width="5" stroke-miterlimit="10" stroke-linecap="round"/>
<path d="M152.242 117.901C150.611 119.374 149.982 121.925 150.856 124.305C151.976 127.336 155.132 128.99 157.862 127.987L164.601 125.49C164.655 125.468 164.697 125.447 164.74 125.425C164.761 125.415 164.793 125.415 164.814 125.404L173.91 122.042C174.625 121.775 174.966 120.911 174.678 120.121C174.39 119.331 173.558 118.894 172.844 119.161L167.896 120.996C167.939 120.559 167.939 120.1 167.886 119.652L173.825 117.453C174.539 117.186 174.881 116.322 174.593 115.532C174.305 114.742 173.473 114.305 172.759 114.571L166.819 116.77C166.585 116.428 166.329 116.119 166.051 115.841L171.159 113.952C171.874 113.686 172.215 112.821 171.927 112.031C171.639 111.241 170.807 110.804 170.093 111.071L161.594 114.219C161.306 114.251 161.008 114.326 160.73 114.422L162.159 113.269C162.756 112.789 162.842 111.828 162.362 111.145C161.871 110.462 160.986 110.302 160.389 110.783" fill="#A1CBEC"/>
<path d="M85.3722 191.361L60.0893 187.53C41.4071 184.691 28.5578 167.241 31.3943 148.542L49.4793 29.1041C52.3051 10.4163 69.7397 -2.44433 88.4219 0.394602L113.705 4.2261C132.387 7.05436 145.226 24.5149 142.4 43.2028L124.315 162.641C121.478 181.339 104.044 194.189 85.3722 191.361Z" fill="#00A0CC"/>
<path d="M75.7222 46.3086C76.4899 41.2177 81.2351 37.7171 86.3215 38.4962C91.408 39.2753 94.9055 44.014 94.1271 49.1048" fill="white"/>
<path d="M108.395 51.2607C109.162 46.1699 113.907 42.6692 118.994 43.4483C124.08 44.2274 127.578 48.9661 126.799 54.057" fill="white"/>
<path d="M77.5884 32.0181L93.3168 33.3735" stroke="#0D3F60" stroke-width="1.8651" stroke-miterlimit="10" stroke-linecap="round"/>
<path d="M128.9 39.5848L112.255 35.8813" stroke="#0D3F60" stroke-width="1.8651" stroke-miterlimit="10" stroke-linecap="round"/>
<path d="M83.8584 47.536C84.189 45.3374 86.247 43.8219 88.4436 44.1528C90.6403 44.4836 92.1545 46.5434 91.8239 48.742" fill="#0D3F60"/>
<path d="M116.531 52.4989C116.861 50.3003 118.919 48.7848 121.116 49.1157C123.313 49.4465 124.827 51.5063 124.496 53.7049" fill="#0D3F60"/>
<path d="M96.7979 46.8726C97.4604 42.1625 92.3908 37.5542 85.4747 36.5797C78.5585 35.6052 72.4148 38.6335 71.7523 43.3436C71.0898 48.0538 76.1594 52.6621 83.0755 53.6366C89.9917 54.6111 96.1354 51.5827 96.7979 46.8726Z" stroke="#231F20" stroke-width="1.119" stroke-miterlimit="10" stroke-linecap="round"/>
<path d="M131.065 51.7501C131.727 47.0399 126.657 42.4316 119.741 41.4571C112.825 40.4826 106.681 43.5109 106.019 48.2211C105.356 52.9312 110.426 57.5395 117.342 58.514C124.258 59.4885 130.402 56.4602 131.065 51.7501Z" stroke="#231F20" stroke-width="1.119" stroke-miterlimit="10" stroke-linecap="round"/>
<path d="M96.686 47.7175C96.686 47.7175 102.679 41.9649 106.134 49.137" stroke="#231F20" stroke-width="1.119" stroke-miterlimit="10" stroke-linecap="round"/>
<path d="M68.9507 184.2L83.005 234.202L89.9682 233.07L87.5689 181.34" fill="#00A0CC"/>
<path d="M90.704 239.548L84.7112 240.52L78.4731 218.747L90.2668 216.837L90.704 239.548Z" fill="#5652A2"/>
<path d="M104.289 237.638C103.361 231.918 97.9765 228.033 92.2609 228.951C86.5453 229.879 82.6639 235.269 83.5809 240.989" fill="#4F4A47"/>
<path d="M95.6519 180.134L109.706 230.135L116.68 229.004L114.27 177.273" fill="#00A0CC"/>
<path d="M116.808 235.802L110.815 236.774L104.588 215.001L116.371 213.091L116.808 235.802Z" fill="#5652A2"/>
<path d="M131.268 234.031C130.34 228.31 124.955 224.425 119.239 225.343C113.524 226.272 109.642 231.661 110.559 237.382" fill="#4F4A47"/>
<path d="M258.929 164.135C258.929 164.135 268.995 170.123 266.234 190.497" stroke="#108AB2" stroke-width="4" stroke-miterlimit="10" stroke-linecap="round"/>
<path d="M262.395 180.497C263.12 179.312 264.783 178.65 266.628 178.971C268.974 179.376 270.733 181.222 270.542 183.058L270.083 187.605C270.083 187.637 270.072 187.669 270.062 187.701C270.062 187.722 270.062 187.733 270.062 187.754L269.433 193.891C269.379 194.371 268.846 194.681 268.228 194.574C267.62 194.467 267.151 193.987 267.204 193.507L267.545 190.166C267.247 190.241 266.927 190.284 266.596 190.294L266.191 194.297C266.138 194.777 265.604 195.086 264.986 194.98C264.378 194.873 263.909 194.393 263.962 193.912L264.367 189.91C264.08 189.793 263.813 189.665 263.568 189.515L263.216 192.952C263.162 193.432 262.629 193.742 262.011 193.635C261.403 193.528 260.934 193.048 260.987 192.568L261.574 186.836C261.542 186.644 261.542 186.452 261.552 186.26L261.019 187.285C260.795 187.711 260.145 187.872 259.569 187.626C258.993 187.381 258.716 186.836 258.94 186.409" fill="#A1CBEC"/>
<path d="M279.808 111.487C277.121 145.031 245.973 190.038 213.834 187.455C179.978 184.734 158.064 136.151 160.752 102.607C163.439 69.0629 190.705 63.3531 223.569 65.9892C256.434 68.636 282.495 77.9426 279.808 111.487Z" fill="#00A0CC"/>
<path d="M173.207 111.316C173.633 105.948 178.336 101.946 183.699 102.373C189.063 102.799 193.062 107.506 192.635 112.874" fill="white"/>
<path d="M202.125 113.643C202.552 108.275 207.255 104.272 212.618 104.699C217.982 105.126 221.981 109.833 221.554 115.201" fill="white"/>
<path d="M175.35 98.1569C175.35 98.1569 178.271 92.3936 184.509 95.8729" stroke="#0D3F60" stroke-width="1.9736" stroke-miterlimit="10" stroke-linecap="round"/>
<path d="M219.944 102.618C219.944 102.618 218.771 96.4703 212.053 98.893" stroke="#0D3F60" stroke-width="1.9736" stroke-miterlimit="10" stroke-linecap="round"/>
<path d="M209.419 119.363C209.419 119.363 206.934 126.482 195.919 125.895C184.904 125.297 184.264 118.52 184.264 118.52L209.419 119.363Z" fill="#0D3F60"/>
<path d="M190.033 220.455L195.237 177.316L208.47 180.262L193.435 222.483L190.918 218.662" fill="#00A0CC"/>
<path d="M201.741 198.043L193.03 196.1L189.692 221.288L194.128 222.28L201.741 198.043Z" fill="#56C4CF"/>
<path d="M179.85 219.473C180.575 216.197 184.286 214.244 188.135 215.097C191.985 215.951 194.522 219.302 193.797 222.568" fill="#4F4A47"/>
<path d="M207.02 224.233L212.224 181.094L225.457 184.029L210.422 226.261L207.905 222.44" fill="#00A0CC"/>
<path d="M218.728 201.81L210.016 199.878L206.679 225.065L211.104 226.047L218.728 201.81Z" fill="#56C4CF"/>
<path d="M196.836 223.241C197.562 219.964 201.272 218.011 205.122 218.865C208.971 219.719 211.509 223.07 210.784 226.336" fill="#4F4A47"/>
<path d="M180.159 107.485C182.729 106.748 184.392 104.379 184.339 101.817C184.115 101.785 183.891 101.743 183.657 101.732C179.946 101.433 176.555 103.269 174.667 106.204C176.107 107.506 178.165 108.061 180.159 107.485Z" fill="#0D3F60"/>
<path d="M208.673 110.398C211.243 109.662 212.906 107.292 212.853 104.731C212.629 104.699 212.405 104.656 212.17 104.646C208.459 104.347 205.069 106.182 203.181 109.117C204.621 110.409 206.679 110.964 208.673 110.398Z" fill="#0D3F60"/>
<path d="M52.9879 108.029C52.9879 108.029 52.0175 133.622 61.8278 141.103C71.6381 148.585 88.7528 151.2 88.7528 151.2" stroke="#0A8AB2" stroke-width="5" stroke-miterlimit="10" stroke-linecap="round"/>
<path d="M104.759 159.493C105.505 159.631 106.251 159.066 106.401 158.233C106.561 157.401 106.07 156.611 105.324 156.462L100.131 155.49C100.397 155.138 100.621 154.743 100.813 154.327L107.03 155.501C107.776 155.64 108.523 155.074 108.672 154.242C108.832 153.409 108.341 152.619 107.595 152.47L101.378 151.296C101.357 150.89 101.293 150.485 101.197 150.101L106.539 151.104C107.286 151.243 108.032 150.677 108.182 149.845C108.341 149.012 107.851 148.222 107.105 148.073L98.19 146.397C97.9234 146.28 97.6355 146.194 97.3369 146.12L99.1497 145.864C99.9068 145.757 100.472 144.988 100.408 144.145C100.344 143.313 99.6615 142.715 98.8937 142.822L89.2008 144.199C88.8275 144.252 88.5076 144.465 88.273 144.764C86.119 145.191 84.2636 147.048 83.7944 149.546C83.1973 152.726 85.0527 155.768 87.9105 156.301L94.9696 157.625C95.023 157.636 95.0656 157.636 95.1189 157.646C95.1402 157.657 95.1616 157.668 95.1936 157.668L104.759 159.493Z" fill="#A1CBEC"/>
<path d="M110.229 60.1408C110.229 60.1408 107.457 65.3811 97.6889 63.8123C87.9212 62.2434 87.8999 56.9497 87.8999 56.9497L110.229 60.1408Z" fill="#0D3F60"/>
</svg>
