<svg id="Layer_1" data-name="Layer 1" xmlns="http://www.w3.org/2000/svg" viewBox="0 0 363.49 356.5"><defs><style>.cls-1,.cls-11,.cls-12,.cls-13,.cls-3,.cls-7{fill:none;stroke-miterlimit:10;}.cls-1{stroke:#108ab2;stroke-width:5.36px;}.cls-1,.cls-11,.cls-12,.cls-13,.cls-7{stroke-linecap:round;}.cls-2{fill:#a1cbec;}.cls-3{stroke:#87b4d3;stroke-width:1.15px;}.cls-4{fill:#00a0cc;}.cls-5{fill:#ec1651;}.cls-6{fill:#4f4a47;}.cls-11,.cls-7{stroke:#0d3f60;}.cls-7{stroke-width:2.49px;}.cls-8{fill:#0d3f60;}.cls-9{fill:#fff;}.cls-10{fill:#56c4cf;}.cls-11{stroke-width:1.72px;}.cls-12{stroke:#231f20;stroke-width:1.25px;}.cls-13{stroke:#0a8ab2;stroke-width:4.23px;}.cls-14{fill:#d5ba76;}.cls-15{fill:#969e9b;}.cls-16{fill:#c9a362;}.cls-17{fill:#696d6e;}</style></defs><path class="cls-1" d="M222.14,197.29s-13,13.11-46.57-8.4"/><path class="cls-2" d="M182.5,188.34c.61-2.34-2-5-3.17-6.69-2.4-3.34-4-6.67-3.5-10.77a4.44,4.44,0,0,0-.12-2.56c-.65-1.28-2.58-1.4-3.76-.57-1.46,1-2.2,3.15-2.46,4.86-.11.7-.33,4.62.56,5a38.39,38.39,0,0,0-5.13-1.79c-3.37-.91-5.11-1.36-6.17-.43a3.32,3.32,0,0,0-.55,3.68,4.2,4.2,0,0,0,1.48,1.71,3.44,3.44,0,0,0-1,4.8,3.78,3.78,0,0,0,1.08,1,2.65,2.65,0,0,0-1.31,1.72,3.25,3.25,0,0,0,.73,2.47c2.3,3.35,10.18,4.38,12.75,4.66a52.44,52.44,0,0,0,7,.28,2.29,2.29,0,0,0,2.14-1.7Z"/><path class="cls-3" d="M169.23,178.62s1.86,2.55.69,3.56-10.24-1.4-10.24-1.4"/><path class="cls-3" d="M168.91,182.7s4.21,3.64,1,5.2c-1.39.68-10.24-1.4-10.24-1.4"/><path class="cls-3" d="M168.51,188.2s1.86,2.55.69,3.56-7.95-.76-7.95-.76"/><path class="cls-4" d="M256.29,40.71c-43.58,3.2-78.08,17.1-74.53,65.35.9,12.24,3.36,24.46,5.88,36.43,2.8,13.3,7.39,26.42,11.71,39.28,1.9,5.65,3.85,10.59,3.73,16.68a47.58,47.58,0,0,1-3,15.87c-5.13,13.34-5.77,26.73-.25,40.17a36.91,36.91,0,0,0,18.66,19.64c17.48,8.24,24.07,7.27,58.33,4.75,20.32-1.5,41.4-4.68,57.06-19.6a46.61,46.61,0,0,0,13-23c1.26-5.25,1.28-7.49,1.53-12.84.34-7.41-2.64-16.63-5.76-23.1-4.7-9.71-9.51-22.77-7.71-33.93,4.19-26,5.52-60,4.56-72.91-3.55-48.25-39.63-56-83.21-52.76"/><polyline class="cls-4" points="241.68 278.08 247.84 326.56 255.22 326.56 261.38 278.23"/><polygon class="cls-5" points="254.98 326.56 257.82 306.19 245.07 306.19 247.61 324.88 254.98 326.56"/><path class="cls-6" d="M255.55,327.77a12.41,12.41,0,0,0-24.81,0"/><polyline class="cls-4" points="277.34 277.82 283.5 326.3 290.88 326.3 297.04 273.18"/><polygon class="cls-5" points="290.63 326.3 293.47 305.92 280.73 305.92 283.26 324.61 290.63 326.3"/><path class="cls-6" d="M291.21,327.51a12.41,12.41,0,0,0-24.82,0"/><path class="cls-7" d="M203.61,104.22s4-10,14.91-5.08"/><path class="cls-7" d="M264.65,99.72s-4.2-9.56-14.22-3.11"/><path class="cls-8" d="M253.58,129.51s-2.25,9.66-16.74,10.44-16.29-8-16.29-8Z"/><path class="cls-9" d="M242.41,118.62c-.49-6.58,4.81-12.34,11.84-12.86s13.1,4.4,13.59,11"/><path class="cls-8" d="M245.16,118.42a5.55,5.55,0,0,1,11.06-.82"/><path class="cls-9" d="M204.59,121.4c-.48-6.58,4.85-12.34,11.91-12.86s13.18,4.4,13.66,11"/><path class="cls-8" d="M209.6,121a5.54,5.54,0,0,1,11.06-.81"/><path class="cls-8" d="M205.28,115.69l-6.82-2.42,6.23,4.68c-.05.3-.08.58-.12.86l-5.79-.37,5.67,2.15c0,.82,0,1.34,0,1.34,2.27-11,8.31-12.89,10-13.21C208.92,109.31,206.39,112.55,205.28,115.69Z"/><path class="cls-8" d="M214.54,108.72c.17,0,.32-.06.49-.07A3.79,3.79,0,0,0,214.54,108.72Z"/><path class="cls-8" d="M273.34,113l-5.67,1.21c-.08-.27-.15-.54-.25-.82l5.48-5.55-6.39,3.4c-1.56-3-4.54-5.79-10.18-5.55,1.77.06,8,1,11.88,11.6,0,0,0-.52-.16-1.33Z"/><path class="cls-8" d="M253.75,105.83a4,4,0,0,0-.5,0C253.43,105.82,253.58,105.84,253.75,105.83Z"/><polyline class="cls-4" points="72.21 268.63 78.47 319.46 84.73 319.46 91.31 262.28"/><polygon class="cls-10" points="84.29 325.89 78.39 325.89 76.01 297.94 87.43 297.94 84.29 325.89"/><path class="cls-6" d="M78.47,326.67a9.21,9.21,0,0,1,18.41,0"/><path class="cls-4" d="M100.39,123.13,88.91,121A38.68,38.68,0,0,0,43.8,151.94l-.49,2.66c-.71,2.63-1.29,5.27-1.78,7.87L28.4,233a38.67,38.67,0,0,0,30.94,45.1l11.48,2.14a38.68,38.68,0,0,0,45.11-30.94l.49-2.67c.71-2.63,1.3-5.27,1.78-7.87l13.13-70.53A38.68,38.68,0,0,0,100.39,123.13Z"/><path class="cls-8" d="M104.06,184.66s-2.64,4.61-11.12,2.89-8.31-6.47-8.31-6.47Z"/><path class="cls-11" d="M69.59,154.13s4-5.39,9.81-.71"/><path class="cls-11" d="M125.66,164.46s-1-6.44-8.1-4.13"/><path class="cls-12" d="M90.92,165.89a17.66,17.66,0,1,1-14.16-20.57A17.65,17.65,0,0,1,90.92,165.89Z"/><path class="cls-12" d="M137.48,174.47a17.66,17.66,0,1,1-14.17-20.57A17.66,17.66,0,0,1,137.48,174.47Z"/><path class="cls-12" d="M91.27,163.81s7.11-6.8,11.3,2.08"/><path class="cls-9" d="M105,173.22c.88-5.26,6.14-8.76,11.75-7.81s9.44,6,8.56,11.23"/><path class="cls-9" d="M65.68,166.47c.88-5.26,6.17-8.75,11.81-7.8s9.5,6,8.61,11.24"/><path class="cls-8" d="M67.53,161.82l-5.09-3.1,4.2,4.63c-.1.21-.18.41-.26.61l-4.64-1.39L66,165.24a9.92,9.92,0,0,0-.22,1c3.89-7.61,9.14-7.82,10.62-7.72-4.68-.65-7.34,1.23-8.82,3.32"/><path class="cls-8" d="M130.28,174.24l-4.84-.21c0-.21,0-.42,0-.65l5.49-3-5.83,1.25c-.72-2.45-2.61-5.1-7.24-6,1.42.38,6.32,2.3,7.5,10.77a8.15,8.15,0,0,0,.12-1Z"/><path class="cls-13" d="M104.65,238.51s14.09,3.75,18.2-1.68-2.27-17-2.27-17"/><polyline class="cls-4" points="48.24 268.47 54.49 319.46 60.75 319.46 65.97 268.63"/><polygon class="cls-10" points="60.74 325.89 54.84 325.89 51.67 297.94 63.1 297.94 60.74 325.89"/><path class="cls-6" d="M54.39,326.67a9.21,9.21,0,0,1,18.42,0"/><path class="cls-14" d="M107.15,336.36q-1-5.13-1.94-10.24c-.6-3.18-1.18-6.36-1.78-9.54-.06-.28-.07-.63-.4-.81.3-.21.67.05,1-.19,1.51-1.1,3.41-1.26,5.07-2.05,2.4-1.15,5-1.79,7.45-2.85a17.14,17.14,0,0,1,2.41-.93,24.87,24.87,0,0,0,4-1.36c1.94-.86,4-1.38,5.89-2.29,1.28-.61,2.72-.76,4-1.4,1.64-.86,3.42-1.27,5.11-2a50.78,50.78,0,0,0,3.31,5.55c2.51,4.14,5.06,8.25,7.61,12.36.38.62.49,1-.4,1.28-2.78.95-5.53,2-8.29,3Z"/><path class="cls-15" d="M79.56,195.71a2.37,2.37,0,0,1,2.32,1.59c1.68,4.49,7.48,21.39,9.17,25.88,2.42,6.45,15.22,41.18,17.63,47.63,2.56,6.83,5.09,13.68,7.64,20.52,1.06,2.83,2.16,5.65,3.2,8.49.28.77.56,1,1.43.64,3.78-1.5,7.61-2.88,11.4-4.35,3.3-1.28,5.3-.38,6.38,3,.11.31.37.61.25,1,.33,1.39.15,1.84-1.08,2.67a17,17,0,0,1-3.18,1.17c-1.26.49-2.53,1-3.81,1.45l-8.15,3-9.93,3.7c-2.92,1.09-5.74,2-8.56,3.29-1.42.67-2.89.65-3.7-.8-.29-.7-.61-1.39-.86-2.11a3.88,3.88,0,0,1,2.41-5c4.13-1.56,8.26-3.13,12.41-4.64.78-.29.8-.63.54-1.32q-4.54-12.11-9.07-24.22c-3.28-8.76-16.94-45.81-20.22-54.57-1.41-3.74-7-19.89-8.32-23.64A2.38,2.38,0,0,1,79.56,195.71Z"/><path class="cls-2" d="M87.83,243.55a1.37,1.37,0,0,1,0-2.72l4.68,0a5.3,5.3,0,0,1-.39-1.12l-5.62,0a1.37,1.37,0,0,1,0-2.73l5.62,0a5.77,5.77,0,0,1,.36-1l-4.83,0a1.32,1.32,0,0,1-1.22-1.38,1.31,1.31,0,0,1,1.24-1.35l8,.06a4.17,4.17,0,0,1,.79-.1L95,232.67a1.4,1.4,0,0,1-.8-1.71h0a1.21,1.21,0,0,1,1.54-.89l8.21,2.84a1.29,1.29,0,0,1,.71.65,5.22,5.22,0,0,1,3.08,4.92,5,5,0,0,1-4.73,5.18l-6.37,0h-.21Z"/><path class="cls-13" d="M75.65,221.74C47.41,247.25,41.6,209.12,41.6,209.12"/><path class="cls-2" d="M91.81,215.82a1.37,1.37,0,0,0-1.64-2.18l-3.74,2.82a5.3,5.3,0,0,0-.36-1.13l4.49-3.39a1.37,1.37,0,0,0-1.65-2.17l-4.48,3.38a5.09,5.09,0,0,0-.89-.59l3.85-2.91a1.37,1.37,0,0,0-1.65-2.18l-6.41,4.85a4.7,4.7,0,0,0-.69.39l.92-1.34a1.4,1.4,0,0,0-.38-1.85h0a1.22,1.22,0,0,0-1.77.2l-4.89,7.18a1.32,1.32,0,0,0-.18.95,5.24,5.24,0,0,0,.47,5.79A5,5,0,0,0,79.7,225l5.08-3.85.11-.08.06,0Z"/><polygon class="cls-16" points="143.61 323.66 136.74 312.31 141.54 324.43 143.61 323.66"/><polygon class="cls-16" points="133.99 327.08 129.77 320 131.7 327.87 133.99 327.08"/><polygon class="cls-16" points="116.79 333.02 111.8 321.85 114.23 333.91 116.79 333.02"/><polygon class="cls-16" points="121.91 331.21 120.58 324.88 123.43 330.68 121.91 331.21"/><path class="cls-17" d="M158.78,314.83a5.12,5.12,0,0,0-2,.4,4.05,4.05,0,1,0-5.47,5.39,3.65,3.65,0,1,0,5.36,4.1,5.08,5.08,0,0,0,2.1.46,5.18,5.18,0,1,0,0-10.35Z"/><circle class="cls-17" cx="163.62" cy="307.36" r="2.46"/><circle class="cls-17" cx="137.03" cy="326.2" r="2.56"/><path class="cls-8" d="M80,159a5.79,5.79,0,0,0,6.2,9.09A9.91,9.91,0,0,0,80,159Z"/><path class="cls-8" d="M119.11,166.29a5.79,5.79,0,0,0,6.2,9.09A9.9,9.9,0,0,0,119.11,166.29Z"/><path class="cls-1" d="M312.6,190.42s-7.89,33-56.09,10.19"/><path class="cls-2" d="M259.49,198.52c-.12-2.41-3.39-4.22-5-5.44-3.28-2.49-5.81-5.19-6.53-9.27a4.35,4.35,0,0,0-.87-2.4c-1-1-2.88-.57-3.76.57-1.08,1.41-1.17,3.66-.92,5.36.11.7,1,4.51,2,4.62a37.47,37.47,0,0,0-5.43-.2c-3.49.12-5.29.21-6,1.42a3.3,3.3,0,0,0,.56,3.67,4.19,4.19,0,0,0,1.92,1.2,3.43,3.43,0,0,0,.46,4.89,3.74,3.74,0,0,0,1.33.67,2.64,2.64,0,0,0-.74,2,3.3,3.3,0,0,0,1.42,2.14c3.2,2.52,11,1.18,13.56.69a53,53,0,0,0,6.75-1.8,2.3,2.3,0,0,0,1.54-2.26Q259.62,201.47,259.49,198.52Z"/></svg>