<svg id="Layer_1" data-name="Layer 1" xmlns="http://www.w3.org/2000/svg" viewBox="0 0 363.49 356.5"><defs><style>.cls-1,.cls-10,.cls-13,.cls-3,.cls-9{fill:none;stroke-linecap:round;stroke-miterlimit:10;}.cls-1{stroke:#0f8ab2;stroke-width:7.19px;}.cls-2{fill:#a2cced;}.cls-3{stroke:#108ab2;stroke-width:3.71px;}.cls-4{fill:#a1cbec;}.cls-5{fill:#00a0cc;}.cls-6{fill:#ec1651;}.cls-7{fill:#4f4a47;}.cls-8{fill:#0d3f60;}.cls-13,.cls-9{stroke:#0d3f60;}.cls-9{stroke-width:1.62px;}.cls-10{stroke:#231f20;stroke-width:1.18px;}.cls-11{fill:#fff;}.cls-12{fill:#56c4cf;}.cls-13{stroke-width:2.49px;}</style></defs><path class="cls-1" d="M215.79,164.36s-33.5,44.37-78.21,21"/><path class="cls-2" d="M117.36,198.08a2.18,2.18,0,0,1-1.9-2.44.88.88,0,0,1,0-.16,2.6,2.6,0,0,1,2.36-2.54l8.09.2a9.87,9.87,0,0,1-.51-2.13l-9.69-.19a2.19,2.19,0,0,1-1.92-2.43l0-.18a2.59,2.59,0,0,1,2.37-2.53l9.69.19a12,12,0,0,1,.71-1.92l-8.33-.18a2.2,2.2,0,0,1-1.9-2.47s0-.09,0-.13a2.62,2.62,0,0,1,2.37-2.53l13.87.33a7,7,0,0,1,1.37-.16l-2.58-1a2.51,2.51,0,0,1-1.1-3.22h0a2.25,2.25,0,0,1,2.72-1.66l.07,0,13.71,5.55A2,2,0,0,1,148,179.7a9.12,9.12,0,0,1,4.54,9.31c-.5,5.37-4.54,9.68-9,9.58l-11-.25-.21-.08-.09,0Z"/><path class="cls-3" d="M92.17,249.62s-10-16-6.53-43.63"/><path class="cls-4" d="M86.48,253.17c-.38-2.82,2.26-5.74,5.85-6.47,2.83-.57,5.43.37,6.59,2.17l5.59,8.92a1.45,1.45,0,0,1-.92,1.91c-.87.39-1.47.21-1.84-.44l-1.65-2.43c0,.3.39,1.44.36,1.74l1.78,8.63a1.74,1.74,0,0,1-1.53,1.7,1.46,1.46,0,0,1-1.88-1l-1.33-5.12c-.38.25-.37.49-.8.68l1.42,6.18a1.72,1.72,0,0,1-1.53,1.69,1.47,1.47,0,0,1-1.89-1l-1.42-6.19A5.12,5.12,0,0,1,92,264l.93,4.31A1.57,1.57,0,0,1,91.62,270a1.46,1.46,0,0,1-1.88-1l-1.91-8.63"/><polyline class="cls-5" points="61.76 267.9 68.5 322.66 75.24 322.66 82.33 261.05"/><polygon class="cls-6" points="74.77 329.59 68.41 329.59 65.84 299.48 78.16 299.48 74.77 329.59"/><path class="cls-7" d="M68.5,330.44a9.92,9.92,0,0,1,19.84,0"/><polyline class="cls-5" points="35.92 267.73 42.66 322.66 49.41 322.66 55.03 267.89"/><polygon class="cls-6" points="49.4 329.59 43.04 329.59 39.63 299.48 51.93 299.48 49.4 329.59"/><path class="cls-7" d="M42.55,330.44a9.92,9.92,0,0,1,19.84,0"/><path class="cls-5" d="M60.49,129l-11,.32A36.52,36.52,0,0,0,14,166.93l.07,2.56c-.13,2.57-.14,5.12-.07,7.62l2,67.72a36.53,36.53,0,0,0,37.58,35.44l11-.32a36.52,36.52,0,0,0,35.44-37.57l-.08-2.56c.13-2.57.14-5.12.07-7.62l-2-67.72A36.52,36.52,0,0,0,60.49,129Z"/><path class="cls-8" d="M60,190.79s1.52-4.78,9.7-4.86,8.95,4.33,8.95,4.33Z"/><path class="cls-9" d="M40.55,164.36s2.63-5.78,8.9-2.62"/><path class="cls-9" d="M94.35,162.69s-2.23-5.74-8.3-2.19"/><path class="cls-10" d="M62.58,171A16.67,16.67,0,1,1,45.4,154.8,16.68,16.68,0,0,1,62.58,171Z"/><path class="cls-10" d="M107.26,169.56a16.67,16.67,0,1,1-17.18-16.15A16.67,16.67,0,0,1,107.26,169.56Z"/><path class="cls-10" d="M62.48,169s5.21-7.69,10.85-.34"/><path class="cls-11" d="M77,174.91c-.24-5,3.92-9.31,9.29-9.56S96.19,169,96.43,174"/><path class="cls-11" d="M39.4,176.53c-.24-5,4-9.31,9.34-9.56s10,3.62,10.2,8.65"/><path class="cls-8" d="M40.18,171.86,34.86,170l4.8,3.43c0,.21-.08.41-.12.61L35,173.72l4.41,1.62a7.93,7.93,0,0,0,0,.95c2.06-7.8,6.87-9,8.25-9.25-4.44.33-6.52,2.6-7.47,4.82"/><path class="cls-8" d="M100.57,170.79l-4.51.78c0-.2-.1-.39-.17-.6l4.46-3.86-5.13,2.32c-1.15-2.12-3.43-4.19-7.88-4.11,1.39.07,6.29.87,9.08,8.44a9.3,9.3,0,0,0-.09-.94Z"/><path class="cls-8" d="M51.14,166.72a5.47,5.47,0,0,0,7.54,7.15A9.38,9.38,0,0,0,51.14,166.72Z"/><path class="cls-8" d="M88.68,165.68a5.46,5.46,0,0,0,7.53,7.15A9.36,9.36,0,0,0,88.68,165.68Z"/><path class="cls-3" d="M34.72,260.55s-10-16-6.53-43.63"/><path class="cls-4" d="M29,264.1c-.37-2.82,2.26-5.74,5.85-6.47,2.83-.57,5.43.37,6.6,2.17l5.58,8.92a1.44,1.44,0,0,1-.92,1.91c-.87.4-1.47.21-1.83-.44l-1.66-2.43c0,.3.39,1.44.36,1.74l1.78,8.63a1.74,1.74,0,0,1-1.53,1.7,1.46,1.46,0,0,1-1.88-1l-1.33-5.12c-.38.25-.37.49-.8.68l1.42,6.18a1.72,1.72,0,0,1-1.53,1.69,1.45,1.45,0,0,1-1.88-1l-1.43-6.19a5.18,5.18,0,0,1-1.26-.14l.93,4.31A1.57,1.57,0,0,1,34.17,281a1.46,1.46,0,0,1-1.88-1l-1.91-8.63"/><polyline class="cls-5" points="218.81 252.36 229.63 329.24 235.91 329.24 246.72 252.6"/><polygon class="cls-12" points="236.02 327.21 239.29 305.2 225.47 305.2 229.25 326.89 236.02 327.21"/><path class="cls-7" d="M238.2,329.6a14.84,14.84,0,1,0-29.68,0"/><polyline class="cls-5" points="254.94 251.76 265.75 328.64 272.04 328.64 282.85 252"/><polygon class="cls-12" points="272.15 326.61 275.42 304.6 261.6 304.6 265.38 326.29 272.15 326.61"/><path class="cls-7" d="M274.33,329a14.84,14.84,0,1,0-29.68,0"/><path class="cls-5" d="M295.37,247.9c12.31-13.83,17.67-32.31,23.12-49.61,7-22.17,13.95-44.61,19.48-67.17,5.08-20.76,11.23-43.73,4-64.74-7.44-21.55-25.9-31.79-47.51-32.23-19.21-.38-38.42-.77-57.63-.58-14.78.14-36.9-3.07-50,4.64-14.68,8.63-26.41,20.85-29.93,38-2.76,13.49-.94,27.52,2.11,41,8.25,36.28,21.86,71.54,35.39,106.1C205.26,251.11,225.53,265,247,265c12.25,0,25.41-.62,36.51-6.51C288.45,255.81,291.57,252.16,295.37,247.9Z"/><line class="cls-13" x1="180" y1="88.23" x2="197.98" y2="85.42"/><line class="cls-13" x1="243.34" y1="88.23" x2="225.37" y2="85.42"/><path class="cls-8" d="M228.17,117.75s-2.95,9.48-17.48,9.19S195,117.75,195,117.75Z"/><path class="cls-11" d="M219.06,106.05c0-6.61,5.72-12,12.77-12s12.77,5.36,12.77,12"/><path class="cls-8" d="M226.35,106.05a5.55,5.55,0,1,1,11.1,0"/><path class="cls-11" d="M181.1,106.05c0-6.61,5.74-12,12.83-12s12.84,5.36,12.84,12"/><path class="cls-8" d="M188.38,106.05a5.56,5.56,0,0,1,11.11,0"/><path class="cls-8" d="M192.76,94.09h0Z"/><path class="cls-8" d="M232.94,94.09h0Z"/><path class="cls-1" d="M297.35,152.46s0,55.6-49.76,63.89"/><path class="cls-2" d="M233.88,232.24a2.19,2.19,0,0,1-2.66-1.58l0-.16a2.59,2.59,0,0,1,1.27-3.22l7.61-2.76a10.15,10.15,0,0,1-1.25-1.8l-9.09,3.34a2.19,2.19,0,0,1-2.68-1.56c0-.06,0-.12,0-.18a2.6,2.6,0,0,1,1.29-3.22l9.1-3.34a11.69,11.69,0,0,1,0-2l-7.83,2.86a2.2,2.2,0,0,1-2.67-1.61l0-.13a2.61,2.61,0,0,1,1.29-3.22l13-4.73a6.17,6.17,0,0,1,1.22-.64l-2.78,0a2.51,2.51,0,0,1-2.2-2.6h0a2.25,2.25,0,0,1,1.93-2.53h.07l14.79.19a2,2,0,0,1,1.5.74,9.14,9.14,0,0,1,7.61,7c1.49,5.19-.7,10.67-4.9,12.19L248.08,227h-.32Z"/></svg>