<svg id="Layer_1" data-name="Layer 1" xmlns="http://www.w3.org/2000/svg" viewBox="0 0 363.49 356.5"><defs><style>.cls-1{fill:#a1cbec;}.cls-2{fill:none;stroke:#87b4d3;stroke-miterlimit:10;stroke-width:5.58px;}</style></defs><path class="cls-1" d="M263.46,214.57c2.69-17-17.46-34.26-26.95-45.14-19.23-22.06-32.91-44.5-32-73.92.18-6.15.74-12.79-2.57-18-5.47-8.63-19.22-8.15-27-1.49-9.63,8.28-13.48,23.76-14.17,36-.29,5,.76,32.92,7.35,35.05a273.81,273.81,0,0,0-37.52-9.21c-24.45-4.21-37.08-6.21-43.92,1.13-5.75,6.16-6.39,17.75-1.45,26.4a30,30,0,0,0,11.66,11.07,25,25,0,0,0-8.56,12.94c-.44,1.69-3,12.47,4.65,21.75a27.22,27.22,0,0,0,8.32,6.63c-1.22.83-7.24,5.08-8.14,13.05-.88,7.81,4.45,14.15,6.81,16.95,18.6,22.15,75,24.18,93.37,24.4a372.26,372.26,0,0,0,49.54-2.75,16.14,16.14,0,0,0,14-13.46Z"/><path class="cls-2" d="M163,154.76s14.9,16.8,7.32,24.75-73.4-3-73.4-3"/><path class="cls-2" d="M163.45,183.85s32.24,22.88,10.6,36.13c-9.37,5.73-73.4-3-73.4-3"/><path class="cls-2" d="M164.31,223s14.9,16.8,7.32,24.75-56.81,0-56.81,0"/></svg>