<svg id="Layer_1" data-name="Layer 1" xmlns="http://www.w3.org/2000/svg" viewBox="0 0 363.49 356.5"><defs><style>.cls-1{fill:#fbad18;}.cls-2{fill:#ffcb05;}.cls-3{fill:#00a1cd;}.cls-4{fill:#5652a3;}.cls-5{fill:#504b48;}.cls-6{fill:#00a0cc;}.cls-10,.cls-7,.cls-8{fill:none;stroke-linecap:round;stroke-miterlimit:10;}.cls-7,.cls-8{stroke:#0d4060;}.cls-8{stroke-width:2px;}.cls-9{fill:#0d4060;}.cls-10{stroke:#0f8ab2;stroke-width:5.67px;}.cls-11{fill:#a2cced;}</style></defs><polygon class="cls-1" points="142.51 316.96 152.54 316.96 152.54 273.74 233.33 273.74 233.33 316.96 243.58 316.96 243.58 269.71 243.42 269.71 243.42 260.49 142.51 260.49 142.51 269.83 142.51 316.96"/><path class="cls-2" d="M145.66,239.93h94a11.75,11.75,0,0,1,11.75,11.74h0a11.75,11.75,0,0,1-11.75,11.75h-94a11.75,11.75,0,0,1-11.75-11.75h0A11.75,11.75,0,0,1,145.66,239.93Z"/><polyline class="cls-3" points="164.39 244.61 172.42 300.88 182.08 300.89 190.18 244.8"/><polygon class="cls-4" points="181.88 314.52 172.41 314.52 167.4 269.1 186.88 269.11 181.88 314.52"/><path class="cls-5" d="M163.29,317.33c0-8.33,6.38-15.08,14.22-15.08s14.25,6.77,14.22,15.1"/><polyline class="cls-3" points="198.04 244.61 206.07 300.88 215.73 300.89 223.82 244.8"/><polygon class="cls-4" points="215.52 314.52 206.06 314.52 201.05 269.1 220.53 269.11 215.52 314.52"/><path class="cls-5" d="M196.94,317.33c0-8.33,6.38-15.08,14.21-15.08s14.26,6.77,14.23,15.1"/><path class="cls-6" d="M105.08,180.33c0-37.89,18.82-74.67,43.18-100.91,62.81-67.66,132.75,30,132.75,104,0,54.63-43.25,67.88-86.52,67.88s-89.41-16.38-89.41-71"/><path class="cls-7" d="M187.43,117.34c0,4.53-4.82,8.21-10.76,8.21s-10.77-3.67-10.78-8.21"/><path class="cls-7" d="M218.31,117.34c0,4.53-4.82,8.21-10.76,8.21s-10.77-3.67-10.78-8.21"/><path class="cls-8" d="M202.48,106.09c10.83-4.44,15.76,3.08,15.76,3.08"/><path class="cls-8" d="M181.75,105.94c-11.43-4.43-15.27,3.23-15.27,3.23"/><path class="cls-9" d="M209.35,137.08s-1.12,4.39-15.45,4.54-17.24-4.54-17.24-4.54Z"/><path class="cls-10" d="M268.73,181.6s0,43.89-39.28,50.44"/><path class="cls-11" d="M210.74,248.52a1.72,1.72,0,0,1-2.1-1.24l0-.13a2,2,0,0,1,1-2.54l6-2.18a7.64,7.64,0,0,1-1-1.42l-7.19,2.64a1.72,1.72,0,0,1-2.1-1.23.83.83,0,0,1,0-.15,2,2,0,0,1,1-2.54l7.18-2.64a9.61,9.61,0,0,1,0-1.61l-6.18,2.26a1.74,1.74,0,0,1-2.11-1.27s0-.07,0-.11a2.05,2.05,0,0,1,1-2.54l10.29-3.74a4.86,4.86,0,0,1,1-.5l-2.2,0a2,2,0,0,1-1.73-2.05h0a1.77,1.77,0,0,1,1.52-2h.06l11.68.15a1.6,1.6,0,0,1,1.18.59,7.18,7.18,0,0,1,6,5.55c1.18,4.09-.55,8.42-3.86,9.62l-8.16,3h-.25Z"/><path class="cls-10" d="M121.21,181.13s0,43.89,39.28,50.43"/><path class="cls-11" d="M179.2,248.05a1.72,1.72,0,0,0,2.1-1.25l0-.13a2.05,2.05,0,0,0-1-2.54l-6-2.18a7.32,7.32,0,0,0,1-1.42l7.18,2.64a1.73,1.73,0,0,0,2.11-1.23,1,1,0,0,0,0-.14,2,2,0,0,0-1-2.54l-7.18-2.64a9.74,9.74,0,0,0,0-1.62l6.18,2.26a1.74,1.74,0,0,0,2.11-1.27s0-.07,0-.11a2,2,0,0,0-1-2.53l-10.29-3.74a5.5,5.5,0,0,0-1-.51l2.2,0a2,2,0,0,0,1.73-2h0a1.78,1.78,0,0,0-1.52-2h-.06l-11.68.14a1.6,1.6,0,0,0-1.18.59,7.18,7.18,0,0,0-6,5.55c-1.18,4.09.55,8.42,3.86,9.62l8.16,3h.25Z"/></svg>