<svg id="Layer_1" data-name="Layer 1" xmlns="http://www.w3.org/2000/svg" viewBox="0 0 363.49 356.5"><defs><style>.cls-1{fill:#4c4c4b;}.cls-2{fill:#686868;}.cls-3{fill:#66c153;}.cls-4{fill:none;stroke:#fff;stroke-miterlimit:10;stroke-width:3.28px;}.cls-5{fill:#fff;}</style></defs><path class="cls-1" d="M91.26,106.18h178.4c9,0,16.24,8,16.24,18V233.57c0,9.92-7.27,18-16.24,18H91.26c-9,0-16.24-8-16.24-18V124.14C75,114.22,82.29,106.18,91.26,106.18Z"/><path class="cls-2" d="M102.25,118.08h157c7.9,0,14.3,6.66,14.3,14.88V223.6c0,8.22-6.4,14.88-14.3,14.88h-157c-7.89,0-14.29-6.66-14.29-14.88V133C88,124.74,94.36,118.08,102.25,118.08Z"/><circle class="cls-3" cx="182.26" cy="177.65" r="50.16"/><path class="cls-4" d="M206,169.08c0,2.88.18,5.77,0,8.63a29.28,29.28,0,0,1-8.43,18.5,50.1,50.1,0,0,1-6.78,5.45l-7.45,5.43c-.81.58-1.05.59-1.84,0-3.81-2.79-7.7-5.49-11.43-8.4a29.19,29.19,0,0,1-10.75-17.32,29.84,29.84,0,0,1-.66-6.53c0-4.45,0-8.9,0-13.35,0-1.17.29-1.46,1.42-1.48a33,33,0,0,0,18.08-5.64l3.32-2.21c.84-.55,1-.53,1.86,0,2.44,1.52,4.82,3.17,7.37,4.49A30.87,30.87,0,0,0,204.62,160c1.26,0,1.52.28,1.52,1.57v7.48Z"/><path class="cls-5" d="M177.38,188.91l.92.86.9-.88,18.68-18.39a1.32,1.32,0,0,0-1.85-1.88l-17.77,17.51-8-7.5a1.32,1.32,0,0,0-1.8,1.92l8.91,8.36"/></svg>