<svg id="Layer_1" data-name="Layer 1" xmlns="http://www.w3.org/2000/svg" viewBox="0 0 363.49 356.5"><defs><style>.cls-1{fill:#d3bc88;}.cls-2{fill:#f4e1b0;}.cls-3{fill:none;stroke:#0d4060;stroke-linecap:round;stroke-miterlimit:10;}.cls-4{fill:#0d4060;}</style></defs><rect class="cls-1" x="95.02" y="76.95" width="169.83" height="218" transform="translate(-21.26 23.24) rotate(-6.98)"/><rect class="cls-2" x="106.73" y="61.38" width="169.83" height="218" transform="translate(-19.28 24.55) rotate(-6.98)"/><line class="cls-3" x1="129.06" y1="166.62" x2="249.21" y2="149.17"/><line class="cls-3" x1="132.67" y1="191.11" x2="252.82" y2="173.66"/><line class="cls-3" x1="137.56" y1="220.64" x2="257.7" y2="203.19"/><line class="cls-3" x1="140.88" y1="248.8" x2="261.03" y2="231.35"/><path class="cls-4" d="M140.49,129.94l-3.61-25.45-1-7.25-1,.27a117.71,117.71,0,0,0,11.67,24.15c.6.94,1.22,1.88,1.84,2.8l1,1.39a10.37,10.37,0,0,0,.95,1.33c.47.47,1.39.06,1.8-.32A3.39,3.39,0,0,0,153,125a8.12,8.12,0,0,0,.07-2.46l-.32-3.73-.64-7.45-1.46-16.9c-.06-.64-1.06-.64-1,0q1.2,13.84,2.39,27.71c.1,1.09.44,4.21-1.36,4.18l.43.25a116.51,116.51,0,0,1-12.58-22.4q-1.46-3.45-2.68-7a.5.5,0,0,0-1,.27L138.5,123l1,7.26c.09.63,1.05.36,1-.27Z"/><path class="cls-4" d="M158.45,91.46l2.26,26,.63,7.34c0,.39.55.71.86.35a12,12,0,0,1,11.16-4c.62.12.89-.84.26-1a13,13,0,0,0-12.13,4.28l.85.35-2.25-26-.64-7.34c0-.64-1.06-.64-1,0Z"/><path class="cls-4" d="M161.06,107.64l10.5-.9c.64,0,.64-1,0-1l-10.5.9c-.64.06-.64,1.06,0,1Z"/><path class="cls-4" d="M159.09,93.42a58.21,58.21,0,0,0,13.58-1.84.5.5,0,0,0-.26-1,57.58,57.58,0,0,1-13.32,1.8.5.5,0,0,0,0,1Z"/><path class="cls-4" d="M196.29,86,197.91,105l.83,9.67c.06.74.12,1.48.19,2.23a3.42,3.42,0,0,0,.37,1.57c.67,1.06,1.95.53,2.83.1,4-2,6.31-6.22,7-10.45a21.14,21.14,0,0,0-2.31-13.3,23,23,0,0,0-11.34-10.46c-.6-.25-.86.72-.27,1,7.94,3.33,13.65,11.89,13.17,20.57-.21,4-1.81,8.21-5,10.72a11.24,11.24,0,0,1-1.3.86c-.42.23-1.13.71-1.63.64s-.52-1.17-.55-1.59l-.19-2.23-.75-8.79L197.29,86c-.06-.64-1.06-.64-1,0Z"/><path class="cls-4" d="M231.27,83.07a8.92,8.92,0,0,0-12.68,1.49,12.09,12.09,0,0,0-2.42,6.59c-.15,2.2.21,5.22,2.06,6.71s3.74.27,5.41-.64a5.05,5.05,0,0,1,2.88-.92,3,3,0,0,1,2.2,1.8,15.23,15.23,0,0,1,1.3,6.43,16.56,16.56,0,0,1-.77,6.41c-.73,2-2.49,3.64-4.73,2.93a6.74,6.74,0,0,1-3-2.32,21.83,21.83,0,0,1-2.34-3.73c-.29-.58-1.16-.07-.86.5a15.69,15.69,0,0,0,4.36,5.73,4.59,4.59,0,0,0,5.46.11,7.6,7.6,0,0,0,2.54-4.8,22.79,22.79,0,0,0,.19-6.44c-.2-2.1-.54-4.5-1.89-6.21a3.61,3.61,0,0,0-2.35-1.4,5.11,5.11,0,0,0-2.83.67c-1.77.88-4.09,2.7-5.61.39-1.37-2.07-1.31-5.08-.7-7.39a9.31,9.31,0,0,1,4.93-6.28,7.92,7.92,0,0,1,8.11,1.08c.49.4,1.21-.3.7-.71Z"/><path class="cls-4" d="M176.48,88.9l2.75,31.73c0,.39.55.71.85.35a11.42,11.42,0,0,1,10.6-3.82c.63.12.9-.85.27-1a12.38,12.38,0,0,0-11.57,4.08l.85.35L177.48,88.9c-.06-.63-1.06-.64-1,0Z"/><path class="cls-4" d="M179,104.33l10-.86c.63,0,.64-1,0-1l-10,.86c-.63.06-.64,1.06,0,1Z"/><path class="cls-4" d="M177.11,90.8A56.39,56.39,0,0,0,190,89.05a.5.5,0,0,0-.26-1,54.77,54.77,0,0,1-12.67,1.72.5.5,0,0,0,0,1Z"/></svg>