<svg id="Layer_1" data-name="Layer 1" xmlns="http://www.w3.org/2000/svg" viewBox="0 0 363.49 356.5"><defs><style>.cls-1{fill:#00a0cc;}.cls-2{fill:#56c4cf;}.cls-3{fill:#4f4a47;}.cls-10,.cls-11,.cls-4,.cls-9{fill:none;stroke-miterlimit:10;}.cls-4{stroke:#0d3f60;stroke-width:2.49px;}.cls-11,.cls-4{stroke-linecap:round;}.cls-5{fill:#0d3f60;}.cls-6{fill:#fff;}.cls-7{fill:#ec1651;}.cls-8{fill:#f1eec8;}.cls-10,.cls-9{stroke:#e4df9f;}.cls-9{stroke-width:1.23px;}.cls-10{stroke-width:1.1px;}.cls-11{stroke:#108ab2;stroke-width:5.9px;}.cls-12{fill:#a1cbec;}</style></defs><polyline class="cls-1" points="154.9 252.3 165.71 329.18 172 329.18 182.81 252.54"/><polyline class="cls-1" points="191.3 251.94 202.12 328.82 208.4 328.82 219.21 252.18"/><polygon class="cls-2" points="172.11 327.15 175.38 305.14 161.56 305.14 165.34 326.83 172.11 327.15"/><polygon class="cls-2" points="208.28 327.15 211.56 305.14 198.96 305.14 201.51 326.83 208.28 327.15"/><path class="cls-3" d="M179.29,329.54a14.84,14.84,0,0,0-29.68,0"/><path class="cls-3" d="M227.31,329.54a14.84,14.84,0,1,0-29.68,0"/><path class="cls-1" d="M231.46,247.84c12.31-13.83,17.67-32.31,23.11-49.61,7-22.17,14-44.61,19.49-67.17,5.08-20.77,11.23-43.73,4-64.74-7.44-21.55-25.9-31.79-47.51-32.23-19.21-.38-38.42-.77-57.64-.58-14.77.14-36.89-3.07-50,4.64C108.2,46.78,96.47,59,93,76.17c-2.76,13.5-.94,27.53,2.11,41,8.25,36.27,21.86,71.54,35.39,106.1,10.9,27.81,31.17,41.66,52.63,41.66,12.25,0,25.41-.62,36.5-6.51C224.54,255.75,227.66,252.1,231.46,247.84Z"/><line class="cls-4" x1="156.09" y1="88.17" x2="174.07" y2="85.36"/><line class="cls-4" x1="219.43" y1="88.17" x2="201.46" y2="85.36"/><path class="cls-5" d="M204.26,117.69s-2.95,9.48-17.48,9.19-15.68-9.19-15.68-9.19Z"/><path class="cls-6" d="M195.15,106c0-6.61,5.72-12,12.77-12s12.76,5.36,12.76,12"/><path class="cls-5" d="M202.43,106a5.56,5.56,0,0,1,11.11,0"/><path class="cls-6" d="M157.18,106c0-6.61,5.75-12,12.84-12s12.84,5.36,12.84,12"/><path class="cls-5" d="M164.47,106a5.56,5.56,0,0,1,11.11,0"/><path class="cls-5" d="M168.85,94h0Z"/><path class="cls-5" d="M209,94h0Z"/><rect class="cls-7" x="137.52" y="173.79" width="98.33" height="56.38"/><path class="cls-8" d="M142,170v58.28s27.17-11,44.63,0V170S161.4,160.22,142,170Z"/><path class="cls-8" d="M186.63,170v58.28s27.17-11,44.63,0V170S206,160.22,186.63,170Z"/><line class="cls-9" x1="186.63" y1="170.01" x2="186.63" y2="226.95"/><path class="cls-10" d="M192.75,179.13s17.22-8.66,32.39,0"/><path class="cls-10" d="M192.75,188s17.22-8.67,32.39,0"/><path class="cls-10" d="M192.75,196.33s17.22-8.66,32.39,0"/><path class="cls-10" d="M192.75,206.17s17.22-8.66,32.39,0"/><path class="cls-10" d="M192.75,215.19s17.22-8.66,32.39,0"/><path class="cls-10" d="M148.12,178.84s17.22-8.67,32.39,0"/><path class="cls-10" d="M148.12,187.68s17.22-8.66,32.39,0"/><path class="cls-10" d="M148.12,196s17.22-8.67,32.39,0"/><path class="cls-10" d="M148.12,205.87s17.22-8.66,32.39,0"/><path class="cls-10" d="M148.12,214.89s17.22-8.66,32.39,0"/><path class="cls-11" d="M259.13,172.29s31.83,42.89-22.36,50.14"/><path class="cls-12" d="M244.6,209.94c3.17.43,6.1,3.35,7.12,7.54,1.29,5.32-1,10.74-5,12l-10,3.2a1.8,1.8,0,0,1-.22.06l-.1,0-13.53,4.33c-1.07.34-2.21-.52-2.55-1.92a2.59,2.59,0,0,1,1.31-3.15l7.37-2.35a11.33,11.33,0,0,1-1.14-1.88L219,230.67c-1.07.34-2.21-.52-2.55-1.92a2.57,2.57,0,0,1,1.31-3.14l8.84-2.83a11.71,11.71,0,0,1,.1-2.06l-7.59,2.43c-1.07.34-2.21-.52-2.55-1.92a2.59,2.59,0,0,1,1.31-3.15l12.65-4a6.24,6.24,0,0,1,1.19-.58l-2.66-.19a2.62,2.62,0,0,1-2.05-2.75h0c0-1.43.88-2.54,2-2.46"/><path class="cls-11" d="M116,174.9S84.19,217.78,138.37,225"/><path class="cls-12" d="M130.55,212.54c-3.18.44-6.1,3.36-7.12,7.54-1.3,5.32,1,10.74,5,12l10,3.2a1.41,1.41,0,0,0,.22.06l.1.05,13.53,4.32c1.06.34,2.21-.52,2.55-1.91a2.58,2.58,0,0,0-1.32-3.15l-7.36-2.36a10.93,10.93,0,0,0,1.14-1.88l8.83,2.82c1.06.34,2.21-.52,2.55-1.91a2.58,2.58,0,0,0-1.32-3.15l-8.83-2.83a12.76,12.76,0,0,0-.1-2.06l7.59,2.43c1.06.34,2.21-.52,2.55-1.92a2.57,2.57,0,0,0-1.31-3.14l-12.65-4.05a7.69,7.69,0,0,0-1.19-.58l2.66-.19a2.63,2.63,0,0,0,2-2.75h0c0-1.43-.89-2.53-2-2.45"/><polygon class="cls-1" points="264.94 164.5 255.66 194.79 243.21 157.01 264.94 164.5"/><polygon class="cls-1" points="109.28 166.66 119.79 195.73 131.01 159.18 109.28 166.66"/></svg>