<svg id="Layer_1" data-name="Layer 1" xmlns="http://www.w3.org/2000/svg" viewBox="0 0 363.49 356.5"><defs><style>.cls-1{fill:#00a0cc;}.cls-2{fill:#00a1cd;}.cls-3{fill:#5652a3;}.cls-4{fill:#504b48;}.cls-5,.cls-6,.cls-7{fill:none;stroke-linecap:round;stroke-miterlimit:10;}.cls-5,.cls-6{stroke:#0d4060;}.cls-6{stroke-width:2px;}.cls-7{stroke:#0f8ab2;stroke-width:5.67px;}.cls-8{fill:#a2cced;}</style></defs><path class="cls-1" d="M259.47,131.31c-3.23.69-11.48,1.72-14.32-5-2.4-5.63,4.35-7.19,7.63-9.7-.66-1.17-3.51-5.51-4.2-6.66a5.15,5.15,0,0,0-2.46-9.92,5.22,5.22,0,0,0-3,1.45C212.58,57,163,31.83,125.92,82.88c-21,29-35.3,67.76-30.75,105.37,6.57,54.23,54.33,64.95,97.29,59.75s84.31-23.54,77.74-77.78A146,146,0,0,0,259.47,131.31Z"/><polyline class="cls-2" points="157.16 238.19 167.22 294.79 178.03 294.97 186.05 238.87"/><polygon class="cls-3" points="177.76 310.55 169.46 309.99 164.41 278 180.48 278.14 177.76 310.55"/><path class="cls-4" d="M168.48,311.45c0-8.33,6.37-15.08,14.21-15.08s14.25,6.77,14.23,15.1"/><polyline class="cls-2" points="185.6 238.39 195.66 294.98 206.47 295.17 214.49 239.06"/><polygon class="cls-3" points="206.2 310.74 197.9 310.18 192.85 278.2 208.92 278.33 206.2 310.74"/><path class="cls-4" d="M196.92,311.65c0-8.33,6.38-15.08,14.21-15.08s14.25,6.77,14.23,15.1"/><path class="cls-5" d="M227.72,102.68c.54,4.5-1.8,8.73-7.69,9.45s-11.14-2.35-11.69-6.86"/><path class="cls-6" d="M220.71,92c-11.88-3-14.77,5-14.77,5"/><path class="cls-7" d="M189.94,194.05s42.68,10.23,58.2-26.44"/><path class="cls-8" d="M268.53,153.25a1.72,1.72,0,0,0-.72-2.33l-.12-.06a2,2,0,0,0-2.7.39l-3.52,5.33a7.86,7.86,0,0,0-1.15-1.29l4.24-6.37a1.73,1.73,0,0,0-.71-2.34l-.13-.06a2,2,0,0,0-2.71.4l-4.24,6.36a10.5,10.5,0,0,0-1.56-.4l3.63-5.48a1.74,1.74,0,0,0-.74-2.34L258,145a2.07,2.07,0,0,0-2.71.4l-6,9.13a5.57,5.57,0,0,0-.72.82l.49-2.14a2,2,0,0,0-1.59-2.17h0a1.79,1.79,0,0,0-2.3,1l0,.05-2.58,11.4a1.63,1.63,0,0,0,.29,1.28,7.21,7.21,0,0,0,4,7.13c3.71,2.1,8.32,1.43,10.26-1.51l4.79-7.24c0-.06,0-.12,0-.17l0-.08Z"/><path class="cls-5" d="M258.56,120.46s36.23-6.34,34.63-15.78c-1-5.93-7.81-4.8-9.13-1.42,0,0-1.07,3.12,2.66,2.9"/><path class="cls-5" d="M259.25,124.09s18.23-1.33,20.76.13c3.83,2.19-.71,9.36-3.73,6.36s.71-3.19.71-3.19"/><path class="cls-5" d="M259,117.36s15.72-9.32,17-12c1.89-4-5.93-7.28-6.7-3.1s2.41,2.22,2.41,2.22"/></svg>