<svg id="Layer_1" data-name="Layer 1" xmlns="http://www.w3.org/2000/svg" viewBox="0 0 363.49 356.5"><defs><style>.cls-1,.cls-10,.cls-11,.cls-13,.cls-15,.cls-3,.cls-7,.cls-8{fill:none;stroke-miterlimit:10;}.cls-1,.cls-13,.cls-7{stroke:#108ab2;}.cls-1,.cls-10,.cls-11,.cls-13,.cls-15,.cls-7,.cls-8{stroke-linecap:round;}.cls-1{stroke-width:5.21px;}.cls-2{fill:#a1cbec;}.cls-3{stroke:#87b4d3;stroke-width:0.88px;}.cls-4{fill:#00a0cc;}.cls-5{fill:#56c4cf;}.cls-6{fill:#4f4a47;}.cls-7{stroke-width:4.32px;}.cls-10,.cls-15,.cls-8{stroke:#0d3f60;}.cls-8{stroke-width:1.24px;}.cls-9{fill:#0d3f60;}.cls-10{stroke-width:1.62px;}.cls-11{stroke:#231f20;stroke-width:1.18px;}.cls-12{fill:#fff;}.cls-13{stroke-width:3.71px;}.cls-14{fill:#ec1651;}.cls-15{stroke-width:2.57px;}</style></defs><path class="cls-1" d="M199.84,200.43S179.73,204.51,162,164"/><path class="cls-2" d="M151.53,167.18c1.86,3.59,7.28,4.84,12.05,2.78,3.75-1.62,6-4.82,5.91-7.86l-.74-14.9c-.1-1-1.27-1.71-2.61-1.47s-1.88.94-1.78,2l0,4.16a24.94,24.94,0,0,0-1-2.3l-4.92-11.49a2.45,2.45,0,0,0-3.15-.72c-1.25.54-1.87,1.74-1.39,2.68l2.61,7c-.64,0-.78-.18-1.43,0l-3.35-8.35a2.47,2.47,0,0,0-3.16-.73c-1.24.54-1.87,1.75-1.38,2.69l3.35,8.35c-.58.41-.4.37-.86.86l-2.67-5.63a2.46,2.46,0,0,0-3.15-.72c-1.25.54-1.49,1.8-.88,3.51l4.22,10.67"/><path class="cls-3" d="M163.45,157.82s-3.47-6.21-12.86-3.21"/><polyline class="cls-4" points="62.56 278.39 69.3 333.16 76.04 333.16 83.13 271.55"/><polygon class="cls-5" points="75.57 340.08 69.21 340.08 66.64 309.97 78.95 309.97 75.57 340.08"/><path class="cls-6" d="M69.3,340.93a9.92,9.92,0,0,1,19.84,0"/><polyline class="cls-4" points="36.72 278.22 43.46 333.15 50.2 333.15 55.83 278.39"/><polygon class="cls-5" points="50.19 340.08 43.84 340.08 40.42 309.97 52.73 309.97 50.19 340.08"/><path class="cls-6" d="M43.35,340.93a9.92,9.92,0,0,1,19.84,0"/><path class="cls-7" d="M135.65,175s-7,24.49-40.57,37.63"/><path class="cls-2" d="M129.1,173.27c-.55,2.92,2,6.11,5.71,7.09,2.91.76,5.67-.06,7-1.86l6.34-8.95a1.5,1.5,0,0,0-.84-2c-.88-.47-1.52-.31-1.94.34l-1.86,2.43c0-.31.49-1.48.47-1.78l2.37-8.88a1.78,1.78,0,0,0-1.49-1.85,1.53,1.53,0,0,0-2,.92l-1.68,5.24c-.38-.28-.36-.52-.8-.74l1.85-6.35a1.81,1.81,0,0,0-1.49-1.86,1.52,1.52,0,0,0-2,.93l-1.85,6.35a5.73,5.73,0,0,0-1.32.07l1.22-4.43a1.62,1.62,0,0,0-1.28-1.85,1.53,1.53,0,0,0-2,.92L131,165.84"/><path class="cls-8" d="M125.87,130.8l9.36,7.54"/><path class="cls-8" d="M123.24,142.18l9.87,1.23"/><path class="cls-8" d="M136.16,125.73l3.53,9.31"/><path class="cls-4" d="M74.31,139l-11-.86A36.53,36.53,0,0,0,24,171.64l-.2,2.55c-.4,2.54-.69,5.08-.88,7.57L17.65,249.3A36.52,36.52,0,0,0,51.2,288.57l11,.86a36.53,36.53,0,0,0,39.28-33.55l.2-2.55c.4-2.54.68-5.08.88-7.57l5.31-67.54A36.52,36.52,0,0,0,74.31,139Z"/><path class="cls-9" d="M86.09,197.16s-2,4.59-10.15,3.82-8.45-5.24-8.45-5.24Z"/><path class="cls-10" d="M50.69,171.93s3.23-5.47,9.13-1.65"/><path class="cls-10" d="M104.36,176s-1.6-5.94-8-3.07"/><path class="cls-11" d="M71.88,180.84a16.67,16.67,0,1,1-15.34-17.9A16.68,16.68,0,0,1,71.88,180.84Z"/><path class="cls-11" d="M116.46,184.26a16.67,16.67,0,1,1-15.35-17.9A16.68,16.68,0,0,1,116.46,184.26Z"/><path class="cls-11" d="M72,178.85s6-7.08,10.83.83"/><path class="cls-12" d="M85.79,186.33c.31-5,4.9-8.84,10.27-8.51s9.46,4.67,9.15,9.7"/><path class="cls-12" d="M48.24,183.9c.31-5,4.92-8.83,10.31-8.5s9.52,4.67,9.21,9.69"/><path class="cls-9" d="M49.52,179.35l-5.1-2.4,4.41,3.93c-.07.21-.13.4-.18.59l-4.5-.84,4.22,2.09c-.09.57-.11.94-.11.94,2.9-7.53,7.81-8.25,9.2-8.31-4.45-.14-6.76,1.89-7.94,4"/><path class="cls-9" d="M109.67,184.76l-4.56.29c0-.19-.06-.39-.11-.6l4.85-3.37-5.35,1.76c-.91-2.23-3-4.53-7.4-4.93,1.38.22,6.17,1.53,8.12,9.37a9.26,9.26,0,0,0,0-1Z"/><path class="cls-9" d="M61,175.41a5.46,5.46,0,0,0,6.72,7.92A9.36,9.36,0,0,0,61,175.41Z"/><path class="cls-9" d="M98.4,178.41a5.46,5.46,0,0,0,6.72,7.92A9.36,9.36,0,0,0,98.4,178.41Z"/><path class="cls-13" d="M34.56,266.93s-8.18-17-1.81-44.07"/><path class="cls-2" d="M28.52,269.86c-.07-2.85,2.87-5.47,6.52-5.81,2.87-.27,5.35.95,6.32,2.86L46,276.38c.3.69-.21,1.5-1.11,1.8s-1.49.06-1.78-.63L41.67,275a15,15,0,0,1,.17,1.76l.85,8.78A1.74,1.74,0,0,1,41,287c-.95.08-1.75-.45-1.76-1.2l-.77-5.22c-.41.2-.43.44-.87.58l.75,6.3A1.74,1.74,0,0,1,36.62,289c-.95.09-1.75-.45-1.76-1.2l-.76-6.3a5.38,5.38,0,0,1-1.23-.28l.45,4.39a1.54,1.54,0,0,1-1.49,1.55c-1,.09-1.76-.44-1.77-1.19l-1-8.78"/><path class="cls-4" d="M248.89,43.52c-44.95,3.31-80.54,17.64-76.88,67.42.93,12.62,3.47,25.23,6.07,37.59,2.89,13.71,7.62,27.25,12.08,40.51,2,5.83,4,10.93,3.85,17.21a49,49,0,0,1-3.11,16.37c-5.29,13.76-6,27.58-.26,41.44a38.06,38.06,0,0,0,19.25,20.26c18,8.51,24.83,7.5,60.18,4.9,21-1.54,42.71-4.83,58.86-20.22a48.13,48.13,0,0,0,13.42-23.76c1.3-5.41,1.32-7.72,1.58-13.24.35-7.65-2.72-17.15-5.95-23.83-4.84-10-9.81-23.49-7.94-35,4.32-26.82,5.68-61.85,4.7-75.22-3.66-49.77-40.89-57.74-85.85-54.43"/><polyline class="cls-4" points="233.83 288.4 240.18 338.41 247.79 338.41 254.15 288.56"/><polygon class="cls-14" points="247.54 338.41 250.47 317.39 237.33 317.39 239.94 336.67 247.54 338.41"/><path class="cls-6" d="M248.14,339.66a12.8,12.8,0,1,0-25.6,0"/><polyline class="cls-4" points="270.61 288.13 276.96 338.13 284.58 338.13 290.93 283.34"/><polygon class="cls-14" points="284.33 338.13 287.26 317.11 274.11 317.11 276.72 336.39 284.33 338.13"/><path class="cls-6" d="M284.92,339.38a12.8,12.8,0,0,0-25.6,0"/><path class="cls-15" d="M194.55,109s4.17-10.3,15.38-5.24"/><path class="cls-15" d="M257.52,104.4s-4.33-9.86-14.67-3.21"/><path class="cls-9" d="M246.1,135.13s-2.32,10-17.27,10.77-16.8-8.26-16.8-8.26Z"/><path class="cls-12" d="M234.57,123.9c-.49-6.8,5-12.73,12.22-13.27s13.52,4.54,14,11.34"/><path class="cls-9" d="M237.42,123.69a5.72,5.72,0,1,1,11.41-.84"/><path class="cls-12" d="M195.57,126.77c-.5-6.79,5-12.73,12.28-13.27s13.6,4.54,14.1,11.33"/><path class="cls-9" d="M200.73,126.39a5.72,5.72,0,1,1,11.41-.84"/><path class="cls-9" d="M196.28,120.88l-7-2.51,6.43,4.84c0,.31-.09.6-.13.88l-6-.38,5.85,2.22a11.37,11.37,0,0,0,0,1.38C197.8,116,204,114,205.83,113.68,200,114.29,197.42,117.64,196.28,120.88Z"/><path class="cls-9" d="M205.83,113.68c.17,0,.32-.05.5-.07Z"/><path class="cls-9" d="M266.49,118.05l-5.86,1.25c-.07-.28-.15-.56-.25-.85l5.66-5.73-6.6,3.51c-1.61-3-4.68-6-10.5-5.72,1.82.06,8.27,1.07,12.25,12,0,0,0-.54-.16-1.37Z"/><path class="cls-9" d="M246.28,110.71a3.38,3.38,0,0,0-.51,0Z"/><path class="cls-1" d="M310.79,189.46s9.63,18.13-24.21,46.66"/><path class="cls-2" d="M287.26,246.63c3.09-2.6,3.12-8.16.07-12.37-2.41-3.3-6-4.8-9-4l-14.37,4c-1,.33-1.39,1.62-.87,2.87s1.33,1.63,2.34,1.3l4.05-1c-.31.29-1.79,1.14-2,1.48l-10.13,7.32a2.46,2.46,0,0,0,0,3.24,2.07,2.07,0,0,0,2.92.76l6.28-4.08c.16.62,0,.79.27,1.4l-7.41,5.1a2.46,2.46,0,0,0,0,3.24c.8,1.09,2.11,1.44,2.92.76l7.41-5.11c.54.48.45.31,1,.65L265.84,256a2.45,2.45,0,0,0,0,3.23c.8,1.1,2.09,1.06,3.63.09l9.48-6.46"/></svg>