<svg id="Layer_1" data-name="Layer 1" xmlns="http://www.w3.org/2000/svg" viewBox="0 0 363.49 356.5"><defs><style>.cls-1{fill:#fbad18;}.cls-2{fill:#ffcb05;}.cls-3{fill:#00a0cc;}.cls-4{fill:#00a1cd;}.cls-5{fill:#5652a3;}.cls-6{fill:#504b48;}.cls-10,.cls-7,.cls-8{fill:none;stroke-linecap:round;stroke-miterlimit:10;}.cls-7,.cls-8{stroke:#0d4060;}.cls-7{stroke-width:1.11px;}.cls-8{stroke-width:2.23px;}.cls-9{fill:#0d4060;}.cls-10{stroke:#0f8ab2;stroke-width:6.32px;}.cls-11{fill:#a2cced;}</style></defs><polygon class="cls-1" points="129.74 332.33 140.93 332.33 140.93 284.17 230.96 284.17 230.96 332.33 242.38 332.33 242.38 279.67 242.2 279.67 242.2 269.4 129.74 269.4 129.74 279.81 129.74 332.33"/><path class="cls-2" d="M133.25,246.49H238a13.09,13.09,0,0,1,13.1,13.08h0A13.1,13.1,0,0,1,238,272.66H133.25a13.09,13.09,0,0,1-13.09-13.09h0A13.08,13.08,0,0,1,133.25,246.49Z"/><path class="cls-3" d="M186.26,33c-43.15-.27-78.19,10.3-78.47,56.34-.07,11.67,1.39,23.45,2.94,35,1.71,12.82,5.2,25.62,8.45,38.14,1.43,5.51,3,10.34,2.37,16.11a44,44,0,0,1-4.2,14.82c-6.1,12.26-7.78,24.92-3.4,38.08a35.43,35.43,0,0,0,16.83,20c16.56,9.14,23.12,8.72,57.05,8.93,20.12.12,41.11-1.31,57.7-14.26a44.37,44.37,0,0,0,14.6-20.87c1.65-4.88,1.85-7,2.51-12.06.92-7-1.29-16-3.87-22.34-3.86-9.57-7.57-22.33-4.92-32.77C260,133.79,264,101.69,264,89.33c.28-46-34.63-56.1-77.78-56.36"/><polyline class="cls-4" points="151.9 251.7 163.27 314.79 175.42 315.01 184.34 252.49"/><polygon class="cls-5" points="174.21 330.23 166.07 330.08 158.97 290.38 179.71 290.76 174.21 330.23"/><polyline class="cls-4" points="185.65 251.11 197.02 314.2 209.17 314.43 218.1 251.9"/><polygon class="cls-5" points="207.96 329.64 199.82 329.5 192.73 289.79 213.47 290.17 207.96 329.64"/><path class="cls-6" d="M154.21,332.24c0-8.62,6.6-15.61,14.71-15.61s14.75,7,14.73,15.63"/><path class="cls-6" d="M189.38,332.24c0-8.62,6.61-15.61,14.72-15.61s14.75,7,14.72,15.63"/><path class="cls-7" d="M180.92,94.26c0,5.06-5.37,9.15-12,9.15s-12-4.09-12-9.15"/><path class="cls-7" d="M215.33,94.26c0,5.06-5.37,9.15-12,9.15s-12-4.09-12-9.15"/><path class="cls-8" d="M197.69,81.72c12.07-4.94,17.57,3.44,17.57,3.44"/><path class="cls-8" d="M174.58,81.55c-12.73-4.92-17,3.61-17,3.61"/><path class="cls-9" d="M205.34,116.27s-1.25,4.89-17.22,5-19.21-5-19.21-5Z"/><path class="cls-10" d="M245.89,190.4s22.29,46.68-21.49,54"/><path class="cls-11" d="M203.55,262.75a1.93,1.93,0,0,1-2.34-1.39.89.89,0,0,1,0-.14,2.26,2.26,0,0,1,1.12-2.83L209,256a8.67,8.67,0,0,1-1.1-1.59l-8,2.95a1.93,1.93,0,0,1-2.35-1.38.75.75,0,0,1,0-.16,2.28,2.28,0,0,1,1.14-2.83l8-2.94a10.82,10.82,0,0,1,0-1.8l-6.88,2.52a1.94,1.94,0,0,1-2.35-1.42l0-.12a2.29,2.29,0,0,1,1.14-2.82L210,242.2a6.94,6.94,0,0,1,1.08-.57l-2.45,0a2.2,2.2,0,0,1-1.93-2.28h0a2,2,0,0,1,1.7-2.23h.06l13,.17a1.76,1.76,0,0,1,1.32.65,8,8,0,0,1,6.69,6.19c1.31,4.55-.62,9.38-4.3,10.72l-9.1,3.31h-.28Z"/><path class="cls-10" d="M128.29,192.1S106,239.89,149.78,247.19"/><path class="cls-11" d="M170.63,265.56a1.92,1.92,0,0,0,2.34-1.39.32.32,0,0,0,0-.14,2.26,2.26,0,0,0-1.12-2.83l-6.69-2.43a8.6,8.6,0,0,0,1.1-1.58l8,2.94a1.93,1.93,0,0,0,2.35-1.37,1,1,0,0,0,0-.17,2.27,2.27,0,0,0-1.14-2.82l-8-3a10.81,10.81,0,0,0,0-1.8l6.89,2.52a1.93,1.93,0,0,0,2.34-1.42l0-.11a2.29,2.29,0,0,0-1.14-2.83L164.23,245a6.14,6.14,0,0,0-1.08-.56l2.45,0a2.21,2.21,0,0,0,1.93-2.29h0a2,2,0,0,0-1.7-2.23h-.06l-13,.17a1.83,1.83,0,0,0-1.32.65,8,8,0,0,0-6.69,6.19c-1.31,4.56.62,9.38,4.3,10.72l9.1,3.31h.28Z"/></svg>