<svg id="Layer_1" data-name="Layer 1" xmlns="http://www.w3.org/2000/svg" viewBox="0 0 363.49 356.5"><defs><style>.cls-1{fill:none;stroke:#0d4060;stroke-linecap:round;stroke-miterlimit:10;stroke-width:5px;}.cls-2{fill:#0d4060;}</style></defs><path class="cls-1" d="M207.24,90.67H81.33a23.84,23.84,0,0,0-23.77,23.77v53.84a23.84,23.84,0,0,0,23.77,23.77h3.25v21.32a5.91,5.91,0,0,0,9.73,4.5l24.48-25.82h88.45A23.84,23.84,0,0,0,231,168.28V114.44A23.84,23.84,0,0,0,207.24,90.67Z"/><path class="cls-1" d="M132.88,215.54a23.83,23.83,0,0,0,23.76,23.77h88.45L269,266.6a6.28,6.28,0,0,0,10.35-4.78V239.31h3.25a23.84,23.84,0,0,0,23.77-23.77V161.7a23.84,23.84,0,0,0-23.77-23.77H253.16"/><circle class="cls-2" cx="144.14" cy="139.93" r="6.16"/><circle class="cls-2" cx="117.71" cy="139.93" r="6.16"/><circle class="cls-2" cx="171.03" cy="139.93" r="6.16"/></svg>