<svg id="Layer_1" data-name="Layer 1" xmlns="http://www.w3.org/2000/svg" viewBox="0 0 363.49 356.5"><defs><style>.cls-1{fill:none;stroke:#0d4060;stroke-linecap:round;stroke-miterlimit:10;stroke-width:4.58px;}.cls-2{fill:#0d4060;}</style></defs><path class="cls-1" d="M205.14,98H89.68a21.85,21.85,0,0,0-21.79,21.79V169.2A21.86,21.86,0,0,0,89.68,191h3v19.55a5.41,5.41,0,0,0,8.92,4.12L124,191h81.1a21.86,21.86,0,0,0,21.79-21.8V119.83A21.85,21.85,0,0,0,205.14,98Z"/><path class="cls-1" d="M137,212.54a21.86,21.86,0,0,0,21.8,21.79h81.09l21.88,25a5.76,5.76,0,0,0,9.49-4.39V234.33h3A21.85,21.85,0,0,0,296,212.54V163.17a21.86,21.86,0,0,0-21.79-21.8H247.25"/><circle class="cls-2" cx="147.28" cy="143.21" r="5.65"/><circle class="cls-2" cx="123.05" cy="143.21" r="5.65"/><circle class="cls-2" cx="171.94" cy="143.21" r="5.65"/></svg>