<svg id="Layer_1" data-name="Layer 1" xmlns="http://www.w3.org/2000/svg" viewBox="0 0 363.49 356.5"><defs><style>.cls-1{fill:#00a0cc;}.cls-2{fill:#0d4060;}.cls-3,.cls-4,.cls-5{fill:none;stroke-linecap:round;stroke-miterlimit:10;}.cls-3,.cls-4{stroke:#0d4060;}.cls-3{stroke-width:2.72px;}.cls-4{stroke-width:5.44px;}.cls-5{stroke:#baeef7;stroke-width:1.79px;}</style></defs><circle class="cls-1" cx="179.75" cy="179.25" r="120.58"/><path class="cls-2" d="M213.1,226.81c0,13.09-20.61,9.71-33.71,9.71s-33.7,3.38-33.7-9.71,20.61-19.71,33.7-19.71S213.1,213.72,213.1,226.81Z"/><path class="cls-3" d="M165.19,169.23c0,12.32-13.1,22.31-29.25,22.32s-29.29-10-29.31-22.32"/><path class="cls-3" d="M249.15,169.23c0,12.32-13.1,22.31-29.25,22.32s-29.29-10-29.31-22.32"/><path class="cls-4" d="M206.1,138.63C235.55,126.57,249,147,249,147"/><path class="cls-4" d="M149.73,138.22c-31.06-12-41.5,8.8-41.5,8.8"/><path class="cls-5" d="M181.71,218.73s-7.41,51.94,3.32,59.53c7.91,5.59,11.78-6.31,7.37-10,0,0-4.15-3.23-5.94,1.36"/><path class="cls-5" d="M175.15,219.79s-2.63,37.66-6.14,41c-8.66,8.19-15.16-3.4-9.54-7.62s5.06,1.92,5.06,1.92"/><path class="cls-5" d="M185.83,221.79S190,252,193,255.76c4.5,5.75,15.15-3.4,9.53-7.62s-5.06,1.93-5.06,1.93"/></svg>