<svg id="Layer_1" data-name="Layer 1" xmlns="http://www.w3.org/2000/svg" viewBox="0 0 363.49 356.5"><defs><style>.cls-1{fill:#f4e1b0;}.cls-2{fill:#5a3513;}.cls-3,.cls-4{fill:none;stroke-miterlimit:10;}.cls-3{stroke:#f4e1b0;stroke-width:9.67px;}.cls-4{stroke:#0d4060;stroke-linecap:round;stroke-width:2.22px;}</style></defs><path class="cls-1" d="M137.68,160.48h69A24.48,24.48,0,0,1,231.17,185h0v76.42a27.42,27.42,0,0,1-27.42,27.42H140.63a25.51,25.51,0,0,1-25.51-25.51h0V183a22.56,22.56,0,0,1,22.56-22.56Z"/><ellipse class="cls-2" cx="173.32" cy="172.51" rx="46.97" ry="8.62"/><path class="cls-3" d="M229.83,186.92a32.51,32.51,0,1,1,2.75,65c-.92,0-1.83,0-2.75,0"/><path class="cls-4" d="M177.77,138c-12.26-2-20.53-14.37-22-22.69-.21-21.1,12.7-24.29,22.7-31.81,11.89-8.44,20.56-14.91,16.1-26-4.34-11.34-27.74-13.36-27.74,5.43"/><path class="cls-4" d="M192.63,129.81s-17.35-11.82,0-26.65"/></svg>