<svg id="Layer_1" data-name="Layer 1" xmlns="http://www.w3.org/2000/svg" viewBox="0 0 363.49 356.5"><defs><style>.cls-1{fill:#fbad18;}.cls-2{fill:#ffcb05;}.cls-10,.cls-14,.cls-3,.cls-9{fill:none;stroke-miterlimit:10;}.cls-3{stroke:#0f8ab2;stroke-width:5.67px;}.cls-10,.cls-14,.cls-3{stroke-linecap:round;}.cls-4{fill:#a2cced;}.cls-5{fill:#00a1cd;}.cls-6{fill:#5652a3;}.cls-7{fill:#f4e1b0;}.cls-8{fill:#5a3513;}.cls-9{stroke:#f4e1b0;stroke-width:3px;}.cls-10,.cls-14{stroke:#0d4060;}.cls-10{stroke-width:1.26px;}.cls-11{fill:#504b48;}.cls-12{fill:#00a0cc;}.cls-13{fill:#fff;}.cls-14{stroke-width:3.45px;}.cls-15{fill:#0d4060;}</style></defs><polygon class="cls-1" points="144.89 319.24 154.93 319.24 154.93 276.02 235.71 276.02 235.71 319.24 245.96 319.24 245.96 271.99 245.8 271.99 245.8 262.77 144.89 262.77 144.89 272.11 144.89 319.24"/><path class="cls-2" d="M148,242.21h94A11.75,11.75,0,0,1,253.74,254h0A11.75,11.75,0,0,1,242,265.7H148A11.75,11.75,0,0,1,136.29,254h0A11.75,11.75,0,0,1,148,242.21Z"/><path class="cls-3" d="M116.42,176.83s-13.16,13-20.65,14-19.31-4.13-19.31-4.13"/><path class="cls-4" d="M49.63,187.92a1.8,1.8,0,0,1-1-2.34l.09-.18a2.13,2.13,0,0,1,2.3-1.59l6.14,1.63a10.82,10.82,0,0,1,0-1.8l-7.36-2a1.8,1.8,0,0,1-1-2.36.59.59,0,0,0,0-.08,2.14,2.14,0,0,1,2.31-1.61l7.36,2a11.92,11.92,0,0,1,1-1.38l-6.3-1.68a1.79,1.79,0,0,1-.95-2.35l0-.1a2.11,2.11,0,0,1,2.3-1.6l10.55,2.81a5.47,5.47,0,0,1,1.07.11l-1.75-1.26a2.16,2.16,0,0,1-.2-2.81h0a1.76,1.76,0,0,1,2.32-.91l.2.1,9.38,7a1.72,1.72,0,0,1,.6,1.26c2,1.71,2.74,5.05,1.59,8.38-1.46,4.26-5.43,7-8.82,6.1L61.2,191,61,191h-.08Z"/><polyline class="cls-5" points="166.77 246.89 174.8 303.16 184.46 303.17 192.56 247.08"/><polygon class="cls-6" points="184.26 316.8 174.79 316.8 169.78 271.38 189.26 271.39 184.26 316.8"/><path class="cls-7" d="M38.15,167.43H53.2a5.33,5.33,0,0,1,5.33,5.33h0v16.65a6,6,0,0,1-6,6H38.8a5.56,5.56,0,0,1-5.56-5.56h0V172.34a4.91,4.91,0,0,1,4.91-4.91Z"/><ellipse class="cls-8" cx="45.92" cy="170.05" rx="10.24" ry="1.88"/><path class="cls-9" d="M58.24,173.19a7.08,7.08,0,1,1,.6,14.15h-.6"/><path class="cls-10" d="M46.89,161.71c-2.67-.68-4.47-4.79-4.79-7.56-.44-3.78,2.4-5.55,4.58-8.06a11.19,11.19,0,0,0,2.59-10.45c-.94-3.78-3.3-7.2-7.28-8"/><path class="cls-10" d="M39.2,137.9c1.85,3,.73,5.9-1.15,8.56-1.07,1.51-2,3.62-.87,5.12"/><path class="cls-10" d="M52.24,156.28s-3.79-2.24,0-7.19"/><path class="cls-11" d="M165.67,319.61c0-8.33,6.38-15.08,14.22-15.08s14.25,6.77,14.22,15.1"/><polyline class="cls-5" points="200.42 246.89 208.45 303.16 218.11 303.17 226.2 247.08"/><polygon class="cls-6" points="217.9 316.8 208.44 316.8 203.43 271.38 222.91 271.39 217.9 316.8"/><path class="cls-11" d="M199.32,319.61c0-8.33,6.38-15.08,14.21-15.08s14.26,6.77,14.23,15.1"/><path class="cls-12" d="M107.46,182.61c0-37.89,18.82-74.67,43.18-100.91,62.81-67.66,132.75,30,132.75,104,0,54.64-43.25,67.88-86.52,67.88s-89.41-16.38-89.41-71"/><path class="cls-13" d="M198,127.83a12.66,12.66,0,0,1,25.31,0"/><path class="cls-13" d="M165.27,127.83a12.66,12.66,0,0,1,25.31,0"/><path class="cls-14" d="M208.76,108.37c8.15-4.44,11.87,3.08,11.87,3.08"/><path class="cls-14" d="M180.71,108.22c-8.12-4.43-10.85,3.23-10.85,3.23"/><path class="cls-15" d="M201.6,127.83a5.46,5.46,0,0,1,10.92,0"/><path class="cls-15" d="M168.84,127.83a5.46,5.46,0,1,1,10.92,0"/><path class="cls-15" d="M210.73,139.37s-1.12,8.77-15.45,9.06S178,139.37,178,139.37Z"/><path class="cls-3" d="M271.11,183.88s0,43.89-39.28,50.44"/><path class="cls-4" d="M213.12,250.81a1.73,1.73,0,0,1-2.1-1.25l0-.13a2,2,0,0,1,1-2.54l6-2.18a7.32,7.32,0,0,1-1-1.42l-7.18,2.64a1.73,1.73,0,0,1-2.11-1.23.4.4,0,0,1,0-.15,2,2,0,0,1,1-2.54l7.18-2.64a9.61,9.61,0,0,1,0-1.61L209.69,240a1.75,1.75,0,0,1-2.11-1.27s0-.07,0-.11a2.06,2.06,0,0,1,1-2.54l10.29-3.73a4.42,4.42,0,0,1,1-.51l-2.19,0a2,2,0,0,1-1.74-2.05h0a1.78,1.78,0,0,1,1.52-2h.06l11.68.15a1.6,1.6,0,0,1,1.18.59,7.2,7.2,0,0,1,6,5.55c1.17,4.09-.56,8.42-3.87,9.62l-8.16,3h-.25Z"/></svg>