<svg id="Layer_1" data-name="Layer 1" xmlns="http://www.w3.org/2000/svg" viewBox="0 0 363.49 356.5"><defs><style>.cls-1{fill:#00a0cc;}.cls-2{fill:#56c4cf;}.cls-3{fill:#4f4a47;}.cls-4{fill:none;stroke:#0d3f60;stroke-linecap:round;stroke-miterlimit:10;stroke-width:2.49px;}.cls-5{fill:#0d3f60;}.cls-6{fill:#fff;}.cls-7{fill:#ed144c;}.cls-8{fill:#a1cbec;}</style></defs><polyline class="cls-1" points="145.87 254.88 156.68 331.76 162.97 331.76 173.78 255.12"/><polyline class="cls-1" points="182.27 254.52 193.08 331.39 199.37 331.39 210.18 254.76"/><polygon class="cls-2" points="163.08 329.73 166.35 307.72 152.52 307.72 156.31 329.41 163.08 329.73"/><polygon class="cls-2" points="199.25 329.73 202.53 307.72 189.92 307.72 192.48 329.41 199.25 329.73"/><path class="cls-3" d="M170.26,332.12a14.84,14.84,0,0,0-29.68,0"/><path class="cls-3" d="M218.28,332.12a14.84,14.84,0,0,0-29.68,0"/><path class="cls-1" d="M222.42,250.41c12.32-13.82,17.68-32.3,23.12-49.6,7-22.17,14-44.61,19.48-67.17,5.09-20.77,11.23-43.73,4-64.74-7.43-21.55-25.9-31.79-47.5-32.23-19.21-.38-38.42-.77-57.64-.58-14.77.14-36.89-3.07-50,4.64-14.68,8.63-26.41,20.85-29.93,38-2.77,13.5-1,27.53,2.11,41,8.24,36.27,21.86,71.54,35.39,106.1,10.89,27.81,31.16,41.66,52.63,41.66,12.24,0,25.4-.62,36.5-6.51C215.51,258.33,218.62,254.68,222.42,250.41Z"/><line class="cls-4" x1="147.06" y1="90.75" x2="165.03" y2="87.94"/><line class="cls-4" x1="210.4" y1="90.75" x2="192.42" y2="87.94"/><path class="cls-5" d="M195.23,120.27s-2.95,9.48-17.48,9.19-15.68-9.19-15.68-9.19Z"/><path class="cls-6" d="M186.12,108.57c0-6.61,5.71-12,12.76-12s12.77,5.36,12.77,12"/><path class="cls-5" d="M193.4,108.57a5.56,5.56,0,1,1,11.11,0"/><path class="cls-6" d="M148.15,108.57c0-6.61,5.75-12,12.84-12s12.84,5.36,12.84,12"/><path class="cls-5" d="M155.44,108.57a5.55,5.55,0,1,1,11.1,0"/><path class="cls-5" d="M159.82,96.61h0Z"/><path class="cls-5" d="M200,96.61h0Z"/><polygon class="cls-1" points="255.91 167.08 245.29 197.37 231.06 159.59 255.91 167.08"/><polygon class="cls-1" points="100.25 169.24 110.76 198.31 121.97 161.75 100.25 169.24"/><polygon class="cls-1" points="100.46 168.47 111.08 198.76 125.31 160.98 100.46 168.47"/><path class="cls-7" d="M271.42,179.6a50.32,50.32,0,0,0-94.14-24.75A50.33,50.33,0,1,0,95,212l5.11,6.45,76.41,76.4,75.67-74.26C264,206.77,271.42,195.67,271.42,179.6Z"/><path class="cls-8" d="M268.18,204.82c2.39,2.14,3.16,6.2,1.65,10.23-1.92,5.14-6.83,8.35-10.92,7.14l-10.09-3-.21-.07-.11,0-13.63-4c-1.06-.32-1.53-1.68-1-3a2.59,2.59,0,0,1,2.86-1.86l7.42,2.19a11,11,0,0,1,.11-2.2l-8.89-2.63c-1.07-.32-1.53-1.67-1-3a2.58,2.58,0,0,1,2.86-1.86l8.89,2.63a12.05,12.05,0,0,1,1.24-1.65l-7.64-2.26c-1.07-.32-1.53-1.67-1-3a2.58,2.58,0,0,1,2.86-1.86l12.73,3.77a6.46,6.46,0,0,1,1.31.18l-2.09-1.65a2.61,2.61,0,0,1-.15-3.43h0c.79-1.19,2.15-1.6,3-.9"/><path class="cls-8" d="M85,209.4c-1.66,2.75-1.23,6.86,1.39,10.28,3.33,4.35,9,6,12.53,3.65l8.78-5.79c.07,0,.12-.09.18-.13l.1,0,11.87-7.82c.93-.61,1-2,.11-3.18a2.6,2.6,0,0,0-3.28-1l-6.46,4.26a10.53,10.53,0,0,0-.75-2.07l7.75-5.1c.93-.62,1-2.05.11-3.19a2.58,2.58,0,0,0-3.28-1l-7.74,5.1a12.07,12.07,0,0,0-1.67-1.22l6.66-4.38c.93-.62,1-2,.11-3.19a2.58,2.58,0,0,0-3.28-.95L97,201a6,6,0,0,0-1.2.56l1.52-2.19a2.61,2.61,0,0,0-.85-3.32h0c-1.1-.91-2.53-.91-3.16,0"/></svg>