<svg width="47" height="48" viewBox="0 0 47 48" fill="none" xmlns="http://www.w3.org/2000/svg">
<path d="M46 24C46 36.7225 35.9067 47 23.5 47C11.0933 47 1 36.7225 1 24C1 11.2775 11.0933 1 23.5 1C35.9067 1 46 11.2775 46 24Z" stroke="white" stroke-width="2"/>
<path d="M19.9302 31.3608C19.9302 29.7658 20.1239 28.4954 20.5112 27.5498C20.8986 26.6042 21.605 25.6756 22.6304 24.7642C23.6672 23.8413 24.3564 23.0951 24.6982 22.5254C25.04 21.9443 25.2109 21.3348 25.2109 20.6968C25.2109 18.7713 24.3223 17.8086 22.5449 17.8086C21.7018 17.8086 21.0239 18.0706 20.5112 18.5947C20.0099 19.1074 19.7479 19.8195 19.7251 20.731H14.769C14.7918 18.5549 15.4925 16.8516 16.8711 15.6211C18.2611 14.3906 20.1523 13.7754 22.5449 13.7754C24.9603 13.7754 26.8345 14.3621 28.1675 15.5356C29.5005 16.6978 30.167 18.3441 30.167 20.4746C30.167 21.443 29.9505 22.3602 29.5176 23.2261C29.0846 24.0806 28.327 25.0319 27.2446 26.0801L25.8604 27.396C24.9945 28.2277 24.4989 29.2018 24.3735 30.3184L24.3052 31.3608H19.9302ZM19.4346 36.6074C19.4346 35.8441 19.6909 35.2174 20.2036 34.7275C20.7277 34.2262 21.3942 33.9756 22.2031 33.9756C23.012 33.9756 23.6729 34.2262 24.1855 34.7275C24.7096 35.2174 24.9717 35.8441 24.9717 36.6074C24.9717 37.3594 24.7153 37.9803 24.2026 38.4702C23.7013 38.9601 23.0348 39.2051 22.2031 39.2051C21.3714 39.2051 20.6992 38.9601 20.1865 38.4702C19.6852 37.9803 19.4346 37.3594 19.4346 36.6074Z" fill="white"/>
</svg>
