<svg width="52" height="37" viewBox="0 0 52 37" fill="none" xmlns="http://www.w3.org/2000/svg">
<path d="M41.1677 27.6533C41.0603 28.0012 40.9748 28.3348 40.8574 28.6539C40.4737 29.7019 39.7121 30.2907 38.6741 30.5008C38.177 30.6016 37.6679 30.6366 37.1628 30.6758C37.0137 30.6881 36.9421 30.719 36.8944 30.8693C36.4291 32.3353 35.3752 33.0641 33.9713 33.3277C33.6154 33.3935 33.2435 33.3915 32.8797 33.3832C32.7086 33.3791 32.6271 33.4409 32.5834 33.5871C32.3567 34.3448 31.792 34.7771 31.1755 35.1519C30.231 35.7263 29.2288 35.8231 28.165 35.5636C27.0315 35.2878 25.9379 34.9068 24.876 34.4189C24.7547 34.3633 24.6274 34.318 24.4843 34.2603C24.2019 34.6021 23.9215 34.948 23.6332 35.2857C22.8239 36.2307 21.8098 36.6322 20.6147 36.3728C19.3918 36.1072 18.6043 35.3042 18.2424 34.0627C18.2325 34.0318 18.2245 34.0009 18.2146 33.97C18.2126 33.9639 18.2027 33.9597 18.1808 33.9371C17.1368 34.2953 16.1406 34.1595 15.2358 33.478C14.347 32.8088 13.8081 31.9255 13.7803 30.7108C12.5176 30.8487 11.5591 30.2537 10.7598 29.3395C9.91863 28.3759 9.75756 27.2477 10.1155 26.0123C9.89676 25.9258 9.67007 25.8558 9.46128 25.7508C7.86652 24.952 7.28588 23.0289 8.15087 21.4209C8.22842 21.2768 8.2145 21.1779 8.12502 21.0462C7.21429 19.712 4.44235 16.2448 3.82791 14.7376C3.77223 14.5997 3.67082 14.472 3.56344 14.3711C2.74021 13.6032 1.91697 12.8393 1.1017 12.0693C0.680138 11.6719 0.678149 11.1716 1.07982 10.7536C2.98479 8.78117 4.88777 6.80666 6.79274 4.83421C8.02957 3.55562 9.26641 2.27703 10.5032 0.996381C10.8194 0.669012 11.1634 0.586655 11.5373 0.833726C12.1119 1.21463 14.6512 3.69357 15.204 4.10741C15.731 4.50479 16.2758 4.7045 16.9599 4.5995C18.485 4.36272 20.0261 4.26183 21.5711 4.26801C21.7084 4.26801 21.8515 4.2186 21.9828 4.16506C23.15 3.67916 24.3729 3.44032 25.6157 3.30238C27.6281 3.08001 29.6325 3.2509 31.6369 3.43003C33.1342 3.56386 34.6295 3.70387 36.1249 3.84593C36.7015 3.90152 37.2782 4.01682 37.8548 4.02712C38.3818 4.03535 38.9127 3.95505 39.4397 3.88505C40.5651 3.73269 43.6791 1.50288 44.8026 1.34022C45.0551 1.30316 45.3057 1.25786 45.5582 1.23522C45.9838 1.1961 46.294 1.40405 46.4491 1.81789C47.143 3.68122 47.835 5.5466 48.529 7.40993C49.3582 9.63562 50.3882 11.8593 51.2194 14.0829C51.3427 14.4123 51.46 14.7438 51.5913 15.0712C51.7026 15.3491 51.7166 15.6312 51.5436 15.8721C51.0961 16.5001 50.6468 17.128 50.1655 17.7251C49.4238 18.6455 46.459 21.598 45.7133 22.5142C45.6059 22.646 45.5503 22.8498 45.5344 23.0248C45.4568 23.8937 45.2739 24.7296 44.8861 25.5099C44.1643 26.9635 43.003 27.6615 41.4341 27.6512C41.3466 27.6533 41.2591 27.6533 41.1677 27.6533ZM25.6078 32.9282C26.598 33.3627 27.5883 33.723 28.6263 33.9515C29.2686 34.0936 29.8611 34.0236 30.41 33.6653C30.6386 33.515 30.8434 33.3132 31.0264 33.1032C31.1318 32.9838 31.1596 32.817 30.9787 32.6791C30.4 32.2323 29.8273 31.7732 29.2566 31.312C28.324 30.5563 27.3914 29.8007 26.4668 29.0369C26.1447 28.7713 26.089 28.2977 26.3077 27.9436C26.5225 27.5997 26.946 27.4618 27.3119 27.6389C27.461 27.7109 27.5943 27.8221 27.7275 27.925C29.2646 29.1357 30.7997 30.3484 32.3388 31.5549C32.4342 31.6311 32.5655 31.6888 32.6828 31.699C33.168 31.7464 33.6532 31.7361 34.1225 31.5735C34.7051 31.3676 35.1644 31.0258 35.3474 30.3752C35.409 30.159 35.401 30.0046 35.1903 29.8584C34.6892 29.5104 34.194 29.1501 33.7208 28.761C32.1718 27.4865 30.6327 26.1997 29.0995 24.9046C28.9643 24.7914 28.8669 24.5855 28.8291 24.4063C28.7496 24.0296 28.9126 23.7187 29.2268 23.5354C29.543 23.3501 29.8611 23.3933 30.1972 23.6651C31.0105 24.324 31.8258 24.9828 32.6371 25.6438C33.8918 26.667 35.1425 27.6944 36.4013 28.7136C36.5464 28.831 36.7194 28.9586 36.8924 28.9813C37.4909 29.0574 38.0775 28.9751 38.6502 28.761C38.9147 28.6621 39.1334 28.5098 39.2348 28.2545C39.374 27.9003 39.4655 27.5256 39.555 27.1529C39.5729 27.0768 39.5132 26.945 39.4476 26.8894C39.1334 26.6156 38.8033 26.3603 38.4812 26.0947C37.137 24.989 35.7948 23.8813 34.4525 22.7736C33.7267 22.1724 33.0069 21.563 32.2791 20.9638C32.0127 20.7435 31.8397 20.4779 31.8973 20.1155C32.0067 19.4237 32.7206 19.1726 33.2714 19.6235C35.8047 21.6927 38.3361 23.7619 40.8714 25.8311C40.9211 25.8702 40.9768 25.9196 41.0344 25.9279C41.8298 26.0473 42.5636 25.9382 43.1164 25.2608C43.6592 24.5958 43.8243 23.7845 43.8978 22.9486C43.9038 22.8745 43.8282 22.7695 43.7626 22.718C43.3252 22.3762 42.8897 22.0303 42.4363 21.7133C40.2032 20.1526 37.9642 18.6022 35.7291 17.0477C33.0705 15.1988 30.4139 13.3479 27.7514 11.5072C27.642 11.431 27.467 11.3939 27.3377 11.4166C26.6338 11.5463 25.9339 11.6945 25.2359 11.8531C25.0947 11.886 24.9416 11.9746 24.8422 12.0816C24.3689 12.5922 23.9335 13.1399 23.4443 13.632C22.4998 14.5873 21.4081 15.3121 20.1414 15.728C19.7318 15.8618 19.3182 15.9895 18.8787 15.9153C17.9143 15.7506 17.1468 14.8838 16.9956 13.8523C16.8863 13.1152 17.0692 12.4502 17.3556 11.7996C17.8586 10.6548 18.3955 9.52444 18.8768 8.37144C19.1949 7.6117 19.4395 6.82108 19.7278 6.01604C19.6284 6.01604 19.5727 6.01192 19.519 6.01604C18.7992 6.0881 18.0714 6.11281 17.3615 6.24664C16.2897 6.45047 13.3388 4.19595 12.4579 3.54327C12.0523 3.24267 11.6526 2.93589 11.2827 2.65587C8.45113 5.58366 5.63743 8.49292 2.81378 11.4125C3.39839 11.9581 3.99892 12.5099 4.58552 13.0761C4.80823 13.2923 5.05878 13.5105 5.19797 13.7823C5.65532 14.6738 8.03952 17.6572 8.4909 18.5508C8.72753 19.0181 9.02978 19.4505 9.31413 19.9158C9.56269 19.6173 9.79733 19.3599 10.0061 19.082C11.1316 17.5851 13.2692 17.4554 14.5319 18.8267C14.7904 19.1067 14.9793 19.4546 15.204 19.7779C16.4011 19.119 17.5982 19.1005 18.7515 19.9405C19.8571 20.7456 20.5073 21.8039 20.38 23.276C21.5234 23.2966 22.3844 23.8443 23.0506 24.7255C23.7446 25.6417 23.8659 26.6773 23.5378 27.7809C25.8364 28.1659 26.9639 30.8858 25.6078 32.9282ZM44.6197 21.2006C45.2361 20.4759 48.0279 17.7148 48.6245 17.0025C49.0401 16.5063 49.4477 15.9998 49.8494 15.4891C49.9011 15.4233 49.9229 15.2874 49.8951 15.2091C49.4815 14.0705 48.8571 12.9361 48.4336 11.8016C47.3717 8.95618 46.3059 6.11281 45.25 3.26326C45.1744 3.05736 45.0929 2.98118 44.8782 3.01413C43.693 3.19531 40.5174 5.4313 39.3283 5.59396C38.8431 5.65984 38.348 5.75661 37.8648 5.71955C36.5981 5.62278 35.3354 5.44571 34.0688 5.32836C32.5257 5.18629 30.9807 5.07305 29.4356 4.94745C27.7732 4.81157 26.1168 4.84863 24.4743 5.176C23.6054 5.34895 22.7583 5.58778 21.9708 6.02015C21.5274 6.26311 21.2033 6.58224 21.0502 7.11344C20.6425 8.52381 20.038 9.85799 19.4395 11.1922C19.1651 11.8016 18.8966 12.4152 18.6461 13.0349C18.5268 13.3293 18.5765 13.6341 18.7157 13.9182C18.8608 14.2167 19.0497 14.3053 19.36 14.2167C20.1335 13.9964 20.8434 13.6361 21.4896 13.142C22.3924 12.4502 23.144 11.606 23.8301 10.6919C23.9872 10.4818 24.1741 10.3315 24.4306 10.2801C25.4427 10.0742 26.4569 9.8724 27.469 9.65827C27.7633 9.5965 28.0118 9.65209 28.2564 9.82298C30.398 11.3178 32.5436 12.8084 34.6872 14.297C36.7393 15.7239 38.7934 17.1466 40.8455 18.5734C42.0943 19.4423 43.347 20.3153 44.6197 21.2006ZM18.7714 22.9095C18.7574 22.788 18.7475 22.6645 18.7276 22.543C18.6441 22.0427 18.3041 21.7339 17.9561 21.4271C17.2124 20.7703 16.2679 20.8485 15.6395 21.6227C15.2756 22.0695 14.9057 22.5101 14.5379 22.9527C13.653 24.0193 12.7642 25.0837 11.8892 26.1585C11.6049 26.5064 11.5134 26.9244 11.575 27.3835C11.6486 27.9353 11.9906 28.2792 12.3744 28.6168C13.1022 29.2551 14.0567 29.181 14.6791 28.4274C15.8224 27.0376 16.9758 25.6561 18.1251 24.2725C18.4532 23.8751 18.7893 23.486 18.7714 22.9095ZM15.4029 30.7128C15.3949 31.3923 15.7767 31.8267 16.2718 32.1808C16.8843 32.6194 17.7274 32.5082 18.2186 31.9296C18.6421 31.4293 19.0597 30.9228 19.4773 30.4184C20.1752 29.5763 20.8772 28.7342 21.5692 27.8859C21.7203 27.7006 21.8754 27.503 21.9649 27.2827C22.2552 26.562 22.0285 25.8867 21.3385 25.3205C20.6743 24.7749 19.7895 24.8428 19.2406 25.4996C18.0814 26.8873 16.93 28.2812 15.7767 29.6751C15.5301 29.9716 15.3929 30.3154 15.4029 30.7128ZM23.2614 29.4672C22.6807 29.4631 22.3188 29.5969 22.0543 29.9057C21.3783 30.6922 20.7081 31.487 20.0659 32.3003C19.6045 32.885 19.6523 33.723 20.1295 34.2501C20.8076 34.9974 21.8078 34.9316 22.4739 34.11C23.0287 33.4244 23.5994 32.7491 24.1641 32.0717C24.5936 31.5549 24.707 30.9722 24.4346 30.3505C24.1761 29.7637 23.7048 29.4795 23.2614 29.4672ZM10.7279 24.3734C10.9686 24.3466 11.235 24.359 11.4299 24.1222C12.1517 23.2472 12.8775 22.3783 13.5953 21.5012C13.6629 21.4188 13.7127 21.3035 13.7306 21.1944C13.828 20.6076 13.5277 19.99 13.0286 19.7243C12.4699 19.4279 11.8395 19.4999 11.4299 19.9694C10.8115 20.6756 10.2129 21.4003 9.63229 22.1395C9.29226 22.5739 9.28431 23.0907 9.51099 23.5828C9.74365 24.0934 10.1592 24.3549 10.7279 24.3734Z" fill="white"/>
</svg>
