<svg width="52" height="43" viewBox="0 0 52 43" fill="none" xmlns="http://www.w3.org/2000/svg">
<path d="M48 30.7517V37.6846C48 40.057 45.9946 42 43.5462 42H5.45382C3.00539 42 1 40.057 1 37.6846V12.3154C1 9.94304 3.00539 8 5.45382 8H43.5428C45.9913 8 47.9967 9.94304 47.9967 12.3154V20.307" stroke="white" stroke-width="1.5" stroke-miterlimit="10"/>
<path d="M5 8L31.9648 1.12523C33.6997 0.683192 35.5736 1.44905 36.1293 2.82915L38 7.47315" stroke="white" stroke-width="1.5" stroke-miterlimit="10"/>
<path d="M37.1601 31.8804C34.3101 31.8804 32 29.6955 32 27C32 24.3045 34.3101 22.1196 37.1601 22.1196L38.5953 22H49.5647C50.3541 22 51 22.6109 51 23.3575V30.6425C51 31.3891 50.3541 32 49.5647 32H38.5953L37.1601 31.8804Z" stroke="white" stroke-width="1.5" stroke-miterlimit="10"/>
<path d="M39.4765 27.9998C38.6675 27.9854 38.0153 27.1155 38.0002 26.0289C37.9852 24.9134 38.6783 23.9857 39.5129 24.0002C40.309 24.0146 40.9913 24.9134 40.9999 25.9624C41.0106 27.0895 40.3197 28.0143 39.4765 27.9998Z" stroke="white" stroke-width="1.5" stroke-miterlimit="10"/>
</svg>
