<svg width="40" height="42" viewBox="0 0 40 42" fill="none" xmlns="http://www.w3.org/2000/svg">
<path d="M18.5747 25.1069C18.5747 23.8765 18.7241 22.8965 19.0229 22.167C19.3218 21.4375 19.8667 20.7212 20.6577 20.0181C21.4575 19.3062 21.9893 18.7305 22.2529 18.291C22.5166 17.8428 22.6484 17.3726 22.6484 16.8804C22.6484 15.395 21.9629 14.6523 20.5918 14.6523C19.9414 14.6523 19.4185 14.8545 19.0229 15.2588C18.6362 15.6543 18.4341 16.2036 18.4165 16.9067H14.5933C14.6108 15.228 15.1514 13.9141 16.2148 12.9648C17.2871 12.0156 18.7461 11.541 20.5918 11.541C22.4551 11.541 23.9009 11.9937 24.9292 12.8989C25.9575 13.7954 26.4717 15.0654 26.4717 16.709C26.4717 17.4561 26.3047 18.1636 25.9707 18.8315C25.6367 19.4907 25.0522 20.2246 24.2173 21.0332L23.1494 22.0483C22.4814 22.6899 22.0991 23.4414 22.0024 24.3027L21.9497 25.1069H18.5747ZM18.1924 29.1543C18.1924 28.5654 18.3901 28.082 18.7856 27.7041C19.1899 27.3174 19.7041 27.124 20.3281 27.124C20.9521 27.124 21.4619 27.3174 21.8574 27.7041C22.2617 28.082 22.4639 28.5654 22.4639 29.1543C22.4639 29.7344 22.2661 30.2134 21.8706 30.5913C21.4839 30.9692 20.9697 31.1582 20.3281 31.1582C19.6865 31.1582 19.168 30.9692 18.7725 30.5913C18.3857 30.2134 18.1924 29.7344 18.1924 29.1543Z" fill="white"/>
<circle cx="20" cy="20" r="19" stroke="white" stroke-width="2"/>
</svg>
