<svg width="114" height="66" viewBox="0 0 114 66" fill="none" xmlns="http://www.w3.org/2000/svg">
<g clip-path="url(#clip0)">
<path d="M98.5409 28.0734C98.5409 27.6858 98.5409 27.3789 98.5409 27.072C98.5409 20.4009 98.5409 13.7217 98.5409 7.05066C98.5409 5.58076 98.0945 5.44346 99.5877 5.45962C103.175 5.49192 106.753 5.46769 110.34 5.46769C111.07 5.46769 111.801 5.41116 112.515 5.48385C112.953 5.52423 113.497 5.64537 113.781 5.93612C114.227 6.39647 113.854 6.91336 113.57 7.37371C112.904 8.46402 112.272 9.57856 111.582 10.6527C111.29 11.105 111.314 11.4361 111.606 11.8803C112.288 12.9302 112.913 14.0206 113.554 15.0947C113.83 15.547 114.154 15.9912 113.821 16.5565C113.489 17.1219 112.937 17.0573 112.401 17.0573C108.547 17.0573 104.7 17.0734 100.846 17.0411C100.115 17.033 99.888 17.2269 99.8961 17.9699C99.9366 21.37 99.9123 24.7621 99.9123 28.1623C99.9123 29.5675 99.7338 29.7452 98.3218 29.7452C97.6644 29.7452 97.0152 29.7452 96.3579 29.7452C95.8223 29.7372 95.449 29.4706 95.4328 28.9376C95.4166 28.3642 95.798 28.0734 96.366 28.0734C96.8692 28.0653 97.9809 28.0734 98.5409 28.0734ZM110.6 13.2614C109.236 10.9596 109.261 11.5411 110.624 9.23128C110.933 8.70631 111.882 7.55947 112.215 6.99413C111.987 6.94567 110.648 6.92144 110.575 6.92144C107.281 6.92144 103.986 6.92951 100.699 6.90529C100.131 6.90529 100.083 7.18796 100.083 7.63216C100.091 9.61087 100.107 12.8495 100.075 14.8201C100.066 15.4501 100.245 15.652 100.894 15.6439C103.994 15.6116 107.094 15.6278 110.194 15.6278L112.215 15.6439L110.6 13.2614Z" fill="white"/>
<path d="M70.3249 29.6645C69.7568 29.6645 69.1888 29.6887 68.6207 29.6564C68.004 29.6241 67.5901 29.2687 67.582 28.6549C67.5658 27.9927 67.9959 27.6131 68.6532 27.5969C69.7893 27.5727 70.9254 27.5727 72.0534 27.5969C72.6945 27.605 73.0515 27.9684 73.0678 28.5984C73.0759 29.2768 72.7107 29.6483 72.029 29.6645C71.461 29.6806 70.8929 29.6645 70.3249 29.6645Z" fill="white"/>
<path d="M89.4115 29.6645C88.8434 29.6645 88.2754 29.6968 87.7073 29.6564C87.0906 29.616 86.6929 29.2526 86.6848 28.6388C86.6767 28.0169 87.0824 27.6292 87.6911 27.605C88.8272 27.5646 89.9633 27.5727 91.0994 27.5969C91.7567 27.6131 92.1868 28.0007 92.1706 28.663C92.1543 29.2768 91.7405 29.6322 91.1237 29.6645C90.5476 29.6887 89.9795 29.6645 89.4115 29.6645Z" fill="white"/>
<path d="M79.9169 29.6645C79.3813 29.6645 78.8376 29.6725 78.302 29.6645C77.596 29.6564 77.1334 29.301 77.1415 28.5984C77.1496 27.9442 77.6041 27.5969 78.2695 27.5888C79.3488 27.5808 80.42 27.5727 81.4993 27.5888C82.1647 27.5969 82.6192 27.9523 82.6192 28.6065C82.6192 29.3091 82.1566 29.6564 81.4506 29.6645C80.9312 29.6725 80.4281 29.6645 79.9169 29.6645Z" fill="white"/>
<path d="M81.2153 45.0742C81.7509 45.0742 82.2946 45.0499 82.8302 45.0822C83.4956 45.1145 83.9257 45.486 83.9013 46.1402C83.8851 46.746 83.4631 47.1175 82.8464 47.1255C81.7103 47.1498 80.5742 47.1498 79.4381 47.1255C78.797 47.1094 78.4399 46.746 78.4399 46.1079C78.4318 45.4699 78.7889 45.1065 79.43 45.0742C80.0224 45.058 80.6229 45.0742 81.2153 45.0742Z" fill="white"/>
<path d="M71.6152 47.1336C71.0796 47.1336 70.5359 47.1498 70.0003 47.1336C69.343 47.1094 68.9048 46.754 68.9048 46.0918C68.9048 45.478 69.3186 45.0984 69.9354 45.0822C71.0715 45.0499 72.2076 45.0418 73.3437 45.0822C73.9523 45.1065 74.3662 45.4941 74.3581 46.1079C74.3499 46.7217 73.9442 47.0852 73.3193 47.1175C72.7513 47.1579 72.1832 47.1336 71.6152 47.1336Z" fill="white"/>
<path d="M90.6125 47.1336C90.0769 47.1336 89.5332 47.1255 88.9976 47.1336C88.3159 47.1417 88.0076 46.746 87.9994 46.1322C87.9913 45.486 88.2916 45.058 89.0219 45.058C90.1012 45.0661 91.1805 45.0661 92.2598 45.058C92.9821 45.0499 93.3148 45.4457 93.3067 46.1079C93.2985 46.7783 92.9496 47.1498 92.2355 47.1336C91.6837 47.1255 91.1481 47.1336 90.6125 47.1336Z" fill="white"/>
<path d="M99.0765 45.0015C100.05 45.1388 101.032 45.2438 101.998 45.4295C102.639 45.5507 102.98 45.9625 102.858 46.6571C102.744 47.3355 102.249 47.3678 101.706 47.3355C100.724 47.2709 99.7419 47.1982 98.76 47.1659C98.0621 47.1417 97.4859 47.0286 97.5103 46.1483C97.5346 45.3245 97.989 44.9772 98.8005 45.058C98.8898 45.0661 98.9791 45.058 99.0683 45.058C99.0765 45.0418 99.0765 45.0257 99.0765 45.0015Z" fill="white"/>
<path d="M110.121 51.826C109.748 51.5918 109.431 51.4383 109.188 51.2203C108.498 50.6145 107.849 49.9523 107.143 49.3627C106.615 48.9266 106.299 48.4985 106.761 47.8605C107.208 47.2467 107.751 47.2386 108.295 47.7071C109.155 48.442 110.032 49.1689 110.819 49.9846C111.046 50.2188 111.119 50.768 111.014 51.091C110.924 51.3737 110.478 51.5433 110.121 51.826Z" fill="white"/>
<path d="M63.8491 46.851C62.4858 46.2048 61.2279 45.6637 60.0513 44.9853C59.824 44.8561 59.7835 44.1292 59.8971 43.7577C60.0675 43.2247 60.595 43.1601 61.1062 43.3781C62.1449 43.8304 63.2161 44.2261 64.2062 44.7753C64.5226 44.953 64.7985 45.5345 64.7661 45.906C64.7336 46.2129 64.2305 46.4794 63.8491 46.851Z" fill="white"/>
<path d="M58.2659 36.4567C58.0306 37.2966 57.8115 37.9185 57.6898 38.5565C57.6005 39.0169 57.7628 39.5418 57.6005 39.9618C57.4544 40.3252 57.0568 40.7694 56.7079 40.8341C56.4319 40.8825 55.7746 40.3979 55.7827 40.1637C55.8395 38.8473 55.9775 37.5228 56.2534 36.2305C56.3183 35.9398 57.0487 35.5925 57.4463 35.6248C57.7628 35.649 58.0387 36.2063 58.2659 36.4567Z" fill="white"/>
<path d="M62.8104 28.5095C63.0538 28.7599 63.5164 29.0183 63.5732 29.3414C63.63 29.6887 63.419 30.3025 63.135 30.4398C62.2017 30.9163 61.447 31.4978 60.8222 32.3458C60.6437 32.5881 59.8808 32.5962 59.4832 32.4508C58.8989 32.2408 59.0531 31.6997 59.2884 31.2313C59.9782 29.8421 61.1306 29.0183 62.8104 28.5095Z" fill="white"/>
<path d="M101.844 64.8774C101.552 64.5947 101.073 64.3444 101.016 64.0213C100.959 63.6821 101.211 63.0521 101.487 62.9391C102.639 62.4545 103.848 62.091 105.057 61.7438C105.585 61.5903 106.088 61.8407 106.137 62.3899C106.169 62.7533 105.982 63.3833 105.723 63.4963C104.514 64.0051 103.256 64.3847 101.844 64.8774Z" fill="white"/>
<path d="M84.721 65.7819C84.1204 65.7819 83.5199 65.79 82.9194 65.7819C82.3433 65.7658 82.0268 65.4589 82.0349 64.8855C82.043 64.304 82.2946 63.9082 82.9438 63.9082C84.1448 63.9082 85.3458 63.8921 86.5468 63.9163C87.1392 63.9325 87.5044 64.2797 87.5206 64.8693C87.5288 65.5073 87.0905 65.7496 86.5225 65.7819C85.922 65.7981 85.3215 65.7819 84.721 65.7819Z" fill="white"/>
<path d="M94.3779 63.8921C94.9134 63.8921 95.4572 63.9082 95.9927 63.884C96.6744 63.8517 97.1045 64.2717 97.0233 64.8209C96.9747 65.1762 96.4147 65.7012 96.0495 65.7335C94.8323 65.8465 93.5988 65.8304 92.3816 65.7335C92.0975 65.7093 91.6999 65.2085 91.6269 64.8693C91.5133 64.3686 91.8054 63.9325 92.414 63.9082C93.0713 63.884 93.7286 63.9001 94.386 63.9001C94.3778 63.9001 94.3779 63.8921 94.3779 63.8921Z" fill="white"/>
<path d="M65.6344 65.7819C65.0339 65.7819 64.4334 65.7981 63.841 65.7739C63.2973 65.7496 62.924 65.4912 62.9321 64.8935C62.9402 64.2959 63.2405 63.9244 63.8491 63.9082C65.042 63.884 66.243 63.884 67.4359 63.9082C68.0283 63.9163 68.3935 64.2636 68.4097 64.8612C68.426 65.4993 67.9877 65.7496 67.4197 65.7739C66.8273 65.8062 66.2349 65.7819 65.6344 65.7819Z" fill="white"/>
<path d="M75.1128 65.7819C74.5447 65.7819 73.9767 65.7981 73.4086 65.7739C72.8649 65.7496 72.4916 65.5074 72.4916 64.9097C72.4916 64.312 72.7837 63.9244 73.4005 63.9163C74.5934 63.8921 75.7944 63.8921 76.9873 63.9163C77.5797 63.9244 77.953 64.2636 77.9774 64.8532C78.0017 65.4912 77.5716 65.7496 77.0036 65.7819C76.3706 65.8062 75.7376 65.7819 75.1128 65.7819Z" fill="white"/>
<path d="M56.083 65.7819C55.5149 65.7819 54.9388 65.8062 54.3707 65.7739C53.8027 65.7416 53.3645 65.4912 53.3807 64.8532C53.3969 64.2636 53.7702 63.9163 54.3626 63.9082C55.5312 63.884 56.6997 63.884 57.8683 63.9082C58.4607 63.9163 58.834 64.2555 58.8583 64.8451C58.8827 65.4831 58.4445 65.7416 57.8764 65.7739C57.284 65.8062 56.6835 65.7819 56.083 65.7819Z" fill="white"/>
<path d="M112.815 56.3003C112.547 57.9317 111.914 59.1109 110.916 60.0396C110.681 60.2577 109.918 60.2819 109.731 60.08C109.488 59.8216 109.407 59.1916 109.545 58.8282C109.934 57.8267 110.421 56.8495 110.965 55.9207C111.135 55.6299 111.736 55.2665 111.906 55.3634C112.328 55.5815 112.596 56.058 112.815 56.3003Z" fill="white"/>
<path d="M14.0715 23.7606C10.9147 26.0059 8.22053 27.7181 8.12315 31.5705C8.06634 33.7269 7.59567 35.8752 7.29542 38.0235C7.0682 39.6791 6.05382 40.6968 4.43081 40.5595C2.66173 40.4141 1.80154 39.1865 2.00441 37.3935C2.40205 33.9126 2.75911 30.4156 3.31093 26.9589C3.47323 25.9574 4.02506 24.8025 4.77976 24.1402C7.66059 21.5881 10.6469 19.149 13.6982 16.7988C14.6639 16.0558 15.9136 15.5874 17.1065 15.2482C21.4724 13.9882 24.0205 15.1028 25.8707 19.1894C26.7634 21.152 27.4532 23.2276 28.0699 25.2951C28.7516 27.6131 30.0175 29.2687 32.3141 30.2136C34.4077 31.0697 36.404 32.152 38.449 33.1131C40.0477 33.8642 40.8754 35.0352 40.0234 36.7232C39.1794 38.3788 37.7511 38.4677 36.1606 37.7004C33.223 36.279 30.1555 35.0837 27.3558 33.428C25.7977 32.5073 24.6778 30.8517 23.2496 29.4141C22.6815 31.9662 21.9674 34.7364 21.513 37.547C21.3993 38.2173 22.0485 39.0734 22.4786 39.7599C26.7228 46.4714 31.0887 53.1101 35.1787 59.9104C35.8522 61.033 35.8847 63.0763 35.2923 64.2393C34.8378 65.1439 32.9714 65.6689 31.7136 65.7173C30.8777 65.7496 29.7091 64.8208 29.1817 64.0051C23.4524 55.1534 17.7882 46.2775 12.2212 37.337C11.6938 36.489 11.7425 35.0998 11.9291 34.0338C12.4972 30.779 13.2681 27.5485 14.0715 23.7606Z" fill="white"/>
<path d="M10.8011 42.312C12.1482 44.105 14.1607 45.7364 14.6476 47.7313C15.1345 49.7181 14.6314 52.3994 13.5765 54.1924C11.426 57.8429 8.6344 61.1219 6.0457 64.5059C4.78787 66.1615 3.08371 66.4684 1.4039 65.2974C-0.324602 64.0859 -0.348947 62.3737 0.730352 60.6696C1.26594 59.8216 1.87457 59.022 2.50754 58.2467C6.35407 53.5543 9.75427 48.6439 10.1438 42.2393C10.3629 42.2636 10.582 42.2878 10.8011 42.312Z" fill="white"/>
<path d="M23.6472 -6.21851e-06C27.2016 0.0161465 30.0013 2.82672 29.9526 6.34801C29.912 9.72393 27.1042 12.5345 23.7284 12.5991C20.2632 12.6637 17.3337 9.78854 17.3094 6.29955C17.285 2.76211 20.0766 -0.0161589 23.6472 -6.21851e-06Z" fill="white"/>
<path d="M47.2214 65.6527C46.6533 65.6527 46.0772 65.677 45.5091 65.6446C44.9411 65.6123 44.5029 65.362 44.5191 64.7239C44.5353 64.1344 44.9086 63.7871 45.501 63.779C46.6696 63.7548 47.8381 63.7548 49.0067 63.779C49.5991 63.7871 49.9724 64.1263 49.9967 64.7159C50.0211 65.3539 49.5829 65.6123 49.0148 65.6446C48.4224 65.677 47.8219 65.6527 47.2214 65.6527Z" fill="white"/>
</g>
<defs>
<clipPath id="clip0">
<rect width="114" height="66" fill="white"/>
</clipPath>
</defs>
</svg>
