<svg width="64" height="45" viewBox="0 0 64 45" fill="none" xmlns="http://www.w3.org/2000/svg">
<path d="M17.2921 32.0543C25.917 32.0543 32.9089 25.1708 32.9089 16.6796C32.9089 8.18832 25.917 1.30481 17.2921 1.30481C8.66716 1.30481 1.67526 8.18832 1.67526 16.6796C1.67526 25.1708 8.66716 32.0543 17.2921 32.0543Z" stroke="white" stroke-width="1.5" stroke-miterlimit="10"/>
<path d="M17.2921 9.88464V17.6796H23.323" stroke="white" stroke-width="1.5" stroke-miterlimit="10"/>
<path d="M34.674 9H57.6652C60.5976 9 63 11.7026 63 15.005V37.995C63 41.2974 60.5976 44 57.6652 44H24.3348C21.4024 44 19 41.2974 19 37.995V36.9224" stroke="white" stroke-width="1.5" stroke-miterlimit="10"/>
<path d="M38.0469 16.5427H62.826" stroke="white" stroke-width="1.5" stroke-miterlimit="10"/>
<path d="M17.2921 1.97607V4.97412" stroke="white" stroke-width="1.5" stroke-miterlimit="10"/>
<path d="M17.2921 28.6131V31.6177" stroke="white" stroke-width="1.5" stroke-miterlimit="10"/>
<path d="M32.7699 16.7512H29.7247" stroke="white" stroke-width="1.5" stroke-miterlimit="10"/>
<path d="M5.03164 16.7512H1.97977" stroke="white" stroke-width="1.5" stroke-miterlimit="10"/>
<path d="M6.55426 5.86053L7.93786 7.22921" stroke="white" stroke-width="1.5" stroke-miterlimit="10"/>
<path d="M26.7787 25.7715L28.1623 27.1336" stroke="white" stroke-width="1.5" stroke-miterlimit="10"/>
<path d="M28.4271 6.01044L27.0435 7.37259" stroke="white" stroke-width="1.5" stroke-miterlimit="10"/>
<path d="M8.59325 25.9213L6.82568 27.2835" stroke="white" stroke-width="1.5" stroke-miterlimit="10"/>
<path d="M56.0979 24H50.8416" stroke="white" stroke-width="1.5" stroke-miterlimit="10"/>
<path d="M48.1538 24H42.9041" stroke="white" stroke-width="1.5" stroke-miterlimit="10"/>
<path d="M39.2498 24.189H34" stroke="white" stroke-width="1.5" stroke-miterlimit="10"/>
<path d="M56 30H51" stroke="white" stroke-width="1.5" stroke-miterlimit="10"/>
<path d="M48 30H43" stroke="white" stroke-width="1.5" stroke-miterlimit="10"/>
<path d="M39 30H34" stroke="white" stroke-width="1.5" stroke-miterlimit="10"/>
<path d="M55.9999 35.4164H50.7501" stroke="white" stroke-width="1.5" stroke-miterlimit="10"/>
<path d="M48.0624 35.4164H45.7188H42.806" stroke="white" stroke-width="1.5" stroke-miterlimit="10"/>
<path d="M39.1583 35.612H33.9019" stroke="white" stroke-width="1.5" stroke-miterlimit="10"/>
<path d="M31.0023 35.612H25.746" stroke="white" stroke-width="1.5" stroke-miterlimit="10"/>
</svg>
