<svg width="54" height="39" viewBox="0 0 54 39" fill="none" xmlns="http://www.w3.org/2000/svg">
<g clip-path="url(#clip0)">
<path d="M34.6056 4.95573C37.3803 4.94893 39.6127 7.09709 39.6268 9.80269C39.6408 12.5219 37.3451 14.7108 34.5141 14.6904C31.8169 14.67 29.5916 12.5015 29.5704 9.87746C29.5423 7.08349 31.7183 4.96253 34.6056 4.95573Z" fill="white"/>
<path d="M12.4577 13.0521C12.4718 10.3329 14.6549 8.23235 17.4859 8.23235C20.3028 8.23235 22.5634 10.4553 22.5211 13.1813C22.4789 15.8325 20.162 18.0078 17.4155 17.9603C14.6197 17.9127 12.4437 15.7509 12.4577 13.0521Z" fill="white"/>
<path d="M18.9296 38.3134C19.3803 37.5316 20.4859 35.1184 20.8592 34.4725C20.9437 34.4929 21.0563 38.293 21.1408 38.3134H18.9296Z" fill="white"/>
<path d="M32.4578 38.3134C32.007 37.5316 30.9296 35.1184 30.5563 34.4725C30.4718 34.4929 30.6197 38.293 30.5282 38.3134H32.4578Z" fill="white"/>
<path d="M10.1549 38.3134H15.7958C16.6338 36.5731 18.1338 32.1 18.9296 30.4141C19.838 28.4767 21.4085 27.5318 23.5845 27.5046C24.9296 27.491 26.2747 27.5114 27.6197 27.4978C29.8732 27.4706 31.4578 28.4427 32.3873 30.4277C33.1831 32.1136 34.8873 36.5867 35.7254 38.3134H42.1338C42.1549 35.1115 41.9507 27.2395 41.9296 24.0376C41.9296 23.5958 41.9718 23.1539 42 22.712C42.1197 22.6984 43.2817 22.8276 43.4014 22.814C43.3451 22.712 45.3028 35.6214 45.3873 38.3134L49.3873 37.6744C48.7394 32.236 47.8944 26.7908 47.162 21.366C46.669 17.7291 43.993 15.0439 40.0563 15.0371C37.0986 15.0303 34.7747 15.1323 31.8239 15.0167C27.9296 14.8604 24.5141 15.6625 23 19.2111C22.8873 19.4762 21.7747 18.9256 21.5 18.912C21.5 18.912 15.8662 18.776 12.7113 18.7624C10.1408 18.7488 7.92254 20.5503 7.16198 22.9296C6.48592 25.0301 5.35212 29.646 5.35212 29.646C5.22536 30.0607 3.52113 37.1849 3.71831 37.5248L7.21127 37.9735C8.09859 35.533 9.26761 29.7683 10.0423 27.6406L11.1408 27.7289L10.1549 38.3134ZM25.5563 26.6413C23.2676 26.5801 21.4085 24.6971 21.4789 22.5081C21.5493 20.3939 23.4789 18.5993 25.6831 18.6129C27.9296 18.6265 29.8732 20.5367 29.831 22.6984C29.7817 24.8942 27.831 26.6957 25.5563 26.6413Z" fill="white"/>
<path d="M50.9014 38.3134H3.10563C1.78873 38.3134 0.711266 37.2733 0.711266 36.0021V2.9979C0.711266 1.72668 1.78873 0.686592 3.10563 0.686592H50.9014C52.2183 0.686592 53.2958 1.72668 53.2958 2.9979V36.0089C53.2887 37.2733 52.2183 38.3134 50.9014 38.3134Z" stroke="white" stroke-width="2.018" stroke-miterlimit="10"/>
</g>
<defs>
<clipPath id="clip0">
<rect width="54" height="39" fill="white"/>
</clipPath>
</defs>
</svg>
