<svg width="51" height="44" viewBox="0 0 51 44" fill="none" xmlns="http://www.w3.org/2000/svg">
<g clip-path="url(#clip0)">
<path d="M45.6921 43.2351H5.3079C2.81006 43.2351 0.761536 41.185 0.761536 38.6683V10.7858C0.761536 8.27677 2.81006 6.21906 5.3079 6.21906H45.6921C48.1899 6.21906 50.2385 8.27677 50.2385 10.7858V38.6683C50.2385 41.185 48.1976 43.2351 45.6921 43.2351Z" stroke="white" stroke-width="2" stroke-miterlimit="10"/>
<path d="M0.761536 14.1898L50.2385 14.4882" stroke="white" stroke-width="2" stroke-miterlimit="10"/>
<path d="M14.1189 6.61683C14.1189 3.39639 15.7181 0.764954 17.6828 0.764954H33.0887C35.0458 0.764954 36.6527 3.39639 36.6527 6.61683" stroke="white" stroke-width="2" stroke-miterlimit="10"/>
<path d="M34.6803 30.9833C34.5661 30.8151 34.4138 30.6544 34.2539 30.532C33.9721 30.3255 33.6599 30.1572 33.3629 29.966C33.1192 29.8206 32.9592 29.6064 32.9516 29.3234C32.9364 28.8109 32.944 28.306 32.9516 27.7935C32.9516 27.74 32.9821 27.6864 33.0049 27.6405C33.1116 27.4263 33.3248 27.3116 33.4999 27.1815C33.7893 26.9597 34.0939 26.7685 34.3909 26.5543C34.5509 26.4395 34.6651 26.2942 34.6499 26.0877C34.6422 25.9806 34.6194 25.8658 34.5813 25.7664C34.4747 25.468 34.3605 25.1774 34.2386 24.8867C34.1092 24.596 33.9721 24.313 33.8274 24.0299C33.736 23.854 33.5837 23.7546 33.3857 23.7546C33.2867 23.7546 33.1877 23.7699 33.0887 23.7928C32.7384 23.8617 32.3881 23.9305 32.0302 23.9993C32.0073 24.007 31.9921 24.0223 31.9692 24.0223C31.8017 24.0223 31.6189 24.0605 31.4666 24.0146C31.2229 23.9381 31.0554 23.7316 30.8726 23.5633C30.6366 23.3415 30.4233 23.0891 30.2025 22.8596C30.073 22.7219 30.0197 22.5612 30.0349 22.3776C30.0426 22.2935 30.0654 22.2094 30.0806 22.1252C30.1035 21.9875 30.1035 21.8422 30.1416 21.7121C30.2253 21.4291 30.2786 21.1384 30.3167 20.8401C30.3548 20.5724 30.2177 20.3964 30.0197 20.2817C29.7684 20.1363 29.5019 20.0216 29.243 19.9069C29.0373 19.8151 28.8165 19.7539 28.6033 19.6697C28.4738 19.6238 28.352 19.5626 28.2225 19.5244C28.0778 19.4861 27.9407 19.4708 27.7884 19.5397C27.5904 19.6315 27.4838 19.8074 27.3696 19.9757C27.1792 20.2587 27.004 20.5647 26.8289 20.863C26.6766 21.1231 26.4481 21.2685 26.1587 21.2761C25.679 21.2914 25.1992 21.2761 24.727 21.2761C24.6052 21.2761 24.5062 21.2226 24.43 21.1308C24.293 20.9701 24.1483 20.8095 24.0264 20.6412C23.8284 20.3658 23.6457 20.0751 23.4477 19.8074C23.2877 19.5932 23.0745 19.4938 22.808 19.5703C22.6176 19.6238 22.4272 19.7003 22.2368 19.7692C22.0998 19.8227 21.9627 19.8839 21.8256 19.9451C21.5591 20.0675 21.3001 20.2052 21.0336 20.3199C20.8204 20.4117 20.6148 20.6489 20.6452 20.9166C20.6528 20.9854 20.6757 21.0619 20.6909 21.1308C20.7214 21.2914 20.7518 21.4597 20.7975 21.6203C20.8813 21.9263 20.9498 22.24 20.9727 22.5689C20.9498 22.676 20.9574 22.806 20.8965 22.8749C20.729 23.0814 20.531 23.2726 20.3482 23.4639C20.1883 23.6245 20.0208 23.7775 19.8685 23.9458C19.6857 24.1523 19.4801 24.2671 19.2059 24.2212C18.9013 24.1676 18.5967 24.1064 18.2921 24.0529C18.0712 24.0146 17.858 23.9764 17.6372 23.9611C17.4392 23.9534 17.2716 24.0758 17.1802 24.2288C17.066 24.4201 16.9899 24.6343 16.9061 24.8484C16.7995 25.1315 16.7005 25.4145 16.5939 25.6975C16.5482 25.8199 16.4949 25.9423 16.4568 26.0647C16.3882 26.2636 16.4187 26.4625 16.5482 26.6231C16.6395 26.7302 16.7614 26.8067 16.8756 26.8909C17.1955 27.105 17.5077 27.3192 17.8352 27.5258C18.0636 27.6635 18.1855 27.87 18.1931 28.1224C18.2007 28.6196 18.1931 29.1169 18.1855 29.6217C18.1855 29.7441 18.1398 29.8512 18.0332 29.9277C17.8732 30.0501 17.7133 30.1725 17.5534 30.2949C17.3325 30.4555 17.1041 30.6085 16.8832 30.7692C16.7919 30.838 16.6776 30.8992 16.6091 30.9833C16.472 31.144 16.4644 31.3505 16.5253 31.5341C16.6319 31.8477 16.7538 32.1537 16.8832 32.4597C17.0127 32.7657 17.1726 33.0564 17.3097 33.3547C17.4087 33.5765 17.5838 33.6607 17.8123 33.653C17.9342 33.6454 18.056 33.6148 18.1702 33.5995C18.2464 33.5918 18.3302 33.5842 18.4063 33.5689C18.6805 33.5077 18.947 33.4312 19.2211 33.3776C19.5334 33.3241 19.8151 33.3394 20.0512 33.6148C20.3254 33.9361 20.6528 34.2191 20.9422 34.5251C21.0869 34.6781 21.1707 34.854 21.1174 35.0758C21.0945 35.1676 21.0793 35.2671 21.0641 35.3589C21.0108 35.6343 20.9651 35.9096 20.9118 36.185C20.9041 36.2233 20.9041 36.2615 20.8889 36.2921C20.8051 36.5216 20.8356 36.7434 20.9498 36.95C20.9955 37.0265 21.0641 37.103 21.1478 37.1412C21.3611 37.2483 21.5895 37.3401 21.8104 37.4319C22.0845 37.539 22.3663 37.6384 22.6404 37.7379C22.7547 37.7761 22.8765 37.8067 22.9831 37.8526C23.1583 37.9368 23.3791 37.9215 23.501 37.7761C23.6609 37.5925 23.8132 37.3936 23.9503 37.1948C24.1102 36.9576 24.2549 36.7128 24.4148 36.468C24.5671 36.2386 24.7727 36.1085 25.0545 36.1085C25.3591 36.1085 25.6637 36.1009 25.9607 36.1009C26.1511 36.1009 26.3491 36.1085 26.5395 36.1315C26.6385 36.1468 26.7527 36.1927 26.8213 36.2615C26.9583 36.3992 27.065 36.5598 27.1792 36.7205C27.3924 37.0188 27.5904 37.3248 27.796 37.6231C27.9179 37.7914 28.2073 37.8679 28.3748 37.7914C28.5423 37.7226 28.7251 37.6537 28.8926 37.5925C29.0678 37.5237 29.2506 37.4625 29.4257 37.386C29.6542 37.2865 29.875 37.1718 30.1111 37.0724C30.3929 36.95 30.5452 36.7587 30.5223 36.4451C30.5147 36.3533 30.4919 36.2539 30.4766 36.1621C30.4081 35.8025 30.3396 35.4507 30.271 35.0911C30.2634 35.0682 30.271 35.0452 30.2634 35.0223C30.1492 34.7393 30.2558 34.5021 30.4386 34.3032C30.6594 34.0508 30.9031 33.8137 31.1392 33.5689C31.3143 33.3929 31.4819 33.1941 31.7712 33.2094C31.855 33.217 31.9464 33.217 32.0302 33.2323C32.1977 33.2553 32.3652 33.2706 32.5328 33.3012C32.8222 33.3547 33.1116 33.4159 33.4009 33.4694C33.6827 33.523 33.8502 33.3547 33.9721 33.1405C34.0787 32.9646 34.1701 32.7733 34.2462 32.5821C34.3681 32.2914 34.4671 31.9931 34.5737 31.7024C34.6194 31.5724 34.6803 31.4423 34.7108 31.3123C34.7108 31.1975 34.7336 31.0598 34.6803 30.9833ZM29.9131 29.5988C29.8293 30.0119 29.6618 30.402 29.4638 30.7768C29.2582 31.1746 28.9993 31.5188 28.6946 31.8401C28.4433 32.1002 28.1463 32.3144 27.8417 32.5133C27.5523 32.6968 27.2477 32.8345 26.9279 32.9416C26.7299 33.0105 26.5167 33.0411 26.311 33.087C25.877 33.1788 25.4353 33.1788 24.9936 33.1176C24.6433 33.064 24.3006 33.0028 23.9807 32.8498C23.7827 32.758 23.5771 32.6968 23.3867 32.5897C23.1735 32.4597 22.9603 32.322 22.7775 32.1461C22.511 31.9013 22.2597 31.6336 22.0388 31.3582C21.8637 31.1363 21.719 30.8916 21.5819 30.6391C21.3839 30.2643 21.2316 29.8665 21.1859 29.4381C21.1554 29.1704 21.125 28.9103 21.1021 28.7344C21.1326 28.4131 21.125 28.1836 21.1783 27.9618C21.2621 27.5564 21.3611 27.1586 21.5514 26.7761C21.7571 26.363 22.0008 25.9806 22.3206 25.6593C22.5567 25.4222 22.8156 25.2156 23.0821 25.0167C23.3867 24.7872 23.7371 24.6496 24.0797 24.4966C24.491 24.3206 24.9174 24.2288 25.3667 24.2518C25.7551 24.2671 26.1511 24.2671 26.5395 24.3283C26.768 24.3589 26.9812 24.4813 27.202 24.5654C27.301 24.6037 27.4 24.6496 27.499 24.6954C27.857 24.8561 28.1768 25.0703 28.4738 25.3227C28.7936 25.6057 29.083 25.9117 29.3039 26.2712C29.4333 26.4854 29.5323 26.7226 29.6466 26.9521C29.8141 27.3039 29.9207 27.6711 29.9664 28.0536C30.0273 28.5661 30.0273 29.0863 29.9131 29.5988Z" stroke="white" stroke-width="1.6467" stroke-miterlimit="10"/>
</g>
<defs>
<clipPath id="clip0">
<rect width="51" height="44" fill="white"/>
</clipPath>
</defs>
</svg>
